<?xml version="1.0" encoding="utf-8"?>
<!-- Generator: Adobe Illustrator 19.1.1, SVG Export Plug-In . SVG Version: 6.00 Build 0)  -->
<svg version="1.1" xmlns="http://www.w3.org/2000/svg" xmlns:xlink="http://www.w3.org/1999/xlink" x="0px" y="0px"
	 viewBox="0 0 283 396" enable-background="new 0 0 283 396" xml:space="preserve">
<g id="bombki">
	<g id="wyborowa01">
	</g>
	<g id="jacobs_x5F_creek">
	</g>
	<g>
		<path fill="#FFFFFF" d="M124.2,81.9c0,23.3-14.4,36.8-20.3,38.5C45.1,136.9,2.4,190.7,2.5,254.5c0.1,76.9,62.2,139,139.2,139
			c76.9,0,138.9-62.3,138.9-139.2c0-63.5-42.3-117.1-101-133.8c-5.9-1.7-19.8-8.7-19.8-37.9"/>
		<path fill="#E6E9EB" d="M141.6,396c-37.9,0-73.4-14.7-100.1-41.4C14.8,327.9,0.1,292.4,0,254.5c0-31.6,10-61.4,29.1-86.4
			c18.5-24.2,44.8-42,74.1-50.2c5.3-1.5,18.5-14.4,18.5-36.1h5c0,24.7-15.6,39.1-22.1,40.9C45.8,139.2,4.9,193.4,5,254.5
			C5.1,329.8,66.4,391,141.6,391c75.2,0,136.4-61.3,136.4-136.7c0-60.8-40.8-114.8-99.2-131.4c-6.5-1.8-21.6-9.5-21.6-40.3h5
			c0,27.5,12.6,34,18,35.5c29.2,8.3,55.4,26.1,73.8,50.2c19,24.8,29,54.6,29,86c0,37.9-14.7,73.4-41.3,100.2
			C215,381.3,179.5,396,141.6,396z"/>
	</g>
	<path fill="#FF901F" d="M157.6,29.1h-32.1l-0.7-1.2c-1.5-2.4-2.3-5.7-2.3-9c0-10.5,8.6-19,19.1-19s19.1,8.5,19.1,19
		c0,3.3-0.9,6.6-2.3,8.9L157.6,29.1z M128.4,24.1h26.3c0.6-1.5,1-3.3,1-5.1c0-7.7-6.3-14-14.1-14s-14.1,6.3-14.1,14
		C127.4,20.8,127.7,22.7,128.4,24.1z"/>
	<path fill="#D97907" d="M141.5,5.5c7.5,0,13.6,6.1,13.6,13.6c0,1.7-0.3,3.3-0.9,4.8H138h-9.2c-0.6-1.5-0.9-3.1-0.9-4.8
		C127.9,11.6,134,5.5,141.5,5.5 M141.5,2.5c-9.2,0-16.6,7.4-16.6,16.6c0,2.8,0.7,5.5,2,7.8H138h18.2c1.2-2.3,2-5,2-7.8
		C158.1,9.9,150.7,2.5,141.5,2.5L141.5,2.5z"/>
	<g>
		<path fill="#150908" d="M163.9,56.4V54c0,0,1.3-0.5,1.3-1.4c0-0.9-1.3-1.4-1.3-1.4V35.7c0-0.5-0.1-0.9-0.4-1.3l-0.2-0.3
			c-0.4-0.6-0.5-1.4-0.2-2c0.4-1.1,0.8-2.9,0.8-4.6c0-2.7-9.3-3.9-22.1-4v0c-0.1,0-0.2,0-0.3,0c-0.1,0-0.2,0-0.3,0v0
			c-12.9,0-22.1,1.2-22.1,4c0,1.7,0.5,3.5,0.8,4.6c0.2,0.7,0.1,1.4-0.2,2l-0.2,0.3c-0.2,0.4-0.4,0.8-0.4,1.3v15.4
			c0,0-1.3,0.4-1.3,1.4c0,0.9,1.3,1.4,1.3,1.4v2.4c0,0-1.3,0.6-1.3,1.4c0,0.9,1.3,1.7,1.3,1.7v8c0,0,0,22.1,0,28.4
			c5.5-2.6,18.9-2.3,22.1-2.2v0c0,0,0.1,0,0.3,0c0.2,0,0.3,0,0.3,0v0c3.2-0.1,16.5-0.5,22.1,2.2c0-6.3,0-28.4,0-28.4v-8
			c0,0,1.3-0.8,1.3-1.7C165.2,56.9,163.9,56.4,163.9,56.4z"/>
		<path fill="#150908" d="M163.9,56.4V54c0,0,1.3-0.5,1.3-1.4c0-0.9-1.3-1.4-1.3-1.4V35.7c0-0.5-0.1-0.9-0.4-1.3l-0.2-0.3
			c-0.4-0.6-0.5-1.4-0.2-2c0.4-1.1,0.8-2.9,0.8-4.6c0-2.7-9.3-3.9-22.1-4v0c-0.1,0-0.2,0-0.3,0c-0.1,0-0.2,0-0.3,0v0
			c-12.9,0-22.1,1.2-22.1,4c0,1.7,0.5,3.5,0.8,4.6c0.2,0.7,0.1,1.4-0.2,2l-0.2,0.3c-0.2,0.4-0.4,0.8-0.4,1.3v15.4
			c0,0-1.3,0.4-1.3,1.4c0,0.9,1.3,1.4,1.3,1.4v2.4c0,0-1.3,0.6-1.3,1.4c0,0.9,1.3,1.7,1.3,1.7v8c0,0,0,22.1,0,28.4
			c0.1,0.1,0.4,0.3,0.5,0.3c0-0.1,0.2-0.5,0.2-0.6c5.9-2.3,18.3-2,21.4-1.9v0c0,0,0.1,0,0.3,0c0.2,0,0.3,0,0.3,0v0
			c3.1-0.1,15.7-0.5,21.5,1.9c0,0.1,0.1,0.5,0.1,0.6c0.2,0,0.4-0.2,0.4-0.3c0-6.3,0-28.4,0-28.4v-8c0,0,1.3-0.8,1.3-1.7
			C165.2,56.9,163.9,56.4,163.9,56.4z"/>
		<path opacity="0.3" fill="#938C86" d="M150.7,23.8c-2.7-0.2-5.7-0.2-8.9-0.3v0c-0.1,0-0.2,0-0.3,0c-0.1,0-0.2,0-0.3,0v0
			c-3.2,0-6.2,0.1-8.9,0.3v70c3.9-0.1,7.5,0,8.9,0v0c0,0,0.1,0,0.3,0c0.2,0,0.3,0,0.3,0v0c1.4-0.1,5-0.2,8.9,0V23.8z"/>
		<path opacity="0.3" fill="#C7BFB9" d="M146.5,23.6c-1.5,0-3-0.1-4.6-0.1v0c-0.1,0-0.2,0-0.3,0c-0.1,0-0.2,0-0.3,0v0
			c-1.6,0-3.2,0-4.6,0.1v70.1c2.1,0,3.8,0.1,4.6,0.1v0c0,0,0.1,0,0.3,0c0.2,0,0.3,0,0.3,0v0c0.9,0,2.6-0.1,4.6-0.1V23.6z"/>
		<path opacity="0.5" fill="#C7BFB9" d="M141.8,64.1l17.4-0.1c0,0-7.3-1.9-17.4-2c0,0,0,0,0,0c-0.1,0-0.2,0-0.3,0
			c-0.1,0-0.2,0-0.3,0c0,0,0,0,0,0c-10.1,0.1-17.4,2-17.4,2l17.4,0.1v0l0.3,0L141.8,64.1L141.8,64.1z"/>
		<path opacity="0.5" fill="#C7BFB9" d="M162,55.2c0,0-8.5-2-20.2-2c0,0,0,0,0,0c-11.9,0-20.5,2-20.5,2l20.2,0.1c0,0,0,0,0,0
			L162,55.2z"/>
		<path opacity="0.5" fill="#C7BFB9" d="M141.9,51.2l13.3,0c0,0-5.6-1.4-13.3-1.5c0,0,0,0,0,0c-0.1,0-0.2,0-0.3,0
			c-0.1,0-0.2,0-0.3,0c0,0,0,0,0,0c-7.8,0.1-13.3,1.5-13.3,1.5l13.3,0v0l0.3,0L141.9,51.2L141.9,51.2z"/>
		<path opacity="0.5" fill="#C7BFB9" d="M154.1,30.1c-2.8-0.5-9.6-0.6-11.8-0.6v0c0,0-0.1,0-0.3,0c-0.2,0-0.3,0-0.3,0v0
			c-2.2,0-9,0.1-11.8,0.6c-3.4,0.6-5.9,1.3-5.5,2c0.3,0.6,15.3,0.1,17.7,0c2.4,0.1,17.4,0.6,17.7,0C160,31.4,157.5,30.7,154.1,30.1z
			"/>
	</g>
	<path opacity="0.1" d="M179.1,121c-5.9-1.7-19.8-8.7-19.8-37.9l-6.8-0.1c0,20.5,2.2,41.1,19.9,47.5c17.9,6.5,98.1,35.9,98.1,129.5
		s-87.6,130-128.7,129v5c76.6-0.3,138.2-62.5,138.2-139.2C280.1,191.2,237.8,137.6,179.1,121z"/>
	<path opacity="0.1" d="M103.5,121c5.9-1.7,19.8-8.7,19.8-37.9l6.8-0.1c0,20.5-2.2,41.1-19.9,47.5C92.2,136.9,12,166.3,12,259.9
		s88.8,130,129.8,129v5C65.3,393.6,2.5,331.4,2.5,254.8C2.5,191.2,44.8,137.6,103.5,121z"/>
	<path opacity="2.000000e-002" d="M211.3,134c26.2,62.1,39.5,129.6,7,236.4c37.5-24.9,62.3-67.6,62.3-116.1
		C280.5,203,252.9,158.1,211.3,134z"/>
	<path opacity="2.000000e-002" d="M76.2,134c-26.2,62.1-39.5,129.6-7,236.4C31.7,345.6,7,302.9,7,254.3C7,203,34.7,158.1,76.2,134z"
		/>
	<path opacity="5.000000e-002" d="M141.6,353.6c-70.2,0-128.1-51.7-137.7-119.3C3,241,2.5,247.7,2.5,254.5
		c0.1,76.9,62.2,139,139.2,139c76.9,0,138.9-62.3,138.9-139.2c0-6.8-0.5-13.4-1.4-20C269.5,301.8,211.7,353.6,141.6,353.6z"/>
</g>
<g id="BRAND">
	<g id="New_Symbol_13">
	</g>
	<g>
		<path fill="#552100" d="M207.6,255l0.2,0.3c0.1,0.2,0.3,0.5,0.6,0.3c0.2-0.1,0.2-0.3,0.1-0.5l-0.2-0.4L207.6,255z M206.7,255.5
			l-0.1-0.2l1.6-0.9l0.4,0.6c0.2,0.4,0.1,0.6-0.2,0.8c-0.3,0.2-0.5,0.1-0.7-0.1l-0.4,0.9l-0.1-0.2l0.4-0.9l-0.2-0.3L206.7,255.5z
			 M206.2,256.2c0.5,0.8,1.5,1.1,2.3,0.6c0.8-0.5,1.1-1.5,0.6-2.3c-0.5-0.8-1.5-1.1-2.3-0.6C206,254.3,205.7,255.4,206.2,256.2
			 M209.4,254.3c0.6,1,0.2,2.2-0.7,2.7c-1,0.5-2.2,0.2-2.7-0.7c-0.6-0.9-0.2-2.2,0.7-2.7C207.6,253.1,208.8,253.4,209.4,254.3"/>
		<polygon fill="#AF9563" points="109.4,211.4 108.8,210.7 109.2,217.2 109.8,217 		"/>
		<path fill="#AF9563" d="M130.6,223.9c-0.2,0.2-0.3,0.3-1.1,0.5c-0.8,0.2-2.4,0.4-3.8,0.7c0,0-1.1,0.2-1.7,0.3
			c0.8,0.2,1.3,0.3,1.8,0.3c0.6,0,3.7-0.6,3.7-0.6C130.1,225,130.4,224.6,130.6,223.9z"/>
		<path fill="#AF9563" d="M116,219.9l-0.4-0.6l-6.2,2.3l0.4,7.8c0,0.5-0.2,0.8-0.7,1l-2.5,1.1c0.3,0.1,0.7,0.2,0.9,0.2
			c0.4-0.1,1.8-0.6,2.1-0.8c0.5-0.3,0.9-0.6,0.9-1.6l-0.4-7.3L116,219.9z"/>
		<path fill="#AF9563" d="M130.2,221.7c-0.2-0.8-0.7-1.9-1.3-2.7L115,202.6c-0.4-0.4-0.9-0.6-1.5-0.7L130.2,221.7z"/>
		<path fill="#AF9563" d="M160.9,203.1c0.1-0.3,0.2-0.8,0.2-1c0-0.7-0.4-1-1.1-1.1C160,200.9,160.8,201.5,160.9,203.1z"/>
		<path fill="#AF9563" d="M156.2,225.6c4.9,1.1,8.6,2.5,9.8,2.5c0.4,0,1-0.3,1-0.9c0-0.3-0.2-0.5-0.3-0.6c0,0.6-0.6,0.8-0.9,0.8
			c-1.2,0-5.5-1.8-11.2-2.7C155.1,225,155.8,225.5,156.2,225.6z"/>
		<path fill="#AF9563" d="M173.2,202.6c0,0.1,0,0.1,0,0.2c0,0.9-1.1,0.8-1.4,0.8c-1.2,0-1.4,0-1.9,1.8l-4.5,17
			c0,0.1-0.1,0.5-0.1,0.9c0,0.5,0.4,0.9,0.9,1.1c-0.2-0.3-0.2-0.4-0.2-0.8c0-0.3,0.1-0.8,0.2-1.1l4.4-16.7c0.4-1.6,0.4-1.5,1.4-1.5
			c0.9,0,1.7-0.2,1.7-1C173.8,203,173.5,202.7,173.2,202.6L173.2,202.6z"/>
		<path fill="#552100" d="M171.8,202.8c0.4,0,0.6-0.2,0.6-0.4c0.1-0.3-0.1-0.4-0.5-0.6c-3.4-1.1-7.1-2-11.1-2.8
			c-0.4-0.1-0.7,0-0.8,0.4c0,0.2,0.1,0.4,0.4,0.6c1.7,0.8,1.8,1.3,1.2,3.6l-4.6,16.4c-0.6,2.3-0.9,2.5-2.8,2.6
			c-0.2,0-0.5,0.1-0.6,0.4c-0.1,0.3,0,0.6,0.4,0.7c3.8,0.7,7.5,1.5,11.1,2.8c0.4,0.1,0.8,0,0.8-0.5c0-0.2-0.1-0.4-0.5-0.6
			c-1.6-0.8-1.7-1.3-1.1-3.6l4.4-16.4C169.6,203.1,170,202.7,171.8,202.8z"/>
		<path fill="#AF9563" d="M129.5,199.6c0,0,1,0.6,1.5,1.9C131,200.8,131.1,199.7,129.5,199.6z"/>
		<path fill="#AF9563" d="M152.7,212.9c0,0,0.6,0.6,0.4,1.7c-0.1,0.9-1.1,7-1.4,8.5c-0.2,1.1-0.7,1.7-1.8,1.6
			c-1.3,0-3.3-0.3-6.9-0.4c-1.9,0-6.2,0.2-6.8,0.2c-1,0-1.8-0.5-1.9-0.5c0.7-0.1,4.8-0.4,8-0.4c3.9,0,5.7,0.3,7.5,0.4
			c0.7,0,0.9-0.3,1-1c0,0,0.4-2.3,0.5-3.2C151.6,219.3,152.7,212.9,152.7,212.9z"/>
		<path fill="#AF9563" d="M140.5,198l0.5,17.5c0,1.3,0.1,2.7,0.3,3.3c0.3,0.8,0.8,1,1.3,1.2c-0.8-0.9-0.8-3-0.9-5l-0.5-15.6
			C141.3,198.6,140.5,198,140.5,198z"/>
		<path fill="#552100" d="M151.4,211.5c-0.3,0-0.4,0.2-0.6,0.6c-0.8,2-3.1,8.9-7.8,8.9c-2.4,0-2.9-1.2-2.9-3.7l-0.6-19.3
			c0-0.8-0.5-0.9-1-0.9c-1.7,0-5.4,0.2-8.7,0.6c-0.6,0.1-0.7,0.3-0.7,0.6c0,0.3,0.3,0.4,0.6,0.5c1.6,0.3,2.3,0.6,2.4,2.5l0.5,19.7
			c0,1.2,0.3,2.3,2.4,2.1c3.2-0.3,5.6-0.4,8.2-0.4c1.9,0,3.8,0.2,6,0.4c0.6,0.1,0.9-0.1,1-0.9l1.8-9.9
			C152,211.7,151.8,211.5,151.4,211.5z"/>
		<path fill="#552100" d="M112.2,201.9c-0.4-0.5-0.7-0.7-1.5-0.4c-2.4,0.8-4.8,1.6-7.2,2.6c-0.5,0.2-0.6,0.5-0.5,0.8
			c0.2,0.3,0.5,0.2,0.8,0.2c1.9-0.1,2.1,1,2.1,1.8l0.8,20.3c0,1.3-0.2,2-1,2.7c-0.1,0.1-0.4,0.3-0.3,0.6c0.1,0.3,0.3,0.5,0.7,0.3
			c0.6-0.3,1.2-0.6,2.1-1c0.5-0.2,0.6-0.4,0.6-1.1l-0.4-7.8l7.4-2.8l4.2,5c0.9,1.1,1.9,1.4,2.9,1.5c0.8,0,2.5-0.4,3-0.5
			c0.9-0.2,2.1-0.4,3.1-0.6c0.9-0.2,0.6-0.7,0.2-1.3C128.8,221.6,112.2,201.9,112.2,201.9z M108.3,218.6l-0.6-10.8l6.9,8.5
			L108.3,218.6z"/>
		<path fill="#AF9563" d="M82.5,248.4c0.6,0.9,0,1.4-0.5,2.1l-1.7,1.8c0,0,0.9,0,1.5-0.6c0.4-0.4,1-1.1,1-1.1c0.9-0.9,1-1.5,0.3-2.6
			l-9.6-13.2c-0.2-0.1-1.2-0.5-1.2-0.5L82.5,248.4z"/>
		<path fill="#AF9563" d="M73,223.8l7.9,3.7l-0.4-0.9l-5.4-2.5c-0.8-0.3-1.3-0.4-1.6-0.4C73.3,223.7,73,223.8,73,223.8z"/>
		<path fill="#AF9563" d="M90,239.5l-5.1-15.2l-1.1-1.2l5.6,16.7c0,0,0.3,0.8,0.3,1.1c0,0.5-0.5,0.7-0.6,0.6c0.1,0,0.3,0.2,0.6,0.2
			c0.4,0,0.7-0.3,0.7-0.7C90.3,240.6,90.3,240.2,90,239.5z"/>
		<path fill="#AF9563" d="M104,232.2c0.3,0.4,0.3,1.1-0.5,1.6l-2.1,1.2c-1.2,0.6-1.9,0.2-1.9,0.2s0.3-0.1,0.4-0.2
			c0.3-0.2,2.5-1.4,3-1.8C103.5,233,104.1,232.7,104,232.2z"/>
		<path fill="#AF9563" d="M103.7,230c-0.1-0.5-0.5-1.6-1.8-2.9l-12.8-13.4c-0.4-0.3-0.9-0.6-1.6-0.6L103.7,230z"/>
		<path fill="#552100" d="M86.5,213.4c-0.5-0.5-0.8-0.6-1.6-0.1l-4.2,3.4c-1.7,1.2-1.7,1.6-1.1,3.7l3,9.1l-9.7-4.7
			c-0.9-0.5-1.7-0.4-2.5,0.3c-0.8,0.8-1.5,1.4-2.8,2.7c-1.2,1.1-2.6,2.1-3.6,3.2c-0.3,0.3-0.3,0.6-0.2,0.7c0.2,0.3,0.6,0.2,0.9,0
			c1-0.4,1.8-0.9,2.6,0.5l11,15.9c0.8,1.4,0.8,2,0.2,3c-0.1,0.2-0.2,0.4-0.2,0.6c0,0.3,0.2,0.5,0.5,0.5c0.1,0,0.3-0.1,0.4-0.2
			c0.4-0.4,1.7-1.9,1.7-1.9c0.4-0.4,0.7-0.8,0.3-1.5l-11.8-16.5l18.1,8.8c0.6,0.3,1.1-0.1,0.9-0.7l-7.1-20.7l13.5,14
			c1.3,1.4,2.9,2,5.4,0.4c0.9-0.6,1.8-1.1,2.8-1.7c0.7-0.4,0.4-1,0-1.4L86.5,213.4z"/>
		<path fill="#AF9563" d="M104.7,206.3c-0.3-0.3-1-0.3-1-0.3c0.8,0.4,1,0.6,1.3,1.4C105,207.4,105.1,206.7,104.7,206.3z"/>
		<path fill="#AF9563" d="M184.8,235.4c-3.1,0-5.1-1.5-7.8-2.9c-1.8-1-3.6-1.9-6.3-2.9c0.2,0.5,0.7,0.8,1.4,1.1
			c1.2,0.6,3,1.5,5.1,2.7c2.9,1.6,4.8,2.7,7.7,2.7c4.3,0,7.9-2.5,7.9-6.2c0-0.7,0-1.3-0.2-1.8C192.8,230.4,191.2,235.4,184.8,235.4z
			"/>
		<path fill="#AF9563" d="M179.5,227.1c-0.6,1-0.7,1.3-0.7,1.8c0,0.2,0.1,0.8,0.6,0.9c-0.1-0.2-0.1-0.3-0.1-0.6
			c0-0.3,0.7-1.5,0.9-2.1l2.6-5.2c0.8,0.4,1.6,0.8,2.2,1.6c-0.4-1.7-2.5-2.6-2.5-2.6L179.5,227.1z"/>
		<path fill="#AF9563" d="M184,218c0,0,0.4,0.2,0.7,0.2l2.4-4.9c0.4-0.7,0.6-0.9,1.2-0.9c0.9,0,1.1,0.7,1.1,0.8
			c0-1.1-0.9-1.5-1.5-1.5c-0.7,0-1.1,0.6-1.4,1.1L184,218z"/>
		<path fill="#552100" d="M189.7,209.3c-3.4-1.8-7.7-3.7-10.9-4.9c-0.5-0.2-0.8-0.1-0.9,0.2c-0.1,0.3,0,0.5,0.3,0.7
			c1.2,0.9,1.6,1.5,0.8,3.2l-8.6,17.4c-0.6,1.1-0.7,2.1,1.1,2.9c2.4,1,5,2.3,6.7,3.2c3.7,2.1,5.2,2.3,6.5,2.3c3,0.1,5.3-1.5,6.4-3.9
			c1.7-3.4,0-6.8-3.7-9.3c3.6,1.2,6.9,0.4,8.2-2.2C198.1,214.2,192.8,211,189.7,209.3z M185.2,227.3c-1.2,2.3-2.6,5.2-6.1,3.5
			c-1.5-0.7-1.6-1.9-0.9-3.3l3.9-7.9l0.7,0.4C186.1,221.5,186.6,224.3,185.2,227.3z M189.6,216.2c-1.1,2.1-2.4,4.4-6.2,2.6l-0.7-0.4
			l3.1-6.3c0.8-1.6,1.9-1.9,2.9-1.4C190.7,211.8,190.5,214.4,189.6,216.2z"/>
		<path fill="#AF9563" d="M191.3,222.5c-0.4,0-0.6,0-0.9-0.1c0.2,0.1,1.2,0.6,1.4,0.6c2.2,0,5.4-1.2,5.5-5.2c0-0.5-0.1-0.9-0.2-1.3
			C197.4,218.4,195.7,222.6,191.3,222.5z"/>
		<path fill="#AF9563" d="M177.4,206.1c0,0,0.7,1,0.5,2.4c0.1-0.1,0.4-0.7,0.4-1.1C178.3,207,178.3,206.6,177.4,206.1z"/>
		<path fill="#AF9563" d="M200.5,239.5c-0.8,0.9-1.1,1.8-1.1,2.8c0,0.8,0.3,1.6,0.5,1.9c-0.1-0.6-0.1-1.1-0.1-1.6
			c0-0.7,0.3-1.5,1.3-2.6c0,0,9.7-9.9,10.2-10.4c0.6-0.7,0.9-1.3,0.8-1.7L200.5,239.5z"/>
		<path fill="#AF9563" d="M218.5,239.1c-0.3,0.3-8,7.7-8,7.7c-1.6,1.5-3.8,3.7-7.5,3.6c-6,0-9.5-5.7-10.4-7.9
			c0.3,1.7,3.5,8.6,10.4,8.6c4.4,0,6.9-2.9,7.6-3.4c0.7-0.6,8.3-8,8.3-8c0.4-0.4,0.8-0.9,1.2-0.9c0.5,0,1.3,0.9,2.1,0.9
			c0.6,0,0.5-0.7,0.5-0.7s-0.1,0.1-0.4,0.1c-0.7,0-1.6-1.1-2.3-1.1C219.4,238.1,219,238.6,218.5,239.1z"/>
		<path fill="#552100" d="M218.3,237.9c1.3-1.2,2-0.9,3.5,0.1c0.2,0.1,0.4,0.2,0.5,0.2c0.2,0,0.4-0.1,0.4-0.4c0-0.1-0.1-0.3-0.3-0.5
			c-0.6-0.8-1.4-1.8-2.1-2.6c-0.3-0.3-0.8-0.6-1.3,0l-10.3,10.1c-2.9,2.8-6.1,3.7-8.7,0.9c-2.9-3-1.2-5.8,0.7-7.6l11.1-11.2
			c0.5-0.6,0.4-0.9,0.1-1.3c-1.9-1.8-3.8-3.5-6-5.4c-0.4-0.4-0.7-0.3-0.9-0.1c-0.2,0.2-0.1,0.5,0.1,0.8c0.7,1.1,0.6,2-0.5,3.1
			l-8.7,8.6c-3.7,3.6-4.9,8.2,0.7,13.8c4.7,4.6,9.3,4,13.6-0.2L218.3,237.9L218.3,237.9z"/>
		<path fill="#AF9563" d="M203.8,221.1c0,0,0.1,0.4,0.1,0.9c0,1-0.4,1.5-0.4,1.5s0.9-0.6,0.9-1.4C204.3,221.7,204,221.2,203.8,221.1
			z"/>
		<g>
			<defs>
				<path id="SVGID_43_" d="M109.7,282.8c-1.4,18.5,11.9,34.6,30.4,36c18.6,1.4,34.8-12.4,36.2-30.9c1.4-18.5-12.5-34.8-31.1-36.2
					c-0.9-0.1-1.7-0.1-2.6-0.1C125.3,251.6,111.1,265.1,109.7,282.8"/>
			</defs>
			<clipPath id="SVGID_1_">
				<use xlink:href="#SVGID_43_"  overflow="visible"/>
			</clipPath>
			
				<radialGradient id="SVGID_2_" cx="-1081.4442" cy="-271.8146" r="0.2284" fx="-1081.4572" fy="-271.8144" gradientTransform="matrix(2.4717 160.4587 197.8534 -3.0478 56595.8164 172998.4375)" gradientUnits="userSpaceOnUse">
				<stop  offset="0.1411" style="stop-color:#FFF200"/>
				<stop  offset="0.98" style="stop-color:#EE2E24"/>
			</radialGradient>
			<polygon clip-path="url(#SVGID_1_)" fill="url(#SVGID_2_)" points="177.7,250.5 178.8,320.2 108.3,321.3 107.3,251.6 			"/>
		</g>
		<g>
			<g>
				<path fill="#ECC784" d="M153.7,285.4c-0.4,1-0.7,2.2-0.8,3.5c0.1-0.1,0.5-0.5,1.1-0.5c-0.9,1.2,0.1,3,0.3,3.9
					c-0.3-6.6,4.2-11.8,7-11.7C159.2,279.5,155.3,281.4,153.7,285.4z"/>
				<path fill="#ECC784" d="M162.7,281c1.9,1.5,0.1,4.6-0.5,5.5c0.2,0.1,0.5,0.1,0.8,0c0.4-0.1,0.9-0.3,1.2-0.5
					c-1.2,1.5-1.4,3-1.3,3.7c0.2-0.2,0.7-0.6,1.3-0.3c-1.7,1.5-0.2,4-0.8,5.1c0,0,0,0,0,0C166.6,291.9,168.5,282,162.7,281z"/>
				<path fill="#ECC784" d="M161.3,274.4C161.3,274.4,161.3,274.4,161.3,274.4c1,1.7,1.1,3.5,1.1,4.4c0.2-2.6,0.8-9.1,5-8.5
					c0,0,0,0,0,0c0,0,0,0,0,0c-0.2,0-0.3-0.1-0.5-0.1c0,0-0.1,0-0.1,0c-0.1,0-0.2,0-0.3,0c0,0-0.1,0-0.1,0c0,0-0.1,0-0.2,0
					C163.4,270.2,161.5,272.3,161.3,274.4z"/>
				<path fill="#ECC784" d="M169.7,282c-1.4-1.1-3.2-1.8-5.5-1.7c8.1,1.2,9,9.6,7.6,12.1c0,0,0,0,0,0
					C173.9,290.5,173.2,284.9,169.7,282z"/>
				<path fill="#ECC784" d="M146.6,281c1.3-1.3,2.6-0.8,4.2-3c0,0.7-0.1,1.1-0.7,1.6c1.3,0.2,3.1-0.9,5.2-0.1
					c-4.5,1.6-6.8,4.9-6.4,8.4c0,0,0,0,0,0c0.4-5.5,6.9-9.3,11.9-8.1c-2.1-2.8-7.3-4.5-10.9-2.9c-0.3,0.1-0.5,0.3-0.8,0.4
					c0,0,0,0,0,0c0,0,0,0,0,0C148,278.2,147.1,279.3,146.6,281z"/>
				<path fill="#ECC784" d="M163.3,279c1.7-3.2,5.9-7.8,10.1-5.3c0,0,0,0,0,0c0,0-0.1,0-0.1-0.1c-0.1-0.1-0.2-0.1-0.2-0.1
					c-2.3-1.5-5.1-1.3-7.2,0.6C164.7,275.2,163.8,276.8,163.3,279z"/>
				<path fill="#ECC784" d="M133.7,258.8c5.5,0.8,13.1,12.5,10.4,25.4c0.9-2,3.3-5,1.9-7.7c0.8,0.2,1.6,0.6,2.1,1.3
					c0.3-2.8,0.1-5.3-0.5-7.6C145.4,262,138.2,257.4,133.7,258.8z"/>
				<path fill="#ECC784" d="M121.4,282.6c-0.2-2.6,5.6-5.1,2.7-8.6c1.3-0.5,2.1,0.5,2.6,0.9c0.4-1.4,0.3-4.3-1.6-7.8
					c0.7,0.3,1.8,1,2.4,1.9c-0.4-1.6-0.7-4.8,0.7-7.3c0.6-1.1,1.5-2,2.7-2.6C119.1,259.2,119.8,278.3,121.4,282.6z"/>
				<path fill="#ECC784" d="M146.2,250.6C146.2,250.6,146.2,250.6,146.2,250.6c0.8-0.4,1.2-1.4,2.1-2.4c-1.7-0.7-3-1-3.8-2.3
					c7.2,2.5,7.9-2.5,11.8-1.4c-2.3-1.6-4.4-2.4-6.4-2.7c0,0,0,0,0,0c-0.1,0-0.2,0-0.3,0c0,0-0.1,0-0.1,0c-9-1-14.7,9.5-15.3,13.7
					C137.1,252.9,140.7,250.7,146.2,250.6z"/>
				<path fill="#ECC784" d="M132.3,254.8c0.4-1.7,1.1-5.2,3.6-8.2c0,0,0.1-0.1,0.1-0.1c0.2-4.3-3.6-10.5-10.8-10c-0.1,0-0.1,0-0.2,0
					c-0.1,0-0.1,0-0.2,0c0,0,0,0,0,0C133.6,236.5,132.8,249.6,132.3,254.8z"/>
				<path fill="#ECC784" d="M128.3,257.3c-4.1-0.9-7.8-0.4-10.8,1c-8.7,3.9-12.5,15-9.3,20.7c0-0.1,0-0.1-0.1-0.2
					C106.2,273.5,111.8,257.1,128.3,257.3z"/>
				<path fill="#ECC784" d="M128.7,255.9c-1.5-3-4.3-4.9-7.6-5.8c-6.7-1.9-15.5,0.6-19.2,7c0,0,0,0,0,0c0.1-0.2,0.3-0.4,0.5-0.6
					C106.7,251.4,118.3,249,128.7,255.9z"/>
				<path fill="#ECC784" d="M130.4,254.9c-0.2-4-1.6-7.6-3.7-10.2c-4.1-5.1-10.9-6.9-16.5-2.4c0,0,0,0,0,0
					C120.6,235.2,128.7,249.4,130.4,254.9z"/>
				<path fill="#ECC784" d="M136.1,300.4c0.5-0.9,0.6-2.2,0.1-3.9c-0.4-1.5-1.6-4.9-1.6-6c-0.2,1-0.5,1.4-0.8,1.8
					c0.3-0.6,0.4-1.5,0.1-2.7c-0.7-3.4-1.1-3.5-1.1-6.8c-0.1,0.2-0.3,0.6-0.6,1.3c0.2-0.9,0.2-2,0-3.1c-0.4-2.4-0.7-6.3-0.2-10.9
					c0-0.1,0-0.2,0-0.2c-2.4,6.1-1.6,14.8-1.5,16.2c0.5,0,0.9-0.3,1.2-0.8c-0.6,1.9-1,4.7-0.2,8.3c0.5,0,1.1-0.1,1.7-0.6
					c-0.3,0.4-0.5,1-0.7,2.2c-0.3,2.3,0.4,4.9,1.1,7.2C134.1,302.5,135.4,301.8,136.1,300.4z"/>
				<path fill="#ECC784" d="M157.4,271.7c0-0.1,0-0.2-0.1-0.4c-0.8-5.9-5.6-10.6-11-12.7c4.5-0.6,8.3,1.9,10.4,2
					c-1.2-1.4-1-2.1-0.9-3.5c2.5,4.8,5.9,4.4,8,7.5c-0.5-3.2-1.9-5.7-3.8-7.6c-0.5-0.5-1.1-1-1.7-1.4c-1.7-1.2-3.6-1.9-5.6-2.4
					c-6.3-1.4-13.7,0.3-17.6,4.1c9.1-0.6,19.3,6,21.8,13.8c0.1,0.3,0.2,0.6,0.3,0.9c0.2,1,0.3,2.1,0.3,3.1c0,0,0,0,0,0
					c-0.2-0.1-0.4-0.2-0.6-0.4c0,0,0,0,0,0c-0.2-0.1-0.5-0.2-0.7-0.3c0,0,0,0,0,0l0,0c-0.3,0.1-0.4,0.1-0.7,0.1
					c0.3,0.6,0.7,0.8,1,1.1c0,0,0,0,0,0c2.4,0.3,3.9,1.6,5.2,3.2C161.4,277.2,160.2,273.3,157.4,271.7z"/>
			</g>
		</g>
		<g>
			<path fill="#552100" d="M154.1,306.6c-1.1-0.4-2.2-0.7-3.4-0.9c-2.3-0.3-5,0.7-7.6,0.6c-0.8,0-1.5,0-2.1-0.1
				c1.7,3.7,5,7.9,6.8,9.8C148.8,312.3,152.3,310,154.1,306.6z"/>
			<path fill="#552100" d="M176.1,280.9c-0.3-0.3-0.6-0.5-1-0.7c-2.6-1.7-6.8-2.4-11-0.6c1-1.3,2.4-2,4-2.2c0.7-0.4,1.4-0.8,2.2-1v0
				c0.6-0.2,1.2-0.3,1.8-0.2c-0.5-0.4-1.2-0.9-1-1.4c1.2,0.8,2.3,0.6,3.1,0.5c0.4,0,0.7-0.1,0.9,0c-0.4-0.6-0.9-1.1-1.3-1.4
				c-0.1-0.1-0.1-0.1-0.2-0.2c-4.2-2.5-8.3,2.1-10.1,5.3c0.5-2.2,1.4-3.8,2.6-4.9c0-0.5,0.3-1.2,0.8-1.6c-0.4,0-1-0.3-1.2-0.9
				c0.7,0.6,1.4,0.5,2.1,0.2c0.7-0.3,1.4-0.7,2-0.6c-0.8-0.5-1.5-0.8-2.2-0.9c-4.2-0.6-4.9,5.9-5,8.5c0-0.9-0.1-2.7-1.1-4.3
				c-0.7-1.3-2.1-2.5-4-3.1c0,0.1,0,0.2,0.1,0.4c2.8,1.6,4.1,5.6,4,7.3c-1.2-1.6-2.8-2.9-5.2-3.2c0,0,0,0,0,0
				c-1.6-0.2-3.7-0.1-6.2,1.2c3.6-1.7,8.8,0.1,10.9,2.9c-5.1-1.2-11.6,2.6-11.9,8.1c0,0,0,0,0,0c1-1.8,3.4-1.7,4.3-4.5
				c0.2,0.8,0,1.6-0.2,2c0.2,0,0.4,0,0.6-0.1c1.7-4.1,5.6-5.9,7.7-4.8c-2.8-0.1-7.3,5.1-7,11.7c0,0,2.8-3,2.5-5.9
				c0.5,0.4,0.5,1.1,0.5,1.6c0.7-0.6,1.4-1.6,1.9-2.5c0,0.7,0.4,2.4,0.5,3.1c0.1,0.7,0.2,1.6,0.1,3c0.6,2.8-0.5,6.7-0.7,7.8
				c-0.2,0-0.4-0.1-0.5-0.2c0.2,0.5,0.2,1.1,0,2.2c-0.4,1.4-0.8,2.4-0.8,2.4s-0.5,0.1-0.8-0.2c0.2,0.4,0.3,1,0.1,1.9
				c0,0.2-0.1,0.5-0.2,0.7c-0.1,0.2-0.1,0.4-0.2,0.6c-0.1,0.2-0.2,0.5-0.3,0.7c-0.1,0.3-0.2,0.6-0.3,0.7c-0.3,0-0.6-0.3-0.9-0.6
				c0,0,0,0-0.1-0.1c0.2,0.6,0.3,1.3,0.2,2c-0.1,0.7-0.9,2.3-1.3,2.8c-0.7-0.3-1-0.8-1.2-1.4c0.1,0.8,0.1,1.6,0,2.4
				c-0.1,0.8-0.3,1.6-0.7,2.3c0.1,0,0.1,0,0.2,0c0.3-0.1,0.6-0.2,0.9-0.3c0.2-0.1,0.3-0.1,0.5-0.2c0.3-0.1,0.6-0.2,0.9-0.3
				c0.1-0.1,0.3-0.1,0.4-0.2c0.3-0.1,0.6-0.3,0.9-0.4c0.1,0,0.2-0.1,0.3-0.1c2-0.9,3.8-2,5.5-3.2c0,0,0,0,0,0
				c0.4-0.3,0.7-0.5,1.1-0.8c-1.2-0.5-2.7-0.9-4.4-1.7c-0.1,0-0.2-0.1-0.3-0.1c1.6-4.1,3.3-9.9,3.4-16.5c0.1-2.6,0.9-4.1,1.5-5.3
				c-0.3,0.1-0.6,0.1-0.8,0c0.6-0.8,2.5-4,0.5-5.5c5.8,1,3.9,10.8,0.7,13.5c0,0,0,0,0,0c3.1-1.5,4.2-6.5,4-7.9
				c0.3,0.9,0.6,1.7,1.2,2.3c0.2-1.7,0.8-2,1.3-2.1c-1.7,2.3,1.3,4.1,1.8,5.6c0,0,0,0,0,0c1.4-2.5,0.5-10.9-7.6-12.1
				c2.3-0.1,4.1,0.6,5.5,1.7c0.5,0.1,1.3,0.2,2,0c-0.4-0.6-0.3-1.8-0.2-2.4v0c0,0,0,0,0-0.1c0.2,1,0.1,3.3,3.3,4.2
				c-0.4-0.5-0.4-1.7-0.3-2.2c0.2,0.6,0.4,1.1,0.7,1.4c0.8,0.9,1.8,1.1,2.1,1.5C177.5,283.3,177,282,176.1,280.9z"/>
			<path fill="#552100" d="M152.6,253.3c2,0.5,4,1.2,5.6,2.4c0.6,0.4,1.1,0.9,1.7,1.4c-0.2-0.3-0.4-0.5-0.6-0.8
				c-0.3-0.4-0.7-0.7-1-1c-3.1-2.7-8.3-4.4-12.1-4.6c-5.5,0-9.1,2.2-11.9,4.9c0.6-4.3,6.3-14.7,15.3-13.7
				c-6.5-0.9-11.1,1.7-13.6,4.8c-2.5,3-3.3,6.5-3.6,8.2c0.5-5.2,1.3-18.3-7.4-18.3c-1.4,0.1-2.9,0.5-4.6,1.1
				c2.5,0.2,4.6,3.9,8.1,2.1c-0.4,1.1-1.9,1.7-2.7,1.5c0.9,0.7,1.4,2.5,1,3.5c2.1,2.6,3.5,6.2,3.7,10.2c-1.7-5.5-9.8-19.6-20.1-12.7
				c-0.6,0.4-1.3,1-1.9,1.6c2-0.1,4.3,1.6,8,0.3c0.1,1-1.3,1.9-2.5,2.5c2.4,0.2,5,1.7,7.3,3.5c3.2,0.9,6,2.8,7.6,5.8
				c-10.8-7.1-23-4.3-26.8,1.2c-0.9,1.2-1.4,2.5-1.5,3.9c0.9-0.9,3.5-0.4,7.5-5.8c-0.2,1.1-1.4,3.9-2.4,4.8c6.7-0.8,7.4-4.7,8-6.6
				c0.5,1.1-0.3,3.6-1.4,4.8c1.9,0.8,3.8,0.4,5.2,0.2c3-1.4,6.7-1.9,10.8-1c-16.5-0.2-22.1,16.2-20.2,21.5c0,0.1,0.1,0.1,0.1,0.2
				c0.5-0.8,1.5-1.6,2.6-2.5c0.2-0.1,0.3-0.2,0.5-0.4c2.5-2,5.2-4.4,3.5-7.7c1,0.3,2.1,1.3,1.9,4.6c1.5-1.2,2.1-2.8,2.9-4.6
				c-0.6,2.6-1.4,8,1.9,14.1c-1.6-4.4-2.3-23.5,9.6-23.5c-1.3,0.7-2.1,1.6-2.7,2.6c-0.7,3.3,1.2,7.2,0.9,9.2
				c-2.3,11-0.3,24.8,3.2,35.4c-1.5,0.5-3,1.1-4.7,1.9c-1.7,0.8-3.5,1.2-5,1.7c0,0,0,0,0,0c0.3,0.3,0.7,0.5,1,0.8c0,0,0,0,0,0
				c1.4,1,2.9,1.9,4.5,2.7c0,0,0,0,0,0c0.3,0.2,0.7,0.3,1,0.5c0.1,0,0.2,0.1,0.3,0.1c0.3,0.1,0.6,0.3,0.9,0.4
				c0.1,0.1,0.3,0.1,0.4,0.2c0.3,0.1,0.6,0.2,0.9,0.3c0.2,0.1,0.3,0.1,0.5,0.2c0.3,0.1,0.6,0.2,0.9,0.3c0.2,0.1,0.4,0.1,0.5,0.2
				c0.5,0.1,0.9,0.3,1.4,0.4c0.3,0.1,0.5,0.1,0.8,0.2c0.2,0,0.4,0.1,0.7,0.1c0.3,0.1,0.6,0.1,0.8,0.1c0.2,0,0.4,0.1,0.6,0.1
				c0.3,0,0.6,0.1,0.9,0.1c0.2,0,0.4,0,0.6,0.1c0.3,0,0.6,0,0.8,0.1c-0.3-0.4-0.6-0.9-0.9-1.4c-0.9-2-1.2-4.5-0.9-6.2
				c0.1-0.4,0.2-0.7,0.3-1c-0.6,0.9-1.5,1.5-2.6,1.7c-0.2-0.5-1.2-2.5-1.3-3.9c0-0.1,0-0.1,0-0.2c-0.2-2.8,0.4-4.2,1-5.4
				c0,0,0,0,0,0c-0.7,1.4-2,2.1-2.4,2c-0.7-2.2-1.5-4.9-1.1-7.2c0.2-1.1,0.4-1.7,0.7-2.2c-0.5,0.5-1.2,0.6-1.7,0.6
				c-0.8-3.6-0.4-6.4,0.2-8.3c-0.3,0.5-0.7,0.7-1.2,0.8c-0.1-1.5-0.9-10.1,1.5-16.2c0,0.1,0,0.2,0,0.2c0.5-1.4,1.9-4.3,1.9-6.3
				c2.1,2.7,2.5,7.4,5.5,10.7c0.2-1,0.3-2.3,1.5-2.9c-1.5,5.7,3.2,12.5,3.2,12.5c2.6-12.9-4.9-24.6-10.4-25.4
				c4.6-1.4,11.7,3.2,13.9,11.4c0.3,0.4,0.7,0.7,1,0.9c-0.2-1,0-2.5,0.6-4c0.5,5.7,4.2,6.5,6.7,7.5l0,0c0,0,0,0,0,0
				c0.3,0.1,0.5,0.2,0.7,0.3c0,0,0,0,0,0c0.2,0.1,0.4,0.2,0.6,0.4c0,0,0,0,0,0c0.1-1,0-2.1-0.3-3.1c-0.1-0.3-0.2-0.6-0.3-0.9
				c-2.5-7.8-12.7-14.4-21.8-13.8C138.9,253.6,146.3,251.9,152.6,253.3z"/>
		</g>
		<path fill="#ECC784" d="M158.3,255.2c0.4,0.3,0.7,0.7,1,1c0.1,0.1,0.2,0.3,0.3,0.4c6.4,3.9,11.3,10,13.7,17.1l0.7,0.4
			c0.3,0.3,0.6,0.6,0.8,1c-0.2-0.1-0.5-0.1-0.9,0c0.4,1.4,0.7,2.8,0.9,4.2c-1.9-1.5-4.6-2.3-6.9-2c-1.6,0.2-3,0.9-4,2.2
			c4.2-1.9,8.4-1.2,11,0.6c0.4,0.2,0.7,0.5,1,0.7c1,1.1,1.4,2.4,1.4,3.6c-0.3-0.4-1.3-0.6-2.1-1.5c0,0.4,0,0.9,0,1.4
			c0,14.8-9.8,27.2-23.2,31.2c0.4-0.7,0.6-1.5,0.7-2.3c0.1-0.8,0.1-1.6,0-2.4c0.2,0.6,0.6,1.2,1.2,1.4c0.4-0.5,1.2-2.1,1.3-2.8
			c0.1-0.8,0-1.4-0.2-2c0,0,0,0,0.1,0.1c0.3,0.4,0.6,0.6,0.9,0.6c0.1-0.3,0.4-0.9,0.6-1.4c0.1-0.2,0.2-0.4,0.2-0.6
			c0.1-0.3,0.2-0.6,0.2-0.7c0.2-0.9,0.1-1.5-0.1-1.9c0.3,0.3,0.8,0.2,0.8,0.2s0.4-1,0.8-2.4c0.3-1.1,0.2-1.8,0-2.2
			c0.1,0.2,0.3,0.2,0.5,0.2c0.3-1,1.3-5,0.7-7.8c0,0,0,0,0,0c-0.1,2.5-1,5-1.3,6c-0.2,0.5-0.2,0.9-0.1,1.2c-0.1-0.2-0.2-0.4-0.3-0.6
			c-0.1,1.4-1.1,2.7-1.3,4.1c-0.1,0.4-0.1,0.7,0,0.9c-0.2-0.3-0.4-0.5-0.5-0.8c-0.3,1.2-0.9,1.7-1.4,3.5c-0.1,0.3-0.1,0.5-0.1,0.8
			c-0.2-0.4-0.3-0.8-0.3-1.1c-1.5,4-5.6,6.4-6.9,10.5c-2-2.2-6.1-7.4-7.4-11.4c0,1.2-0.4,1.8-0.8,2.5c0.3-0.8,0.3-1.8,0-2.9
			c-0.8-2.9-2.2-4.3-2.2-6.5c-0.2,1-0.7,1.7-1.2,2.6c-0.6,1.2-1.2,2.6-1,5.4c0,0.1,0,0.1,0,0.2c0.1,1.4,1.1,3.5,1.3,3.9
			c1.1-0.1,2-0.7,2.6-1.7c-0.1,0.3-0.2,0.6-0.3,1c-0.3,1.7-0.1,4.2,0.9,6.2c0.2,0.5,0.5,1,0.9,1.4c-0.3,0-0.6,0-0.8-0.1
			c-0.2,0-0.4,0-0.6-0.1c0,0-0.1,0-0.1,0c0,0,0,0-0.1,0c-0.2,0-0.5-0.1-0.7-0.1c-0.2,0-0.4-0.1-0.6-0.1c-0.3,0-0.6-0.1-0.8-0.1
			c-0.2,0-0.4-0.1-0.7-0.1c-0.3-0.1-0.5-0.1-0.8-0.2c-0.2,0-0.3-0.1-0.5-0.1c-0.2-0.1-0.5-0.1-0.7-0.2c-0.1,0-0.2,0-0.2-0.1
			c-0.2-0.1-0.4-0.1-0.5-0.2c-0.3-0.1-0.6-0.2-0.9-0.3c-0.2-0.1-0.3-0.1-0.5-0.2c-0.3-0.1-0.6-0.2-0.9-0.3c-0.1-0.1-0.3-0.1-0.4-0.2
			c-0.2-0.1-0.4-0.2-0.6-0.2c0,0-0.1,0-0.1-0.1c-0.1,0-0.2-0.1-0.2-0.1c-0.1,0-0.2-0.1-0.3-0.1c-0.3-0.2-0.7-0.3-1-0.5c0,0,0,0,0,0
			c-0.2-0.1-0.4-0.2-0.6-0.3c-0.2-0.1-0.3-0.2-0.5-0.2c0,0,0,0,0,0c-0.3-0.1-0.5-0.3-0.8-0.4c0,0,0,0-0.1,0c0,0,0,0,0,0
			c-0.4-0.2-0.8-0.5-1.1-0.7c0,0,0,0,0,0c0,0,0,0,0,0c-0.1-0.1-0.2-0.1-0.3-0.2c0,0,0,0,0,0c0,0-0.1-0.1-0.1-0.1
			c-0.3-0.2-0.6-0.4-1-0.7c0,0,0,0,0,0c0,0-0.1-0.1-0.1-0.1c-0.1-0.1-0.2-0.1-0.2-0.2c-0.2-0.2-0.5-0.4-0.7-0.5c0,0,0,0,0,0
			c0,0,0,0,0,0c-0.4-0.3-0.7-0.6-1.1-0.9c-6.9-6.1-11.3-15.1-11.3-24.8c0-2.7,0.4-5.5,1.1-8.2l0.1-0.3c-0.1,0.1-0.2,0.1-0.3,0.2
			c-0.2,0.1-0.3,0.2-0.5,0.4c-1,3.2-1.5,6.6-1.5,10.1c0,19.1,15.5,34.6,34.6,34.6c19.1,0,34.6-15.5,34.6-34.6
			C178.3,272.7,170.1,260.7,158.3,255.2z"/>
	</g>
</g>
</svg>
