<?xml version="1.0" encoding="utf-8"?>
<!-- Generator: Adobe Illustrator 19.1.1, SVG Export Plug-In . SVG Version: 6.00 Build 0)  -->
<svg version="1.1" xmlns="http://www.w3.org/2000/svg" xmlns:xlink="http://www.w3.org/1999/xlink" x="0px" y="0px"
	 viewBox="0 0 283 396" enable-background="new 0 0 283 396" xml:space="preserve">
<g id="bombki">
	<g id="wyborowa01">
	</g>
	<g id="jacobs_x5F_creek">
	</g>
	<path fill="#A40E2D" d="M179,119.5c-14.1-4.3-16.1-19.4-16.1-29.4c-10.8,0-33.3,0-44.8,0c0,10.5-8.8,27.6-14.7,29.3
		C44.6,135.9,1.9,189.7,2,253.5c0.1,76.9,62.2,139,139.2,139c76.9,0,138.9-62.3,138.9-139.2C280,189.8,237.3,137.3,179,119.5z"/>
	<path opacity="0.1" d="M140.7,353.2c-48.6,0-92.9-15.6-126.2-41.1c21.9,48.1,70.3,81.5,126.7,81.5c56.7,0,105.3-33.9,127-82.5
		C234.8,337.1,190,353.2,140.7,353.2z"/>
	<path opacity="0.1" fill="#FFFFFF" d="M184.3,145.8c0,11.4-19.1,20.6-42.6,20.6S99,157.1,99,145.8c0-6.4,6.2-11.5,15.4-15.8
		c13-6.1,13.6-30.8,13.6-33.3c0-2.6,27.9-2.7,27.9,0c0,4.3,0.8,27.6,15.3,34.4C179.3,134.7,184.3,139.9,184.3,145.8z"/>
	<g>
		<path fill="#0F000A" d="M8.5,296.7c0-0.1,0-0.1,0-0.2C8.5,296.6,8.5,296.6,8.5,296.7z"/>
		<path fill="#0F000A" d="M14.3,311.7c0-0.1-0.1-0.2-0.1-0.3C14.2,311.5,14.2,311.6,14.3,311.7z"/>
		<path fill="#0F000A" d="M9.5,299.8c0-0.1,0-0.1-0.1-0.2C9.5,299.6,9.5,299.7,9.5,299.8z"/>
		<path fill="#0F000A" d="M10.6,302.8c0-0.1,0-0.1-0.1-0.2C10.6,302.7,10.6,302.7,10.6,302.8z"/>
		<path fill="#0F000A" d="M13,308.8c0-0.1-0.1-0.2-0.1-0.2C12.9,308.6,13,308.7,13,308.8z"/>
		<path fill="#0F000A" d="M11.8,305.8c0-0.1-0.1-0.1-0.1-0.2C11.7,305.7,11.8,305.7,11.8,305.8z"/>
		<path fill="#0F000A" d="M7.6,293.6c0,0,0-0.1,0-0.2C7.6,293.5,7.6,293.5,7.6,293.6z"/>
		<path fill="#0F000A" d="M3,271.1c0-0.1,0-0.2,0-0.3C3,270.9,3,271,3,271.1z"/>
		<path fill="#0F000A" d="M3.4,274.4c0-0.1,0-0.2,0-0.3C3.4,274.2,3.4,274.3,3.4,274.4z"/>
		<path fill="#0F000A" d="M5.9,287.3c0-0.1,0-0.1,0-0.2C5.9,287.2,5.9,287.2,5.9,287.3z"/>
		<path fill="#0F000A" d="M5.2,284.1c0-0.1,0-0.1,0-0.2C5.1,284,5.2,284,5.2,284.1z"/>
		<path fill="#0F000A" d="M4.5,280.9c0-0.1,0-0.1,0-0.2C4.5,280.7,4.5,280.8,4.5,280.9z"/>
		<path fill="#0F000A" d="M3.9,277.7c0-0.1,0-0.2,0-0.3C3.9,277.5,3.9,277.6,3.9,277.7z"/>
		<path fill="#0F000A" d="M6.7,290.5c0-0.1,0-0.1,0-0.2C6.7,290.3,6.7,290.4,6.7,290.5z"/>
		<path fill="#0F000A" d="M40.2,350.2c-0.5-0.6-1.1-1.2-1.6-1.7C39.1,349.1,39.7,349.7,40.2,350.2z"/>
		<path fill="#0F000A" d="M38.1,348c-0.6-0.6-1.1-1.2-1.7-1.8C37,346.8,37.6,347.4,38.1,348z"/>
		<path fill="#0F000A" d="M42.3,352.4c-0.5-0.5-1.1-1.1-1.6-1.6C41.3,351.3,41.8,351.9,42.3,352.4z"/>
		<path fill="#0F000A" d="M46.7,356.7c-0.5-0.5-1-0.9-1.5-1.4C45.7,355.7,46.2,356.2,46.7,356.7z"/>
		<path fill="#0F000A" d="M36.1,345.7c-0.6-0.6-1.1-1.3-1.7-2C35,344.4,35.5,345.1,36.1,345.7z"/>
		<path fill="#0F000A" d="M15.6,314.6c-0.1-0.1-0.1-0.2-0.2-0.3C15.5,314.4,15.6,314.5,15.6,314.6z"/>
		<path fill="#0F000A" d="M47.5,357.4c0.1,0,0.1,0.1,0.2,0.1l0,0C47.6,357.5,47.6,357.4,47.5,357.4z"/>
		<path fill="#0F000A" d="M42.9,353c0.5,0.5,1,1,1.6,1.5C44,354.1,43.5,353.5,42.9,353z"/>
		<path fill="#0F000A" d="M18.5,320.3c-0.1-0.2-0.2-0.3-0.3-0.5C18.4,320,18.4,320.1,18.5,320.3z"/>
		<path fill="#0F000A" d="M20.1,323.1c-0.1-0.2-0.2-0.4-0.3-0.6C19.8,322.7,20,322.9,20.1,323.1z"/>
		<path fill="#0F000A" d="M17.1,317.5c-0.1-0.1-0.1-0.3-0.2-0.4C16.9,317.2,17,317.3,17.1,317.5z"/>
		<path fill="#0F000A" d="M32.2,341.1c-0.6-0.7-1.2-1.5-1.7-2.2C31.1,339.6,31.7,340.3,32.2,341.1z"/>
		<path fill="#0F000A" d="M34.2,343.4c-0.6-0.7-1.2-1.4-1.7-2.1C33,342,33.6,342.7,34.2,343.4z"/>
		<path fill="#0F000A" d="M30.4,338.8c-2.9-3.8-5.6-7.7-8.1-11.8C24.9,331.1,27.6,335,30.4,338.8z"/>
		<path fill="#0F000A" d="M21.7,325.8c-0.2-0.3-0.3-0.6-0.5-0.9C21.3,325.2,21.5,325.5,21.7,325.8z"/>
	</g>
	<path opacity="6.000000e-002" d="M105.3,120.5c2.3-0.7,4.3-1.9,5.9-3.5c-1.3,1.8-3.1,3.3-5.2,4.3c-56,26.8-89.3,87.8-78.4,151.6
		c12,70.5,73.9,119.9,143.4,117.9c-8.9,1.8-18.2,2.7-27.7,2.7c-76.9,0-139-62.3-139-139.2C4.4,190.8,46.7,137.2,105.3,120.5z"/>
	<path opacity="6.000000e-002" d="M176.4,120.5c-2.3-0.7-4.3-1.9-5.9-3.5c1.3,1.8,3.1,3.3,5.2,4.3c56,26.8,89.3,87.8,78.4,151.6
		c-12,70.5-73.9,119.9-143.4,117.9c8.9,1.8,18.2,2.7,27.7,2.7c76.9,0,139-62.3,139-139.2C277.3,190.8,235,137.2,176.4,120.5z"/>
	<path opacity="0.1" fill="#FFFFFF" d="M254,272.9c-2.7,15.9-8,30.7-15.2,44.1c5.1-2.8,10.1-5.9,14.9-9.2
		c6.8-16.5,10.6-34.5,10.6-53.4c0-46.7-22.8-88.1-58.3-113.3C243.1,172.4,262.7,221.8,254,272.9z"/>
	<path opacity="0.1" fill="#FFFFFF" d="M42.6,316.3c-7.1-13.2-12.2-27.8-14.9-43.4C19,221.8,38.6,172.4,75.6,141
		c-35.4,25.2-58.3,66.6-58.3,113.3c0,18.6,3.6,36.4,10.3,52.6C32.4,310.3,37.4,313.4,42.6,316.3z"/>
	<path fill="#910C2C" d="M141.6,396c-37.9,0-73.4-14.7-100.1-41.4C14.8,327.9,0.1,292.4,0,254.5c0-31.5,10-61.3,29.2-86.2
		c18.5-24.1,44.8-41.9,74-50.3C116.4,114.2,117,91.3,117,91l0-2.4l48.8,0l0,2.5c0,0.2,0.1,22.6,14.4,27.1l0,0
		C241.7,137.2,283,192,283,254.3c0,37.9-14.7,73.4-41.3,100.2C215,381.3,179.5,396,141.6,396z M121.8,93.6
		c-0.6,6.7-3.4,25.2-17.3,29.2C45.8,139.7,4.9,193.8,5,254.5C5.1,329.8,66.4,391,141.6,391c75.2,0,136.4-61.3,136.4-136.7
		c0-60.2-39.9-113-99.3-131.4l0,0c-14.7-4.6-17.3-22.6-17.8-29.3H121.8z"/>
	<path fill="#FF901F" d="M157.7,29.1h-32.1l-0.7-1.2c-1.5-2.4-2.3-5.7-2.3-9c0-10.5,8.6-19,19.1-19c10.5,0,19.1,8.5,19.1,19
		c0,3.3-0.9,6.6-2.3,8.9L157.7,29.1z M128.5,24.1h26.3c0.6-1.5,1-3.3,1-5.1c0-7.7-6.3-14-14.1-14c-7.8,0-14.1,6.3-14.1,14
		C127.5,20.8,127.8,22.7,128.5,24.1z"/>
	<path fill="#D97907" d="M141.6,5.4c7.5,0,13.6,6.1,13.6,13.6c0,1.7-0.3,3.3-0.9,4.8h-16.2h-9.2c-0.6-1.5-0.9-3.1-0.9-4.8
		C128,11.5,134.1,5.4,141.6,5.4 M141.6,2.4C132.4,2.4,125,9.8,125,19c0,2.8,0.7,5.5,2,7.8h11.2h18.2c1.2-2.3,2-5,2-7.8
		C158.2,9.8,150.8,2.4,141.6,2.4L141.6,2.4z"/>
	<g>
		<path fill="#CDC6BC" d="M115.3,96h51.9c-1.7-29.2-1.1-40.7,0.3-43.5c1.5-3.2,1-2.7,1-5.5c0-2.8,0-8.1,0-9.7s-1.2-2-1.2-4.3
			c0-2.4,0-5.2,0-5.2s-1.2-4.5-25.9-4.5c-24.7,0-25.9,4.5-25.9,4.5s0,2.8,0,5.2c0,2.4-1.2,2.8-1.2,4.3s0,6.9,0,9.7
			c0,2.8-0.6,2.3,1,5.5C116.4,55.4,117,66.9,115.3,96z"/>
		<path opacity="0.1" fill="#6D645F" d="M168.5,49.7c-17.9,1-40.7,1.1-54.5,0.1c0.1,0.6,0.3,1.3,1,2.8c0,0.1,0.1,0.2,0.1,0.3
			c6.6,0.4,14.9,0.6,23.7,0.6c9.5,0,19.5-0.2,28.4-0.7c0-0.1,0.1-0.1,0.1-0.2C168.2,51,168.4,50.3,168.5,49.7z"/>
		<path opacity="0.2" fill="#6D645F" d="M167.2,33.3c-15.7-2.5-38.5-1.6-51.9,0c0,1.6-0.7,2.3-1,3.2c13.3-1.7,38.1-2.8,53.9,0.1
			C167.9,35.6,167.2,35,167.2,33.3z"/>
		<path opacity="0.2" fill="#6D645F" d="M122.6,53.2L120,50V35.8l3-3.7v-7.3c-7,1.3-8,3.2-8,3.2s0,2.8,0,5.2c0,2.4-1,2.8-1,4.3
			s0,6.9,0,9.7c0,2.8-0.5,2.3,1,5.5c1.3,2.8,2,14.3,0.3,43.5h5.9L122.6,53.2z"/>
		<path opacity="0.3" fill="#6D645F" d="M169,37.4c0-1.5-2-2-2-4.3c0-2.4,0-5.2,0-5.2s0-0.8-2-1.8V33l1,3.1V50l-1,2.9V96h2.1
			c-1.7-29.2-0.7-40.7,0.6-43.5c1.5-3.2,1.3-2.7,1.3-5.5C169,44.3,169,39,169,37.4z"/>
		<path opacity="0.2" fill="#6D645F" d="M169,37.4c0-1.5-2-2-2-4.3c0-2.4,0-5.2,0-5.2s-1-4.3-24-4.5V96h24.1
			c-1.7-29.2-0.7-40.7,0.6-43.5c1.5-3.2,1.3-2.7,1.3-5.5C169,44.3,169,39,169,37.4z"/>
		<path opacity="0.4" fill="#6D645F" d="M143,23.4c0,0-0.6,0-1,0c-1.9,0-4,0-5,0.1V96h6V23.4z"/>
	</g>
	<rect x="118.3" y="96.4" opacity="0.1" width="47" height="4.4"/>
	<path opacity="0.1" fill="#FFFFFF" d="M215.8,358.5c0,0-0.4,0.4-1.3,1.2c-0.4,0.4-0.9,0.9-1.5,1.5c-0.6,0.6-1.4,1.2-2.2,1.9
		c-0.4,0.4-0.9,0.7-1.3,1.1c-0.5,0.4-1,0.7-1.5,1.1c-1,0.8-2.2,1.6-3.5,2.5c-0.6,0.4-1.3,0.9-2,1.3c-0.7,0.4-1.4,0.8-2.1,1.3
		c-0.7,0.4-1.5,0.9-2.3,1.3c-0.8,0.4-1.6,0.8-2.5,1.3c-1.7,0.9-3.5,1.7-5.3,2.5c-0.9,0.4-1.9,0.8-2.9,1.2c-1,0.4-2,0.8-3,1.1
		c-4.1,1.4-8.4,2.8-13,3.8c-1.1,0.3-2.3,0.5-3.5,0.7c-1.2,0.2-2.4,0.5-3.5,0.7c-2.4,0.4-4.8,0.8-7.3,1c-1.2,0.1-2.5,0.3-3.7,0.4
		c-1.2,0.1-2.5,0.2-3.7,0.2c-1.2,0.1-2.5,0.1-3.8,0.1l-3.8,0.1l-3.7-0.1l-1.8,0l-1.9-0.1c-1.3-0.1-2.5-0.2-3.8-0.2
		c-1.2-0.1-2.5-0.3-3.7-0.4c-2.5-0.2-4.9-0.7-7.3-1c-1.2-0.2-2.4-0.5-3.5-0.7c-0.6-0.1-1.2-0.2-1.8-0.3c-0.6-0.1-1.2-0.3-1.7-0.4
		c-1.1-0.3-2.3-0.5-3.4-0.8c-1.1-0.3-2.2-0.6-3.3-1c-2.2-0.6-4.3-1.4-6.3-2.1c-1-0.4-2-0.8-3-1.1c-1-0.4-1.9-0.7-2.9-1.2
		c-1.8-0.9-3.6-1.6-5.3-2.5c-0.8-0.4-1.7-0.9-2.5-1.3c-0.8-0.4-1.5-0.9-2.3-1.3c-0.7-0.4-1.5-0.8-2.1-1.3c-0.7-0.4-1.3-0.9-2-1.3
		c-1.3-0.8-2.4-1.7-3.5-2.5c-0.5-0.4-1-0.8-1.5-1.1c-0.5-0.4-0.9-0.8-1.3-1.1c-0.8-0.7-1.6-1.3-2.2-1.9c-0.6-0.6-1.1-1.1-1.5-1.5
		c-0.8-0.8-1.3-1.3-1.3-1.3c-0.3-0.3-0.3-0.8,0-1c0.3-0.3,0.6-0.3,0.9-0.1l0,0c0,0,0.5,0.3,1.5,1c0.5,0.3,1.1,0.7,1.7,1.2
		c0.7,0.4,1.5,0.9,2.4,1.5c0.4,0.3,0.9,0.6,1.4,0.9c0.5,0.3,1.1,0.6,1.6,0.9c1.1,0.6,2.3,1.3,3.6,1.9c0.7,0.3,1.3,0.7,2,1
		c0.7,0.3,1.4,0.6,2.2,1c0.7,0.3,1.5,0.7,2.3,1c0.8,0.3,1.6,0.6,2.5,1c3.3,1.3,7,2.5,11,3.6c2,0.5,4,1.1,6.1,1.5
		c1.1,0.2,2.1,0.5,3.2,0.7c1.1,0.2,2.2,0.4,3.3,0.6c0.5,0.1,1.1,0.2,1.6,0.3c0.6,0.1,1.1,0.2,1.7,0.3c1.1,0.2,2.2,0.3,3.4,0.5
		c1.1,0.1,2.3,0.3,3.4,0.4l1.7,0.2l1.7,0.1c1.2,0.1,2.3,0.2,3.5,0.3c1.2,0.1,2.3,0.1,3.5,0.2l1.8,0.1l1.8,0l3.7,0.1l3.5-0.1
		c1.2,0,2.4,0,3.6-0.1c1.2-0.1,2.4-0.1,3.5-0.2c1.2-0.1,2.3-0.2,3.5-0.3c1.2-0.1,2.3-0.2,3.5-0.3c1.2-0.1,2.3-0.3,3.4-0.4
		c1.1-0.2,2.3-0.3,3.4-0.5c1.1-0.2,2.2-0.3,3.3-0.6c1.1-0.2,2.2-0.4,3.3-0.6c1.1-0.2,2.1-0.5,3.2-0.7c2.1-0.4,4.1-1,6.1-1.5
		c3.9-1.2,7.6-2.3,11-3.6c0.8-0.3,1.7-0.6,2.5-1c0.8-0.3,1.6-0.7,2.3-1c0.7-0.3,1.5-0.6,2.2-0.9c0.7-0.3,1.4-0.7,2-1
		c0.7-0.3,1.3-0.6,1.9-0.9c0.6-0.3,1.2-0.6,1.7-0.9c0.6-0.3,1.1-0.6,1.6-0.9c0.5-0.3,1-0.6,1.4-0.8c0.9-0.5,1.7-1,2.4-1.4
		c0.7-0.5,1.3-0.9,1.8-1.2c1-0.6,1.5-1,1.5-1c0.3-0.2,0.8-0.1,1,0.2C216.1,357.9,216.1,358.3,215.8,358.5z"/>
</g>
<g id="BRAND">
	<g>
		<path fill="#FFFFFF" d="M245.2,271.6c0,1-0.8,1.8-1.8,1.8s-1.8-0.8-1.8-1.8c0-1,0.8-1.8,1.8-1.8S245.2,270.7,245.2,271.6
			 M242,271.7c0,0.7,0.5,1.3,1.3,1.3c0.7,0,1.3-0.6,1.3-1.3c0-0.7-0.5-1.3-1.3-1.3C242.6,270.3,242,270.9,242,271.7 M243.1,272.5
			h-0.5v-1.6c0.1,0,0.4-0.1,0.7-0.1c0.4,0,0.5,0.1,0.7,0.1c0.1,0.1,0.2,0.2,0.2,0.4s-0.2,0.3-0.4,0.4v0c0.2,0.1,0.3,0.2,0.3,0.4
			c0.1,0.2,0.1,0.3,0.1,0.4h-0.6c-0.1-0.1-0.1-0.2-0.1-0.4c0-0.2-0.1-0.2-0.3-0.2h-0.2V272.5z M243.1,271.6h0.1
			c0.2,0,0.3-0.1,0.3-0.2c0-0.1-0.1-0.2-0.3-0.2c-0.1,0-0.1,0-0.2,0V271.6z"/>
		<path fill="#FFFFFF" d="M133.7,267.9c0-0.8,0.5-1.2,1.3-1.2c0.9,0,1.3,0.9,1.3,1.8c0,1.3-1,2.3-1.5,2.5l-0.2-0.2
			c0.2-0.2,0.3-0.5,0.3-0.7C134.9,269.1,133.7,269,133.7,267.9 M145.3,284.2c0,1.6-0.9,3-3.6,3c-2.4,0-4.1-1.5-5-2.6l-0.3,0.2
			c0.2,1.1,2,3.9,5.7,3.9c3.7,0,6.6-2.5,6.6-5.9c0-5.2-8-5.4-8-9.6c0-1.4,1-2.5,2.6-2.5c1.8,0,2.4,1.2,2.6,2
			c0.1,0.6,0.3,1.2,1.1,1.2c0.8,0,1.1-0.6,1.1-1.3c0-1.5-1.6-3-4.6-3c-2.6,0-6.1,1.2-6.1,4.9C137.4,279.8,145.3,279.6,145.3,284.2
			 M83.8,279c0-6.8,3.4-8.5,6.4-8.5c2.1,0,2.9,1.1,3.2,2.1c0.2,0.6,0.4,1.2,1.2,1.2c0.8,0,1.1-0.6,1.1-1.3c0-1.5-2.2-3.1-5.7-3.1
			c-4.1,0-10.2,2.4-10.2,9.8c0,5.4,3.5,9.5,9.3,9.5c4.2,0,6-1.3,7-2.4L96,286c-0.8,0.5-2.4,1.2-5,1.2
			C86.2,287.2,83.8,283.7,83.8,279 M162.1,279c0-6.8,3.4-8.5,6.4-8.5c2.1,0,2.9,1.1,3.2,2.1c0.2,0.6,0.4,1.2,1.2,1.2
			c0.8,0,1.1-0.6,1.1-1.3c0-1.5-2.2-3.1-5.7-3.1c-4.2,0-10.2,2.4-10.2,9.8c0,5.4,3.5,9.5,9.3,9.5c4.2,0,6-1.3,7-2.4l-0.2-0.4
			c-0.8,0.5-2.4,1.2-5,1.2C164.4,287.2,162.1,283.7,162.1,279 M112.5,280.2c0-6.5-2.6-9.6-6-9.6c-2.4,0-5.8,1-5.8,8.4
			c0,4,1.6,8.4,6.2,8.4C110.6,287.4,112.5,284,112.5,280.2 M106.2,288.7c-5.7,0-9.4-4.1-9.4-9.5c0-6.9,5.7-9.8,10.1-9.8
			c5.9,0,9.5,4,9.5,9.4C116.3,285.6,111.4,288.7,106.2,288.7 M54.5,269.8v0.4c0.7,0.1,1.1,0.3,1.1,1.8v13.7c0,2.7-0.8,4.3-2.6,4.3
			c-2.8,0-2-2.9-3.7-2.8c-0.6,0-0.9,0.4-0.9,1c0,1.5,1.8,2.7,3.9,2.7c3.9,0,6.8-2.5,6.8-8c0-2.9,0-9.9,0-10.9c0-1.5,0.5-1.7,1.1-1.8
			c0-0.2,0-0.2,0-0.4c-0.3,0-1.6,0-2.8,0H54.5z M71.2,269.8c1,2.5,4.1,10,5.7,14.1c0.8,2.1,1.6,3.8,3.2,4.2v0.4
			c-4.6,0.1-5.3-0.5-6-2.2c-0.2-0.4-0.5-1.4-1.1-2.6h-7.1c-0.3,0.9-0.6,1.6-0.8,2.1c-0.2,0.6-0.5,1.3-0.5,1.8c0,0.4,0.2,0.5,0.5,0.6
			v0.4h-3.5V288c0.6-0.2,0.8-0.4,1.1-1.1c0.3-0.8,6.4-15.7,6.9-17.1H71.2z M72.5,282.2c-1-2.5-2.2-5.5-3-7.7v0c-0.8,2.1-2,5.2-3,7.8
			H72.5z M120.2,278.2v-5.8c0-1.6-0.2-2.1-0.8-2.1v-0.4h2.5c0.5,0,2.7,0,3.2,0c2.9,0,6.6,0.6,6.6,4.1c0,1.6-0.8,3.7-3.7,4.3
			c2.8,0.4,4.6,2.1,4.6,4.5c0,3.2-2.6,5.7-6.7,5.7h-4.1h-2.5V288c0.6-0.1,0.8-0.6,0.8-2.1V278.2z M124.8,270.9c-0.5,0-0.8,0-1.2,0
			v7.1c0.4,0,0.8,0,1.2,0c2.5,0,3.5-1.6,3.5-3.9C128.3,272.5,127.5,270.9,124.8,270.9 M129.1,282.9c0-2.1-1.3-3.6-4.2-3.6
			c-0.5,0-0.9,0-1.3,0v6.6c0,1,0.3,1.3,1.4,1.3C127.7,287.2,129.1,286,129.1,282.9 M176.8,288.4V288c0.6-0.1,0.8-0.6,0.8-2.1v-7.8
			v-5.8c0-1.6-0.2-2.1-0.8-2.1v-0.4h2.5h3.5c5,0,7.2,1.4,7.2,4.4c0,2.4-1.8,4.7-4.7,5.1c2.8,0.2,4.5,7.3,7.4,8.7v0.4
			c-2.3,0-4.1,0.2-5.2-1c-1.2-1.3-2.7-4.5-3.9-6.1c-0.7-1-1.3-1.3-2.6-1.2v5.9c0,1.6,0.2,2,0.8,2.1v0.4c-0.8,0-1.6,0-2.5,0
			C178,288.4,177.1,288.4,176.8,288.4 M186.3,274.4c0-2.4-1.2-3.4-4-3.4c-0.5,0-1,0-1.3,0.1c0,2.7,0,5.7,0,7.2v0.6
			c0.2,0,0.6,0,1.3,0C184.8,278.9,186.3,277.5,186.3,274.4 M206.7,288.4c0.1-0.9,0.3-3.4,0.3-3.5c-0.2,0-0.2,0-0.4,0
			c-0.7,1.6-1.7,2.3-4.2,2.3c-1.1,0-1.5,0-2.2,0c-0.9,0-1.4-0.2-1.4-1.1v-6.5c1,0,2.5,0,3.8,0c1.6,0,2.3-0.5,2.8-1.7l-0.1-0.1
			c-0.5,0.2-1,0.3-3,0.3h-3.6v-6.9h3.3c2.1,0,3.1,0.5,3.5,1.9c0.2,0,0.3,0,0.4,0c0-0.2-0.2-2.3-0.2-3.2h-8.7h-2.5v0.4
			c0.6,0.1,0.8,0.6,0.8,2.1v5.8v7.8c0,1.6-0.2,2-0.8,2.1v0.4C194.7,288.4,205.8,288.4,206.7,288.4 M221.6,288.4
			c0.1-0.9,0.3-3.4,0.3-3.5c-0.2,0-0.2,0-0.4,0c-0.7,1.6-1.7,2.3-4.2,2.3c-1.1,0-1.5,0-2.2,0c-0.9,0-1.4-0.2-1.4-1.1v-6.5
			c1,0,2.5,0,3.8,0c1.6,0,2.3-0.5,2.8-1.7l-0.1-0.1c-0.5,0.2-1,0.3-3,0.3h-3.6v-6.9h3.3c2.1,0,3.1,0.5,3.5,1.9c0.2,0,0.3,0,0.4,0
			c0-0.2-0.2-2.3-0.2-3.2h-8.7h-2.5v0.4c0.6,0.1,0.8,0.6,0.8,2.1v5.8v7.8c0,1.6-0.2,2-0.8,2.1v0.4
			C209.6,288.4,220.7,288.4,221.6,288.4 M224.9,269.8v0.4c0.6,0.1,0.8,0.6,0.8,2.1v5.8v7.8c0,1.6-0.2,2-0.8,2.1v0.4h5.1V288
			c-0.6-0.1-0.8-0.6-0.8-2.1c0-2.2,0-4.8,0-6.6c1.3-0.2,2.2,0.9,2.9,2c1.2,1.7,3.1,4.8,4.3,6c1.2,1.3,3,1.1,5.4,1.1V288
			c-3-1.4-6.1-9.5-8.7-9.9c1.6-1.5,5.4-5.9,7.5-8.3h-2.5c-5.3,6.1-6.9,8.4-8.7,8.5v0v-8.5H224.9z"/>
		<path fill="#FFFFFF" d="M148.1,212.2c3.8,4.6,2.7,9.4-2.1,11c-0.9,0.3-1.8,0.5-2.3,0.8c-1.4,0.8-1.3,1.6,0.8,2.2
			c2.6,0.8,10.6,0.9,11.4,5.6c0.4,2.9-2.5,4.8-5.8,5.3c-4.2,0.7-5.7,2.2-5.7,3.8c0,3.4,7.5,5.4,11.2,5.4c1.9-2.2,4.7-8.2,1.7-17.2
			c-2.7-8.1-4.3-10.6-4.5-10.8c0,0-0.1-0.1-0.1-0.2c-0.2-0.2,0.2-0.5,0.4-0.1c0,0.1,0.2,0.3,0.2,0.3s4.1,5.5,6,11.9
			c0.8,2.7,2.7,11.3-4,18c-1.7,1.7-4,3.5-7.3,5.2c-0.4,0.2-0.7,0.4-0.7,1.5c0,0.3,0,0.9,0.1,1.4c0,0.3,0.3,0.4,0.4,0.4
			c0.2,0,0.5,0,0.6-0.4c0-0.2,0.1-0.5,0.1-0.7c0.1-0.8,0.5-1.6,1.7-2.2c4.8-2.6,7.4-5.7,9.8-7.1c1.9-1.1,5-1.5,8-4.8
			c4.2-4.7,1.7-13.7,0.3-13.5c-0.5,0.1-0.5,0.5-0.7,1.2c-0.8,2.9-3.5,4.5-3,3.4c3.1-6.8-0.5-14.2-2.3-15.9c-0.6-0.6-1.2-0.6-1.2,0.5
			c0,2.4-0.7,4.3-3.1,1.1c-2-2.7-6.2-6.2-8.7-7.2c-0.3-0.1-0.6-0.2-0.9-0.2C147.7,210.8,147.3,211.3,148.1,212.2 M141.8,204.9
			c-1.5,0.1-5.5,5.1-8.2,11.5c0,0-0.4,1-1.3,1c-0.9,0-2.1-0.6-2.2-2.9c-0.1-2.2-1.8-1.9-2.7,0c-1,2.2-2.9,8.5-1,14.7
			c0.7,2.4,1.5,3.5,0.6,4.1c-1,0.6-3.6-2.7-5-5.9c-1.4-3.2-2.2-0.5-2.3,0.6c-2.9,18.7,14.6,19.8,15.3,19.8
			c-9.5-13.5,2.9-29.6,2.9-29.6l0,0c0.4-0.6,0.7-0.2,0.5,0c0,0,0,0.1-0.1,0.1c-1.1,1.8-2.8,5.9-4.1,10.9
			c-5.3,19.3,9.3,24.2,10.1,24.5c0.1,0,0.2-0.1,0-0.2c-3.6-1.7-10.1-7.1-9.1-14c0.3-1.8,1.3-3.5,3.5-4.7c2.4-1.4,5.8-1.3,6.7-1.3
			c1.6,0,4.4-0.3,3.8-2.5c-0.5-1.8-4.3-1.6-7.4-2.1c-5.2-0.7-5.3-5.5,2.5-7.1c5.7-1.3,5.4-4,3.5-5c-1.4-0.7-2.6-0.6-4.1-1
			c-1.9-0.5-5.5-2.3-1.7-7.9c0.9-1.5,1.1-2.4,0.5-3C142.4,204.9,142.1,204.9,141.8,204.9C141.9,204.9,141.9,204.9,141.8,204.9"/>
	</g>
	<g id="New_Symbol_13">
	</g>
</g>
</svg>
