<?xml version="1.0" encoding="utf-8"?>
<!-- Generator: Adobe Illustrator 19.1.1, SVG Export Plug-In . SVG Version: 6.00 Build 0)  -->
<svg version="1.1" xmlns="http://www.w3.org/2000/svg" xmlns:xlink="http://www.w3.org/1999/xlink" x="0px" y="0px"
	 viewBox="0 0 283 396" enable-background="new 0 0 283 396" xml:space="preserve">
<g id="bombki">
	<g id="wyborowa01">
	</g>
	<g id="jacobs_x5F_creek">
	</g>
	<path fill="none" stroke="#FF901F" stroke-width="5" stroke-miterlimit="10" d="M156.5,26.6c1.2-2,2-4.8,2-7.6
		c0-9.2-7.4-16.5-16.6-16.5c-9.2,0-16.6,7.3-16.6,16.5c0,2.8,0.7,5.7,2,7.7H156.5z"/>
	<g>
		<path fill="#D97907" d="M141.8,5.4c7.5,0,13.6,6.1,13.6,13.6c0,1.7-0.3,3.3-0.9,4.8h-16.2h-9.2c-0.6-1.5-0.9-3.1-0.9-4.8
			C128.2,11.5,134.3,5.4,141.8,5.4 M141.8,2.4c-9.2,0-16.6,7.4-16.6,16.6c0,2.8,0.7,5.5,2,7.8h11.2h18.2c1.2-2.3,2-5,2-7.8
			C158.4,9.8,151,2.4,141.8,2.4L141.8,2.4z"/>
	</g>
	<g>
		<path fill="#5A9300" d="M122.3,87.7v19.6c0,6.1-12.4,11.5-18.2,13.1C45.3,136.9,2.4,190.7,2.5,254.6c0.1,76.9,62.1,139,139,138.9
			c76.8,0,139-62.3,139-139.1c0-63.5-42.1-117.1-100.8-133.8c-5.9-1.7-18.7-7-18.7-13.1V87.6L122.3,87.7z"/>
		<path fill="#16180E" d="M141.5,396c-37.8,0-73.4-14.7-100.1-41.4C14.8,328,0.1,292.4,0,254.6c0-31.5,10.1-61.4,29.2-86.3
			c18.6-24.2,44.9-42,74.2-50.2c6.9-1.9,16.4-6.9,16.4-10.8V85.2l43.7-0.1v22.3c0,3.4,8.9,8.5,16.9,10.7
			c29.1,8.3,55.3,26.1,73.7,50.2c18.9,24.8,28.9,54.5,28.9,86C283,332.5,219.5,396,141.5,396z M124.8,90.2v17.1
			c0,9.8-19.9,15.5-20.1,15.5C45.9,139.3,4.9,193.5,5,254.6C5.1,329.8,66.3,391,141.5,391c75.3,0,136.5-61.3,136.5-136.6
			c0-60.8-40.7-114.8-99-131.4c-0.8-0.2-20.5-5.9-20.5-15.5V90.1L124.8,90.2z"/>
	</g>
	<path opacity="0.2" fill="#D5E700" d="M141.5,363.6c-25.7,0-49.8-11.3-67.9-31.9c-18.1-20.6-28.1-48-28.1-77.2
		c-0.1-48.8,28.8-92.1,70.2-105.3c9.3-3,19-8.5,25.9-16.6c6.1,7.3,15.1,13.1,26.3,16.8c19.8,6.4,37.5,20.1,50,38.7
		c12.8,19.1,19.6,42,19.6,66.3C237.5,314.6,194.4,363.6,141.5,363.6L141.5,363.6z"/>
	<path opacity="0.2" fill="#16180E" d="M179.7,120.6c-5.9-1.7-18.7-7-18.7-13.1V89.6l-9.4,0v17.9c0,18.6,14.5,26.8,20.7,28.8
		c23.1,7.6,43.8,24,58.3,46.1c15,22.8,22.9,50.1,22.9,79c0,71.8-50.3,130.2-112,130.2c-30,0-58.1-13.5-79.2-38
		c-21.1-24.5-32.8-57.2-32.8-92c-0.1-58.2,33.6-109.8,81.9-125.5c4.4-1.4,20.3-9.6,20.3-28.9V89.7l-9.4,0v17.6
		c0,6.1-12.4,11.5-18.2,13.1C45.3,136.9,2.4,190.7,2.5,254.6c0.1,76.9,62.1,139,139,138.9c76.8,0,139-62.3,139-139.1
		C280.5,190.8,238.4,137.3,179.7,120.6z"/>
	<path opacity="0.2" fill="#060509" d="M141,368.8c-40.3,0-76.9-9.6-104.4-25.3c18.1,29.6,58.2,50.1,104.8,50.1
		c46.9,0,87.2-20.8,105.1-50.8C218.9,358.9,181.8,368.8,141,368.8z"/>
	<path opacity="0.2" fill="#060509" d="M141.4,391.7c-33.2,0-64.5-11.9-88.4-32.2c27.3,10.3,57.2,15.8,87.9,15.8
		c31.4,0,61.9-5.7,89.6-16.4C206.5,379.6,174.9,391.7,141.4,391.7z"/>
	<g>
		<path fill="#5C0100" d="M164.6,35.2c0-1.7,0-4.7,0-7c0-2.3-7.3-4.9-23.1-4.9s-23.1,2.6-23.1,4.9c0,2.3,0,5.3,0,7s1.3,2.8,2,3.5
			c0.7,0.7-2,1.5-2,2.6c0,1.1,0,14.3,0,16.8c0,3.8,2,3.6,2,5.4s-2,3.7-2,3.7V90h23.1h23.1V67.3c0,0-2-1.9-2-3.7s2-1.6,2-5.4
			c0-2.6,0-15.8,0-16.8c0-1.1-2.7-1.9-2-2.6C163.3,38,164.6,36.9,164.6,35.2z"/>
		<path opacity="0.7" fill="#3A0706" d="M164.4,36.2c-4.3-1.4-11.6-2.2-22.9-2.5c0,1.3,0,2.6,0,4c7.7,0.2,13.3,0.6,17.3,1.2
			c2.4,0.4,4,0.8,5.2,1.3c-0.7-0.6-1.8-1.2-1.3-1.6C163.1,38.2,164,37.4,164.4,36.2z"/>
		<path opacity="0.5" fill="#3A0706" d="M158.7,24.9V35l-1.4,3.8v22.9l1.4,4.1V90h5.9V67.3c0,0-2-1.9-2-3.7s2-1.6,2-5.4
			c0-2.6,0-15.8,0-16.8c0-1.1-2.7-1.9-2-2.6c0.7-0.7,2-1.8,2-3.5s0-4.7,0-7C164.6,27.1,162.6,25.8,158.7,24.9z"/>
		<path opacity="0.2" fill="#9D5A5A" d="M157.3,61.7V38.8l1.4-3.8V24.9c-1.4-0.3-3-0.6-4.8-0.8v10.3l-1.3,3.9v23.1l0.8,4V90h5.3
			V65.8L157.3,61.7z"/>
		<path opacity="0.7" fill="#3A0706" d="M118.6,36.2c4.3-1.4,11.6-2.2,22.9-2.5c0,1.3,0,2.6,0,4c-7.7,0.2-13.3,0.6-17.3,1.2
			c-2.4,0.4-4,0.8-5.2,1.3c0.7-0.6,1.8-1.2,1.3-1.6C119.9,38.2,119,37.4,118.6,36.2z"/>
		<path opacity="0.7" fill="#3A0706" d="M162.6,63.5c0-0.6,0.2-1,0.5-1.4c-7-0.5-12.4-1.4-21.6-1.4s-14.7,0.9-21.6,1.4
			c0.3,0.4,0.5,0.8,0.5,1.4c0,1-0.5,1.9-1.1,2.7c7.6-0.6,13.1-1.4,22.2-1.4c9,0,14.6,0.9,22.2,1.4C163.1,65.5,162.6,64.5,162.6,63.5
			z"/>
		<path opacity="0.5" fill="#3A0706" d="M124.3,24.9V35l1.4,3.8v22.9l-1.4,4.1V90h-5.9V67.3c0,0,2-1.9,2-3.7s-2-1.6-2-5.4
			c0-2.6,0-15.8,0-16.8c0-1.1,2.7-1.9,2-2.6c-0.7-0.7-2-1.8-2-3.5s0-4.7,0-7C118.4,27.1,120.4,25.8,124.3,24.9z"/>
		<path opacity="0.2" fill="#9D5A5A" d="M125.7,61.7V38.8l-1.4-3.8V24.9c1.4-0.3,3-0.6,4.8-0.8v10.3l1.3,3.9v23.1l-0.8,4V90h-5.3
			V65.8L125.7,61.7z"/>
		<path opacity="0.1" fill="#3A0706" d="M143.9,90V23.4c-0.8,0-1.6,0-2.4,0c-0.8,0-1.6,0-2.4,0V90h2.4H143.9z"/>
	</g>
	<ellipse opacity="0.3" fill="#FFFFFF" cx="142.2" cy="181" rx="58.3" ry="18.6"/>
	<ellipse fill="#820F28" cx="142.5" cy="126.7" rx="13.8" ry="11.7"/>
	<ellipse opacity="0.5" fill="#3A0706" cx="142.5" cy="125" rx="12" ry="9.9"/>
</g>
<g id="BRAND">
	<g id="New_Symbol_13">
	</g>
	<g>
		<path fill="#164835" d="M47.6,247.2c0.3-0.3,0.2-0.8,0.3-1.2c0.5-1.5,1.5-2.4,3-2.6c1.2-0.2,2.2,0.2,2.9,1.3
			c0.7,1.1,0.8,2.4,0,3.5c-0.3,0.5-0.1,0.7,0.3,0.9c1.5,0.9,2.9,0.6,4.2-0.3c1.4-0.9,1.7-2.3,1.4-3.8c-0.6-3.5-1.8-6.8-2.6-10.2
			c-0.7-2.6-1.4-5.2-2.2-7.8c-0.5-1.8-1.1-2.5-2.9-3.2c3-1.1,6-2.1,9.1-3.1c-1.2,1.7-0.7,3.3-0.2,4.9c1.3,4.9,2.5,9.8,3.8,14.7
			c0.1,0.5,0.3,0.9,0.5,1.4c0.3,0.8,0.8,1.5,1.7,1.7c-0.8,1.3-1.3,2.6-1.8,3.9c-1.6,3.5-4.4,5.3-8.1,5.9c-2.4,0.4-4.7,0-6.8-1.4
			c-1.4-1-2.3-2.4-2.5-4.2c0-0.1,0-0.2-0.1-0.2C47.6,247.5,47.6,247.4,47.6,247.2z"/>
		<path fill="#164835" d="M164.7,328.6c-1.2-0.3-2.3-0.6-3.6-0.5c0-1,0-2,0-3c0.3,0,0.4,0.2,0.5,0.4c1.3,1.5,2.9,1.8,4.7,1.3
			c0.5-0.1,1-0.3,1-1c0-0.7-0.6-0.8-1-1c-1.2-0.3-2.4-0.5-3.6-0.8c-1.3-0.4-1.8-1-1.8-1.9c-0.1-1.2,0.4-2,1.6-2.5
			c1.6-0.7,3.2-0.6,4.8-0.3c0.1,0,0.3,0.1,0.4,0.1c0.4,0.1,0.9-0.2,1.1,0.1c0.2,0.3,0,0.8,0,1.2c0,0.4,0,0.7,0,1.1
			c-0.3,0.1-0.4-0.2-0.6-0.3c-1.3-1-2.8-1.1-4.3-0.8c-0.5,0.1-0.9,0.4-0.9,1c0,0.6,0.4,0.8,0.9,0.9c1,0.3,1.9,0.4,2.9,0.7
			c0.4,0.1,0.7,0.2,1,0.3c0.9,0.4,1.6,0.9,1.7,2c0.1,1.1-0.5,1.9-1.5,2.4c-0.7,0.3-1.4,0.5-2.1,0.5c-0.2,0-0.4-0.1-0.5,0.1
			C165.2,328.6,164.9,328.6,164.7,328.6z"/>
		<path fill="#164835" d="M101.8,328.6c-1.2-0.3-2.3-0.6-3.6-0.5c0-0.9,0-1.9,0-3c0.3-0.1,0.3,0.2,0.4,0.3c1.3,1.5,2.9,1.8,4.7,1.4
			c0.5-0.1,1.1-0.3,1.1-1c0-0.7-0.6-0.8-1.1-0.9c-1.2-0.3-2.4-0.5-3.6-0.8c-1-0.2-1.7-0.8-1.8-1.9c-0.1-1.2,0.4-2,1.5-2.5
			c1.6-0.7,3.2-0.6,4.9-0.3c0.1,0,0.2,0.1,0.3,0.1c0.4,0.2,0.9-0.3,1.1,0.2c0.2,0.4,0,0.8,0,1.2c0,0.3,0,0.6,0,1.1
			c-1.2-1.2-2.5-1.5-3.9-1.4c-0.1,0-0.2,0-0.3,0c-0.6,0.1-1.4,0.2-1.5,1c-0.1,0.9,0.7,0.9,1.3,1.1c1.1,0.3,2.3,0.4,3.4,0.9
			c1,0.4,1.7,0.9,1.8,2c0.1,1-0.6,1.9-1.7,2.4c-0.8,0.4-1.6,0.3-2.4,0.6C102.3,328.6,102.1,328.6,101.8,328.6z"/>
		<path fill="#164835" d="M100.8,223.3c0.4,2.7,0.8,5.5,1.2,8.2c0.3,1.8,0.3,3.6,0.9,5.3c0.5,1.4,1.2,2.6,2.6,3.5
			c-2.6,0.4-5.2,0.9-7.8,1.3c1.2-1.4,1-3,0.9-4.5c-0.8-6.2-1.6-12.4-2.5-18.6c-0.4-2.7-1.5-4.4-3.7-5.5c1.9-0.3,3.7-0.7,5.6-1
			c0.8-0.1,1.6-0.3,2.5-0.4c0.6-0.1,0.9,0,1.2,0.6c2.6,4.8,5.3,9.5,8,14.2c0.1,0.2,0.2,0.4,0.4,0.5c0.4-1.4,0.9-2.8,1.3-4.2
			c1.2-4.1,2.4-8.2,3.6-12.3c0.1-0.4,0.3-0.6,0.8-0.7c2.7-0.2,5.3-0.4,8.1-0.6c-2,1.3-1.8,3.3-1.7,5.2c0.2,2.7,0.4,5.4,0.6,8
			c0.3,3.8,0.5,7.6,0.8,11.5c0.2,2.1,0.8,3.3,1.9,4.4c-3.2,0.3-6.4,0.5-9.7,0.8c1.6-1.9,1.8-4.1,1.6-6.5c-0.3-3.5-0.5-7-0.7-10.5
			c0-0.7-0.1-1.5-0.2-2.5c-2.1,6.9-4.1,13.6-6.1,20.5c-3.2-5.7-6.1-11.4-9.3-16.9c0-0.1-0.1-0.2-0.1-0.2
			C100.7,223.1,100.7,223.2,100.8,223.3z"/>
		<path fill="#164835" d="M176.5,231.1c0.2-5.2,1.5-10.1,5.1-14.1c5.2-5.9,13.8-4.5,17.4-0.4c1.6,1.8,2.4,3.9,2.6,6.2
			c0.6,5.4-0.6,10.5-3.6,15c-2,2.9-4.6,5-8.1,5.7c-4.8,0.9-11.1-1.5-12.8-8.1C176.7,234,176.5,232.6,176.5,231.1z M195.2,224
			c0-1.3,0-2.1-0.2-3c-0.4-1.7-1.2-3.2-3-3.6c-1.8-0.4-3.3,0.3-4.4,1.6c-0.7,0.8-1.2,1.6-1.6,2.6c-1.5,3.3-2.2,6.7-2.5,10.2
			c-0.1,1.7,0,3.4,0.7,5c1.2,2.6,3.9,3.2,6.1,1.3c0.8-0.7,1.4-1.5,1.9-2.4C194.2,232,194.9,227.9,195.2,224z"/>
		<path fill="#164835" d="M210.8,230.5c-1.2,3.6-2.4,7.3-3.6,10.9c-0.4,1.1-0.7,2.3-0.8,3.5c-0.1,1.1,0.1,2.2,0.9,3.4
			c-2.9-0.9-5.6-1.7-8.5-2.5c2.4-0.8,3.5-2.7,4.2-4.9c1.7-5.4,3.4-10.7,5.1-16.1c0.5-1.6,0.7-3.3,0.3-4.9c-0.2-0.7-0.5-1.3-0.9-1.8
			c0.1-0.2,0.3-0.1,0.4-0.1c2.2,0.7,4.5,1.3,6.7,2c0.4,0.1,0.5,0.3,0.6,0.7c1.3,5.8,2.5,11.6,3.8,17.4c0.1,0.3,0.1,0.6,0.2,1.1
			c0.5-1.6,1-3.1,1.5-4.6c0.8-2.4,1.7-4.9,2.4-7.3c0.5-1.5,0.5-3-0.6-4.6c2.7,1,5.2,1.9,7.8,2.9c0,0,0,0.1,0,0.1
			c-2,0.8-2.9,2.5-3.6,4.4c-2.5,7.3-5,14.7-7.4,22.1c-0.2,0.6-0.4,0.7-1,0.5c-0.9-0.4-1.7-0.7-2.6-1c-0.5-0.1-0.7-0.4-0.8-0.9
			c-1.3-6.4-2.6-12.8-3.9-19.3c-0.1-0.2-0.1-0.5-0.1-0.8C210.9,230.5,210.8,230.5,210.8,230.5z"/>
		<path fill="#164835" d="M81.6,215.3c-0.7,1.2-0.4,2.3,0.2,3.4c1.6,3,3.3,6.1,4.9,9.1c1.7,3.1,3.4,6.2,5.1,9.4
			c0.5,0.9,1,1.8,1.6,2.7c0.6,0.8,1.3,1.5,2.3,2.1c-3.5,0.8-6.9,1.6-10.3,2.3c0.3-0.6,0.7-1.1,0.8-1.6c0.1-0.8,0.1-1.7-0.3-2.5
			c-0.6-1.3-1.3-2.6-1.9-3.9c-0.1-0.3-0.3-0.3-0.6-0.2c-2.2,0.6-4.5,1.2-6.7,1.8c-0.2,0.1-0.5,0.1-0.5,0.4c0,1.7-0.4,3.3-0.2,5
			c0.2,1.4,0.8,2.4,2.3,2.9c-2.8,0.9-5.6,1.7-8.5,2.6c1.7-2.4,1.6-5.1,1.8-7.8c0.3-4.2,0.5-8.4,0.9-12.6c0.2-2.2,0.4-4.5,0.6-6.7
			c0.1-0.7,0-1.4-0.2-2c-0.2-0.8-0.6-1.5-1.7-1.9c1.6-0.4,3-0.8,4.5-1.2C77.7,216.2,79.7,215.7,81.6,215.3
			C81.6,215.3,81.6,215.3,81.6,215.3z M77.5,223c-0.1,0-0.1,0-0.2,0c-0.3,3.4-0.5,6.8-0.8,10.3c0,0.3,0.1,0.4,0.4,0.3
			c1.5-0.5,3.1-0.9,4.6-1.3c0.3-0.1,0.4-0.2,0.2-0.5C80.4,228.9,79,226,77.5,223z"/>
		<path fill="#164835" d="M148.8,215.3c-1.2-2.2-3-2.8-5.2-2.8c-1.8,0-3.6,0-5.3,0c-0.4,0-0.6,0-0.6,0.5c0,2.3,0,4.6-0.1,6.9
			c0,0.2,0,0.4,0.3,0.4c1.7,0,3.5,0.2,5.2-0.1c1.2-0.2,2-1,2.8-2c-0.1,2.9-0.2,5.8-0.3,8.9c-0.4-0.4-0.6-0.8-0.9-1.1
			c-0.9-0.9-2-1.2-3.2-1.3c-1.1-0.1-2.2,0-3.4-0.1c-0.4,0-0.5,0.1-0.5,0.5c0,2.5-0.1,5-0.2,7.4c0,0.6,0.2,0.7,0.7,0.7
			c1.5,0,3.1,0,4.6,0c2.4,0.1,4.6-0.3,6.1-2.6c0,1.4-0.3,2.6-0.4,3.7c-0.1,1-0.3,2-0.4,3c0,0.5-0.2,0.6-0.7,0.6
			c-4.3-0.1-8.6-0.2-12.9-0.1c-1.7,0-3.5,0-5.2,0c1.5-1.3,1.7-3.1,1.7-5c0.1-6.8,0.1-13.5,0.2-20.3c0-1.8-0.5-2.8-1.9-3.8
			c0.9,0,1.6-0.1,2.4-0.1c5.6-0.1,11.2-0.1,16.8,0.1c0.3,0,0.6,0,0.5,0.4C149,211.2,148.9,213.1,148.8,215.3z"/>
		<path fill="#164835" d="M172.2,218.5c-1.1-2.2-2.6-3.8-4.8-4.8c-1.1-0.5-2.3-0.6-3.4-0.4c-1.2,0.2-2,0.9-2.4,2.1
			c-0.4,1.1-0.1,2.1,0.7,3c0.8,0.9,2,1.4,3,2.1c1.2,0.8,2.5,1.5,3.7,2.3c4.4,3,4.9,8.9,1.9,12.9c-2.8,3.7-8,5-12.2,3.2
			c-0.3-0.1-0.6-0.3-0.8-0.4c-1.5-0.6-3-0.9-4.4,0.4c0.1-3.4,0.3-6.8,0.4-10.1c0.2,0,0.2,0.2,0.3,0.3c1.2,2.3,2.9,4.2,5.1,5.6
			c1.2,0.7,2.5,1,3.8,0.6c2.9-0.8,3.9-4.4,1.8-6.6c-1.1-1.2-2.5-2-3.9-2.8c-1.4-0.9-2.9-1.8-4-3.1c-4-4.7-2-11.3,4-13.1
			c2.3-0.7,4.7-0.6,7,0.2c1.5,0.5,3,1.3,4.8,0.8c0.3-0.1,0.3,0.2,0.3,0.4c-0.1,1.7-0.3,3.4-0.4,5.1
			C172.4,216.9,172.4,217.7,172.2,218.5z"/>
		<path fill="#164835" d="M133.4,322.4c-0.5,1.6-1,3.3-1.5,4.9c-0.1,0.3,0,0.9-0.4,0.9c-0.7,0.1-1.4,0-2,0c-0.2,0-0.2-0.3-0.2-0.5
			c-0.7-2.3-1.4-4.7-2-7c-0.1-0.5-0.3-0.9-0.9-1.3c1.2,0,2.1,0,3.2,0c-0.4,0.4-0.5,0.9-0.3,1.5c0.5,1.7,0.9,3.4,1.5,5.1
			c0.4-1.4,0.8-2.8,1.2-4.1c0.2-0.7,0.4-1.3,0.6-2c0.1-0.4,0.3-0.5,0.6-0.5c1.4,0,1.4,0,1.8,1.3c0.5,1.8,1,3.5,1.5,5.3
			c0.8-1.5,1.6-5.8,1.2-6.6c1,0,1.9,0,2.8,0c-0.9,1.3-1,3-1.6,4.5c-0.4,1.2-0.8,2.5-1.1,3.8c-0.1,0.5-0.3,0.6-0.8,0.6
			c-1.6,0-1.6,0-2.1-1.6c-0.4-1.4-0.9-2.9-1.3-4.3C133.5,322.4,133.5,322.4,133.4,322.4z"/>
		<path fill="#164835" d="M89.1,328.2c-1.8,0.6-2.9-0.2-3.6-1.7c-0.2-0.4-0.5-0.7-0.7-1.1c-0.2-0.3-0.4-0.4-0.7-0.4
			c-0.5,0.1-1.5-0.3-1.6,0.3c-0.1,1-0.6,2.1,0.6,3c-1.1,0-2.2,0-3.4,0c0.8-0.5,0.6-1.3,0.6-2.1c0-1.8,0-3.7,0-5.5
			c0-0.5-0.1-1-0.6-1.4c0.4,0,0.8,0,1.3,0c1.9,0.1,3.8-0.2,5.6,0.2c1.7,0.4,2.5,1.6,2.2,3.2c-0.2,0.9-0.8,1.4-1.6,1.7
			c-0.5,0.2-0.5,0.4-0.2,0.8C87.7,326.2,88.4,327.2,89.1,328.2z M84,320.8c-0.3,0-0.6,0-0.9,0c-0.5,0-0.7,0.1-0.6,0.6
			c0,0.6,0,1.1,0,1.7c0,0.2,0,0.5,0.3,0.5c1,0,1.9,0.1,2.9-0.1c0.6-0.2,1-0.6,1-1.3c0-0.7-0.4-1.1-1.1-1.2
			C85,320.7,84.5,320.8,84,320.8z"/>
		<path fill="#164835" d="M109.1,319.4c1.1,0,2.1,0,3.2,0c-1,1-0.4,2.2-0.6,3.4c0,0.2,0.2,0.2,0.4,0.2c1.3,0,2.7,0,4,0
			c0.3,0,0.4-0.1,0.4-0.4c0-0.7,0-1.5,0-2.2c0-0.5-0.3-0.7-0.8-1c1.3,0,2.4,0,3.5,0c-0.6,0.3-0.6,0.8-0.6,1.4c0,2.1,0,4.1,0,6.2
			c0,0.5,0,1,0.6,1.3c-1.1,0-2.2,0-3.4,0c1-0.5,0.6-1.4,0.7-2.1c0-1.7,0-1.7-1.7-1.7c-0.8,0-1.7,0-2.5,0c-0.5,0-0.6,0.1-0.6,0.6
			c0,0.6,0,1.3,0,1.9c0,0.6,0,1.1,0.6,1.4c-1.1,0-2.2,0-3.4,0c0.8-0.4,0.7-1.1,0.7-1.8c0-1.9,0-3.8,0-5.7
			C109.7,320.2,109.6,319.7,109.1,319.4z"/>
		<path fill="#164835" d="M152.5,328.3c-1.1,0-2.2,0-3.4,0c1.1-0.6,0.7-1.5,0.7-2.3c0-1.6,0-1.6-1.6-1.6c-0.9,0-1.8,0-2.7,0
			c-0.4,0-0.6,0.1-0.6,0.6c0,0.6,0,1.2,0,1.8c0,0.6,0,1.1,0.9,1.5c-1.3,0-2.4,0-3.6,0c0.7-0.4,0.7-1,0.7-1.6c0-1.9,0-3.8,0-5.6
			c0-0.6,0.1-1.2-0.6-1.6c1.1,0,2.1,0,3.2,0c-1.1,1-0.5,2.2-0.6,3.3c0,0.3,0.2,0.3,0.5,0.3c1.3,0,2.6,0,3.9,0c0.4,0,0.5-0.1,0.5-0.5
			c0-0.6,0-1.1,0-1.7c0-0.5,0-1.1-0.6-1.4c1.1,0,2.2,0,3.3,0c-0.6,0.3-0.6,0.9-0.6,1.4c0,2.1,0,4.1,0,6.2
			C151.9,327.5,152,328,152.5,328.3z"/>
		<path fill="#164835" d="M184.3,319.4c2.9,0,5.6,0,8.2,0c0.7,0,0.4,0.5,0.4,0.8c0,0.3,0.1,0.7-0.5,0.7c-1.5,0-3,0-4.5,0
			c-0.6,0-0.8,0.1-0.7,0.7c0,1.4,0,1.4,1.3,1.4c1.1,0,2.2,0,3.4,0c0.7,0,0.5,0.4,0.5,0.8c0,0.4,0.1,0.7-0.5,0.7
			c-1.4-0.1-2.7,0-4.1,0c-0.5,0-0.6,0.1-0.6,0.6c0,1.8,0,1.8,1.8,1.8c1.1,0,2.3,0,3.4,0c0.7,0,0.7,0.3,0.7,0.8c0,0.5,0,0.8-0.6,0.8
			c-2.7,0-5.3,0-8-0.1c0.7-0.3,0.7-0.9,0.7-1.5c0-1.9,0-3.8,0-5.7C185.2,320.4,185.2,319.8,184.3,319.4z"/>
		<path fill="#164835" d="M182.1,328.3c-0.2,0-0.2,0-0.3,0c-2.2,0.1-2.2,0-3.6-1.7c-0.5-0.7-1.1-1.4-1.5-2.1c-0.2-0.3-0.4-0.3-0.7,0
			c-0.2,0.2-0.5,0.5-0.8,0.7c-0.9,0.8-0.9,2.3,0.1,3.1c-1.1,0-2.2,0-3.6,0c0.8-0.4,0.8-1,0.8-1.6c0-2,0-3.9,0-5.9c0-0.5,0-1-0.8-1.4
			c1.3,0,2.4,0,3.4,0c-1.1,1.2-0.2,2.6-0.6,3.9c0.1,0,0.1,0.1,0.2,0.1c0.6-0.5,1.2-1.1,1.8-1.6c0.5-0.4,1.1-0.8,1.4-1.3
			c1-1.3,2.3-1.3,3.7-1.1c-1.2,1.1-2.3,2.1-3.5,3.1c-0.4,0.3-0.4,0.5-0.1,0.9C179.6,325,180.8,326.6,182.1,328.3z"/>
		<path fill="#164835" d="M201.5,328.3c-1.2,0-2.3,0-3.6,0c0.8-0.4,0.7-0.9,0.8-1.5c0.2-1.5-0.3-2.7-1.2-3.8
			c-0.9-1.1-1.6-2.4-2.4-3.6c1,0,2,0,3.1,0c-0.5,0.4-0.3,0.7-0.1,1.1c0.6,0.9,1.1,1.8,1.7,2.8c0.7-1.1,1.3-2.1,1.9-3.1
			c0.2-0.3-0.1-0.5-0.3-0.8c1.1,0,2.1,0,3,0c-1.1,1.7-2.3,3.4-3.4,5.2C200.6,325.3,200.9,327.7,201.5,328.3z"/>
		<path fill="#164835" d="M91.4,319.4c1.4,0,2.5,0,3.7,0c-0.8,0.4-0.7,1.1-0.7,1.7c0,1.9,0,3.8,0,5.6c0,0.6-0.1,1.2,0.6,1.6
			c-1.1,0-2.2,0-3.3,0c0.6-0.3,0.6-0.9,0.6-1.5c0-2,0-3.9,0-5.9C92.3,320.3,92.4,319.7,91.4,319.4z"/>
		<path fill="#164835" d="M73.7,328.3c0.5-0.4,0.6-0.9,0.6-1.5c0-2,0-4,0-6c0-0.5,0-1-0.6-1.4c1.1,0,2.2,0,3.4,0
			c-0.7,0.4-0.8,1-0.8,1.6c0,1.9,0,3.8,0,5.6c0,0.6,0,1.2,0.8,1.6C75.8,328.3,74.7,328.3,73.7,328.3z"/>
		<path fill="#164835" d="M158.2,328.3c-1.1,0-2.2,0-3.5,0c1-0.5,0.8-1.2,0.8-1.9c0-1.9,0-3.7,0-5.6c0-0.6,0.1-1.2-0.6-1.5
			c1.1,0,2.2,0,3.3,0c-0.6,0.3-0.6,0.9-0.6,1.5c0,1.9,0,3.9,0,5.8C157.5,327.3,157.5,327.9,158.2,328.3z"/>
		<path fill="#164835" d="M235.7,232.3c0,1.5-1.2,2.7-2.6,2.7c-1.4,0-2.7-1.2-2.7-2.6c0-1.5,1.2-2.7,2.7-2.7
			C234.5,229.7,235.7,230.8,235.7,232.3z M233.1,230.3c-1.2,0-2.1,0.9-2.1,2c0,1.2,0.8,2.1,2,2.1c1.1,0,2-0.8,2-2
			C235.1,231.2,234.3,230.3,233.1,230.3z"/>
		<path fill="#164835" d="M81.6,215.3c0,0,0.1-0.1,0.1-0.1C81.7,215.2,81.7,215.3,81.6,215.3C81.6,215.3,81.6,215.3,81.6,215.3z"/>
		<path fill="#164835" d="M149,230.7C149,230.7,149,230.7,149,230.7C148.9,230.7,148.9,230.7,149,230.7
			C148.9,230.7,148.9,230.7,149,230.7C148.9,230.7,149,230.7,149,230.7z"/>
		<path fill="#ECDA9A" d="M145.1,284.6c0-1.6,0-3.1,0-4.5c0.6,0.9,1.3,1.8,2.3,2.3c0.6,0.4,1.3,0.6,2,0.3c1.2-0.4,1.6-1.8,0.7-2.8
			c-0.4-0.4-0.9-0.7-1.3-1c-0.5-0.3-1.1-0.6-1.6-0.9c-1.6-1-2.3-2.5-1.9-4.1c0.3-1.6,1.9-3,3.6-3.2c0.8-0.1,1.6,0,2.3,0.2
			c0.6,0.2,1.2,0.3,1.9,0.1c0,1.2,0,2.3,0,3.6c-0.5-0.8-1-1.4-1.7-1.7c-0.5-0.3-1-0.5-1.6-0.4c-0.8,0.1-1.3,0.5-1.5,1.2
			c-0.2,0.7,0.1,1.4,0.7,1.7c0.7,0.4,1.5,0.8,2.3,1.2c2.2,1.2,3,3.2,2.1,5.3c-0.9,2.1-3.4,3.2-5.6,2.4
			C146.7,284.2,146,283.8,145.1,284.6z"/>
		<path fill="#ECDA9A" d="M156.4,278.5c0,8.1-5.5,15.1-13.3,17c-7.7,1.9-15.8-1.8-19.5-8.9c-0.1-0.2-0.2-0.3-0.2-0.5
			c-0.1-0.1,0-0.2,0.1-0.3c0.2-0.1,0.3-0.1,0.4,0.1c0.1,0.1,0.2,0.3,0.2,0.4c3.6,6.1,10.5,9.5,17.3,8.3c7.2-1.2,12.6-6.5,14-13.6
			c0.4-2.1,0.4-4.3,0-6.4c0-0.1,0-0.3-0.1-0.4c0-0.2-0.1-0.4,0.2-0.4c0.3-0.1,0.3,0.2,0.4,0.3c0.3,1.3,0.5,2.7,0.6,4.1
			C156.4,278.3,156.4,278.4,156.4,278.5z"/>
		<path fill="#ECDA9A" d="M135.1,270.9c1.4,0,2.6,0,3.9,0c-0.6,0.9-0.5,1.8-0.5,2.8c0,2,0,3.9,0,5.9c0,0.6,0,1.2,0.4,1.6
			c0.2,0.2,0,0.3-0.1,0.5c-0.4,0.5-0.7,1-1.1,1.5c-1.4,1.7-3.9,2-5.7,0.9c-1-0.7-1.6-1.6-1.5-2.8c0-0.3,0.1-0.6,0.2-0.8
			c0.4-0.8,1.3-1.1,2-0.7c0.7,0.4,1,1.4,0.5,2.1c-0.5,0.7-0.1,0.9,0.4,1.1c0.8,0.4,1.8-0.1,2.1-0.9c0.2-0.4,0.2-0.9,0.2-1.4
			c0-2.6-0.1-5.3-0.1-7.9C135.8,272,135.6,271.5,135.1,270.9z"/>
		<path fill="#ECDA9A" d="M125.8,270.9c1.4,0,2.6,0,4,0c-0.5,0.6-0.6,1.3-0.6,2c0,2.2,0,4.4,0,6.7c0,0.6,0,1.1,0.4,1.6
			c0.1,0.1,0.2,0.2,0.1,0.3c-1,1.4-1.9,2.9-3.8,3.1c-1.4,0.2-2.7-0.1-3.7-1.1c-0.9-0.8-1.2-2-0.8-3c0.4-0.9,1.3-1.3,2.1-1
			c0.8,0.4,1,1.4,0.4,2.2c-0.3,0.4-0.2,0.6,0.2,0.9c1,0.7,2.3,0.1,2.5-1.2c0.2-1.3,0.1-2.7,0.1-4.1c0-1.5-0.1-3-0.1-4.5
			C126.6,272.2,126.5,271.5,125.8,270.9z"/>
		<path fill="#ECDA9A" d="M139,261.1c6,0.2,10.8,2.7,14.3,7.6c0.1,0.2,0.5,0.4,0.2,0.7c-0.4,0.3-0.6-0.2-0.8-0.4
			c-4.4-5.5-10.1-7.8-17-6.4c-7,1.4-11.4,5.9-13.3,12.8c-0.2,0.7-0.3,1.4-0.4,2.2c0,0.3,0,0.6-0.4,0.6c-0.4,0-0.2-0.4-0.2-0.6
			c0.3-7.8,6.5-14.8,14.2-16.1C136.9,261.2,138,261.1,139,261.1z"/>
		<path fill="#ECDA9A" d="M145.1,279.2c-1.2,0.1-2.1-0.2-3,0.1c-0.7,0.2-1.4-0.1-1.7-0.8c-0.3-0.7,0-1.2,0.5-1.7
			c0.4-0.3,0.3-0.5,0.1-0.8c-0.4-0.7-0.2-1.2,0.4-1.6c0.7-0.4,1.6-0.3,2,0.3c0.4,0.5,0.2,1-0.2,1.4c-0.1,0.2-0.6,0.2-0.3,0.6
			c0.2,0.4,0.4,0.8,0.8,0.9c0.3,0.1,0.3-0.4,0.4-0.6c0.1-0.2-0.3-0.4,0.1-0.5c0.2-0.1,0.5-0.1,0.6,0c0.2,0.2,0.1,0.4,0,0.6
			c0,0.1,0,0.2-0.1,0.3C144,278.1,144.2,278.7,145.1,279.2z M141.8,277.1c-0.2,0.1-0.3,0.3-0.3,0.5c-0.1,0.5,0.1,0.8,0.5,1
			c0.3,0.1,0.6,0.2,0.8,0c0.3-0.3-0.1-0.4-0.2-0.6c-0.1-0.2-0.3-0.5-0.5-0.7C142,277.2,141.9,277.1,141.8,277.1z M142.3,274.6
			c-0.3,0-0.5,0.1-0.5,0.5c0,0.3,0.2,0.6,0.5,0.6c0.3,0,0.6-0.3,0.6-0.7C142.8,274.7,142.6,274.6,142.3,274.6z"/>
		<path fill="#ECDA9A" d="M143.7,256.8c-0.4,0.8-0.5,1.5-0.7,2.2c-0.1,0.2-0.1,0.5-0.4,0.4c-0.3-0.1-0.2-0.3-0.1-0.5
			c0.3-0.9,0.5-1.8,0.8-2.7c0.1-0.2-0.1-0.7,0.4-0.6c0.4,0.1,0.6,0.2,0.7,0.7c0,0.8,0.1,1.6,0.4,2.4c0.4-0.6,0.8-1.1,1.3-1.7
			c0.3-0.3,0.4-0.8,1-0.5c0.6,0.3,0.1,0.7,0.1,1c-0.2,0.7-0.4,1.5-0.6,2.2c-0.1,0.2,0.1,0.8-0.5,0.6c-0.5-0.2-0.1-0.5,0-0.8
			c0.1-0.4,0.2-0.7,0.3-1.1c0-0.1,0.1-0.3-0.1-0.3c-0.2-0.1-0.2,0.1-0.3,0.2c-0.3,0.4-0.7,0.9-1,1.3c-0.1,0.2-0.2,0.4-0.5,0.3
			c-0.3-0.1-0.3-0.3-0.3-0.5C143.9,258.6,143.8,257.8,143.7,256.8z M146.1,258C146.1,258,146.2,258,146.1,258c0-0.1,0-0.1,0-0.1
			c0,0,0,0-0.1,0C146.1,258,146.1,258,146.1,258z"/>
		<path fill="#ECDA9A" d="M148,297.1c0,0.8,0,1.5,0,2.3c0,0.2,0.1,0.5-0.2,0.6c-0.3,0.1-0.4-0.1-0.6-0.3c-0.5-0.5-0.9-1.1-1.7-1.5
			c0.3,0.8,0.6,1.4,0.8,2c0.1,0.2,0.2,0.3-0.1,0.4c-0.3,0.1-0.4,0-0.5-0.2c-0.4-0.9-0.8-1.8-1.1-2.7c-0.1-0.2-0.4-0.5,0.1-0.6
			c0.3-0.1,0.5-0.3,0.8,0.1c0.5,0.6,1,1.1,1.5,1.6c0.1,0.1,0.2,0.2,0.3,0.2c0-0.8,0-1.6,0-2.4c0-0.5,0.2-0.7,0.6-0.8
			c0.5-0.1,0.4,0.3,0.5,0.5c0.4,0.9,0.7,1.7,1.1,2.6c0.1,0.2,0.2,0.4-0.1,0.5c-0.3,0.1-0.3-0.1-0.4-0.3c-0.3-0.6-0.5-1.3-0.8-1.9
			C148.1,297.1,148.1,297.1,148,297.1z"/>
		<path fill="#ECDA9A" d="M117.6,282.7C117.6,282.7,117.6,282.7,117.6,282.7c0.8,0.4,1.4,0.6,2.3,0.3c0.4-0.1,0.6,0.4,0.7,0.8
			c0.1,0.4,0,0.7-0.3,1c-0.3,0.3-0.8,0.4-1.1,0.1c-0.6-0.5-0.7,0-0.9,0.4c-0.3,0.6,0.2,0.5,0.5,0.6c0.2,0.1,0.6,0.1,0.4,0.5
			c-0.2,0.4-0.4,0.1-0.6,0.1c-0.4-0.1-0.9-0.4-0.7,0.4c0,0.3-0.2,0.3-0.4,0.3c-0.2,0-0.3-0.2-0.2-0.3c0.2-0.8-0.3-1.4-0.6-2
			C116,283.7,116.6,282.7,117.6,282.7z M117,284c0.1,0.4,0.2,1,0.5,1c0.4,0,0.6-0.6,0.7-1.1c0.1-0.3-0.3-0.6-0.7-0.6
			C117.2,283.3,117,283.6,117,284z M120.2,284c-0.1-0.3-0.2-0.5-0.5-0.5c-0.3,0-0.5,0.2-0.5,0.5c0,0.3,0.3,0.4,0.5,0.4
			C120,284.4,120.1,284.3,120.2,284z"/>
		<path fill="#ECDA9A" d="M120.9,291.7c0,0.7,0.4,1.2,0.9,1.5c0.2,0.1,0.4,0.2,0.6,0c0.2-0.2,0.2-0.4,0.1-0.6
			c-0.2-0.4-0.4-0.8-0.7-1.2c-0.3-0.5-0.4-1.1,0.2-1.6c0.6-0.5,1.1-0.2,1.6,0.2c0.5,0.5,0.9,1.1,0.9,1.8c0,0.2,0,0.5-0.3,0.5
			c-0.2,0-0.4-0.2-0.3-0.5c0.1-0.6-0.3-1-0.7-1.4c-0.2-0.2-0.4-0.3-0.7-0.1c-0.2,0.2-0.1,0.4,0,0.6c0.2,0.4,0.5,0.8,0.7,1.2
			c0.3,0.5,0.3,1.1-0.2,1.5c-0.5,0.4-1,0.3-1.5-0.1c-0.6-0.5-1.1-1.2-1.1-2.1c0-0.2,0-0.6,0.3-0.6
			C120.9,291.1,121.2,291.3,120.9,291.7z"/>
		<path fill="#ECDA9A" d="M156.1,263.1c-0.1,0.2,0.1,0.6-0.3,0.6c-0.3,0-0.4-0.2-0.4-0.5c0-0.7-0.5-1-0.9-1.3
			c-0.2-0.1-0.4-0.1-0.6,0c-0.2,0.2-0.1,0.4,0,0.6c0.3,0.4,0.6,0.8,0.9,1.3c0.3,0.5,0.4,1-0.1,1.4c-0.4,0.4-0.9,0.4-1.4,0.1
			c-0.8-0.5-1.4-1.1-1.4-2.1c0-0.2-0.1-0.5,0.3-0.4c0.2,0,0.4,0.1,0.4,0.5c0,0.7,0.4,1.1,1,1.5c0.2,0.1,0.5,0.2,0.7,0
			c0.2-0.2,0.1-0.5,0-0.7c-0.3-0.4-0.6-0.8-0.8-1.1c-0.3-0.5-0.4-1,0.1-1.5c0.5-0.5,1-0.3,1.5,0C155.5,261.8,156,262.3,156.1,263.1z
			"/>
		<path fill="#ECDA9A" d="M130.4,297.2c-0.3,0.7-0.6,1.4-0.8,2.1c-0.1,0.2-0.1,0.4-0.5,0.3c-0.4-0.1-0.2-0.4-0.1-0.6
			c0.3-0.9,0.7-1.8,1-2.6c0.1-0.2,0.1-0.5,0.4-0.5c0.3,0,0.5,0.2,0.6,0.5c0.3,0.9,0.6,1.7,0.9,2.6c0,0.1,0.1,0.2,0.2,0.5
			c0.4-0.7,0.6-1.4,0.9-2c0.1-0.2,0-0.5,0.4-0.4c0.4,0.2,0.2,0.4,0.1,0.6c-0.3,0.9-0.7,1.8-1,2.6c-0.1,0.2,0,0.5-0.4,0.5
			c-0.3-0.1-0.4-0.2-0.5-0.5c-0.3-0.8-0.5-1.6-0.8-2.4C130.7,297.6,130.7,297.3,130.4,297.2z"/>
		<path fill="#ECDA9A" d="M159.9,271.7c-0.7,0.2-1.4,0.3-2.1,0.5c-0.2,0.1-0.4,0.1-0.5-0.2c-0.1-0.3,0.1-0.4,0.3-0.4
			c0.9-0.2,1.8-0.5,2.6-0.7c0.2-0.1,0.5-0.3,0.8,0c0.3,0.4,0.1,0.7-0.2,1c-0.5,0.6-0.9,1.3-1.4,1.9c-0.1,0.1-0.2,0.3-0.3,0.5
			c0.8,0,1.4-0.3,2.1-0.5c0.2-0.1,0.5-0.2,0.6,0.2c0.1,0.4-0.2,0.3-0.4,0.4c-0.9,0.3-1.9,0.5-2.8,0.7c-0.2,0-0.4,0.2-0.5-0.1
			c-0.1-0.2-0.1-0.4,0.1-0.7c0.6-0.9,1.2-1.8,1.8-2.6c0-0.1,0-0.1,0-0.2C160,271.6,160,271.6,159.9,271.7z"/>
		<path fill="#ECDA9A" d="M128.4,260.5c-0.4-0.6-0.7-1.2-1.1-1.7c-0.1-0.2-0.2-0.4,0.1-0.6c0.3-0.2,0.4,0.1,0.5,0.2
			c0.5,0.8,1.1,1.6,1.6,2.4c0.1,0.2,0.4,0.3,0.1,0.6c-0.2,0.2-0.4,0.2-0.6,0.1c-0.9-0.3-1.8-0.6-2.7-0.8c-0.1,0-0.3-0.1-0.6-0.1
			c0.3,0.8,0.8,1.3,1.2,2c0.1,0.2,0.4,0.4,0,0.6c-0.4,0.2-0.4-0.1-0.5-0.3c-0.5-0.8-1.1-1.6-1.6-2.3c-0.1-0.2-0.4-0.3-0.2-0.6
			c0.2-0.2,0.5-0.3,0.8-0.2c0.9,0.3,1.8,0.5,2.8,0.8c0.1,0.1,0.2,0.1,0.2,0C128.5,260.7,128.5,260.6,128.4,260.5z"/>
		<path fill="#ECDA9A" d="M157.4,265.5c1,0,2,1.1,2,2.3c0,1-1.1,2-2.2,2c-1,0-2-1.2-2-2.3C155.2,266.4,156.3,265.5,157.4,265.5z
			 M157.3,269.1c0.8,0,1.5-0.7,1.5-1.4c0-0.8-0.7-1.6-1.4-1.6c-0.8,0-1.5,0.7-1.5,1.4C155.9,268.3,156.6,269.1,157.3,269.1z"/>
		<path fill="#ECDA9A" d="M161.1,285c0,0.7-0.4,1.4-0.6,2.1c-0.1,0.3-0.3,0.2-0.4,0.1c-1-0.3-2-0.6-3-1c-0.3-0.1-0.4-0.2-0.3-0.5
			c0.2-0.6,0.4-1.2,0.6-1.8c0.4-0.8,1.1-1.1,2-0.9C160.5,283.4,161.1,284,161.1,285z M160.5,285.2c0-0.6-0.2-1-0.6-1.2
			c-1-0.6-1.7-0.2-2.2,1.2c-0.1,0.4-0.1,0.6,0.3,0.7c0.5,0.1,1.1,0.3,1.6,0.5c0.3,0.1,0.5,0.1,0.6-0.3
			C160.3,285.7,160.4,285.4,160.5,285.2z"/>
		<path fill="#ECDA9A" d="M128.5,295.6c0,1.1-1,2.2-2.1,2.2c-1.1,0-2.2-1.1-2.2-2.1c0-1.1,1-2.2,2.1-2.2
			C127.3,293.5,128.5,294.5,128.5,295.6z M126.4,297.1c0.7,0,1.4-0.8,1.4-1.5c0-0.7-0.8-1.5-1.6-1.5c-0.7,0-1.4,0.8-1.4,1.5
			C124.8,296.3,125.6,297.1,126.4,297.1z"/>
		<path fill="#ECDA9A" d="M152.2,259.4c-0.1,0.2-0.2,0.5-0.6,0.3c-0.5-0.3-0.9-0.6-1.4-0.8c-0.3-0.2-0.5-0.2-0.7,0.1
			c-0.2,0.3-0.2,0.5,0.2,0.7c0.4,0.2,0.8,0.5,1.1,0.7c0.2,0.1,0.3,0.3,0.1,0.5c-0.1,0.2-0.3,0.2-0.4,0.1c-0.4-0.2-0.7-0.4-1.1-0.6
			c-0.4-0.3-0.6-0.2-0.8,0.2c-0.2,0.4-0.1,0.5,0.2,0.7c0.5,0.3,0.9,0.6,1.4,0.8c0.2,0.1,0.3,0.2,0.2,0.5c-0.2,0.3-0.3,0.2-0.5,0
			c0,0,0,0-0.1,0c-0.8-0.5-1.9-0.8-2.1-1.4c-0.2-0.7,0.7-1.5,1.2-2.3c0.6-1.1,0.6-1.1,1.7-0.4c0.4,0.3,0.9,0.5,1.3,0.8
			C152,259.2,152.2,259.2,152.2,259.4z"/>
		<path fill="#ECDA9A" d="M121.7,269.3c0,1.2-0.9,2.3-2,2.3c-1.2,0-2.2-0.9-2.2-2c0-1.2,0.9-2.3,2-2.3
			C120.8,267.3,121.7,268.2,121.7,269.3z M121.1,269.4c0-0.7-0.7-1.4-1.5-1.4c-0.7,0-1.4,0.7-1.5,1.6c0,0.7,0.7,1.4,1.5,1.4
			C120.4,271,121.1,270.2,121.1,269.4z"/>
		<path fill="#ECDA9A" d="M156.2,287.3c0.2,0.1,0.6,0.2,0.3,0.6c-0.3,0.5-0.6,0.9-0.9,1.4c-0.2,0.3-0.2,0.5,0.1,0.7
			c0.4,0.2,0.5,0.1,0.7-0.2c0.2-0.4,0.4-0.7,0.7-1.1c0.1-0.2,0.2-0.3,0.4-0.2c0.2,0.1,0.2,0.3,0.1,0.5c-0.2,0.3-0.4,0.7-0.6,1
			c-0.2,0.3-0.4,0.5,0.1,0.8c0.4,0.3,0.6,0.2,0.8-0.2c0.2-0.5,0.5-0.9,0.8-1.3c0.1-0.1,0.2-0.3,0.4-0.2c0.2,0.1,0.3,0.2,0.1,0.5
			c-0.5,0.7-0.9,1.4-1.3,2.1c-0.2,0.3-0.3,0.2-0.6,0.1c-0.9-0.5-1.7-1.1-2.6-1.6c-0.2-0.1-0.4-0.2-0.2-0.5c0.5-0.7,0.9-1.5,1.4-2.2
			C156.1,287.4,156.2,287.4,156.2,287.3z"/>
		<path fill="#ECDA9A" d="M123.4,266.8c-0.2,0.2-0.3,0.5-0.6,0.2c-0.8-0.7-1.7-1.4-2.5-2.2c-0.2-0.2-0.2-0.3,0-0.5
			c0.1-0.2,0.3-0.2,0.5-0.1c0.3,0.2,0.6,0.8,1,0.7c0.3-0.1,0.5-0.6,0.9-0.9c0.6-0.5,0.6-1-0.1-1.4c-0.2-0.1-0.5-0.2-0.2-0.6
			c0.3-0.4,0.5,0,0.7,0.1c0.7,0.6,1.4,1.2,2.1,1.9c0.2,0.2,0.5,0.3,0.2,0.6c-0.3,0.3-0.4,0-0.6-0.1c-1-0.8-1-0.8-1.8,0.2
			c-0.1,0.1-0.2,0.3-0.4,0.4c-0.4,0.3-0.3,0.6,0.1,0.9C122.9,266.3,123.3,266.5,123.4,266.8z"/>
		<path fill="#ECDA9A" d="M136.9,259.1c0.5-1.2,1.1-2.4,1.6-3.5c0.1-0.3,0.3-0.3,0.5-0.3c0.3,0,0.4,0.1,0.5,0.3c0.4,1,0.9,2,1.3,3.1
			c0.1,0.1,0.3,0.3,0,0.5c-0.2,0.1-0.5,0.1-0.6-0.2c-0.1-0.3-0.1-0.7-0.5-0.7c-0.6,0-1.1,0-1.7,0c-0.2,0-0.3,0.3-0.3,0.5
			C137.6,259.2,137.3,259.2,136.9,259.1z M139.1,256c-0.4,0.2-0.4,0.6-0.5,0.9c-0.4,0.8-0.3,0.8,0.5,0.8c0.5,0,0.8-0.1,0.5-0.6
			C139.3,256.7,139.2,256.3,139.1,256z"/>
		<path fill="#ECDA9A" d="M155.4,294.8c-0.1,0.1-0.2,0.3-0.3,0.3c-0.2,0.1-0.3,0-0.4-0.1c-0.5-0.5-1.1-1-1.6-1.6
			c-0.3-0.4-0.6-0.5-0.9,0c-0.1,0.2-0.3,0.3-0.4,0.4c-0.1,0.2-0.3,0.2-0.5,0c-0.2-0.2-0.2-0.3,0-0.5c0.8-0.7,1.5-1.5,2.3-2.3
			c0.2-0.2,0.3-0.2,0.5,0c0.2,0.2,0.1,0.3,0,0.5c-0.2,0.3-0.9,0.5-0.7,1c0.1,0.4,0.6,0.6,0.9,1c0.3,0.3,0.6,0.6,0.9,0.9
			C155.2,294.6,155.3,294.7,155.4,294.8z"/>
		<path fill="#ECDA9A" d="M139.3,301.7c-1.6,0-1.6,0-1.6-1.5c0-0.7,0-1.3,0-2c0-0.3,0-0.5,0.4-0.5c0.3,0,0.3,0.2,0.3,0.4
			c0,0.8,0,1.5,0,2.3c0,0.4,0.1,0.6,0.5,0.5c0.5,0,1.1,0,1.6,0c0.2,0,0.4,0,0.4,0.3c0,0.4-0.2,0.4-0.4,0.4
			C140.1,301.7,139.7,301.7,139.3,301.7z"/>
		<path fill="#ECDA9A" d="M119.9,274.7c-0.1,0.2-0.1,0.6-0.2,0.9c-0.1,0.3-0.2,0.3-0.5,0.2c-0.3-0.1-0.2-0.2-0.2-0.4
			c0.3-1.3,0.2-1.4-1.1-1.7c-0.5-0.1-1-0.2-1.5-0.3c-0.2,0-0.4-0.1-0.3-0.4c0-0.3,0.2-0.3,0.4-0.3c0.8,0.2,1.6,0.3,2.4,0.6
			C119.7,273.5,119.9,273.9,119.9,274.7z"/>
		<path fill="#ECDA9A" d="M135.6,258.3c0,1-1.3,1.8-2,1.5c-0.2-0.1-0.2-0.2-0.2-0.4c0-0.2,0.1-0.2,0.3-0.2c1.4-0.3,1.4-0.3,1.1-1.7
			c-0.1-0.5-0.2-0.9-0.3-1.4c-0.1-0.2-0.1-0.5,0.3-0.5c0.3-0.1,0.3,0.2,0.4,0.4C135.3,256.8,135.4,257.6,135.6,258.3z"/>
		<path fill="#ECDA9A" d="M143.6,301c0.1,0.2,0,0.3-0.2,0.3c-0.3,0-0.4,0-0.4-0.3c-0.2-1-0.4-2-0.6-3.1c0-0.2-0.1-0.5,0.3-0.5
			c0.3-0.1,0.3,0.2,0.4,0.4C143.2,298.9,143.4,299.9,143.6,301z"/>
		<path fill="#ECDA9A" d="M149.9,294.4c0.2,0,0.2,0.1,0.3,0.3c0.6,0.8,1.1,1.7,1.7,2.5c0.1,0.2,0.3,0.4,0,0.6
			c-0.3,0.2-0.4,0-0.5-0.2c-0.6-0.8-1.1-1.7-1.7-2.5C149.4,294.7,149.6,294.5,149.9,294.4z"/>
		<path fill="#ECDA9A" d="M117.6,277.8c0.6,0,0.9,0.3,1,0.8c0,0.5-0.3,0.8-0.8,0.8c-0.5,0-0.8-0.3-0.8-0.8
			C116.9,278.2,117.2,277.9,117.6,277.8z"/>
		<path fill="#ECDA9A" d="M161.3,278.6c-0.1,0.5-0.3,0.8-0.8,0.9c-0.5,0-0.8-0.3-0.8-0.7c0-0.5,0.2-0.9,0.8-0.9
			C161,277.8,161.2,278.1,161.3,278.6z"/>
		<path fill="#F7F7F7" d="M100.8,223.3c0-0.1-0.1-0.2,0-0.3c0,0.1,0.1,0.2,0.1,0.2C100.9,223.3,100.8,223.3,100.8,223.3z"/>
		<path fill="#ECDA9A" d="M146.1,258c0,0-0.1,0-0.1-0.1c0,0,0-0.1,0.1,0C146.1,257.9,146.1,258,146.1,258
			C146.2,258,146.1,258,146.1,258z"/>
		<path fill="#ECDA9A" d="M159.9,271.7c0.1,0,0.1,0,0.2-0.1c0,0.1,0,0.1,0,0.2C160,271.7,160,271.7,159.9,271.7z"/>
		<path fill="#ECDA9A" d="M128.4,260.5c0,0.1,0.1,0.2,0,0.2c-0.1,0.1-0.2,0-0.2,0C128.3,260.6,128.4,260.5,128.4,260.5z"/>
		<path fill="#164835" d="M232.5,233.6c-0.3-0.1-0.6-0.2-1-0.3c0.7-0.6,0.7-1.4,0.8-2.2c0.1-0.4,0.1-0.4,0.4-0.3
			c0.2,0.1,0.5,0,0.6,0.3l0,0c-0.1,0-0.3,0-0.3,0.1c-0.2,0.7-0.5,1.5-0.5,2.3C232.6,233.5,232.5,233.5,232.5,233.6z"/>
		<path fill="#164835" d="M233.3,231.1c0.4-0.1,0.8,0.1,0.9,0.5c0.1,0.4,0,0.7-0.4,0.9c-0.3,0.1-0.3,0.3-0.2,0.5
			c0.1,0.3,0.2,0.6,0.3,0.9c-0.5,0-1.3-1-1.1-1.4c0,0,0.1-0.1,0.2-0.1C233.8,232.1,233.8,231.6,233.3,231.1L233.3,231.1z"/>
		<path fill="#164835" d="M232.6,233.4c0.1,0,0.2,0,0.1,0.1c0,0-0.1,0-0.2,0C232.5,233.5,232.6,233.5,232.6,233.4z"/>
		<g>
			<path fill="#820F28" d="M164.1,278.6c0,13.6-10.9,25-25.1,25c-14.1,0-25.1-11.5-25-25.2c0.1-13.3,10.7-24.8,25-24.8
				C153.5,253.6,164.2,265.2,164.1,278.6z M128.2,260.6c-0.9-0.3-1.9-0.5-2.8-0.8c-0.3-0.1-0.6,0-0.8,0.2c-0.2,0.3,0.1,0.4,0.2,0.6
				c0.5,0.8,1,1.6,1.6,2.3c0.1,0.2,0.2,0.5,0.5,0.3c0.4-0.2,0.1-0.4,0-0.6c-0.4-0.6-0.9-1.2-1.2-2c0.3,0.1,0.4,0.1,0.6,0.1
				c0.9,0.3,1.8,0.5,2.7,0.8c0.3,0.1,0.5,0,0.6-0.1c0.3-0.3,0-0.4-0.1-0.6c-0.5-0.8-1.1-1.6-1.6-2.4c-0.1-0.1-0.1-0.4-0.5-0.2
				c-0.3,0.2-0.2,0.3-0.1,0.6c0.4,0.6,0.7,1.1,1.1,1.7C128.4,260.5,128.3,260.6,128.2,260.6z M159.9,271.7c0.1,0,0.1,0.1,0.2,0.1
				c-0.6,0.9-1.2,1.8-1.8,2.6c-0.2,0.2-0.2,0.4-0.1,0.7c0.1,0.3,0.4,0.1,0.5,0.1c0.9-0.2,1.9-0.5,2.8-0.7c0.2-0.1,0.5,0,0.4-0.4
				c-0.1-0.4-0.4-0.3-0.6-0.2c-0.7,0.1-1.3,0.4-2.1,0.5c0.1-0.2,0.2-0.4,0.3-0.5c0.4-0.6,0.9-1.3,1.4-1.9c0.2-0.3,0.4-0.6,0.2-1
				c-0.2-0.3-0.5,0-0.8,0c-0.9,0.2-1.8,0.5-2.6,0.7c-0.2,0.1-0.4,0.1-0.3,0.4c0.1,0.3,0.3,0.2,0.5,0.2
				C158.5,272,159.2,271.8,159.9,271.7z M145.1,284.6c0.9-0.8,1.7-0.4,2.5-0.2c2.2,0.8,4.7-0.3,5.6-2.4c0.9-2.1,0.2-4.1-2.1-5.3
				c-0.8-0.4-1.5-0.8-2.3-1.2c-0.6-0.4-0.9-1-0.7-1.7c0.2-0.8,0.8-1.2,1.5-1.2c0.6-0.1,1.1,0.2,1.6,0.4c0.7,0.4,1.2,1,1.7,1.7
				c0-1.3,0-2.4,0-3.6c-0.7,0.2-1.3,0.1-1.9-0.1c-0.8-0.2-1.5-0.3-2.3-0.2c-1.7,0.2-3.2,1.6-3.6,3.2c-0.4,1.6,0.3,3.1,1.9,4.1
				c0.5,0.3,1,0.6,1.6,0.9c0.5,0.3,1,0.5,1.3,1c0.9,0.9,0.5,2.4-0.7,2.8c-0.7,0.3-1.4,0.1-2-0.3c-1-0.6-1.7-1.4-2.3-2.3
				C145.1,281.5,145.1,283,145.1,284.6z M156.4,278.5c0-0.1,0-0.2,0-0.3c0-1.4-0.2-2.8-0.6-4.1c0-0.2-0.1-0.4-0.4-0.3
				c-0.3,0.1-0.2,0.2-0.2,0.4c0,0.1,0,0.3,0.1,0.4c0.4,2.1,0.5,4.3,0,6.4c-1.4,7.1-6.8,12.4-14,13.6c-6.8,1.2-13.7-2.2-17.3-8.3
				c-0.1-0.1-0.2-0.3-0.2-0.4c-0.1-0.2-0.2-0.2-0.4-0.1c-0.1,0.1-0.2,0.2-0.1,0.3c0.1,0.2,0.2,0.3,0.2,0.5
				c3.7,7.1,11.8,10.7,19.5,8.9C150.9,293.6,156.4,286.6,156.4,278.5z M135.1,270.9c0.5,0.5,0.8,1.1,0.8,1.7c0,2.6,0.1,5.3,0.1,7.9
				c0,0.5,0,0.9-0.2,1.4c-0.3,0.8-1.3,1.3-2.1,0.9c-0.5-0.2-0.9-0.4-0.4-1.1c0.5-0.7,0.3-1.7-0.5-2.1c-0.7-0.4-1.6-0.1-2,0.7
				c-0.1,0.3-0.2,0.5-0.2,0.8c-0.1,1.2,0.5,2.2,1.5,2.8c1.8,1.2,4.3,0.8,5.7-0.9c0.4-0.5,0.7-1,1.1-1.5c0.1-0.1,0.3-0.2,0.1-0.5
				c-0.4-0.5-0.4-1.1-0.4-1.6c0-2,0-3.9,0-5.9c0-0.9-0.1-1.9,0.5-2.8C137.6,270.9,136.4,270.9,135.1,270.9z M125.8,270.9
				c0.7,0.6,0.8,1.3,0.8,2c0,1.5,0.1,3,0.1,4.5c0,1.4,0.2,2.7-0.1,4.1c-0.2,1.2-1.5,1.8-2.5,1.2c-0.3-0.2-0.5-0.4-0.2-0.9
				c0.6-0.8,0.3-1.9-0.4-2.2c-0.8-0.4-1.7,0-2.1,1c-0.4,1-0.1,2.2,0.8,3c1,1,2.3,1.2,3.7,1.1c1.9-0.2,2.8-1.8,3.8-3.1
				c0.1-0.1,0-0.2-0.1-0.3c-0.3-0.5-0.4-1-0.4-1.6c0-2.2,0-4.4,0-6.7c0-0.7,0-1.4,0.6-2C128.5,270.9,127.2,270.9,125.8,270.9z
				 M139,261.1c-1.1,0-2.1,0.1-3.2,0.3c-7.7,1.3-13.9,8.3-14.2,16.1c0,0.2-0.2,0.6,0.2,0.6c0.4,0,0.3-0.3,0.4-0.6
				c0.1-0.7,0.2-1.5,0.4-2.2c1.9-6.9,6.3-11.4,13.3-12.8c6.9-1.4,12.6,0.9,17,6.4c0.2,0.2,0.3,0.7,0.8,0.4c0.3-0.2-0.1-0.5-0.2-0.7
				C149.8,263.7,145,261.3,139,261.1z M145.1,279.2c-1-0.5-1.1-1.1-0.5-1.8c0.1-0.1,0.1-0.2,0.1-0.3c0-0.2,0.2-0.5,0-0.6
				c-0.2-0.1-0.4-0.1-0.6,0c-0.3,0.1,0,0.3-0.1,0.5c-0.1,0.2-0.1,0.7-0.4,0.6c-0.3-0.1-0.6-0.6-0.8-0.9c-0.2-0.3,0.2-0.4,0.3-0.6
				c0.4-0.4,0.5-0.9,0.2-1.4c-0.4-0.6-1.3-0.7-2-0.3c-0.6,0.4-0.8,1-0.4,1.6c0.2,0.3,0.3,0.5-0.1,0.8c-0.5,0.4-0.8,1-0.5,1.7
				c0.3,0.7,1,1,1.7,0.8C143,279,144,279.3,145.1,279.2z M143.7,256.8c0.1,1,0.2,1.8,0.3,2.6c0,0.2,0,0.4,0.3,0.5
				c0.3,0.1,0.4-0.1,0.5-0.3c0.3-0.4,0.7-0.9,1-1.3c0.1-0.1,0.2-0.2,0.3-0.2c0.2,0.1,0.1,0.2,0.1,0.3c-0.1,0.4-0.2,0.7-0.3,1.1
				c0,0.3-0.4,0.6,0,0.8c0.5,0.2,0.4-0.4,0.5-0.6c0.2-0.7,0.5-1.4,0.6-2.2c0.1-0.3,0.5-0.7-0.1-1c-0.6-0.3-0.8,0.2-1,0.5
				c-0.4,0.6-0.8,1.1-1.3,1.7c-0.2-0.9-0.3-1.7-0.4-2.4c0-0.5-0.3-0.6-0.7-0.7c-0.5-0.1-0.4,0.3-0.4,0.6c-0.3,0.9-0.5,1.8-0.8,2.7
				c-0.1,0.2-0.2,0.4,0.1,0.5c0.4,0.1,0.4-0.2,0.4-0.4C143.2,258.4,143.2,257.6,143.7,256.8z M148,297.1c0,0,0.1,0,0.1,0
				c0.3,0.6,0.5,1.3,0.8,1.9c0.1,0.2,0.1,0.4,0.4,0.3c0.3-0.1,0.2-0.3,0.1-0.5c-0.4-0.9-0.7-1.7-1.1-2.6c-0.1-0.2,0-0.6-0.5-0.5
				c-0.4,0.1-0.6,0.3-0.6,0.8c0.1,0.8,0,1.6,0,2.4c-0.2,0.1-0.3-0.1-0.3-0.2c-0.5-0.5-1-1-1.5-1.6c-0.3-0.3-0.5-0.2-0.8-0.1
				c-0.4,0.2-0.1,0.4-0.1,0.6c0.4,0.9,0.8,1.8,1.1,2.7c0.1,0.2,0.2,0.4,0.5,0.2c0.2-0.1,0.2-0.3,0.1-0.4c-0.3-0.6-0.5-1.2-0.8-2
				c0.9,0.4,1.2,1.1,1.7,1.5c0.2,0.1,0.3,0.4,0.6,0.3c0.3-0.1,0.2-0.4,0.2-0.6C148,298.6,148,297.9,148,297.1z M117.6,282.7
				c-1,0-1.5,1-1,2.1c0.3,0.7,0.8,1.2,0.6,2c0,0.1,0,0.4,0.2,0.3c0.2,0,0.4,0,0.4-0.3c-0.1-0.8,0.3-0.6,0.7-0.4
				c0.2,0.1,0.4,0.3,0.6-0.1c0.2-0.4-0.2-0.4-0.4-0.5c-0.2-0.1-0.8-0.1-0.5-0.6c0.2-0.4,0.3-0.9,0.9-0.4c0.3,0.3,0.8,0.2,1.1-0.1
				c0.3-0.3,0.4-0.6,0.3-1c-0.1-0.4-0.3-0.9-0.7-0.8C119,283.3,118.3,283.1,117.6,282.7C117.6,282.7,117.6,282.7,117.6,282.7z
				 M120.9,291.7c0.2-0.4,0-0.6-0.3-0.6c-0.4,0-0.3,0.3-0.3,0.6c0,0.9,0.4,1.5,1.1,2.1c0.5,0.4,1,0.5,1.5,0.1
				c0.5-0.4,0.5-0.9,0.2-1.5c-0.2-0.4-0.4-0.8-0.7-1.2c-0.1-0.2-0.2-0.4,0-0.6c0.3-0.2,0.5-0.1,0.7,0.1c0.4,0.4,0.8,0.8,0.7,1.4
				c-0.1,0.3,0.1,0.5,0.3,0.5c0.3,0.1,0.3-0.3,0.3-0.5c0.1-0.8-0.4-1.3-0.9-1.8c-0.5-0.5-1-0.7-1.6-0.2c-0.6,0.4-0.4,1-0.2,1.6
				c0.2,0.4,0.4,0.8,0.7,1.2c0.1,0.2,0.1,0.4-0.1,0.6c-0.2,0.2-0.4,0.1-0.6,0C121.3,292.9,121,292.4,120.9,291.7z M156.1,263.1
				c-0.1-0.8-0.6-1.3-1.2-1.7c-0.5-0.3-1-0.5-1.5,0c-0.5,0.5-0.4,1-0.1,1.5c0.2,0.4,0.6,0.8,0.8,1.1c0.1,0.2,0.2,0.4,0,0.7
				c-0.2,0.2-0.5,0.2-0.7,0c-0.6-0.3-1-0.8-1-1.5c0-0.3-0.2-0.4-0.4-0.5c-0.3,0-0.3,0.3-0.3,0.4c0,1,0.6,1.6,1.4,2.1
				c0.5,0.3,1,0.3,1.4-0.1c0.5-0.4,0.4-0.9,0.1-1.4c-0.3-0.4-0.6-0.9-0.9-1.3c-0.1-0.2-0.2-0.4,0-0.6c0.2-0.2,0.4-0.1,0.6,0
				c0.5,0.3,1,0.7,0.9,1.3c0,0.4,0.1,0.5,0.4,0.5C156.1,263.7,156,263.3,156.1,263.1z M130.4,297.2c0.3,0.1,0.3,0.4,0.4,0.6
				c0.3,0.8,0.6,1.6,0.8,2.4c0.1,0.3,0.2,0.5,0.5,0.5c0.4,0.1,0.3-0.3,0.4-0.5c0.4-0.9,0.7-1.7,1-2.6c0.1-0.2,0.3-0.5-0.1-0.6
				c-0.4-0.1-0.4,0.2-0.4,0.4c-0.3,0.6-0.4,1.3-0.9,2c-0.1-0.2-0.2-0.3-0.2-0.5c-0.3-0.9-0.6-1.7-0.9-2.6c-0.1-0.3-0.3-0.5-0.6-0.5
				c-0.3,0-0.3,0.3-0.4,0.5c-0.3,0.9-0.7,1.7-1,2.6c-0.1,0.2-0.3,0.4,0.1,0.6c0.3,0.1,0.4-0.1,0.5-0.3
				C129.8,298.6,130.1,297.9,130.4,297.2z M157.4,265.5c-1.1,0-2.2,1-2.2,2c0,1.1,1,2.3,2,2.3c1.1,0,2.2-1,2.2-2
				C159.5,266.6,158.5,265.5,157.4,265.5z M161.1,285c0-1-0.6-1.6-1.6-1.9c-0.9-0.2-1.6,0-2,0.9c-0.3,0.6-0.4,1.2-0.6,1.8
				c-0.1,0.3,0,0.4,0.3,0.5c1,0.3,2,0.6,3,1c0.2,0.1,0.4,0.1,0.4-0.1C160.8,286.4,161.1,285.7,161.1,285z M128.5,295.6
				c0-1-1.1-2.1-2.2-2.1c-1,0-2.1,1.1-2.1,2.2c0,1,1.1,2.1,2.2,2.1C127.5,297.7,128.4,296.7,128.5,295.6z M152.2,259.4
				c0-0.2-0.2-0.2-0.3-0.3c-0.4-0.3-0.9-0.5-1.3-0.8c-1.1-0.6-1.1-0.6-1.7,0.4c-0.4,0.8-1.4,1.6-1.2,2.3c0.2,0.6,1.4,1,2.1,1.4
				c0,0,0,0,0.1,0c0.2,0.1,0.3,0.2,0.5,0c0.2-0.3,0-0.4-0.2-0.5c-0.5-0.3-0.9-0.6-1.4-0.8c-0.3-0.2-0.4-0.4-0.2-0.7
				c0.2-0.4,0.4-0.5,0.8-0.2c0.3,0.2,0.7,0.4,1.1,0.6c0.2,0.1,0.3,0.2,0.4-0.1c0.2-0.2,0.1-0.4-0.1-0.5c-0.4-0.2-0.8-0.5-1.1-0.7
				c-0.3-0.2-0.3-0.4-0.2-0.7c0.2-0.4,0.4-0.3,0.7-0.1c0.5,0.3,0.9,0.5,1.4,0.8C152,259.9,152.1,259.7,152.2,259.4z M121.7,269.3
				c0-1.1-1-2-2.2-2c-1.1,0-2,1-2,2.3c0,1.1,1,2,2.2,2C120.8,271.5,121.7,270.5,121.7,269.3z M156.2,287.3c-0.1,0.1-0.1,0.1-0.2,0.2
				c-0.5,0.7-0.9,1.5-1.4,2.2c-0.2,0.3,0,0.4,0.2,0.5c0.9,0.5,1.7,1.1,2.6,1.6c0.2,0.1,0.4,0.2,0.6-0.1c0.4-0.7,0.9-1.4,1.3-2.1
				c0.2-0.2,0.1-0.4-0.1-0.5c-0.3-0.2-0.3,0-0.4,0.2c-0.3,0.4-0.6,0.9-0.8,1.3c-0.2,0.4-0.4,0.5-0.8,0.2c-0.4-0.3-0.3-0.5-0.1-0.8
				c0.2-0.3,0.4-0.7,0.6-1c0.1-0.2,0.1-0.4-0.1-0.5c-0.2-0.1-0.3,0-0.4,0.2c-0.2,0.4-0.4,0.7-0.7,1.1c-0.2,0.3-0.4,0.5-0.7,0.2
				c-0.3-0.2-0.3-0.4-0.1-0.7c0.3-0.5,0.6-0.9,0.9-1.4C156.8,287.5,156.5,287.5,156.2,287.3z M123.4,266.8c-0.2-0.4-0.5-0.5-0.8-0.8
				c-0.4-0.3-0.5-0.5-0.1-0.9c0.1-0.1,0.2-0.3,0.4-0.4c0.8-0.9,0.8-0.9,1.8-0.2c0.2,0.1,0.3,0.4,0.6,0.1c0.3-0.3,0-0.4-0.2-0.6
				c-0.7-0.6-1.4-1.2-2.1-1.9c-0.2-0.2-0.4-0.5-0.7-0.1c-0.3,0.4,0.1,0.5,0.2,0.6c0.7,0.5,0.7,0.9,0.1,1.4c-0.3,0.3-0.5,0.8-0.9,0.9
				c-0.5,0.2-0.7-0.4-1-0.7c-0.2-0.1-0.3-0.1-0.5,0.1c-0.2,0.2-0.2,0.3,0,0.5c0.8,0.7,1.7,1.4,2.5,2.2
				C123.1,267.3,123.2,267,123.4,266.8z M136.9,259.1c0.5,0.1,0.7,0.1,0.8-0.3c0.1-0.2,0.1-0.5,0.3-0.5c0.6,0,1.1,0,1.7,0
				c0.4,0,0.4,0.4,0.5,0.7c0.1,0.3,0.4,0.3,0.6,0.2c0.3-0.1,0-0.3,0-0.5c-0.4-1-0.9-2-1.3-3.1c-0.1-0.2-0.2-0.4-0.5-0.3
				c-0.3,0-0.4,0-0.5,0.3C138,256.7,137.4,257.9,136.9,259.1z M155.4,294.8c-0.1-0.1-0.2-0.2-0.3-0.3c-0.3-0.3-0.6-0.6-0.9-0.9
				c-0.3-0.3-0.8-0.6-0.9-1c-0.2-0.5,0.5-0.6,0.7-1c0.1-0.2,0.2-0.3,0-0.5c-0.2-0.2-0.3-0.2-0.5,0c-0.8,0.8-1.5,1.5-2.3,2.3
				c-0.2,0.2-0.2,0.3,0,0.5c0.2,0.2,0.3,0.1,0.5,0c0.1-0.2,0.3-0.3,0.4-0.4c0.3-0.4,0.6-0.3,0.9,0c0.5,0.6,1.1,1.1,1.6,1.6
				c0.1,0.1,0.2,0.3,0.4,0.1C155.2,295.1,155.3,294.9,155.4,294.8z M139.3,301.7c0.4,0,0.8,0,1.2,0c0.2,0,0.5,0,0.4-0.4
				c0-0.3-0.2-0.3-0.4-0.3c-0.5,0-1.1,0-1.6,0c-0.4,0-0.5-0.2-0.5-0.5c0-0.8,0-1.5,0-2.3c0-0.2,0-0.4-0.3-0.4
				c-0.3,0-0.4,0.2-0.4,0.5c0,0.7,0,1.3,0,2C137.7,301.8,137.7,301.8,139.3,301.7z M119.9,274.7c0-0.7-0.3-1.1-0.8-1.3
				c-0.8-0.2-1.6-0.4-2.4-0.6c-0.2-0.1-0.4,0-0.4,0.3c-0.1,0.3,0.1,0.3,0.3,0.4c0.5,0.1,1,0.2,1.5,0.3c1.3,0.3,1.4,0.4,1.1,1.7
				c0,0.2-0.1,0.3,0.2,0.4c0.2,0.1,0.4,0.1,0.5-0.2C119.8,275.2,119.9,274.9,119.9,274.7z M135.6,258.3c-0.1-0.7-0.3-1.5-0.5-2.3
				c0-0.2,0-0.4-0.4-0.4c-0.3,0.1-0.3,0.3-0.3,0.5c0.1,0.5,0.2,0.9,0.3,1.4c0.3,1.4,0.3,1.4-1.1,1.7c-0.2,0-0.3,0-0.3,0.2
				c0,0.2,0,0.3,0.2,0.4C134.3,260.2,135.6,259.3,135.6,258.3z M143.6,301c-0.2-1.1-0.4-2.1-0.6-3.2c0-0.2-0.1-0.4-0.4-0.4
				c-0.3,0.1-0.3,0.3-0.3,0.5c0.2,1,0.4,2,0.6,3.1c0,0.3,0.2,0.3,0.4,0.3C143.6,301.3,143.6,301.2,143.6,301z M149.9,294.4
				c-0.3,0.1-0.5,0.3-0.2,0.6c0.6,0.8,1.1,1.7,1.7,2.5c0.1,0.2,0.2,0.4,0.5,0.2c0.3-0.2,0.2-0.4,0-0.6c-0.6-0.8-1.1-1.7-1.7-2.5
				C150.2,294.6,150.1,294.4,149.9,294.4z M117.6,277.8c-0.4,0.1-0.7,0.3-0.7,0.9c0,0.5,0.4,0.8,0.8,0.8c0.5,0,0.8-0.3,0.8-0.8
				C118.5,278.1,118.2,277.8,117.6,277.8z M161.3,278.6c-0.1-0.5-0.4-0.8-0.9-0.8c-0.5,0-0.8,0.4-0.8,0.9c0,0.5,0.4,0.8,0.8,0.7
				C161,279.5,161.3,279.1,161.3,278.6z"/>
			<path fill="#820F28" d="M141.8,277.1c0.2,0,0.2,0.1,0.3,0.2c0.2,0.2,0.4,0.4,0.5,0.7c0.1,0.2,0.5,0.3,0.2,0.6
				c-0.2,0.2-0.5,0.2-0.8,0c-0.4-0.2-0.6-0.6-0.5-1C141.5,277.4,141.6,277.2,141.8,277.1z"/>
			<path fill="#820F28" d="M142.3,274.6c0.3,0,0.6,0.1,0.6,0.4c0,0.4-0.2,0.7-0.6,0.7c-0.3,0-0.4-0.4-0.5-0.6
				C141.8,274.8,142,274.7,142.3,274.6z"/>
			<path fill="#820F28" d="M117,284c0-0.4,0.2-0.7,0.6-0.7c0.4,0,0.7,0.3,0.7,0.6c-0.1,0.4-0.3,1-0.7,1.1
				C117.2,285,117,284.4,117,284z"/>
			<path fill="#820F28" d="M120.2,284c0,0.3-0.2,0.5-0.5,0.5c-0.3,0-0.5-0.1-0.5-0.4c0-0.3,0.3-0.5,0.5-0.5
				C119.9,283.5,120.1,283.7,120.2,284z"/>
			<path fill="#820F28" d="M157.3,269.1c-0.7,0-1.4-0.8-1.4-1.6c0-0.7,0.7-1.4,1.5-1.4c0.7,0,1.4,0.8,1.4,1.6
				C158.8,268.4,158.1,269.1,157.3,269.1z"/>
			<path fill="#820F28" d="M160.5,285.2c-0.1,0.2-0.2,0.6-0.3,1c-0.1,0.4-0.3,0.4-0.6,0.3c-0.5-0.2-1.1-0.4-1.6-0.5
				c-0.4-0.1-0.4-0.3-0.3-0.7c0.4-1.4,1.1-1.8,2.2-1.2C160.3,284.2,160.5,284.5,160.5,285.2z"/>
			<path fill="#820F28" d="M126.4,297.1c-0.7,0-1.6-0.7-1.6-1.5c0-0.7,0.7-1.5,1.4-1.5c0.7,0,1.6,0.7,1.6,1.5
				C127.8,296.3,127.1,297.1,126.4,297.1z"/>
			<path fill="#820F28" d="M121.1,269.4c0,0.8-0.7,1.6-1.5,1.6c-0.8,0-1.5-0.7-1.5-1.4c0-0.8,0.7-1.6,1.5-1.6
				C120.4,268,121.1,268.7,121.1,269.4z"/>
			<path fill="#820F28" d="M139.1,256c0.1,0.4,0.3,0.7,0.4,1c0.3,0.6,0.1,0.6-0.5,0.6c-0.8,0-0.9,0-0.5-0.8
				C138.7,256.6,138.7,256.2,139.1,256z"/>
		</g>
	</g>
</g>
</svg>
