<?xml version="1.0" encoding="utf-8"?>
<!-- Generator: Adobe Illustrator 19.1.1, SVG Export Plug-In . SVG Version: 6.00 Build 0)  -->
<svg version="1.1" xmlns="http://www.w3.org/2000/svg" xmlns:xlink="http://www.w3.org/1999/xlink" x="0px" y="0px"
	 viewBox="0 0 283 396" enable-background="new 0 0 283 396" xml:space="preserve">
<g id="bombki">
	<path fill="#4B2E3A" d="M123.5,102c-0.5,5.8-5.4,16-19.3,19.8C45.1,138.1,3.9,192.7,4,254.5C4.1,330.3,65.8,392,141.6,392
		c75.7,0,137.4-61.8,137.4-137.7c0-59.1-38.3-109.8-100-132.4l0,0c-11.5-4.2-16.2-12.7-17-19.9H123.5z"/>
	<g id="wyborowa01">
	</g>
	<g id="jacobs_x5F_creek">
	</g>
	<path fill="#3D1A2A" d="M141.6,396c-37.9,0-73.4-14.7-100.1-41.4C14.8,327.9,0,292.4,0,254.5C-0.1,190.9,42.3,134.7,103.2,118
		c12.5-3.5,16.4-12.7,16.4-18l1-2h42.3l1,2c0,3,3,13.3,16.4,18.2c29.7,10.9,54.9,28.7,73.1,51.8c19.3,24.5,29.6,53.6,29.6,84.4
		c0,37.9-14.7,73.4-41.3,100.2C215,381.3,179.5,396,141.6,396z M123.5,102c-0.5,5.8-5.4,16-19.3,19.8C45.1,138.1,3.9,192.7,4,254.5
		C4.1,330.3,65.8,392,141.6,392c75.7,0,137.4-61.8,137.4-137.7c0-59.1-38.3-109.8-100-132.4l0,0c-11.5-4.2-18.2-12.7-19-19.9H123.5z
		"/>
	<ellipse opacity="5.000000e-002" fill="#FFFFFF" cx="140.9" cy="165.8" rx="70.4" ry="33.9"/>
	<ellipse opacity="0.1" fill="#FFFFFF" cx="140.9" cy="151.8" rx="37.1" ry="18"/>
	<g opacity="0.1">
		<path opacity="0.8" d="M30.1,247.9C30,201.7,50.3,160.4,82,133.5c-42.9,23.8-71.9,69.5-71.8,121.9
			c0.1,76.9,55.8,136.1,132.7,136.1c4.2,0,9.5,0,15.9-0.7C86.5,385.5,30.2,325.4,30.1,247.9z"/>
	</g>
	<g opacity="0.1">
		<path opacity="0.8" d="M253.6,247.9c0.1-46.2-20.2-87.5-51.9-114.4c42.9,23.8,71.9,69.5,71.8,121.9
			c-0.1,76.9-55.8,136.1-132.7,136.1c-4.2,0-9.5,0-15.9-0.7C197.2,385.5,253.5,325.4,253.6,247.9z"/>
	</g>
	<path fill="none" stroke="#FF901F" stroke-width="5" stroke-miterlimit="10" d="M156.4,26.6c1.2-2,2-4.8,2-7.6
		c0-9.2-7.4-16.5-16.6-16.5c-9.2,0-16.6,7.3-16.6,16.5c0,2.8,0.7,5.7,2,7.7H156.4z"/>
	<g>
		<path fill="#D97907" d="M141.8,5.4c7.5,0,13.6,6.1,13.6,13.6c0,1.7-0.3,3.3-0.9,4.8h-16.2H129c-0.6-1.5-0.9-3.1-0.9-4.8
			C128.1,11.5,134.3,5.4,141.8,5.4 M141.8,2.4c-9.2,0-16.6,7.4-16.6,16.6c0,2.8,0.7,5.5,2,7.8h11.2h18.2c1.2-2.3,2-5,2-7.8
			C158.4,9.8,150.9,2.4,141.8,2.4L141.8,2.4z"/>
	</g>
	<g>
		<path fill="#0B2C5D" d="M164.8,77.2c0-3.4,0-28.7,0-30c0-1.2-1.1-2.1-1.1-2.7s0.8-1.1,0.8-3c0-1.9,0-14,0-15.3
			c0-1.3-1.2-2.8-6.4-2.8h-16.3h-16.3c-5.1,0-6.4,1.5-6.4,2.8c0,1.3,0,13.4,0,15.3c0,1.9,0.8,2.4,0.8,3s-1.1,1.5-1.1,2.7
			c0,1.2,0,26.5,0,30c0,3.4,0.4,4.4,1.8,7.3c1.4,2.9-0.9,16-1.8,19.8h23h23c-1-3.9-3.2-16.9-1.8-19.8S164.8,80.6,164.8,77.2z"/>
		<path fill="#0A042B" d="M141.8,41.7v1.9H164c0.2-0.4,0.4-1,0.4-1.9H141.8z"/>
		<path fill="#0A042B" d="M163.7,44.8h-21.9v1.9h22.9C164.5,45.9,163.9,45.3,163.7,44.8z"/>
		<g>
			<polygon fill="#1D5B8F" points="141.8,25.6 161.4,26.5 141.8,27.3 			"/>
		</g>
		<path fill="#0A042B" d="M163.5,83.4c-1.7-0.3-3.7-0.6-6.1-0.9c-4.5-0.6-10.4-1.2-15.6-1.4v3.4c6.9,0.4,15.3,1.3,20.8,2.2
			c0.1-1,0.2-1.8,0.4-2.3C163.2,84.1,163.3,83.7,163.5,83.4z"/>
		<path fill="#0A042B" d="M141.8,41.7v1.9h-22.2c-0.2-0.4-0.4-1-0.4-1.9H141.8z"/>
		<path fill="#0A042B" d="M119.9,44.8h21.9v1.9h-22.9C119.1,45.9,119.7,45.3,119.9,44.8z"/>
		<g>
			<polygon fill="#1D5B8F" points="141.8,27.3 122.2,26.5 141.8,25.6 			"/>
		</g>
		<path fill="#0A042B" d="M120.1,83.4c1.7-0.3,3.7-0.6,6.1-0.9c4.5-0.6,10.4-1.2,15.6-1.4v3.4c-6.9,0.4-15.3,1.3-20.8,2.2
			c-0.1-1-0.2-1.8-0.4-2.3C120.4,84.1,120.2,83.7,120.1,83.4z"/>
		<polygon opacity="0.4" fill="#1D5B8F" points="129,23.4 129,41.7 130.3,43.6 130.3,44.8 129.6,46.7 129.6,82.1 130.9,85.4 
			130.9,104.3 139.2,104.3 139.2,84.7 138.4,81.3 139.2,46.7 139.8,44.8 139.8,43.6 139.8,41.7 139.8,23.4 		"/>
		<path fill="#AC9F6C" d="M163.6,98.1c-0.1-0.4-0.1-0.9-0.2-1.4h-43.2c-0.1,0.5-0.1,0.9-0.2,1.4H163.6z"/>
		<path fill="#AC9F6C" d="M164.2,101.6c0-0.2-0.1-0.4-0.1-0.7h-44.6c0,0.2-0.1,0.5-0.1,0.7H164.2z"/>
		<path opacity="0.3" d="M125.5,23.4c-5.1,0-6.4,1.5-6.4,2.8c0,1.3,0,13.4,0,15.3c0,1.9,0.8,2.4,0.8,3s-1.1,1.5-1.1,2.7
			c0,1.2,0,26.5,0,30c0,3.4,0.4,4.4,1.8,7.3c1.4,2.9-0.9,16-1.8,19.8h12.2V85.4l-1.3-3.3V46.7l0.7-1.9v-1.2l-1.3-1.9V23.4H125.5z"/>
		<path opacity="0.3" d="M151.6,41.7v1.9v60.7h13.2c-1-3.9-3.2-16.9-1.8-19.8s1.8-3.9,1.8-7.3c0-3.4,0-28.7,0-30
			c0-1.2-1.1-2.1-1.1-2.7s0.8-1.1,0.8-3c0-1.9,0-14,0-15.3c0-1.3-1.2-2.8-6.4-2.8h-6.5C152.5,23.4,151.6,41.7,151.6,41.7z"/>
	</g>
</g>
<g id="BRAND">
	<g id="New_Symbol_13">
	</g>
	<g>
		<path fill="#FFF5E1" d="M230.8,276.7c-1,0-1.9,0.9-1.9,1.9c0,1.1,0.9,2,1.9,2c1.1,0,1.9-0.9,1.9-2
			C232.7,277.5,231.8,276.7,230.8,276.7 M230.8,280.2c-0.9,0-1.6-0.7-1.6-1.6c0-0.9,0.7-1.6,1.6-1.6c0.9,0,1.6,0.7,1.6,1.6
			C232.4,279.5,231.6,280.2,230.8,280.2"/>
		<path fill="#FFF5E1" d="M231.7,278.1c0-0.4-0.3-0.6-0.8-0.6h-1v2.1h0.5v-0.9h0.2l0.5,0.9h0.6l-0.6-0.9
			C231.6,278.6,231.7,278.3,231.7,278.1 M230.9,278.4h-0.4v-0.5h0.4c0.2,0,0.3,0.1,0.3,0.2C231.2,278.3,231.1,278.4,230.9,278.4"/>
		<path fill="#FFF5E1" d="M121.6,229.5h1.2c0.6,0,0.9,0.3,0.9,0.8v13.8c0,2.2-1.3,2.9-1.3,2.9h7c0,0-1.4-0.6-1.4-2.9v-13.8
			c0-0.5,0.4-0.8,0.9-0.8h1.2c3.3,0,3.8,2.7,3.8,2.7l0-5.5c0,0-0.7,0.6-1.9,0.6h-12c-1.3,0-1.8-0.5-1.8-0.5l0,5.5
			C118,232.3,118.3,229.5,121.6,229.5"/>
		<path fill="#FFF5E1" d="M225.7,255.4h1.5c4.3,0,5,3.5,5,3.5l0-7.1c0,0-0.9,0.8-2.5,0.8h-15.7c-1.7,0-2.4-0.6-2.4-0.6l0.1,7
			c0,0,0.4-3.5,4.7-3.5h1.5c0.8,0,1.2,0.4,1.2,1v22c0,2.8-1.8,3.8-1.8,3.8h9.1c0,0-1.9-0.8-1.9-3.8v-22
			C224.5,255.8,225,255.4,225.7,255.4"/>
		<path fill="#FFF5E1" d="M71.6,270.8v7.8c0,1.8-1.8,2.1-3,2.1c-2.5,0-8.5-0.9-8.5-12.8c0-8.9,3.2-13,7.7-13c8.4,0,9.4,8,9.4,8
			l0.1-11.8c0,0-1.5,1.8-6.8,1.1c-1.8-0.2-6.6-0.5-10.4,2c-3.2,2.1-6.4,5.9-6.4,14.4c0,4.4,1.6,8.3,3.5,10.4
			c2.3,2.7,5.5,4.4,10.9,4.4c4.6,0,8.7-1.9,10.2-2.7c0,0-1.1-1.1-1.1-3.1v-6.9c0.1-2.8,2.4-3.9,2.4-3.9H69
			C69,266.9,71.6,268,71.6,270.8"/>
		<path fill="#FFF5E1" d="M166.8,275v-18.8c0.2-2.5,1.7-3.4,1.7-3.4h-9c0,0,1.7,0.8,1.8,3.4V275c-0.1,2.6-1.7,3.5-1.7,3.5h9
			C168.7,278.5,166.9,277.7,166.8,275"/>
		<path fill="#FFF5E1" d="M117.8,278.5h6.9c0,0-1.7-0.8-1.9-3.5l0-13.9l0-1.4l1,1.6l8.6,13.7c1.7,2.8,2.1,3.8,3.5,3.8h2.4l0-22.6
			c0.2-2.5,1.6-3.4,1.6-3.4h-6.8c0,0,1.7,0.8,1.9,3.4v11.4l0,1.5l-0.8-1.3l-7.4-11.5c-1.5-2.4-0.4-3.4-0.4-3.4h-8.9c0,0,2,1,2,3.4
			l0,18.8C119.4,277.6,117.8,278.5,117.8,278.5"/>
		<path fill="#FFF5E1" d="M186.4,256.2l-4.1,14.2l-4.2-14.2c-0.6-2.5,0.7-3.4,0.7-3.4h-9.4c0,0,1.9,0.8,2.9,3.4l5.6,18.8
			c0.7,2.2,1,3.8,3,3.8l2.6,0l6.4-22.7c0.9-2.5,2.7-3.4,2.7-3.4h-7C185.5,252.7,186.9,253.5,186.4,256.2"/>
		<path fill="#FFF5E1" d="M92.8,275.6h-2.7c-0.7,0-1.2-0.4-1.2-1l0-18.3c0.1-2.7,1.9-3.5,1.9-3.5h-9c0,0,1.6,0.9,1.7,3.5l0,18.8
			c-0.2,2.6-1.8,3.4-1.8,3.4h13.5c1.6,0,2.5,0.8,2.5,0.8l0.1-7.1C97.8,272.1,97.1,275.6,92.8,275.6"/>
		<path fill="#FFF5E1" d="M149.5,274.6l0-18.3c0.1-2.7,1.8-3.5,1.8-3.5h-9c0,0,1.6,0.9,1.7,3.5l0,18.8c-0.2,2.6-1.9,3.4-1.9,3.4
			h13.6c1.6,0,2.5,0.8,2.5,0.8l0.1-7.1c0,0-0.7,3.5-5,3.5h-2.8C149.9,275.6,149.5,275.2,149.5,274.6"/>
		<path fill="#FFF5E1" d="M136.2,229.9l0,14.4c-0.1,2-1.3,2.7-1.3,2.7h7c0,0-1.3-0.6-1.4-2.7v-6.4h7l0,6.4c-0.1,2-1.3,2.7-1.3,2.7h7
			c0,0-1.3-0.6-1.4-2.7v-14.4c0.1-1.9,1.3-2.6,1.3-2.6h-7c0,0,1.3,0.6,1.4,2.6v5.8h-7v-5.8c0.1-1.9,1.3-2.6,1.3-2.6h-7
			C134.8,227.3,136.1,227.9,136.2,229.9"/>
		<path fill="#FFF5E1" d="M155.6,247H166c1.2,0,1.9,0.6,1.9,0.6l0.1-5.6c0,0-0.5,2.8-3.8,2.8h-2c-0.5,0-0.9-0.3-0.9-0.8l0-6.2h2.5
			c2.5,0,3.4,1.7,3.4,1.7v-5.4c0,0-0.7,1.5-3.5,1.5h-2.5l0-5.4c0-0.5,0.4-0.8,0.9-0.8h2c3.3,0,3.8,2.7,3.8,2.7l-0.1-5.5
			c0,0-0.7,0.6-1.9,0.6h-10.4c0,0,1.3,0.6,1.4,2.6l0,14.5C156.9,246.4,155.6,247,155.6,247"/>
		<path fill="#FFF5E1" d="M107.3,255.6h2.7c4.3,0,4.8,3.5,4.8,3.5l0.1-7.1c0,0-0.9,0.8-2.5,0.8H98.8c0,0,1.7,0.8,1.9,3.4l0,18.9
			c-0.2,2.6-1.9,3.4-1.9,3.4h13.6c1.6,0,2.5,0.8,2.5,0.8l-0.1-7.1c0,0-0.5,3.5-4.8,3.5h-2.7c-0.8,0-1.2-0.4-1.2-1l0-8.3h3.3
			c3.2,0,4.5,2.3,4.5,2.3v-7.1c0,0-0.9,2-4.5,2h-3.2v-6.8C106.1,256,106.6,255.6,107.3,255.6"/>
		<path fill="#FFF5E1" d="M201.7,255.6h2.7c4.3,0,5,3.5,5,3.5l0-7.1c0,0-0.9,0.8-2.5,0.8h-13.5c0,0,1.7,0.8,1.8,3.4l0,18.9
			c-0.2,2.6-1.8,3.4-1.8,3.4h13.5c1.6,0,2.5,0.8,2.5,0.8l0.1-7.1c0,0-0.6,3.5-5,3.5h-2.7c-0.7,0-1.2-0.4-1.2-1l0-8.3h3.3
			c3.2,0,4.5,2.3,4.5,2.3v-7.1c0,0-0.9,2-4.5,2h-3.2l0-6.8C200.5,256,201,255.6,201.7,255.6"/>
		<path fill="#FFF5E1" d="M130.4,330.1c-0.2-0.1-0.4-0.3-0.6-0.4l-0.1-0.1l-0.2,0.3l0.1,0.1c0.2,0.1,0.2,0.1,0.1,0.3l-0.9,1.4
			c-0.1,0.1-0.1,0.2-0.2,0.2c0,0-0.1-0.1-0.2-0.1l-0.1-0.1l-0.2,0.3l0.1,0.1c0.2,0.1,0.5,0.3,0.7,0.4c0.2,0.1,0.3,0.2,0.5,0.3
			c0.2,0.1,0.3,0.2,0.5,0.3l0.1,0.1l0.1-0.1c0.1-0.2,0.3-0.3,0.4-0.4l0.1-0.1l-0.2-0.2l-0.1,0.1c-0.3,0.2-0.4,0.2-0.7,0l-0.2-0.1
			c-0.2-0.1-0.2-0.1-0.2-0.2c0-0.1,0.1-0.2,0.2-0.3l0.3-0.4l0.2,0.2c0.2,0.2,0.2,0.2,0.1,0.4l-0.1,0.1l0.3,0.2l0.1-0.1
			c0-0.1,0.1-0.1,0.1-0.2c0-0.1,0.1-0.1,0.1-0.2c0.1-0.1,0.2-0.3,0.2-0.3l0.1-0.1l-0.3-0.2l-0.1,0.1c-0.1,0.1-0.1,0.1-0.3,0.1
			l-0.3-0.2l0.4-0.7l0.3,0.2c0.3,0.2,0.3,0.3,0.2,0.6l0,0.1l0.3,0.1l0.4-0.6l-0.1-0.1C131,330.5,130.7,330.3,130.4,330.1"/>
		<path fill="#FFF5E1" d="M133.5,331.8c-0.2-0.1-0.3-0.1-0.5-0.1c-0.3,0-0.6,0.2-0.7,0.5c-0.2,0.5,0,0.8,0.2,1.1
			c0.2,0.2,0.3,0.4,0.2,0.6c-0.1,0.2-0.3,0.3-0.5,0.2c-0.2-0.1-0.3-0.4-0.2-0.6l0-0.1l-0.3-0.1l-0.2,0.7l0,0.1
			c0.1,0.2,0.3,0.3,0.5,0.4c0.2,0.1,0.3,0.1,0.5,0.1c0.4,0,0.7-0.2,0.8-0.5c0.2-0.5-0.1-0.8-0.3-1.1c-0.2-0.3-0.3-0.4-0.2-0.6
			c0.1-0.2,0.3-0.3,0.5-0.2c0.2,0.1,0.3,0.2,0.2,0.4l0,0.1l0.3,0.1l0.2-0.7l-0.2-0.1C133.7,331.9,133.6,331.8,133.5,331.8"/>
		<path fill="#FFF5E1" d="M137.4,333.1L137.4,333.1c0,0.1-0.1,0.1-0.2,0.1l-1.6-0.5c-0.1,0-0.1,0-0.1-0.1l0-0.1l-0.3-0.1l-0.3,0.8
			l0.2,0.1l0.1,0l0-0.1c0.1-0.2,0.1-0.2,0.2-0.2c0,0,0.1,0,0.2,0l0.4,0.1l-0.6,1.9c0,0.1-0.1,0.1-0.1,0.1c0,0-0.1,0-0.2,0l-0.1,0
			l-0.1,0.2l0,0.1l0.1,0c0.2,0,0.3,0.1,0.5,0.1c0.1,0,0.2,0,0.2,0.1c0.1,0,0.2,0.1,0.3,0.1l0.1,0l0.1-0.3l-0.1,0
			c-0.2-0.1-0.2-0.1-0.2-0.2l0.6-1.9l0.4,0.1c0.2,0,0.2,0.1,0.1,0.2l0,0.1l0.3,0.1l0.3-0.8l-0.1,0L137.4,333.1z"/>
		<path fill="#FFF5E1" d="M139.8,333.6c-0.2,0-0.3,0-0.4,0c-0.1,0-0.2,0-0.2,0c-0.1,0-0.3,0-0.4-0.1l-0.1,0l0,0.3l0.2,0
			c0.2,0,0.2,0,0.2,0.2l-0.2,1.8c0,0.1,0,0.1-0.2,0.1h0l-0.2,0l0,0.3l0.1,0c0.2,0,0.3,0,0.5,0.1c0.1,0,0.2,0,0.3,0
			c0.1,0,0.2,0,0.3,0c0.1,0,0.2,0,0.3,0c0.7,0,1-0.3,1.3-0.6c0.2-0.3,0.3-0.6,0.3-0.7c0-0.4-0.1-0.7-0.3-1
			C140.7,333.9,140.3,333.7,139.8,333.6 M140.6,335.2c0,0.3-0.2,0.9-0.9,0.9c-0.1,0-0.1,0-0.2,0c-0.2,0-0.3-0.1-0.2-0.2l0.2-1.9
			c0,0,0.1,0,0.2,0C140.3,334,140.7,334.5,140.6,335.2"/>
		<path fill="#FFF5E1" d="M143.1,336c-0.2,0-0.4,0.2-0.4,0.4c0,0.2,0.2,0.4,0.4,0.4h0c0.1,0,0.2,0,0.3-0.1c0.1-0.1,0.1-0.2,0.1-0.3
			C143.5,336.2,143.3,336,143.1,336"/>
		<path fill="#FFF5E1" d="M146.5,336.1C146.5,336.1,146.5,336.1,146.5,336.1c-0.1,0-0.1,0-0.1,0s0,0,0,0l-0.3-2.4l-0.2,0l0,0
			c-0.3,0.3-0.6,0.5-0.8,0.6l-0.1,0.1l0.2,0.3l0.1-0.1c0.1-0.1,0.2-0.2,0.3-0.2l0.2,1.8c0,0,0,0,0,0c0,0,0,0-0.1,0l-0.3,0l0,0.3
			l0.1,0c0.2,0,0.4-0.1,0.6-0.1c0.1,0,0.2,0,0.3,0c0.1,0,0.2,0,0.3,0l0.1,0l0-0.3L146.5,336.1z"/>
		<path fill="#FFF5E1" d="M149.6,334.3c0.2-0.3,0.3-0.5,0.2-0.8c-0.1-0.3-0.4-0.5-0.7-0.5c-0.1,0-0.2,0-0.2,0
			c-0.5,0.1-0.7,0.5-0.6,1c0.1,0.3,0.3,0.4,0.6,0.5c-0.2,0.2-0.3,0.5-0.3,0.8c0.1,0.3,0.3,0.5,0.7,0.5c0.1,0,0.2,0,0.2,0
			c0.5-0.1,0.8-0.6,0.6-1C150.1,334.5,149.8,334.3,149.6,334.3 M148.7,333.8c0-0.2,0-0.4,0.2-0.4c0,0,0,0,0.1,0
			c0.1,0,0.3,0.1,0.3,0.3c0,0.2,0,0.3-0.1,0.5C149,334.1,148.8,334,148.7,333.8 M149.7,335.4c0,0.1-0.1,0.1-0.2,0.1c0,0-0.1,0-0.1,0
			c-0.1,0-0.3-0.1-0.3-0.3c-0.1-0.2,0-0.4,0.1-0.6c0.3,0.1,0.5,0.2,0.5,0.4C149.7,335.2,149.7,335.3,149.7,335.4"/>
		<path fill="#FFF5E1" d="M153.2,333.8l0,0.2l-0.8,0.3c0,0,0,0,0,0c0.2-0.5,0.5-1.2,0.3-1.8c-0.2-0.4-0.6-0.6-1-0.5
			c-0.4,0.2-0.5,0.5-0.6,0.9l0,0.1l0.3,0.1l0.1-0.2c0.1-0.2,0.1-0.4,0.3-0.4c0,0,0.1,0,0.1,0c0.2,0,0.3,0.2,0.4,0.3
			c0.2,0.4,0,1.1-0.4,2l0,0l0.1,0.2l1.8-0.7l-0.1-0.7L153.2,333.8z"/>
		<path fill="#FFF5E1" d="M156.5,331.9l-0.2-0.4l-0.3,0.2l-0.8-1.4l-0.3,0.2l-0.3,2.2l0.2,0.3l1-0.6l0.4,0.7l0.5-0.3l-0.4-0.7
			L156.5,331.9z M155,332.2l0.1-0.8l0.3,0.6L155,332.2z"/>
		<polyline fill="#FFF5E1" points="154.4,313.1 154.3,313.1 154.4,313.1 154.4,313.1 154.4,313.1 		"/>
		<path fill="#FFF5E1" d="M145.3,315c0.5,0.9,1.2,1.7,2,2.3c0.3,0.3,0.6,0.6,1,0.7c0.1,0.1,0.4,0.2,0.6,0.2c0.3-0.1,0.3-0.8,0.3-1.1
			c0.6-2.7,0.1-5.4-1.2-7.8c-0.3-0.7-0.8-1.3-1.3-1.8c-0.1-0.1-0.2-0.2-0.4-0.3c-0.1-0.1-0.3,0.2-0.4,0.3c-0.2,0.3-0.5,0.6-0.6,0.9
			c-0.8,1.6-1,3.3-0.6,5.1C144.9,314.1,145,314.6,145.3,315"/>
		<path fill="#FFF5E1" d="M155.9,326.8C155.9,326.9,156.1,326.7,155.9,326.8c-1.8,1.5-1.5,0.9-1.8,0.6c-0.1-0.2-0.7,0.1-0.9,0.2
			c-0.3,0.1-0.6,0.4-0.9,0.6c-0.4,0.2-0.4,0.4-0.2,0.7c0,0-1.1,0.4-1.2,0.5c-0.4,0.2-0.7,0.5-1.1,0.6c-0.1,0-1.1,0.2-1-0.1
			c0-0.1,0.1-0.2,0.2-0.3c0.1-0.1,0.3-0.1,0.2-0.3c-0.1-0.2-0.4-0.1-0.6-0.1c-0.3,0-0.4-0.2-0.2-0.4c0.2-0.2,0.4-0.3,0.6-0.4
			c0.2-0.1,1-0.4,1-0.6c0.3-0.1,0.6-0.4,0.9-0.6c0.4-0.3,0.8-0.5,1.1-0.8c0.2-0.2,0.3-0.4,0.4-0.7c0.2-0.4-0.2-0.4-0.4-0.2
			c-0.4,0.4-0.8,0.8-1.3,1.1c-0.4,0.3-0.7,0.5-1.1,0.7c-0.3,0.1-0.6,0.4-1,0.5c-0.2,0.1-0.4,0.1-0.5,0c-1.1-0.7,2.2-2.7,2.6-3
			c0.3-0.2,0.5-0.4,0.8-0.7c0.2-0.2,1-0.7,0.5-1c-0.1,0-0.2,0-0.2-0.2c0-0.2,0.1-0.4,0.2-0.5c0.1-0.2,0.3-0.3,0.5-0.4
			c0.2-0.1,0.3-0.2,0.4-0.3c0.3-0.3,0.4,0.2,0.3,0.5c-0.3,0.6,0.2,0.8,0.6,0.4c0.3-0.2,0.5-0.5,0.8-0.7c0.1-0.1,0.2-0.3,0.2-0.4
			c0-0.1-0.2-0.2-0.1-0.3c0.1-0.1,0.3-0.1,0.4-0.1c0.1,0,0.3-0.1,0.4-0.2c0.3-0.2,0.4-0.4,0.5-0.7c0.1-0.2,0.1-0.5-0.2-0.5
			c-0.2,0-0.4,0.2-0.5,0.4c-0.1,0.1-0.9,0.6-0.9,0.3c0-0.1,0.2-0.4,0.3-0.5c0.2-0.2,0.3-0.4,0.5-0.7c0.1-0.1,0.3-0.5,0.2-0.7
			c-0.2-0.2-0.5,0-0.6,0.1c-0.2,0.2-0.5,0.4-0.7,0.3c-0.1,0-0.4-0.1-0.4-0.3c0-0.1,0.2-0.3,0.3-0.5c0.1-0.2,0.2-0.3,0.3-0.4
			c0.2-0.1,0.4,0,0.5-0.2c0.3-0.3,0.7-0.7,0.8-1.1c0.1-0.3,0-0.8-0.4-1c-0.6-0.3-0.9,0.5-1.1,0.9c-0.2,0.4-0.6,0.5-0.9,0.1
			c-0.2-0.4-0.1-1.2,0.1-1.6c0.1-0.3,0.4-0.5,0.6-0.8c0.1-0.2,0.4-0.5,0.3-0.8c-0.1-0.2-0.4,0-0.5,0.1c-0.2,0.2-0.4,0.4-0.7,0.4
			c-0.3,0-0.6-0.2-0.7-0.4c-0.3-0.6,0.5-1.1,0.8-1.5c0.1-0.2,0.5-1,0.1-1c-0.5,0-0.5,1.2-0.8,1.3c-0.3,0-0.2-0.4-0.3-0.5
			c-0.1-0.2,0-0.4,0-0.7c0.1-0.4,0.3-1.1,0.2-1.3c-0.1-0.2-0.3,0.2-0.3,0.3c-0.1,0.1-0.1,0.3-0.3,0.4c-0.3,0.2-0.6-0.1-0.7-0.4
			c0-0.3,0-0.6,0.1-0.8c0.1-0.1,0.4-0.5,0.1-0.6c-0.1,0-0.4,0.4-0.5,0.4c-0.2,0-0.2-0.3-0.3-0.4c-0.2-0.2-0.2-0.5,0-0.7
			c0.1-0.2,0.2-0.5-0.2-0.5c-0.4,0-0.7,0.1-0.9-0.2c-0.1-0.2-0.1-0.4-0.2-0.6c0-0.1,0-0.4-0.1-0.4c-0.2-0.1-0.4,0.3-0.5,0.4
			c-0.4-0.1-0.5-0.3-0.4-0.7c0-0.1,0.1-0.3-0.1-0.3c-0.1,0-0.3,0.1-0.4,0.1c0-0.3-0.1-1.1-0.5-0.7c-0.1,0.1-0.4,0.3-0.5,0.1
			c-0.1-0.2,0-0.4,0.1-0.5c0.1-0.2,0.2-0.5,0-0.7c-0.3-0.1-0.5,0.1-0.7,0.2c-0.3,0.1-0.5,0-0.5-0.3c0-0.1,0-0.6-0.3-0.4
			c-0.1,0.1-0.2,0.5-0.4,0.3c-0.1-0.1-0.1-0.2-0.1-0.3c-0.2-0.2-0.5-0.1-0.7-0.3c-0.2-0.1-0.2-0.4-0.5-0.4c-0.2,0-0.3,0.1-0.5,0
			c-0.1-0.1-0.2-0.2-0.3-0.2c-0.1-0.1-0.2-0.1-0.3-0.1c-0.3-0.1-0.8,0.1-1.2,0.1c-0.9-0.1-1.8,0-2.7,0.1c-1.8,0.3-3.3,0.9-4.8,1.9
			c-3.3,2.2-4.8,6.1-7.8,8.6c-0.7,0.6-1.4,1.2-2.2,1.6c-0.3,0.2-0.8,0.3-1.1,0.5c-0.2,0.2,0.1,0.9,0.1,1.1c0.2,0.9,0.5,1.7,0.7,2.6
			c0.1,0.2,0.1,0.8,0.4,1c0.3,0.1,0.6,0,0.8,0c1-0.1,2.1,0,3.1-0.1c1.1-0.1,2.2-0.2,3.3-0.3c2.1-0.2,4.2-0.1,6.3-0.2
			c1,0,2-0.1,3-0.2c0.2,0,1,0,1.2-0.2c0.2-0.2,0-0.8,0-1c0-1-0.2-2-0.5-3c-0.2-0.6-0.4-1.6-0.8-2.1c-0.5-1.5-2.1-2.5-3.6-2.7
			c-1.6-0.2-3.1,0.9-4.2,2c-0.2,0.2-0.4,0.1-0.4-0.3c0-0.3,0.1-0.8,0.2-1c0.2-0.6,0.4-1.2,0.7-1.8h0c0.1-0.3,0.3-0.6,0.4-0.8
			c0,0,0,0,0,0c0.1-0.2,0.2-0.4,0.3-0.5c0.8-1.6,2.7-2.8,4.3-3.4c1.7-0.6,4-0.5,5.7,0.2c1.4,0.6,2.5,1.4,3.5,2.5
			c0.3,0.3,0.6,0.6,0.8,0.9c0.6,0.7,1.1,1.5,1.5,2.3c0.7,1.5,1.3,3,1.3,4.6c0.1,1.6-0.2,3.2-0.6,4.7c-0.2,0.8-0.6,1.6-0.9,2.4
			c-1.7,3.6-5,5.7-8.7,6.7c-2.2,0.6-5,0.7-7.2-0.1c-1-0.4-1.8-0.9-2.7-1.4c0.6-0.1,1.2-0.2,1.8-0.5c0.6-0.2,1.2-0.7,1.9-0.8
			c0.5-0.1,1.6-0.1,2-0.5c0.4-0.4,1.3-0.4,1.8-0.5c0.6-0.1,1.2,0,1.8-0.2c0.4-0.1,0.8-0.2,1.2-0.3c0.1,0,0.8-0.1,0.6-0.3
			c-0.3-0.2-0.8-0.1-1.1-0.1c-1.1,0.1-2.1,0.1-3.2,0.1c-0.6,0-1.2,0-1.8,0.4c-0.5,0.4-1.3,0.4-1.9,0.4c-0.6,0-1.1,0.2-1.7,0.4
			c-0.7,0.2-1.4,0.3-2.1,0.4c-0.3,0-0.6,0.1-0.9,0.1c-0.3,0-0.5-0.2-0.7-0.4c-0.3-0.2-0.6-0.5-0.8-0.8c0,0,0.8-0.2,0.9-0.2
			c0.5-0.1,1-0.2,1.4-0.3c0.4-0.1,0.8-0.3,1.2-0.4c0.5-0.1,1,0,1.4-0.1c0.8,0,1.6,0,2.4-0.4c0.9-0.4,1.6-0.5,2.6-0.5
			c1.8,0.1,3.5-0.4,5.3-0.7c0.5-0.1,1.1-0.1,1.6-0.2c0.1,0,1.1-0.2,0.6-0.3c-0.4-0.1-1,0-1.4,0c-0.9,0.1-1.8,0.1-2.7,0.3
			c-0.9,0.2-1.8,0.2-2.6,0.3c-1,0-2-0.1-3,0.2c-0.8,0.2-1.7,0.5-2.5,0.5c-0.9,0-1.8,0-2.7,0.3c-0.8,0.3-1.6,0.3-2.5,0.4
			c-0.3,0-0.7,0.2-1.1,0.1c-0.2,0-0.6-0.3-0.8-0.3c0.4,0.9,1.2,1.6,1.8,2.3c0.7,0.9,1.5,1.6,2.4,2.4c0.7,0.6,1.4,1.1,2.2,1.6
			c2.8,1.6,3.9,2,7.1,2.8c2.3,0.6,6,0.2,7.2-0.1c0.5-0.2,1.1-0.3,1.6-0.4c1.1-0.4,2.3-0.8,3.4-1.3c1.1-0.5,2.1-1.1,3-1.8
			c0.9-0.6,1.9-1.4,2.6-2.3C157,326.2,156.1,326.7,155.9,326.8 M150.3,307.4C150.3,307.4,150.3,307.4,150.3,307.4 M145.2,303.7
			C145.2,303.7,145.2,303.7,145.2,303.7L145.2,303.7C145.2,303.7,145.2,303.7,145.2,303.7 M145.2,303.7L145.2,303.7
			C145.2,303.7,145.2,303.7,145.2,303.7C145.2,303.7,145.2,303.7,145.2,303.7"/>
		<path fill="#FFF5E1" d="M127.9,321.8c1.3,0,2.4-0.4,3.6-0.6c1.1-0.2,2.3-0.1,3.4-0.2c1.2-0.1,2.4-0.1,3.7-0.2
			c0.6,0,1.3-0.1,1.9-0.2c0.3,0,0.6-0.1,0.9-0.1c0.2,0,0.9-0.3,0.8-0.4c-0.1,0-1.1-0.1-1.4,0c-0.4,0-0.8,0.1-1.2,0.1
			c-0.8,0.1-1.6,0.1-2.4,0.1c-0.8,0-1.6,0-2.4,0c-0.8,0-1.6,0.1-2.4,0.1c-1.5,0.1-3,0.7-4.5,0.7c-0.8,0-1.6-0.2-2.4,0
			c-0.2,0-0.3,0-0.5,0.1c-0.2,0,0,0.3,0,0.3c0.1,0.1,0.3,0.6,0.4,0.5c0.2-0.1,0.4-0.1,0.6-0.1C126.6,321.7,127.3,321.8,127.9,321.8"
			/>
		<path fill="#FFF5E1" d="M131.1,302c-0.2-0.1-0.5-0.2-0.8-0.2c-0.1,0-0.3,0.1-0.4,0.1c-0.1,0-0.1,0-0.1,0.1c0,0.1,0,0.1-0.1,0.1
			c-0.1,0-0.3,0-0.3,0.1c0,0.1-0.2,0.1-0.3,0.1c-0.1,0-0.3,0-0.4,0.1c0,0-0.1,0.1-0.1,0.1c0,0.1,0.1,0.1,0.2,0.1
			c0.1,0,0.3,0,0.2,0.2c0,0-0.1,0-0.1,0.1c0,0,0.1,0.1,0.1,0.1c0.2,0.1,0.4,0.3,0.5,0.5c0,0.1,0.2,0.2,0.3,0.2c0.1-0.1,0-0.3,0-0.4
			c0.1,0,0.1,0,0.1,0c0.1,0.1,0.1,0.1,0.1,0.2c0,0,0.1,0.1,0.1,0.1c0,0,0-0.1,0.1-0.1c0.1,0.1,0.2,0.5,0.3,0.2
			c0.1-0.2-0.1-0.4,0-0.5c0.1,0.1,0.2,0.2,0.3,0.3c0,0.1,0.1,0.1,0.1,0c0,0,0-0.1,0-0.2c0.1,0.1,0.1,0.1,0.2,0.2
			c0.1,0.1,0.1-0.1,0.1-0.2c-0.1-0.3-0.2-0.4-0.3-0.6c0.1,0,0.2,0,0.2,0c0,0,0.1,0.1,0.2,0.1c0.1,0,0-0.2,0.1-0.2
			C131.6,302.5,131.2,302.1,131.1,302"/>
		<path fill="#FFF5E1" d="M133,295.4c-0.7-0.9-2.7,1.3-3.1,1.6c-0.7,0.7-1.5,1.3-2.1,2.1c-1.4,1.6-2.6,3.5-3.4,5.5
			c-0.1,0.3-1.2,3.3-1,3.4c0.2,0,0.2,0,0.3,0.1c0.1,0.1,0.2,0.2,0.4,0.3c0-0.2,0-0.3-0.1-0.5c-0.1-0.2,0-0.4,0-0.6
			c0.1,0,0.2,0.5,0.4,0.3c0.1-0.1-0.1-0.7,0-0.7c0.1,0.1,0.4,0.3,0.3,0c0-0.1-0.1-0.3-0.1-0.4c-0.1-0.1-0.2-0.2,0-0.2
			c0.3,0,0.4,0.1,0.7,0.2c0.1,0,0.3,0.1,0.4,0c0,0,0.1-0.1,0.1-0.1c0.1,0,0.1,0.1,0.2,0.1c0.2,0.2,0.3,0.4,0.5,0.6
			c0.1,0.1,0.2-0.1,0.2-0.2c0-0.1,0-0.3-0.1-0.4c0.1,0,0.3,0,0.3,0.1c0,0,0.1,0.1,0.1,0.1c0,0,0,0.1,0,0.1c0,0,0,0,0,0
			c0.1,0,0.2,0,0.2,0l0.1-0.1c0,0,0,0,0-0.1c0,0,0,0,0,0c0,0,0-0.2,0-0.2c0-0.2-0.2-0.4-0.1-0.6c0.2,0.1,0.3,0.2,0.5,0.3
			c0.2,0.1,0.4,0.2,0.5,0.3c0.1,0,0.3,0.1,0.2-0.1c0-0.1-0.3-0.4-0.1-0.4c0.2,0,0.4,0.1,0.6,0.2c0,0,0.5,0.2,0.4,0
			c-0.2-0.4-0.5-0.6-0.8-0.8c0.1,0,0.7,0,0.7-0.1c0-0.2-0.6-0.3-0.8-0.3c-0.1,0-0.3,0-0.4,0.1c-0.1,0-0.1,0-0.2-0.1
			c0-0.1-0.1-0.1-0.1-0.2c-0.1-0.1,0.2,0,0.2,0c0.1-0.1-0.1-0.3-0.1-0.4c0.2,0,0.4-0.1,0.2-0.3c-0.1-0.1-0.2-0.2-0.3-0.3
			c-0.1-0.1,0.2-0.1,0.3-0.1c0.1,0,0.3,0,0.3-0.1c-0.1-0.1-0.3-0.2-0.4-0.2c-0.3-0.1-0.5-0.4-0.8-0.5c-0.3-0.1-0.6-0.1-0.9,0
			c-0.2,0-0.7-0.1-0.5-0.3c0.1,0,0.3-0.1,0.3-0.1c0.1-0.1,0.3-0.1,0.4-0.1c0.3,0,0.5,0.1,0.4-0.3c0.1,0.1,0.8,0.4,0.8,0.1
			c0-0.1-0.2-0.3-0.3-0.4c0,0-0.1,0-0.1-0.1c0.1,0,0.1-0.1,0.1-0.2c0-0.1-0.3-0.3-0.3-0.3c0.2,0,0.4-0.1,0.6-0.1c0.1,0,0.1,0,0.1,0
			c0.1,0,0.2,0,0.2-0.1c0.1,0,0.2,0,0.3,0c0.1-0.1,0.1-0.1,0.1-0.2c0.1,0,0.1,0,0.2,0c0.1-0.1,0.2-0.1,0.3-0.2c0.2,0,0.3,0,0.4-0.1
			c0.2,0,0.5,0.1,0.7,0.2c0.1,0.1,0.5,0,0.7,0.1c0.1,0.1,0.4,0.2,0.3-0.1c0-0.1,0-0.1-0.1-0.2c0.1,0,0.1,0,0.2,0
			c0.1,0.1,0.3,0.1,0.4,0.2c0,0,0,0,0,0c0.1,0.1,0.2,0.3,0.2,0.4c0,0,0,0.1,0,0.1c0,0.1,0,0.2,0.1,0.3c0.1,0.1,0.2,0.4,0.3,0.4
			c0.1,0,0.1-0.3,0-0.4c0.1,0.1,0.4,0.6,0.5,0.6c0.2,0-0.1-0.6-0.1-0.7c0.3,0,0.6,0.3,0.8,0.6c0.1,0.1,0.2,0.2,0.2,0
			c0-0.2,0-0.4-0.1-0.6c0,0,0,0,0.1,0c0-0.1,0-0.1,0-0.2c0,0,0-0.1,0.1-0.1c0,0,0-0.1,0-0.1c0-0.1,0.1-0.1,0.2-0.1
			c0,0,0.1-0.1,0.1-0.1c0.1-0.1,0.3-0.1,0.4,0c0,0,0,0,0,0.1c0.1,0,0.2,0,0.2-0.1c0.1-0.3-0.4-0.4-0.6-0.5c0.4-0.1,0.7,0.3,1.1,0.2
			c0.2,0,0-0.2-0.1-0.3c-0.1-0.1-0.3-0.1-0.5-0.2c0.1-0.1,0.5-0.1,0.5-0.3c0-0.2-0.6-0.1-0.7-0.1c0.1-0.1,0.1-0.1,0.2-0.2
			c-0.1-0.1-0.3,0-0.4-0.1c0.1-0.1,0.4-0.2,0.5-0.3c0.1-0.1,0.3-0.2,0-0.3c-0.1,0-0.2,0-0.3,0c-0.1,0-0.2,0.1-0.3,0.1
			c0-0.1,0-0.1,0-0.2c-0.2,0-0.4,0.1-0.6,0.3c0,0-0.1,0-0.1,0c0,0-0.1-0.1-0.1-0.1c-0.1,0-0.1-0.1-0.2-0.1c0.1-0.1,0.2-0.1,0.3-0.2
			c0.1,0,0.2-0.1,0.2-0.2c-0.1,0-0.2,0-0.3,0c-0.2,0-0.4,0.1-0.6,0.2c0,0,0,0,0,0c0.1-0.3,0.1-0.6-0.1-0.8c0,0,0,0,0,0
			c0,0,0,0,0.1,0c0.2-0.1,0.1-0.2,0-0.4c0.3-0.1,0.6,0.2,0.9,0.3c0.1,0,0.3,0,0.3-0.2c0-0.1-0.2-0.3-0.3-0.4c-0.1,0-0.4-0.2-0.1-0.2
			c0.2,0,0.4,0,0.6-0.1c0.2-0.1,0.1-0.2,0-0.2c-0.2-0.1-0.4-0.1-0.6-0.1c0.1-0.5-0.8,0.2-1,0.2c0.1-0.1,0.1-0.2,0.1-0.3
			c0-0.1-0.1-0.1-0.1-0.1c-0.1,0,0.3-0.4,0.2-0.5c-0.1-0.2-0.5,0.1-0.5,0C132.6,295.8,133,295.5,133,295.4 M132.7,297.8
			C132.7,297.8,132.7,297.8,132.7,297.8L132.7,297.8C132.7,297.8,132.7,297.8,132.7,297.8"/>
		<path fill="#FFF5E1" d="M150.3,293.6c-0.4-0.2-0.8-0.3-1.2-0.4c-0.2-0.1-0.4-0.1-0.6-0.2c-0.2,0-0.4-0.2-0.6,0
			c0.1,0.1,0.2,0.1,0.3,0.1c0.1,0.1,0.1,0.2,0.2,0.3c-0.1,0-0.3,0.1-0.3,0.2c0,0.1,0.2,0,0.3,0c0.2,0,0.1,0.2,0.2,0.1
			c0.1-0.1,0.3-0.1,0.4,0c0.2,0.1,0,0.2,0,0.3c0,0,0.1,0.1,0.2,0.1c0.1,0,0.2,0.1,0.2,0.2c0,0,0.1,0.1,0.1,0.1
			c0,0.1-0.1,0.1-0.1,0.1c-0.1,0-0.1,0.1-0.1,0.1c0,0,0.1,0.1,0.1,0.1c0,0-0.3,0-0.3,0.1c0,0.1,0.2,0.1,0.3,0.2
			c0.1,0.1,0.2,0.2,0.1,0.3c-0.1,0.1-0.2,0-0.3,0c0,0,0.1,0.1,0,0.2c-0.1,0.1-0.2,0-0.3,0c-0.1,0-0.2,0-0.2,0
			c0.1,0.1,0.2,0.1,0.2,0.2c0.1,0.1,0.1,0.2,0.1,0.3c0,0,0,0,0,0c0.1,0,0.1,0,0.2,0.1c0.2,0.1,0.3,0.2,0.5,0.3c0,0,0,0,0,0
			c0.1,0,0.2,0,0.2-0.1c-0.1-0.1-0.5,0-0.4-0.2c0-0.1,0.1-0.2,0.2-0.3c0.1-0.1,0.2,0,0.3,0c0-0.1-0.1-0.1-0.2-0.1
			c0.1-0.1,0.2-0.1,0.4-0.1c0.1,0,0.1-0.1,0-0.1c-0.1,0-0.1,0-0.2-0.1c-0.1-0.1-0.1-0.2,0.1-0.3c0.2-0.1,0-0.1-0.1-0.3
			c-0.1-0.1,0.2-0.2,0.3-0.2c0.1,0,0.2,0.1,0.3,0c0,0-0.1-0.1-0.1-0.2c-0.1-0.1-0.2-0.3-0.1-0.4c0.1-0.1,0.4,0,0.5,0.1
			c0-0.1,0-0.1,0-0.2c0-0.1,0-0.1,0.1-0.1c0.1,0,0.2,0,0.2,0.1c0,0,0.1,0.1,0.2,0.1C151.4,294.1,150.4,293.7,150.3,293.6"/>
		<path fill="#FFF5E1" d="M153.2,295.2c0,0-0.1,0-0.1,0c0,0-0.2-0.1-0.2-0.1c-0.1,0-0.3,0-0.4,0.1c-0.1,0.1-0.1,0.3,0,0.4
			c0.1,0.1,0.1,0.2,0.1,0.4c0,0.1-0.1,0.2-0.1,0.4c0.1,0.3,0.6,0.2,0.8,0.3c0.3,0.1,0.6,0.4,0.9,0.4c0.1,0,0.3,0,0.4,0.1
			c0.1,0.1,0.2,0.2,0.3,0.3c-0.1,0-0.3,0.1-0.4,0c-0.1-0.1-0.2-0.1-0.3-0.2c-0.1,0-0.3-0.1-0.4,0c-0.1,0-0.2,0.1-0.2,0.2
			c0,0,0,0.1,0.1,0.1c0,0.1,0.1,0.1,0.1,0.2c-0.3,0-0.6,0-1-0.1c-0.2,0-0.4,0.1-0.6,0.2c-0.1,0.1-0.4,0.2-0.4,0.4
			c0,0.2,0.3,0.2,0.4,0.2c0.2,0,0.4,0,0.7,0.1c0,0.1-0.1,0.4,0.1,0.4c0.2,0,0.3-0.1,0.5-0.2c0.2-0.1,0.3-0.1,0.5-0.1
			c0.1,0,0.3-0.1,0.4,0c0.2,0.1,0.2,0.2,0.4,0.1c-0.1,0.1-0.5,0.5-0.2,0.6c0.1,0,0.3,0,0.4,0c0.1,0,0.3-0.1,0.4-0.1
			c0.1-0.1,0.2-0.1,0.3-0.2c0.1,0,0.3,0,0.4,0c0.1,0.1,0,0.2,0,0.3c-0.1,0.1-0.1,0.2-0.2,0.3c0,0.3,0.2,0.4,0.4,0.4
			c0.1-0.1,0.3-0.3,0.3-0.5c0-0.1,0-0.1,0.1-0.2c0.1,0,0.2,0,0.3,0c-0.1,0.1-0.3,0.4-0.2,0.6c0.1,0.1,0.3,0.2,0.4,0.2
			c0.2,0,0.3-0.1,0.5-0.2c0.1-0.1,0.3-0.2,0.4-0.3c0.1-0.1,0.3-0.1-0.1-0.6c-0.1-0.1-0.3-0.3-0.4-0.4c-0.2-0.2-0.5-0.5-0.7-0.7
			c-0.5-0.4-0.9-0.8-1.4-1.2C154.1,295.3,153.4,295.2,153.2,295.2"/>
		<polyline fill="#FFF5E1" points="156.8,299.2 156.7,299.2 156.8,299.2 		"/>
		<path fill="#FFF5E1" d="M143.1,287.7c-13.4,0-24.2,10.8-24.2,24.2c0,7.1,3.1,13.5,8,17.9c-4.5-4.3-7.3-10.3-7.3-17
			c0-13,10.5-23.5,23.5-23.5c13,0,23.5,10.5,23.5,23.5c0,6.7-2.8,12.7-7.3,17c4.9-4.4,8-10.8,8-17.9
			C167.3,298.6,156.4,287.7,143.1,287.7"/>
		<path fill="#FFF5E1" d="M162.8,312.5c-0.3-0.7-0.9-1.6-1.5-2.1c-0.1-0.1-0.7-0.6-0.9-0.4c-0.2,0.2,0.2,0.7,0.3,0.8
			c0.4,0.5,0.8,1,1.1,1.7c0.3,0.7,0.3,1.4,0.2,2.1c-0.8-1.5-1.9-2.9-2.9-4.3c-1.1-1.4-2.3-2.8-3.6-3.9c-0.7-0.6-1.4-1.4-2.4-1.7
			c0.7,0.8,1.5,1.5,2.3,2.3c0.8,0.8,1.5,1.7,2.2,2.6c1.4,1.8,2.9,3.7,3.7,5.7c0.4,1,0.2,1.6-0.4,2.4c-0.2-0.2-0.3-0.5-0.4-0.7
			c-4-8.6-9.6-14-14.8-15.4c-1-0.3-0.8-0.6,0.3-0.5c6.1,0.1,11.8,2.5,16,6c0,0,0,0.1,0.1,0c0.1-0.2-0.9-2.5-1-2.8
			c-1.6-1.2-6.6-3.7-13.5-3.7c-1.2,0-1.3-0.4-1-0.8c0.1-0.1,0.8,0.3,0.6,0c-0.1-0.3-0.5-0.3-0.7-0.5c0.1,0,0.5-0.1,0.3-0.2
			c-0.1-0.1-0.2-0.1-0.3-0.2c-0.1,0-0.3,0-0.4-0.1c0.1-0.1,0.7-0.2,0.3-0.4c-0.1-0.1-0.3,0-0.4-0.1c-0.1-0.1-0.3,0.1-0.4,0.1
			c-0.1-0.2-0.2-0.3-0.4-0.3c0.1-0.1,0.3,0,0.4-0.1c0,0,0.1-0.1,0.1-0.1c0.1-0.1,0.2,0,0.2-0.1c0.1-0.1-0.1-0.2-0.2-0.2
			c-0.2,0-0.3,0-0.5,0.1c0.1-0.4-0.4-0.2-0.6,0c0-0.2,0-0.4,0.2-0.4c0.2,0,0.3,0.1,0.5,0.1c0.1,0,0.1-0.1,0.2-0.1c0.1,0,0.2,0,0.3,0
			c0.2-0.1-0.1-0.2,0-0.3c0.1,0,0.3,0.1,0.4,0.1c0.1,0,0.2,0.1,0.3,0c0.2-0.1-0.2-0.5-0.3-0.6c0.1,0,0.2-0.1,0.1-0.2
			c-0.1-0.1,0.2,0,0.3,0c0.4,0.1,0.3-0.3,0.1-0.4c0.2-0.2,0-0.3-0.2-0.4c0.1-0.1,0.1-0.3,0.3-0.3c0.2,0,0.1-0.3,0-0.3
			c-0.1,0-0.2,0-0.3,0c-0.1,0-0.1-0.1-0.2-0.1c0,0,0,0,0,0c0-0.1,0-0.1,0-0.2c0.1,0,0.1,0,0.2-0.1c0.1,0,0.1-0.2,0-0.3
			c-0.2,0-0.3,0-0.5,0c0.1-0.1,0.4-0.4,0.3-0.5c-0.2-0.2-0.5,0.2-0.6,0.1c0-0.1,0.1-0.2,0.1-0.3c0-0.1-0.2-0.1-0.3,0
			c-0.1,0.1-0.2,0.3-0.2,0.4c0,0.1,0,0.2-0.1,0.3c-0.1-0.1-0.1-0.2-0.1-0.4c0-0.1,0.1-0.2,0.1-0.2c0.2-0.3-0.3-0.2-0.4-0.1
			c0-0.1,0-0.2,0-0.4c0-0.2-0.2,0-0.3,0.1c-0.1,0.1-0.1-0.2-0.1-0.2c0-0.2-0.2-0.1-0.2-0.3c0-0.1,0.1-0.2,0-0.2
			c-0.5,0-2.4-0.1-2.4,0c0.1,0,0.2,0,0.3,0c0.1,0,0.1,0.2,0.1,0.2c-0.1,0.1-0.3,0.1-0.4,0.2c0,0-0.1,0.1-0.1,0.1
			c0.1,0,0.2,0.1,0.3,0.1c0.1,0,0.4,0,0.4,0c0,0,0,0.1-0.1,0.1c-0.1,0.1-0.1,0.2-0.1,0.2c-0.1,0.3,0.2,0.1,0.4,0
			c0.1-0.1,0.2-0.1,0.4-0.1c0.1,0,0.4,0,0.5,0.1c-0.1,0.1-0.5,0.3-0.6,0.4c-0.1,0.1,0.7,0.1,0.8,0.1l-0.4,1c0.1,0,0.3-0.1,0.4-0.2
			c0,0,0,0.1-0.1,0.1c-0.1,0.1-0.2,0.3-0.3,0.4c0-0.1,0-0.1-0.1-0.1c-0.1-0.1-0.4,0-0.6,0c0-0.2,0.2-0.4,0.3-0.6
			c0.2-0.3-0.1-0.2-0.3-0.1c-0.2,0.1-0.4,0.2-0.5,0.3c-0.2,0.1-0.2,0.3-0.4,0.5c0-0.2,0.1-0.4,0.1-0.7c0-0.2-0.1-0.2,0.1-0.3
			c0.1,0,0.1-0.1,0.2-0.1c0,0,0,0,0,0c0.1,0,0-0.1,0-0.1c0-0.2-0.2-0.2-0.3-0.2c0,0,0,0,0,0l-0.2,0.1c-0.3,0.1-0.5,0.3-0.6,0.2
			c0.1-0.1,0.5-0.7,0.4-0.9c-0.1-0.2-0.3,0-0.3,0s-0.1,0-0.1,0.1c-0.3,0.1-0.3,0-0.6-0.1c-0.1-0.1-0.2-0.1-0.3-0.1
			c-0.2-0.1,0.1-0.1,0.1-0.3c0-0.1-0.3-0.1-0.5-0.2c-0.2,0-0.1-0.1,0.1-0.1c0,0,0.1,0,0.1,0c-0.2,0-0.5,0-0.7,0.1
			c-0.7,0.1-1.5,0.3-2.2,0.5c-0.4,0.1-1.2,0.2-1.5,0.5c-0.1,0.1-0.1,0.2,0,0.1c0.2,0,0.1,0.1,0.2,0.2c0.1,0.1,0.3-0.2,0.4-0.3
			c0.2-0.1,0.4-0.2,0.6-0.2c0.4,0,0.1,0.3,0.1,0.5c0,0.1,0.4-0.1,0.5-0.1c0.2,0,0.5,0,0.7,0.1c0,0.1-0.2,0.2-0.1,0.3
			c0.1,0,0.2-0.1,0.3-0.1c0.3,0,0.6,0.1,0.7,0.3c0.1,0.1,0.1,0.2-0.1,0.2c-0.1,0-0.2,0-0.2,0.2c0,0.1,0.2,0.2,0.2,0.2
			c0.1,0.1,0.2,0.3,0.3,0.4c0.1,0.1,0,0.2-0.1,0.2c-0.1,0-0.2-0.1-0.2-0.1c-0.1,0-0.1,0-0.2,0.1c0,0-0.8-0.2-0.7,0
			c0.1,0.1,0.2,0.1,0.3,0.2c0.1,0,0.1,0.1,0.1,0.1c0.1,0.1,0,0.1-0.1,0.2c-0.2,0.1-0.5,0.1-0.6,0.3c0.1,0,0.2,0.1,0.3,0
			c0.1,0,0,0.2-0.1,0.2c-0.1,0.2,0,0.4,0.1,0.1c0.1-0.2,0.3-0.3,0.5-0.3c0.1,0,0,0.1,0,0.2c0,0.1,0.1,0.2,0.1,0.1
			c0.1-0.2,0.2-0.3,0.4-0.4c0.1,0,0.2-0.1,0.2,0.1c0,0.2,0.1,0.1,0.2,0c0.2-0.1,0.5-0.1,0.7-0.1c0.4,0,0.1,0.2,0,0.3
			c0.3,0,0.5,0.1,0.7,0.2c0.2,0.1-0.4,0.1-0.1,0.3c0.1,0,0.4,0.4,0.3,0.5c-0.1,0-0.2-0.1-0.3-0.1c-0.1,0-0.2,0-0.3,0.1
			c0.1,0.1,0.2,0.1,0.3,0.2c0.1,0,0.1,0.1,0.2,0.1c0.1,0,0.2,0,0.2,0c0.1,0,0.3,0.1,0.2,0.2c-0.1,0-0.2,0-0.3,0.1
			c0.1,0.1,0.2,0.1,0.3,0.2c0.1,0,0.1,0.1,0.2,0.1c0.1,0.1,0,0.1,0,0.2c-0.2,0-0.3-0.1-0.5-0.1c-0.1,0-0.2,0-0.2,0
			c-0.1,0-0.1,0.1,0,0.2c0,0.1,0.2,0.3,0.1,0.4c-0.1,0-0.3-0.2-0.4-0.2c-0.1,0-0.3,0-0.4,0.1c-0.1,0.1-0.1,0.1,0,0.1
			c0.1,0,0.2,0,0.3,0.1c0,0.2,0.2,0.1,0.3,0.2c0.1,0,0.6,0.2,0.4,0.3c-0.1,0-0.1,0-0.2,0.1c0,0.1,0.1,0.2,0.2,0.3
			c0.1,0.1,0.1,0.2,0.2,0.3c0.1,0.2-0.1,0.2-0.2,0.2c-0.1,0-0.2,0-0.4,0c-0.1,0-0.1,0.1-0.2,0.1c-0.2,0.2-0.5,0.1-0.7,0
			c-0.2,0-0.2,0-0.2,0.2c0,0.1-0.6,0.3-0.6,0.4c1.4-0.2,3-0.2,4.4,0.1c2.2,0.5,4.2,1.4,5.9,2.9c0.5,0.4,0.9,0.8,1.4,1.3
			c1.1,1.1,2.2,2.3,3.2,3.6c1,1.3,1.8,2.7,2.5,4.1c1,1.8,1.8,3.6,2.3,5.6c0.2,0.6,0.3,1.1,0.4,1.7c0.1,0.5,0.2,1.1,0.3,1.6
			c0,0.1,0,0.3,0.1,0.4c0,0,0.1,0.3,0.1,0.3c0.5-0.7,0.8-1.4,1.2-2.1c0.2-0.4,0.4-0.8,0.5-1.2c0.2-0.4,0.3-0.8,0.4-1.2
			c0.4-1.2,0.6-2.4,0.8-3.6C162.8,314,163.1,313.1,162.8,312.5 M161.8,317.3C161.8,317.3,161.8,317.3,161.8,317.3L161.8,317.3
			C161.8,317.3,161.8,317.3,161.8,317.3L161.8,317.3z"/>
		<rect x="28" y="200.9" fill="none" width="230.4" height="161.9"/>
	</g>
</g>
</svg>
