<?xml version="1.0" encoding="utf-8"?>
<!-- Generator: Adobe Illustrator 19.1.1, SVG Export Plug-In . SVG Version: 6.00 Build 0)  -->
<svg version="1.1" xmlns="http://www.w3.org/2000/svg" xmlns:xlink="http://www.w3.org/1999/xlink" x="0px" y="0px"
	 viewBox="0 0 283 396" enable-background="new 0 0 283 396" xml:space="preserve">
<g id="bombki">
	<g id="wyborowa01">
	</g>
	<g id="jacobs_x5F_creek">
	</g>
	<path fill="none" stroke="#FF901F" stroke-width="5" stroke-miterlimit="10" d="M156.2,26.6c1.2-2,2-4.8,2-7.6
		c0-9.2-7.4-16.5-16.6-16.5c-9.2,0-16.6,7.3-16.6,16.5c0,2.8,0.7,5.7,2,7.7H156.2z"/>
	<g>
		<path fill="#D97907" d="M141.5,5.4c7.5,0,13.6,6.1,13.6,13.6c0,1.7-0.3,3.3-0.9,4.8H138h-9.2c-0.6-1.5-0.9-3.1-0.9-4.8
			C127.9,11.5,134,5.4,141.5,5.4 M141.5,2.4c-9.2,0-16.6,7.4-16.6,16.6c0,2.8,0.7,5.5,2,7.8H138h18.2c1.2-2.3,2-5,2-7.8
			C158.1,9.8,150.7,2.4,141.5,2.4L141.5,2.4z"/>
	</g>
	<linearGradient id="SVGID_1_" gradientUnits="userSpaceOnUse" x1="7.421249e-005" y1="248.7734" x2="281.4178" y2="248.7734">
		<stop  offset="0" style="stop-color:#050E3B"/>
		<stop  offset="0.3445" style="stop-color:#03042C"/>
		<stop  offset="0.7773" style="stop-color:#050E3B"/>
		<stop  offset="0.9916" style="stop-color:#061545"/>
	</linearGradient>
	<path fill="url(#SVGID_1_)" d="M162.6,101.4v5.2c0,6.2,10.9,11.6,16.8,13.3c59.4,16.9,102,71.1,102,135.4
		c0,77.8-62.9,140.8-140.7,140.8C62.9,396.1,0.1,333.3,0,255.5c-0.1-64.6,43.3-119.1,102.8-135.8c6-1.7,14.4-7.1,14.4-13.3v-4.9
		L162.6,101.4z"/>
	<linearGradient id="SVGID_2_" gradientUnits="userSpaceOnUse" x1="1.5823" y1="248.7734" x2="283" y2="248.7734">
		<stop  offset="0" style="stop-color:#050E3B"/>
		<stop  offset="0.3445" style="stop-color:#03042C"/>
		<stop  offset="0.7773" style="stop-color:#050E3B"/>
		<stop  offset="0.9916" style="stop-color:#061545"/>
	</linearGradient>
	<path fill="url(#SVGID_2_)" d="M166.8,101.4l0.4,5.2c0,6.2,7.9,11.6,13.8,13.3c59.4,16.9,102,71.1,102,135.4
		c0,77.8-62.9,140.8-140.7,140.8c-77.8,0-140.6-62.8-140.7-140.6c-0.1-64.6,43.3-119.1,102.8-135.8c6-1.7,12.3-7.1,12.3-13.3v-4.9
		L166.8,101.4z"/>
	<path opacity="0.1" fill="#FFFFFF" d="M139.5,147.7c-16.2,0-31-7.9-40.1-21c1.3-0.4,2.7-0.7,4-1.2c19.1-7.6,18.3-15.7,18.7-24.1
		l36.3-0.1c0.3,8.7-0.6,17.6,18.2,24.3c1,0.3,2,0.6,3,0.9C170.7,139.8,155.8,147.7,139.5,147.7z"/>
	<linearGradient id="SVGID_3_" gradientUnits="userSpaceOnUse" x1="19.3305" y1="261.0967" x2="260.4118" y2="261.0967">
		<stop  offset="0" style="stop-color:#050E3B"/>
		<stop  offset="0.3445" style="stop-color:#03042C"/>
		<stop  offset="0.7773" style="stop-color:#050E3B"/>
		<stop  offset="0.9916" style="stop-color:#061545"/>
	</linearGradient>
	<path fill="url(#SVGID_3_)" d="M235.8,184c-15.7-21.2-39.1-33.7-62.8-44.1c-1.2-0.5-2.4-1.1-3.5-1.7c-8.2,6.1-18.3,9.6-29,9.6
		c-10.7,0-20.8-3.5-29.1-9.6c-1.2,0.6-2.6,1.1-4,1.6c-51.4,16.8-88.2,64.4-88.1,120c0,33.3,12.6,64.5,35.3,88
		c22.7,23.4,53,36.3,85.2,36.3c66.5,0,120.6-55.9,120.6-124.5C260.4,231.9,251.9,205.7,235.8,184z"/>
	<path opacity="0.1" fill="#FFFFFF" d="M157,101.4c0,0-1.7,20.9,15.1,34c-4.9,4.7-9.8,6.8-9.8,6.8s-13.8-9.5-12.8-40.8
		C157.4,101.4,157,101.4,157,101.4z"/>
	<g>
		<path fill="#1E2752" d="M167.2,103.9c0,0-2.2-38.1-2.2-39.2s1.8-2,1.6-8.4s-1.1-21.4-1.6-25.8c-0.5-4.4-9-10.1-23.6-10.1
			c0,4.2,0,4.2,0,83.6H167.2z"/>
		<path fill="#31416D" d="M141.5,20.4c0,0.7,0,2.7,0,4c9.8,0,18.3,3.1,23.6,6.9c0-0.3-0.1-0.5-0.1-0.7
			C164.5,26.1,156,20.4,141.5,20.4z"/>
		<path fill="#060823" d="M166.5,59.5c-6.8-3.6-17.9-5.8-25.1-5.8c0,1.7,0,3.4,0,5c9.6,0,18.9,3,23.7,5.5
			C165.4,63.5,166.2,62.4,166.5,59.5z"/>
		<path fill="#82784B" d="M141.5,93.7h25.2c-0.1-1.8-0.2-3.7-0.3-5.7h-24.9C141.5,90.1,141.5,92,141.5,93.7z"/>
		<path opacity="0.2" d="M166.6,56.3c-0.2-6.4-1.1-21.4-1.6-25.8c-0.4-3.3-5.3-7.3-13.8-9.1l5.4,5.6v28.9l-0.7,4.9v43.2h11.3
			c0,0-2.2-38.1-2.2-39.2S166.8,62.7,166.6,56.3z"/>
		<path opacity="0.1" fill="#FFFFFF" d="M156.7,55.9V26.9l-5.4-5.6l0,0c-0.9-0.2-1.9-0.4-3-0.5L149,25v29.3l-0.4,4.7v45h7.4V60.8
			L156.7,55.9z"/>
		<path fill="#1E2752" d="M116.5,103.9c0,0,2.2-38.1,2.2-39.2s-1.8-2-1.6-8.4c0.2-6.4,1.1-21.4,1.6-25.8c0.5-4.4,9-10.1,23.6-10.1
			c0,4.2,0,4.2,0,83.6H116.5z"/>
		<path fill="#31416D" d="M142.3,20.4c0,0.7,0,2.7,0,4c-9.8,0-18.3,3.1-23.6,6.9c0-0.3,0.1-0.5,0.1-0.7
			C119.3,26.1,127.8,20.4,142.3,20.4z"/>
		<path fill="#060823" d="M117.2,59.5c6.8-3.6,17.9-5.8,25.1-5.8c0,1.7,0,3.4,0,5c-9.6,0-18.9,3-23.7,5.5
			C118.4,63.5,117.5,62.4,117.2,59.5z"/>
		<path fill="#82784B" d="M142.3,93.7h-25.2c0.1-1.8,0.2-3.7,0.3-5.7h24.9C142.3,90.1,142.3,92,142.3,93.7z"/>
		<path opacity="0.2" d="M117.2,56.3c0.2-6.4,1.1-21.4,1.6-25.8c0.4-3.3,5.3-7.3,13.8-9.1l-5.4,5.6v28.9l0.7,4.9v43.2h-11.3
			c0,0,2.2-38.1,2.2-39.2S117,62.7,117.2,56.3z"/>
		<path opacity="0.1" fill="#FFFFFF" d="M127.1,55.9V26.9l5.4-5.6l0,0c0.9-0.2,1.9-0.4,3-0.5l-0.7,4.1v29.3l0.4,4.7v45h-7.4V60.8
			L127.1,55.9z"/>
	</g>
	<linearGradient id="SVGID_4_" gradientUnits="userSpaceOnUse" x1="157.9625" y1="264.2327" x2="281.4177" y2="264.2327">
		<stop  offset="0" style="stop-color:#050E3B"/>
		<stop  offset="0.3445" style="stop-color:#03042C"/>
		<stop  offset="0.7773" style="stop-color:#050E3B"/>
		<stop  offset="0.9916" style="stop-color:#061545"/>
	</linearGradient>
	<path fill="url(#SVGID_4_)" d="M281.4,255.3c0-52-27.9-97.4-69.9-121.8c21.5,28.8,34.6,67,34.6,108.8c0,70-36.8,129.9-88.1,152.5
		c0.4,0.1,0.7,0.1,1.1,0.1C228.2,385.9,281.4,326.9,281.4,255.3z"/>
	<linearGradient id="SVGID_5_" gradientUnits="userSpaceOnUse" x1="0.1192" y1="262.207" x2="128.4681" y2="262.207">
		<stop  offset="0" style="stop-color:#050E3B"/>
		<stop  offset="0.3445" style="stop-color:#03042C"/>
		<stop  offset="0.7773" style="stop-color:#050E3B"/>
		<stop  offset="0.9916" style="stop-color:#061545"/>
	</linearGradient>
	<path fill="url(#SVGID_5_)" d="M40.3,242.3c0-44,14.5-83.9,38-113.1c-44.8,22.2-76,67.5-78.2,120.3c0.5,17,2.8,33.6,6.8,49.6
		c16.8,51.6,62.4,90,117.9,96.2c1.2-0.1,2.4-0.3,3.6-0.4C77.1,372.1,40.3,312.3,40.3,242.3z"/>
	<g opacity="0.1">
		<path opacity="0.7" fill="#FFFFFF" d="M204.4,129.7c13.9,9.6,26.1,22.3,35.9,37.3c16.7,25.7,25.6,56.6,25.6,89.2
			c0,49.5-20.9,93.3-52.9,119.9c41-24.6,68.4-69.5,68.4-120.9C281.4,200.5,250.4,152.9,204.4,129.7z"/>
		<path opacity="0.7" fill="#FFFFFF" d="M52.2,360.3c-23.6-27.7-36.6-64.6-36.7-103.9c0-32.7,8.9-63.7,25.9-89.6
			c9.8-15,22.1-27.6,35.8-37.1C31.3,153-0.1,200.6,0,255.5c0.1,51.1,27.2,95.8,67.8,120.4C62.3,371.2,57.1,366,52.2,360.3z"/>
	</g>
</g>
<g id="BRAND">
	<g id="New_Symbol_13">
	</g>
	<g>
		<g>
			<path fill="#E7CB99" d="M146,296.2c0,0.5,0,0.9,0,1.4c0,0.1,0,0.3,0,0.4c0.1,0.4,0.2,0.4,0.5,0.5c0.1,0,0.2,0,0.2,0
				c0.1,0,0.1,0.1,0.1,0.2c0,0.1-0.1,0.1-0.2,0.1c-0.1,0-0.1,0-0.2,0c-0.6-0.1-1.2,0-1.9,0c-0.1,0-0.3,0-0.3-0.1
				c0-0.2,0.2-0.2,0.3-0.2c0.5,0,0.6-0.2,0.6-0.6c0-0.3,0-0.6,0-0.9c0-0.9,0-1.8,0-2.7c0-0.5-0.2-0.6-0.7-0.7c-0.1,0-0.2,0-0.3,0
				c-0.1,0-0.1-0.1-0.1-0.2c0-0.1,0.1-0.2,0.2-0.2c0.1,0,0.2,0,0.3,0c0.5,0,1,0,1.5,0c0.3,0,0.5,0.1,0.8,0.3
				c1.1,1.2,2.3,2.3,3.5,3.4c0.1,0.1,0.1,0.2,0.3,0.2c0.1-0.1,0.1-0.2,0.1-0.3c0-0.9,0-1.7,0-2.6c0-0.5-0.1-0.5-0.5-0.6
				c-0.1,0-0.1,0-0.2,0c-0.1,0-0.2-0.1-0.2-0.2c0-0.1,0.1-0.1,0.2-0.2c0.1,0,0.2,0,0.3,0c0.6,0,1.1,0,1.7,0c0.1,0,0.1,0,0.2,0
				c0.1,0,0.1,0.1,0.1,0.1c0,0.1,0,0.1-0.1,0.2c-0.1,0-0.2,0-0.3,0c-0.3,0-0.4,0.1-0.5,0.5c0,0.1,0,0.2,0,0.4c0,1.4,0,2.8,0,4.1
				c0,0.1,0.1,0.3-0.1,0.4c-0.2,0.1-0.4,0.1-0.6-0.1c-0.1,0-0.1-0.1-0.2-0.1c-1.2-1.1-2.3-2.3-3.5-3.4c-0.3-0.3-0.5-0.5-0.8-0.8
				c0,0-0.1-0.1-0.2-0.1c-0.1,0-0.1,0.1-0.1,0.2C146,295.2,146,295.7,146,296.2L146,296.2z"/>
			<path fill="#E7CB99" d="M122.1,298.9c-0.9,0-1.6-0.1-2.4-0.6c-1.8-1.1-1.7-3.4-0.1-4.6c1-0.7,2.2-0.8,3.4-0.7
				c0.7,0.1,1.3,0.3,1.9,0.7c0.9,0.6,1.4,1.6,1.1,2.7c-0.2,1-0.9,1.6-1.8,2C123.5,298.8,122.8,299,122.1,298.9z M122.5,298.5
				c0.8,0,1.6-0.3,2-1.2c0.3-0.5,0.3-1.1,0.2-1.7c-0.2-1-0.6-1.8-1.7-2.1c-0.6-0.2-1.2-0.2-1.8,0c-0.6,0.2-1.1,0.6-1.3,1.3
				c-0.2,1-0.1,1.9,0.5,2.7C120.9,298.2,121.6,298.5,122.5,298.5z"/>
			<path fill="#E7CB99" d="M137.4,296.3c0.4,0,0.8,0,1.2,0c0.1,0,0.2,0,0.2,0c0.1,0,0.1,0.1,0.1,0.2c0,0.1,0,0.1-0.1,0.2
				c0,0-0.1,0-0.1,0c-0.4,0.1-0.5,0.2-0.5,0.6c0,0.3,0,0.7,0,1c0,0.2-0.1,0.3-0.2,0.4c-0.4,0.1-0.8,0.2-1.2,0.3
				c-1.2,0.2-2.4,0.1-3.5-0.3c-0.6-0.3-1.1-0.6-1.4-1.3c-0.6-1.1-0.3-2.6,1.1-3.5c1.1-0.7,2.3-0.8,3.5-0.7c0.5,0.1,0.9,0.2,1.4,0.3
				c0.2,0.1,0.3,0.2,0.3,0.4c0,0.2,0,0.4,0.1,0.6c0,0.1,0,0.2-0.1,0.3c-0.1,0-0.2,0-0.3-0.1c-0.1-0.1-0.1-0.2-0.2-0.2
				c-0.3-0.5-0.8-0.8-1.3-0.8c-0.8-0.1-1.6-0.1-2.3,0.4c-0.2,0.2-0.4,0.3-0.5,0.6c-0.8,1.5-0.4,3.1,1.1,3.8c0.6,0.3,1.2,0.3,1.9,0.1
				c0.6-0.2,0.8-1,0.6-1.5c-0.1-0.2-0.2-0.2-0.4-0.3c-0.2,0-0.3,0-0.5,0c-0.1,0-0.3,0-0.3-0.2c0-0.2,0.2-0.2,0.3-0.2
				C136.6,296.3,137,296.3,137.4,296.3L137.4,296.3z"/>
			<path fill="#E7CB99" d="M174,298.9c-0.8,0-1.6-0.1-2.3-0.4c-0.6-0.2-1-0.6-1.4-1.1c-0.7-1-0.7-2.5,0.6-3.5c1.1-0.8,2.4-1,3.7-0.9
				c0.4,0.1,0.9,0.2,1.3,0.3c0.2,0.1,0.3,0.2,0.3,0.4c0,0.2,0.1,0.4,0.1,0.7c0,0.1,0,0.2-0.1,0.3c-0.1,0.1-0.2,0-0.3-0.1
				c-0.1-0.1-0.1-0.2-0.2-0.3c-0.4-0.5-0.8-0.8-1.5-0.8c-0.6,0-1.3,0.1-1.8,0.4c-1.2,0.8-1.5,2.7-0.3,3.9c0.8,0.8,1.8,0.9,2.9,0.6
				c0.4-0.1,0.7-0.4,0.9-0.8c0.1-0.1,0.1-0.2,0.1-0.2c0.1-0.1,0.2-0.1,0.4-0.1c0.1,0.1,0.1,0.2,0.1,0.3c-0.1,0.3-0.1,0.5-0.2,0.8
				c-0.1,0.2-0.2,0.3-0.4,0.3C175.3,298.9,174.6,299,174,298.9z"/>
			<path fill="#E7CB99" d="M110.2,298.9c-0.8,0-1.6-0.1-2.3-0.4c-0.9-0.4-1.5-1-1.7-2c-0.2-0.9,0-1.7,0.7-2.3c0.7-0.6,1.5-1,2.5-1.1
				c0.9-0.1,1.9,0,2.8,0.3c0.2,0.1,0.4,0.2,0.4,0.5c0,0.2,0.1,0.4,0.1,0.6c0,0.1,0,0.2-0.1,0.3c-0.1,0-0.2,0-0.3-0.1
				c-0.1-0.1-0.1-0.2-0.2-0.3c-0.4-0.6-1.1-0.9-1.8-0.9c-1.1,0.1-1.9,0.5-2.3,1.5c-0.6,1.4,0.3,3,1.7,3.4c0.4,0.1,0.8,0.1,1.2,0.1
				c0.7,0,1.1-0.4,1.5-0.9c0.1-0.1,0.1-0.2,0.1-0.2c0.1-0.1,0.2-0.1,0.4,0c0.1,0.1,0.1,0.2,0.1,0.3c0,0.1-0.1,0.3-0.1,0.4
				c0,0.5-0.4,0.6-0.8,0.7C111.3,298.9,110.8,299,110.2,298.9z"/>
			<path fill="#E7CB99" d="M163.1,298.8c-0.4,0-0.8,0-1.2,0c-0.1,0-0.2,0-0.3-0.1c0-0.2,0.1-0.2,0.2-0.2c0.1,0,0.1,0,0.2,0
				c0.3-0.1,0.4-0.2,0.3-0.4c-0.2-0.4-0.4-0.8-0.6-1.2c-0.1-0.1-0.2-0.2-0.3-0.2c-0.5,0-1,0-1.5,0c-0.2,0-0.3,0.1-0.3,0.2
				c-0.1,0.4-0.3,0.7-0.4,1.1c-0.1,0.3,0,0.5,0.3,0.5c0.1,0,0.2,0,0.2,0c0.1,0,0.2,0.1,0.2,0.2c0,0.1-0.1,0.1-0.2,0.1
				c-0.1,0-0.3,0-0.4,0c-0.5,0-0.9,0-1.4,0c-0.1,0-0.2,0-0.2,0c-0.1,0-0.2,0-0.2-0.1c0-0.1,0.1-0.2,0.1-0.2c0.6,0,0.8-0.4,1-0.9
				c0.6-1.3,1.1-2.5,1.6-3.8c0.2-0.4,0.5-0.6,0.9-0.8c0.1,0,0.2,0,0.2,0.1c0.1,0.1,0.1,0.2,0.1,0.3c0.7,1.5,1.5,3,2.2,4.6
				c0.1,0.3,0.3,0.5,0.7,0.6c0,0,0.1,0,0.1,0c0.1,0,0.1,0.1,0.1,0.2c0,0.1-0.1,0.1-0.1,0.1c-0.1,0-0.2,0-0.2,0
				C163.8,298.8,163.4,298.8,163.1,298.8L163.1,298.8z M160.6,296.2L160.6,296.2c0.2,0,0.4,0,0.6,0c0.1,0,0.2-0.1,0.1-0.2
				c-0.2-0.5-0.5-0.9-0.7-1.4c0-0.1-0.1-0.1-0.2,0c-0.2,0.4-0.4,0.9-0.5,1.3c-0.1,0.2,0,0.2,0.2,0.2
				C160.2,296.2,160.4,296.2,160.6,296.2z"/>
		</g>
		<linearGradient id="SVGID_6_" gradientUnits="userSpaceOnUse" x1="125.409" y1="232.5381" x2="160.9214" y2="247.7577">
			<stop  offset="0" style="stop-color:#E8C88D"/>
			<stop  offset="0.3445" style="stop-color:#D2AF5F"/>
			<stop  offset="0.7773" style="stop-color:#E8CB8A"/>
			<stop  offset="0.9958" style="stop-color:#C1A453"/>
		</linearGradient>
		<path fill="url(#SVGID_6_)" d="M163.7,237.5c-0.3,0-0.5-0.1-0.6-0.3c-0.4-0.7-1.1-1.1-1.8-1.3c-1-0.2-1.9-0.1-2.9,0.1
			c-0.4,0.1-0.9,0.2-1.3,0.3c0,0-0.1-0.1-0.1-0.1c0.2-0.4,0.4-0.7,0.4-1.1c0.1-0.8-0.3-1.4-0.8-1.9c-0.5-0.5-1.1-0.8-1.7-1
			c-1.4-0.5-2.8-0.7-4.3-0.7c-3.6-0.1-7.1,0.1-10.6,0.6c-2,0.3-4,0.6-5.9,1c-0.6,0.1-1.2,0.2-1.8,0.4c0.2,0.1,0.5,0,0.7,0
			c-0.2,0-0.5,0.1-0.7,0c-0.1,0-0.1,0-0.2,0c-0.4,0.1-0.9,0.1-1.3,0.3c0,0,0.1,0,0.1,0.1c0,0-0.1,0-0.1-0.1c-0.1,0-0.2,0-0.3,0
			c-0.3,0-0.6,0.1-0.8,0.2c-0.1,0-0.1,0-0.2,0c-0.3,0-0.6,0.1-0.9,0.1c0.1,0,0.1,0,0.2,0c0,0,0,0.1,0.1,0.1c0,0-0.1-0.1-0.1-0.1
			c-0.1,0-0.1,0-0.2,0l0,0c-0.1,0-0.2,0-0.3,0c-0.1,0-0.2,0-0.2,0c-0.1,0-0.2,0-0.3,0.1c-0.1,0-0.2,0-0.2,0c-0.2,0-0.4,0-0.6,0.1
			c-0.1,0-0.1,0-0.1,0c-0.1,0-0.3,0-0.4,0.1c-0.1,0-0.2,0-0.3,0c-0.1,0-0.3,0-0.4,0c-0.1,0-0.2,0-0.3,0c-0.8,0.1-1.6,0.2-2.4,0.2
			c-0.5,0-1,0.1-1.6,0c-0.3-0.1-0.6-0.1-1,0c0.3,0.4,0.7,0.6,1.1,0.8c0.8,0.3,1.7,0.5,2.6,0.5c0.9,0,1.9,0.1,2.8-0.1
			c0.5-0.1,1-0.1,1.4-0.1c0.8-0.1,1.6-0.2,2.4-0.4c0.2,0,0.3,0,0.3,0.2c0,0.6,0.3,0.9,0.8,1.1c0.3,0.1,0.6,0.1,0.8,0.2
			c0.8,0.1,1.5,0,2.3-0.1c0.4,0,0.8-0.1,1.2-0.2c0.2,0,0.4,0,0.6-0.2c0.1,0,0.1-0.1,0.2,0c0.1,0,0.1,0,0.2,0c0.1,0,0.1,0,0.2,0
			c0.2,0,0.4,0,0.6-0.1c0.1,0,0.2-0.1,0.2,0.1c-0.4,0.3-0.4,0.4-0.1,0.7c0.4,0.4,0.9,0.7,1.4,0.9c1.2,0.4,2.4,0.4,3.6,0.2
			c0.2,0,0.4,0,0.5-0.1c0.1-0.1,0.3-0.1,0.4-0.1c0.1,0.1,0,0.3,0,0.4c-0.1,0.5-0.1,1.1,0.3,1.5c0.4,0.4,0.8,0.6,1.4,0.7
			c0.2,0.1,0.4,0.1,0.7,0.2c-1.2,0.6-2.5,1-3.7,1.3c-3.7,1-7.3,1.2-11.1,0.2c0.4,0.3,0.9,0.4,1.4,0.5c0.6,0.2,1.2,0.3,1.8,0.4
			c0.4,0.1,0.8,0.2,1.1,0.5c0.6,0.4,0.6,0.6,0.4,1.2l0,0c-0.1,0-0.1,0-0.1,0.1c0,0,0,0,0,0c0,0,0,0,0,0c0,0-0.1,0.1-0.1,0.1
			c-0.2,0.1-0.3,0.1-0.4,0.2c-0.3,0.1-0.6,0.2-0.9,0.3c-0.7,0.1-1.3,0.3-2,0.4c-0.7,0.1-1.3,0.3-2,0.3c-0.3-0.1-0.6,0.1-0.9,0.1
			c-0.3,0-0.5,0-0.8,0.1c-0.3,0.1-0.6-0.1-0.9,0.1c0.6,0,1.2,0.1,1.7,0.1c1.5,0,2.9,0,4.4,0c0.2,0,0.5,0,0.7-0.1c0.1,0,0.2,0,0.3,0
			c0.1,0,0.1,0,0.2,0c0,0,0.1,0,0.1,0c0.4,0.1,0.7,0,1.1,0c0.9,0,1.7-0.1,2.6-0.2c0.7,0,1.4-0.1,2.1-0.2c1-0.1,1.9-0.2,2.9-0.4
			c1.4-0.3,2.8-0.5,4.2-0.9c1.6-0.4,3.1-0.8,4.7-1.4c0.8-0.3,1.6-0.6,2.4-0.9c1.3-0.5,2.6-1.1,3.8-1.8c1.6-0.8,3.1-1.8,4.5-2.9
			c0.2-0.1,0.4-0.2,0.4-0.5C164,237.5,163.8,237.5,163.7,237.5z M161.4,236.9c-0.2,0-0.3,0-0.5,0
			C161.1,236.9,161.2,236.9,161.4,236.9c0.1,0,0.2,0,0.2,0C161.5,236.9,161.5,236.9,161.4,236.9z M161.9,236.6c0.1,0,0.2,0,0.3,0.1
			C162.1,236.6,162,236.6,161.9,236.6L161.9,236.6L161.9,236.6z M161.6,236.4L161.6,236.4c0.1,0,0.2,0.1,0.2,0.1
			C161.8,236.5,161.7,236.4,161.6,236.4L161.6,236.4c-0.3-0.3-0.7-0.5-1.1-0.5C160.9,236,161.3,236.1,161.6,236.4z M135.9,233
			c0,0,0.1,0,0.1,0c0.1,0,0.1,0,0.2,0c-0.1,0-0.1,0-0.2,0C135.9,233,135.9,233,135.9,233z M131.5,233.8L131.5,233.8L131.5,233.8z
			 M151.5,231.8c0.4,0,0.8,0,1.2,0.1C152.3,231.8,151.9,231.8,151.5,231.8c-0.1,0-0.2,0-0.3,0C151.4,231.8,151.4,231.8,151.5,231.8z
			 M150.9,231.8c0.1-0.1,0.2-0.1,0.3,0C151.1,231.7,151,231.7,150.9,231.8c-0.2,0-0.5,0-0.7,0C150.5,231.8,150.7,231.8,150.9,231.8z
			 M150,231.6c0.1,0,0.2,0,0.2,0.1C150.1,231.6,150,231.6,150,231.6c-0.1,0-0.1,0-0.2,0C149.8,231.6,149.9,231.6,150,231.6z
			 M142.7,232c0.5-0.1,0.9-0.1,1.4-0.2C143.6,231.8,143.2,231.9,142.7,232c-0.1,0-0.2,0-0.3,0C142.6,232,142.7,232,142.7,232z
			 M141.2,232.2c0.2-0.2,0.4-0.2,0.7-0.2C141.7,232,141.4,232,141.2,232.2c-0.1,0-0.2,0-0.2,0C141.1,232.2,141.1,232.2,141.2,232.2z
			 M137.2,232.8c0.1-0.1,0.2-0.1,0.3-0.1C137.3,232.6,137.2,232.6,137.2,232.8c-0.1,0-0.1,0-0.2,0
			C137.1,232.8,137.1,232.8,137.2,232.8z M136.9,232.8c0,0,0.1-0.1,0.1,0C136.9,232.7,136.9,232.7,136.9,232.8c-0.1,0-0.1,0-0.2,0
			C136.7,232.8,136.8,232.8,136.9,232.8z M135.7,233c0.2-0.2,0.4-0.2,0.6-0.2C136.1,232.8,135.8,232.8,135.7,233
			C135.7,233,135.7,233,135.7,233C135.7,233,135.7,233,135.7,233c-0.1,0-0.1,0-0.2,0C135.6,233,135.6,233,135.7,233z M134.7,233.2
			c0.2-0.2,0.5-0.2,0.7-0.2C135.1,232.9,134.9,233,134.7,233.2c-0.1,0-0.2,0-0.3,0C134.5,233.2,134.6,233.2,134.7,233.2z
			 M134.2,233.2c0,0,0.1-0.1,0.1,0C134.3,233.1,134.2,233.1,134.2,233.2c-0.1,0-0.1,0-0.2,0C134.1,233.2,134.1,233.2,134.2,233.2z
			 M133.5,233.3c0.1-0.2,0.3-0.1,0.5-0.1C133.8,233.2,133.6,233.2,133.5,233.3c-0.1,0-0.2,0-0.3,0
			C133.2,233.4,133.3,233.3,133.5,233.3z M130.9,233.8C130.9,233.8,130.9,233.8,130.9,233.8C130.9,233.8,130.9,233.8,130.9,233.8z
			 M130.7,233.9C130.7,233.9,130.6,233.9,130.7,233.9C130.6,233.9,130.7,233.9,130.7,233.9z M130.3,233.9c0.1,0,0.1,0,0.2,0
			C130.4,233.9,130.4,233.9,130.3,233.9C130.3,233.9,130.2,233.9,130.3,233.9C130.2,233.9,130.3,233.9,130.3,233.9z M136.2,244.9
			C136.1,244.9,136.1,244.9,136.2,244.9C136.1,244.9,136.1,244.9,136.2,244.9z"/>
		<g>
			<path fill="#F2F3F4" d="M82.3,268c-0.1,0.1-0.1,0.2-0.1,0.3c0,2.3-0.1,4.7-0.1,7c0,1.2-0.1,2.4-0.1,3.6c0,0.3,0,0.7,0.1,1
				c0.1,0.7,0.4,0.9,1,1c0.1,0,0.3,0,0.5,0c0.2,0,0.3,0.1,0.3,0.3c0,0.2-0.1,0.4-0.2,0.4c-0.1,0-0.2,0.1-0.4,0c-0.7,0-1.4,0-2.1-0.1
				c-0.6,0-1.3,0-1.9,0.1c-0.1,0-0.2,0-0.4,0c-0.3,0-0.4-0.2-0.4-0.4c0-0.2,0.1-0.4,0.4-0.4c0.9,0,1.2-0.3,1.4-1.3
				c0.1-0.9,0.1-1.9,0.1-2.9c0-1.9,0.1-3.8,0.1-5.7c0-1.6,0.1-3.3,0.1-4.9c0-0.6,0-1.2,0.1-1.8c0.1-0.6-0.2-1-0.8-1.1
				c-0.2,0-0.4-0.1-0.6-0.1c-0.3,0-0.4-0.2-0.4-0.3c0-0.2,0.1-0.4,0.4-0.4c0.3-0.1,0.6-0.1,0.8,0c0.5,0.1,1,0,1.5,0c0.5,0,1,0,1.5,0
				c0.3,0,0.5,0.1,0.6,0.4c0.3,0.7,0.6,1.4,0.9,2.1c1.3,3,2.5,6.1,3.8,9.1c0.2,0.5,0.4,1,0.6,1.5c0.2,0,0.2-0.1,0.2-0.2
				c0.8-2,1.6-4,2.4-6c0.8-2.1,1.7-4.2,2.5-6.3c0.1-0.4,0.4-0.5,0.7-0.5c1.1,0,2.3,0,3.4,0c0.1,0,0.3,0,0.4,0c0.2,0,0.4,0.3,0.4,0.4
				c0,0.2-0.2,0.3-0.4,0.3c-0.3,0-0.5,0.1-0.8,0.1c-0.6,0.2-0.8,0.5-0.8,1.1c0,0.6,0,1.3,0,1.9c0,1.2,0.1,2.4,0.2,3.6
				c0,0.8,0,1.6,0.1,2.4c0.1,1.5,0.1,2.9,0.2,4.4c0,0.7,0,1.5,0.1,2.2c0.1,0.4,0.2,0.7,0.3,1c0.2,0.5,0.6,0.7,1.1,0.8
				c0.2,0,0.4,0.1,0.7,0.1c0.2,0,0.3,0.2,0.3,0.4c0,0.2-0.1,0.4-0.3,0.4c-0.1,0-0.2,0-0.4,0c-1.1,0-2.2,0-3.4-0.1c-1,0-1.9,0-2.9,0
				c-0.3,0-0.4-0.1-0.5-0.3c-0.1-0.3,0-0.5,0.3-0.6c0.1,0,0.2-0.1,0.4-0.1c0.5-0.2,0.7-0.5,0.7-1c-0.1-1.6-0.1-3.1-0.1-4.7
				c0-1.3-0.1-2.6-0.1-3.9c0-0.9,0-1.8-0.1-2.7c0-0.1,0-0.1-0.1-0.2c-0.1,0.1-0.1,0.2-0.2,0.4c-1,2.4-1.9,4.9-2.9,7.3
				c-0.7,1.7-1.3,3.5-2,5.2c-0.1,0.2-0.1,0.5-0.3,0.5c-0.2,0-0.3-0.3-0.4-0.4c-0.5-1.1-0.9-2.2-1.4-3.2c-1.3-3.2-2.6-6.5-4-9.7
				C82.4,268.2,82.4,268.1,82.3,268z"/>
			<path fill="#F2F3F4" d="M128.2,270.7c0,2.2,0,4.3,0,6.5c0,0.9,0,1.7,0.2,2.6c0,0.2,0.1,0.3,0.1,0.5c0.1,0.3,0.3,0.5,0.6,0.5
				c0.3,0.1,0.6,0.1,0.9,0.1c0.3,0,0.4,0.1,0.4,0.3c0,0.2-0.1,0.4-0.3,0.4c-0.2,0-0.5,0-0.7,0c-0.7,0-1.5,0-2.2,0
				c-1.3-0.1-2.5,0-3.8,0c-0.1,0-0.2,0-0.4,0c-0.3,0-0.4-0.2-0.4-0.4c0-0.2,0.2-0.3,0.4-0.4c0.1,0,0.2,0,0.3,0c0.6,0,1-0.4,1.1-0.9
				c0.1-0.2,0.1-0.5,0.2-0.8c0.1-1.4,0.1-2.8,0.1-4.1c0-2.9,0-5.7,0-8.6c0-0.7,0-1.5-0.1-2.2c-0.1-0.7-0.4-0.9-1-1.1
				c-0.2-0.1-0.5-0.1-0.7-0.1c-0.3,0-0.4-0.1-0.4-0.4c0-0.2,0.1-0.4,0.4-0.4c0.3,0,0.7,0,1,0c0.7,0,1.5,0,2.2,0
				c1.9,0.1,3.7-0.1,5.6-0.1c0.9,0,1.9,0.1,2.8,0.4c1.3,0.4,2,1.3,2.2,2.7c0.2,2.6-0.9,4.4-3,5.7c-0.3,0.2-0.6,0.3-0.8,0.4
				c-0.2,0.1-0.2,0.1-0.1,0.3c1.7,2.4,3.3,4.8,5,7.2c0.6,0.9,1.4,1.5,2.5,1.8c0.3,0.1,0.7,0.2,1.1,0.2c0.2,0,0.3,0.1,0.4,0.2
				c0.1,0.2,0,0.5-0.2,0.6c-0.2,0.1-0.5,0.1-0.7,0.1c-1.2,0.1-2.5,0-3.7-0.1c-0.9-0.1-1.7-0.5-2.3-1.3c-1-1.2-1.9-2.6-2.7-3.9
				c-0.9-1.4-1.7-2.8-2.6-4.2c-0.2-0.3-0.2-0.4,0.2-0.5c0.5-0.2,1.1-0.5,1.5-0.8c1.2-0.8,1.8-1.9,2-3.4c0.1-0.7,0.1-1.4-0.1-2.1
				c-0.3-1-1-1.6-2-1.8c-0.7-0.1-1.4-0.1-2.1-0.1c-0.5,0.1-0.5,0.1-0.5,0.6C128.2,266.4,128.2,268.6,128.2,270.7z"/>
			<path fill="#F2F3F4" d="M110.4,275.1c-0.8,0-1.6,0-2.4,0c-0.3,0-0.4,0-0.5,0.3c-0.5,1.3-1,2.7-1.4,4.1c-0.1,0.2-0.1,0.3-0.1,0.5
				c-0.1,0.5,0.2,0.9,0.7,1c0.2,0,0.4,0,0.5,0c0.3,0,0.4,0.2,0.4,0.4c0,0.2-0.1,0.4-0.4,0.4c-0.2,0-0.4,0-0.5,0
				c-1.5-0.1-3.1-0.1-4.6,0c-0.3,0-0.5,0-0.8,0c-0.3,0-0.4-0.2-0.4-0.4c-0.1-0.3,0.1-0.4,0.4-0.5c0.4,0,0.7,0,1.1-0.1
				c0.7-0.2,1.2-0.6,1.5-1.2c0.3-0.5,0.5-1.1,0.7-1.6c0.9-2.3,1.8-4.6,2.7-6.9c0.7-1.8,1.5-3.7,2.1-5.5c0.1-0.4,0.2-0.9,0.2-1.3
				c0-0.5-0.2-0.8-0.6-1c-0.1,0-0.2-0.1-0.3-0.1c-0.2-0.1-0.3-0.2-0.2-0.4c0-0.2,0.2-0.3,0.4-0.3c0.4,0,0.8,0,1.2,0
				c0.6,0,1.1,0,1.7,0c0.5,0,0.6,0.1,0.8,0.5c0.8,2,1.5,3.9,2.3,5.9c0.9,2.3,1.8,4.6,2.7,6.9c0.5,1.1,0.9,2.3,1.4,3.3
				c0.2,0.4,0.4,0.7,0.7,1.1c0.4,0.5,1,0.7,1.6,0.8c0.1,0,0.2,0,0.2,0c0.2,0,0.3,0.1,0.4,0.3c0,0.2-0.1,0.4-0.3,0.4
				c-0.2,0.1-0.4,0-0.5,0c-1.3-0.1-2.6-0.2-3.8-0.1c-0.8,0-1.6,0.1-2.4,0.1c-0.2,0-0.4,0-0.5-0.1c-0.2-0.1-0.3-0.2-0.3-0.3
				c0-0.2,0.1-0.3,0.3-0.3c0.1,0,0.3,0,0.4-0.1c0.5-0.1,0.6-0.4,0.4-0.8c-0.1-0.4-0.3-0.8-0.4-1.2c-0.4-1.1-0.8-2.1-1.2-3.2
				c0-0.1-0.1-0.1-0.1-0.2c-0.1-0.3-0.3-0.4-0.5-0.4C112.1,275.1,111.2,275.1,110.4,275.1z M110.6,267.2c-0.1,0-0.2,0.1-0.2,0.2
				c-0.7,2-1.4,3.9-2.1,5.9c-0.1,0.3-0.1,0.4,0.3,0.4c1.3,0,2.6,0,3.8,0c0.3,0,0.3,0,0.2-0.3c-0.4-1.2-0.8-2.4-1.2-3.6
				C111.1,268.9,110.8,268.1,110.6,267.2z"/>
			<path fill="#F2F3F4" d="M163.8,267.2c0,1,0,2,0,2.9c0,0.4,0.1,0.4,0.4,0.4c1.1-0.1,2.2,0,3.4-0.1c0.5,0,1-0.1,1.6-0.2
				c0.3-0.1,0.4,0,0.4,0.3c0,0.7-0.1,1.4-0.1,2.1c0,0.2,0,0.3-0.2,0.3c-0.2,0-0.3,0-0.4-0.2c-0.3-0.5-0.8-0.7-1.3-0.7
				c-1.1-0.1-2.3-0.1-3.4-0.1c-0.2,0-0.2,0.1-0.3,0.2c0,0.2,0,0.3,0,0.5c0,1.6,0,3.3,0,4.9c0,0.2,0,0.5,0.1,0.7
				c0.1,0.9,0.5,1.4,1.4,1.6c0.2,0,0.4,0.1,0.6,0.1c1.2,0.1,2.4,0.1,3.6-0.1c0.7-0.1,1.2-0.5,1.5-1.1c0.1-0.3,0.2-0.6,0.3-0.9
				c0-0.1,0.1-0.2,0.1-0.3c0.1-0.2,0.2-0.2,0.4-0.2c0.2,0,0.3,0.1,0.3,0.3c0,0.1,0,0.3,0,0.4c-0.1,0.9-0.3,1.9-0.5,2.8
				c-0.1,0.5-0.3,0.7-0.8,0.7c-1.4,0-2.8,0-4.3,0c-1,0-2,0-3.1-0.1c-0.4,0-0.8,0-1.2,0c-1,0-1.9,0-2.9,0.1c-0.2,0-0.4,0-0.6,0
				c-0.2,0-0.4-0.2-0.4-0.4c0-0.2,0.1-0.4,0.4-0.4c0.2,0,0.4,0,0.5,0c0.4-0.1,0.6-0.3,0.7-0.7c0.2-0.6,0.2-1.2,0.2-1.8
				c0.1-3.9,0.1-7.8,0.1-11.7c0-0.7,0-1.4,0-2.1c0-1.1-0.5-1.5-1.6-1.6c-0.1,0-0.2,0-0.3,0c-0.2,0-0.3-0.2-0.3-0.4
				c0-0.2,0.1-0.3,0.3-0.4c0.1,0,0.3,0,0.5,0c1.5,0,3.1,0.1,4.6,0.1c0.8,0,1.6,0,2.4,0c1.2-0.1,2.4,0,3.6-0.1c0.3,0,0.6-0.1,0.9-0.2
				c0.3-0.1,0.4,0,0.4,0.3c-0.1,1-0.2,2-0.3,3.1c0,0.1,0,0.3-0.1,0.4c0,0.2-0.2,0.3-0.3,0.3c-0.2,0-0.2-0.1-0.3-0.3
				c0-0.1,0-0.2,0-0.4c0-0.2,0-0.5-0.1-0.7c-0.1-0.3-0.3-0.6-0.7-0.7c-0.3-0.1-0.6-0.2-1-0.2c-0.5,0-1,0-1.5-0.1c-0.7,0-1.4,0-2,0
				c-0.4,0-0.4,0-0.4,0.4C163.8,265.2,163.8,266.2,163.8,267.2z"/>
			<path fill="#F2F3F4" d="M150,270.6c0,2.1,0,4.1,0,6.2c0,0.9,0,1.9,0.2,2.8c0,0.2,0.1,0.4,0.2,0.6c0.1,0.3,0.3,0.5,0.6,0.5
				c0.4,0.1,0.7,0.1,1.1,0.1c0.3,0,0.5,0.2,0.5,0.4c0,0.2-0.2,0.4-0.4,0.4c-0.3,0-0.6,0-0.8,0c-0.5,0-1,0-1.5,0
				c-1.4-0.1-2.8,0-4.3,0c-0.2,0-0.4,0-0.6,0c-0.2,0-0.4-0.2-0.4-0.4c0-0.2,0.1-0.3,0.4-0.4c0.2,0,0.4,0,0.7-0.1
				c0.3-0.1,0.5-0.3,0.6-0.5c0.2-0.4,0.2-0.9,0.2-1.3c0-1.1,0.1-2.1,0.1-3.2c0-3.8,0-7.6,0-11.4c0-0.1,0-0.2,0-0.2
				c0-0.2-0.1-0.3-0.3-0.3c-1.1,0-2.1,0-3.1,0.4c-0.7,0.2-1.2,0.7-1.5,1.3c-0.1,0.2-0.2,0.4-0.3,0.6c0,0.1-0.1,0.2-0.1,0.3
				c-0.1,0.1-0.2,0.3-0.4,0.2c-0.2,0-0.3-0.2-0.3-0.5c0-0.4,0.1-0.7,0.1-1.1c0.1-0.8,0.2-1.6,0.4-2.3c0-0.2,0.1-0.4,0.2-0.6
				c0-0.1,0.2-0.2,0.3-0.2c0.7,0.4,1.5,0.3,2.3,0.4c3.1,0.1,6.3,0,9.4,0c0.8,0,1.6,0,2.4-0.2c0.4-0.1,0.5,0,0.4,0.4
				c-0.1,1.1-0.1,2.2-0.2,3.3c0,0.1,0,0.3,0,0.4c0,0.2-0.2,0.4-0.4,0.4c-0.2,0-0.3-0.2-0.3-0.4c0-0.1,0-0.1,0-0.2
				c-0.2-1.2-1.1-1.9-2.1-2.2c-0.8-0.2-1.7-0.2-2.6-0.2c-0.2,0-0.3,0.1-0.3,0.3c0,0.7,0,1.4,0,2.1C150,267.6,150,269.1,150,270.6z"
				/>
			<path fill="#F2F3F4" d="M199.7,281.8c-1.8,0-3.5-0.1-5.3-0.1c-1.4-0.1-2.7,0.1-4.1,0c-0.2,0-0.4,0-0.7,0c-0.3,0-0.5-0.2-0.5-0.4
				c0-0.2,0.2-0.3,0.4-0.3c0.2,0,0.4,0,0.7-0.1c0.3-0.1,0.4-0.2,0.5-0.5c0.1-0.4,0.2-0.8,0.2-1.2c0.1-1.3,0.1-2.6,0.1-4
				c0-2.2,0-4.4,0-6.6c0-1.1,0-2.3,0-3.4c0-0.3,0-0.5-0.1-0.8c-0.1-0.9-0.6-1.2-1.3-1.3c-0.1,0-0.3,0-0.4,0c-0.2,0-0.4-0.2-0.4-0.4
				c0-0.2,0.1-0.3,0.4-0.4c0.1,0,0.2,0,0.3,0c1.1,0,2.1,0,3.2,0.1c0.5,0,1.1,0,1.7,0c0.7,0,1.4,0,2.1,0c0.1,0,0.1,0,0.2,0
				c0.2,0,0.4,0.2,0.4,0.4c0,0.2-0.2,0.4-0.4,0.4c-0.3,0-0.5,0-0.8,0.1c-0.6,0.1-1,0.5-1.1,1.1c-0.1,0.3-0.1,0.5-0.1,0.8
				c0,3.4,0,6.8,0,10.2c0,1.1,0,2.2,0.1,3.3c0,0.2,0.1,0.4,0.1,0.6c0.1,0.5,0.4,0.8,0.9,0.9c1.2,0.2,2.4,0.3,3.6,0
				c0.9-0.2,1.6-0.8,2-1.6c0.1-0.3,0.3-0.6,0.4-0.8c0-0.1,0.1-0.2,0.2-0.3c0.1-0.1,0.2-0.1,0.4-0.1c0.2,0,0.2,0.2,0.3,0.3
				c0,0.1,0,0.2,0,0.4c-0.2,0.9-0.4,1.8-0.6,2.7c-0.1,0.2-0.1,0.4-0.1,0.6c-0.1,0.3-0.3,0.5-0.6,0.5c-0.3,0.1-0.6,0-0.9,0
				C200.1,281.8,199.9,281.8,199.7,281.8L199.7,281.8z"/>
			<path fill="#F2F3F4" d="M176.6,262.3c0.6,0.1,1.2,0,1.8,0.1c0.6,0,1.2,0,1.7,0c0.7,0,1.4,0,2.1,0c0.4,0,0.6,0.3,0.4,0.6
				c-0.1,0.2-0.2,0.2-0.4,0.2c-0.2,0-0.5,0-0.7,0.1c-0.6,0.1-1,0.5-1.1,1.1c-0.1,0.5-0.1,0.9-0.1,1.4c0,3.8,0,7.7,0,11.5
				c0,0.6,0.1,1.3,0.2,1.9c0.1,0.7,0.6,1,1.2,1.1c1,0.2,2.1,0.2,3.1,0c0.6-0.1,1.1-0.4,1.4-1c0.2-0.3,0.4-0.7,0.5-1
				c0.1-0.1,0.1-0.3,0.2-0.4c0.1-0.2,0.3-0.3,0.5-0.2c0.2,0,0.2,0.2,0.2,0.4c0,0.2,0,0.4-0.1,0.6c-0.2,0.8-0.3,1.7-0.5,2.5
				c-0.1,0.4-0.2,0.6-0.7,0.6c-0.1,0-0.2,0-0.3,0c-1.1,0-2.2,0-3.4,0c-1.3-0.1-2.6-0.1-3.8-0.1c-1,0-2,0-2.9,0.1c-0.2,0-0.4,0-0.6,0
				c-0.3,0-0.4-0.2-0.4-0.4c0-0.2,0.2-0.4,0.4-0.4c0.2,0,0.4,0,0.7-0.1c0.3-0.1,0.4-0.2,0.5-0.5c0.2-0.4,0.2-0.9,0.2-1.4
				c0.1-1.7,0.1-3.4,0.1-5c0-2.7,0-5.5,0-8.2c0-0.4,0-0.9-0.1-1.3c-0.1-1-0.6-1.2-1.3-1.3c-0.1,0-0.2,0-0.4,0
				c-0.2,0-0.4-0.2-0.4-0.4c0-0.2,0.1-0.4,0.4-0.4c0.3,0,0.6,0,0.9,0C176,262.3,176.3,262.3,176.6,262.3z"/>
		</g>
		<g>
			<path fill="#E7CB99" d="M113.1,262.4c0.2-0.1,0.3-0.1,0.4-0.1c0.5,0,0.6,0.1,0.8,0.5c0.3,0.8,0.6,1.6,0.9,2.4
				c0.9,2.4,1.8,4.7,2.8,7c0.7,1.8,1.4,3.6,2.2,5.4c0.4,1,0.8,1.9,1.7,2.7c-0.5,0-0.8-0.1-1.1-0.3c-0.3-0.2-0.5-0.5-0.7-0.9
				c-0.4-0.5-0.6-1.1-0.8-1.7c-1.5-3.7-3-7.4-4.4-11.2c-0.4-1.2-0.9-2.3-1.4-3.5C113.3,262.8,113.2,262.6,113.1,262.4z"/>
			<path fill="#E7CB99" d="M99.9,280.4c-0.7,0-1-0.2-1.2-0.7c-0.3-0.7-0.3-1.3-0.3-2c-0.1-1.8-0.2-3.7-0.3-5.5
				c-0.1-1.5-0.1-3.1-0.2-4.6c0-1-0.1-2.1-0.1-3.1c0-0.7,0.2-0.9,0.9-0.9c-0.3,0.7-0.1,1.4-0.1,2.2c0,1.1,0.1,2.2,0.1,3.3
				c0.1,1.3,0.1,2.7,0.2,4c0.1,1.3,0.1,2.6,0.2,3.8c0,0.8,0.1,1.5,0.2,2.3C99.4,279.6,99.6,280,99.9,280.4z"/>
			<path fill="#E7CB99" d="M182.4,279.7c-0.7-0.1-1.1-0.5-1.1-1.2c-0.1-0.5-0.1-0.9-0.1-1.4c-0.1-2.1,0-4.2,0-6.3c0-1.4,0-2.7,0-4.1
				c0-0.7,0-1.4,0-2c0-0.7,0.3-1.1,0.9-1.2c0,0,0.1,0,0.1,0.1c-0.1,0.3-0.2,0.7-0.3,1.1c0,0.4,0,0.9,0,1.3c0,1.5,0,3.1,0,4.6
				c0,1.2,0,2.5,0,3.7c0,1.3,0,2.6,0.1,3.8C182,278.6,182.1,279.1,182.4,279.7z"/>
			<path fill="#E7CB99" d="M196.9,279.6c-0.3,0-0.6-0.2-0.7-0.4c-0.2-0.2-0.3-0.4-0.3-0.7c-0.1-0.5-0.1-1-0.1-1.5
				c0-3.7,0-7.4,0-11.1c0-0.4,0-0.8,0-1.2c0-0.5,0.2-1,0.8-1.2c0.1,0,0.2-0.1,0.2,0c0.1,0.1,0,0.1,0,0.2c-0.2,0.4-0.2,0.9-0.2,1.3
				c0,2.8,0,5.7,0,8.5c0,1.4,0,2.7,0,4.1c0,0.5,0.1,1.1,0.2,1.6C196.8,279.3,196.9,279.4,196.9,279.6z"/>
			<path fill="#E7CB99" d="M152,280.4c-0.5,0.1-0.8-0.2-0.9-0.6c-0.1-0.4-0.1-0.9-0.2-1.4c0-0.6-0.1-1.2-0.1-1.9c0-4,0-8,0-12
				c0-0.5,0.1-0.6,0.6-0.5c0.1,0,0.2,0.1,0.2,0.2c0,0.1,0,0.2,0,0.3c0,3.7,0,7.4,0,11.1c0,1.2,0,2.4,0.1,3.6
				C151.8,279.8,151.9,280.1,152,280.4z"/>
			<path fill="#E7CB99" d="M133.9,271.6L133.9,271.6L133.9,271.6c0.1,0,0.2,0.1,0.3,0.1c0.5,0.6,0.9,1.2,1.4,1.8
				c1.4,1.9,2.8,3.9,4.3,5.7c0.4,0.4,0.7,0.8,1.2,1.2c-0.4,0-0.7-0.1-1.1-0.3c-0.4-0.2-0.6-0.4-0.9-0.7c-1-1.2-1.9-2.4-2.8-3.6
				c-0.9-1.2-1.8-2.4-2.7-3.6c0-0.1-0.1-0.1-0.1-0.2c0-0.1,0-0.1,0-0.2c0.1-0.1,0.1-0.1,0.2-0.1
				C133.8,271.6,133.8,271.6,133.9,271.6z"/>
			<path fill="#E7CB99" d="M84,280.5c-0.7-0.2-1-0.6-1-1.1c-0.1-0.7,0-1.3,0-2c0-0.6,0-1.2,0.1-1.8c0-1.3,0.1-2.5,0.1-3.8
				c0-0.1,0-0.1,0.1-0.2c0.2,0.5,0.4,0.9,0.6,1.4c0,0.1,0,0.2,0,0.2c0,1.4-0.1,2.8-0.1,4.2c0,0.7,0,1.4,0,2.1
				C83.8,279.9,83.9,280.2,84,280.5z"/>
			<path fill="#E7CB99" d="M134.6,271.1c0,0,0.1-0.1,0.1-0.1c0,0,0,0,0.1,0c0.4-0.3,0.7-0.6,1.1-0.9c1.2-1.2,1.7-2.7,1.6-4.4
				c0-1.2-0.4-2.2-1.5-2.8c0.8,0.1,1.7,0.8,2,1.6c0.3,0.8,0.3,1.5,0.2,2.3c-0.3,1.9-1.3,3.3-2.9,4.2c-0.2,0.1-0.4,0.3-0.7,0.3
				C134.6,271.2,134.6,271.2,134.6,271.1z"/>
			<path fill="#E7CB99" d="M129.1,272.9c0.2,0.1,0.2,0.3,0.4,0.5c0.3,0.4,0.4,0.8,0.4,1.2c0,1.4,0,2.8,0.1,4.1
				c0,0.6,0.1,1.2,0.3,1.7c-0.6,0.1-1-0.2-1-0.8c-0.1-0.7-0.1-1.3-0.1-2c0-1.5,0-3,0-4.5C129,273.1,129,273,129.1,272.9z"/>
			<path fill="#E7CB99" d="M166.1,279.6c-0.7,0-1.1-0.3-1.3-0.9c-0.1-0.3-0.1-0.5-0.1-0.8c0-1.7,0-3.3,0-5c0-0.5-0.1-0.5,0.5-0.5
				c0.2,0,0.2,0.1,0.2,0.2c0,0.1,0,0.2,0,0.3c0,1.6,0,3.3,0,4.9C165.5,278.5,165.6,279.1,166.1,279.6
				C166.1,279.6,166.1,279.6,166.1,279.6z"/>
			<path fill="#E7CB99" d="M129.1,267.6c0-1,0-2.1,0-3.1c0-0.1-0.1-0.3,0.1-0.4c0.2-0.1,0.4-0.1,0.6,0c0.1,0,0.1,0.1,0.1,0.2
				c0,0.1,0,0.2,0,0.3c0,2,0,4,0,6c0,0.1,0.1,0.3-0.1,0.4c-0.2,0.1-0.4,0.2-0.6,0.3c-0.1,0-0.1,0-0.1-0.1c0-0.1,0-0.2,0-0.3
				C129.1,269.7,129.1,268.6,129.1,267.6z"/>
			<path fill="#E7CB99" d="M164.7,267.2c0-0.9,0-1.7,0-2.6c0-0.3,0-0.3,0.3-0.3c0.1,0,0.2,0,0.2,0c0.1,0,0.2,0.1,0.2,0.2
				c0,0.1,0,0.1,0,0.2c0,1.7,0,3.4,0,5c0,0.1,0,0.2,0,0.3c0,0.1,0,0.1-0.1,0.1c-0.2,0-0.4,0-0.5,0c-0.2,0-0.1-0.2-0.1-0.3
				c0-0.6,0-1.2,0-1.9C164.7,267.7,164.7,267.5,164.7,267.2L164.7,267.2z"/>
			<path fill="#E7CB99" d="M87,268.3c-0.3-0.6-0.5-1.2-0.8-1.7c-0.5-1.2-1-2.4-1.6-3.6c-0.1-0.2-0.2-0.3-0.2-0.5
				c0.5-0.2,0.8-0.1,1,0.3c0.6,1.4,1.2,2.8,1.8,4.1c0,0,0,0.1,0,0.1c-0.1,0-0.2,0.1-0.1,0.3c0.1,0.2,0.1,0.4,0.2,0.7
				C87.3,268.1,87.2,268.3,87,268.3z"/>
			<path fill="#E7CB99" d="M109.1,275.6c-0.3,0.7-0.5,1.3-0.8,2c-0.2,0.6-0.4,1.1-0.6,1.7c-0.1,0.4-0.2,0.7-0.1,1.1
				c-0.1,0.1-0.2,0-0.3,0c-0.4-0.1-0.5-0.3-0.5-0.7c0-0.1,0.1-0.3,0.1-0.4c0.4-1.1,0.9-2.3,1.3-3.4c0.2-0.4,0.2-0.4,0.6-0.4
				C108.9,275.5,109,275.5,109.1,275.6z"/>
			<path fill="#E7CB99" d="M87,268.3c0.2,0,0.3-0.1,0.3-0.3c-0.1-0.2-0.1-0.4-0.2-0.7c0-0.1,0-0.2,0.1-0.3c0.1,0.2,0.2,0.3,0.2,0.5
				c0,0.1,0,0.2,0.1,0.3c0.5,0.9,0.8,1.9,1.3,2.9c0.2,0.6,0.5,1.1,0.7,1.7c0.1,0.3,0.2,0.5,0,0.8c-0.1,0.1-0.1,0.2-0.1,0.3
				c0,0-0.1,0-0.1,0c-0.1-0.2-0.2-0.4-0.3-0.6l0,0c-0.2-0.5-0.4-0.9-0.6-1.4c0,0,0,0,0,0c-0.1-0.1-0.1-0.3-0.2-0.4
				c0,0,0-0.1-0.1-0.1c-0.3-0.7-0.6-1.3-0.8-2c0-0.1,0-0.2-0.1-0.3C87.1,268.5,87,268.4,87,268.3z"/>
			<path fill="#E7CB99" d="M202.3,281.7c0.3-0.2,0.4-0.5,0.5-0.8c0.2-1.1,0.5-2.1,0.7-3.2c0-0.1,0-0.2,0.1-0.3
				c0.1-0.3,0.3-0.4,0.5-0.3c0.2,0,0.3,0.2,0.3,0.5c-0.1,0.4-0.2,0.9-0.3,1.3c-0.2,0.7-0.4,1.4-0.5,2.1
				C203.4,281.7,203.1,281.9,202.3,281.7z"/>
			<path fill="#E7CB99" d="M92.2,275.8c-0.2,0.5-0.3,1-0.6,1.4c-0.1,0-0.1,0.1-0.1,0.2c0,0.1-0.1,0.2-0.1,0.3
				c-0.2-0.1-0.2-0.3-0.1-0.4c0.2-0.3,0.1-0.5-0.2-0.6c0.6-1.4,1.1-2.8,1.7-4.2c0.1-0.3,0.2-0.6,0.4-0.9c0.1,1,0.1,1.9-0.4,2.7
				c-0.1,0-0.1,0.1-0.1,0.2c-0.1,0.4-0.3,0.7-0.4,1C92.2,275.7,92.2,275.7,92.2,275.8z"/>
			<path fill="#E7CB99" d="M156.6,265.5c0-1,0.1-2,0.2-3c0-0.3,0.4-0.5,0.6-0.5c0.1,0,0.1,0.1,0.1,0.2c0,0.1,0,0.2,0,0.3
				c-0.2,1.1-0.2,2.3-0.3,3.5c0,0.1,0,0.3-0.1,0.4c-0.1,0.2-0.2,0.3-0.4,0.3c-0.2,0-0.3-0.2-0.3-0.4
				C156.5,266,156.6,265.8,156.6,265.5z"/>
			<path fill="#E7CB99" d="M187.3,281.7c0.4-0.3,0.4-0.8,0.5-1.3c0.2-0.8,0.3-1.6,0.5-2.4c0-0.1,0-0.1,0-0.2
				c0.1-0.2,0.3-0.4,0.5-0.3c0.2,0,0.3,0.2,0.3,0.5c-0.1,0.8-0.3,1.5-0.4,2.2c-0.1,0.3-0.1,0.6-0.2,0.8c-0.1,0.5-0.3,0.6-0.8,0.7
				C187.6,281.8,187.5,281.8,187.3,281.7z"/>
			<path fill="#E7CB99" d="M91.1,276.7c0.2,0.2,0.4,0.3,0.2,0.6c-0.1,0.1-0.1,0.3,0.1,0.4c-0.1,0.5-0.4,1-0.6,1.5
				c-0.3,0.7-0.6,1.4-0.8,2c-0.1,0.1-0.1,0.3-0.3,0.3c-0.2,0-0.3-0.2-0.4-0.3c-0.1-0.1,0-0.2,0-0.3c0.5-1.3,1-2.5,1.5-3.8
				c0,0,0,0,0,0c0.1,0,0.2,0,0.2-0.1c0-0.1-0.1-0.1-0.1-0.1C91,276.9,91.1,276.8,91.1,276.7z"/>
			<path fill="#E7CB99" d="M172.1,281.7c0.2-0.2,0.3-0.5,0.4-0.8c0.2-1,0.4-2,0.5-3c0-0.2,0.1-0.3,0.4-0.4c0.2,0,0.4,0.1,0.4,0.3
				c0,0.2,0,0.4,0,0.6c-0.1,0.8-0.3,1.7-0.4,2.5C173.1,281.7,172.8,281.9,172.1,281.7z"/>
			<path fill="#E7CB99" d="M172.1,262.8c-0.1,1-0.2,1.9-0.3,2.9c0,0.2-0.1,0.3-0.2,0.4c-0.2,0.1-0.3,0.1-0.4-0.1
				c-0.1-0.2-0.2-0.4-0.1-0.6c0.1-1,0.2-2,0.3-3c0-0.2,0.5-0.4,0.7-0.4c0.1,0,0.1,0.1,0.1,0.2C172.2,262.5,172.1,262.6,172.1,262.8
				C172.1,262.8,172.1,262.8,172.1,262.8z"/>
			<path fill="#E7CB99" d="M170.3,271.9c0-0.4,0.1-0.8,0.1-1.2c0-0.2,0.5-0.4,0.7-0.3c0.1,0.1,0.1,0.2,0.1,0.3
				c-0.1,0.7-0.1,1.5-0.2,2.2c0,0.1,0,0.3-0.2,0.3c-0.2,0-0.3-0.1-0.4-0.2c-0.2-0.1-0.3-0.3-0.2-0.5
				C170.3,272.2,170.3,272,170.3,271.9C170.3,271.9,170.3,271.9,170.3,271.9z"/>
			<path fill="#E7CB99" d="M144.1,264.5c-0.6,0.4-1,1-1.2,1.6c-0.1,0.2-0.1,0.4-0.3,0.5c-0.1,0.1-0.2,0.1-0.4,0.1
				c-0.1-0.1-0.2-0.2-0.2-0.4c0-0.1,0-0.1,0-0.2c0.4-0.8,0.9-1.4,1.8-1.7C144,264.4,144,264.4,144.1,264.5z"/>
			<path fill="#E7CB99" d="M134.6,271.1c0,0,0,0.1,0,0.1c-0.1,0.1-0.4,0.1-0.4,0.4c-0.1,0-0.2-0.1-0.3-0.1
				C134.1,271.4,134.3,271.2,134.6,271.1z"/>
			<path fill="#E7CB99" d="M91,277c0,0,0.1,0,0.1,0.1c0,0.1-0.1,0.1-0.2,0.1C91,277.1,91,277.1,91,277z"/>
			<path fill="#E7CB99" d="M87.2,268.7c0.2,0,0.1,0.2,0.1,0.3C87.2,268.9,87.2,268.8,87.2,268.7z"/>
			<path fill="#E7CB99" d="M89.2,273.4c0,0,0.1,0,0.1,0c0,0.1,0,0.1-0.1,0.1C89.2,273.5,89.2,273.5,89.2,273.4z"/>
			<path fill="#E7CB99" d="M87.5,267.8c-0.1,0-0.1-0.2-0.1-0.3C87.5,267.6,87.5,267.7,87.5,267.8z"/>
			<path fill="#E7CB99" d="M92.7,274.6c0-0.1,0-0.2,0.1-0.2C92.8,274.5,92.8,274.5,92.7,274.6z"/>
			<path fill="#E7CB99" d="M133.5,271.7c0,0.1,0,0.1,0,0.2C133.4,271.9,133.4,271.8,133.5,271.7z"/>
			<path fill="#E7CB99" d="M92.2,275.8c0-0.1,0-0.2,0.1-0.2C92.3,275.7,92.3,275.8,92.2,275.8z"/>
			<path fill="#E7CB99" d="M91.6,277.5c0-0.1,0-0.2,0.1-0.2C91.6,277.4,91.6,277.4,91.6,277.5z"/>
			<path fill="#E7CB99" d="M88.1,270.9C88.2,270.9,88.2,271,88.1,270.9C88.1,271,88.1,271,88.1,270.9z"/>
			<path fill="#E7CB99" d="M88.4,271.4C88.4,271.4,88.4,271.5,88.4,271.4L88.4,271.4L88.4,271.4z"/>
			<path fill="#E7CB99" d="M133.9,271.6c0,0-0.1,0.1-0.1,0.1C133.8,271.6,133.8,271.6,133.9,271.6z"/>
			<path fill="#E7CB99" d="M89,272.9L89,272.9L89,272.9z"/>
			<path fill="#E7CB99" d="M134.8,271C134.8,271,134.7,271.1,134.8,271C134.7,271,134.7,271,134.8,271z"/>
			<path fill="#E7CB99" d="M110.8,269.3c0.1,0.3,0.2,0.5,0.3,0.8c0.1,0.1,0,0.3,0,0.4c-0.3,0.8-0.6,1.6-0.9,2.4
				c-0.1,0.4-0.2,0.4-0.5,0.4c-0.1,0-0.2,0-0.2,0c0,0,0,0-0.1-0.1C109.8,271.9,110.3,270.6,110.8,269.3
				C110.8,269.3,110.8,269.3,110.8,269.3z"/>
		</g>
	</g>
</g>
</svg>
