<?xml version="1.0" encoding="utf-8"?>
<!-- Generator: Adobe Illustrator 19.1.1, SVG Export Plug-In . SVG Version: 6.00 Build 0)  -->
<svg version="1.1" xmlns="http://www.w3.org/2000/svg" xmlns:xlink="http://www.w3.org/1999/xlink" x="0px" y="0px"
	 viewBox="0 0 283 396" enable-background="new 0 0 283 396" xml:space="preserve">
<g id="bombki">
	<g id="wyborowa01">
	</g>
	<g id="jacobs_x5F_creek">
	</g>
	<path opacity="0.1" fill="#E6E9EB" d="M179.4,120.6c-2.3-0.7-4.3-1.9-5.9-3.5c1.3,1.8,3.1,3.3,5.2,4.3
		c56,26.8,89.2,87.8,78.4,151.5c-12,70.4-73.9,119.8-143.3,117.8c8.9,1.8,18.2,2.7,27.7,2.7c76.8,0,138.9-62.3,138.9-139.1
		C280.3,190.8,238.1,137.3,179.4,120.6z"/>
	<path opacity="0.1" fill="#E6E9EB" d="M140.9,353.2c-48.6,0-92.9-15.6-126.1-41.1c21.9,48.1,70.3,81.5,126.6,81.5
		c56.7,0,105.3-33.9,126.9-82.5C235,337.2,190.2,353.2,140.9,353.2z"/>
	<g opacity="0.1">
		<path fill="#FFFFFF" d="M37.1,295.8c-24-59.1-4.6-125.1,43.7-162.4c2.2-1.7,3.7-3.9,4.6-6.4c-49.1,21.6-83.1,70.6-83,127.5
			c0.1,76.9,62.2,139,139.1,138.9c24.9,0,48.2-6.5,68.4-18C140.7,398.6,64.9,364.3,37.1,295.8z"/>
	</g>
	<ellipse opacity="0.1" fill="#E6E9EB" cx="140.8" cy="165.7" rx="70.4" ry="33.9"/>
	<g>
		<path opacity="0.4" fill="#D0E8FF" d="M179.6,120.6c-5.9-1.7-9.7-7-9.7-13.1v-5.1c0-0.9-1-1.7-1.9-1.7h0.1c-1.8,0-3.2-1.5-3.2-3.3
			v-3.1c-3.4,1.2-12.3,2-22.7,2c-10.8,0-20-0.9-23.1-2.2v3.4c0,1.8-1.7,3.2-3.4,3.2h0.1c-1,0-1.7,0.8-1.7,1.8v4.9
			c0,6.1-4.3,11.5-10.2,13.1C45.2,136.9,2.3,190.7,2.4,254.6c0.1,76.9,62.1,139,139,138.9c76.8,0,139-62.3,139-139.1
			C280.4,190.8,238.3,137.3,179.6,120.6z"/>
	</g>
	<ellipse opacity="0.4" fill="#D0E8FF" cx="142.3" cy="93.1" rx="24.2" ry="3.1"/>
	<ellipse opacity="0.4" fill="#D0E8FF" cx="142.3" cy="93.1" rx="24.2" ry="3.1"/>
	<path opacity="0.1" d="M141.6,122.5c76.4,0,138.5,61.1,140.1,137.1c0-1,0-2,0-3c0-77.4-62.7-140.1-140.1-140.1S1.5,179.3,1.5,256.7
		c0,1,0,2,0,3C3.1,183.7,65.2,122.5,141.6,122.5z"/>
	<path fill="#FF901F" d="M157.7,29.1h-32.1l-0.7-1.2c-1.5-2.4-2.3-5.7-2.3-9c0-10.5,8.6-19,19.1-19s19.1,8.5,19.1,19
		c0,3.3-0.9,6.6-2.3,8.9L157.7,29.1z M128.5,24.1h26.3c0.6-1.5,1-3.3,1-5.1c0-7.7-6.3-14-14.1-14s-14.1,6.3-14.1,14
		C127.5,20.8,127.9,22.7,128.5,24.1z"/>
	<path fill="#D97907" d="M141.6,5.4c7.5,0,13.6,6.1,13.6,13.6c0,1.7-0.3,3.3-0.9,4.8h-16.2h-9.2c-0.6-1.5-0.9-3.1-0.9-4.8
		C128,11.5,134.1,5.4,141.6,5.4 M141.6,2.4C132.4,2.4,125,9.8,125,19c0,2.8,0.7,5.5,2,7.8h11.2h18.2c1.2-2.3,2-5,2-7.8
		C158.2,9.8,150.8,2.4,141.6,2.4L141.6,2.4z"/>
	<path fill="#E6E9EB" d="M141.5,396c-37.8,0-73.4-14.7-100.1-41.4C14.7,328,0,292.4,0,254.6c0-31.5,10.1-61.4,29.2-86.3
		c18.6-24.2,44.9-42,74.2-50.2c4.9-1.4,8.4-5.8,8.4-10.8v-4.9c0-2.4,1.8-4.2,4-4.3v0c0.5,0,1-0.4,1-0.7V42.5h50.8v54.8
		c0,0.4,0.2,0.8,0.7,0.8v0c2.4,0.1,4.3,2,4.3,4.2v5.1c0,5.1,3.2,9.4,7.8,10.7l0,0c29.1,8.3,55.3,26.1,73.7,50.2
		c18.9,24.8,28.9,54.5,28.9,86C283,332.5,219.5,396,141.5,396z M116.7,103v4.2c0,7.2-4.9,13.6-12,15.5
		C45.9,139.3,4.9,193.5,4.9,254.6C5,329.8,66.3,391,141.5,391c75.3,0,136.5-61.3,136.5-136.6c0-60.8-40.7-114.8-99-131.4l0,0
		c-6.9-1.9-11.5-8.2-11.5-15.5v-4.4c-2.8-0.3-5-2.7-5-5.7V47.5h-40.8v49.9C121.7,100.2,119.5,102.6,116.7,103z"/>
	<polygon opacity="0.1" points="162.5,94.8 159.1,95.5 159.1,49.7 162.5,49.7 	"/>
	<polygon opacity="0.1" points="121.6,94.7 125.1,95.3 125.1,49.5 121.6,49.5 	"/>
	<path fill="#E3E2E2" d="M168.4,49.6c0,0,4.5-1.2,5.9-2.4c0-2.9-0.3-18.2-0.3-20.8c0-2.6-10-4.1-32.5-4.1S109,23.9,109,26.4
		c0,2.6-0.3,17.9-0.3,20.8c1.5,1.1,5.9,2.4,5.9,2.4H168.4z"/>
	<rect x="116.6" y="49.6" opacity="0.3" width="51" height="4.2"/>
	<path opacity="0.4" d="M116.1,23.5c-4.8,0.7-7.1,1.7-7.1,2.9c0,2.6-0.3,17.9-0.3,20.8c1.5,1.1,5.9,2.4,5.9,2.4h1.5V23.5z"/>
	<path opacity="0.5" d="M133.8,49.6h30V23.1c-5.3-0.5-12.6-0.8-22.3-0.8c-2.8,0-5.3,0-7.7,0.1V49.6z"/>
	<path opacity="0.6" d="M167.1,49.6h1.3c0,0,1.9-0.5,3.7-1.2V24.7c-1.1-0.4-2.8-0.8-5-1.2V49.6z"/>
	<path fill="#B0B0B0" d="M172.1,24.7v23.7c0.9-0.4,1.8-0.8,2.3-1.2c0-2.9-0.3-18.2-0.3-20.8C174,25.8,173.4,25.2,172.1,24.7z"/>
	<path opacity="0.2" d="M110.9,24.7c-1.3,0.5-1.9,1.1-1.9,1.7c0,2.6-0.3,17.9-0.3,20.8c0.5,0.4,1.3,0.8,2.2,1.1V24.7z"/>
</g>
<g id="BRAND">
	<g id="New_Symbol_13">
	</g>
	<g>
		<circle fill="#0033A0" cx="250.4" cy="268" r="7.1"/>
		<path fill="#0033A0" d="M204.2,230c0.1,0.3,0.1,0.6,0.1,1l0,29.5c0,1.7-0.2,2.8-0.8,3.6c-0.6,0.8-1.4,1.1-2.4,1.1
			c-1,0-1.8-0.4-2.4-1.1c-0.6-0.8-0.8-1.9-0.8-3.6l0-29.5c0-0.4,0-0.7,0.1-1c0.2-0.6,0.7-0.8,0.7-0.8h-14.5c0,0,0.4,0.2,0.7,0.8
			c0.1,0.3,0.1,0.6,0.1,1l0,30c0,8,4.9,14.4,15.8,14.4c0.1,0,0.5,0,0.6,0c10.9,0,15.8-6.4,15.8-14.4l0-30c0-0.4,0-0.7,0.1-1
			c0.2-0.6,0.7-0.8,0.7-0.8h-14.5C203.5,229.2,204,229.4,204.2,230z"/>
		<path fill="#0033A0" d="M183.4,264c-0.3,0.1-0.6,0.1-1,0.1H175l0-33.2c0-0.4,0-0.7,0.1-1c0.2-0.6,0.7-0.8,0.7-0.8h-14.5
			c0,0,0.4,0.2,0.7,0.8c0.1,0.2,0.1,0.5,0.1,0.8l0,41.8c0,0.4,0,0.7-0.1,1c-0.2,0.6-0.7,0.8-0.7,0.8l23,0v-11
			C184.3,263.4,184,263.8,183.4,264z"/>
		<path fill="#0033A0" d="M239.6,273.6c-0.1-0.3-0.1-0.6-0.1-1l0-33.2h5.6c0.4,0,0.7,0,1,0.1c0.6,0.2,0.8,0.7,0.8,0.7v-11H219v11
			c0,0,0.2-0.4,0.8-0.7c0.3-0.1,0.6-0.1,1-0.1h5.6l0,33.4c0,0.3-0.1,0.6-0.1,0.8c-0.2,0.6-0.7,0.8-0.7,0.8h14.5
			C240.2,274.4,239.8,274.2,239.6,273.6z"/>
		<path fill="#0033A0" d="M142.7,228.3L142.7,228.3C142.7,228.3,142.7,228.3,142.7,228.3C142.7,228.3,142.7,228.3,142.7,228.3
			L142.7,228.3c-11.6,0.1-17.1,8.8-17.2,23h0c0,0.1,0,1,0,1.1h0c0.1,14.2,5.6,23,17.2,23v0c0,0,0,0,0,0c0,0,0,0,0,0v0
			c11.6-0.1,17-8.8,17.2-23h0c0-0.1,0-1,0-1.1h0C159.7,237.1,154.3,228.4,142.7,228.3z M146.6,252.4c0,6.2-0.2,12.8-3.9,12.9
			c-3.7-0.1-3.9-6.8-3.9-12.9c0-0.4,0-0.8,0-1.1c0-6.2,0.2-12.9,3.9-13c3.7,0.1,3.9,6.9,3.9,13C146.6,251.7,146.6,252.1,146.6,252.4
			z"/>
		<path fill="#0033A0" d="M253.5,237.2c2.5,0,4.5-2,4.5-4.5c0-2.5-2-4.5-4.5-4.5c-2.5,0-4.5,2-4.5,4.5
			C249,235.2,251,237.2,253.5,237.2z M253.5,228.7c2.2,0,4,1.8,4,4c0,2.2-1.8,4-4,4c-2.2,0-4-1.8-4-4
			C249.5,230.5,251.3,228.7,253.5,228.7z"/>
		<path fill="#0033A0" d="M252.4,233h1.1l1.3,2.1h0.9l-1.4-2.2c0.7-0.1,1.2-0.7,1.2-1.4c0-1-0.6-1.4-1.9-1.4h-1.9v5.1h0.7V233z
			 M252.4,230.7h1.2c0.6,0,1.2,0.1,1.2,0.8c0,0.7-0.6,0.8-1.2,0.8h-1.2V230.7z"/>
		<path fill="#0033A0" d="M86.7,251L86.7,251c4.3-0.1,8.2-4.6,8-10.2c-0.3-8.1-6.3-11.5-16.4-11.5l-13.7,0c0,0,0.4,0.2,0.7,0.8
			c0.2,0.5,0.1,1.3,0.1,2.3v38.9c0,2.5-0.4,3.2-0.4,3.2l16.3,0c10.2,0,15.2-5,15.2-12.5C96.5,255.5,91.8,251.3,86.7,251z
			 M77.9,238.4h0.9c2.5,0,4.9,1.3,4.7,4.6c-0.2,3-2.2,4.2-4.7,4.2h-0.9V238.4z M78.7,265.2h-0.8v-9.9h0.8c3.4,0,5.4,1.9,5.5,4.8
			C84.2,263.9,81.8,265.2,78.7,265.2z"/>
		<path fill="#0033A0" d="M62.9,269.4c0,0-8.6-37.1-8.8-38c-0.4-1.7,0.5-2.2,0.5-2.2H38.4c0,0,0.9,0.6,0.5,2.2
			c-0.2,0.9-8.8,38-8.8,38c-1,4.7-2.4,5-2.4,5l15,0c0,0-1.1-0.4-0.8-2c0.2-1.6,0.8-5.3,0.8-5.3h7.6c0,0,0.6,3.7,0.8,5.3
			c0.2,1.6-0.8,2-0.8,2l14.2,0C64.5,274.4,63.9,274.1,62.9,269.4z M43.9,258.8l2.6-17.9l2.6,17.9H43.9z"/>
		<path fill="#0033A0" d="M120.9,251.7c-2.4-2.5-5.1-4.7-7.9-6.8c-2.4-1.8-3.5-3-3-4.8c1.1-3.5,7.6-1.2,11.5,1.6v-11.9
			c0,0-0.7,0.9-2,0.4c-2.2-0.8-4.1-1.8-8-1.9c-8.9,0-13.9,6.5-14,12.8c0,4.5,1.3,7.8,4.9,11c2.8,2.4,5.9,4.7,7.8,6.5
			c1.4,1.3,2.3,3.2,1.6,4.8c-1.1,2.7-6.3,2.6-14.1-4v13.4c0,0,0.9-0.8,2.3-0.2c2.2,1.1,5.9,2.8,9.7,2.8c10.4,0.1,15.8-6.7,15-15.1
			C124.6,257.1,123.3,254.3,120.9,251.7z"/>
	</g>
</g>
</svg>
