<?xml version="1.0" encoding="utf-8"?>
<!-- Generator: Adobe Illustrator 19.1.1, SVG Export Plug-In . SVG Version: 6.00 Build 0)  -->
<svg version="1.1" xmlns="http://www.w3.org/2000/svg" xmlns:xlink="http://www.w3.org/1999/xlink" x="0px" y="0px"
	 viewBox="0 0 283 396" enable-background="new 0 0 283 396" xml:space="preserve">
<g id="bombki">
	<g id="wyborowa01">
	</g>
	<g id="jacobs_x5F_creek">
	</g>
	<radialGradient id="SVGID_1_" cx="140.4998" cy="245.9998" r="143.3017" gradientUnits="userSpaceOnUse">
		<stop  offset="4.065040e-003" style="stop-color:#FFDA27"/>
		<stop  offset="0.9916" style="stop-color:#E97300"/>
	</radialGradient>
	<path fill="url(#SVGID_1_)" d="M178.6,119.1c-12.4-4.6-15.8-13.9-15.8-20.1h-44.3c0,6.1-2.4,16.2-15.9,19.9
		C43.7,135.2,0.9,189.5,1,253.5C1.1,330.7,63.5,393,140.6,393c77.1,0,139.4-62.5,139.4-139.7C280,189.6,236.1,140.1,178.6,119.1z"/>
	<g>
		<path opacity="0.1" fill="#8E121C" d="M32,255.9c-0.1-55.1,22.7-104,58-133.8c-46.5,24-78.1,74.6-78,133
			c0.1,56.2,29.6,104.9,73.1,129.8C52.8,354.7,32.1,308.2,32,255.9z"/>
	</g>
	<g>
		<path opacity="0.1" fill="#8E121C" d="M248,255.9c0.1-55.1-22.7-104-58-133.8c46.5,24,78.1,74.6,78,133
			c-0.1,56.2-29.6,104.9-73.1,129.8C227.2,354.7,248,308.2,248,255.9z"/>
	</g>
	
		<ellipse transform="matrix(0.7774 0.629 -0.629 0.7774 130.5013 -13.5555)" opacity="0.1" fill="#FFDA27" cx="84.4" cy="177.6" rx="20.3" ry="32.7"/>
	<path opacity="0.1" fill="#FFDA27" d="M134.1,103v12c0,3.2-2.6,5.8-5.8,5.8h0c-3.2,0-5.8-2.6-5.8-5.8v-12"/>
	<path opacity="0.1" d="M141.7,374c-33.1,0-64.4-5.3-92.1-14.6C74.1,381,106.3,394,141.6,394c35.2,0,67.3-13,91.8-34.5
		C205.8,368.8,174.7,374,141.7,374z"/>
	<g opacity="0.1">
		<path d="M17,255.1C16.9,200.9,43.6,153.2,84,127C35.4,148.8,1.9,197.8,2,254.5c0.1,54.7,31.5,102,77.2,124.8
			C41.7,352.6,17.1,307,17,255.1z"/>
	</g>
	<g opacity="0.1">
		<path d="M264,255.1c0.1-54.2-24.6-101.9-65-128.1c48.6,21.8,82.1,70.8,82,127.5c-0.1,54.7-31.5,102-77.2,124.8
			C241.2,352.6,263.9,307,264,255.1z"/>
	</g>
	<path opacity="0.1" fill="#8E121C" d="M141.3,385.3c-23.8,0-46.4-3-66.5-8.3c19.8,10.8,42.6,17,66.8,17c24.4,0,47.3-6.3,67.2-17.2
		C188.4,382.2,165.5,385.3,141.3,385.3z"/>
	<path fill="#8E121C" d="M141.6,396c-37.9,0-73.4-14.7-100.1-41.4C14.8,327.9,0,292.4,0,254.5C-0.1,190.9,42.3,134.7,103.2,118
		c12.5-3.5,14.4-12.7,14.4-18v-2h48.3v2c0,3,1,13.3,14.4,18.2c29.7,10.9,54.9,28.7,73.1,51.8c19.3,24.5,29.6,53.6,29.6,84.4
		c0,37.9-14.7,73.4-41.3,100.2C215,381.3,179.5,396,141.6,396z M121.5,102c-0.5,5.8-3.4,16-17.3,19.8C45.1,138.1,3.9,192.7,4,254.5
		C4.1,330.3,65.8,392,141.6,392c75.7,0,137.4-61.8,137.4-137.7c0-59.1-38.3-109.8-100-132.4l0,0c-11.5-4.2-16.2-12.7-17-19.9H121.5z
		"/>
	<path fill="#FF901F" d="M157.6,29.3h-32.1l-0.7-1.2c-1.5-2.4-2.3-5.7-2.3-9c0-10.5,8.6-19,19.1-19s19.1,8.5,19.1,19
		c0,3.3-0.9,6.6-2.3,8.9L157.6,29.3z M128.4,24.3h26.3c0.6-1.5,1-3.3,1-5.1c0-7.7-6.3-14-14.1-14s-14.1,6.3-14.1,14
		C127.4,21,127.7,22.8,128.4,24.3z"/>
	<path fill="#D97907" d="M141.5,5.6c7.5,0,13.6,6.1,13.6,13.6c0,1.7-0.3,3.3-0.9,4.8H138h-9.2c-0.6-1.5-0.9-3.1-0.9-4.8
		C127.9,11.8,134,5.6,141.5,5.6 M141.5,2.6c-9.2,0-16.6,7.4-16.6,16.6c0,2.8,0.7,5.5,2,7.8H138h18.2c1.2-2.3,2-5,2-7.8
		C158.1,10.1,150.7,2.6,141.5,2.6L141.5,2.6z"/>
	<g>
		<path fill="#EDB400" d="M165.7,33.9v-6.6c-7-4.5-24-4.2-24-4.2c0,0-17-0.2-24,4.2v6.6l-2,2v17.3l1.2,2.7v43.8v2.3h24.8l0,0h24.8
			v-2.3V55.9l1.2-2.7V35.9L165.7,33.9z"/>
		<path opacity="0.7" fill="#A57600" d="M165.7,27.2c-1.3-0.9-3-1.5-4.9-2.1v7.8l1.3,2.2v16.4l-0.7,3l-0.6,47.5h5.6v-2.3V55.9
			l1.2-2.7V35.9l-2-2V27.2z"/>
		<path fill="#A57600" d="M167.8,53.2c0,0-14.3-2.5-26-2.5v3c0,0,17.3,0.1,24.8,2.2L167.8,53.2L167.8,53.2z"/>
		<path opacity="0.7" fill="#A57600" d="M117.8,27.2c1.3-0.9,3-1.5,4.9-2.1v7.8l-1.3,2.2v16.4l0.7,3l0.6,47.5H117v-2.3V55.9
			l-1.2-2.7V35.9l2-2V27.2z"/>
		<path fill="#A57600" d="M165.8,33.9c-5.4-1.4-17.5-2.9-24-2.9c-7.7,0-18.6,1.5-24,2.9l-2,2c0,0,15.4-1.9,26-1.9
			c10.6,0,26,1.9,26,1.9L165.8,33.9z"/>
		<path fill="#A57600" d="M115.7,53.2c0,0,14.3-2.5,26-2.5v3c0,0-17.3,0.1-24.8,2.2L115.7,53.2L115.7,53.2z"/>
		<path opacity="0.5" fill="#FFE5AD" d="M134.1,53.9l-0.4-2.9V34.3l0.4-2.9v-8.1c-3.6,0.3-7.9,0.8-11.5,1.9v7.8l-1.3,2.2v17.2
			l0.7,2.2l0.6,47.5h11.5V53.9z"/>
		<path opacity="0.3" fill="#A57600" d="M165.7,27.2c-4.2-2.7-12-3.7-17.5-4v7.6l1.3,3.5V51l-0.6,2.9V102h17.7v-2.3V55.9l1.2-2.7
			V35.9l-2-2V27.2z"/>
	</g>
</g>
<g id="BRAND">
	<g id="New_Symbol_13">
	</g>
	<g>
		<path fill="#822433" d="M39.9,274.1c0.3-2.9,1-5.7,2.1-8.4c0.1-0.3,0.2-0.5,0.5-0.6c1.7-0.8,3.5-1.6,5.2-2.5c0.1,0,0.1,0,0.2,0
			c-0.1,0.3-0.3,0.6-0.4,0.9c-1.1,2.9-1.8,6-1.9,9.1c-0.1,2.6,0.2,5.2,1,7.7c1.6,4.7,4.8,7.9,9.4,9.7c2.3,0.9,4.7,1.3,7.2,1.5
			c1.3,0.1,2.6,0.1,3.8,0c0.1,0.2,0,0.2-0.1,0.3c-1.6,1.6-3.2,3.3-4.7,4.9c-0.2,0.2-0.4,0.3-0.7,0.3c-4.2-0.5-8.3-1.4-12-3.4
			c-5.2-2.9-8.3-7.3-9.3-13.2c-0.2-1.2-0.3-2.3-0.5-3.5c0-0.6,0-1.1,0-1.7C40,274.9,39.8,274.5,39.9,274.1z"/>
		<path fill="#857650" d="M143.2,208.6c-0.1,1.1,0,2.2,0,3.2c0,0.2,0,0.3,0,0.5c0,0.2-0.1,0.3-0.3,0.3c0,0-0.1,0-0.1,0
			c-0.3,0-0.6-0.1-0.7,0.1c-0.1,0.3,0,0.7,0,1c0,0.2,0.1,0.2,0.3,0.2c0.6,0,1.2,0,1.8,0c0.1,0,0.2-0.1,0.3-0.2
			c0.3-0.4,0.7-0.7,1-1.1c0.2-0.2,0.1-0.3,0-0.5c-0.2-0.2-0.5-0.3-0.5-0.6c0-0.3,0.3-0.5,0.5-0.7c0.6-0.7,1.2-1.3,1.8-1.9
			c0.2-0.2,0.3-0.2,0.6,0c0.8,0.7,0.8,0.7,0.1,1.5c-0.2,0.2-0.3,0.3-0.5,0.5c-0.2,0.2-0.2,0.3,0,0.5c0,0,0.1,0.1,0.1,0.1
			c0.4,0.4,0.4,0.4,0.8,0c0.3-0.3,0.6-0.7,1-1c0.4,0.3,0.7,0.6,1,1c-0.3,0.5-0.7,0.8-1.1,1.2c-0.2,0.2-0.2,0.4,0,0.5c0,0,0,0,0,0
			c0.5,0.5,0.5,0.5,0.9,0c0.2-0.3,0.5-0.5,0.7-0.8c0.1-0.2,0.2-0.2,0.4-0.1c0.9,0.7,0.9,0.7,0.1,1.6c-0.6,0.6-1.1,1.2-1.7,1.9
			c-0.1,0.1-0.2,0.2-0.3,0.2c-0.1-0.1-0.1-0.1-0.2-0.2c-0.2-0.1-0.3-0.4-0.5-0.4c-0.3,0.1-0.5,0.4-0.7,0.7c-0.1,0.1,0,0.2,0.1,0.3
			c0.3,0.3,0.6,0.5,0.8,0.8c0.1,0.1,0.3,0.2,0.3,0.4c-0.3,0.3-0.5,0.6-0.8,0.9c-0.2,0.2-0.3,0.3-0.6,0c-0.9-0.9-1.9-1.7-2.8-2.6
			c-0.3-0.3-0.6-0.4-1.1-0.4c-2.8,0-5.5,0-8.3,0c-0.4,0-0.8,0.1-1.1,0.4c-0.9,0.9-1.9,1.7-2.8,2.6c-0.2,0.2-0.4,0.2-0.6,0
			c-0.3-0.3-0.5-0.6-0.8-0.9c0.4-0.4,0.8-0.8,1.2-1.1c0.2-0.2,0.3-0.3,0-0.5c-0.2-0.2-0.4-0.4-0.6-0.6c-0.3,0.1-0.5,0.5-0.8,0.6
			c-0.2,0-0.2-0.1-0.3-0.2c-0.7-0.8-1.4-1.6-2.2-2.3c-0.2-0.2-0.2-0.3,0-0.5c0.3-0.2,0.5-0.5,0.8-0.7c0.4,0.4,0.7,0.7,1,1.1
			c0.3,0.4,0.3,0.4,0.7,0c0.1-0.1,0.3-0.2,0.5-0.3c-0.4-0.5-0.8-0.9-1.2-1.3c-0.2-0.2-0.2-0.4,0-0.6c0.7-0.7,0.7-0.8,1.4,0
			c0,0,0.1,0.1,0.1,0.1c0.7,0.7,0.7,0.7,1.4-0.1c-0.4-0.4-0.7-0.8-1.1-1.2c-0.2-0.2-0.2-0.3,0-0.5c0.8-0.7,0.8-0.8,1.5,0
			c0.6,0.6,1.1,1.2,1.7,1.8c0.3,0.4,0.3,0.4,0,0.7c-0.5,0.5-0.4,0.4,0,1c0.6,0.8,1.3,1,2.2,1c0.8-0.1,0.7,0,0.7-0.7
			c0-0.1,0-0.2,0-0.3c0-0.2-0.1-0.3-0.3-0.3c-0.8-0.1-0.7-0.1-0.8-0.8c0-1.1,0-2.1,0-3.2c0.5,0,1,0,1.5,0c0,0.5,0,0.9,0,1.4
			c0,0.7,0,0.7,0.7,0.6c0.4,0,0.4,0,0.4-0.5c0-0.5,0-1.1,0-1.6c0.5,0,1,0,1.5,0c0,0.5,0,0.9,0,1.4c0,0.7,0,0.7,0.7,0.6
			c0,0,0,0,0.1,0c0.3,0,0.4-0.1,0.4-0.4c0-0.5,0-1.1,0-1.7C142.2,208.6,142.7,208.6,143.2,208.6z"/>
		<path fill="#857650" d="M39.9,274.1c0,0.4,0.1,0.8-0.2,1.1c0-0.4,0-0.8,0-1.2C39.7,274.1,39.8,274.1,39.9,274.1z"/>
		<path fill="#822433" d="M89,296.5c-0.1-0.3-0.1-0.5-0.1-0.7c0-5,0-10.1,0-15.1c0-0.6,0-1.2-0.1-1.8c0-0.2-0.1-0.3-0.1-0.5
			c-0.4-1.5-1.5-1.7-2.7-1.2c-0.2,0.1-0.4,0.2-0.5,0.3c-0.1,0-0.2,0.1-0.3,0c-0.1-0.1,0-0.2,0.1-0.3c0.1-0.1,0.2-0.2,0.3-0.3
			c1.6-1.2,3.2-2.5,4.8-3.7c0.4-0.3,0.4-0.3,0.9-0.1c1.4,0.8,2,2,2.2,3.5c0,0.1,0,0.1,0,0.2c0,0.1,0,0.1,0,0.2
			c0.2,0.1,0.3,0,0.4-0.1c0.9-0.5,1.7-1.1,2.6-1.8c0.9-0.7,1.8-1.4,2.6-2.1c0.3-0.3,0.6-0.3,0.9-0.1c1.3,0.7,2,1.9,2.2,3.3
			c0,0.2,0.1,0.4,0.1,0.6c0,0,0,0,0,0.1c0.1,0.1,0.3,0,0.4-0.1c0.7-0.4,1.3-0.8,1.9-1.3c1.1-0.8,2.2-1.7,3.2-2.5
			c0.4-0.3,0.6-0.3,1-0.1c1.3,0.7,2,1.9,2.2,3.4c0.1,0.6,0.1,1.3,0.1,1.9c0,3.4,0,6.7-0.1,10.1c0,0.6,0.1,1.3,0.2,1.9
			c0.2,1.1,0.8,1.9,1.8,2.4c0.1,0.1,0.3,0.1,0.4,0.2c0,0.1-0.1,0.2-0.1,0.3c-1.1,1.1-2.2,2.1-3.2,3.2c-0.4,0.4-0.4,0.3-0.8,0
			c-1.5-1-2.3-2.5-2.6-4.2c-0.2-0.9-0.2-1.9-0.2-2.8c0-3.1,0-6.2,0-9.3c0-0.6-0.1-1.3-0.3-1.9c-0.4-1.1-1.1-1.5-2.2-1.2
			c-0.2,0.1-0.4,0.1-0.6,0.2c-1.1,0.5-1.1,0.6-1.1,1.7c0,4.7,0,9.4,0,14.1c0,0.5-0.1,0.7-0.5,1c-1.2,0.7-2.3,1.4-3.5,2.1
			c-0.2,0.1-0.3,0.2-0.6,0.3c-0.1-0.2-0.1-0.5-0.1-0.7c0-5,0-10,0-15.1c0-0.7,0-1.4-0.1-2.1c-0.3-1.6-1.3-2.1-2.8-1.5
			c-0.1,0-0.2,0.1-0.3,0.2c-1,0.5-1,0.6-1,1.7c0,4.7,0,9.4,0,14c0,0.5-0.1,0.7-0.5,1c-1.2,0.7-2.3,1.4-3.5,2.1
			C89.4,296.2,89.2,296.3,89,296.5z"/>
		<path fill="#822433" d="M167.3,261.5c-0.3,1.1-0.6,2.2-0.9,3.3c-0.8,3.9-1.3,7.8-1,11.7c0.5,6.5,3.1,12,8.3,16.2
			c0.9,0.7,1.9,1.3,3,1.8c0.3,0.1,0.4,0.1,0.6-0.2c2.3-5.1,4.6-10.3,6.1-15.7c0.7-2.5,1.2-5,1.2-7.6c0-1.4-0.1-2.7-0.5-4.1
			c-0.4-1.5-1.1-2.8-2.2-3.8c0-0.2,0.2-0.3,0.3-0.4c1.3-1,2.6-2,3.9-3c0.4-0.3,0.4-0.3,0.7,0.1c1.1,1.5,1.7,3.2,2,5
			c0.4,2.3,0.1,4.5-0.4,6.7c-0.7,3.1-1.9,6.1-3.2,9c-1.4,3.1-3,6.1-4.4,9.1c-1.2,2.6-2.4,5.2-3.5,7.8c-0.2,0.5-0.1,0.6-0.8,0.4
			c-2.6-0.7-4.9-1.9-7-3.6c-5-3.9-8-9-9.2-15.2c-0.8-4.2-0.8-8.4-0.1-12.6c0.1-0.5,0.2-1,0.4-1.5c0.1-0.2,0.2-0.4,0.5-0.5
			c2.1-0.9,4.2-1.9,6.2-2.9C167.1,261.5,167.2,261.4,167.3,261.5z"/>
		<path fill="#822433" d="M122.9,277.1c0.7-0.3,1.4-0.7,2-1.1c1.3-0.9,2.5-1.8,3.7-2.9c0.3-0.3,0.5-0.3,0.9-0.1
			c1.8,0.8,2.7,2.3,3.1,4.1c0.3,1.6,0.2,3.2,0.2,4.8c0,1.9,0,3.8,0,5.8c0,1-0.1,2-0.4,3c-0.4,1.3-1.2,2.4-2.2,3.3
			c-0.9,0.8-1.9,1.6-2.9,2.4c-0.2,0.2-0.4,0.2-0.6,0c-0.9-1-2-1.9-3.2-2.7c-0.2-0.1-0.3-0.3-0.6-0.3c0,0.2,0,0.4,0,0.6
			c0,2,0,4,0,6.1c0.1,2.6-0.9,4.6-2.8,6.3c-1.1,1-2.4,1.9-3.6,2.8c0,0-0.1,0.1-0.2,0.1c-0.1,0-0.1,0-0.2,0c0-0.1-0.1-0.1,0-0.2
			c0-0.1,0.1-0.1,0.1-0.2c1.1-1.2,1.5-2.7,1.8-4.3c0.2-1.3,0.2-2.5,0.2-3.8c0-6.7,0-13.4,0-20.1c0-0.7,0-1.3-0.1-2
			c0-0.1,0-0.2-0.1-0.4c-0.4-1.6-1.6-1.7-2.7-1.2c-0.2,0.1-0.3,0.2-0.5,0.3c-0.1,0-0.2,0.1-0.3,0c-0.1-0.1,0-0.2,0.1-0.2
			c0.4-0.3,0.8-0.6,1.2-0.9c1.3-1,2.6-2,3.9-3c0.5-0.4,0.5-0.4,1-0.1c1.3,0.8,2,1.9,2.1,3.4C122.7,276.7,122.8,276.9,122.9,277.1
			C122.8,277,122.8,277,122.9,277.1z M128.1,292.5c0-0.3,0-0.4,0-0.6c0-3.4,0-6.9,0-10.3c0-0.5,0-1-0.1-1.5
			c-0.1-0.7-0.2-1.3-0.5-1.9c-0.5-1-1.4-1.4-2.5-1.3c-0.7,0.1-1.3,0.4-1.9,0.7c-0.3,0.2-0.4,0.4-0.4,0.7c0,3.3,0,6.6,0,10
			c0,0.3,0.1,0.5,0.4,0.7c1,0.5,2,1.1,2.9,1.8C126.7,291.3,127.4,291.8,128.1,292.5z"/>
		<path fill="#857650" d="M109.6,229.3c0.5-0.7,0.5-1.4,0.4-2.2c-0.1-0.6-0.2-1.2-0.2-1.8c0-0.2,0-0.5,0-0.7
			c0.1-0.8,0.6-1.2,1.5-1.2c0.1,0,0.2,0,0.3,0c-0.1-0.3-0.3-0.5-0.5-0.7c-0.5-0.6-0.6-1.3-0.4-2c0.2-0.4,0.4-0.7,1-0.9
			c-0.3,1,0,1.8,0.8,2.6c0-0.8,0.1-1.4,0.7-1.8c0.4-0.2,0.8-0.3,1.3-0.2c-1.1,0.4-1.3,1.3-1.3,2.3c0,0.4,0,0.8,0,1.2
			c0.1,1.3-0.1,2.6-0.6,3.8c0,0.1-0.1,0.2-0.1,0.3c-0.1,0-0.1,0.1-0.1,0.2c0.1,0.1,0.1-0.1,0.1-0.1c0.3-0.2,0.5-0.4,0.7-0.7
			c0.8-0.8,1.2-1.8,0.7-3.1c0.5,0.2,0.7,0.4,0.8,0.8c0.1,0.4,0.1,0.9-0.1,1.3c-0.1,0.2-0.2,0.3-0.3,0.5c0,0-0.1,0.1-0.1,0.1
			c0,0.1,0.1,0,0.1,0c0.5-0.1,0.7-0.5,0.9-0.9c0.1,0.4,0,0.7-0.2,1c-0.3,0.5-0.7,0.9-1.2,1.1c-0.3,0.2-0.6,0.3-0.9,0.5
			c-0.2,0.1-0.4,0.2-0.5,0.6c0.3-0.1,0.5-0.2,0.7-0.3c0.5-0.1,1-0.1,1.4,0.3c0.3,0.4,0.4,0.9,0.1,1.4c-0.3-0.5-0.7-0.8-1.4-0.8
			c0.5,0.4,0.8,0.9,0.6,1.5c-0.1,0.4-0.3,0.6-0.7,0.7c0,0-0.1-0.1-0.1-0.1c-0.1-0.7-0.3-0.9-1-0.9c-0.4,0-0.7,0.2-1.1,0.4
			c-1.1,0.8-1.6,2.4-1.2,3.7c0.2,0.6,0.6,1.1,1.2,1.2c0.7,0.1,1.3-0.1,1.7-0.7c0.2-0.3,0.3-0.6,0.4-0.9c0.1-0.4,0.2-0.7,0.3-1.1
			c0.2-0.8,0.6-1.4,1.1-2c0.2-0.2,0.3-0.3,0.5-0.5c1.3-1.1,2-2.5,2.1-4.2c0-0.4,0.1-0.6,0.5-0.6c0.2,0,0.5-0.1,0.7-0.2
			c0,0.4-0.3,0.7-0.5,1c0.9,0.3,1.8-0.2,2.6-1.3c0.9,0.9,1.9,1,3.2,0.6c-0.4-0.3-0.8-0.5-1.1-0.9c0.7,0,1.4,0.1,2-0.2
			c-0.7-0.3-1.2-0.7-1.5-1.4c0.6-0.1,1.3,0,1.9-0.5c-0.7-0.4-1.3-0.7-1.7-1.5c0.7-0.3,1.3-0.5,1.8-1c0.3-0.2,0.5-0.4,0.8-0.7
			c0.3-0.3,0.5-0.7,0.6-1.2c0-0.3,0.1-0.7,0.2-1c0.1-0.4,0.5-0.6,0.8-0.6c0.4,0,0.8,0.1,1,0.5c-0.2,0.2-0.4,0-0.6,0.1
			c-0.1,0.2,0,0.4,0,0.7c0.6-0.1,1.2-0.1,1.5,0.5c-0.2,0.1-0.3,0-0.5,0c-0.1,0-0.2,0-0.2,0.1c0,0.5-0.3,0.6-0.8,0.7
			c0.3,0.3,0.6,0.3,0.8,0.4c0.6,0.3,0.7,0.7,0.3,1.3c-0.1-0.2,0-0.5-0.2-0.6c-0.6,0.5-1,0.4-1.5-0.1c-0.3,0.5-0.3,0.7,0.4,1.1
			c-0.3,0.3-0.7,0.3-1.1,0.3c-0.2,0-0.5-0.1-0.7-0.1c-0.4-0.1-0.8,0-1.1,0.3c0.7,0.2,1.3,0.5,2.1,0.4c-0.4,1.1-1.3,1.4-2.3,1.5
			c0.3,0.7,0.9,0.6,1.5,0.6c-0.2,0.7-0.5,0.9-1.8,1.2c0.2,0.6,0.9,1.1,1.5,1.1c0.2,0,0.3-0.1,0.4-0.2c0.6-0.4,1.1-0.3,1.5,0.3
			c0.1,0.1,0.1,0.2,0.2,0.2c0.4,0.3,0.3,0.7,0.1,1.1c-0.1-0.3-0.2-0.6-0.4-0.7c-0.2-0.1-0.5,0-0.7,0.1c0.4,0.5,0.6,1.1,0.2,1.7
			c-0.2-0.2,0-0.6-0.3-0.7c-0.2,0-0.5,0-0.8,0.1c0.3,0.6,0.5,1.1,0,1.6c-0.2-0.1-0.1-0.2-0.1-0.3c0-0.3,0-0.4-0.4-0.4
			c-0.6,0.1-0.9-0.3-0.8-0.9c0-0.2,0.3-0.4-0.1-0.5c-0.4-0.1-0.8,0.1-0.9,0.4c0,0.2,0,0.3,0,0.5c-0.5-0.1-0.6-0.4-0.8-0.7
			c-0.2-0.3-0.3-0.6-0.6-0.7c0,0-0.1-0.1-0.1,0c0,0,0,0.1,0.1,0.1c0,0.4,0,0.7,0.3,1.1c-0.5,0-0.5,0-1.2-0.6c0,1-0.6,1.7-1.5,2.2
			c-0.4,0.2-0.7,0.5-1.1,0.7c-0.2,0.1-0.3,0.3-0.5,0.5c-0.2,0.2-0.1,0.3,0.1,0.4c0.3,0,0.6,0,0.9,0c0.8-0.1,1.6-0.2,2.4-0.3
			c0.2,0,0.5,0,0.7,0c1.3,0.1,2,1.3,1.6,2.5c-0.1,0.2-0.2,0.4-0.3,0.6c0.6,0.1,0.7,0,1.3-0.6c0.1,0.9-0.3,1.6-1.3,2.2
			c0.4,0.2,0.5,0.2,1.4-0.2c0.1,0.8-0.5,1.4-1.8,1.8c0.3,1.3,1.5,1.9,2.7,1.4c0.2-0.1,0.4-0.2,0.6-0.3c0.4-0.1,0.8-0.2,1.1,0.3
			c0.1,0.1,0.2,0.1,0.4,0.2c0.3,0.1,0.5,0.1,0.6,0.5c-0.3,0-0.6-0.1-0.9,0c-0.2,0.2-0.4,0.4-0.8,0.4c0.3,0.3,0.6,0.4,0.7,0.8
			c0.1,0.3,0,0.6-0.3,0.9c-0.1-0.3,0-0.6-0.3-0.8c-0.2,0.2-0.6,0.2-0.9,0.2c0.1,0.9,0,1.2-0.7,1.4c0.1-0.2,0.2-0.3,0.2-0.5
			c0-0.1,0-0.3-0.2-0.3c-0.7-0.2-0.8-0.3-0.7-1.1c0-0.1,0-0.2,0.1-0.2c-0.7-0.1-0.9,0.1-0.8,1c-0.5,0-0.8-0.4-0.9-0.8
			c-0.1-0.3-0.2-0.7-0.6-1c0,0.5,0,1,0.1,1.4c-0.6-0.1-0.9-0.3-1.1-1.1c-0.8,0.4-0.9,0.4-1.2-0.2c0.6-0.2,0.8-0.4,0.8-0.7
			c0.1-0.5-0.3-0.7-0.7-0.9c0.8-0.4,1.2-1.1,1.2-1.9c0-0.1,0-0.2,0-0.4c-0.1-0.8-0.3-1.6,0-2.6c-1.2,0.8-2.4,1-3.6,0.7
			c-0.1,0.2,0.1,0.3,0.1,0.4c0.1,0.1,0.2,0.2,0.3,0.3c0.7,0.9,0.6,1.5-0.2,2.3c0.4,0.4,0.6,0.4,1.3,0.1c0,0.6-0.3,1-1,1.1
			c-0.2,0-0.4,0-0.6,0c0,0-0.1-0.1-0.1-0.1c-0.1,0,0,0.1,0,0.1c0.1,0.4,0.5,0.4,0.9,0.5c-0.7,0.6-1.5,0.5-2.3,0.2
			c0.1,1,0.4,1.9,1.1,2.7c0.1,0.2,0.3,0.3,0.6,0.3c0.3,0.1,0.7,0.1,1,0.1c0.2,0,0.4,0,0.5,0.1c0.1,0.1,0.3,0.1,0.3,0.2
			c0.1,0.5,0.8,0.6,1,1.2c-0.5-0.2-1-0.2-1.4,0.1c0.6,0.7,0.7,1,0.3,1.6c-0.1,0-0.1-0.1-0.1-0.2c-0.1-0.5-0.1-0.5-0.6-0.3
			c-0.5,0.1-0.8-0.1-1.1-0.5c-0.1,0.4-0.2,0.8-0.5,1c-0.2,0.1-0.3,0.3-0.6,0.3l0,0c0-0.2,0.3-0.4,0.2-0.7c0,0-0.1,0-0.1-0.1
			c-0.6-0.1-0.7-0.3-0.7-0.8c0-0.2,0.2-0.5-0.2-0.6c-0.3-0.1-0.5,0.1-0.7,0.4c0,0.1-0.1,0.2-0.1,0.3c-0.3-0.2-0.4-0.5-0.5-0.8
			c0-0.3,0-0.7-0.1-1c0-0.4-0.1-0.8-0.3-1.2c-0.2,0.6-0.2,1.1-0.2,1.6c-0.9-0.6-0.7-1.4-0.6-2.3c-0.5,0.2-0.9,0.3-1.4,0
			c0.3-0.1,0.7-0.2,0.9-0.6c-0.6,0-1.2,0-1.4-0.8c0.4,0.2,0.9,0.3,1.2-0.2c0.3-0.4,0-0.6-0.2-1c0.8,0.1,1.4-0.4,1.8-0.9
			c0.3-0.4,0.7-0.7,1.3-0.7c-0.8-0.7-1.1-1.5-1.2-2.5c-0.3,0.5-0.5,0.8-0.8,1.2c-0.6,0.7-1.3,1.1-2.2,1.1c-1.4,0-2.3-0.9-2.5-2.3
			c-0.1-0.8,0.1-1.5,0.3-2.3c0.4-1.3,1.1-2.5,1.7-3.8c0.4-0.9,0.8-1.8,1-2.7c0.1-0.4,0-0.7-0.1-1c-0.2-0.4-0.4-0.5-0.7-0.5
			c-0.3,0-0.6,0.2-0.7,0.6c-0.1,0.2-0.1,0.5-0.1,0.7c-0.1,0.6,0,1.2-0.2,1.8c-0.1,0.4-0.2,0.7-0.5,1
			C110.1,229.1,110,229.4,109.6,229.3L109.6,229.3z M118.1,235.2C118.1,235.2,118.1,235.2,118.1,235.2
			C118.1,235.3,118.2,235.3,118.1,235.2C118.2,235.3,118.2,235.2,118.1,235.2C118.2,235.2,118.2,235.2,118.1,235.2z"/>
		<path fill="#857650" d="M166,241.9c0,0.3,0,0.7,0,1c0,0.5-0.2,0.9-0.7,1.2c0-0.6-0.1-1-0.2-1.5c-0.3,0.3-0.3,0.7-0.3,1
			c0,0.3,0,0.7,0,1c0,0.3-0.1,0.6-0.4,0.8c-0.2-0.2-0.1-0.4-0.3-0.6c-0.2-0.2-0.4-0.3-0.6-0.2c-0.2,0.1-0.1,0.3-0.1,0.4
			c0,0.7-0.1,0.8-0.9,1c0,0.2,0,0.3,0.1,0.4c0.1,0.1,0.2,0.2,0.2,0.4c-0.6-0.2-0.9-0.7-1.1-1.3c-0.4,0.5-0.9,0.6-1.4,0.3
			c-0.3,0.2-0.2,0.5-0.3,0.7c-0.5-0.5-0.4-0.7,0.2-1.6c-0.4-0.2-0.9-0.3-1.3,0c-0.1-0.3,0.1-0.5,0.3-0.6c0.2-0.1,0.3-0.2,0.4-0.5
			c0.1-0.3,0.4-0.4,0.8-0.4c0.2,0,0.5,0,0.7,0c0.6,0,1.1-0.3,1.4-0.9c0.4-0.7,0.7-1.4,0.7-2.2c-0.8,0.2-1.5,0.3-2.2-0.3
			c0.6-0.2,0.6-0.2,0.9-0.6c-0.8,0-1.5,0-1.8-1c0.3,0,0.5,0.2,0.7,0.2c0.3,0,0.5-0.1,0.6-0.3c0-0.1-0.1-0.1-0.1-0.2
			c-0.6-0.5-0.7-1.1-0.3-1.8c0.2-0.4,0.5-0.7,0.8-1c0,0,0.1-0.1,0.1-0.1c0-0.1-0.1,0-0.2,0c-1.3,0.3-2.5,0-3.7-0.7
			c0.3,1,0,1.9,0,2.7c-0.1,0.9,0.2,1.7,1.2,2.1c-0.1,0.2-0.2,0.2-0.3,0.3c-0.5,0.4-0.4,1,0.2,1.2c0.1,0,0.3,0,0.3,0.2
			c0,0.1-0.1,0.2-0.2,0.3c-0.2,0.1-0.3,0.2-0.5,0.1c-0.2-0.1-0.3-0.2-0.5-0.3c-0.1,0.3-0.2,0.7-0.5,0.9c-0.2,0.1-0.3,0.3-0.6,0.2
			c0.1-0.4,0.1-0.8,0.1-1.2c-0.2-0.1-0.3,0.1-0.3,0.2c-0.1,0.3-0.3,0.6-0.4,0.8c-0.2,0.3-0.4,0.6-0.8,0.6c0.1-0.8-0.1-1.1-0.8-1
			c-0.1,0.1,0,0.2,0,0.2c0.2,0.7,0.1,0.9-0.6,1.1c-0.2,0-0.2,0.1-0.2,0.3c0,0.1,0.1,0.3,0.1,0.4c-0.6,0-0.8-0.4-0.7-1.3
			c-0.2-0.1-0.4,0-0.6-0.1c-0.4-0.1-0.4-0.1-0.5,0.2c0,0.1,0,0.2-0.1,0.3c-0.5-0.6-0.4-0.9,0.3-1.6c-0.9-0.6-0.9-0.6-1.5-0.6
			c0.1-0.3,0.3-0.3,0.5-0.4c0.1-0.1,0.3,0,0.4-0.2c0.2-0.4,0.6-0.4,1-0.3c0.2,0,0.5,0.2,0.7,0.3c0.9,0.4,1.7,0.2,2.3-0.6
			c0.1-0.1,0.2-0.3,0.3-0.4c0.2-0.4,0.2-0.4-0.2-0.5c-0.9-0.2-1.4-0.8-1.5-1.7c0.3,0.1,0.5,0.2,0.7,0.3c0.2,0.1,0.5,0.1,0.7,0
			c-1.1-1-1.3-1.4-1.3-2.3c0.4,0.4,0.7,0.8,1.3,0.6c-0.2-0.4-0.4-0.8-0.4-1.2c0-1.1,0.7-1.8,1.7-1.9c0.8-0.1,1.5,0.1,2.2,0.2
			c0.5,0.1,1.1,0.2,1.6,0.2c0.1,0,0.2,0,0.4-0.1c0-0.2-0.2-0.4-0.4-0.5c-0.4-0.3-0.8-0.6-1.2-0.9c-0.9-0.5-1.5-1.1-1.6-2.3
			c-0.4,0.4-0.7,0.7-1.2,0.7c0.3-0.4,0.3-0.8,0.3-1.3c-0.4,0.1-0.6,0.4-0.7,0.7c-0.2,0.4-0.4,0.7-0.8,0.8c-0.1-0.2,0-0.3,0-0.4
			c0-0.5-0.6-0.8-1-0.5c-0.1,0.1-0.1,0.2-0.1,0.3c0,0.1,0.1,0.3,0.1,0.4c0,0.4-0.2,0.7-0.6,0.8c-0.2,0-0.4-0.2-0.6,0.1
			c-0.1,0.1,0,0.3-0.1,0.5c-0.5-0.4-0.5-0.7-0.1-1.6c-1-0.2-0.8-0.1-1,0.5c-0.5-0.4-0.5-0.7,0.1-1.6c-0.6-0.3-0.7-0.3-1.1,0.5
			c-0.3-0.5-0.3-0.7,0.1-1c0.1-0.1,0.2-0.2,0.3-0.3c0.3-0.5,0.8-0.6,1.3-0.3c0.3,0.2,0.6,0.3,1,0.2c0.5-0.2,0.8-0.5,1.1-1
			c-0.8-0.1-1.6-0.3-2-1.2c1.1,0,1.2,0,1.6-0.6c-1-0.1-1.9-0.3-2.3-1.4c0.8,0.1,1.4-0.2,2-0.4c-0.2-0.4-0.6-0.4-1-0.4
			c-0.3,0-0.5,0.1-0.8,0.1c-0.4,0.1-0.8,0-1.1-0.2c0.2-0.2,0.6-0.2,0.6-0.6c0-0.2,0-0.4-0.2-0.5c-0.2,0.2-0.4,0.5-0.7,0.5
			c-0.3,0-0.5-0.1-0.7-0.3c-0.3,0.1-0.1,0.4-0.2,0.6c-0.3-0.1-0.3-0.4-0.3-0.6c0-0.3,0.2-0.5,0.5-0.7c0.2-0.1,0.6-0.2,0.8-0.4
			c-0.3-0.2-0.7-0.3-0.7-0.8c0-0.1-0.1-0.1-0.2-0.1c-0.1,0-0.3,0-0.4,0l0,0c0-0.5,0.5-0.5,0.8-0.6c0.2,0,0.4,0,0.6,0
			c0,0.1,0,0.1,0.1,0.1c0,0,0-0.1,0-0.1c0-0.2,0-0.4,0-0.6c-0.2-0.2-0.4,0-0.6-0.1c0.2-0.5,0.6-0.5,1-0.5c0.4,0,0.8,0.2,0.9,0.6
			c0.1,0.3,0.1,0.6,0.2,0.9c0,0.5,0.2,0.9,0.6,1.3c0.6,0.6,1.3,1.1,2.1,1.5c0.1,0.1,0.3,0.1,0.4,0.2c-0.4,0.6-0.9,1-1.7,1.4
			c0.6,0.4,1.2,0.4,1.9,0.5c-0.2,0.8-0.8,1.1-1.5,1.5c0.7,0.3,1.3,0.2,2,0.2c-0.2,0.5-0.6,0.7-1,0.9c0.9,0.5,1.9,0.3,3.1-0.5
			c0.8,1.1,1.5,1.4,2.6,1.3c-0.2-0.3-0.5-0.6-0.5-1.1c0.3,0.1,0.6,0.2,1,0.2c0.2,0,0.2,0.1,0.3,0.3c0.1,0.4,0.1,0.8,0.2,1.3
			c0.2,1.2,0.8,2.1,1.7,2.9c0.2,0.1,0.3,0.3,0.4,0.4c0.8,0.7,1.3,1.6,1.5,2.7c0.1,0.4,0.2,0.8,0.3,1.1c0.3,0.7,0.7,1.2,1.5,1.2
			c0.8,0.1,1.3-0.3,1.6-1.1c0.5-1.3-0.2-3.3-1.4-4c-0.3-0.2-0.7-0.3-1.1-0.3c-0.5,0-0.7,0.2-0.7,0.8c0,0.1,0,0.1,0,0.2
			c-0.5-0.1-0.7-0.4-0.8-0.8c-0.2-0.6,0.1-1,0.5-1.3c-0.5-0.2-0.7-0.1-1.4,0.6c-0.2-0.6-0.2-1.1,0.2-1.4c0.7-0.6,1.4-0.3,2.2,0.2
			c-0.2-0.4-0.4-0.6-0.7-0.8c-0.3-0.2-0.6-0.3-0.9-0.5c-0.5-0.3-1-0.7-1.2-1.3c-0.1-0.2-0.2-0.5,0-0.8c0.2,0.5,0.4,0.8,0.9,1
			c0,0,0.1,0.1,0.2,0c0.1-0.1,0-0.1,0-0.1c-0.3-0.5-0.5-0.9-0.4-1.5c0.1-0.5,0.3-0.9,0.8-1c-0.3,1.7,0.2,2.8,1.5,3.7
			c0.1-0.1,0-0.2,0-0.3c-0.6-1.3-0.7-2.6-0.6-4c0-0.4,0-0.8,0-1.2c-0.1-0.9-0.3-1.7-1.3-2.1c1.4-0.3,2,0.4,2,1.9
			c0.9-0.6,1.2-1.4,0.9-2.6c0.5,0.2,0.8,0.5,0.9,1c0.2,0.5,0.2,1-0.1,1.4c-0.2,0.4-0.6,0.7-0.8,1.1c0.1,0.1,0.2,0.1,0.3,0.1
			c0.8,0,1.3,0.3,1.4,1.1c0.1,0.6,0,1.2-0.1,1.8c-0.1,0.5-0.1,1.1-0.1,1.6c0,0.5,0.2,0.9,0.5,1.3c-0.5-0.1-0.7-0.4-0.8-0.7
			c-0.3-0.6-0.4-1.3-0.4-2c0-0.4,0-0.7-0.1-1.1c0-0.1-0.1-0.3-0.1-0.4c-0.3-0.5-0.9-0.5-1.2-0.1c-0.2,0.3-0.2,0.7-0.2,1
			c0,0.7,0.3,1.4,0.6,2c0.5,1.1,1.1,2.2,1.6,3.2c0.4,0.9,0.8,1.8,0.9,2.9c0,0.4,0,0.9-0.1,1.3c-0.4,1.7-2,2-3.2,1.7
			c-0.8-0.2-1.4-0.8-1.8-1.4c-0.1-0.2-0.2-0.3-0.4-0.6c-0.2,1-0.5,1.8-1.3,2.4c0.8,0.1,1.3,0.5,1.6,1c0.4,0.5,0.9,0.7,1.5,0.7
			c-0.2,0.4-0.5,0.7-0.1,1.1c0.3,0.4,0.7,0.2,1.1,0.1c-0.1,0.7-0.2,0.8-1.3,0.8c0.2,0.3,0.5,0.4,0.8,0.5
			C166.9,242.2,166.5,242,166,241.9C166,241.8,166,241.8,166,241.9C165.9,241.9,166,241.9,166,241.9z"/>
		<path fill="#822433" d="M69.3,276.5c0-0.1,0.1-0.2,0.2-0.3c0.9-1,1.8-2,2.8-3c0.2-0.2,0.3-0.3,0.6-0.3c1.5,0,3,0.1,4.4,0.4
			c0.5,0.1,1.1,0.3,1.6,0.5c1.6,0.6,2.5,1.8,3,3.4c0.2,0.9,0.4,1.8,0.4,2.7c0,2.8,0,5.5,0,8.3c0,0.7,0,1.3,0.1,2
			c0.1,1.2,0.8,2,1.9,2.5c0.1,0.1,0.3,0.1,0.4,0.2c0,0.2-0.2,0.3-0.3,0.4c-1,1-2,2-3,3c-0.5,0.5-0.3,0.5-0.9,0.1
			c-1.4-1-2.2-2.4-2.5-4c-0.2-0.9-0.2-1.9-0.2-2.8c0-2.4,0-4.9,0-7.3c0-0.3,0-0.6,0-0.8c-0.2-0.1-0.3,0-0.4,0
			c-0.5,0.2-1,0.5-1.5,0.9c-0.7,0.5-1.3,1.2-1.6,2c-0.7,1.9-0.9,3.8-0.5,5.7c0.2,1,0.6,1.8,1.4,2.4c0.3,0.2,0.7,0.4,1.1,0.5
			c0.1,0.2-0.1,0.2-0.2,0.3c-1.1,1.1-2.2,2.1-3.3,3.2c-0.2,0.2-0.4,0.3-0.7,0.1c-0.9-0.5-1.5-1.2-2-2c-0.5-0.9-0.7-1.8-0.8-2.7
			c-0.2-1.5-0.2-2.9,0.2-4.4c0.5-2,1.5-3.5,3.4-4.4c1.5-0.7,2.9-1.5,4.4-2.1c0.5-0.2,0.5-0.2,0.4-0.7c-0.3-1.7-1.3-2.8-3-3.3
			c-1.5-0.4-3-0.5-4.5-0.3C69.8,276.4,69.6,276.5,69.3,276.5L69.3,276.5z"/>
		<path fill="#822433" d="M60.4,288.9c-0.4,0-0.7,0-1-0.1c-3.5-0.7-6.3-2.6-8.4-5.5c-1.5-2.1-2.4-4.5-2.7-7.1
			c-0.5-5.1,0.5-10,2.5-14.7c0.1-0.3,0.4-0.4,0.6-0.5c2.8-1.3,5.6-2.6,8.3-3.8c0.4-0.2,0.8-0.4,1.2-0.5c0.5-0.2,0.5-0.3,0.7,0.2
			c0.6,1.3,1.4,2.6,2.3,3.7c0.6,0.8,1.3,1.5,2.2,2.1c0.9,0.7,2,1.1,3.1,1.2c0,0.1,0,0.2-0.1,0.2c-1.3,0.8-2.6,1.4-4,1.9
			c-1.5,0.5-2.9,0.3-4.3-0.6c-0.9-0.6-1.6-1.3-2.3-2.2c-0.7-0.9-1.3-1.8-1.9-2.8c-0.2-0.3-0.3-0.5-0.5-0.8c-0.3,0.4-0.5,0.8-0.8,1.2
			c-1.4,2.5-2.2,5.1-2.7,7.9c-0.4,2.3-0.5,4.7-0.4,7c0.4,4.5,2.1,8.4,5.5,11.4c0.6,0.5,1.2,1,1.9,1.4
			C60.2,288.6,60.3,288.7,60.4,288.9z"/>
		<path fill="#822433" d="M150.8,283.4c0,1.1,0,2.1,0,3.2c0,1.9-0.8,3.6-2.1,5c-1.1,1.1-2.4,2.1-3.6,3.1c-0.8,0.7-1.6,1.3-2.4,1.9
			c-0.3,0.2-0.5,0.2-0.7,0c-2.1-1.5-3.4-3.5-4.1-6c-0.2-1-0.3-2-0.3-3c0-1.6,0-3.2,0-4.8c0-1,0.1-2.1,0.4-3.1
			c0.5-1.6,1.4-2.8,2.8-3.6c1.8-1.1,3.7-2.1,5.5-3.2c0.3-0.2,0.5-0.1,0.7,0.1c1.5,1,2.5,2.4,3.1,4.1c0.5,1.4,0.7,2.9,0.7,4.4
			C150.9,282,150.9,282.7,150.8,283.4C150.9,283.4,150.8,283.4,150.8,283.4z M142.3,275.7c0,0.6,0,1.1,0,1.7c0,3,0,6-0.1,8.9
			c0,1.2,0,2.3,0.2,3.5c0.4,1.8,1.6,2.9,3.4,3.2c0.4,0.1,0.4,0.1,0.5-0.3c0.2-0.8,0.2-1.6,0.2-2.4c0-2.4,0-4.9,0-7.3
			c0-0.7,0-1.4-0.1-2.1c-0.2-1.9-1.2-3.4-2.9-4.5C143.3,276,142.9,275.8,142.3,275.7z"/>
		<path fill="#822433" d="M239.8,283.4c0,1.1,0,2.2,0,3.2c-0.1,1.9-0.8,3.6-2.2,4.9c-1.1,1.1-2.3,2-3.4,2.9c-0.8,0.7-1.6,1.3-2.5,2
			c-0.4,0.3-0.4,0.3-0.9,0c-2-1.5-3.3-3.4-3.9-5.9c-0.2-1-0.4-1.9-0.4-2.9c0-1.8,0-3.6,0-5.4c0-1.1,0.2-2.1,0.6-3.1
			c0.5-1.4,1.4-2.5,2.7-3.2c1.8-1.1,3.6-2.1,5.4-3.2c0.3-0.2,0.5-0.1,0.7,0c1.2,0.8,2,1.8,2.7,3.1c0.8,1.5,1.1,3.2,1.1,4.8
			C239.8,281.7,239.8,282.5,239.8,283.4C239.8,283.4,239.8,283.4,239.8,283.4z M231.1,275.6c0,0.3,0,0.6,0,0.8c0,3.3,0,6.6,0,9.9
			c0,0.9,0,1.7,0.1,2.6c0.3,2.3,1.4,3.7,3.6,4.1c0.5,0.1,0.5,0.1,0.6-0.4c0.2-0.9,0.2-1.8,0.2-2.7c0-2.4,0-4.8,0-7.2
			c0-0.6,0-1.2-0.1-1.8c-0.2-1.3-0.6-2.5-1.6-3.5C233.1,276.6,232.3,276,231.1,275.6z"/>
		<path fill="#822433" d="M213.7,292.8c-0.1,0.1-0.1,0.2-0.2,0.2c-1.1,1.1-2.3,2.2-3.4,3.4c-0.2,0.2-0.3,0.3-0.6,0.2
			c-2-0.8-3.8-1.8-5.3-3.3c-1.9-1.9-2.9-4.1-3.2-6.7c-0.2-1.2-0.1-2.4-0.1-3.7c0-1.6,0-3.2,0-4.8c0-0.4,0.1-0.6,0.4-0.8
			c2.4-1.4,4.9-2.8,7.3-4.3c0.2-0.1,0.4-0.3,0.7,0c1.3,1.1,2.5,2.2,3.4,3.7c0.8,1.4,1,2.9,0.4,4.4c-0.3,0.8-0.8,1.5-1.5,2.2
			c-0.7,0.7-1.5,1.2-2.4,1.6c-0.9,0.5-1.9,0.9-2.8,1.4c-0.4,0.2-0.4,0.2-0.3,0.6c0.4,1.2,1,2.3,2,3.1c1.5,1.4,3.3,2.4,5.4,2.7
			C213.6,292.8,213.6,292.8,213.7,292.8z M205.5,275.8c0,1.1,0,2,0,2.9c0,1.6-0.1,3.2,0,4.8c0,0.8,0.1,1.6,0.4,2.4
			c1-0.4,1.9-1,2.6-1.7c0.7-0.8,1.1-1.7,1-2.8c-0.1-1.1-0.5-2.1-1.2-3C207.6,277.4,206.6,276.7,205.5,275.8z"/>
		<path fill="#822433" d="M221.6,273c0,0.2,0,0.3,0,0.4c0,7.3,0,14.7,0,22c0,4.8-2,8.7-5.7,11.7c-0.9,0.7-1.8,1.3-2.6,2
			c-0.1,0.1-0.2,0.1-0.3,0.2c0,0-0.1,0-0.2,0c0-0.1-0.1-0.1,0-0.2c0.1-0.1,0.2-0.2,0.2-0.3c2.4-2.4,3.5-5.4,3.8-8.8
			c0.1-1.3,0.1-2.5,0.1-3.8c0-6.7,0-13.4,0-20c0-0.4,0.1-0.7,0.5-0.9C218.8,274.6,220.2,273.8,221.6,273z"/>
		<path fill="#857650" d="M150.8,231.2c0,2.3,0,4.6,0,6.9c0,0.4-0.1,0.6-0.4,0.9c-2.1,1.9-4.2,3.9-6.3,5.8c-0.2,0.2-0.4,0.2-0.7,0.2
			c-2.4,0-4.8,0-7.2,0c-0.3,0-0.5-0.1-0.7-0.3c-2.1-1.9-4.2-3.9-6.3-5.8c-0.3-0.3-0.4-0.5-0.4-0.9c0-4.6,0-9.1,0-13.7
			c0-0.4,0.1-0.6,0.4-0.9c2.1-1.9,4.1-3.8,6.2-5.7c0.3-0.3,0.6-0.4,0.9-0.4c2.3,0,4.6,0,6.9,0c0.4,0,0.6,0.1,0.9,0.3
			c2.1,1.9,4.2,3.9,6.3,5.8c0.2,0.2,0.3,0.4,0.3,0.7C150.8,226.6,150.8,228.9,150.8,231.2z M149.1,231.2c0-2.1,0-4.2,0-6.2
			c0-0.4-0.1-0.6-0.4-0.9c-1.8-1.6-3.5-3.3-5.3-4.9c-0.2-0.2-0.4-0.3-0.7-0.3c-1.9,0-3.8,0-5.8,0c-0.3,0-0.5,0.1-0.7,0.3
			c-1.8,1.6-3.5,3.3-5.3,4.9c-0.2,0.2-0.3,0.5-0.3,0.8c0,4.2,0,8.4,0,12.6c0,0.3,0.1,0.6,0.4,0.8c1.2,1.1,2.3,2.1,3.5,3.2
			c0.6,0.6,1.2,1.1,1.8,1.7c0.2,0.2,0.5,0.3,0.8,0.3c1.9,0,3.8,0,5.6,0c0.3,0,0.5-0.1,0.7-0.3c1.7-1.6,3.5-3.2,5.2-4.8
			c0.3-0.3,0.5-0.6,0.4-1.1C149.1,235.2,149.1,233.2,149.1,231.2z"/>
		<path fill="#822433" d="M175.9,291.5c-0.3,0.2-0.4-0.1-0.6-0.2c-1.2-0.8-2.2-1.9-3.1-3.1c-2.3-3.3-3.7-7-4.1-11c-0.4-4,0-8,0.9-12
			c0.4-1.6,0.8-3.3,1.3-4.9c0.1-0.3,0.2-0.5,0.5-0.6c2.1-0.9,4.1-1.9,6.2-2.9c0,0,0.1,0,0.1,0l0,0c0.1,0.2,0,0.3-0.1,0.4
			c-2.1,4-3.6,8.2-4.5,12.6c-0.6,3.1-0.9,6.3-0.7,9.4c0.2,3.2,0.8,6.3,2.2,9.3c0.5,0.9,1,1.8,1.6,2.7
			C175.7,291.3,175.7,291.5,175.9,291.5L175.9,291.5z"/>
		<path fill="#822433" d="M195.7,273c0,0.9,0,1.7,0,2.4c0,4.2,0,8.4,0,12.6c0,0.7,0.1,1.3,0.3,1.9c0.4,1.4,1.3,2.4,2.7,2.9
			c0,0.1,0,0.2-0.1,0.2c-1.1,1.1-2.2,2.2-3.4,3.3c-0.2,0.2-0.4,0.2-0.6,0c-2.2-1.4-3.3-3.5-3.5-6.1c-0.1-1.2-0.1-2.3-0.1-3.5
			c0-3.6,0-7.1,0-10.7c0-0.5,0.2-0.8,0.6-1c1.2-0.6,2.4-1.3,3.6-2C195.3,273.2,195.5,273.1,195.7,273z"/>
		<path fill="#857650" d="M122.7,226.3c-1-0.1-1.5-0.6-1.9-1.5c-0.2,0.4-0.4,0.8-0.6,1.1c-0.2,0.3-0.5,0.6-1,0.8
			c0.3-0.7,0.6-1.3,0.4-2.1c-0.5,0.7-1,1.3-2,1.5c0.4-0.5,0.8-0.8,0.9-1.5c-0.6,0.4-1.1,0.9-1.9,1c0.4-0.5,0.9-1,0.9-1.7
			c-0.3,0.2-0.5,0.3-0.7,0.4c-0.2,0.1-0.5,0.2-0.7,0.1c-0.1-0.1-0.1-0.1,0-0.1c1-0.5,1.2-1.3,1.2-2.3c0-0.4-0.1-0.8-0.1-1.2
			c0-0.2-0.1-0.4,0.1-0.7c0.2-0.1,0.4,0.1,0.6,0.1c0.7,0,1.4-0.5,1.4-1.1c0-0.5-0.2-0.9-0.6-1c-0.5-0.2-1,0-1.3,0.4
			c-0.1,0.1-0.1,0.3-0.2,0.4c-0.3-0.2-0.7,0-0.9-0.4c-0.3-0.5,0.3-0.5,0.4-0.8c-0.1-0.1-0.2-0.1-0.2,0c-0.1,0-0.3,0.1-0.4-0.1
			c-0.1-0.2-0.1-0.4,0.1-0.6c0.2-0.1,0.4-0.2,0.6-0.2c0.3,0,0.6-0.1,0.8-0.2c0.3-0.1,0.5-0.2,0.5-0.5c0-0.3,0.3-0.4,0.5-0.5
			c0.4-0.1,0.8-0.1,1.2-0.1c0.3,0,0.6,0.1,0.9,0.2c0.4,0.1,0.8,0.2,1.2-0.2c0.2-0.2,0.6-0.3,1-0.4c-0.3,0.4-0.4,0.8-0.3,1.2
			c0,0.5-0.1,1-0.6,1.3c0.7,0.3,1,0.9,1,1.7c0,0.1,0,0.2,0.1,0.3c0.2,0.7,0.4,0.9,1.1,1.1c-0.2,0.5-0.7,0.5-1.2,0.5
			c0.1,1.1,0.6,1.8,1.4,2.4c-0.6,0.2-0.6,0.2-1.5,0.1c0,0.7,0.5,1.2,1,1.8c-0.8-0.1-1.3-0.5-1.8-0.9
			C121.9,225.2,122.3,225.8,122.7,226.3z M120.9,220.6c-0.4,0.1-0.5-0.3-0.8-0.3c-0.1,0.4,0.1,0.8,0.1,1.2c-0.3,0-0.4-0.3-0.6-0.3
			c-0.1,0.2,0.1,0.5-0.2,0.7c-0.3-0.4-0.5-0.7-1.1-0.8c0.1,0.7-0.1,1.4-0.4,2.1c0.6-0.3,0.7-0.8,1-1.2c0.3,0.5,0.3,0.9,0.2,1.4
			c0.6-0.3,0.6-0.9,0.8-1.3c0.5,0.3,0.9,0.6,1.5,0.4c-0.4-0.4-0.8-0.8-0.7-1.4c0.5,0.1,0.9,0.4,1.3,0.1c-0.3-0.3-0.5-0.5-0.7-0.9
			c-0.1-0.2-0.1-0.4,0.1-0.5c0.3-0.1,0.6-0.4,0.7-0.9c-0.6,0.1-1.1-0.2-1.6-0.6c-0.1,0.5,0.3,0.7,0.6,1c-0.2,0.2-0.5,0.2-0.7,0.3
			c0,0,0,0.1,0,0.1C120.6,220.1,120.8,220.3,120.9,220.6L120.9,220.6z M121.1,217.1c0.7-0.1,0.8-0.3,0.7-1.1
			C121.4,216.3,121.2,216.7,121.1,217.1z M120,216.6c-0.6,0-1,0-1.6,0c0.1,0.1,0.1,0.2,0.2,0.2c0.3,0.4,0.3,0.4,0.7,0.1
			C119.4,216.8,119.7,216.8,120,216.6z M118.6,224.6C118.7,224.6,118.7,224.6,118.6,224.6C118.7,224.6,118.7,224.6,118.6,224.6
			C118.6,224.6,118.6,224.6,118.6,224.6C118.6,224.6,118.6,224.6,118.6,224.6z"/>
		<path fill="#857650" d="M157,223.6c-0.4,0.1-0.8,0.1-1.3,0c0.3-0.4,0.8-0.7,1-1.1c0.2-0.4,0.4-0.8,0.4-1.4c-0.5,0-0.9,0-1.2-0.5
			c0.8,0,1-0.5,1.2-1.2c0-0.1,0-0.2,0-0.2c0.2-1.1,0.2-0.9,0.9-1.6c-0.5-0.4-0.6-0.9-0.6-1.5c0-0.3-0.1-0.6-0.3-0.9
			c0.5,0,0.8,0.1,1.1,0.4c0.3,0.3,0.5,0.3,0.8,0.1c0.5-0.2,1.1-0.3,1.7-0.2c0.2,0,0.5,0,0.7,0.1c0.2,0.1,0.5,0.2,0.4,0.5
			c0,0.3,0.2,0.4,0.4,0.5c0.3,0.1,0.6,0.1,0.9,0.2c0.2,0,0.4,0.1,0.6,0.2c0.2,0.1,0.2,0.3,0.1,0.5c-0.1,0.2-0.2,0.2-0.4,0.2
			c-0.1,0-0.1-0.1-0.2,0c-0.1,0.1,0,0.1,0.1,0.1c0.1,0.2,0.5,0.1,0.3,0.5c-0.1,0.3-0.2,0.5-0.6,0.6c-0.3,0-0.4,0-0.6-0.3
			c-0.2-0.5-1-0.7-1.5-0.4c-0.5,0.3-0.6,0.9-0.3,1.4c0.3,0.5,0.8,0.8,1.5,0.6c0.4-0.1,0.4,0,0.4,0.3c0,0.4-0.1,0.8-0.1,1.2
			c0,0.2,0,0.4,0,0.6c0,0.9,0.4,1.7,1.3,2.1c-0.6,0.2-1.1-0.2-1.5-0.5c0,0.8,0.4,1.2,0.9,1.8c-0.8-0.1-1.4-0.6-1.9-1.1
			c0,0.7,0.4,1.1,0.8,1.6c-0.9-0.2-1.5-0.7-1.9-1.4c-0.2,0.5-0.2,0.8,0.3,1.9c-0.5-0.1-0.6-0.2-1.5-1.7c-0.3,0.8-0.9,1.4-1.9,1.4
			c0.4-0.6,0.8-1.1,0.7-1.9c-0.5,0.4-1,0.9-1.7,0.9c0.4-0.5,0.9-1,1-1.6c0,0,0.1-0.1,0-0.1C157.1,223.5,157,223.6,157,223.6z
			 M159.9,221.5C159.9,221.5,159.8,221.4,159.9,221.5c-0.1-0.5,0.1-0.8,0-1.2c-0.3,0.1-0.5,0.4-0.8,0.3c0.1-0.3,0.4-0.6,0.4-0.9
			c-0.2-0.1-0.5,0-0.6-0.3c0.3-0.3,0.6-0.5,0.5-1c-0.4,0.5-1,0.6-1.6,0.7c0.2,0.4,0.4,0.7,0.7,0.8c0.3,0.1,0.3,0.3,0.1,0.6
			c-0.2,0.3-0.4,0.5-0.7,0.8c0.5,0.1,0.9-0.1,1.2-0.1c0,0,0.1,0.1,0.1,0.1c0,0.5-0.5,0.9-0.7,1.3c0.6,0.1,1.1-0.2,1.5-0.5
			c0,0.6,0.3,1,0.7,1.4c0.1-0.5-0.1-1,0.3-1.4c0.3,0.5,0.3,1,0.9,1.1c0,0,0,0,0.1,0.1c0,0,0,0,0,0c0,0,0,0-0.1-0.1
			c-0.2-0.6-0.5-1.2-0.3-2c-0.6,0.1-0.8,0.5-1.1,0.8c-0.1-0.3,0-0.5-0.1-0.7C160.2,221.2,160.1,221.5,159.9,221.5z M160.1,216.7
			c0.3,0.1,0.6,0.2,0.7,0.4c0.1,0.2,0.3,0.1,0.5,0c0.1-0.1,0.2-0.2,0.2-0.4C161.1,216.6,160.6,216.4,160.1,216.7z M158.9,217.1
			c-0.1-0.5-0.3-0.8-0.7-1.1C158,216.8,158.1,217,158.9,217.1z"/>
		<path fill="#857650" d="M139.3,256.5c-2.8,0-6-0.6-9.2-1.5c-1.9-0.6-3.8-1.2-5.7-2c-0.1-0.1-0.3-0.1-0.4-0.2
			c-0.1-0.1-0.2-0.2-0.2-0.4c0.1-0.1,0.2-0.1,0.3,0c0.9,0.2,1.8,0.5,2.7,0.7c3.3,0.8,6.7,1.5,10.1,1.7c2.5,0.2,4.9,0.1,7.4-0.2
			c3.8-0.5,7.4-1.3,11.1-2.4c0.1,0,0.3-0.2,0.4,0c0.1,0.2-0.1,0.4-0.3,0.4c-1.5,0.7-3,1.2-4.6,1.7c-2.4,0.8-4.9,1.4-7.4,1.7
			C142.4,256.4,141.1,256.5,139.3,256.5z"/>
		<path fill="#857650" d="M140.2,248.5c-3.9,0-7.4-0.5-10.8-1.3c-1.7-0.4-3.4-0.9-5.1-1.4c-0.1,0-0.2-0.1-0.3-0.1
			c-0.1,0-0.3-0.1-0.2-0.3c0.1-0.2,0.2-0.1,0.3,0c2.4,0.5,4.9,1,7.3,1.3c3.4,0.5,6.9,0.8,10.3,0.7c3.2-0.1,6.4-0.6,9.6-1.1
			c1.5-0.3,3-0.6,4.4-0.9c0.1,0,0.3-0.2,0.4,0c0.1,0.2-0.2,0.2-0.3,0.3c-2.1,0.7-4.3,1.3-6.5,1.8c-2.4,0.5-4.7,0.9-7.1,1
			C141.4,248.5,140.6,248.5,140.2,248.5z"/>
		<path fill="#857650" d="M222.8,274.2c0.5,0.3,0.7,0.6,0.7,1.1c0,7,0,14.1,0,21.1c0,4-1.6,7.3-4.3,10.1c-1.4,1.4-3,2.6-4.5,3.8
			c-0.3,0.2-0.4,0-0.5-0.1c-0.2-0.2-0.1-0.3,0.1-0.4c0.7-0.6,1.5-1.1,2.2-1.7c1.3-1,2.4-2,3.4-3.3c2-2.5,3-5.3,3-8.5
			c0-7.1,0-14.2,0-21.4C222.8,274.8,222.8,274.6,222.8,274.2z"/>
		<path fill="#857650" d="M190.4,268.8c0.5,0.4,0.5,0.8,0.4,1.4c-0.2,1.6-0.6,3.2-1.2,4.8c-1,3.2-2.4,6.3-3.9,9.3
			c-2.2,4.3-4.4,8.6-6.3,13c-0.4,0.9-0.9,1.9-1.3,2.8c-0.1,0.2-0.2,0.4-0.5,0.3c-1.6-0.5-3.1-1.2-4.4-2.3c-0.1,0-0.1-0.1-0.2-0.2
			c0.2-0.1,0.4,0.1,0.5,0.2c1.1,0.6,2.3,1.1,3.5,1.4c0.5,0.1,0.5,0.1,0.8-0.4c1.6-3.6,3.2-7.1,5-10.6c1.6-3.1,3.1-6.2,4.5-9.4
			c1.1-2.5,2-5,2.6-7.7c0.1-0.7,0.3-1.4,0.4-2C190.3,269.1,190.3,269,190.4,268.8z"/>
		<path fill="#857650" d="M176.8,291.6c-0.4-0.4-0.6-0.9-0.8-1.3c-1.3-2.5-2.1-5.1-2.5-7.8c-0.8-5.4-0.2-10.7,1.4-15.8
			c0.9-2.9,2-5.7,3.5-8.3c0.1-0.2,0.2-0.3,0.3-0.5c0.1,0,0.2,0.1,0.3,0.2c0.4,0.4,0.3,0.3,0.1,0.8c-0.8,1.5-1.5,3-2.1,4.5
			c-1.4,3.5-2.3,7.2-2.8,10.9c-0.2,1.5-0.3,3.1-0.3,4.6c0,4.3,1,8.3,2.9,12.1c0.1,0.2,0.2,0.3,0.2,0.5
			C176.9,291.4,176.8,291.5,176.8,291.6z"/>
		<path fill="#822433" d="M197.3,267.6c-1.2,1.1-2.4,2.3-3.6,3.4c-1.2-1.1-2.2-2.2-3.2-3.5c1.2-1,2.5-2.1,3.7-3.1
			C195.2,265.5,196.2,266.6,197.3,267.6z"/>
		<path fill="#822433" d="M216.3,267.5c1.2-1.1,2.5-2.1,3.7-3.1c1,1.1,2,2.2,3.1,3.2c0,0.2-0.2,0.3-0.3,0.4c-1,0.9-2,1.9-2.9,2.8
			c-0.4,0.3-0.3,0.3-0.6,0C218.2,269.7,217.3,268.6,216.3,267.5z"/>
		<path fill="#857650" d="M58.5,285.9c-0.4-0.3-0.8-0.7-1.1-1.1c-2.3-3-3.5-6.4-3.5-10.2c-0.1-3.5,0.4-6.8,1.6-10.1
			c0.3-0.7,0.5-1.4,0.9-2.1c0.1-0.2,0.1-0.4,0.3-0.4c0.1,0.1,0.2,0.2,0.3,0.3c0.2,0.3,0.2,0.6,0,1c-1.1,2.1-1.6,4.4-2,6.7
			c-0.2,1.7-0.3,3.4-0.3,5.1c0.1,3.1,1,5.9,2.5,8.6C57.6,284.4,58.2,285.1,58.5,285.9C58.6,285.9,58.6,285.9,58.5,285.9z"/>
		<path fill="#857650" d="M132.7,275c0.3,0,0.4,0.3,0.5,0.4c0.6,0.7,0.8,1.6,1,2.5c0.2,1,0.3,2,0.3,3c0,2.3,0,4.6,0,6.9
			c0,0.9,0,1.8-0.2,2.7c-0.4,1.8-1.3,3.3-2.6,4.6c-1,1-2.1,1.8-3.2,2.6c-0.1,0.1-0.3,0.3-0.4,0.2c-0.1-0.1-0.2-0.2-0.3-0.3
			c-0.1-0.1,0.1-0.2,0.2-0.3c0.9-0.7,1.7-1.4,2.6-2.1c2-1.7,3.1-3.9,3.2-6.4c0.1-3.4,0.2-6.7,0-10.1
			C133.7,277.4,133.4,276.1,132.7,275L132.7,275z"/>
		<path fill="#857650" d="M239.8,275.7c0.8,0.8,1.2,1.8,1.4,2.9c0.3,1.1,0.4,2.2,0.4,3.3c0,1.9,0,3.8-0.1,5.8
			c-0.1,1.7-0.8,3.2-1.9,4.5c-0.5,0.6-1.1,1.1-1.7,1.6c-1.5,1.3-3,2.5-4.5,3.8c-0.1,0.1-0.2,0.1-0.3,0.2c-0.2,0.2-0.4,0.1-0.6-0.1
			c-0.2-0.2,0-0.3,0.1-0.4c1.7-1.4,3.4-2.8,5.1-4.3c0.6-0.5,1.1-1,1.6-1.6c1-1.2,1.5-2.6,1.6-4.2c0.1-2.3,0.1-4.7,0-7
			c0-1.1-0.2-2.3-0.6-3.4C240.1,276.5,239.8,276.2,239.8,275.7L239.8,275.7z"/>
		<path fill="#857650" d="M98.9,297.5c0.1-0.2,0.2-0.2,0.4-0.3c1.3-0.8,2.5-1.5,3.8-2.3c0.5-0.3,0.6-0.5,0.6-1.1c0-4.9,0-9.8,0-14.7
			c0-0.4,0.1-0.7,0.4-0.9c0.4-0.2,0.9-0.5,1.4-0.3c0.1,0,0.2,0.1,0.2,0.3c-0.3,0.1-0.7,0.2-1,0.4c-0.2,0.1-0.4,0.3-0.3,0.6
			c0,0.1,0,0.3,0,0.4c0,4.9,0,9.8,0,14.6c0,0.5-0.1,0.7-0.5,1c-1.4,0.8-2.7,1.6-4.1,2.4C99.2,298,99.2,298,98.9,297.5z"/>
		<path fill="#857650" d="M151.1,276c0.3,0.2,0.5,0.5,0.7,0.8c0.6,1.1,0.8,2.3,0.9,3.5c0.1,2.5,0.1,4.9,0,7.4
			c-0.1,1.9-1,3.5-2.3,4.8c-1.2,1.2-2.6,2.3-4,3.5c-0.7,0.6-1.4,1.1-2.1,1.7c-0.1,0.1-0.2,0.3-0.4,0.2c-0.3-0.1-0.4-0.4-0.1-0.6
			c1.6-1.4,3.3-2.7,4.9-4.1c0.7-0.6,1.4-1.3,2-2.1c0.8-1,1.2-2.2,1.3-3.4c0.1-0.8,0.1-1.6,0.1-2.4c0-1.8,0.1-3.6-0.1-5.4
			c-0.1-1.2-0.3-2.5-0.8-3.6C151,276.2,151,276.1,151.1,276L151.1,276z"/>
		<path fill="#857650" d="M96.8,278.3c-0.3,0.1-0.7,0.2-0.9,0.3c-0.3,0.2-0.5,0.4-0.5,0.8c0,0.5,0,1.1,0,1.7c0,4.4,0,8.9,0,13.3
			c0,0.5-0.2,0.8-0.6,1c-1.4,0.8-2.7,1.6-4.1,2.4c-0.5,0.3-0.5,0.3-0.8-0.3c0.3-0.2,0.5-0.3,0.8-0.5c1.2-0.7,2.3-1.4,3.5-2.1
			c0.4-0.2,0.5-0.5,0.5-0.9c0-4.9,0-9.9,0-14.8c0-0.5,0.3-0.8,0.7-1c0.4-0.2,0.9-0.4,1.3,0C96.7,278.1,96.7,278.2,96.8,278.3z"/>
		<path fill="#857650" d="M128.5,257c0.3-0.3,0.4-0.7,0.6-1c0.1-0.1,0.1-0.3,0.3-0.2c0.2,0.1,0.2,0.2,0.1,0.4
			c-0.2,0.9-0.5,1.8-0.7,2.8c-0.3-0.1-0.4-0.3-0.6-0.4c-1.9-1.5-3.9-2.7-6.2-3.3c-2.2-0.6-4.5-0.6-6.8-0.3c-0.2,0-0.4,0.1-0.5,0.1
			c-0.1,0-0.2,0-0.3-0.2c0-0.1,0-0.2,0.2-0.3c0.2-0.1,0.4-0.1,0.6-0.2c4-1,7.8-0.5,11.5,1.5C127.2,256.3,127.8,256.6,128.5,257z"/>
		<path fill="#857650" d="M151,259c-0.1-0.6-0.3-1.1-0.4-1.6c-0.1-0.4-0.2-0.7-0.3-1.1c0-0.2-0.2-0.4,0.1-0.5
			c0.3-0.1,0.3,0.2,0.4,0.3c0.2,0.3,0.3,0.6,0.5,0.9c0.3,0,0.4-0.2,0.6-0.3c1.9-1.3,4-2.1,6.2-2.5c2.3-0.4,4.5-0.3,6.8,0.4
			c0,0,0.1,0,0.1,0c0.2,0.1,0.4,0.1,0.3,0.4c-0.1,0.2-0.3,0.1-0.4,0.1c-0.9-0.2-1.8-0.2-2.7-0.3c-3.1-0.1-6,0.6-8.7,2.3
			c-0.7,0.5-1.4,0.9-2.1,1.5C151.4,258.7,151.3,258.8,151,259z"/>
		<path fill="#857650" d="M49.4,294.9c0.1,0,0.2,0.1,0.3,0.1c2.8,1.4,5.8,2.3,8.9,2.9c1,0.2,2.1,0.3,3.1,0.5
			c0.5,0.1,0.9-0.1,1.2-0.5c1.5-1.7,3.1-3.3,4.6-4.9c0.3-0.4,0.7-0.3,0.9,0.1c0,0.1,0,0.2,0,0.2c-0.1,0.1-0.1,0.2-0.2,0.2
			c-1.7,1.8-3.4,3.5-5,5.3c-0.2,0.2-0.4,0.3-0.8,0.3c-3.4-0.4-6.7-1-9.8-2.3c-1.1-0.4-2.1-1-3-1.7C49.5,295.2,49.4,295.1,49.4,294.9
			L49.4,294.9z"/>
		<path fill="#857650" d="M123.8,295.1c0.5,0.3,0.7,0.6,0.7,1.1c0,1.5,0,3.1,0,4.6c0.1,2.7-1,4.8-3,6.5c-1.3,1.1-2.7,2-4,3.1
			c-0.3,0.2-0.4,0-0.5-0.1c-0.2-0.2,0-0.3,0.1-0.4c0.9-0.7,1.9-1.4,2.8-2.1c0.5-0.4,1-0.8,1.5-1.3c1.7-1.6,2.5-3.5,2.5-5.8
			c0-1.6,0-3.3,0-4.9C123.8,295.6,123.8,295.4,123.8,295.1z"/>
		<path fill="#822433" d="M249.4,264.5c0.9-0.1,0.9-0.1,1.2,0.7c0.4,1.1,0.7,2.1,1.1,3.2c0.3-0.5,0.4-0.9,0.5-1.4
			c0.3-0.7,0.5-1.4,0.8-2.1c0.2-0.5,0.2-0.5,0.7-0.5c0.1,0,0.2,0,0.2,0c0.2,0,0.1,0.1,0.1,0.2c0,1.4,0,2.8,0,4.2
			c0,0.1,0.1,0.3-0.2,0.4c-0.3,0.1-0.4,0-0.4-0.3c0-0.7,0-1.5,0-2.2c0-0.3,0-0.7,0-1c-0.2,0-0.2,0.2-0.3,0.3c-0.3,1-0.7,2-1,2.9
			c-0.1,0.2-0.1,0.4-0.3,0.4c-0.3,0-0.4-0.1-0.5-0.4c-0.3-0.9-0.6-1.9-1-2.8c0-0.1-0.1-0.3-0.3-0.5c0,0.4,0,0.6,0,0.9
			c0,0.8,0,1.6,0,2.4c0,0.3-0.1,0.4-0.4,0.3c-0.1,0-0.2-0.1-0.2-0.2c0,0,0-0.1,0-0.1C249.4,267.4,249.4,266,249.4,264.5z"/>
		<path fill="#857650" d="M210.1,290.7c-0.3,0.1-0.4-0.1-0.6-0.3c-1-0.8-1.6-1.9-2.1-3.1c-0.1-0.3,0-0.4,0.2-0.4
			c0.9-0.4,1.8-0.8,2.6-1.2c0.9-0.5,1.7-1,2.4-1.7c1.9-1.8,2.3-4.2,1.1-6.6c-0.1-0.2-0.2-0.3-0.2-0.6c0.3,0.3,0.5,0.6,0.7,0.9
			c1.1,1.9,0.9,4.3-0.6,6c-0.5,0.6-1.1,1.1-1.8,1.6c-1.1,0.7-2.2,1.3-3.4,1.8c-0.4,0.2-0.4,0.2-0.3,0.6c0.3,0.8,0.7,1.6,1.3,2.3
			C209.8,290.2,210,290.4,210.1,290.7L210.1,290.7z"/>
		<path fill="#857650" d="M111.6,274.6c0.5,0.3,0.7,0.8,0.9,1.3c0.3,0.6,0.3,1.2,0.4,1.8c0.1,0.9,0.1,1.9,0.1,2.8c0,3,0,6,0,9.1
			c0,0.8,0.1,1.5,0.4,2.2c-0.5-0.3-0.7-0.6-0.9-1.2c-0.1-0.5-0.2-1-0.2-1.6c0-3,0-6,0-9.1c0-1.3-0.1-2.6-0.3-3.8
			C112,275.6,111.7,275.1,111.6,274.6L111.6,274.6z"/>
		<path fill="#857650" d="M197.9,291.3c-0.5-0.2-0.6-0.6-0.7-1c-0.2-0.5-0.3-1.1-0.3-1.6c0-2.8,0-5.6,0-8.4c0-1.8,0-3.6,0-5.4
			c0-0.2,0-0.4,0-0.7c0.5,0.2,0.6,0.5,0.6,1c0,4.3,0,8.6,0,12.8c0,0.4,0,0.7,0,1.1C197.5,289.9,197.6,290.6,197.9,291.3L197.9,291.3
			z"/>
		<path fill="#857650" d="M137.4,251.1c0.5,0,1,0,1.5,0c0.3,0,0.4-0.1,0.5-0.3c0.1-0.5,0.3-1,0.5-1.5c0.3,0.5,0.4,1,0.5,1.4
			c0.1,0.3,0.3,0.5,0.6,0.5c0.5,0,0.9,0,1.5,0c-0.2,0.3-0.5,0.4-0.7,0.6c-0.3,0.2-0.7,0.3-0.8,0.6c-0.1,0.3,0.2,0.7,0.2,1
			c0.1,0.3,0.2,0.5,0.2,0.9c-0.4-0.3-0.8-0.5-1.1-0.8c-0.4-0.3-0.4-0.3-0.8,0c-0.4,0.3-0.7,0.5-1.1,0.8c-0.1-0.3,0.1-0.6,0.2-0.8
			c0.4-1.3,0.5-0.9-0.6-1.7c-0.2-0.2-0.4-0.3-0.6-0.5C137.4,251.2,137.4,251.2,137.4,251.1z"/>
		<path fill="#857650" d="M82.3,275.5c0.6,0.5,0.9,1.2,1.1,1.9c0.3,1,0.4,2,0.4,3c0,2.6,0,5.2,0,7.8c0,0.6,0,1.2,0.1,1.8
			c0.1,0.6,0.2,1.1,0.4,1.7c-0.4-0.2-0.7-0.6-0.8-1c-0.2-0.6-0.2-1.1-0.2-1.7c0-2.8,0-5.6,0-8.4c0-1.6-0.2-3.2-0.8-4.7
			C82.3,275.7,82.3,275.6,82.3,275.5L82.3,275.5z"/>
		<path fill="#857650" d="M156,250.2c-0.1-0.4,0.1-0.7,0-1.1c0-0.2,0.2-0.2,0.4-0.3c0.8-0.2,1.6-0.3,2.3-0.4
			c2.1-0.2,4.1-0.2,6.1,0.3c0.8,0.2,1.5,0.4,2.2,0.7c0.1,0,0.1,0,0.2,0.1c0.2,0,0.3,0.1,0.2,0.3c-0.1,0.2-0.2,0.2-0.3,0.1
			c-0.6-0.2-1.3-0.4-2-0.5c-3-0.7-5.9-0.3-8.7,0.7C156.4,250.1,156.2,250.2,156,250.2z"/>
		<path fill="#857650" d="M123.8,250.2c-0.2,0.1-0.3,0-0.4-0.1c-3.4-1.3-6.9-1.4-10.4-0.3c-0.1,0-0.3,0.1-0.4,0.1
			c-0.1,0-0.2,0-0.2-0.1c0-0.1,0-0.2,0.1-0.3c0.1-0.1,0.3-0.1,0.4-0.1c2.3-0.8,4.7-1.2,7.2-1c1.1,0.1,2.2,0.2,3.2,0.4
			c0.6,0.1,0.6,0.1,0.6,0.7C123.7,249.7,123.9,250,123.8,250.2z"/>
		<path fill="#857650" d="M61.7,266.8c0.1-0.1,0.2,0,0.3,0c1.1,0.5,2.2,0.5,3.3,0.3c0.9-0.2,1.7-0.6,2.5-1c0.8-0.4,1.5-0.8,2.2-1.3
			c0.5-0.3,0.5-0.3,1,0.1c0,0,0.1,0.1,0.1,0.1c0,0.2-0.1,0.2-0.2,0.3c-1.1,0.7-2.2,1.3-3.4,1.9c-1.4,0.6-2.8,0.9-4.3,0.5
			C62.6,267.6,62.1,267.4,61.7,266.8L61.7,266.8z"/>
		<path fill="#857650" d="M130.7,250.2c0.2,0,0.4,0,0.7,0c1,0,0.8,0.1,1.1-0.8c0.1-0.2,0.1-0.3,0.2-0.5c0,0,0.1-0.1,0.1-0.1
			c0.1,0.4,0.3,0.7,0.3,1.1c0.1,0.3,0.2,0.4,0.5,0.4c0.4,0,0.8,0,1.2,0c-0.1,0.3-0.3,0.3-0.5,0.5c-0.9,0.7-0.8,0.4-0.5,1.5
			c0.1,0.2,0.2,0.4,0.1,0.6c-0.3-0.2-0.6-0.4-0.9-0.6c-0.3-0.2-0.5-0.2-0.7,0c-0.3,0.2-0.6,0.4-0.9,0.7c0-0.5,0.2-0.9,0.3-1.2
			c0.1-0.3,0.1-0.4-0.2-0.6c-0.3-0.2-0.6-0.4-0.9-0.7C130.6,250.3,130.7,250.2,130.7,250.2z"/>
		<path fill="#857650" d="M148.4,252.7c-0.3-0.2-0.6-0.4-0.9-0.6c-0.3-0.2-0.5-0.2-0.7,0c-0.3,0.2-0.6,0.4-0.9,0.6
			c0-0.4,0.2-0.8,0.3-1.1c0.1-0.3,0.1-0.5-0.2-0.7c-0.3-0.2-0.6-0.4-0.9-0.7c0.2-0.2,0.4-0.1,0.5-0.1c1.3,0,1,0.2,1.4-1
			c0-0.1,0.1-0.3,0.2-0.5c0.2,0.3,0.3,0.7,0.4,1c0.2,0.5,0.2,0.5,0.7,0.5c0.3,0,0.6,0,1.1,0c-0.3,0.4-0.7,0.6-1,0.8
			c-0.3,0.2-0.3,0.4-0.2,0.7C148.2,252,148.4,252.3,148.4,252.7L148.4,252.7z"/>
		<path fill="#857650" d="M208.4,297.2c0.5,0.2,0.9,0.4,1.4,0.6c0.3,0.1,0.4,0.1,0.6-0.1c1.1-1.1,2.2-2.2,3.3-3.2
			c0.2-0.2,0.3-0.3,0.5-0.5c0.4-0.4,0.4-0.4,0.8,0.1c-0.2,0.3-0.4,0.5-0.6,0.7c-1.2,1.2-2.3,2.3-3.5,3.5c-0.5,0.5-0.5,0.5-1,0.1
			c-0.4-0.2-0.7-0.4-1-0.7C208.6,297.6,208.4,297.5,208.4,297.2L208.4,297.2z"/>
		<path fill="#857650" d="M75.7,291.5c-0.5-0.3-0.6-0.7-0.8-1.1c-0.3-0.9-0.3-1.9-0.3-2.8c0-1,0.1-2,0.5-3c0.3-0.8,0.8-1.5,1.6-2
			c0,0.4,0.1,0.8-0.1,1c-0.7,0.7-1,1.7-1.1,2.7c-0.2,1.4-0.3,2.8-0.1,4.1C75.5,290.7,75.6,291.1,75.7,291.5z"/>
		<path fill="#857650" d="M196.6,265.7c0.3-0.1,0.5,0.1,0.7,0.3c0.8,0.6,1.5,1.3,2.2,2c-0.6,0.5-1.1,1-1.6,1.5
			c-0.9,0.8-1.8,1.6-2.7,2.4c-0.1,0.1-0.2,0.2-0.4,0.2c-0.1,0-0.3-0.1-0.3-0.3c-0.1-0.1,0.1-0.2,0.2-0.3c1-0.9,2-1.8,3-2.7
			c0.3-0.3,0.6-0.6,0.9-0.9C198,267.1,197.2,266.5,196.6,265.7L196.6,265.7z"/>
		<path fill="#857650" d="M109.3,297.3c0.5,0.2,0.7,0.6,1.1,0.5c0.3-0.1,0.5-0.5,0.8-0.7c1-1,2.1-2.1,3.1-3.1
			c0.1-0.1,0.2-0.2,0.3-0.3c0.2,0.1,0.3,0.3,0.5,0.4c-0.5,0.5-1.1,1.1-1.6,1.6c-0.9,0.9-1.7,1.7-2.6,2.6c-0.2,0.2-0.4,0.2-0.6,0.1
			C110,298.1,109.6,297.9,109.3,297.3z"/>
		<path fill="#857650" d="M69.6,277.5c0.4-0.2,0.7-0.2,1.1-0.2c1.1-0.1,2.2-0.1,3.3,0.2c1.2,0.3,2,1,2.4,2.2
			c0.2,0.6,0.2,0.6-0.4,0.8c-0.2-0.1-0.2-0.3-0.2-0.5c-0.4-1.2-1.3-1.9-2.6-2.1c-0.9-0.1-1.7-0.2-2.6,0
			C70.2,278,69.9,277.9,69.6,277.5z"/>
		<path fill="#822433" d="M246.3,267.1c0-0.6,0-1.2,0-1.8c0-0.3-0.1-0.4-0.4-0.3c-0.3,0-0.7,0-1,0c-0.2,0-0.2-0.1-0.2-0.3
			c0-0.2,0.1-0.3,0.2-0.3c1.1,0,2.2,0,3.2,0c0.2,0,0.3,0.1,0.3,0.2c0,0.2-0.1,0.3-0.3,0.3c-0.3,0-0.6,0-0.9,0
			c-0.3,0-0.4,0.1-0.4,0.4c0,1,0,2.1,0,3.1c0,0.1,0,0.3,0,0.4c0,0.2-0.1,0.3-0.3,0.3c-0.2,0-0.3-0.1-0.3-0.3
			C246.3,268.3,246.3,267.7,246.3,267.1L246.3,267.1z"/>
		<path fill="#857650" d="M71.4,297.1c0.3,0.2,0.5,0.3,0.7,0.4c0.5,0.3,0.5,0.3,0.8-0.1c0.9-0.9,1.8-1.8,2.7-2.7
			c0.3-0.3,0.7-0.7,1-1c0.2,0.1,0.3,0.3,0.5,0.4c0,0.2-0.2,0.3-0.3,0.4c-1.2,1.2-2.4,2.5-3.7,3.7c-0.3,0.3-0.3,0.3-0.8,0.1
			C72,298,71.7,297.6,71.4,297.1z"/>
		<path fill="#857650" d="M222.5,265.7c0.4,0,0.7,0.2,0.9,0.4c0.7,0.6,1.3,1.2,1.9,1.8c-0.1,0.2-0.2,0.3-0.4,0.5
			c-1.2,1.1-2.5,2.3-3.7,3.4c-0.4,0.4-0.4,0.4-0.8,0c1.4-1.3,2.8-2.6,4.2-3.9c-0.6-0.5-1.1-1-1.6-1.5
			C222.8,266.1,222.6,266,222.5,265.7L222.5,265.7z"/>
		<path fill="#857650" d="M194.2,297.3c0.2,0.1,0.5,0.2,0.7,0.4c0.2,0.1,0.4,0.1,0.5-0.1c0.5-0.5,1-1,1.6-1.6
			c0.7-0.7,1.5-1.5,2.2-2.2c0.2-0.2,0.3-0.2,0.5,0c0.1,0.2,0.2,0.3,0,0.4c-0.1,0.1-0.2,0.2-0.3,0.4c-1.2,1.2-2.4,2.4-3.6,3.7
			c-0.4,0.4-0.4,0.4-0.8,0.1C194.6,298,194.2,297.8,194.2,297.3L194.2,297.3z"/>
		<path fill="#857650" d="M67.9,262.5c-2.4-1.5-3.8-3.9-5-6.4c0.7,0,0.9,0.1,1.1,0.6c0.7,1.6,1.7,3,2.8,4.3c0.4,0.5,0.8,0.9,1.2,1.3
			C67.9,262.4,67.9,262.4,67.9,262.5z"/>
		<path fill="#857650" d="M80.1,297.2c0.2,0.1,0.3,0.2,0.5,0.3c0.5,0.2,0.5,0.3,0.8-0.1c0.9-0.9,1.8-1.8,2.7-2.7
			c0.3-0.3,0.6-0.6,0.9-0.9c0.2-0.2,0.3-0.1,0.5,0c0.2,0.1,0.2,0.3,0,0.5c-0.5,0.4-0.9,0.9-1.3,1.3c-0.8,0.8-1.6,1.6-2.5,2.5
			c-0.3,0.3-0.3,0.3-0.8,0.1C80.5,298,80.2,297.7,80.1,297.2z"/>
		<path fill="#857650" d="M199.2,230c0,0.6,0,1.2,0,1.7c0,0.2,0,0.3-0.2,0.3c-0.3,0-0.3-0.1-0.3-0.3c0-0.7,0-1.3,0-2
			c0-0.2,0-0.4,0.2-0.4c0.2,0,0.5-0.1,0.7,0.2c0.1,0.2,0.2,0.5,0.3,0.7c0.1,0.2,0.1,0.4,0.4,0.6c0.1-0.4,0-0.8,0-1.2
			c0-0.2,0-0.3,0.3-0.3c0.3,0,0.3,0.1,0.3,0.3c0,0.7,0,1.3,0,2c0,0.2,0.1,0.4-0.2,0.4c-0.2,0-0.4,0-0.5-0.2
			c-0.2-0.4-0.4-0.9-0.6-1.3C199.5,230.4,199.4,230.2,199.2,230z"/>
		<path fill="#857650" d="M90.3,230.7c0-0.3,0-0.7,0-1c0-0.2,0.1-0.3,0.3-0.3c0.1,0,0.2,0,0.3,0c1.1,0,1.7,0.7,1.4,1.8
			c-0.1,0.6-0.5,0.9-1.1,0.9c-1.1,0-0.9,0.1-0.9-0.8C90.3,231.1,90.3,230.9,90.3,230.7z M90.9,230.7c0,0.2,0,0.4,0,0.6
			c0,0.3,0.1,0.4,0.4,0.3c0.2,0,0.3-0.1,0.4-0.3c0.2-0.3,0.2-0.7,0.1-1.1c-0.1-0.3-0.3-0.4-0.5-0.4c-0.2,0-0.4,0-0.4,0.3
			C90.9,230.3,90.9,230.5,90.9,230.7z"/>
		<path fill="#857650" d="M82.6,230.7c0-0.3,0-0.7,0-1c0-0.2,0.1-0.3,0.3-0.3c0.3,0,0.6,0,0.9,0c0.7,0.1,1,0.7,0.6,1.3
			c-0.2,0.2-0.2,0.4-0.1,0.7c0.1,0.1,0.1,0.3,0.2,0.4c0,0.1,0.1,0.3,0,0.3c-0.1,0.1-0.3,0.1-0.4-0.1c-0.1-0.2-0.2-0.3-0.2-0.5
			c-0.1-0.1-0.1-0.2-0.2-0.3c-0.1-0.1-0.2-0.2-0.3-0.1c-0.1,0-0.2,0.1-0.2,0.3c0,0.2,0,0.4,0,0.6c0,0.2-0.1,0.3-0.3,0.3
			c-0.2,0-0.2-0.1-0.2-0.3C82.6,231.5,82.6,231.1,82.6,230.7L82.6,230.7z M83.4,230.5c0.4,0,0.5-0.2,0.5-0.4c0-0.2-0.2-0.3-0.6-0.3
			c-0.3,0-0.3,0.2-0.3,0.4C83.1,230.5,83.2,230.5,83.4,230.5z"/>
		<path fill="#857650" d="M177.8,230.7c0,0.3-0.1,0.6-0.2,0.9c-0.4,0.7-1.5,0.7-1.9-0.1c-0.3-0.6-0.3-1.1,0-1.7
			c0.2-0.4,0.5-0.5,0.9-0.5c0.4,0,0.7,0.2,1,0.5C177.7,230.1,177.8,230.4,177.8,230.7z M176,230.7c0,0.3,0.1,0.6,0.1,0.7
			c0.2,0.4,0.7,0.4,0.9,0c0.2-0.5,0.2-1,0-1.4c-0.2-0.4-0.6-0.4-0.8,0C176.1,230.2,176,230.5,176,230.7z"/>
		<path fill="#857650" d="M88.6,230.7c0,0.3-0.1,0.6-0.2,0.9c-0.2,0.4-0.5,0.5-1,0.5c-0.4,0-0.7-0.2-0.9-0.6c-0.2-0.5-0.3-1.1,0-1.6
			c0.2-0.4,0.5-0.6,1-0.6c0.4,0,0.7,0.2,0.9,0.6C88.5,230.2,88.6,230.4,88.6,230.7z M86.9,230.7c0,0.3,0,0.5,0.2,0.8
			c0.2,0.3,0.6,0.3,0.8,0c0.2-0.3,0.2-1.2,0-1.5c-0.2-0.3-0.6-0.3-0.8,0C86.9,230.2,86.8,230.5,86.9,230.7z"/>
		<path fill="#857650" d="M94.2,230.5c0-0.2,0-0.5,0-0.7c0-0.2-0.1-0.4,0.3-0.4c0.3,0,0.2,0.3,0.3,0.5c0,0.4,0,0.8,0,1.2
			c0,0.1,0,0.3,0,0.4c0,0.2,0.2,0.3,0.4,0.3c0.2,0,0.3-0.1,0.4-0.3c0-0.2,0-0.4,0-0.7c0-0.3,0-0.7,0-1c0-0.2,0-0.4,0.3-0.4
			c0.2,0,0.3,0.1,0.3,0.3c0,0.5,0,1.1,0,1.6c0,0.6-0.4,0.8-1,0.8c-0.6,0-0.9-0.3-0.9-0.8C94.2,231,94.2,230.8,94.2,230.5
			C94.2,230.5,94.2,230.5,94.2,230.5z"/>
		<path fill="#857650" d="M101.8,230.8c0-0.4,0-0.7,0-1.1c0-0.2,0.1-0.3,0.3-0.3c0.4,0,0.7,0,1.1,0c0.2,0,0.3,0,0.3,0.2
			c0,0.2-0.1,0.2-0.3,0.2c-0.2,0-0.4,0-0.6,0c-0.2,0-0.3,0.1-0.3,0.3c0,0.2,0,0.4,0.3,0.4c0.1,0,0.3,0,0.4,0c0.1,0,0.2,0.1,0.2,0.2
			c0,0.1-0.1,0.2-0.2,0.2c-0.1,0-0.2,0-0.4,0c-0.3,0-0.4,0.1-0.4,0.4c0,0.3,0.1,0.4,0.4,0.4c0.2,0,0.4,0,0.7,0
			c0.1,0,0.2,0.1,0.2,0.2c0,0.1,0,0.2-0.2,0.2c-0.4,0-0.9,0-1.3,0c-0.2,0-0.2-0.1-0.2-0.3C101.8,231.5,101.8,231.1,101.8,230.8
			L101.8,230.8z"/>
		<path fill="#857650" d="M186.4,232.1c-0.3,0-0.6-0.1-0.8-0.4c-0.1-0.1-0.1-0.2,0-0.3c0.1-0.1,0.3-0.1,0.4,0
			c0.1,0.1,0.2,0.2,0.3,0.3c0.2,0.1,0.4,0.1,0.5-0.1c0.1-0.2,0-0.4-0.2-0.5c-0.2-0.1-0.4-0.1-0.6-0.2c-0.4-0.2-0.5-0.4-0.4-0.8
			c0.1-0.4,0.5-0.7,0.9-0.7c0.4,0,0.7,0.2,0.8,0.5c0,0.1,0,0.2,0,0.2c-0.1,0.1-0.3,0.1-0.4,0c-0.1-0.1-0.1-0.2-0.3-0.3
			c-0.2-0.1-0.3,0-0.4,0.1c-0.1,0.1,0,0.3,0.1,0.4c0.2,0.1,0.3,0.1,0.5,0.2c0.5,0.2,0.7,0.5,0.6,1
			C187.2,231.9,186.9,232.2,186.4,232.1z"/>
		<path fill="#857650" d="M193.6,229.3c0.2,0,0.4,0.1,0.4,0.3c0.2,0.7,0.4,1.4,0.6,2.1c0,0.1,0.1,0.3-0.1,0.3
			c-0.2,0.1-0.4,0.1-0.4-0.2c-0.1-0.3-0.2-0.5-0.6-0.5c-0.3,0-0.4,0.1-0.5,0.3c0,0.1-0.1,0.2-0.1,0.3c-0.1,0.1-0.2,0.1-0.3,0
			c-0.1,0-0.1-0.2-0.1-0.3c0.2-0.7,0.4-1.5,0.6-2.2C193.2,229.3,193.4,229.3,193.6,229.3z M193.5,229.9c-0.1,0.3-0.2,0.6-0.2,0.9
			c0,0.2,0.1,0.2,0.3,0.2c0.1,0,0.2-0.1,0.2-0.2C193.7,230.5,193.7,230.2,193.5,229.9z"/>
		<path fill="#857650" d="M189.9,229.3c0.2,0,0.4,0,0.6,0.1c0.4,0.1,0.6,0.5,0.6,0.8c0,0.4-0.3,0.7-0.7,0.8c-0.2,0.1-0.5,0-0.7,0.1
			c-0.2,0.2-0.1,0.5-0.1,0.7c0,0.2-0.1,0.3-0.3,0.3c-0.2,0-0.3-0.1-0.3-0.3c0-0.7,0-1.5,0-2.2c0-0.2,0.1-0.3,0.3-0.3
			C189.6,229.4,189.7,229.3,189.9,229.3z M189.6,230.1c0,0.2,0,0.4,0.3,0.4c0.3,0,0.5-0.1,0.5-0.4c0-0.3-0.2-0.4-0.5-0.4
			C189.7,229.8,189.6,229.9,189.6,230.1z"/>
		<path fill="#857650" d="M97.9,230.7c0-0.4,0.1-0.7,0.3-1.1c0.5-0.5,1.4-0.4,1.7,0.2c0.1,0.1,0.2,0.3,0,0.4
			c-0.1,0.1-0.3,0.1-0.4-0.1c0,0,0,0,0-0.1c-0.1-0.2-0.3-0.4-0.5-0.3c-0.3,0.1-0.4,0.3-0.4,0.5c-0.1,0.4-0.1,0.7,0.1,1.1
			c0.2,0.4,0.6,0.5,0.9,0.1c0.1-0.1,0.1-0.2,0.1-0.2c0.1-0.1,0.3-0.1,0.4,0c0.2,0.1,0.1,0.2,0,0.3c-0.3,0.6-1.1,0.8-1.7,0.3
			C98,231.6,97.9,231.2,97.9,230.7z"/>
		<path fill="#857650" d="M188.8,260.9c0.8,0.5,1.2,1.2,1.5,2c0.3,0.7,0.5,1.4,0.7,2.1c0.1,0.7,0.1,0.7-0.5,1.1
			c-0.2,0-0.1-0.2-0.1-0.3c-0.1-1.7-0.6-3.2-1.5-4.6C188.9,261.1,188.9,261,188.8,260.9z"/>
		<path fill="#857650" d="M78.9,230.7c0-0.3,0-0.7,0-1c0-0.2,0.1-0.3,0.3-0.3c0.3,0,0.6,0,0.9,0c0.5,0.1,0.8,0.4,0.8,0.9
			c0,0.5-0.2,0.7-0.7,0.8c-0.6,0.1-0.6,0.1-0.7,0.8c0,0.1,0,0.2-0.1,0.3c-0.2,0.1-0.4,0-0.4-0.2C78.9,231.5,78.9,231.1,78.9,230.7
			C78.9,230.7,78.9,230.7,78.9,230.7z M79.4,230.2c0,0.2,0,0.4,0.3,0.4c0.3,0,0.6-0.2,0.6-0.4c0-0.3-0.2-0.4-0.5-0.4
			C79.4,229.8,79.4,230,79.4,230.2z"/>
		<path fill="#857650" d="M179.5,230.7c0-0.3,0-0.7,0-1c0-0.2,0.1-0.3,0.3-0.3c0.4,0,0.8,0,1.2,0c0.1,0,0.2,0.1,0.2,0.2
			c0,0.1-0.1,0.2-0.2,0.2c-0.2,0-0.4,0-0.6,0c-0.2,0-0.3,0.1-0.3,0.3c0,0.2,0.1,0.4,0.3,0.4c0.1,0,0.2,0,0.4,0
			c0.1,0,0.2,0.1,0.2,0.2c0,0.1-0.1,0.2-0.2,0.2c0,0,0,0-0.1,0c-0.6,0.1-0.6,0.1-0.6,0.6c0,0.1,0,0.1,0,0.2c0,0.2,0,0.3-0.3,0.3
			c-0.2,0-0.3-0.1-0.3-0.3C179.5,231.4,179.5,231.1,179.5,230.7L179.5,230.7z"/>
		<path fill="#857650" d="M118.8,219.2c-0.7,0.1-1.2,0.4-1.8,0.7c-0.5,0.3-1,0.4-1.6,0.2c-0.4-0.2-0.7-0.4-0.9-1
			c0.9,0.6,1.7,0.4,2.6,0.1C117.7,219,118.3,218.9,118.8,219.2z"/>
		<path fill="#857650" d="M165.3,219.2c-0.2,0.7-0.6,1-1.3,1c-0.4,0-0.7-0.1-1.1-0.3c-0.6-0.3-1.2-0.6-1.9-0.7
			c0.4-0.3,0.7-0.2,1.1-0.2c0.2,0,0.5,0.1,0.7,0.2C163.7,219.6,164.5,219.7,165.3,219.2z"/>
		<path fill="#857650" d="M196.3,230.7c0-0.4,0-0.7,0-1.1c0-0.2,0.1-0.3,0.2-0.3c0.2,0,0.3,0,0.3,0.3c0,0.7,0,1.5,0,2.2
			c0,0.2-0.1,0.2-0.3,0.2c-0.2,0-0.3,0-0.3-0.2C196.3,231.5,196.3,231.1,196.3,230.7z"/>
		<path fill="#857650" d="M123.7,275.8c-0.1-0.4-0.2-0.8-0.4-1.1c-0.1-0.3-0.4-0.6-0.6-0.9c0.2-0.2,0.3,0,0.4,0
			c0.6,0.3,0.8,0.9,1,1.5C124.2,275.6,123.9,275.6,123.7,275.8z"/>
		<path fill="#857650" d="M94.4,275.7c-0.1-0.8-0.4-1.4-1-2.1c0.5,0,0.7,0.2,0.9,0.4c0.2,0.3,0.4,0.6,0.5,0.9
			C94.9,275.4,94.9,275.5,94.4,275.7z"/>
		<path fill="#857650" d="M102.3,273.7c0.8,0.1,1.1,0.6,1.3,1.2c0.2,0.5,0.2,0.5-0.4,0.9C103.1,275,102.8,274.3,102.3,273.7
			L102.3,273.7z"/>
		<path fill="#857650" d="M87.8,278.6c-0.6-0.3-1-0.3-1.5,0c-0.2,0.1-0.3,0-0.4-0.2c-0.1-0.2,0-0.3,0.1-0.3
			C86.7,277.6,87.5,277.8,87.8,278.6z"/>
		<path fill="#857650" d="M117.1,278.6c-0.6-0.3-1-0.3-1.5,0c-0.2,0.1-0.3,0-0.4-0.2c-0.1-0.2,0-0.3,0.1-0.3
			C116,277.6,116.7,277.8,117.1,278.6z"/>
		<path fill="#857650" d="M58.9,286.3c-0.1-0.1-0.3-0.2-0.4-0.4c0,0,0,0,0.1-0.1C58.8,286,58.9,286.1,58.9,286.3L58.9,286.3z"/>
		<path fill="#857650" d="M49.4,295c-0.1,0-0.2-0.1-0.2-0.2c0,0,0,0,0,0C49.3,294.8,49.4,294.8,49.4,295
			C49.4,294.9,49.4,295,49.4,295z"/>
		<polygon fill="#857650" points="132.7,275 132.7,275 132.7,275 		"/>
		<path fill="#857650" d="M82.3,275.5C82.3,275.5,82.3,275.5,82.3,275.5C82.3,275.5,82.3,275.5,82.3,275.5L82.3,275.5z"/>
		<polygon fill="#857650" points="239.8,275.7 239.7,275.7 239.8,275.7 		"/>
		<path fill="#857650" d="M151.1,276C151,276,151,276,151.1,276C151,276,151,275.9,151.1,276C151,275.9,151,276,151.1,276L151.1,276
			z"/>
		<path fill="#822433" d="M69.3,276.5C69.3,276.5,69.3,276.5,69.3,276.5C69.3,276.5,69.3,276.5,69.3,276.5L69.3,276.5z"/>
		<path fill="#857650" d="M196.6,265.7C196.6,265.7,196.6,265.7,196.6,265.7C196.6,265.6,196.6,265.6,196.6,265.7L196.6,265.7z"/>
		<path fill="#857650" d="M222.5,265.7C222.5,265.7,222.4,265.7,222.5,265.7C222.5,265.6,222.5,265.6,222.5,265.7L222.5,265.7z"/>
		<polygon fill="#857650" points="109.6,229.3 109.6,229.3 109.6,229.3 		"/>
		<path fill="#857650" d="M61.7,266.8C61.7,266.7,61.7,266.8,61.7,266.8C61.7,266.8,61.7,266.7,61.7,266.8
			C61.7,266.7,61.8,266.8,61.7,266.8L61.7,266.8z"/>
		<path fill="#822433" d="M177.1,256.9C177.2,256.8,177.1,256.8,177.1,256.9C177.2,256.9,177.2,256.9,177.1,256.9L177.1,256.9z"/>
		<polygon fill="#857650" points="58.9,286.3 58.9,286.3 58.9,286.3 		"/>
		<path fill="#857650" d="M210.2,290.8c-0.1,0-0.2,0-0.1-0.1l0,0C210.2,290.7,210.2,290.7,210.2,290.8L210.2,290.8z"/>
		<path fill="#857650" d="M210.2,290.8C210.2,290.8,210.3,290.8,210.2,290.8C210.3,290.9,210.3,290.9,210.2,290.8
			C210.2,290.8,210.2,290.8,210.2,290.8L210.2,290.8z"/>
		<polygon fill="#857650" points="197.9,291.3 197.9,291.3 197.9,291.3 		"/>
		<path fill="#822433" d="M175.9,291.5C175.9,291.5,175.9,291.6,175.9,291.5C175.7,291.6,175.9,291.5,175.9,291.5L175.9,291.5z"/>
		<polygon fill="#857650" points="102.3,273.7 102.3,273.6 102.3,273.7 		"/>
		<path fill="#857650" d="M150.2,219.5C150.1,219.6,150.3,219.5,150.2,219.5C150.2,219.5,150.2,219.5,150.2,219.5
			C150.2,219.5,150.2,219.5,150.2,219.5L150.2,219.5z"/>
		<polygon fill="#857650" points="148.3,252.7 148.4,252.7 148.4,252.7 		"/>
		<path fill="#857650" d="M111.6,274.6C111.6,274.6,111.6,274.6,111.6,274.6C111.6,274.6,111.6,274.6,111.6,274.6
			C111.6,274.6,111.6,274.6,111.6,274.6L111.6,274.6z"/>
		<path fill="#857650" d="M117.2,246.8C117.2,246.8,117.2,246.9,117.2,246.8C117.2,246.9,117.2,246.9,117.2,246.8L117.2,246.8z"/>
		<path fill="#857650" d="M208.4,297.2C208.3,297.2,208.3,297.2,208.4,297.2C208.3,297.1,208.4,297.1,208.4,297.2L208.4,297.2z"/>
		<path fill="#857650" d="M194.2,297.3C194.1,297.3,194.1,297.3,194.2,297.3C194.1,297.3,194.1,297.3,194.2,297.3
			C194.2,297.3,194.2,297.3,194.2,297.3L194.2,297.3z"/>
		<path fill="#FFF7F7" d="M112.8,228.1c0,0.1-0.1,0.2-0.1,0.1C112.6,228.2,112.6,228.1,112.8,228.1
			C112.7,228.1,112.7,228.1,112.8,228.1z"/>
		<path fill="#FFF7F7" d="M118.2,239.5c0,0-0.1-0.1,0-0.1C118.2,239.4,118.2,239.4,118.2,239.5C118.2,239.5,118.2,239.5,118.2,239.5
			z"/>
		<path fill="#FFF7F7" d="M118.1,235.2C118.2,235.2,118.2,235.2,118.1,235.2C118.2,235.2,118.2,235.3,118.1,235.2
			C118.2,235.3,118.1,235.3,118.1,235.2C118.1,235.2,118.1,235.2,118.1,235.2z"/>
		<path fill="#FFF7F7" d="M122.5,228.6C122.5,228.6,122.4,228.5,122.5,228.6C122.5,228.4,122.5,228.5,122.5,228.6
			C122.5,228.5,122.5,228.6,122.5,228.6z"/>
		<path fill="#FFF7F7" d="M114.7,227.1c0,0-0.1,0.1-0.1,0c0-0.1,0-0.1,0.1-0.1C114.7,227,114.7,227,114.7,227.1z"/>
		<path fill="#FFF7F7" d="M166,241.9C166,241.9,165.9,241.9,166,241.9C166,241.8,166,241.8,166,241.9C166,241.9,166,241.9,166,241.9
			z"/>
		<path fill="#FFF7F7" d="M161.7,235.2c0.1,0,0.1-0.1,0.2,0c0.1,0.1,0,0.1-0.1,0.1C161.7,235.3,161.7,235.3,161.7,235.2z"/>
		<path fill="#FFF7F7" d="M151.7,218.9C151.7,218.9,151.7,218.9,151.7,218.9C151.7,219,151.6,219,151.7,218.9
			C151.7,218.9,151.7,218.9,151.7,218.9z"/>
		<path fill="#822433" d="M149.1,231.2c0,2,0,4,0,6.1c0,0.4-0.1,0.8-0.4,1.1c-1.8,1.6-3.5,3.2-5.2,4.8c-0.2,0.2-0.4,0.3-0.7,0.3
			c-1.9,0-3.8,0-5.6,0c-0.3,0-0.5-0.1-0.8-0.3c-0.6-0.6-1.2-1.1-1.8-1.7c-1.2-1.1-2.3-2.1-3.5-3.2c-0.2-0.2-0.4-0.5-0.4-0.8
			c0-4.2,0-8.4,0-12.6c0-0.3,0.1-0.6,0.3-0.8c1.8-1.6,3.6-3.3,5.3-4.9c0.2-0.2,0.4-0.3,0.7-0.3c1.9,0,3.8,0,5.8,0
			c0.3,0,0.5,0.1,0.7,0.3c1.8,1.6,3.5,3.3,5.3,4.9c0.3,0.2,0.4,0.5,0.4,0.9C149.1,227,149.1,229.1,149.1,231.2z M143.2,238.7
			C143.2,238.7,143.2,238.8,143.2,238.7C143.2,238.8,143.2,238.7,143.2,238.7c0-0.1,0-0.1-0.1-0.1c0-0.1,0-0.2-0.1-0.3
			c-0.6-1.1-0.8-2.3-0.8-3.5c0-1.8,0.5-3.5,1.2-5.1c0.1-0.2,0.2-0.4,0.2-0.7c-0.6,0.3-1.1,0.5-1.6,0.7c-0.2,0.1-0.2,0.3-0.3,0.4
			c-0.4,1.4-0.7,2.7-0.6,4.1c0.1,1.2,0.4,2.4,1.1,3.4c0.2,0.3,0.4,0.7,0.8,0.9C143.1,238.7,143.1,238.7,143.2,238.7z M138.3,231
			C138.3,231.1,138.3,231.1,138.3,231C138.4,231,138.3,231,138.3,231c0-0.1-0.2-0.2-0.3-0.2c-0.8-0.6-1.4-1.4-1.6-2.3
			c-0.5-1.9-0.2-3.7,0.7-5.4c0-0.1,0.1-0.1,0.2-0.1c0.2,0.3,0.4,0.6,0.7,1c0.8,1,1.9,1,2.8,0.1c-0.9-0.2-1.4-0.9-1.8-1.6
			c-0.1-0.1-0.1-0.2-0.2-0.3c-0.1-0.3-0.3-0.3-0.5-0.2c-0.8,0.4-1.5,0.7-2.3,1.1c-0.3,0.1-0.4,0.3-0.6,0.6c-0.4,1.1-0.6,2.3-0.6,3.5
			c0,1,0.4,2,1.1,2.7C136.7,230.5,137.4,231,138.3,231z M134.9,223.7c-0.5,0.1-0.8,0.3-1.1,0.5c-0.4,0.1-0.6,0.4-0.7,0.8
			c-0.2,0.6-0.3,1.1-0.4,1.7c-0.3,2.7,0.8,5.2,3.7,6.2c0.7,0.2,1.3,0.4,2,0.5c0.4,0.1,0.5,0.1,0.5,0.5c0,0.1,0,0.1,0,0.2
			c0.1,1.6,0.5,3.1,1.5,4.3c0.8,1,1.8,1.8,3.1,2.2c0.2,0.1,0.4,0.1,0.5-0.2c0.8-1.7,1.6-3.3,2.3-5c0.4-0.9,0.7-1.8,0.9-2.8
			c0.1-0.9,0-1.8-0.4-2.6c-0.1-0.2-0.2-0.3-0.5-0.1c-0.3,0.2-0.5,0.4-0.8,0.6c-0.2,0.1-0.2,0.3-0.1,0.5c0.3,0.4,0.4,0.8,0.5,1.2
			c0.1,0.7,0,1.3-0.1,2c-0.3,1.8-1,3.4-1.8,5c-0.2,0.5-0.3,0.5-0.7,0.2c-0.1-0.1-0.2-0.1-0.3-0.2c-2-1.5-2.6-3.5-2.5-5.9
			c0-0.9,0.2-1.8,0.4-2.7c0-0.1,0-0.2-0.1-0.3c-0.6,0.2-1.1,0.5-1.6,0.7c-0.1,0.1-0.2,0.2-0.3,0.3c0,0.3-0.2,0.3-0.5,0.3
			c-0.2,0-0.4-0.1-0.6-0.1c-1.9-0.5-3.1-1.6-3.5-3.5c-0.2-0.8-0.2-1.6-0.1-2.4C134.4,225,134.6,224.4,134.9,223.7z"/>
		<path fill="#FFF7F7" d="M118.6,224.6C118.6,224.6,118.6,224.6,118.6,224.6C118.6,224.6,118.6,224.6,118.6,224.6
			C118.7,224.6,118.7,224.6,118.6,224.6C118.7,224.6,118.7,224.6,118.6,224.6z"/>
		<path fill="#FFF7F7" d="M157,223.6c0,0,0.1-0.1,0.1,0c0,0,0,0.1,0,0.1C157.1,223.7,157,223.6,157,223.6z"/>
		<path fill="#FFF7F7" d="M162,223.1C162,223.1,162,223.1,162,223.1C162,223.1,162,223.2,162,223.1C162,223.1,162,223.1,162,223.1
			L162,223.1z"/>
		<path fill="#857650" d="M124.6,288.7c-0.7-0.3-0.7-0.3-0.7-0.8c0-2.9,0-5.9,0-8.8c0-0.4,0.1-0.6,0.5-0.8c0.4-0.2,0.8-0.4,1.2-0.5
			c0.4-0.1,0.7,0,1.1,0.4c-0.6,0-1.1,0.2-1.5,0.4c-0.4,0.2-0.5,0.4-0.5,0.8c0,2.9,0,5.7,0,8.6C124.6,288.2,124.6,288.4,124.6,288.7z
			"/>
		<path fill="#857650" d="M144.5,291.4c-0.4-0.2-0.7-0.6-0.8-1c-0.3-0.7-0.3-1.4-0.3-2.1c0-1.5,0-3.1,0-4.6c0-2,0-4,0-6
			c0-0.2,0-0.4,0-0.6c0.7,0.2,0.7,0.2,0.7,0.9c0,3.2,0,6.4,0,9.6c0,0.6,0,1.3,0.1,1.9C144.2,290.2,144.3,290.8,144.5,291.4z"/>
		<path fill="#857650" d="M233.4,291.4c-0.6-0.4-0.8-1-1-1.6c-0.1-0.4-0.1-0.8-0.1-1.2c0-3.7,0-7.4,0-11.1c0-0.1,0-0.2,0.1-0.3
			c0.6,0.2,0.6,0.2,0.6,0.8c0,3,0,6,0,9.1c0,1.4,0,2.9,0.5,4.2C233.4,291.3,233.4,291.4,233.4,291.4L233.4,291.4z"/>
		<path fill="#857650" d="M233.4,291.4C233.4,291.4,233.5,291.4,233.4,291.4C233.5,291.5,233.5,291.5,233.4,291.4
			C233.4,291.5,233.4,291.5,233.4,291.4L233.4,291.4z"/>
		<path fill="#857650" d="M206.6,277.9c0.5,0.2,0.7,0.5,0.6,1c0,1.7-0.1,3.4,0,5.1c0,0.4-0.1,0.6-0.5,0.7
			C206.4,282.4,206.6,280.2,206.6,277.9z"/>
		<path fill="#857650" d="M134.9,223.7c-0.2,0.7-0.4,1.4-0.5,2.1c-0.1,0.8-0.1,1.6,0.1,2.4c0.4,1.9,1.6,3,3.5,3.5
			c0.2,0.1,0.4,0.1,0.6,0.1c0.3,0,0.4,0,0.5-0.3c0-0.1,0.1-0.3,0.3-0.3c0.5-0.2,1-0.5,1.6-0.7c0.1,0.1,0.1,0.2,0.1,0.3
			c-0.2,0.9-0.4,1.8-0.4,2.7c-0.1,2.3,0.6,4.4,2.5,5.9c0.1,0.1,0.2,0.1,0.3,0.2c0.4,0.3,0.5,0.2,0.7-0.2c0.7-1.6,1.4-3.2,1.8-5
			c0.1-0.7,0.2-1.3,0.1-2c-0.1-0.5-0.2-0.9-0.5-1.2c-0.1-0.2-0.1-0.3,0.1-0.5c0.3-0.2,0.6-0.4,0.8-0.6c0.2-0.2,0.4-0.1,0.5,0.1
			c0.5,0.8,0.6,1.7,0.4,2.6c-0.2,1-0.5,1.9-0.9,2.8c-0.8,1.7-1.6,3.3-2.3,5c-0.1,0.3-0.3,0.2-0.5,0.2c-1.3-0.4-2.3-1.2-3.1-2.2
			c-1-1.3-1.5-2.7-1.5-4.3c0-0.1,0-0.1,0-0.2c0-0.5,0-0.5-0.5-0.5c-0.7-0.1-1.4-0.3-2-0.5c-2.9-1-4-3.5-3.7-6.2
			c0.1-0.6,0.2-1.2,0.4-1.7c0.1-0.4,0.3-0.7,0.7-0.8C134.1,224,134.4,223.8,134.9,223.7z"/>
		<path fill="#857650" d="M138.3,231c-0.9,0-1.6-0.5-2.2-1.1c-0.7-0.7-1.1-1.7-1.1-2.7c0-1.2,0.1-2.4,0.6-3.5
			c0.1-0.3,0.3-0.5,0.6-0.6c0.8-0.3,1.5-0.7,2.3-1.1c0.3-0.1,0.4-0.1,0.5,0.2c0,0.1,0.1,0.2,0.2,0.3c0.4,0.7,0.9,1.3,1.8,1.6
			c-0.9,0.9-2,0.9-2.8-0.1c-0.3-0.3-0.5-0.7-0.7-1c-0.2,0-0.2,0-0.2,0.1c-0.9,1.7-1.2,3.5-0.7,5.4c0.3,1,0.8,1.7,1.6,2.3
			C138.1,230.8,138.3,230.9,138.3,231L138.3,231z"/>
		<path fill="#857650" d="M143.1,238.6c-0.4-0.2-0.6-0.5-0.8-0.9c-0.7-1-1-2.2-1.1-3.4c-0.1-1.4,0.2-2.8,0.6-4.1
			c0.1-0.2,0.1-0.4,0.3-0.4c0.5-0.2,1.1-0.5,1.6-0.7c0,0.3-0.1,0.5-0.2,0.7c-0.8,1.6-1.2,3.3-1.2,5.1c0,1.2,0.2,2.4,0.8,3.5
			C143.1,238.4,143.1,238.5,143.1,238.6L143.1,238.6z"/>
		<path fill="#857650" d="M143.2,238.7c-0.1,0-0.1,0-0.1-0.1l0,0C143.2,238.6,143.2,238.7,143.2,238.7L143.2,238.7z"/>
		<path fill="#857650" d="M138.3,231C138.3,231,138.4,231,138.3,231C138.3,231.1,138.3,231.1,138.3,231L138.3,231z"/>
		<path fill="#857650" d="M143.2,238.7C143.2,238.7,143.2,238.8,143.2,238.7C143.2,238.8,143.2,238.7,143.2,238.7L143.2,238.7z"/>
		<path fill="#857650" d="M120.9,220.6C120.9,220.6,121,220.7,120.9,220.6C121,220.7,121,220.7,120.9,220.6
			C120.9,220.7,120.9,220.6,120.9,220.6L120.9,220.6z"/>
		<path fill="#857650" d="M159.9,221.5c0,0-0.1,0.1-0.1,0C159.7,221.5,159.8,221.4,159.9,221.5C159.8,221.4,159.9,221.5,159.9,221.5
			z"/>
		<path fill="#857650" d="M159.2,221.1C159.3,221.1,159.3,221,159.2,221.1C159.4,221.1,159.4,221.1,159.2,221.1
			C159.3,221.1,159.3,221.1,159.2,221.1z"/>
	</g>
</g>
</svg>
