<?xml version="1.0" encoding="utf-8"?>
<!-- Generator: Adobe Illustrator 19.1.1, SVG Export Plug-In . SVG Version: 6.00 Build 0)  -->
<svg version="1.1" xmlns="http://www.w3.org/2000/svg" xmlns:xlink="http://www.w3.org/1999/xlink" x="0px" y="0px"
	 viewBox="0 0 283 396" enable-background="new 0 0 283 396" xml:space="preserve">
<g id="bombki">
	<g id="wyborowa01">
	</g>
	<g id="jacobs_x5F_creek">
	</g>
	<path fill="#FF901F" d="M157.5,29.1h-32.1l-0.7-1.2c-1.5-2.4-2.3-5.7-2.3-9c0-10.5,8.6-19,19.1-19s19.1,8.5,19.1,19
		c0,3.3-0.9,6.6-2.3,8.9L157.5,29.1z M128.4,24.1h26.3c0.6-1.5,1-3.3,1-5.1c0-7.7-6.3-14-14.1-14s-14.1,6.3-14.1,14
		C127.4,20.8,127.7,22.7,128.4,24.1z"/>
	<path fill="#D97907" d="M141.5,5.5c7.5,0,13.6,6.1,13.6,13.6c0,1.7-0.3,3.3-0.9,4.8H138h-9.2c-0.6-1.5-0.9-3.1-0.9-4.8
		C127.9,11.6,134,5.5,141.5,5.5 M141.5,2.5c-9.2,0-16.6,7.4-16.6,16.6c0,2.8,0.7,5.5,2,7.8H138h18.2c1.2-2.3,2-5,2-7.8
		C158.1,9.9,150.7,2.5,141.5,2.5L141.5,2.5z"/>
	<g>
		<path fill="#FFFFFF" d="M121,100.9c0,14.5-11.1,18-17,19.7C45.3,137,2.4,190.8,2.5,254.7c0.1,76.9,62.1,139,139,138.9
			c76.8,0,139-62.3,139-139.1c0-63.5-42.1-117.1-100.8-133.8c-5.9-1.7-18.3-6-18.3-19.8H121z"/>
		<path fill="#E4F1FF" d="M141.5,396.1c-37.8,0-73.4-14.7-100.1-41.4C14.8,328.1,0,292.5,0,254.7c0-31.5,10.1-61.4,29.2-86.3
			c18.6-24.2,44.9-42,74.2-50.2c7.5-2.1,15.1-5.8,15.1-17.3v-2.5h45.3v2.5c0,8.6,5.4,14.3,16.5,17.4c29.1,8.3,55.3,26.1,73.7,50.2
			c18.9,24.8,28.9,54.5,28.9,86C283,332.6,219.5,396.1,141.5,396.1z M123.4,103.3c-1.3,14.7-13.8,18.2-18.7,19.6
			C45.9,139.4,4.9,193.6,5,254.7c0.1,75.2,61.3,136.5,136.5,136.5c75.3,0,136.5-61.3,136.5-136.6c0-60.8-40.7-114.8-99-131.4
			c-12.3-3.5-19-10.1-20-19.7H123.4z"/>
	</g>
	<path opacity="0.4" fill="#D7F0FF" d="M141.5,384.6c-34.8,0-67.4-13.5-92-38c-24.5-24.5-38-57.2-38.1-92c0-29,9.3-56.4,26.9-79.3
		c17.1-22.2,41.3-38.6,68.2-46.1c12.1-3.4,19.6-9.9,22.3-19.3h25.1c2.4,7.2,8.6,15.3,23.4,19.5c26.8,7.6,50.8,24,67.7,46.1
		c17.4,22.8,26.6,50.1,26.6,79C271.5,326.2,213.2,384.6,141.5,384.6z"/>
	<path fill="#D7F0FF" d="M141.5,373.7c-31.9,0-61.8-12.4-84.2-34.8c-22.4-22.4-34.8-52.4-34.9-84.2c-0.1-53.3,35.6-101,87-114.9
		c24.5-6.6,15.2-31.2,19.5-38.9h23.9c4.5,7.5-5.2,30.5,21.4,39c24.3,7.8,46.5,22,62,42.2c15.9,20.9,24.3,45.9,24.3,72.4
		C260.6,320.2,207.1,373.7,141.5,373.7z"/>
	<g>
		<path fill="#DCF4FF" d="M236.3,182.1c-11.5-15.1-26.9-26.9-44-35.1c34.2,22.2,57.1,62.2,57.1,107.9c0,44.5-21.7,83.6-54.4,106.1
			c38.9-19.6,65.7-60,65.7-106.5C260.6,228,252.2,202.9,236.3,182.1z"/>
	</g>
	<g>
		<path fill="#DCF4FF" d="M31.6,254.9c0-44.1,21.3-83,53.6-105.5c-38,20.3-62.8,60.9-62.8,105.3c0,31.9,12.4,61.8,34.9,84.2
			c7.1,7.1,14.9,13.2,23.3,18.2C50.9,334.1,31.6,296.9,31.6,254.9z"/>
	</g>
	<ellipse opacity="0.2" fill="#B9E5FF" cx="141.5" cy="367.7" rx="47.9" ry="12.7"/>
	<g>
		<path fill="#234270" d="M140.9,23.3c24.3,0,25.7,7.4,25.7,7.4v16.5c0,0,0,17.7,0,19.9c0,2.1-2.5,3.9-2.5,3.9v31.7h-23.1V23.3z"/>
		<path fill="#29446D" d="M166.6,67.3c-7-1.9-16.3-3.3-25.7-3.3v3c0,0,18.5,1.2,23.1,4C164.1,71,166.5,69.3,166.6,67.3z"/>
		<path opacity="0.3" fill="#1A274F" d="M162.8,27v39.3l-1.4,3.6v32.7h2.6V71c0,0,2.5-1.7,2.5-3.9c0-2.1,0-19.9,0-19.9V30.8
			C166.6,30.8,166.3,28.9,162.8,27z"/>
		<path opacity="0.2" fill="#5E86CC" d="M162.8,66.4V27c-2.1-1.1-5.3-2.3-10.3-3v40.8l-1.1,3.2v34.6h10V69.9L162.8,66.4z"/>
		<path fill="#234270" d="M141.5,23.3c-24.3,0-25.7,7.4-25.7,7.4v16.5c0,0,0,17.7,0,19.9c0,2.1,2.5,3.9,2.5,3.9v31.7h23.1V23.3z"/>
		<path fill="#29446D" d="M115.8,67.3c7-1.9,16.3-3.3,25.7-3.3v3c0,0-18.5,1.2-23.1,4C118.4,71,115.9,69.3,115.8,67.3z"/>
		<path opacity="0.3" fill="#1A274F" d="M119.6,27v39.3l1.4,3.6v32.7h-2.6V71c0,0-2.5-1.7-2.5-3.9c0-2.1,0-19.9,0-19.9V30.8
			C115.8,30.8,116.2,28.9,119.6,27z"/>
		<path opacity="0.2" fill="#5E86CC" d="M119.6,66.4V27c2.1-1.1,5.3-2.3,10.3-3v40.8L131,68v34.6h-10V69.9L119.6,66.4z"/>
		<polygon fill="#B38052" points="147.7,122 133.9,113 133.9,48.5 147.7,48.5 		"/>
		<polygon fill="#C38D4E" points="143.4,48.5 133.9,48.5 133.9,113 143.4,119.2 		"/>
	</g>
	<g opacity="0.5">
		<path fill="#FFFFFF" d="M215.9,231.6c-18.8,0-37.6,8.6-57.4,17.7c-10.9,5-22.5,10.2-35,14.5c-7.5-5.9-28.4-20.6-61.9-32.2
			c22.3-5.4,46.3-16,68.3-25.7c25.6-11.3,49.7-22.1,65.1-22.1c14.7,0,30,7.4,47.8,15.9c9.2,4.4,18.8,9,29.2,13
			c-1.4-4.2-2.9-8.4-4.7-12.4c-7-3-13.8-6.2-20.3-9.3c-18.1-8.7-35.1-16.9-52-16.9c-17.5,0-42.5,11.1-69.1,22.9
			c-1.4,0.6-2.8,1.2-4.2,1.9c-11.1-0.1-19.2-2.8-28.5-5.9c-11.4-3.8-24.3-8.2-45.1-8.2c-9.2,0-18.5,2.7-27.6,5.9
			c-2.1,4-4,8.1-5.8,12.4c0.6-0.2,1.3-0.5,1.9-0.7c11.1-4,21.5-7.8,31.4-7.8c19.2,0,30.8,3.9,42,7.7c4.7,1.6,9.3,3.1,14.2,4.3
			c-22.2,9.4-45,17.6-64.2,18.8c-9.5-2.4-19.7-4.5-30.7-6.1c-1.1,4.2-2.1,8.4-2.8,12.7c50.6,7.3,84.9,26,100.9,36.6
			c-9.8,2.4-20.2,3.9-31.1,3.9c-25.9,0-50.1,3.1-69.7,6.6c1,5.4,2.1,10.7,3.7,15.8c18.7-3.4,41.7-6.3,66-6.3
			c25.1,0,46.8-6.7,66.3-14.7c38.8,5.9,66.5,18.6,66.5,21.7c0,3.4-18,5.8-22.6,6.6c-36.2,6.1-92.7,15.8-149.8,41.2
			c4.5,5.3,9.4,10.2,14.6,14.8c52.7-22.3,104.7-31.1,138.4-36.9c31.7-5.4,43.5-7.4,44.2-19c0.6-10.8-20.9-26.7-70.5-37.6
			c0.5-0.2,1-0.4,1.4-0.7c19-8.7,35.5-16.2,50.7-16.2c14.4,0,38.3,8.2,62.1,18.1c0.3-3.6,0.6-7.3,0.6-11c0-2.2-0.2-4.3-0.3-6.4
			C255.3,239.1,231.6,231.6,215.9,231.6z"/>
	</g>
</g>
<g id="BRAND">
	<g id="New_Symbol_13">
	</g>
	<g>
		<g>
			<path fill="#002B49" d="M150.5,199.6c-2.5,0-5,1.2-7.7,2.4c-1.5,0.7-3,1.4-4.7,1.9c-1-0.8-3.8-2.8-8.3-4.3c3-0.7,6.2-2.1,9.1-3.4
				c3.4-1.5,6.7-3,8.7-3c2,0,4,1,6.4,2.1c1.2,0.6,2.5,1.2,3.9,1.7c-0.2-0.6-0.4-1.1-0.6-1.7c-0.9-0.4-1.9-0.8-2.7-1.2
				c-2.4-1.2-4.7-2.3-7-2.3c-2.3,0-5.7,1.5-9.2,3.1c-0.2,0.1-0.4,0.2-0.6,0.2c-1.5,0-2.6-0.4-3.8-0.8c-1.5-0.5-3.2-1.1-6-1.1
				c-1.2,0-2.5,0.4-3.7,0.8c-0.3,0.5-0.5,1.1-0.8,1.7c0.1,0,0.2-0.1,0.3-0.1c1.5-0.5,2.9-1,4.2-1c2.6,0,4.1,0.5,5.6,1
				c0.6,0.2,1.2,0.4,1.9,0.6c-3,1.3-6,2.4-8.6,2.5c-1.3-0.3-2.6-0.6-4.1-0.8c-0.2,0.6-0.3,1.1-0.4,1.7c6.8,1,11.4,3.5,13.5,4.9
				c-1.3,0.3-2.7,0.5-4.2,0.5c-3.5,0-6.7,0.4-9.3,0.9c0.1,0.7,0.3,1.4,0.5,2.1c2.5-0.5,5.6-0.8,8.8-0.8c3.4,0,6.3-0.9,8.9-2
				c5.2,0.8,8.9,2.5,8.9,2.9c0,0.5-2.4,0.8-3,0.9c-4.8,0.8-12.4,2.1-20.1,5.5c0.6,0.7,1.3,1.4,2,2c7.1-3,14-4.2,18.5-4.9
				c4.2-0.7,5.8-1,5.9-2.5c0.1-1.4-2.8-3.6-9.4-5c0.1,0,0.1-0.1,0.2-0.1c2.5-1.2,4.8-2.2,6.8-2.2c1.9,0,5.1,1.1,8.3,2.4
				c0-0.5,0.1-1,0.1-1.5c0-0.3,0-0.6,0-0.9C155.7,200.6,152.6,199.6,150.5,199.6z"/>
			<path fill="#002B49" d="M140.5,222.4c-10.6,0-19.3-8.5-19.6-19c0,0.2,0,0.4,0,0.6c0,10.8,8.8,19.6,19.6,19.6
				c10.8,0,19.6-8.8,19.6-19.6c0-0.2,0-0.4,0-0.6C159.8,213.9,151.1,222.4,140.5,222.4z"/>
			<g opacity="0.25">
				<path fill="#829CB3" d="M135.5,196.2c-0.7-0.2-1.3-0.4-1.9-0.6c-1.5-0.5-3-1-5.6-1c-1.3,0-2.7,0.5-4.2,1c-0.1,0-0.2,0.1-0.3,0.1
					c-0.3,0.7-0.5,1.4-0.7,2.1c1.5,0.2,2.9,0.5,4.2,0.8C129.5,198.6,132.5,197.5,135.5,196.2z"/>
				<path fill="#829CB3" d="M131.8,205.1c1.5,0,2.8-0.2,4.2-0.5c-2.2-1.4-6.8-3.9-13.6-4.9c-0.2,1-0.3,2-0.3,3.1
					c0,1.1,0.1,2.2,0.3,3.2C125,205.5,128.3,205.1,131.8,205.1z"/>
				<path fill="#829CB3" d="M134,194.4c1.2,0.4,2.3,0.8,3.8,0.8c0.2-0.1,0.4-0.2,0.6-0.2c3.6-1.6,6.9-3.1,9.2-3.1
					c2.3,0,4.5,1.1,7,2.3c0.9,0.4,1.8,0.9,2.8,1.3c-2.8-6.5-9.3-11.1-16.9-11.1c-7.1,0-13.2,4-16.3,9.8c1.2-0.4,2.5-0.8,3.8-0.8
					C130.8,193.3,132.5,193.9,134,194.4z"/>
				<path fill="#829CB3" d="M147.7,193.2c-2.1,0-5.3,1.4-8.7,3c-2.9,1.3-6.2,2.7-9.1,3.4c4.5,1.6,7.3,3.5,8.3,4.3
					c1.7-0.6,3.2-1.3,4.7-1.9c2.7-1.2,5.2-2.4,7.7-2.4c2.1,0,5.3,1,8.4,2.3c-0.1-1.7-0.4-3.3-0.8-4.8c-1.4-0.5-2.7-1.2-4-1.8
					C151.7,194.2,149.6,193.2,147.7,193.2z"/>
				<path fill="#829CB3" d="M143.7,203.9c-0.1,0-0.1,0.1-0.2,0.1c6.6,1.5,9.5,3.6,9.4,5c-0.1,1.6-1.7,1.8-5.9,2.5
					c-4.5,0.8-11.5,2-18.6,5l0,0c3.2,2.8,7.5,4.6,12.1,4.6c9.7,0,17.6-7.4,18.3-16.9c-3.2-1.3-6.4-2.4-8.4-2.4
					C148.4,201.8,146.2,202.8,143.7,203.9z"/>
				<path fill="#829CB3" d="M149.6,208.2c0-0.4-3.7-2.1-8.9-2.9c-2.6,1.1-5.5,2-8.9,2c-3.3,0-6.4,0.4-8.9,0.9
					c0.7,2.4,1.9,4.6,3.5,6.5l0,0c7.7-3.4,15.3-4.7,20.1-5.5C147.2,208.9,149.6,208.6,149.6,208.2z"/>
			</g>
		</g>
		<g>
			<g>
				<g>
					<path fill="#427692" d="M112,305.6l-5.8,11.7h-1l-5.8-11.7h1.9l4.4,8.7l4.3-8.7H112z"/>
					<path fill="#427692" d="M130.3,311.4c0,1.8-0.7,3.2-2,4.4c-1.3,1.2-3,1.8-5.2,1.8c-2.1,0-3.8-0.6-5.1-1.8c-1.3-1.2-2-2.7-2-4.4
						c0-1.8,0.7-3.2,2-4.4c1.3-1.2,3-1.8,5.1-1.8c2.1,0,3.8,0.6,5.2,1.7C129.7,308.2,130.3,309.6,130.3,311.4z M128.5,311.4
						c0-1.3-0.5-2.3-1.5-3.2c-1-0.9-2.2-1.3-3.8-1.3c-1.6,0-2.8,0.4-3.8,1.3c-1,0.8-1.5,1.9-1.5,3.2c0,1.3,0.5,2.4,1.5,3.2
						c1,0.8,2.2,1.3,3.8,1.3c1.6,0,2.9-0.4,3.8-1.3C128,313.7,128.5,312.7,128.5,311.4z"/>
					<path fill="#427692" d="M147.6,311.4c0,1.7-0.6,3.1-1.6,4.1c-1.2,1.1-2.7,1.6-4.7,1.6h-5.2v-11.7h5.2c1.9,0,3.5,0.6,4.6,1.6
						C147.1,308.3,147.6,309.7,147.6,311.4z M145.8,311.4c0-1.2-0.4-2.2-1.2-3c-0.8-0.8-1.9-1.2-3.2-1.2H138v8.3h3.4
						c1.4,0,2.5-0.4,3.3-1.2C145.4,313.7,145.8,312.7,145.8,311.4z"/>
					<path fill="#427692" d="M164.5,317.2h-2l-4.9-6.4l-2.4,2v4.4h-1.8v-11.6h1.8v5.2l6.2-5.2h2.4l-4.9,4.1L164.5,317.2z"/>
					<path fill="#427692" d="M180.2,317.2h-2l-1.5-3h-6.1l-1.5,3h-1.9l5.9-11.7h1.1L180.2,317.2z M175.9,312.7l-2.3-4.5l-2.3,4.5
						H175.9z"/>
				</g>
			</g>
			<path fill="#002B49" d="M89.2,240c-2.8,0-4.9,0.8-6.1,2.4c-1.2,1.5-1.8,3.8-1.8,6.8v38.5c0,3.1,0.6,5.3,1.8,6.8
				c1.2,1.6,3.3,2.4,6.1,2.4c3.7,0,8-1.6,8-9.2v-38.5C97.2,241.6,92.9,240,89.2,240z M92.9,287.8c0,1.9-0.3,3.4-0.9,4.2
				c-0.5,0.7-1.4,1.1-2.8,1.1c-1.4,0-2.3-0.3-2.8-1c-0.4-0.6-0.8-1.8-0.8-4.2V249c0-1.9,0.3-3.3,0.8-4.2c0.5-0.7,1.4-1,2.8-1
				c1.4,0,2.4,0.3,2.9,1c0.4,0.5,0.8,1.7,0.8,4.2V287.8z M110.2,240c-2.8,0-4.9,0.8-6.1,2.4c-1.2,1.5-1.8,3.8-1.8,6.8v17.9
				c0,3.2,0.6,5.3,1.9,6.4c1,0.9,2.9,1.4,6,1.7c2.3,0.2,2.9,0.7,3.1,0.9c0.2,0.3,0.6,1,0.6,3.1v8.6c0,1.9-0.3,3.4-0.9,4.2
				c-0.5,0.7-1.4,1.1-2.8,1.1c-1.4,0-2.3-0.3-2.8-1c-0.4-0.6-0.8-1.8-0.8-4.2v-5.3h-4.3v5.2c0,3.1,0.6,5.3,1.8,6.8
				c1.2,1.6,3.3,2.4,6.1,2.4c3.7,0,8-1.6,8-9.2v-8.6c0-2.7-0.5-4.6-1.6-5.8c-1.1-1.2-2.9-1.9-5.5-2.2c-3.2-0.3-3.9-0.8-3.9-0.9
				c-0.1-0.1-0.5-0.6-0.5-3.5V249c0-1.9,0.3-3.3,0.8-4.1c0.5-0.7,1.4-1,2.8-1c1.4,0,2.4,0.3,2.9,1c0.4,0.5,0.8,1.7,0.8,4.2v5h4.3
				v-4.9C118.2,241.6,113.8,240,110.2,240z M121.5,244.3h6.1v52.1h4.3v-52.1h6.1v-3.8h-16.6V244.3z M149.4,240
				c-2.8,0-4.9,0.8-6.1,2.4c-1.2,1.5-1.8,3.8-1.8,6.8v38.5c0,3.1,0.6,5.3,1.8,6.8c1.2,1.6,3.3,2.4,6.1,2.4c3.7,0,8-1.6,8-9.2v-38.5
				C157.4,241.6,153,240,149.4,240z M153.1,287.8c0,1.9-0.3,3.4-0.9,4.2c-0.5,0.7-1.4,1.1-2.8,1.1c-1.4,0-2.3-0.3-2.8-1
				c-0.4-0.6-0.8-1.8-0.8-4.2V249c0-1.9,0.3-3.3,0.8-4.1c0.5-0.7,1.4-1,2.8-1c1.4,0,2.4,0.3,2.9,1c0.4,0.5,0.8,1.7,0.8,4.2V287.8z
				 M170.4,266.4l-5.6-25.9h-4.5l7.9,34.5v21.4h4.3V275l7.9-34.5h-4.4L170.4,266.4z M192.4,240c-2.8,0-4.9,0.8-6.1,2.4
				c-1.2,1.5-1.8,3.8-1.8,6.8v21.5h-3.8v3.8h3.8v21.9h4.3v-21.9h7.3v21.9h4.3v-47.2C200.4,241.6,196,240,192.4,240z M196.1,270.7
				h-7.3V249c0-1.9,0.3-3.3,0.8-4.2c0.5-0.7,1.4-1,2.8-1c1.4,0,2.4,0.3,2.9,1c0.4,0.5,0.8,1.7,0.8,4.2V270.7z"/>
		</g>
	</g>
</g>
</svg>
