<?xml version="1.0" encoding="utf-8"?>
<!-- Generator: Adobe Illustrator 19.1.1, SVG Export Plug-In . SVG Version: 6.00 Build 0)  -->
<svg version="1.1" xmlns="http://www.w3.org/2000/svg" xmlns:xlink="http://www.w3.org/1999/xlink" x="0px" y="0px"
	 viewBox="0 0 283 396" enable-background="new 0 0 283 396" xml:space="preserve">
<g id="bombki">
	<g id="wyborowa01">
	</g>
	<g id="jacobs_x5F_creek">
	</g>
	<path fill="#0B274C" d="M180,119.7c-5.9-1.7-9.9-7-9.9-13.1c0,0-5-8.3-5-10.1v-6.7h-45.8v6.8c0,1.8-5,9.9-5,9.9
		c0,6.1-4.1,11.5-9.9,13.1C45.7,136,3,189.8,3,253.6c0.1,76.8,62.1,138.9,139,138.9c76.8,0,138.8-62.3,138.8-139.1
		C280.9,189.9,238.7,136.3,180,119.7z"/>
	<path opacity="0.2" d="M13,253.4c0-53.5,29.9-99.9,74.3-123.1c5.5-3.6,11.2-6.9,17.2-9.8c2.1-1,3.9-2.5,5.2-4.3
		c-1.6,1.6-3.6,2.8-5.9,3.5C45.2,136.3,3,189.9,3,253.4c0,76.8,62,139.1,138.8,139.1c1.7,0,3.3,0,5-0.1
		C72.4,389.7,13,328.5,13,253.4z"/>
	<g opacity="5.000000e-002">
		<path d="M103.9,119.7c2.3-0.7,4.3-1.9,5.9-3.5c-1.3,1.8-3.1,3.3-5.2,4.3c-56,26.7-89.2,87.7-78.3,151.4
			c12,70.4,73.9,119.8,143.2,117.8c-8.9,1.8-18.2,2.7-27.6,2.7C65.1,392.4,3,330.2,3,253.4C3,189.9,45.2,136.3,103.9,119.7z"/>
	</g>
	<path opacity="0.2" d="M271.2,253.4c0-53.5-29.9-99.9-74.3-123.1c-5.5-3.6-11.2-6.9-17.2-9.8c-2.1-1-3.9-2.5-5.2-4.3
		c1.6,1.6,3.6,2.8,5.9,3.5c58.6,16.6,100.8,70.2,100.8,133.7c0,76.8-62,139.1-138.8,139.1c-1.7,0-3.3,0-5-0.1
		C211.9,389.7,271.2,328.5,271.2,253.4z"/>
	<g opacity="5.000000e-002">
		<path d="M180.4,119.7c-2.3-0.7-4.3-1.9-5.9-3.5c1.3,1.8,3.1,3.3,5.2,4.3c56,26.7,89.2,87.7,78.3,151.4
			c-12,70.4-73.9,119.8-143.2,117.8c8.9,1.8,18.2,2.7,27.6,2.7c76.8,0,138.8-62.3,138.8-139.1C281.2,189.9,239.1,136.3,180.4,119.7z
			"/>
	</g>
	<g opacity="5.000000e-002">
		<path d="M141.5,352.1c-48.6,0-92.9-15.6-126.1-41.1c21.8,48.1,70.2,81.4,126.6,81.4c56.6,0,105.2-33.9,126.9-82.4
			C235.6,336.1,190.8,352.1,141.5,352.1z"/>
	</g>
	<path fill="#0A0505" d="M141.6,395.9c-37.9,0-73.4-14.7-100.1-41.4C14.8,327.8,0,292.3,0,254.4c0-31.6,10-61.4,29.1-86.4
		c18.5-24.2,44.8-42,74.1-50.2c4.6-1.3,14.1-20.9,13.3-27.2c-0.2-1.2,0.1-2.9,2.4-4.5c7.7-5.4,34.1-6.2,43.4-1.4
		c3.4,1.8,4.2,4.1,4.2,5.7c0,8.2,9,26.3,13.7,27.6l0,0c29.2,8.3,55.4,26.1,73.8,50.2c19,24.8,29,54.6,29,86
		c0,37.9-14.7,73.4-41.3,100.2C215,381.2,179.5,395.9,141.6,395.9z M143.2,85.6c-12,0-22.3,2.7-22.7,4.6c0.9,7-8.8,29.5-16.2,31.6
		C45.1,138.3,3.9,192.9,4,254.4c0.1,75.8,61.8,137.5,137.6,137.5c75.7,0,137.4-61.8,137.4-137.7c0-61.2-41.1-115.7-99.9-132.4l0,0
		c-7.3-2.1-16.6-22.9-16.6-31.5c0-1.5-3.6-3.6-11.3-4.4C148.5,85.7,145.8,85.6,143.2,85.6z"/>
	<path opacity="0.2" fill="#1C4A7C" d="M143,267.9c50.5,0,97.6-9.3,137.4-25.4c-5.2-58.1-45.8-106-100.8-121.6
		c-5.9-1.7-15.2-20.9-15.2-29.6c0-10.2-47-7.9-46,0c0.9,6.7-8.9,27.7-14.8,29.4c-54.6,15.3-95.4,62.8-101,120.6
		C43.1,258.2,91.3,267.9,143,267.9z"/>
	<g opacity="5.000000e-002">
		<ellipse fill="#FFFFFF" cx="141.5" cy="160.1" rx="52.5" ry="20"/>
	</g>
	<g opacity="5.000000e-002">
		<path fill="#FFFFFF" d="M210.6,349.9c0,0-0.4,0.4-1.2,1.2c-0.8,0.7-2,1.9-3.5,3.2c-3.1,2.7-7.7,6.3-13.7,10.1
			c-3,1.9-6.4,3.8-10,5.5c-3.7,1.8-7.7,3.5-12,4.8c-4.3,1.4-8.8,2.6-13.5,3.3c-2.3,0.4-4.7,0.7-7.1,0.9c-1.2,0.1-2.4,0.2-3.6,0.2
			c-0.6,0-1.2,0-1.8,0.1l-1.9,0c-1.2,0-2.2,0-3.5-0.1c-1.2-0.1-2.5-0.1-3.7-0.2c-2.4-0.2-4.8-0.5-7.1-0.8c-4.7-0.7-9.2-1.9-13.5-3.2
			c-4.3-1.4-8.3-3-12-4.7c-3.7-1.8-7.1-3.6-10.1-5.5c-3-1.9-5.7-3.8-7.9-5.5c-2.3-1.7-4.2-3.4-5.7-4.8c-1.5-1.4-2.7-2.5-3.4-3.3
			c-0.8-0.8-1.2-1.2-1.2-1.2c-0.8-0.8-0.8-2.2,0.1-3c0.7-0.7,1.8-0.8,2.7-0.2l0,0c0,0,0.5,0.3,1.3,0.9c0.9,0.6,2.2,1.4,3.8,2.5
			c3.3,2.1,8.1,5,14.1,7.8c6,2.9,13.2,5.7,21.1,7.8c4,1,8.1,1.9,12.3,2.4c2.1,0.3,4.2,0.5,6.4,0.6c1.1,0.1,2.1,0.1,3.2,0.2
			c1,0,2.3,0,3.4,0.1l1.5,0c0.5,0,1.1,0,1.6,0c1.1-0.1,2.1-0.1,3.2-0.2c2.1-0.1,4.3-0.4,6.4-0.7c4.2-0.6,8.3-1.5,12.3-2.5
			c7.9-2.1,15-5.1,21-8c6-2.9,10.9-5.7,14.3-7.7c3.4-2.1,5.3-3.3,5.3-3.3l0,0c1-0.6,2.3-0.3,2.9,0.7
			C211.5,348.1,211.3,349.2,210.6,349.9z"/>
	</g>
	<path fill="#FF971F" d="M157.6,29h-32l-0.7-1.2c-1.5-2.4-2.3-5.6-2.3-9c0-10.4,8.5-18.9,19-18.9c10.5,0,19,8.5,19,18.9
		c0,3.3-0.8,6.5-2.3,8.9L157.6,29z M128.5,24h26.2c0.6-1.5,1-3.3,1-5.1c0-7.7-6.3-14-14.1-14c-7.8,0-14.1,6.2-14.1,13.9
		C127.5,20.7,127.9,22.6,128.5,24z"/>
	<path fill="#E07907" d="M141.6,5.6c7.5,0,13.6,6.1,13.6,13.6c0,1.7-0.3,3.3-0.9,4.8h-16.2h-9.2c-0.6-1.5-0.9-3.1-0.9-4.8
		C128,11.7,134.1,5.6,141.6,5.6 M141.6,2.6c-9.1,0-16.5,7.4-16.5,16.5c0,2.8,0.7,5.5,1.9,7.8h11.1h18.1c1.2-2.3,1.9-5,1.9-7.8
		C158.1,10,150.7,2.6,141.6,2.6L141.6,2.6z"/>
	<g>
		<path fill="#EDE3C8" d="M166.9,95.7c0-0.6,1-0.4,1-1.6c0,0-0.4-51.2-0.4-52.9s-0.7-2.5-0.7-6.2c0-3.8-0.3-7.8-0.3-7.8
			s-4.1-4.1-25-4.1s-25,4.1-25,4.1s-0.3,4-0.3,7.8c0,3.8-0.7,4.5-0.7,6.2s-0.4,52.9-0.4,52.9c0,1.2,1,1.1,1,1.6H166.9z"/>
		<g opacity="0.6">
			<path fill="#6C5E45" d="M115.3,75.6c0,0.4,0,0.7,0,1.1c6.1-1.4,15.3-2.4,26.3-2.4c11,0,20.2,1,26.3,2.4c0-0.4,0-0.7,0-1.1
				c-6.9-1.5-16.7-2.2-26.3-2.2C132,73.4,122.1,74.2,115.3,75.6z"/>
		</g>
		<g opacity="0.6">
			<path fill="#6C5E45" d="M167.6,84.9c-0.1,0-14.7-0.8-26.2-0.8c-11.5,0-26.1,0.8-26.2,0.8l-0.1-2c0.1,0,14.8-0.8,26.3-0.8
				c11.6,0,26.2,0.8,26.3,0.8L167.6,84.9z"/>
		</g>
		<g opacity="0.6">
			<path fill="#EDE3C8" d="M126.5,24v71.7h29.9V24c-3.6-0.5-8.4-0.9-14.8-0.9C135,23,130.1,23.4,126.5,24z"/>
		</g>
		<path fill="#DBD0B4" d="M167.5,40.7c-0.1-1.4-0.7-2.4-0.7-5.7c0-3.8-0.3-7.8-0.3-7.8s-4.1-4.1-25-4.1c-20.9,0-25,4.1-25,4.1
			s-0.3,4.1-0.3,7.8c0,3.4-0.6,4.3-0.7,5.7C129.9,37.7,152.1,38.1,167.5,40.7z"/>
		<g opacity="0.6">
			<path fill="#6C5E45" d="M166.8,35c0-3.8-0.3-7.8-0.3-7.8s-0.7-0.7-3-1.5v11.2l1,5.1v53.8h2.3c0,0,1-0.2,1-1.4
				c0,0-0.4-51.3-0.4-53.1C167.5,39.5,166.8,38.8,166.8,35z"/>
		</g>
		<g opacity="0.6">
			<path fill="#6C5E45" d="M116.2,35c0-3.8,0.3-7.8,0.3-7.8s0.7-0.7,3-1.5v11.2l-1,5.1v53.8h-2.3c0,0-1-0.2-1-1.4
				c0,0,0.4-51.3,0.4-53.1C115.5,39.5,116.2,38.8,116.2,35z"/>
		</g>
		<g opacity="0.8">
			<path fill="#FBF9E6" d="M140.2,23.1v11.3l-1,4.3v57.1h4.8V38.7l-1-4.4V23.1c-0.8,0-0.5,0-1.4,0S141,23,140.2,23.1z"/>
		</g>
	</g>
</g>
<g id="BRAND">
	<g id="New_Symbol_13">
	</g>
	<g>
		<g>
			<path fill-rule="evenodd" clip-rule="evenodd" fill="#FFFFFF" d="M248.1,277.1l-0.8-0.1l-0.7-0.3l-0.7-0.4l-0.5-0.5l-0.4-0.7
				l-0.3-0.7l-0.1-0.8l0.1-0.8l0.3-0.7l0.4-0.7l0.5-0.5l0.7-0.4l0.7-0.3l0.8-0.1l0.8,0.1l0.7,0.3l0.7,0.4l0.5,0.5l0.4,0.7l0.3,0.7
				l0.1,0.8l-0.1,0.8l-0.3,0.7l-0.4,0.7l-0.6,0.5l-0.7,0.4l-0.7,0.3L248.1,277.1L248.1,277.1z M247.4,276.6l-0.7-0.2l-0.6-0.4
				l-0.5-0.5l-0.4-0.6l-0.2-0.7l-0.1-0.7l0.1-0.7l0.2-0.7l0.4-0.6l0.5-0.5l0.6-0.4l0.7-0.2l0.7-0.1l0.7,0.1l0.7,0.2l0.6,0.4l0.5,0.5
				l0.4,0.6l0.2,0.7l0.1,0.7l-0.1,0.7l-0.3,0.7l-0.4,0.6L250,276l-0.6,0.4l-0.6,0.2l-0.7,0.1L247.4,276.6z"/>
			<path fill-rule="evenodd" clip-rule="evenodd" fill="#FFFFFF" d="M246.7,275.3h0.5v-1.6h1l1,1.6h0.6l-1-1.6
				c0.6-0.1,0.9-0.6,0.9-1c0-0.8-0.6-1.1-1.2-1.1h-1.7V275.3z M247.2,272h1.1c0.5,0,0.8,0.1,0.8,0.6c0,0.5-0.3,0.6-0.8,0.6h-1.1V272
				z"/>
			<path fill-rule="evenodd" clip-rule="evenodd" fill="#FFFFFF" d="M82.8,241.5c-1.3,0-1.7-0.6-1.6-1.1c0.1-0.4,0.7-0.8,1.7-0.8
				c1.1,0,2.1,0.2,2.8,1.1C84.8,241.2,83.6,241.5,82.8,241.5z M101.4,211.8c-2.3,0.7-4.4,2.1-5.6,2.8c-3.7-3.1-8.8-3.9-12.5-3.9
				c-11,0-36.5,6.7-44,27.1c-2.9,7.9,0.4,15,8.2,15c3.4,0,8.9-1.8,14.3-8.3c0.7-0.9,0.1-1.5-0.7-0.7c-5.9,6.8-12.5,8.9-16.4,7.2
				c-9.3-4.2-0.4-19.7,8.3-27c8.2-6.9,21.1-12.6,30.9-12.3c4.6,0.2,8.6,1.7,10.5,3.7c-6.5,4.3-16.2,12.4-26.9,29.6
				c-14.4,23.3-19.5,27.2-26.5,27.4c-5.9,0.2-7.8-2.7-7.8-5.4c0-2.6,1.3-4.6,3.5-5.6c0.4-0.2,0.5-0.4,0.4-0.6
				c-0.1-0.3-0.5-0.2-0.8-0.1c-2.5,1-4.3,3.2-4.5,5.7c-0.5,5.3,4.3,7.4,7.6,7.6c3.6,0.2,17.6,2.3,33.7-27.2
				c7.9-14.6,15.7-25.1,22.1-30.5c0.9,1.3,1.2,2.9,1,5.2c-0.4,6.9-4.6,15.5-9.6,18.4c-1.1-1-2.4-1.5-3.4-1.5c-2-0.1-3.4,0.7-3.6,1.8
				c-0.1,0.9,0.4,2.2,3.2,2.2c1.4,0,3.2-0.8,3.2-0.8c0.3,1.2,0.3,2.3,0.1,5.4c-0.8,9.6-10.7,25.3-17,25.3c-3.2,0-3.6-2.7-3.5-4.5
				c0.2-2.7,2.6-10.1,12.4-12.3c0.4-0.1,1-1.1-1.3-0.6c-3.3,0.7-6.9,2.7-9.8,6.4c-3.4,4.2-4.8,12,2.5,12.5c8.3,0.6,19.8-9.2,21-22.5
				c0.6-6.2-1.6-9.4-2.6-10.5c1.6-0.7,11.4-4.3,12.4-14.8c0.5-4.9-1.3-8.5-3.6-11c1.7-1.3,3.8-2.3,5.3-2.9
				C103,212.2,102.3,211.5,101.4,211.8z"/>
			<path fill-rule="evenodd" clip-rule="evenodd" fill="#FFFFFF" d="M203.8,239.9c1.5,0,3-1.2,3.3-2.8c0.3-1.5-0.7-2.7-2.2-2.7
				c-1.5,0-3,1.2-3.3,2.7C201.3,238.7,202.3,239.9,203.8,239.9z"/>
			<path fill-rule="evenodd" clip-rule="evenodd" fill="#FFFFFF" d="M242.5,242.4c0.3,0,0.2,0,0.4,0c-0.3,1.3-1.3,2.4-2.2,3
				c-0.3,0.2-0.2,0.6,0.5,0.4c1.2-0.3,4.2-2.3,4.4-5.7c0.1-1.4-1-2.6-2.2-2.6c-1.4,0-2.6,1-2.9,2.3
				C240.3,241.2,241.1,242.4,242.5,242.4z"/>
			<path fill-rule="evenodd" clip-rule="evenodd" fill="#FFFFFF" d="M234.1,271.1c-1.7-0.4-2-2.3-2-3.1c0.7-0.3,1.5-0.6,2.5-1.5
				c1.5-1.3,2.4-2.9,2-4.3c1.6-1.6,7.7-10.3,8.9-12.1C245.5,256.8,239.3,272.3,234.1,271.1z M138.1,269.3c-1.4,1.5-2.7,2.1-3.4,1.8
				c-0.9-0.5-2-2.2,4.3-11.8c7.3-11.1,9.2-11.1,10-10.6c0.8,0.5,0.3,2.6-0.9,4.9c-1.3,2.6-2.1,4.2-4.3,7.6
				C142.7,262.9,139.6,267.6,138.1,269.3z M95.9,269.3c-1.3,1.5-2.8,2.2-3.5,1.8c-0.7-0.4-1.9-2.2,4.4-11.8
				c7.3-11.1,9.2-11.1,10-10.6c0.8,0.5,0.2,2.8-1,5.2c-1.3,2.6-2,3.9-4.2,7.3C100.1,263.7,98.5,266.3,95.9,269.3z M234.7,248.6
				c1.5,0-0.1,3.4-1.4,5.4c-1,1.5-2.7,4.8-6.1,5.3c-1,0.1-1.3,0.2-1.3,0.2C226.9,257.7,232.1,248.6,234.7,248.6z M132.3,262.6
				c-1.6,2.3-3.4,5-5.2,6.7c-1.6,1.5-3.1,2.1-3.9,1.6c-0.5-0.3-0.9-1.6,0.6-4l27.7-44.8h-5l-24.1,39c-1.8,2.7-4.4,6.4-6.2,8.1
				c-1.6,1.5-3.2,2.2-3.9,1.6c-0.5-0.3-0.8-1.7,0.6-4l27.7-44.8h-4.9l-23.8,38.5c-1.4,2.3-4.6,7.1-6.2,8.6c-1.5,1.4-2.7,2.2-3.6,1.7
				c-0.6-0.3-0.6-1.6,0.8-4.1l11.7-19.4h-4.5l-2.2,3.7c1.2-2.6-0.2-3.9-1.9-3.8c-2.3,0.1-8.7,3-14,11.4c-4.7,7.5-3.3,13.7,0.4,13.7
				c3.3,0,6.3-4.7,8.2-7.8c-1.3,3-1.5,5.5-0.5,6.9c1.1,1.4,3.1,1,4.4,0.2c2.1-1.2,4.7-4.4,6.1-7.1c-1.4,3.2-1.3,5.9-0.3,7
				c1.3,1.5,3.4,0.8,4.9-0.1c2-1.2,3.5-2.7,6.2-6.9c-1.4,3.2-1.3,5.8-0.3,7c1.3,1.4,3.4,0.8,4.9-0.1c1.8-1.1,3.4-2.6,5.3-5.5
				c-0.6,3.9,0.9,6.5,3.2,6.5c3.4,0,6.5-5,8.3-7.8c-1.1,3-1.6,5.4-0.5,6.8c1,1.3,2.8,1.1,4,0.2c2.2-1.4,6.8-7.2,9.1-10.2
				c0.2-0.3,0.6-0.8-0.3,0.6l-6.4,9.8h4.6c0,0,6.3-9.8,7.6-11.6c4.9-6.6,10.4-12.2,11.6-11.2c0.5,0.5-0.1,1.5-0.9,2.8
				c-3.2,5.3-5.9,7.7-7.7,11.8c-1.5,3.4-1.3,6.5-0.3,7.8c1.1,1.5,3.2,0.9,4.7,0c2.1-1.2,3.7-3,6.3-7c-1.3,3-1.6,5.7-0.5,7
				c1.1,1.3,3.3,0.8,4.8,0c2.2-1.3,4.8-3.6,7-7c-1.2,2.7-1.5,5.5-0.4,6.9c1.3,1.6,3.1,1,4.5,0.2c3-1.8,5.8-5.5,9.4-10.2
				c0.3-0.3,0.6-0.7-0.3,0.6l-6.3,9.8h4.6c0,0,6.2-9.7,7.5-11.4c3.8-5.3,10.2-12.3,11.5-11.3c0.7,0.5,0,1.8-0.7,2.9
				c-3.1,5.3-5.9,7.7-7.7,11.8c-1.7,3.9-1.3,6.4-0.2,7.8c1.1,1.5,3.3,0.9,4.7,0.2c1.9-1.1,3.9-2.9,6.3-6.9c-0.1,1.2-0.2,2.1-0.1,3.4
				c0.3,2.3,1.5,4.3,4.2,4.3c3.1,0,6.5-2.8,7.6-3.9c0.3,2.3,1.7,3.9,4.5,3.9c7,0,11.5-6.5,12-12.9c0.3-3.5-0.5-9.8,0-11.3
				c0.4-1.2,2.7-2.7,3.9-4.5c1.1-1.8,0.9-3.1,0.3-3.4c-0.9-0.4-2.3,0.8-3.1,2.2c-1.5,2.4-2.7,4.8-2.8,5.2
				c-0.4,1.2-8.6,12.5-9.9,13.7c-0.7-0.2-2-0.1-3.2,1.3c-1.7,2-1.7,3.6-1.7,4.2c-1.5,1.6-5.4,4.6-7.5,4.1c-4.1-0.9,1.5-9.3,1.8-9.9
				c0.3-0.4,1.1-0.5,1.5-0.6c5.6-0.9,8.9-3.9,10.2-6.3c1.5-2.7,1.3-5.7-0.4-6.5c-1.3-0.6-3.7-0.1-5.6,1c-3,1.8-6.3,4.9-8.8,8.7
				c-1.7,2.6-1.8,3.7-3.3,5.7c-1.1,1.5-2.7,4.2-4.6,6c-1.5,1.4-3.4,2.3-4.1,1.7c-0.5-0.4-0.4-2,0.8-4c2.4-4,6.1-8.1,8-12.3
				c1.7-3.9,1.6-6.4-0.1-7.2c-3.3-1.5-8.7,4.9-12.2,9.3c0,0,5.8-9.4,5.8-9.4h-4.4l-3.4,5.6c-1.6,2.7-10.1,13.6-12.2,15.6
				c-1.3,1.3-3.4,2.9-4.4,2.3c-0.5-0.3-0.7-1.7,0.7-3.9l12.2-19.5h-5l-9,14.5c-1.6,2.3-3.7,5-6,7c-1.9,1.7-3.9,2.6-4.6,1.8
				c-0.5-0.6,0-2.1,1-3.8l14.1-22.7h8.7c6.3,0,8.6-1.7,9.7-3c0.3-0.4,0.2-0.9-0.5-0.4c-1.2,1-4.1,2.1-8.6,2.1h-8.5l7.8-12.4h-4.8
				l-7.8,12.4h-4.5c-2.1,0-4.1,0.3-5.4,1.1c-1,0.6-0.4,0.8,0.4,0.5c0.8-0.3,2.4-0.3,3.6-0.3h5.1l-12,18.8c-1.9,2.7-3.5,4.8-5,6.2
				c-1.3,1.3-2.8,2.1-3.6,1.7c-0.6-0.3-0.6-1.7,0.8-4c2.4-4,6.1-8,8-12.3c1.6-3.7,1.7-6.4-0.1-7.2c-3.2-1.5-8.4,4.5-12.2,9.4
				c0,0,5.9-9.4,5.9-9.4h-4.4l-3.4,5.5c-1.6,2.8-10.1,13.8-13,16.5c-1.2,1.1-2.4,1.9-3.1,1.4c-0.6-0.4-0.1-2.2,0.9-4l11.9-19.5h-4.4
				l-2.3,3.7c1.2-2.6,0.1-3.9-1.9-3.8c-2.3,0.1-8.8,3.1-14,11.4C134,259.3,133.1,260.7,132.3,262.6z"/>
		</g>
	</g>
</g>
</svg>
