<?xml version="1.0" encoding="utf-8"?>
<!-- Generator: Adobe Illustrator 19.1.1, SVG Export Plug-In . SVG Version: 6.00 Build 0)  -->
<svg version="1.1" xmlns="http://www.w3.org/2000/svg" xmlns:xlink="http://www.w3.org/1999/xlink" x="0px" y="0px"
	 viewBox="0 0 283 396" enable-background="new 0 0 283 396" xml:space="preserve">
<g id="bombki">
	<g id="wyborowa01">
	</g>
	<g id="jacobs_x5F_creek">
	</g>
	<path fill="#F19D00" d="M179.8,120.4c-5.9-1.7-9.9-7-9.9-13.1l-3-5.1c0-0.9,2.2-1.7,1.3-1.7h-3c-1.8,0-0.3-1.5-0.3-3.3v-6.7h-45.8
		v6.8c0,1.8,0.6,3.2-1.2,3.2h-2c-1,0,0.2,0.8,0.2,1.8l-2,4.9c0,6.1-4.1,11.5-10,13.2C45.4,136.7,2.6,190.6,2.7,254.4
		c0.1,76.9,62.2,139,139.1,139c76.9,0,139-62.3,139-139.2C280.7,190.7,238.5,137.1,179.8,120.4z"/>
	<path opacity="0.1" fill="#E17310" d="M179.8,120.4c-2.3-0.7-4.3-1.9-5.9-3.5c1.3,1.8,3.1,3.3,5.2,4.3
		c56,26.8,89.3,87.8,78.4,151.6c-12,70.5-73.9,119.8-143.4,117.9c8.9,1.8,18.2,2.7,27.7,2.7c76.9,0,139-62.3,139-139.2
		C280.7,190.7,238.5,137.1,179.8,120.4z"/>
	<path opacity="0.5" fill="#0D0200" d="M141.3,353c-48.6,0-92.9-15.6-126.2-41.1C37,360,85.4,393.4,141.8,393.4
		c56.7,0,105.3-33.9,127-82.5C235.4,337,190.5,353,141.3,353z"/>
	<g opacity="0.1">
		<path fill="#FFFFFF" d="M37.4,295.7c-24-59.1-4.6-125.1,43.7-162.4c2.2-1.7,3.7-3.9,4.6-6.4C36.6,148.5,2.6,197.5,2.7,254.4
			c0.1,76.9,62.2,139,139.1,139c24.9,0,48.2-6.5,68.4-18C141,398.5,65.3,364.2,37.4,295.7z"/>
	</g>
	<ellipse opacity="0.2" fill="#FFDDB1" cx="141.5" cy="159.1" rx="52.3" ry="19.9"/>
	<path fill="#79A100" d="M141.6,395.9c-37.9,0-73.4-14.7-100.1-41.4C14.8,327.8,0.1,292.3,0,254.4c0-31.6,10-61.4,29.1-86.4
		c18.5-24.2,44.8-42,74.1-50.2c4.4-1.2,14.7-20.8,13.9-26.6c-0.1-1.1,0-3.2,2.7-5.1c7.6-5.3,32.6-6.2,41.7-1.4
		c3.7,1.9,4.5,4.4,4.5,6.2c0,8.1,10,25.8,14.3,27h0c29.2,8.3,55.4,26.1,73.8,50.2c19,24.8,29,54.5,29,86
		c0,37.9-14.7,73.4-41.3,100.2C215,381.1,179.5,395.9,141.6,395.9z M122.1,90.8c0.8,7.7-10.4,29.9-17.5,31.9
		C45.8,139.1,4.9,193.3,5,254.4c0.1,75.3,61.4,136.5,136.7,136.5c75.2,0,136.4-61.3,136.4-136.7c0-60.8-40.8-114.8-99.2-131.4h0
		c-7.4-2.1-17.9-22.4-17.9-31.8c0-0.9-1.9-2.2-5.9-3.2C142.2,84.9,123.7,88.1,122.1,90.8z"/>
	<path fill="#FF901F" d="M157.7,29.1h-32.1l-0.7-1.2c-1.5-2.4-2.3-5.7-2.3-9c0-10.5,8.6-19,19.1-19c10.5,0,19.1,8.5,19.1,19
		c0,3.3-0.9,6.6-2.3,8.9L157.7,29.1z M128.5,24.1h26.3c0.6-1.5,1-3.3,1-5.1c0-7.7-6.3-14-14.1-14s-14.1,6.3-14.1,14
		C127.6,20.8,127.9,22.7,128.5,24.1z"/>
	<path fill="#D97907" d="M141.7,5.5c7.5,0,13.6,6.1,13.6,13.6c0,1.7-0.3,3.3-0.9,4.8h-16.2h-9.2c-0.6-1.5-0.9-3.1-0.9-4.8
		C128.1,11.6,134.2,5.5,141.7,5.5 M141.7,2.5c-9.2,0-16.6,7.4-16.6,16.6c0,2.8,0.7,5.5,2,7.8h11.2h18.2c1.2-2.3,2-5,2-7.8
		C158.3,9.9,150.9,2.5,141.7,2.5L141.7,2.5z"/>
	<path fill="#79A100" d="M167,96.5c0-0.6,1-0.4,1-1.6c0,0-0.4-51.4-0.4-53.2s-0.7-2.5-0.7-6.3c0-3.8-0.3-7.8-0.3-7.8
		s-4.1-4.1-25.1-4.1s-25.1,4.1-25.1,4.1s-0.3,4.1-0.3,7.8c0,3.8-0.7,4.5-0.7,6.3S115,94.9,115,94.9c0,1.2,1,1.1,1,1.6H167z"/>
	<path opacity="0.6" fill="#6C5E45" d="M115.1,76.3c0,0.4,0,0.7,0,1.1c6.1-1.4,15.3-2.4,26.4-2.4c11.1,0,20.3,1,26.4,2.4
		c0-0.4,0-0.7,0-1.1c-6.9-1.5-16.8-2.2-26.4-2.2C131.9,74.1,122,74.8,115.1,76.3z"/>
	<path opacity="0.6" fill="none" stroke="#6C5E45" stroke-width="2" stroke-miterlimit="10" d="M115,84.6c0,0,14.7-0.8,26.4-0.8
		s26.4,0.8,26.4,0.8"/>
	<path opacity="0.3" fill="#CFFF57" d="M126.4,24.5v72h30V24.4c-3.6-0.5-8.5-0.9-14.9-0.9C134.9,23.5,130,23.9,126.4,24.5z"/>
	<path opacity="0.5" fill="#79A100" d="M167.6,41.3c-0.1-1.4-0.7-2.4-0.7-5.7c0-3.8-0.3-7.9-0.3-7.9s-4.1-4.2-25.1-4.2
		c-21,0-25.1,4.2-25.1,4.2s-0.3,4.1-0.3,7.9c0,3.4-0.6,4.3-0.7,5.7C129.8,38.3,152.1,38.7,167.6,41.3z"/>
	<path opacity="0.6" fill="#6C5E45" d="M166.9,35.5c0-3.8-0.3-7.9-0.3-7.9s-0.7-0.7-3-1.5v11.3l1,5.1v54h2.3c0,0,1-0.2,1-1.5
		c0,0-0.4-51.6-0.4-53.3C167.6,40,166.9,39.3,166.9,35.5z"/>
	<path opacity="0.6" fill="#6C5E45" d="M116.1,35.5c0-3.8,0.3-7.9,0.3-7.9s0.7-0.7,3-1.5v11.3l-1,5.1v54H116c0,0-1-0.2-1-1.5
		c0,0,0.4-51.6,0.4-53.3C115.4,40,116.1,39.3,116.1,35.5z"/>
	<path opacity="0.3" fill="#CFFF57" d="M140.2,23.5v11.2l-1,4.3v57.4h4.8V39.1l-1-4.4V23.5c-0.8,0-0.5,0-1.4,0
		C140.7,23.5,140.9,23.5,140.2,23.5z"/>
	<path opacity="0.2" fill="#C1540A" d="M3.8,262.5c3.4-2.9,12-2.4,24.6-0.3c-6.8-49.2,13.4-98.6,52.7-129c2.2-1.7,3.7-3.9,4.6-6.4
		C36.6,148.5,2.6,197.5,2.7,254.4c0,2.5,0.1,5,0.2,7.4C3.1,262,3.5,262.3,3.8,262.5z"/>
	<path opacity="0.2" fill="#C1540A" d="M179.8,120.4c-2.3-0.7-4.3-1.9-5.9-3.5c1.3,1.8,3.1,3.3,5.2,4.3
		c52.6,25.1,85.1,80.4,79.9,139.9c12.3-2,19.6-1.9,19.7,1.8c0.4-0.2,0.8-0.4,1.2-0.7c-2.2,42.6-23.6,80.1-55.6,104.1
		c34.3-25.3,56.5-66.1,56.5-112C280.7,190.7,238.5,137.1,179.8,120.4z"/>
	<g>
		<path opacity="0.2" fill="#E27124" d="M174,280C83,283.4,4.2,247.8,1.8,265.4C22.5,306.6,104.6,295,174,280z"/>
		<path opacity="0.3" fill="#C1540A" d="M278.6,263.5c4.5-24.1-238.9,77.2-276.8,1.8c7,70.4,66.2,125.2,138.5,125.2
			C213.1,390.6,272.5,334.7,278.6,263.5z"/>
	</g>
</g>
<g id="BRAND">
	<g id="New_Symbol_13">
	</g>
	<g>
		<g>
			<path fill-rule="evenodd" clip-rule="evenodd" fill="#001539" d="M247.4,277.4l-0.8-0.1l-0.7-0.3l-0.6-0.4l-0.5-0.5l-0.4-0.7
				l-0.3-0.7l-0.1-0.8l0.1-0.8l0.3-0.7l0.4-0.6l0.6-0.5l0.7-0.4l0.7-0.3l0.8-0.1l0.8,0.1l0.7,0.3l0.6,0.4l0.5,0.6l0.4,0.6l0.3,0.7
				l0.1,0.8l-0.1,0.8l-0.3,0.7l-0.5,0.6l-0.6,0.5l-0.7,0.4l-0.7,0.3L247.4,277.4L247.4,277.4z M246.7,277l-0.7-0.2l-0.6-0.4
				l-0.5-0.5l-0.4-0.6l-0.2-0.7l-0.1-0.7l0.1-0.7l0.2-0.6l0.4-0.6l0.5-0.5l0.6-0.4l0.7-0.2l0.7-0.1l0.7,0.1l0.7,0.2l0.6,0.4l0.5,0.5
				l0.4,0.6l0.2,0.7l0.1,0.7l-0.1,0.7l-0.3,0.7l-0.4,0.6l-0.5,0.5l-0.6,0.4l-0.6,0.2l-0.7,0.1L246.7,277z"/>
			<path fill-rule="evenodd" clip-rule="evenodd" fill="#001539" d="M246.1,275.7h0.5l0-1.6l1,0l1,1.6l0.6,0l-1-1.6
				c0.7-0.1,0.9-0.6,0.9-1c0-0.9-0.6-1.1-1.2-1.1l-1.7,0L246.1,275.7z M246.6,272.4l1.1,0c0.5,0,0.8,0.2,0.8,0.6
				c0,0.5-0.3,0.6-0.8,0.6l-1.1,0L246.6,272.4z"/>
			<path fill-rule="evenodd" clip-rule="evenodd" fill="#001539" d="M82.6,240.3c-1.3,0-1.7-0.6-1.6-1.1c0.1-0.4,0.7-0.8,1.7-0.8
				c1.1,0,2.1,0.3,2.8,1.1C84.7,240,83.5,240.4,82.6,240.3z M101.5,210.8c-2.3,0.7-4.5,2-5.7,2.7c-3.6-3.1-8.7-4-12.5-4
				c-11-0.1-36.5,6.3-44.2,26.7c-3,7.9,0.2,15,8.1,15.1c3.4,0,9-1.7,14.3-8.2c0.7-0.9,0.1-1.5-0.7-0.7c-6,6.7-12.6,8.8-16.4,7
				c-9.3-4.3-0.3-19.7,8.5-26.9c8.3-6.8,21.2-12.4,31-12c4.6,0.2,8.5,1.8,10.5,3.8c-6.6,4.2-16.3,12.2-27.1,29.4
				c-14.6,23.1-19.7,27-26.7,27.2c-5.9,0.1-7.7-2.7-7.7-5.4c0-2.6,1.4-4.6,3.6-5.5c0.4-0.2,0.5-0.4,0.4-0.6
				c-0.1-0.3-0.5-0.2-0.8-0.1c-2.6,0.9-4.3,3.1-4.6,5.7c-0.5,5.3,4.3,7.4,7.5,7.7c3.6,0.2,17.6,2.4,33.9-26.9
				c8.1-14.5,15.9-24.9,22.4-30.2c0.8,1.3,1.2,2.9,1,5.2c-0.5,6.9-4.8,15.4-9.7,18.3c-1.1-1-2.4-1.5-3.4-1.6c-2-0.1-3.4,0.7-3.6,1.8
				c-0.1,0.9,0.4,2.2,3.1,2.2c1.4,0,3.3-0.7,3.3-0.7c0.3,1.2,0.3,2.3,0.1,5.4c-0.9,9.6-11,25.2-17.2,25.1c-3.2,0-3.6-2.7-3.4-4.5
				c0.2-2.7,2.7-10.1,12.5-12.1c0.4-0.1,1-1.1-1.3-0.6c-3.3,0.7-6.9,2.7-9.9,6.3c-3.4,4.2-4.9,12,2.4,12.5
				c8.3,0.7,19.8-9.1,21.1-22.3c0.6-6.2-1.5-9.4-2.5-10.5c1.7-0.7,11.5-4.2,12.6-14.7c0.5-4.9-1.2-8.5-3.5-11
				c1.7-1.3,3.8-2.3,5.4-2.8C103.1,211.3,102.4,210.6,101.5,210.8z"/>
			<path fill-rule="evenodd" clip-rule="evenodd" fill="#001539" d="M203.5,239.9c1.5,0,3-1.2,3.3-2.7c0.3-1.5-0.7-2.7-2.2-2.7
				c-1.5,0-3,1.2-3.3,2.7C201,238.7,202,239.9,203.5,239.9z"/>
			<path fill-rule="evenodd" clip-rule="evenodd" fill="#001539" d="M242.2,242.7c0.3,0,0.2,0,0.4,0c-0.3,1.3-1.3,2.3-2.3,3
				c-0.3,0.2-0.2,0.6,0.5,0.4c1.2-0.3,4.2-2.3,4.5-5.6c0.1-1.4-0.9-2.6-2.2-2.6c-1.4,0-2.6,1-2.9,2.3
				C239.9,241.5,240.8,242.7,242.2,242.7z"/>
			<path fill-rule="evenodd" clip-rule="evenodd" fill="#001539" d="M233.5,271.3c-1.7-0.4-2-2.3-2-3.1c0.7-0.3,1.5-0.6,2.5-1.4
				c1.5-1.3,2.4-2.9,2-4.3c1.6-1.6,7.8-10.2,9-12C245,257.1,238.7,272.5,233.5,271.3z M137.6,268.6c-1.4,1.5-2.8,2.1-3.4,1.8
				c-0.9-0.5-1.9-2.3,4.4-11.8c7.4-11,9.3-11,10.1-10.5c0.8,0.5,0.2,2.6-0.9,4.9c-1.3,2.6-2.2,4.1-4.4,7.5
				C142.3,262.3,139.2,266.9,137.6,268.6z M95.5,268.2c-1.3,1.5-2.8,2.1-3.5,1.8c-0.7-0.4-1.8-2.3,4.5-11.8c7.4-11,9.3-11,10.1-10.5
				c0.8,0.5,0.2,2.8-1,5.2c-1.3,2.6-2,3.9-4.3,7.3C99.7,262.6,98.1,265.2,95.5,268.2z M234.3,248.9c1.5,0-0.1,3.4-1.4,5.4
				c-1,1.5-2.7,4.8-6.1,5.2c-1,0.1-1.3,0.2-1.3,0.2C226.5,257.9,231.8,248.8,234.3,248.9z M131.9,261.9c-1.6,2.3-3.5,5-5.2,6.6
				c-1.6,1.5-3.1,2.1-3.9,1.6c-0.5-0.3-0.8-1.6,0.7-3.9l28.1-44.5l-5,0l-24.4,38.7c-1.9,2.7-4.4,6.4-6.3,8.1
				c-1.6,1.5-3.2,2.1-3.9,1.6c-0.5-0.3-0.7-1.7,0.7-4l28.1-44.5l-4.9,0l-24.1,38.3c-1.4,2.2-4.7,7.1-6.3,8.6
				c-1.5,1.4-2.7,2.2-3.7,1.6c-0.6-0.4-0.6-1.6,0.9-4.1l11.9-19.3l-4.5,0l-2.3,3.7c1.2-2.6-0.1-3.9-1.9-3.8
				c-2.3,0-8.8,2.9-14.1,11.2c-4.8,7.4-3.4,13.7,0.3,13.7c3.3,0,6.3-4.7,8.3-7.7c-1.3,3-1.6,5.4-0.5,6.8c1.1,1.4,3,1,4.4,0.3
				c2.1-1.1,4.7-4.3,6.2-7c-1.4,3.2-1.3,5.8-0.4,7c1.2,1.5,3.4,0.8,4.9-0.1c2-1.2,3.6-2.7,6.2-6.8c-1.4,3.2-1.4,5.8-0.4,7
				c1.3,1.5,3.4,0.8,4.9-0.1c1.8-1.1,3.4-2.6,5.4-5.5c-0.7,3.9,0.9,6.5,3.1,6.5c3.4,0,6.6-4.9,8.3-7.7c-1.2,3-1.7,5.4-0.6,6.8
				c1,1.4,2.7,1.1,4,0.3c2.2-1.4,6.9-7.1,9.1-10.1c0.2-0.3,0.7-0.8-0.3,0.6l-6.4,9.7l4.6,0c0,0,6.4-9.8,7.7-11.5
				c5-6.6,10.5-12.1,11.6-11c0.6,0.5-0.1,1.5-0.9,2.8c-3.2,5.3-5.9,7.7-7.8,11.7c-1.5,3.4-1.4,6.4-0.4,7.8c1.1,1.5,3.1,0.9,4.7,0
				c2.1-1.2,3.7-3,6.4-6.9c-1.3,2.9-1.6,5.7-0.6,7c1.1,1.3,3.3,0.9,4.8,0c2.2-1.2,4.8-3.5,7.1-6.9c-1.2,2.7-1.6,5.4-0.4,6.9
				c1.3,1.6,3.1,1,4.5,0.2c3-1.8,5.8-5.4,9.5-10.1c0.3-0.3,0.6-0.7-0.3,0.6l-6.4,9.7l4.6,0c0,0,6.3-9.6,7.6-11.4
				c3.9-5.3,10.3-12.2,11.6-11.2c0.7,0.5,0,1.8-0.7,2.9c-3.2,5.3-6,7.7-7.8,11.7c-1.8,3.9-1.3,6.4-0.3,7.8c1.1,1.4,3.3,0.9,4.7,0.2
				c2-1.1,3.9-2.9,6.4-6.8c-0.2,1.2-0.3,2.1-0.1,3.4c0.3,2.3,1.4,4.3,4.2,4.3c3.1,0,6.5-2.8,7.6-3.8c0.3,2.3,1.7,3.9,4.4,3.9
				c7,0.1,11.5-6.3,12.1-12.8c0.3-3.5-0.4-9.8,0.1-11.3c0.4-1.2,2.7-2.6,3.9-4.5c1.1-1.8,1-3.1,0.4-3.4c-0.9-0.4-2.2,0.7-3.1,2.2
				c-1.5,2.4-2.7,4.8-2.9,5.2c-0.5,1.2-8.7,12.4-10,13.6c-0.7-0.2-2-0.1-3.2,1.3c-1.7,2-1.7,3.6-1.7,4.2c-1.5,1.5-5.4,4.6-7.5,4
				c-4-1,1.6-9.3,1.9-9.9c0.3-0.4,1.1-0.5,1.5-0.6c5.6-0.8,8.9-3.8,10.3-6.2c1.5-2.7,1.3-5.7-0.3-6.5c-1.3-0.7-3.7-0.2-5.6,0.9
				c-3,1.8-6.4,4.8-8.9,8.7c-1.7,2.5-1.9,3.7-3.3,5.7c-1.1,1.5-2.8,4.1-4.6,5.9c-1.5,1.4-3.4,2.3-4.2,1.7c-0.5-0.4-0.4-2,0.8-3.9
				c2.4-4,6.2-8,8.1-12.2c1.7-3.9,1.6-6.4-0.1-7.2c-3.3-1.5-8.7,4.8-12.2,9.2c0,0,5.9-9.3,5.9-9.3l-4.4,0l-3.5,5.6
				c-1.6,2.6-10.2,13.5-12.4,15.4c-1.3,1.2-3.4,2.8-4.4,2.2c-0.5-0.3-0.7-1.7,0.7-3.9l12.3-19.4l-5,0l-9.2,14.4c-1.6,2.3-3.8,5-6,7
				c-1.9,1.7-3.9,2.6-4.6,1.8c-0.5-0.6,0-2.1,1.1-3.8l14.3-22.5l8.7,0.1c6.3,0,8.6-1.6,9.7-2.9c0.3-0.4,0.2-0.9-0.5-0.4
				c-1.2,1-4.1,2-8.6,2l-8.4-0.1l7.9-12.3l-4.8-0.1l-8,12.3l-4.5,0c-2.1,0-4.1,0.2-5.5,1c-1,0.6-0.4,0.8,0.4,0.5
				c0.8-0.3,2.4-0.3,3.6-0.3l5.1,0.1l-12.2,18.7c-1.9,2.7-3.6,4.8-5.1,6.2c-1.3,1.2-2.8,2.1-3.6,1.7c-0.6-0.4-0.6-1.7,0.8-4
				c2.4-3.9,6.1-7.9,8.1-12.2c1.7-3.7,1.8-6.4,0-7.2c-3.2-1.5-8.4,4.4-12.3,9.2c0,0,5.9-9.4,5.9-9.4l-4.4,0l-3.4,5.5
				c-1.6,2.8-10.2,13.7-13.2,16.4c-1.2,1.1-2.4,1.9-3.1,1.3c-0.6-0.4-0.1-2.2,1-3.9l12-19.4l-4.4,0l-2.3,3.7
				c1.3-2.6,0.1-3.9-1.9-3.8c-2.3,0-8.8,3.1-14.1,11.2C133.6,258.6,132.7,259.9,131.9,261.9z"/>
		</g>
		<g>
			<g>
				<linearGradient id="SVGID_1_" gradientUnits="userSpaceOnUse" x1="76.7878" y1="271.3594" x2="245.4391" y2="307.2144">
					<stop  offset="0" style="stop-color:#9E722F"/>
					<stop  offset="0.1685" style="stop-color:#F7C57F"/>
					<stop  offset="0.3926" style="stop-color:#9D652E"/>
					<stop  offset="0.5092" style="stop-color:#9E722F"/>
					<stop  offset="0.6626" style="stop-color:#F5B97C"/>
					<stop  offset="1" style="stop-color:#9D702F"/>
				</linearGradient>
				<path fill-rule="evenodd" clip-rule="evenodd" fill="url(#SVGID_1_)" d="M189.6,281h-1.7v0.9h0c0.9,0,1.7,0.9,1.7,1.9v24.3
					c-0.1,1-0.8,1.9-1.7,1.9h0v0.9h1.7h5.7h1.7V310h0c-0.9,0-1.7-0.9-1.7-1.9v-24.3c0.1-1,0.8-1.9,1.7-1.9h0V281h-1.7H189.6z"/>
				<linearGradient id="SVGID_2_" gradientUnits="userSpaceOnUse" x1="75.9413" y1="275.3557" x2="244.589" y2="311.21">
					<stop  offset="0" style="stop-color:#9E722F"/>
					<stop  offset="0.1685" style="stop-color:#F7C57F"/>
					<stop  offset="0.3926" style="stop-color:#9D652E"/>
					<stop  offset="0.5092" style="stop-color:#9E722F"/>
					<stop  offset="0.6626" style="stop-color:#F5B97C"/>
					<stop  offset="1" style="stop-color:#9D702F"/>
				</linearGradient>
				<path fill-rule="evenodd" clip-rule="evenodd" fill="url(#SVGID_2_)" d="M175,293.4c-4.6-1.3-5.8-1.7-6.2-3.8
					c-0.6-2.5,1.5-4.4,4-4.7c2.5-0.2,5,0,6.7,0.8c1.1,0.5,1.8,1.5,2.1,2.2h0.8l0.1-6.9c0,0-3.5-0.7-8.4-0.7c-4.4,0-11,1.6-11.3,8.5
					c-0.2,6.6,5,8,6.4,8.4c1.4,0.4,7.4,1.4,8.6,3.7c1,2,0.5,5.4-3.4,5.9c-3.9,0.5-5.7,0.2-7.6-0.4c-1.8-0.5-2.7-1.7-3.1-2.8H163v7.2
					c0,0,4.9,0.7,8.1,0.8c3.3,0.1,9-0.3,11.6-4.1c2.7-3.9,1-8.8-0.6-10.4C180.6,295.5,179.6,294.7,175,293.4z"/>
				<linearGradient id="SVGID_3_" gradientUnits="userSpaceOnUse" x1="75.0879" y1="279.3798" x2="243.7321" y2="315.2333">
					<stop  offset="0" style="stop-color:#9E722F"/>
					<stop  offset="0.1685" style="stop-color:#F7C57F"/>
					<stop  offset="0.3926" style="stop-color:#9D652E"/>
					<stop  offset="0.5092" style="stop-color:#9E722F"/>
					<stop  offset="0.6626" style="stop-color:#F5B97C"/>
					<stop  offset="1" style="stop-color:#9D702F"/>
				</linearGradient>
				<path fill-rule="evenodd" clip-rule="evenodd" fill="url(#SVGID_3_)" d="M159.8,309.2c-0.9-1.2-2.2-6.2-2.2-6.2l-4.6-17
					c0,0-1.4-5.5-8.2-5.6c-7.5-0.1-8.9,6.9-8.9,6.9l-4.1,16.4c1.4,1.2,2.6,1.7,3.6,1.9c1.4,0.2,1.7-1.1,1.7-1.1s0.5-2,1.2-4.7h12.6
					c0.5,1.9,0.8,3.4,0.9,3.6c0.2,0.7,0.8,3.6,3.4,6.1c2.6,2.5,6.7,1.9,6.7,1.9v-0.6C161.8,310.8,160.6,310.4,159.8,309.2z
					 M139.4,295.2c0.9-3.7,1.8-7.1,1.9-7.5c0.2-0.8,0.8-2.8,3.5-2.8c2.6,0.1,3.1,2.5,3.1,2.5s0.9,3.8,1.9,7.7H139.4z"/>
				<linearGradient id="SVGID_4_" gradientUnits="userSpaceOnUse" x1="73.2127" y1="288.2025" x2="241.8563" y2="324.0559">
					<stop  offset="0" style="stop-color:#9E722F"/>
					<stop  offset="0.1685" style="stop-color:#F7C57F"/>
					<stop  offset="0.3926" style="stop-color:#9D652E"/>
					<stop  offset="0.5092" style="stop-color:#9E722F"/>
					<stop  offset="0.6626" style="stop-color:#F5B97C"/>
					<stop  offset="1" style="stop-color:#9D702F"/>
				</linearGradient>
				<path fill-rule="evenodd" clip-rule="evenodd" fill="url(#SVGID_4_)" d="M141.9,311.1c-3,0.2-8.8-2.2-13.1-6.9
					c-4.3-4.6-7.3-6.4-9.4-7c6-2.3,5.5-7.7,5.5-7.7c0-8.6-10.3-8.6-10.3-8.6h-3.4v0h-1.7h-5.7h-1.7v0.9h0c0.9,0,1.6,0.9,1.7,1.9
					l0,27.1h0h5.7l0-11.5c1.4-0.1,3.6-0.2,6.7,1.3c3.2,1.5,9.6,8,11,9.2c1.4,1.2,5,4.1,11.8,4.1c6.7-0.1,9.9-4.1,9.9-4.1l-0.4-0.6
					C148.4,309.2,144.9,310.9,141.9,311.1z M115.7,294.5c-2,0.6-5.9,0.3-6.3,0.3v-9.3c0.9,0,2.7,0,4.5,0c2.5,0,5,1.4,5.2,4
					C119.3,292.2,117.9,293.9,115.7,294.5z"/>
				<linearGradient id="SVGID_5_" gradientUnits="userSpaceOnUse" x1="72.2777" y1="292.596" x2="240.9253" y2="328.4503">
					<stop  offset="0" style="stop-color:#9E722F"/>
					<stop  offset="0.1685" style="stop-color:#F7C57F"/>
					<stop  offset="0.3926" style="stop-color:#9D652E"/>
					<stop  offset="0.5092" style="stop-color:#9E722F"/>
					<stop  offset="0.6626" style="stop-color:#F5B97C"/>
					<stop  offset="1" style="stop-color:#9D702F"/>
				</linearGradient>
				<path fill-rule="evenodd" clip-rule="evenodd" fill="url(#SVGID_5_)" d="M94.2,293.3c0,0,4.8-1.9,4.7-6.7
					c-0.1-9.3-12.9-8.3-12.9-8.3h-4.5v0l-7.5,0v0.9h0c0.9,0,1.7,0.9,1.7,1.9v26.9c-0.1,1-0.8,1.9-1.7,1.9h0v0.9h1.7h0v0h5.9l0,0
					c0,0,2.7,0,7.2,0c4.5,0,12-1.6,12-9C100.9,294.6,94.2,293.3,94.2,293.3z M82,283.3c1.1,0,2.7,0,3.5,0c1.4,0,7.1-0.3,7.1,3.9
					c0,5.2-6.8,4.6-6.8,4.6H82V283.3z M87.2,306c-0.8,0-4.6-0.1-5.3-0.1v-9.1c0.9,0,2.8,0,4.2,0c1.9,0,8.4-0.3,8.4,4.7
					C94.6,306.4,88.1,306,87.2,306z"/>
				<linearGradient id="SVGID_6_" gradientUnits="userSpaceOnUse" x1="77.3698" y1="268.653" x2="246.0119" y2="304.506">
					<stop  offset="0" style="stop-color:#9E722F"/>
					<stop  offset="0.1685" style="stop-color:#F7C57F"/>
					<stop  offset="0.3926" style="stop-color:#9D652E"/>
					<stop  offset="0.5092" style="stop-color:#9E722F"/>
					<stop  offset="0.6626" style="stop-color:#F5B97C"/>
					<stop  offset="1" style="stop-color:#9D702F"/>
				</linearGradient>
				<path fill-rule="evenodd" clip-rule="evenodd" fill="url(#SVGID_6_)" d="M225.7,303.3c0,0-0.2,0.5-0.7,0.9
					c-0.5,0.5-1.6,1.2-4.2,1.7c-2.5,0.5-6.2,0.5-6.2,0.5l-6-0.2v-22.5c0.1-1,0.8-1.9,1.7-1.9h0V281h-1.7h-5.7h-1.7v0.9h0
					c0.9,0,1.7,0.9,1.7,1.9v24.3c-0.1,1-0.8,1.9-1.7,1.9h0v0.9h1.7h5.7h0.8c1.9,0.1,9,0.2,11.4-1c4.4-2.1,5.6-6.3,5.6-6.3
					L225.7,303.3z"/>
			</g>
			<g>
				<linearGradient id="SVGID_7_" gradientUnits="userSpaceOnUse" x1="191.1594" y1="308.6142" x2="191.1594" y2="278.8549">
					<stop  offset="0" style="stop-color:#4E8F23"/>
					<stop  offset="1" style="stop-color:#216329"/>
				</linearGradient>
				
					<path fill-rule="evenodd" clip-rule="evenodd" fill="url(#SVGID_7_)" stroke="#001539" stroke-width="0.5473" stroke-miterlimit="10" d="
					M188.3,279.8h-1.7v0.9h0c0.9,0,1.7,0.9,1.7,1.9v24.3c-0.1,1-0.8,1.9-1.7,1.9h0v0.9h1.7h5.7h1.7v-0.9h0c-0.9,0-1.7-0.9-1.7-1.9
					v-24.3c0.1-1,0.8-1.9,1.7-1.9h0v-0.9H194H188.3z"/>
				<linearGradient id="SVGID_8_" gradientUnits="userSpaceOnUse" x1="172.3049" y1="308.6108" x2="172.3049" y2="278.8595">
					<stop  offset="0" style="stop-color:#4E8F23"/>
					<stop  offset="1" style="stop-color:#216329"/>
				</linearGradient>
				
					<path fill-rule="evenodd" clip-rule="evenodd" fill="url(#SVGID_8_)" stroke="#001539" stroke-width="0.5473" stroke-miterlimit="10" d="
					M173.8,292.2c-4.6-1.3-5.7-1.7-6.2-3.8c-0.6-2.5,1.5-4.4,4-4.6c2.5-0.2,5,0,6.7,0.7c1.1,0.5,1.8,1.5,2.1,2.2h0.8l0.1-6.9
					c0,0-3.5-0.7-8.4-0.7c-4.4,0-11,1.6-11.2,8.5c-0.2,6.6,5,8,6.4,8.4c1.4,0.4,7.4,1.4,8.6,3.7c1,2,0.5,5.4-3.4,5.9
					c-3.9,0.5-5.7,0.2-7.6-0.4c-1.8-0.5-2.7-1.7-3.1-2.8h-0.8v7.2c0,0,4.9,0.7,8.1,0.8c3.3,0.1,9-0.3,11.6-4.1
					c2.7-3.9,1-8.8-0.5-10.4C179.4,294.4,178.4,293.6,173.8,292.2z"/>
				<linearGradient id="SVGID_10_" gradientUnits="userSpaceOnUse" x1="145.5048" y1="308.6102" x2="145.5048" y2="278.8593">
					<stop  offset="0" style="stop-color:#4E8F23"/>
					<stop  offset="1" style="stop-color:#216329"/>
				</linearGradient>
				
					<path fill-rule="evenodd" clip-rule="evenodd" fill="url(#SVGID_10_)" stroke="#001539" stroke-width="0.5473" stroke-miterlimit="10" d="
					M158.5,308c-0.9-1.2-2.2-6.2-2.2-6.2l-4.6-17c0,0-1.4-5.5-8.2-5.6c-7.5-0.1-8.9,6.9-8.9,6.9l-4.1,16.4c1.4,1.2,2.6,1.7,3.6,1.9
					c1.4,0.2,1.7-1.1,1.7-1.1s0.5-2,1.2-4.7h12.6c0.5,1.9,0.8,3.4,0.9,3.6c0.2,0.7,0.8,3.6,3.4,6.1c2.6,2.5,6.7,1.9,6.7,1.9v-0.6
					C160.6,309.6,159.4,309.2,158.5,308z M138.1,294c0.9-3.7,1.8-7.1,1.9-7.5c0.2-0.8,0.8-2.8,3.5-2.8c2.6,0.1,3.1,2.5,3.1,2.5
					s0.9,3.8,1.9,7.7H138.1z"/>
				<linearGradient id="SVGID_12_" gradientUnits="userSpaceOnUse" x1="124.0849" y1="308.6137" x2="124.0849" y2="278.8592">
					<stop  offset="0" style="stop-color:#4E8F23"/>
					<stop  offset="1" style="stop-color:#216329"/>
				</linearGradient>
				
					<path fill-rule="evenodd" clip-rule="evenodd" fill="url(#SVGID_12_)" stroke="#001539" stroke-width="0.5473" stroke-miterlimit="10" d="
					M140.6,309.9c-3,0.2-8.8-2.2-13.1-6.9c-4.3-4.6-7.3-6.4-9.4-7c6-2.3,5.5-7.7,5.5-7.7c0-8.6-10.3-8.6-10.3-8.6h-3.4l0,0h-1.7
					h-5.7h-1.7v0.9h0c0.9,0,1.7,0.9,1.7,1.9l0,27.1h0h5.7l0-11.5c1.4-0.1,3.6-0.2,6.7,1.3c3.2,1.5,9.6,8,11,9.2
					c1.4,1.2,5,4.1,11.8,4.1c6.7-0.1,9.9-4.1,9.9-4.1l-0.4-0.6C147.1,308.1,143.6,309.7,140.6,309.9z M114.5,293.3
					c-2,0.6-5.9,0.3-6.3,0.3v-9.3c0.9,0,2.7,0,4.5,0c2.5,0,5,1.4,5.2,4C118,291,116.6,292.7,114.5,293.3z"/>
				<linearGradient id="SVGID_14_" gradientUnits="userSpaceOnUse" x1="86.2148" y1="308.6145" x2="86.2148" y2="278.8618">
					<stop  offset="0" style="stop-color:#4E8F23"/>
					<stop  offset="1" style="stop-color:#216329"/>
				</linearGradient>
				
					<path fill-rule="evenodd" clip-rule="evenodd" fill="url(#SVGID_14_)" stroke="#001539" stroke-width="0.5473" stroke-miterlimit="10" d="
					M92.9,292.1c0,0,4.8-1.9,4.7-6.7c-0.1-9.3-12.9-8.3-12.9-8.3h-4.5v0h-7.5v0.9h0c0.9,0,1.6,0.9,1.7,1.9v26.9
					c-0.1,1.1-0.8,1.9-1.7,1.9h0v0.9h1.7h0v0h5.9l0,0c0,0,2.7,0,7.2,0c4.5,0,12-1.6,12-9C99.7,293.4,92.9,292.1,92.9,292.1z
					 M80.7,282.1c1.2,0,2.7,0,3.5,0c1.4,0,7.1-0.3,7.1,3.9c0,5.2-6.8,4.6-6.8,4.6h-3.8V282.1z M86,304.9c-0.8,0-4.6-0.1-5.3-0.1
					v-9.1c0.9,0,2.8,0,4.2,0c1.9,0,8.5-0.3,8.5,4.7C93.4,305.2,86.9,304.9,86,304.9z"/>
				<linearGradient id="SVGID_15_" gradientUnits="userSpaceOnUse" x1="212.4838" y1="308.6103" x2="212.4838" y2="278.855">
					<stop  offset="0" style="stop-color:#4E8F23"/>
					<stop  offset="1" style="stop-color:#216329"/>
				</linearGradient>
				
					<path fill-rule="evenodd" clip-rule="evenodd" fill="url(#SVGID_15_)" stroke="#001539" stroke-width="0.5473" stroke-miterlimit="10" d="
					M224.5,302.1c0,0-0.2,0.5-0.7,0.9c-0.5,0.5-1.6,1.2-4.2,1.7c-2.5,0.5-6.2,0.5-6.2,0.5l-6-0.1v-22.5c0.1-1,0.8-1.9,1.7-1.9h0
					v-0.9h-1.7h-5.7h-1.7v0.9h0c0.9,0,1.7,0.9,1.7,1.9v24.3c-0.1,1-0.8,1.9-1.7,1.9h0v0.9h1.7h5.7h0.8c1.9,0.1,9,0.2,11.4-1
					c4.4-2.1,5.6-6.3,5.6-6.3L224.5,302.1z"/>
			</g>
		</g>
	</g>
</g>
</svg>
