<?xml version="1.0" encoding="utf-8"?>
<!-- Generator: Adobe Illustrator 19.1.1, SVG Export Plug-In . SVG Version: 6.00 Build 0)  -->
<svg version="1.1" xmlns="http://www.w3.org/2000/svg" xmlns:xlink="http://www.w3.org/1999/xlink" x="0px" y="0px"
	 viewBox="0 0 283 396" enable-background="new 0 0 283 396" xml:space="preserve">
<g id="bombki">
	<g id="wyborowa01">
	</g>
	<g id="jacobs_x5F_creek">
	</g>
	<path opacity="0.1" fill="#E6E9EB" d="M141,352.6c-48.4,0-92.4-15.5-125.4-40.9c21.7,47.8,69.9,81,125.9,81
		c56.3,0,104.7-33.7,126.2-82C234.6,336.7,190,352.6,141,352.6z"/>
	<ellipse opacity="0.1" fill="#E6E9EB" cx="141" cy="166.2" rx="70" ry="33.8"/>
	<ellipse opacity="0.3" fill="#E6E9EB" cx="141" cy="151.4" rx="39.5" ry="4.3"/>
	<path opacity="0.2" fill="#D0E8FF" d="M141.4,274.8c-72.9,0-132.7-6-138.6-13.6c3.3,73.6,63.7,132,138.1,132
		c73.9,0,134.1-58,137.9-130.9C268.4,269.4,210.8,274.8,141.4,274.8z"/>
	<ellipse opacity="0.4" fill="#D0E8FF" cx="142.4" cy="260" rx="139.1" ry="14.9"/>
	<linearGradient id="SVGID_1_" gradientUnits="userSpaceOnUse" x1="142.2384" y1="142.6672" x2="142.2384" y2="393.4027">
		<stop  offset="0" style="stop-color:#FFFFFF;stop-opacity:0"/>
		<stop  offset="0.563" style="stop-color:#FFFFFF;stop-opacity:0.8"/>
	</linearGradient>
	<path fill="url(#SVGID_1_)" d="M172.5,118.7l-63.8,1.9l-49.8,23.3L26.1,184L7.5,220.4C47.1,317.6,137.1,350.3,142.1,352v0.1
		c0,0,0,0,0.1,0c0.1,0,0.1,0,0.1,0V352c5-1.7,95-34.4,134.6-131.7l-17.8-35.1l-32-39.7L172.5,118.7z"/>
	<path opacity="0.6" fill="#FFFFFF" d="M171.5,94.9c7.4-0.7-1.7-10.3-1.7-18.5c0-8.2-9.5-23.9-9.5-25.7c0-1.8,0.3-2.6,0.8-3.4
		c-0.9-1.2-3.8-2-19-2v0c0,0,0,0,0,0c0,0,0,0,0,0v0c-15.2,0-18.1,0.8-19,2c0.5,0.8,0.8,1.6,0.8,3.4c0,1.8-9.2,16.8-9.2,25
		c0,8.2-2.3,15-2.3,16l-1.4,4.4c0,0,1.8,3.1,0.1,3.1l1.3,2.1c-1,0-1.3,1-1.3,2l3.5,4.8c0,6.1-4.3,11.4-10.1,13.1
		C45.9,137.6,3.3,191.1,3.4,254.6C3.5,331,65.1,392.7,141.6,392.7c76.4,0,138.2-62,138.2-138.4c0-63.2-41.9-116.5-100.2-133
		c-5.8-1.7-9.6-7-9.6-13.1v-5.1c0-0.9,2.5-2.4,1.5-2.4l0,0c-1.8,0,1.2-2.3,1.2-2.3L171.5,94.9z"/>
	<path fill="#FF901F" d="M157.6,29.1h-32.1l-0.7-1.2c-1.5-2.4-2.3-5.7-2.3-9c0-10.5,8.6-19,19.1-19s19.1,8.5,19.1,19
		c0,3.3-0.9,6.6-2.3,8.9L157.6,29.1z M128.5,24.1h26.3c0.6-1.5,1-3.3,1-5.1c0-7.7-6.3-14-14.1-14s-14.1,6.3-14.1,14
		C127.5,20.8,127.8,22.7,128.5,24.1z"/>
	<path fill="#D97907" d="M141.6,5.5c7.5,0,13.6,6.1,13.6,13.6c0,1.7-0.3,3.3-0.9,4.8h-16.2h-9.2c-0.6-1.5-0.9-3.1-0.9-4.8
		C128,11.6,134.1,5.5,141.6,5.5 M141.6,2.5c-9.2,0-16.6,7.4-16.6,16.6c0,2.8,0.7,5.5,2,7.8h11.2h18.2c1.2-2.3,2-5,2-7.8
		C158.2,9.9,150.8,2.5,141.6,2.5L141.6,2.5z"/>
	<path opacity="0.2" d="M179.4,121.3c-2.3-0.7-4.3-1.9-5.9-3.5c1.3,1.8,3.1,3.3,5.2,4.3c55.7,26.6,88.7,87.3,77.9,150.7
		C244.6,342.9,183,392,114,390c8.9,1.8,18.1,2.7,27.5,2.7c76.4,0,138.2-62,138.2-138.4C279.7,191.2,237.7,137.9,179.4,121.3z"/>
	<g opacity="0.1">
		<path d="M37.8,295.6c-23.9-58.8-4.5-124.4,43.5-161.5c2.2-1.7,3.7-3.9,4.5-6.4C37,149.2,3.2,197.9,3.2,254.6
			C3.3,331,65.1,392.7,141.5,392.7c24.7,0,48-6.5,68-17.9C140.8,397.8,65.5,363.7,37.8,295.6z"/>
	</g>
	<path opacity="0.1" fill="#494949" d="M111.9,108.4c0,0,0.8-0.6,2.1-1.6c0.7-0.5,1.6-1,2.7-1.6c1.1-0.7,2.3-1.1,3.7-1.8
		c1.4-0.6,2.9-1.1,4.5-1.6c1.6-0.4,3.4-1,5.2-1.3c0.9-0.2,1.8-0.4,2.8-0.5c0.9-0.1,1.9-0.2,2.9-0.4c1-0.1,1.9-0.2,2.9-0.2
		c1,0,2-0.2,3-0.1c1,0,2,0,3,0c1,0,2,0.1,2.9,0.1c1.9,0.1,3.9,0.4,5.7,0.6c0.9,0.1,1.8,0.3,2.7,0.5c0.9,0.2,1.7,0.3,2.6,0.6
		c1.6,0.4,3.2,0.9,4.6,1.4c0.7,0.3,1.4,0.5,2,0.7c0.6,0.3,1.2,0.6,1.8,0.8c1.1,0.5,2,1,2.8,1.5c1.5,0.9,2.3,1.5,2.3,1.5l-0.6,1.1
		c0,0-0.9-0.3-2.5-0.9c-0.8-0.3-1.7-0.6-2.8-0.9c-0.6-0.2-1.1-0.4-1.8-0.5c-0.6-0.1-1.3-0.3-2-0.5c-1.4-0.4-2.9-0.6-4.5-0.9
		c-1.6-0.3-3.3-0.4-5-0.7c-1.8-0.1-3.6-0.4-5.4-0.4c-0.9,0-1.9-0.1-2.8-0.1c-0.9,0-1.9,0-2.8,0c-0.9,0-1.9,0-2.8,0.1
		c-0.9,0-1.9,0-2.8,0.1c-0.9,0.1-1.8,0.2-2.8,0.2c-0.9,0.1-1.8,0.2-2.7,0.3c-1.8,0.2-3.4,0.5-5,0.8c-0.8,0.1-1.6,0.4-2.3,0.5
		c-0.7,0.2-1.5,0.3-2.2,0.5c-0.7,0.2-1.3,0.4-2,0.6c-0.3,0.1-0.6,0.2-0.9,0.2c-0.3,0.1-0.6,0.2-0.8,0.3c-0.5,0.2-1,0.4-1.5,0.5
		c-0.5,0.2-0.9,0.3-1.3,0.5c-1.6,0.7-2.5,1.1-2.5,1.1L111.9,108.4z"/>
	<path opacity="0.1" d="M141.7,127.2c42.2,0,80.2,16.3,106.8,42.4c-24.1-32.9-62.9-54.3-106.8-54.3c-43.9,0-82.8,21.4-106.8,54.3
		C61.5,143.6,99.5,127.2,141.7,127.2z"/>
	<path opacity="0.2" fill="#323232" d="M124.9,51c1.3,10.5-2.7,28.6-1.9,38.2s4.2,26.7,4.2,26.7l-14.6,2.9l-2.6-22l5.5-27.8
		l0.6-16.1L124.9,51z"/>
	<path opacity="0.2" fill="#323232" d="M159.1,51.1c-1.1,10.6,3.2,28.6,2.5,38.1c-0.7,9.6-3.8,26.7-3.8,26.7l14.6,2.7l2.2-22
		L168.8,69l-0.8-16.1L159.1,51.1z"/>
	<path fill="#494949" d="M141.6,396c-0.1,0-0.3,0-0.4,0c-37.8-0.1-73.2-14.9-99.8-41.5c-26.6-26.6-41.2-62.1-41.3-99.9
		c-0.1-61.6,39.8-116,99.2-135.3c2.6-0.8,5.1-2,7.4-3.4l2.7-1.6c0,0,0,0,0,0c-0.5-3.2-1.7-9.9-1.7-18.2c0-7.8,3.2-20.9,5.3-29.5
		c0.7-2.8,1.5-6,1.6-6.7c0-1.8-0.2-2.2-0.5-2.5l-1.3-1.9l1.3-1.8c2-2.7,5.2-4,27.7-4h0.1c22.5,0,25.7,1.2,27.6,4l1.3,1.8l-1.3,1.9
		c-0.2,0.4-0.5,0.7-0.5,2.5c0.1,0.8,0.9,3.9,1.6,6.7c2.1,8.7,5.3,21.7,5.3,29.5c0,8.1-1.1,14.6-1.8,18.2l0.6,0.3
		c3.5,2.1,7.4,4,11.7,5.5c28.1,10.1,52.1,27.8,69.4,51.3c17.8,24.2,27.2,52.9,27.2,83c0,37.9-14.8,73.6-41.6,100.4
		C214.8,381.4,179.3,396,141.6,396z M120.9,57.1c0.1,0.8,0.2,1.7,0.2,2.8c0,1.1-0.4,3-1.7,8.2c-1.9,7.8-5.2,21-5.2,28
		c0,7.7,1,13.8,1.6,17.1c0.2,1.4,0.4,2.2,0.4,2.8v1.8l-6.1,3.7c-2.7,1.7-5.7,3-8.7,4c-56.7,18.4-94.8,70.2-94.7,129
		c0.1,74.2,60.5,134.7,134.5,134.9c0.1,0,0.3,0,0.4,0c36,0,69.8-14,95.3-39.4c25.6-25.5,39.7-59.5,39.7-95.7
		c0-57.8-36.2-108.1-92.3-128.1c-4.7-1.7-9.1-3.7-12.9-6.1l-4.8-3l0.8-2.5c0.4-1.1,2.1-8.6,2.1-18.7c0-7-3.2-20.1-5.2-28
		c-1.3-5.3-1.7-7.1-1.7-8.2c0-1.1,0.1-2,0.2-2.8c-2.6-0.5-8.4-0.9-20.9-0.9l-0.1-3.3l0,3.3C129.3,56.2,123.4,56.6,120.9,57.1z"/>
	<g>
		<path fill="#E3E3E3" d="M175.1,31.3c0-1.6-2.8-8.5-33.3-8.5v0c0,0,0,0-0.1,0s0,0-0.1,0v0c-30.5,0-33.3,6.9-33.3,8.5
			c0,1.6,0,9.4,0,13.5c0,4.1-0.1,6.9,1.2,7.8c0-0.9,0-1.5,0-1.5s7-3.4,32.2-3.4c25.2,0,32.2,3.4,32.2,3.4s0,0.6,0,1.5
			c1.3-0.9,1.2-3.7,1.2-7.8C175.1,40.8,175.1,33,175.1,31.3z"/>
		<path fill="#323232" d="M169.1,59.8c0,0,2.2-1,3.5-1.6c0.8-0.4,1.3-1.2,1.3-2.1v-4.9c0,0-7-3.4-32.2-3.4v9
			c20.2,0,25.7,0.9,27.5,2.3c0,0.2,0,0.4,0,0.4S169.1,59.7,169.1,59.8z"/>
		<path fill="#323232" d="M113.8,59.6c0,0-1.7-0.7-3-1.4c-0.8-0.4-1.3-1.2-1.3-2.1v-4.9c0,0,7-3.4,32.2-3.4v9
			c-19.5,0-25.2,0.8-27.2,2.1c0,0.2,0,0.7,0,0.9C114.3,59.8,114,59.7,113.8,59.6z"/>
		<g opacity="0.1">
			<path d="M141.7,25.5L141.7,25.5C141.7,25.5,141.7,25.5,141.7,25.5c0.1,0,0.1,0,0.1,0v0c30.5,0,33.3,6.9,33.3,8.5
				c0-1.2,0-2.2,0-2.6c0-1.6-2.8-8.5-33.3-8.5v0c0,0,0,0-0.1,0s0,0-0.1,0v0c-30.5,0-33.3,6.9-33.3,8.5c0,0.5,0,1.4,0,2.6
				C108.3,32.3,111.2,25.5,141.7,25.5z"/>
			<path d="M175.1,46.5c0-0.5,0-1,0-1.5C175.1,45.5,175.1,46.1,175.1,46.5z"/>
			<path d="M108.3,45c0,0.5,0,1,0,1.5C108.3,46.1,108.3,45.5,108.3,45z"/>
		</g>
		<path opacity="0.1" d="M165,24.9v24.2c6.6,1,8.9,2.1,8.9,2.1s0,0.6,0,1.5c1.3-0.9,1.2-3.7,1.2-7.8c0-4.1,0-11.9,0-13.5
			C175.1,30.3,173.9,27.1,165,24.9z"/>
		<path opacity="0.1" d="M118.4,24.9v24.2c-6.6,1-8.9,2.1-8.9,2.1s0,0.6,0,1.5c-1.3-0.9-1.2-3.7-1.2-7.8c0-4.1,0-11.9,0-13.5
			C108.3,30.3,109.5,27.1,118.4,24.9z"/>
		<path opacity="0.2" fill="#E3E3E3" d="M118.4,57.7c2.5-0.4,6.2-0.7,11.9-0.8V48c-5,0.3-8.9,0.7-11.9,1.1V57.7z"/>
		<path opacity="0.2" fill="#E3E3E3" d="M165,57.7c-2.5-0.4-6.2-0.7-11.9-0.8V48c5,0.3,8.9,0.7,11.9,1.1V57.7z"/>
	</g>
</g>
<g id="BRAND">
	<g id="New_Symbol_13">
	</g>
	<g>
		<g>
			<path fill="none" d="M134.4,335.6c-1,0.5-2,0.9-2.9,1.4c-0.3,0.2-0.5,0.7-0.8,1.1c0.4,0.1,0.8,0.4,1.2,0.3
				c1.3-0.2,2.5-0.5,3.8-0.8c0.9-0.2,1.8-0.3,2.7-0.4c0.9-0.1,1.6-0.3,1.7-1.3c0-1-0.1-2-0.2-3c-0.1-1.3-0.4-2.5-0.5-3.8
				c-0.1-1.3,0-2.6,0-3.9c-0.5,0-1.1,0.1-1.5,0c-1.4-0.5-2.7-1-4.2-1.6c0,0.8-0.1,1.3,0,1.7c0.4,2,0.8,4,1.4,5.9
				C135.6,333,135.8,334.4,134.4,335.6L134.4,335.6z M124.3,312.1c0.1,0.1,0.1,0.2,0.2,0.3c0.5,0.5,1,1,1.6,1.4c0.6,0.5,1.3,1,2,1.4
				c0.6,0.3,1.3,0.8,1.9,0.7c0.8-0.1,1.6-0.6,2.5-1c0.3-0.1,0.6-0.1,0.8-0.1c0.4-1.9,0.9-3.9,1.4-5.9c-0.7-0.3-1.4-0.7-2.2-1
				c0-0.1,0.1-0.2,0.1-0.3c0.7,0.3,1.5,0.6,2.2,0.8c-0.2-0.3-0.5-0.6-0.7-0.8c0.4-0.3,0.7-0.5,1.1-0.8c-0.3-0.4-1-0.2-1.4,0.7
				c-0.4-0.5-0.9-1.1-1.3-1.6c-0.2-0.2-0.4-0.5-0.6-0.7c0.3-0.2,0.6-0.6,1-0.7c0.3-0.1,0.8,0.1,1,0.1c0-0.4,0-0.8,0.1-1.1
				c0.3-1.1,0.8-2.1,1.1-3.1c0.4-1,0.7-2.1,1.2-3.4c-0.4,2.7-0.7,5-1,7.4c0.1,0,0.3,0.1,0.4,0.1c0.2-0.6,0.5-1.2,0.6-1.8
				c0.4-1.6,0.6-3.2,1-4.7c0.2-0.9,0.7-1.6,1.8-1.6c1.5,0,2.9-0.2,4.4-0.2c0.8,0,1.9-0.1,2.4,0.4c1.4,1.5,2.7,3.2,3.8,5
				c0.8,1.3,2,2.6,1.4,4.6c-0.6,2.2-0.7,4.6-1,6.9c-0.2,1.4-0.3,2.9-0.5,4.3c0.9,0,1.5,0,1.7,0c0.7,0.4,1.1,1,1.5,1
				c0.8-0.1,1.5-0.5,1.5-1.5c0-0.6,0.1-1.2-0.1-1.7c-0.3-0.9,0-1.6,0-2.5c-0.1-2.9,0-5.8-1.2-8.5c-1.5-3.1-1.8-6.6-3.2-9.7
				c0-0.1,0.1-0.2,0-0.1c1.7,0,3.3,0,4.9,0c2.3-0.1,3.7-2.7,2.6-4.8c-0.9-1.7-1.6-3.4-2.5-5.1c-0.7-1.4-1.4-2.8-2.3-4
				c-0.5-0.6-1.4-0.9-2.2-1.3c-0.7-0.3-1.5-0.5-2.2-1c-0.6-0.4-1.1-1.2-1.6-1.7c0.1,0,0.3,0,0.4,0c-0.4,1-0.5,2.2-1.1,3.1
				c-0.7,1-1.1,2-0.7,3c-1,0.4-1.9,0.8-2.8,1.1c0,0.1,0-0.1-0.1-0.3c-0.1-0.1-0.2-0.3-0.4-0.5c0.1,0.7,0.2,1.1,0.2,1.5
				c-1.3-0.5-2.5-0.9-3.8-1.4c0.3-0.5,0.7-1,1-1.5c-0.1-0.1-0.3-0.2-0.4-0.4c-0.1,0.4-0.3,0.7-0.4,1.1c0-0.1-0.1-0.1-0.1-0.2
				c0.1-1,0.2-1.9,0.3-2.8c-0.8,0.7-1.5,1.6-2.4,1.9c-1.2,0.4-1.8,1.2-2.1,2.4c-0.3,1.3-0.6,2.6-0.8,3.9c-0.4,2.7-0.8,5.4-1.2,8.1
				c-0.3,1.6-0.7,3.2-1.1,4.8c-0.3,1.2-0.8,2.3-1.2,3.5c2,0.4,2.4,1.1,1.7,2.6c-0.1,0.2-0.4,0.4-0.6,0.6c-0.2-0.2-0.4-0.5-0.4-0.7
				c-0.1-0.5,0-1,0-1.4c-0.4,0.1-0.7,0.2-1,0.3c-0.5,0.2-1.1,0.4-1.5,0.8c-0.9,0.8-1.6,2-2.6,2.5c-1.2,0.6-0.5,1.6-0.8,2.3
				c0,0.1,0.4,0.4,0.5,0.4C124.6,311.6,124.4,311.8,124.3,312.1z M149.6,320.1c0.5,2.1,0.2,3.8-2.1,4.6c-0.3-0.2-0.6-0.5-1-0.6
				c-1.3-0.5-1.7-1.1-1.1-2.5c0.3-0.7,0.9-1.9-0.2-2.8c-0.1,0.8-0.1,1.6-0.2,2.4c-0.2,3.2-0.7,6.4-0.7,9.7c0,2.2-0.5,4.8,1.9,6.4
				c0.1,0.1,0.1,0.2,0.1,0.4c0.5,1,1.9,1.8,2.5,1.5c0.6-0.3,0.9-2,0.5-3c-0.1-0.1-0.1-0.3-0.2-0.3c-1.2-1-1.3-2.3-0.8-3.7
				c0,0-0.1-0.1-0.1-0.2c-0.2,0.1-0.4,0.2-0.4,0.2c0.5-1.2,1.3-2.5,1.5-3.9C149.9,325.5,150.3,322.8,149.6,320.1z M143.8,307.2
				c-0.2,0-0.3-0.1-0.5-0.1c-1.8,3.5-3.6,7.1-5.6,10.9c2.9,0,5.2,0,7.3,0C144.7,314.4,144.2,310.8,143.8,307.2z"/>
			<path fill-rule="evenodd" clip-rule="evenodd" d="M124.3,312.1c0.2-0.2,0.4-0.5,0.6-0.8c-0.1-0.1-0.5-0.3-0.5-0.4
				c0.3-0.7-0.4-1.7,0.8-2.3c1-0.5,1.7-1.7,2.6-2.5c0.4-0.4,1-0.6,1.5-0.8c0.3-0.1,0.6-0.2,1-0.3c0,0.4,0,0.9,0,1.4
				c0,0.3,0.3,0.5,0.4,0.7c0.2-0.2,0.5-0.3,0.6-0.6c0.7-1.6,0.3-2.2-1.7-2.6c0.4-1.2,0.9-2.3,1.2-3.5c0.4-1.6,0.9-3.2,1.1-4.8
				c0.5-2.7,0.8-5.4,1.2-8.1c0.2-1.3,0.5-2.6,0.8-3.9c0.3-1.1,0.8-1.9,2.1-2.4c0.9-0.3,1.6-1.2,2.4-1.9c-0.1,0.9-0.2,1.9-0.3,2.8
				c0,0.1,0.1,0.1,0.1,0.2c0.1-0.4,0.3-0.7,0.4-1.1c0.1,0.1,0.3,0.2,0.4,0.4c-0.4,0.5-0.7,1-1,1.5c1.2,0.4,2.5,0.9,3.8,1.4
				c-0.1-0.3-0.1-0.8-0.2-1.5c0.2,0.3,0.3,0.4,0.4,0.5c0.1,0.2,0.1,0.4,0.1,0.3c0.9-0.4,1.8-0.7,2.8-1.1c-0.4-1,0-1.9,0.7-3
				c0.6-0.9,0.8-2,1.1-3.1c-0.1,0-0.3,0-0.4,0c0.5,0.6,0.9,1.3,1.6,1.7c0.6,0.5,1.5,0.6,2.2,1c0.8,0.4,1.7,0.6,2.2,1.3
				c0.9,1.2,1.6,2.6,2.3,4c0.9,1.7,1.6,3.5,2.5,5.1c1.1,2.1-0.3,4.7-2.6,4.8c-1.6,0.1-3.2,0-4.9,0c0.1-0.1-0.1,0,0,0.1
				c1.4,3.1,1.8,6.6,3.2,9.7c1.2,2.6,1.2,5.6,1.2,8.5c0,0.8-0.3,1.6,0,2.5c0.2,0.5,0,1.1,0.1,1.7c0.1,1-0.7,1.4-1.5,1.5
				c-0.4,0-0.8-0.5-1.5-1c-0.3,0-0.9,0-1.7,0c0.2-1.4,0.3-2.9,0.5-4.3c0.3-2.3,0.4-4.7,1-6.9c0.6-2-0.6-3.3-1.4-4.6
				c-1.1-1.8-2.4-3.4-3.8-5c-0.4-0.5-1.6-0.4-2.4-0.4c-1.5,0-2.9,0.1-4.4,0.2c-1.1,0-1.6,0.7-1.8,1.6c-0.4,1.6-0.6,3.2-1,4.7
				c-0.1,0.6-0.4,1.2-0.6,1.8c-0.1,0-0.3-0.1-0.4-0.1c0.3-2.3,0.6-4.7,1-7.4c-0.5,1.4-0.8,2.4-1.2,3.4c-0.4,1-0.8,2.1-1.1,3.1
				c-0.1,0.3,0,0.7-0.1,1.1c-0.2,0-0.6-0.2-1-0.1c-0.4,0.1-0.6,0.4-1,0.7c0.2,0.2,0.4,0.5,0.6,0.7c0.4,0.5,0.9,1.1,1.3,1.6
				c0.4-0.9,1.1-1.1,1.4-0.7c-0.4,0.3-0.7,0.5-1.1,0.8c0.2,0.3,0.5,0.6,0.7,0.8c-0.7-0.3-1.5-0.6-2.2-0.8c0,0.1-0.1,0.2-0.1,0.3
				c0.7,0.3,1.4,0.7,2.2,1c-0.5,2-0.9,4.1-1.4,5.9c-0.2,0-0.5,0-0.8,0.1c-0.8,0.3-1.6,0.9-2.5,1c-0.6,0.1-1.3-0.4-1.9-0.7
				c-0.7-0.4-1.4-0.9-2-1.4c-0.6-0.4-1.1-0.9-1.6-1.4C124.4,312.3,124.3,312.2,124.3,312.1z M130.8,311.6c-0.2-0.2-0.5-0.7-0.6-0.7
				c-0.6,0.3-1.2,0.8-1.7,1.2c0.1,0.1,0.1,0.2,0.2,0.3c0.5-0.1,1.1-0.2,1.6-0.3c0.2,0.3,0.5,0.5,0.8,0.9c-0.3,0-0.5,0-0.8,0
				c0,0.1,0.1,0.2,0.1,0.4c0.9,0.2,1.4-0.3,2.1-1.1C131.8,311.9,131.3,311.7,130.8,311.6z M129,310.6c0.9-0.1,1.8-0.3,2.9-0.4
				c-1.5-1.1-2.7-1.1-3.5-0.2c-0.9,0.7-0.9,0.8-0.5,2.2C128.3,311.6,128.6,311.1,129,310.6z M144.6,288.9c-0.7-0.3-1.3-0.7-2-0.9
				c-0.3-0.1-1,0.3-1,0.6c-0.1,0.9,0.1,1.7,0.2,2.6c-0.5-0.2-0.9-0.3-1.3-0.5c0.5,1.4,1.7,1.2,2.8,1.3c1.1,0.1,0.6-0.9,0.8-1.3
				C144.3,290.1,144.4,289.6,144.6,288.9z M150.1,286.8c-0.2,1.1-0.4,2-0.5,2.8c0.8,0.1,1.5,0.2,2.3,0.3c0-0.1,0.1-0.2,0.1-0.4
				C151.5,288.7,150.9,287.9,150.1,286.8z M147.7,291c-0.1-0.5,0-1.3-0.2-1.4c-0.7-0.3-1.7-0.7-2.3-0.4c-0.5,0.2-0.7,1.2-1.1,2
				c0.8-0.5,1.4-0.8,1.9-1.2C147.5,289,146.7,290.9,147.7,291z"/>
			<path fill-rule="evenodd" clip-rule="evenodd" d="M134.4,335.7c1.4-1.3,1.3-2.7,0.7-4.3c-0.6-1.9-1-4-1.4-5.9
				c-0.1-0.4,0-0.9,0-1.7c1.6,0.6,2.9,1.2,4.2,1.6c0.4,0.1,1,0,1.5,0c0,1.2-0.1,2.6,0,3.9c0.1,1.3,0.3,2.5,0.5,3.8
				c0.1,1,0.3,2,0.2,3c0,1-0.8,1.2-1.7,1.3c-0.9,0.1-1.8,0.2-2.7,0.4c-1.3,0.2-2.5,0.6-3.8,0.8c-0.4,0.1-0.8-0.2-1.2-0.3
				c0.3-0.4,0.4-0.9,0.8-1.1C132.5,336.5,133.5,336.1,134.4,335.7c-0.9,0.7-1.8,1.5-2.6,2.2c1.2,0.3,3.4-1,3.9-2.7
				C135.2,335.4,134.8,335.5,134.4,335.7z"/>
			<path fill-rule="evenodd" clip-rule="evenodd" d="M149.6,320.1c0.7,2.7,0.3,5.4-0.1,8c-0.2,1.4-1,2.7-1.5,3.9
				c0,0,0.2-0.1,0.4-0.2c0,0.1,0.1,0.1,0.1,0.2c-0.5,1.4-0.4,2.7,0.8,3.7c0.1,0.1,0.1,0.2,0.2,0.3c0.4,1,0.1,2.7-0.5,3
				c-0.6,0.3-2-0.6-2.5-1.5c-0.1-0.1-0.1-0.3-0.1-0.4c-2.4-1.6-1.9-4.1-1.9-6.4c0-3.2,0.4-6.4,0.7-9.7c0.1-0.8,0.1-1.5,0.2-2.4
				c1.1,0.9,0.5,2.1,0.2,2.8c-0.6,1.4-0.3,2,1.1,2.5c0.4,0.1,0.7,0.5,1,0.6C149.8,323.9,150.1,322.2,149.6,320.1z"/>
			<path fill-rule="evenodd" clip-rule="evenodd" d="M143.8,307.2c0.4,3.6,0.9,7.2,1.3,10.7c-2.1,0-4.5,0-7.3,0
				c2-3.8,3.8-7.4,5.6-10.9C143.5,307.1,143.6,307.2,143.8,307.2z"/>
			<path fill-rule="evenodd" clip-rule="evenodd" d="M124.3,312.1c0.1,0.1,0.1,0.2,0.2,0.3C124.4,312.3,124.3,312.2,124.3,312.1z"/>
			<path fill-rule="evenodd" clip-rule="evenodd" fill="none" d="M144.6,288.9c-0.2,0.7-0.3,1.3-0.6,1.8c-0.2,0.4,0.3,1.4-0.8,1.3
				c-1.1-0.1-2.2,0.1-2.8-1.3c0.4,0.2,0.9,0.3,1.3,0.5c-0.1-0.9-0.2-1.8-0.2-2.6c0-0.2,0.7-0.6,1-0.6
				C143.3,288.2,143.9,288.5,144.6,288.9z"/>
			<path fill-rule="evenodd" clip-rule="evenodd" fill="none" d="M150.1,286.8c0.8,1.2,1.4,1.9,1.9,2.7c0,0.1-0.1,0.2-0.1,0.4
				c-0.8-0.1-1.5-0.2-2.3-0.3C149.7,288.8,149.9,287.9,150.1,286.8z"/>
			<path fill-rule="evenodd" clip-rule="evenodd" fill="none" d="M147.7,291c-1,0-0.2-2-1.7-1c-0.5,0.4-1.1,0.7-1.9,1.2
				c0.4-0.8,0.6-1.9,1.1-2c0.7-0.2,1.6,0.1,2.3,0.4C147.7,289.7,147.6,290.5,147.7,291z"/>
			<path fill-rule="evenodd" clip-rule="evenodd" fill="none" d="M128.4,309.9c0.8-1,2-1,3.5,0.2c-1.1,0.2-2,0.3-2.9,0.4
				C128.8,310.4,128.6,310.2,128.4,309.9z"/>
			<path fill-rule="evenodd" clip-rule="evenodd" fill="none" d="M130.8,311.6c0.5,0.2,1,0.4,1.7,0.6c-0.7,0.8-1.2,1.3-2.1,1.1
				c0-0.1-0.1-0.2-0.1-0.4c0.2,0,0.5,0,0.8,0c-0.3-0.3-0.5-0.6-0.8-0.9C130.4,311.9,130.6,311.7,130.8,311.6z"/>
			<path fill-rule="evenodd" clip-rule="evenodd" fill="none" d="M130.8,311.6c-0.2,0.2-0.4,0.4-0.5,0.5c-0.5,0.1-1.1,0.2-1.6,0.3
				c-0.1-0.1-0.1-0.2-0.2-0.3c0.6-0.4,1.1-0.8,1.7-1.2C130.2,310.8,130.6,311.3,130.8,311.6z"/>
			<path fill-rule="evenodd" clip-rule="evenodd" fill="none" d="M128.4,309.9c0.2,0.2,0.4,0.4,0.6,0.6c-0.4,0.5-0.7,1-1.1,1.6
				C127.5,310.7,127.5,310.6,128.4,309.9z"/>
			<path fill-rule="evenodd" clip-rule="evenodd" fill="none" d="M134.4,335.7c0.4-0.2,0.9-0.3,1.3-0.5c-0.5,1.6-2.7,3-3.9,2.7
				C132.6,337.2,133.5,336.4,134.4,335.7C134.4,335.6,134.4,335.7,134.4,335.7z"/>
			
				<path fill-rule="evenodd" clip-rule="evenodd" fill="none" stroke="#000000" stroke-width="0.5239" stroke-linecap="round" stroke-linejoin="round" stroke-miterlimit="10" d="
				M137,296.9c-0.5,2.5-1,5-1.6,7.5"/>
			
				<path fill-rule="evenodd" clip-rule="evenodd" fill="none" stroke="#000000" stroke-width="0.5239" stroke-linecap="round" stroke-linejoin="round" stroke-miterlimit="10" d="
				M134.2,335.9c-1,0.6-2.1,1.2-3.2,1.8c1.4,0.8,1.6,0.8,5.1-0.9"/>
			
				<path fill-rule="evenodd" clip-rule="evenodd" fill="none" stroke="#000000" stroke-width="0.5239" stroke-linecap="round" stroke-linejoin="round" stroke-miterlimit="10" d="
				M132.9,312.9c0-0.4,0-0.8-0.1-1.2"/>
			
				<path fill-rule="evenodd" clip-rule="evenodd" fill="none" stroke="#000000" stroke-width="0.5239" stroke-linecap="round" stroke-linejoin="round" stroke-miterlimit="10" d="
				M146.6,276.1c0.2,0.9,0.3,1.8,0.5,2.8"/>
			
				<path fill-rule="evenodd" clip-rule="evenodd" fill="none" stroke="#000000" stroke-width="0.5239" stroke-linecap="round" stroke-linejoin="round" stroke-miterlimit="10" d="
				M131.9,304.1c0,0.6-0.1,1.2-0.1,1.8"/>
			
				<path fill-rule="evenodd" clip-rule="evenodd" fill="none" stroke="#000000" stroke-width="0.5239" stroke-linecap="round" stroke-linejoin="round" stroke-miterlimit="10" d="
				M138.5,278.9c-0.3,0.7-0.6,1.4-0.9,2.1"/>
			
				<path fill-rule="evenodd" clip-rule="evenodd" fill="none" stroke="#000000" stroke-width="0.5239" stroke-linecap="round" stroke-linejoin="round" stroke-miterlimit="10" d="
				M132.6,311c-0.3,0-0.7,0-1-0.1c-2.1-0.6-2.1-0.5-3.4,1.4"/>
			
				<path fill-rule="evenodd" clip-rule="evenodd" fill="none" stroke="#000000" stroke-width="0.5239" stroke-linecap="round" stroke-linejoin="round" stroke-miterlimit="10" d="
				M144.9,288.8c-0.3,1-1.2,1.9-0.5,3.1"/>
			
				<path fill-rule="evenodd" clip-rule="evenodd" fill="none" stroke="#000000" stroke-width="0.5239" stroke-linecap="round" stroke-linejoin="round" stroke-miterlimit="10" d="
				M139.3,281.6c-0.6,0.9-1.4,1.4-2.5,1.2"/>
			
				<path fill-rule="evenodd" clip-rule="evenodd" fill="none" stroke="#000000" stroke-width="0.5239" stroke-linecap="round" stroke-linejoin="round" stroke-miterlimit="10" d="
				M136,334.6c-0.5,0.3-1,0.7-1.6,1"/>
			
				<path fill-rule="evenodd" clip-rule="evenodd" fill="none" stroke="#000000" stroke-width="0.5239" stroke-linecap="round" stroke-linejoin="round" stroke-miterlimit="10" d="
				M129.4,312.9c0.5-0.6,1-0.2,1.4,0.1"/>
			
				<path fill-rule="evenodd" clip-rule="evenodd" fill="none" stroke="#000000" stroke-width="0.5239" stroke-linecap="round" stroke-linejoin="round" stroke-miterlimit="10" d="
				M132.9,307.2c0.3,0.6,0.6,1.1,1.3,0.7"/>
			
				<path fill-rule="evenodd" clip-rule="evenodd" fill="none" stroke="#000000" stroke-width="0.5239" stroke-linecap="round" stroke-linejoin="round" stroke-miterlimit="10" d="
				M141.9,283.1c0.1,0.4,0.3,0.9,0.4,1.3"/>
			
				<path fill-rule="evenodd" clip-rule="evenodd" fill="none" stroke="#000000" stroke-width="0.5239" stroke-linecap="round" stroke-linejoin="round" stroke-miterlimit="10" d="
				M147.7,333c-0.3,0.1-0.7,0.2-1,0.3"/>
			
				<path fill-rule="evenodd" clip-rule="evenodd" fill="none" stroke="#000000" stroke-width="0.5239" stroke-linecap="round" stroke-linejoin="round" stroke-miterlimit="10" d="
				M132.6,313.7c0,0.4,0.1,0.8,0.1,1.2"/>
			
				<path fill-rule="evenodd" clip-rule="evenodd" fill="none" stroke="#000000" stroke-width="0.5239" stroke-linecap="round" stroke-linejoin="round" stroke-miterlimit="10" d="
				M133.1,304.1c0.3,0.3,0.6,0.5,0.9,0.8"/>
		</g>
		<g>
			<path fill="none" d="M141.5,276.5C141.5,276.5,141.5,276.5,141.5,276.5c-0.1,0-0.2-0.1-0.3-0.1c0,0,0,0,0,0
				C141.3,276.5,141.4,276.5,141.5,276.5z"/>
			<path fill-rule="evenodd" clip-rule="evenodd" d="M143.3,278.7c-0.2-0.3-0.4-0.5-0.5-0.8l0,0c1.4-1,2.1-2.3,2.1-4
				c0-0.6-0.2-1.3-0.3-1.7c-0.6-0.3-1-0.6-1.7-0.9c0.8,0,0.9-1.1,1.8-0.5c-0.1,0.2-0.3,0.3-0.4,0.5c0.4,0.3,0.7,0.5,1.2,0.9
				c0-0.3,0-0.5-0.1-0.9c0.2,0,0.4-0.1,1-0.2c-0.8-0.4-1.5-0.7-2.1-1c0.2-0.3,0.4-0.6,0.6-0.8c0.3,0.1,0.6,0.2,0.9,0.2
				c0,0,0.1-0.1,0.1-0.1c0.9,2.7,1,3.6-0.2,5.5c0,0.4,0.1,0.8,0.1,1.4C145.1,276.9,144.2,277.8,143.3,278.7L143.3,278.7z
				 M145.8,273.7c0,0.1,0,0.1,0,0.2C145.7,273.8,145.8,273.7,145.8,273.7z M145,276.1C145,276,145,276,145,276.1
				C145,276,145,275.9,145,276.1z"/>
			<path fill-rule="evenodd" clip-rule="evenodd" d="M139.1,276.8c0-0.6,0-1.2,0-1.8l0,0c0.2,0.2,0.5,0.5,0.6,0.8
				c0.7,1.8,1.2,2.2,3.1,2.1l0,0c-0.7,0.3-1.4,0.6-2.2,0.9c-0.2-0.5-0.4-0.9-0.5-1.3c-0.1,0-0.2,0.1-0.3,0.1
				c0.2,0.7,0.4,1.4,0.7,2.3c0.6-0.5,1.1-0.9,1.5-1.2c0.3,0.3,0.5,0.6,0.8,0.9l0,0c-0.5,0.9-1.1,1.7-1.6,2.6l0,0
				c-0.9-1.6-2.1-3.1-1.9-5.1C139.3,276.9,139.2,276.9,139.1,276.8L139.1,276.8z M142.4,279.7c-0.6,0.1-0.8,0.1-1.1,0.1
				c0,0.4,0,0.7,0,1.3C141.6,280.6,141.9,280.3,142.4,279.7z"/>
			<path fill-rule="evenodd" clip-rule="evenodd" d="M139.3,271.6c0.2-0.2,0.4-0.4,0.5-0.6l0,0c0.7,1-0.7,1-0.7,1.7
				c0.7,0.1,1.5,0.2,2.3,0.3c0,0.5,0.1,0.8,0.1,1.1c-0.8-0.2-1.5-0.5-2.4-0.7c0,0.6,0,1.1,0,1.6l0,0c-0.2-0.6-0.9-1.1-0.8-1.9
				c0,0,0,0,0.1-0.1c0,0,0,0,0,0.1c0,0,0,0-0.1,0c-0.6-0.3-0.6-0.5-0.2-1.3l0,0C138.5,271.8,138.9,271.7,139.3,271.6L139.3,271.6z
				 M140.1,273.3L140.1,273.3L140.1,273.3L140.1,273.3z"/>
			<path fill-rule="evenodd" clip-rule="evenodd" d="M138,271.6c0-2.3,0.8-3.3,2.8-3.6c-0.6,0.4-1.1,0.7-1.6,1
				c-0.2,0.7-0.4,1.4-0.6,2c0.1,0,0.4-0.1,0.7-0.1c0,0.2,0,0.4-0.1,0.6l0,0C138.9,271.6,138.5,271.6,138,271.6L138,271.6z"/>
			<path fill-rule="evenodd" clip-rule="evenodd" d="M143.3,270c-0.3,0.9-0.9-0.1-1.4,0.3c0,0.1,0,0.4,0,0.7c-0.4-0.1-0.7-0.1-1-0.2
				C140.8,270,141.9,269.7,143.3,270L143.3,270z"/>
			<path fill-rule="evenodd" clip-rule="evenodd" d="M143.8,272.8c-0.1,0.1-0.2,0.2-0.2,0.4c0,0.1,0.1,0.3,0.2,0.7
				c-0.6-0.2-1-0.4-1.5-0.5c0-0.1,0-0.2,0-0.3c0.5-0.1,0.9-0.2,1.4-0.4C143.7,272.7,143.8,272.8,143.8,272.8z"/>
			<path fill-rule="evenodd" clip-rule="evenodd" d="M143.6,269.6c-0.1,0.1-0.2,0.3-0.4,0.4l0,0c-0.2-0.4-0.5-0.8-0.7-1.2
				c-0.1,0-0.2,0.1-0.2,0.1C142.8,269.1,143.2,269.4,143.6,269.6L143.6,269.6z"/>
			<path fill-rule="evenodd" clip-rule="evenodd" d="M144.3,267.9c-0.1,0.2-0.3,0.4-0.4,0.5c-0.1-0.2-0.3-0.4-0.7-0.9
				C143.7,267.7,144,267.8,144.3,267.9L144.3,267.9z"/>
			<path fill-rule="evenodd" clip-rule="evenodd" d="M145.3,268.8c-0.3-0.3-0.7-0.6-1-0.9l0,0C144.8,268,145.3,268.1,145.3,268.8
				L145.3,268.8z"/>
			<path fill-rule="evenodd" clip-rule="evenodd" d="M141.5,276.5c-0.1,0-0.2,0-0.3,0c0,0,0,0,0,0
				C141.3,276.4,141.4,276.4,141.5,276.5C141.5,276.5,141.5,276.5,141.5,276.5z"/>
		</g>
	</g>
	<polyline fill-rule="evenodd" clip-rule="evenodd" fill="#231F20" points="86.6,242.2 87.4,242.2 86.6,240.7 86.6,242.2 	"/>
	<path fill-rule="evenodd" clip-rule="evenodd" fill="#231F20" d="M89.4,246.8l0.8,1.3h7.4v-14.2h2.1v-6.4H88.9v1.2l-0.7-1.2h-10
		v6.4h2.1v7.7h-2.1v6.5h11.2V246.8 M88.8,247.4h-10v-5.3h2.1v-8.9h-2.1v-5.2h9.1l1.6,2.6v-2.6h9.6v5.2H97v14.2h-6.6l-1.6-2.8V247.4z
		"/>
	<path fill-rule="evenodd" clip-rule="evenodd" fill="#231F20" d="M96,246.4v-13.5c0-0.7,0.2-0.7,0.7-0.7h1.4v-3h-7.6v3.1h1
		c0.5,0,0.7,0,0.7,0.7v4.3l-4.8-8.1h-7.6v3h1.4c0.5,0,0.7,0,0.7,0.7v9.6c0,0.7-0.2,0.7-0.7,0.7h-1.4v3.1h8v-3.1h-1.4
		c-0.5,0-0.7,0-0.7-0.7v-5.1l5.3,9H96"/>
	<polyline fill-rule="evenodd" clip-rule="evenodd" fill="#231F20" points="66.1,241.9 64.3,241.9 64.2,242.4 66.2,242.4 
		66.1,241.9 	"/>
	<path fill-rule="evenodd" clip-rule="evenodd" fill="#231F20" d="M76.5,241.6h-2.1c-0.9-3.3-3.3-12.9-3.3-12.9l-0.3-1.2h-9.5
		l-0.3,1.2c0,0-2.4,9.5-3.2,12.9h-2v6.5h20.8V241.6 M75.9,247.5H56.3v-5.3h1.9c0.7-2.9,3.3-13.3,3.3-13.3l0.2-0.8h8.7l0.2,0.8
		c0,0,2.7,10.5,3.4,13.3h1.9V247.5z"/>
	<path fill-rule="evenodd" clip-rule="evenodd" fill="#231F20" d="M73,242.6c-0.7-2.7-3.5-13.4-3.5-13.4h-7.1c0,0-2.7,10.7-3.3,13.4
		c-0.1,0.4-0.4,0.7-0.8,0.7h-1v3.1h7.3v-3.1H63c0,0,0.2-0.9,0.5-2.2h3.4c0.3,1.3,0.5,2.2,0.5,2.2h-1.7v3.1h9.2v-3.1h-1.1
		C73.5,243.2,73.1,243,73,242.6 M64.2,237.9l1-4.2l1,4.2H64.2z"/>
	<path fill-rule="evenodd" clip-rule="evenodd" fill="#231F20" d="M49.9,241.9c5.6-0.7,6.4-4.8,6.4-7.3c0-4.4-3.1-7.1-8.1-7.1H37.1
		v6.4h2.1v7.7h-2.1v6.5h12.8V241.9 M49.3,247.5H37.6v-5.3h2.1v-8.9h-2.1v-5.2h10.6c4.6,0,7.5,2.5,7.5,6.5c0,3.1-1.3,6.8-7.6,6.8
		c-0.2,0-0.3,0-0.5,0c-0.2,0-0.3,0-0.5,0v0.8h2.1V247.5z"/>
	<path fill-rule="evenodd" clip-rule="evenodd" fill="#231F20" d="M48.2,234.5c0-0.9-0.2-1.2-0.9-1.3v2.8
		C47.8,236,48.2,235.8,48.2,234.5"/>
	<path fill-rule="evenodd" clip-rule="evenodd" fill="#231F20" d="M46.2,242.5v-2.2c1.1,0,1.4,0,2,0c4.1,0,6.6-1.7,6.6-5.7
		c0-3.5-2.6-5.5-6.5-5.5h-9.6v3.1h1.4c0.5,0,0.7,0,0.7,0.7v9.6c0,0.7-0.2,0.7-0.7,0.7h-1.4v3.2h9.7v-3.2h-1.4
		C46.4,243.2,46.2,243.2,46.2,242.5 M46.2,232.2l0.8,0c1.4,0,2.1,0.7,2.1,2.3c0,1.8-0.7,2.6-2.2,2.6h-0.7V232.2z"/>
	<path fill-rule="evenodd" clip-rule="evenodd" fill="#231F20" d="M189.6,227.4l-18,0v6.4h1.9v7.7h-1.9v6.5h18V227.4 M189.1,237.4
		h-4.3l-0.2-0.2v1.1c0.1-0.1,0.3-0.2,0.6-0.2h3.9v9.2h-16.9V242h1.9v-8.9h-1.9V228l16.9,0V237.4z"/>
	<path fill-rule="evenodd" clip-rule="evenodd" fill="#231F20" d="M181.7,242h1.6c0.2,0,0.4-0.1,0.5-0.3h-2.1V242"/>
	<path fill-rule="evenodd" clip-rule="evenodd" fill="#231F20" d="M181.7,233.2v0.4h2.1c-0.2-0.3-0.3-0.4-0.5-0.4H181.7"/>
	<path fill-rule="evenodd" clip-rule="evenodd" fill="#231F20" d="M175.1,232.8v9.6c0,0.6-0.1,0.7-0.7,0.7h-1.2v3.2h14.8v-7.1h-2.9
		c0,0,0,0,0,0.7c0,2.4-1,3.2-1.9,3.2h-2.6v-3.6h0.5c0.5,0,0.5,0.5,0.5,0.5v0.7h1.8v-6h-1.8v0.7c0,0,0,0.5-0.5,0.5l-0.6,0v-3.7h2.6
		c1,0,1.9,1.1,1.9,3.6c0,0.7,0,0.7,0,0.7h2.9V229h-14.8v3.1h1.2C175,232.1,175.1,232.1,175.1,232.8"/>
	<path fill-rule="evenodd" clip-rule="evenodd" fill="#231F20" d="M219.8,233.1c-0.2-0.2-0.5-0.3-0.6-0.3c0,0,0.1,0.2,0.4,0.5
		c0.3,0.2,0.7,0.4,1.1,0.6C220.4,233.6,220.1,233.3,219.8,233.1"/>
	<path fill-rule="evenodd" clip-rule="evenodd" fill="#231F20" d="M218.2,242.6c0.2,0.2,0.4,0.2,0.5,0.2c0.2,0,0.2-0.1,0.3-0.2
		c0-0.1-0.2-0.4-0.9-0.8l-0.1,0c-0.2-0.1-0.4-0.2-0.7-0.3C217.6,241.9,217.9,242.3,218.2,242.6"/>
	<path fill-rule="evenodd" clip-rule="evenodd" fill="#231F20" d="M211.9,248h3.4c0.6,0,1-0.2,1.3-0.4c0.1,0,0.2,0.1,0.2,0.1
		c0.8,0.3,2.3,0.8,3.8,0.8c3.4,0,7-2.4,7-7.6c0-1.7-0.6-3.1-2-4.4h0.3v-9.1h-3.3c-0.3,0-0.6,0.1-0.9,0.2c-0.3,0.1-0.7,0.3-0.9,0.3
		c-0.1,0-0.3-0.1-0.5-0.1c-0.7-0.2-1.8-0.5-2.9-0.4c-2.8,0.3-5.8,3.1-5.8,7.4c0,1.5,0.4,2.9,1.2,4h-0.9V248 M212.4,239.3h1.5
		c-1.1-1.1-1.8-2.5-1.8-4.6c0-3.9,2.7-6.5,5.3-6.8c1.1-0.1,2.1,0.2,2.7,0.3c0.2,0.1,0.5,0.1,0.6,0.1c0.4,0,0.8-0.2,1.1-0.3
		c0.3-0.1,0.5-0.2,0.7-0.2h2.8v7.9H224c1.6,1.1,3,2.7,3,5c0,4.8-3.3,7-6.4,7c-1.4,0-2.8-0.5-3.6-0.8c-0.2-0.1-0.4-0.1-0.5-0.2
		l-0.2,0.1c-0.3,0.2-0.6,0.4-1.1,0.4h-2.8V239.3z"/>
	<path fill-rule="evenodd" clip-rule="evenodd" fill="#231F20" d="M216.5,245.9c0.4,0,2.2,1,4.1,1c2.5,0,5.4-1.7,5.4-6
		c0-3.9-4.9-5.2-7-6.7c-0.8-0.6-1.1-1.3-0.7-2c0.4-0.5,1.2-0.6,2,0c0.5,0.4,1.1,1.1,1.5,1.8c0.1,0.2,0.4,0.7,0.4,0.7h2V229h-1.8
		c-0.2,0-1,0.5-1.8,0.5c-0.6,0-1.9-0.6-3.3-0.5c-2.2,0.2-4.3,2.4-4.3,5.7c0,3.8,3,5.1,5.3,6.1c1.1,0.5,1.7,1.2,1.5,2
		c-0.3,1-1.4,1.3-2.3,0.6c-0.6-0.5-1.2-1.4-1.7-2.3c-0.2-0.3-0.4-0.7-0.4-0.7h-2.1v6h1.8C215.6,246.4,216.1,245.9,216.5,245.9"/>
	<path fill-rule="evenodd" clip-rule="evenodd" fill="#231F20" d="M200.4,248.5L200.4,248.5l0.8,0c4.4,0,7.1-2.8,7.1-7.3v-7.4h1.3
		v-6.4H191v6.4h1.4v7.4c0,3.7,1.8,5.5,3.3,6.3C197.3,248.4,199.1,248.5,200.4,248.5 M192.9,241.2v-8h-1.4V228h17.5v5.2h-1.3v8
		c0,4.2-2.4,6.7-6.5,6.7l-0.8,0c-1.2,0-3-0.1-4.5-1C194.5,246.2,192.9,244.6,192.9,241.2z"/>
	<path fill-rule="evenodd" clip-rule="evenodd" fill="#231F20" d="M200.5,241.1c0,1.2,0.3,1.2,0.8,1.2c0.2,0,0.6,0,0.6-1.2v-8h-1.2
		c0,0-0.1,0-0.2,0L200.5,241.1 M201,233.8h0.3v7.4c0,0.4,0,0.5-0.1,0.6l-0.2,0c0,0-0.1-0.2-0.1-0.6L201,233.8z"/>
	<path fill-rule="evenodd" clip-rule="evenodd" fill="#231F20" d="M201.2,246.8c1.7,0,5.5-0.5,5.5-5.6v-8.4c0-0.7,0.1-0.7,0.6-0.7
		l0.7,0V229h-6.4v3.1l0.6,0c0.4,0,0.6,0.3,0.6,0.8v8.2c0,1.6-0.7,2.3-1.6,2.3c-1,0-1.8-0.5-1.8-2.3v-8.2c0-0.5,0.2-0.8,0.6-0.8
		l0.6,0V229h-8.1v3.1h0.7c0.6,0,0.6,0,0.6,0.7v8.4C193.9,247.2,199.6,246.8,201.2,246.8"/>
	<path fill-rule="evenodd" clip-rule="evenodd" fill="#231F20" d="M246.8,248v-11.2h-3.6c1.6-3,3.3-6.3,3.4-6.4
		c0.4-0.8,0.4-1.5,0.1-2.1c-0.2-0.3-0.6-0.9-1.7-0.9h-15.5v11h3c-2.1,3.8-3.3,6.1-3.4,6.3c-0.5,0.7-0.5,1.6-0.2,2.3
		c0.1,0.2,0.6,1,1.7,1H246.8 M229.4,246.7c-0.2-0.5-0.2-1.1,0.2-1.6c0.1-0.2,1.9-3.5,3.9-7.2h-3.4V228H245c0.7,0,1,0.4,1.2,0.6
		c0.4,0.6,0,1.2-0.1,1.5c-0.1,0.2-1.9,3.7-3.9,7.3h4v10h-15.6C229.9,247.4,229.6,246.9,229.4,246.7z"/>
	<path fill-rule="evenodd" clip-rule="evenodd" fill="#231F20" d="M241.3,239.1L241.3,239.1c-0.6,1-1.1,2-1.6,2.9h0.7
		C240.7,242,241.3,241,241.3,239.1"/>
	<path fill-rule="evenodd" clip-rule="evenodd" fill="#231F20" d="M235.1,234.9c0.3-0.6,0.6-1.2,0.9-1.7H236
		C235.8,233.1,235.3,233.7,235.1,234.9"/>
	<path fill-rule="evenodd" clip-rule="evenodd" fill="#231F20" d="M245.3,246.3v-7.8h-2.9c0,0,0,0.1,0,0.7c0,2.4-1,4-1.9,4h-2.4
		c0,0,7-13.3,7.1-13.5c0.1-0.2,0.4-0.6-0.2-0.6h-13.9v7.7h2.9c0,0,0,0,0-0.7c0-2.4,0.9-4,1.9-4h1.9c0,0-7.2,13.2-7.4,13.5
		c-0.2,0.3-0.3,0.7,0.2,0.7H245.3"/>
	<path fill-rule="evenodd" clip-rule="evenodd" fill="#231F20" d="M170.7,237.3c0-6.5-4.9-9.9-9.8-9.9h-10v6.4h1.8v7.7h-1.9v6.5H161
		C167,248,170.7,243.9,170.7,237.3 M151.4,242.1h1.9v-8.9h-1.8V228h9.4c4.6,0,9.3,3.2,9.3,9.3c0,6.2-3.5,10.1-9.2,10.1h-9.5V242.1z"
		/>
	<path fill-rule="evenodd" clip-rule="evenodd" fill="#231F20" d="M160.9,242c0.6-0.2,1-1.2,1-4.7c0-2.4-0.6-3.6-1-4V242"/>
	<path fill-rule="evenodd" clip-rule="evenodd" fill="#231F20" d="M169.2,237.3c0-5.2-3.9-8.2-8.2-8.2h-8.4v3h1.2
		c0.6,0,0.6,0.1,0.6,0.7v9.6c0,0.6-0.1,0.7-0.6,0.7h-1.2v3.2h8.5C165.8,246.3,169.2,243.1,169.2,237.3 M159.9,243.1v-11h0.7
		c1.2,0,2.4,1.8,2.4,5.3c0,3.4-0.4,5.8-2.4,5.8H159.9z"/>
	<path fill-rule="evenodd" clip-rule="evenodd" fill="#231F20" d="M124.4,241.4h-2.1v-2.8h5.1v-11.3h-18.9v11.3h5.1v2.8h-2.1v6.5
		h12.8V241.4 M123.8,247.4h-11.7V242h2.1v-7.5c-0.2,0.5-0.4,1.1-0.4,1.8v1.7h-4.7V228h17.8V238h-4.7v-1.7c0-0.7-0.2-1.3-0.4-1.8v7.5
		h2.1V247.4z"/>
	<path fill-rule="evenodd" clip-rule="evenodd" fill="#231F20" d="M120.7,242.4v-9.6c0-0.6,0-0.7,0.3-0.7c0.3,0,2.1,1.8,2.1,4.3v0.7
		h2.7v-8h-15.8v8h2.7v-0.7c0-2.4,1.8-4.3,2.1-4.3c0.3,0,0.3,0.2,0.3,0.7v9.6c0,0.7-0.2,0.7-0.7,0.7h-1.4v3.2h9.7v-3.2h-1.4
		C120.9,243.1,120.7,243.1,120.7,242.4"/>
	<path fill-rule="evenodd" clip-rule="evenodd" fill="#231F20" d="M128.6,247.9h20.8v-6.5h-2.1c-0.9-3.3-3.3-12.9-3.3-12.9l-0.3-1.2
		h-9.5l-0.3,1.2c0,0-2.4,9.5-3.2,12.9h-2V247.9 M129.2,242.1h1.9c0.7-2.9,3.3-13.3,3.3-13.3l0.2-0.8h8.7l0.2,0.8
		c0,0,2.7,10.5,3.4,13.3h1.9v5.3h-19.7V242.1z"/>
	<polyline fill-rule="evenodd" clip-rule="evenodd" fill="#231F20" points="139,241.8 137.2,241.8 137.1,242.3 139.1,242.3 
		139,241.8 	"/>
	<path fill-rule="evenodd" clip-rule="evenodd" fill="#231F20" d="M146,242.5c-0.7-2.7-3.5-13.4-3.5-13.4h-7.1
		c0,0-2.7,10.7-3.3,13.4c-0.1,0.4-0.4,0.7-0.8,0.7h-1v3.1h7.3v-3.1h-1.5c0,0,0.2-0.9,0.5-2.2h3.4c0.3,1.3,0.5,2.2,0.5,2.2h-1.7v3.1
		h9.2v-3.1h-1.1C146.4,243.1,146.1,242.9,146,242.5 M137.1,237.8l1-4.2l1,4.2H137.1z"/>
	<g>
		<g>
			<path fill="#005B6A" d="M38.8,258.6c0.2-1.1,0.3-2.1,0.5-3.2c0.2-0.9,0.2-0.9,1.2-0.9c0.2,1.3,0.4,2.6,0.6,3.9c0,0,0.1,0,0.1,0
				c0.2-1.3,0.4-2.6,0.5-4c0.3,0,0.6,0,1,0c-0.3,2.2-0.7,4.5-1,6.7c-0.4,0-0.7,0-1.1,0c-0.2-1.5-0.5-2.9-0.7-4.4c0,0-0.1,0-0.1,0
				c-0.2,1.4-0.5,2.9-0.7,4.4c-0.4,0-0.7,0-1.1,0c-0.3-2.2-0.7-4.4-1.1-6.7c0.4,0,0.7,0,1.1,0c0.2,1.4,0.4,2.7,0.6,4.1
				C38.7,258.6,38.8,258.6,38.8,258.6z"/>
			<path fill="#005B6A" d="M64.3,261.2c-0.3,0-0.6,0-0.9,0c0-1.6,0-3.1,0-4.7c0,0-0.1,0-0.1,0c-0.2,0.8-0.4,1.5-0.7,2.3
				c0,0.1-0.1,0.4-0.2,0.4c-0.3,0-0.6,0.1-0.7-0.3c-0.2-0.8-0.4-1.5-0.8-2.3c0,1.5,0,3.1,0,4.7c-0.4,0-0.7,0-1,0c0-2.2,0-4.5,0-6.7
				c0.5,0,0.9,0,1.4,0c0.3,0.9,0.5,1.8,0.8,2.8c0.2-0.5,0.3-0.8,0.4-1.1c0.1-0.2,0.1-0.4,0.2-0.7c0.4-1.2,0.4-1.2,1.7-1
				C64.3,256.8,64.3,259,64.3,261.2z"/>
			<path fill="#005B6A" d="M214.3,261.2c-0.9,0.1-0.9,0.1-1.3-0.6c-0.5-1.2-0.9-2.3-1.5-3.5c0,1.4,0,2.7,0,4.1c-0.4,0-0.7,0-1,0
				c0-2.2,0-4.4,0-6.7c0.1,0,0.1,0,0.2,0c0.9,0,0.9,0,1.3,0.9c0.4,1,0.8,2,1.3,2.9c0-1.2,0-2.5,0-3.7c0.3,0,0.6,0,1,0
				C214.3,256.8,214.3,259,214.3,261.2z"/>
			<path fill="#005B6A" d="M201.6,254.5c1.1-0.1,1.1-0.1,1.5,0.9c0.4,1,0.8,1.9,1.2,2.9c0-1.2,0-2.5,0-3.7c0.3,0,0.6,0,1,0
				c0,2.2,0,4.4,0,6.7c-0.9,0.2-0.9,0.2-1.3-0.7c-0.4-1.2-0.9-2.3-1.4-3.4c0,1.4,0,2.7,0,4.1c-0.4,0-0.7,0-1,0
				C201.6,259,201.6,256.8,201.6,254.5z"/>
			<path fill="#005B6A" d="M169.5,257.9c0-0.6,0-1.2,0-1.8c0-1,0.8-1.7,1.8-1.7c1.1,0,1.8,0.7,1.8,1.7c0,1.2,0,2.3,0,3.5
				c0,1.1-0.7,1.8-1.9,1.8c-1.1,0-1.8-0.6-1.8-1.8C169.5,259,169.5,258.4,169.5,257.9z M172,257.9c0-0.6,0-1.2,0-1.8
				c0-0.4-0.2-0.7-0.7-0.7c-0.5,0-0.7,0.3-0.7,0.7c0,1.2,0,2.3,0,3.5c0,0.4,0.2,0.7,0.7,0.7c0.5,0,0.7-0.3,0.7-0.7
				C172,259.1,172,258.5,172,257.9z"/>
			<path fill="#005B6A" d="M223.1,257.9c0,0.6,0,1.2,0,1.8c0,1-0.8,1.7-1.9,1.7c-1.1,0-1.8-0.6-1.8-1.7c0-1.2,0-2.4,0-3.6
				c0-1.1,0.8-1.7,1.9-1.7c1.1,0,1.8,0.7,1.8,1.7C223.1,256.7,223.1,257.3,223.1,257.9C223.1,257.9,223.1,257.9,223.1,257.9z
				 M220.6,257.8c0,0.6,0,1.2,0,1.7c0,0.5,0.2,0.8,0.7,0.8c0.4,0,0.7-0.2,0.7-0.8c0-1.2,0-2.3,0-3.5c0-0.4-0.2-0.7-0.7-0.7
				c-0.5,0-0.7,0.2-0.7,0.8C220.6,256.7,220.6,257.3,220.6,257.8z"/>
			<path fill="#005B6A" d="M102,257.9c0,0.6,0,1.2,0,1.8c0,1-0.8,1.7-1.8,1.7c-1.1,0-1.8-0.6-1.8-1.7c0-1.2,0-2.4,0-3.6
				c0-1.1,0.8-1.7,1.9-1.7c1.1,0,1.8,0.7,1.8,1.7C102,256.7,102,257.3,102,257.9C102,257.9,102,257.9,102,257.9z M100.9,257.9
				c0-0.6,0-1.2,0-1.8c0-0.5-0.2-0.8-0.7-0.8c-0.5,0-0.7,0.3-0.7,0.7c0,1.2,0,2.3,0,3.5c0,0.5,0.3,0.8,0.7,0.8
				c0.5,0,0.7-0.3,0.7-0.8C100.9,259.1,100.9,258.5,100.9,257.9z"/>
			<path fill="#005B6A" d="M127.2,254.5c-0.4,0.8-0.7,1.4-1,2.2c-0.1,0.3-0.1,0.6-0.1,0.9c0.3,1.2,0.7,2.4,1.1,3.7
				c-0.4,0-0.8,0-1.2,0c-0.3-1-0.6-2-0.8-3.1c-0.9,0.9-0.4,2-0.6,3.1c-0.3,0-0.7,0-1.1,0c0-2.2,0-4.4,0-6.7c0.4,0,0.7,0,1.1,0
				c0,1,0,1.9,0,2.9c0,0,0.1,0,0.1,0c0.3-0.7,0.7-1.4,1-2.1C126.1,254.4,126.1,254.4,127.2,254.5z"/>
			<path fill="#005B6A" d="M164.2,256.6c-0.3,0-0.6,0-1,0c0-0.2,0-0.4,0-0.6c0-0.4-0.3-0.7-0.7-0.7c-0.4,0-0.7,0.3-0.7,0.7
				c0,0.8,0,1.5,0,2.3c0,0.5,0,0.9,0,1.4c0,0.5,0.3,0.7,0.7,0.7c0.5,0,0.7-0.3,0.7-0.7c0-0.3,0-0.6,0-1c-0.2,0-0.4-0.1-0.7-0.1
				c0-0.2,0-0.5,0-0.8c0.6,0,1.2,0,1.8,0c0,0.9-0.1,1.7-0.1,2.5c0,0.2-0.2,0.4-0.3,0.5c-0.4,0.5-1.4,0.7-2.2,0.4
				c-0.7-0.2-1-0.8-1-1.5c0-1.1,0-2.3,0-3.4c0-1.2,0.8-2,1.9-1.9C163.8,254.5,164.4,255.3,164.2,256.6z"/>
			<path fill="#005B6A" d="M75.9,261.3c0-2.3,0-4.5,0-6.8c1,0,2,0,3,0c0,0.3,0,0.6,0,0.9c-0.6,0-1.2,0-1.8,0c0,0.6,0,1.2,0,1.9
				c0.5,0,1,0,1.5,0c0,0.3,0,0.6,0,1c-0.3,0-0.7,0-1,0c-0.3,0-0.5,0.1-0.4,0.4c0,0.5,0,1,0,1.6c0.6,0,1.2,0,1.8,0
				c0.2,0.5,0.2,0.9-0.3,1.2c-0.2,0.1-0.2,0.5-0.2,0.7c0,0.1,0.4,0.1,0.6,0.2c0.2,0.1,0.3,0.1,0.5,0.2c-0.7,0.5-1.3,0.5-1.6,0.2
				c-0.4-0.3-0.3-0.7,0.1-1.6C77.3,261.3,76.6,261.3,75.9,261.3z"/>
			<path fill="#005B6A" d="M90.9,261.3c-0.4,0-0.8,0-1.1,0c0-2.2,0-4.5,0-6.7c0.7,0,1.5-0.1,2.2,0c0.7,0.1,1.1,0.6,1.2,1.3
				c0.1,0.5,0.1,1,0,1.4c-0.1,0.9-0.7,1.4-1.6,1.4c-0.2,0-0.4,0-0.6,0C90.9,259.5,90.9,260.4,90.9,261.3z M90.9,257.7
				c0,0.1,0.1,0.1,0.1,0.2c0.3-0.2,0.8-0.3,0.9-0.5c0.1-0.5,0.1-1.1,0-1.7c-0.1-0.2-0.6-0.3-1-0.4C90.9,256.2,90.9,257,90.9,257.7z"
				/>
			<path fill="#005B6A" d="M239.2,259.1c0.4,0,0.7,0,1,0c0.2,1.7-0.7,2.6-2.3,2.2c-0.7-0.2-1.2-0.7-1.2-1.5c0-1.3,0-2.5,0-3.8
				c0-1,0.7-1.6,1.8-1.6c1,0,1.7,0.6,1.7,1.6c0,0.2,0,0.4,0,0.6c-0.3,0-0.6,0-1,0c0-0.2,0-0.5,0-0.7c0-0.4-0.3-0.6-0.7-0.6
				c-0.4,0-0.7,0.2-0.7,0.6c0,1.3,0,2.6,0,3.9c0,0.4,0.3,0.6,0.7,0.5c0.4,0,0.6-0.2,0.6-0.6C239.2,259.6,239.2,259.4,239.2,259.1z"
				/>
			<path fill="#005B6A" d="M189.1,259.1c0.4,0,0.7,0,1,0c0.2,1.7-0.8,2.6-2.3,2.2c-0.7-0.2-1.2-0.7-1.2-1.4c0-1.3,0-2.6,0-3.9
				c0-0.9,0.8-1.5,1.8-1.6c1,0,1.7,0.6,1.7,1.6c0,0.2,0,0.4,0,0.7c-0.3,0-0.7,0-1,0c0-0.2,0-0.5,0-0.7c0-0.4-0.3-0.6-0.7-0.6
				c-0.4,0-0.7,0.2-0.7,0.6c0,1.3,0,2.6,0,3.9c0,0.4,0.3,0.6,0.7,0.5c0.4,0,0.6-0.2,0.6-0.6C189.1,259.6,189.1,259.4,189.1,259.1z"
				/>
			<path fill="#005B6A" d="M138.6,254.5c1,0,2,0,3,0c0,0.3,0,0.6,0,0.9c-0.5,0-1,0-1.4,0c-0.3,0-0.5,0.1-0.4,0.4c0,0.4,0,0.9,0,1.4
				c0.5,0,1,0,1.5,0c0,0.3,0,0.6,0,1c-0.5,0-1,0-1.5,0c0,0.6,0,1.2,0,1.7c0,0.1,0.2,0.3,0.4,0.3c0.5,0,1,0,1.5,0c0,0.3,0,0.6,0,0.9
				c-1,0-2,0-3,0C138.6,259,138.6,256.8,138.6,254.5z"/>
			<path fill="#005B6A" d="M181.4,256.2c-0.4,0-0.6,0-0.9,0c-0.1-0.2-0.1-0.4-0.2-0.5c-0.1-0.1-0.4-0.3-0.6-0.3
				c-0.2,0-0.4,0.3-0.4,0.4c0,0.3,0.1,0.7,0.3,0.9c0.4,0.5,0.8,0.9,1.2,1.3c0.5,0.5,0.7,1.1,0.7,1.8c-0.1,1-0.8,1.6-1.8,1.6
				c-1-0.1-1.6-0.7-1.6-1.8c0.3,0,0.6-0.1,0.9-0.1c0.1,0.2,0.1,0.5,0.2,0.6c0.2,0.2,0.4,0.3,0.6,0.3c0.2,0,0.5-0.3,0.4-0.5
				c0-0.4-0.2-0.8-0.4-1.1c-0.3-0.5-0.8-0.8-1.2-1.3c-0.4-0.4-0.6-0.9-0.6-1.5c0-0.9,0.6-1.6,1.5-1.6c0.8-0.1,1.4,0.4,1.6,1.4
				C181.4,255.9,181.4,256,181.4,256.2z"/>
			<path fill="#005B6A" d="M115,259.6c0.3,0,0.6-0.1,0.9-0.1c0.1,0.3,0.1,0.5,0.3,0.7c0.1,0.1,0.4,0.3,0.6,0.2
				c0.2,0,0.4-0.2,0.4-0.4c0.2-0.5,0-0.8-0.4-1.2c-0.4-0.4-0.8-0.8-1.2-1.3c-0.3-0.4-0.6-1-0.6-1.5c-0.1-0.9,0.6-1.6,1.5-1.7
				c0.9-0.1,1.5,0.4,1.6,1.4c0,0.1,0,0.2,0.1,0.4c-0.3,0-0.6,0-0.9,0c0-0.1-0.1-0.3-0.1-0.4c-0.1-0.3-0.3-0.5-0.6-0.4
				c-0.2,0.1-0.4,0.4-0.4,0.7c0,0.3,0.2,0.5,0.4,0.7c0.4,0.5,0.8,0.9,1.2,1.3c0.4,0.5,0.7,1.1,0.7,1.8c-0.1,1-0.8,1.6-1.7,1.5
				C115.8,261.4,115.2,260.7,115,259.6z"/>
			<path fill="#005B6A" d="M231.5,256.2c-0.3,0-0.6,0-0.9,0c-0.1-0.2-0.1-0.4-0.2-0.5c-0.2-0.2-0.4-0.3-0.6-0.3
				c-0.2,0-0.4,0.3-0.4,0.5c0,0.3,0.1,0.6,0.3,0.9c0.4,0.5,0.9,0.9,1.3,1.4c0.4,0.5,0.7,1.1,0.6,1.7c-0.1,1-0.8,1.6-1.7,1.6
				c-1,0-1.6-0.6-1.7-1.8c0.3,0,0.6-0.1,1-0.1c0.1,0.2,0.1,0.4,0.2,0.5c0.2,0.2,0.5,0.4,0.7,0.4c0.2,0,0.5-0.4,0.5-0.6
				c0-0.3-0.2-0.7-0.4-1c-0.3-0.5-0.8-0.8-1.1-1.3c-0.3-0.4-0.5-0.9-0.6-1.4c-0.1-1,0.5-1.6,1.5-1.7c0.9-0.1,1.5,0.4,1.7,1.4
				C231.5,255.9,231.5,256,231.5,256.2z"/>
			<path fill="#005B6A" d="M148.8,254.5c0.4,0,0.7,0,1.1,0c0,0.2,0,0.3,0,0.5c0,1.5,0,3,0,4.5c0,1.5-1.1,2.2-2.5,1.8
				c-0.5-0.2-0.9-0.5-0.9-1.1c-0.1-0.4,0-0.9,0-1.3c0.3,0,0.7,0,1,0c0,0.3,0,0.5,0,0.8c0,0.5,0.2,0.8,0.6,0.7c0.4,0,0.6-0.3,0.6-0.7
				c0-1.5,0-3.1,0-4.6C148.8,254.9,148.8,254.7,148.8,254.5z"/>
			<path fill="#005B6A" d="M107.2,254.5c0.4,0,0.7,0,1.1,0c0,1.9,0,3.8,0,5.8c0.7,0,1.2,0,1.9,0c0,0.4,0,0.6,0,0.9c-1,0-2,0-3,0
				C107.2,259,107.2,256.8,107.2,254.5z"/>
			<path fill="#005B6A" d="M195.2,254.5c0.4,0,0.7,0,1.1,0c0,2.2,0,4.4,0,6.7c-0.3,0-0.7,0-1.1,0C195.2,259,195.2,256.8,195.2,254.5
				z"/>
			<path fill="#005B6A" d="M133.3,254.5c0,2.3,0,4.5,0,6.7c-0.4,0-0.7,0-1.1,0c0-2.2,0-4.5,0-6.7
				C132.5,254.5,132.9,254.5,133.3,254.5z"/>
			<path fill="#005B6A" d="M246.4,261.2c-0.4,0-0.7,0-1.1,0c0-2.2,0-4.5,0-6.7c0.4,0,0.7,0,1.1,0C246.4,256.8,246.4,259,246.4,261.2
				z"/>
			<path fill="#005B6A" d="M70.7,261.3c-0.4,0-0.7,0-1.1,0c0-2.2,0-4.5,0-6.7c0.3,0,0.7,0,1.1,0C70.7,256.8,70.7,259,70.7,261.3z"/>
			<path fill="#005B6A" d="M54.4,261.2c-0.4,0-0.7,0-1.1,0c0-2.2,0-4.4,0-6.7c0.3,0,0.7,0,1.1,0C54.4,256.8,54.4,259,54.4,261.2z"/>
			<path fill="#005B6A" d="M229.6,254c0.4-1.3,0.4-1.3,1.5-1.3C230.8,253.6,230.3,254,229.6,254z"/>
			<path fill="#005B6A" d="M179.5,254c0.4-1.4,0.4-1.4,1.6-1.3C180.6,253.2,180.6,254.1,179.5,254z"/>
		</g>
	</g>
</g>
</svg>
