<?xml version="1.0" encoding="utf-8"?>
<!-- Generator: Adobe Illustrator 19.1.1, SVG Export Plug-In . SVG Version: 6.00 Build 0)  -->
<svg version="1.1" xmlns="http://www.w3.org/2000/svg" xmlns:xlink="http://www.w3.org/1999/xlink" x="0px" y="0px"
	 viewBox="0 0 283 396" enable-background="new 0 0 283 396" xml:space="preserve">
<g id="bombki">
	<g id="wyborowa01">
	</g>
	<g id="jacobs_x5F_creek">
	</g>
	<path fill="none" stroke="#FF901F" stroke-width="5" stroke-miterlimit="10" d="M156.2,26.6c1.2-2,2-4.8,2-7.6
		c0-9.2-7.4-16.5-16.6-16.5c-9.2,0-16.6,7.3-16.6,16.5c0,2.8,0.7,5.7,2,7.7H156.2z"/>
	<g>
		<path fill="#D97907" d="M141.5,5.4c7.5,0,13.6,6.1,13.6,13.6c0,1.7-0.3,3.3-0.9,4.8H138h-9.2c-0.6-1.5-0.9-3.1-0.9-4.8
			C127.9,11.5,134,5.4,141.5,5.4 M141.5,2.4c-9.2,0-16.6,7.4-16.6,16.6c0,2.8,0.7,5.5,2,7.8H138h18.2c1.2-2.3,2-5,2-7.8
			C158.1,9.8,150.7,2.4,141.5,2.4L141.5,2.4z"/>
	</g>
	<path opacity="0.9" fill="#600622" d="M168.4,101.3c1.9,6.7,5.3,16.8,11.2,18.5c59.4,16.9,102.2,71.1,102.2,135.4
		c0,77.8-62.8,140.9-140.6,140.9c-77.8,0-140.7-62.8-140.8-140.7C0.3,190.8,43.5,136.3,103,119.6c6-1.7,8.2-11.7,10-18.4H168.4z"/>
	<path opacity="0.9" fill="#7A0F30" d="M173.7,125.2c49.5,17.1,86.5,62.2,86.5,118.4c0,68-53.1,152.4-118.9,152.4
		c-65.8,0-119.1-84.2-119.1-152.2c-0.1-56.5,37.2-101.7,86.8-118.7C131.1,117.5,158.2,119.9,173.7,125.2z"/>
	<path opacity="0.6" fill="#600622" d="M195.3,384.3c39.3-21.5,68.2-60.4,76.2-107.9c7.1-42.4-4.2-84.8-28.8-117.5
		c4.6,4.5,8.9,9.4,12.8,14.6c18,23.9,27.6,52.5,27.6,82.8C283,314.9,246.5,365,195.3,384.3z"/>
	<path opacity="0.6" fill="#600622" d="M111.7,391.3c-28.2-4.5-54.1-18.1-74.3-39.3C12.7,326.1-0.5,292,0,255.8
		c0.4-27.9,9.2-54.3,24.4-76.1c-18.1,37.3-21,81.6-5.5,122.1C35.5,345.3,69.8,377.5,111.7,391.3z"/>
	<g opacity="0.1">
		<ellipse fill="#E6E9EB" cx="140.8" cy="148.5" rx="58.5" ry="28.2"/>
		<path fill="#F3DB00" d="M140.8,177.1c-32.5,0-58.9-12.8-58.9-28.6s26.4-28.6,58.9-28.6s58.9,12.8,58.9,28.6
			S173.3,177.1,140.8,177.1z M140.8,120.7c-32,0-58.1,12.5-58.1,27.8c0,15.3,26.1,27.8,58.1,27.8s58.1-12.5,58.1-27.8
			C198.9,133.1,172.8,120.7,140.8,120.7z"/>
	</g>
	<g opacity="0.1">
		<ellipse fill="#E6E9EB" cx="140.8" cy="135.2" rx="31.1" ry="15"/>
		<path fill="#F3DB00" d="M140.8,150.4c-17.3,0-31.3-6.8-31.3-15.2s14-15.2,31.3-15.2s31.3,6.8,31.3,15.2S158,150.4,140.8,150.4z
			 M140.8,120.5c-17,0-30.8,6.6-30.8,14.8c0,8.1,13.8,14.8,30.8,14.8s30.8-6.6,30.8-14.8C171.6,127.1,157.8,120.5,140.8,120.5z"/>
	</g>
	<g>
		<path fill="#5E1E34" d="M163.8,77.9c0-3.1,1.6-3.8,1.6-6c0-2.2-0.7-3.7-0.7-5.9c0-2.2,1.6-2.6,1.6-7.6s0-25,0-27.9
			S154.6,23,140.8,23l0,0l0,0h0l0,0c-13.8,0-25.6,4.5-25.6,7.4s0,22.9,0,27.9s1.6,5.3,1.6,7.6c0,2.2-0.7,3.7-0.7,5.9
			c0,2.2,1.6,2.9,1.6,6c0,3.1-6.1,29.1-6.1,29.1h29.2h0h29.2C169.9,107,163.8,81,163.8,77.9z"/>
		<path fill="#481526" d="M156.5,65.6c-5.3-0.8-10.8-1.5-15.7-2c0,1.4,0,2.8,0,4.2c8.8,0.9,18.4,2.3,24.6,3.6
			c-0.1-1.6-0.4-2.9-0.6-4.4C162.4,66.6,159.6,66.1,156.5,65.6z"/>
		<path fill="#481526" d="M125,65.6c5.3-0.8,10.8-1.5,15.7-2c0,1.4,0,2.8,0,4.2c-8.8,0.9-18.4,2.3-24.6,3.6c0.1-1.6,0.4-2.9,0.6-4.4
			C119.2,66.6,122,66.1,125,65.6z"/>
		<path opacity="0.9" fill="#DFD4C6" d="M168.9,102.7c-0.7-2.9-1.6-6.9-2.4-10.8c-6.9-0.6-15.1-0.9-23.8-0.9
			c-10.4,0-20,0.5-27.7,1.3c-0.8,3.8-1.7,7.6-2.4,10.4H168.9z"/>
		<path opacity="0.5" fill="#260A12" d="M130.3,69.1l1.3-4.1v-5.4l-0.1-35.9c-6.9,1-12.4,2.9-14.9,4.8c-0.9,0.9-1.4,1.6-1.4,2v0
			c0,2.9,0,22.9,0,27.9s1.6,5.3,1.6,7.6c0,2.2-0.7,3.7-0.7,5.9c0,2.2,1.6,2.9,1.6,6c0,3.1-6.1,29.1-6.1,29.1h20c0-8.4,0-32.6,0-32.6
			L130.3,69.1z"/>
		<path opacity="0.5" fill="#260A12" d="M163.8,77.9c0-3.1,1.6-3.8,1.6-6c0-2.2-0.7-3.7-0.7-5.9c0-2.2,1.6-2.6,1.6-7.6s0-25,0-27.9
			c0-1.6-3.6-3.7-9.2-5.3v34.8l-0.7,5.7l0.7,4.3l-1,5.4c0,0,4.1,23.5,5.9,31.7h7.9C169.9,107,163.8,81,163.8,77.9z"/>
		<path opacity="0.6" fill="#933D5C" d="M152.2,69.2V65l0.9-4.6c0,0,0.5-36.1,0-36.2c-1.8-0.4-3.8-0.7-5.8-0.9v35.9l-0.9,5l-0.1,4
			l-0.6,6.2V107h9.7l-3.8-33.1L152.2,69.2z"/>
	</g>
	<path opacity="0.6" fill="#422708" d="M141.3,389C64.7,389,2.6,328.2,0.5,252.1c0,1.1-0.1,2.2-0.1,3.3
		c0.1,77.8,63,140.7,140.8,140.7c77.8,0,140.6-63.1,140.6-140.9c0-1.1,0-2.1-0.1-3.1C279.7,328.1,217.8,389,141.3,389z"/>
	<path opacity="0.3" fill="#422708" d="M141.3,355.7C70.2,355.7,11.6,303.4,1.9,235c-1,6.7-1.4,13.5-1.4,20.4
		c0.1,77.8,63,140.7,140.8,140.7c77.8,0,140.6-63.1,140.6-140.9c0-6.9-0.5-13.6-1.4-20.2C270.7,303.3,212.2,355.7,141.3,355.7z"/>
	<path opacity="5.000000e-002" fill="#FFFFFF" d="M46.5,359.5c25,22.7,58.2,36.6,94.8,36.6c77.8,0,140.6-63.1,140.6-140.9
		c0-30.7-9.8-59.1-26.5-82.3C222.6,275.9,83.5,260.5,46.5,359.5z"/>
	<path opacity="0.2" fill="#FFFFFF" d="M141.2,385.6c-25.3,0-49.1-8.4-67-23.5l-0.4-0.3c-0.4-0.3-0.3-0.5-0.3-0.6
		c0.1-0.4,0.7-0.8,1.4-0.8c0.3,0,0.6,0.1,0.9,0.3c19.4,11.4,42,17.5,65.4,17.5c23.3,0,45.8-6,65.1-17.4c0.3-0.2,0.6-0.3,0.9-0.3
		c0.7,0,1.2,0.4,1.4,0.8c0,0.1,0.1,0.3-0.3,0.6l-0.2,0.2C190.3,377.2,166.5,385.6,141.2,385.6L141.2,385.6z"/>
</g>
<g id="BRAND">
	<g id="New_Symbol_13">
	</g>
	<g>
		<g>
			<linearGradient id="SVGID_1_" gradientUnits="userSpaceOnUse" x1="61.6096" y1="269.6387" x2="57.7572" y2="259.0545">
				<stop  offset="0" style="stop-color:#764D20"/>
				<stop  offset="0.6138" style="stop-color:#DDC7A3"/>
				<stop  offset="0.679" style="stop-color:#BEA37D"/>
				<stop  offset="0.7522" style="stop-color:#A18159"/>
				<stop  offset="0.8117" style="stop-color:#8F6C42"/>
				<stop  offset="0.8496" style="stop-color:#88643A"/>
				<stop  offset="1" style="stop-color:#947143"/>
			</linearGradient>
			<path fill="url(#SVGID_1_)" d="M54.8,263.2c1.1,1.1,2.3,2.3,3.4,3.4c1,1,1.9,1.9,2.9,2.9c0.3,0.3,0.4,0.3,0.7,0.1
				c1.1-0.9,2.2-1.8,3.2-2.8c0.2-0.2,0.2-0.4,0-0.6c-0.1-0.1-0.2-0.2-0.2-0.2c-2.1-2.1-4.2-4.2-6.3-6.3c-0.1-0.1-0.3-0.3-0.5-0.4
				c-0.1-0.1-0.2-0.1-0.2-0.1c-0.1,0-0.2,0-0.2,0.1c-0.1,0-0.1,0.1-0.2,0.1c-1,1-2,2-3,3c-0.2,0.2-0.2,0.4,0,0.6
				C54.6,262.9,54.7,263,54.8,263.2z"/>
			<g>
				<linearGradient id="SVGID_2_" gradientUnits="userSpaceOnUse" x1="54.7726" y1="265.2282" x2="64.6416" y2="263.488">
					<stop  offset="0" style="stop-color:#D0BDA2"/>
					<stop  offset="0.1341" style="stop-color:#88643A"/>
					<stop  offset="0.1873" style="stop-color:#805D35"/>
					<stop  offset="0.2705" style="stop-color:#694A27"/>
					<stop  offset="0.373" style="stop-color:#452C11"/>
					<stop  offset="0.4228" style="stop-color:#311B05"/>
					<stop  offset="0.687" style="stop-color:#AF9470"/>
					<stop  offset="0.7518" style="stop-color:#937959"/>
					<stop  offset="0.8907" style="stop-color:#4D361D"/>
					<stop  offset="0.9431" style="stop-color:#311B05"/>
				</linearGradient>
				<path fill="url(#SVGID_2_)" d="M57.8,259.7c0.1,0.1,0.2,0.2,0.3,0.3l6.3,6.3l0,0c0,0,0.1,0.1,0.1,0.1c-1.2,1.1-2.2,2-3.1,2.7
					c-1-1-1.9-1.9-2.9-2.9c-0.8-0.8-1.6-1.6-2.4-2.4l-1-1l-0.1-0.1c-0.1-0.1-0.1-0.1-0.2-0.2c0.8-0.8,1.6-1.6,2.3-2.3L57.8,259.7
					 M57.8,259.1c-0.1,0-0.2,0-0.2,0.1c-0.1,0-0.1,0.1-0.2,0.1c-1,1-2,2-3,3c-0.2,0.2-0.2,0.4,0,0.6c0.1,0.1,0.2,0.2,0.3,0.3
					c1.1,1.1,2.3,2.3,3.4,3.4c1,1,1.9,1.9,2.9,2.9c0.1,0.1,0.2,0.2,0.3,0.2c0.1,0,0.2-0.1,0.3-0.2c1.1-0.9,2.2-1.8,3.2-2.8
					c0.2-0.2,0.2-0.4,0-0.6c-0.1-0.1-0.2-0.2-0.2-0.2c-2.1-2.1-4.2-4.2-6.3-6.3c-0.1-0.1-0.3-0.3-0.5-0.4
					C58,259.1,57.9,259.1,57.8,259.1L57.8,259.1z"/>
			</g>
		</g>
		<linearGradient id="SVGID_3_" gradientUnits="userSpaceOnUse" x1="59.5711" y1="282.7784" x2="43.7757" y2="239.3807">
			<stop  offset="0" style="stop-color:#764D20"/>
			<stop  offset="0.6138" style="stop-color:#DDC7A3"/>
			<stop  offset="0.679" style="stop-color:#BEA37D"/>
			<stop  offset="0.7522" style="stop-color:#A18159"/>
			<stop  offset="0.8117" style="stop-color:#8F6C42"/>
			<stop  offset="0.8496" style="stop-color:#88643A"/>
			<stop  offset="1" style="stop-color:#947143"/>
		</linearGradient>
		<linearGradient id="SVGID_4_" gradientUnits="userSpaceOnUse" x1="29.6048" y1="264.3911" x2="75.4297" y2="256.311">
			<stop  offset="0" style="stop-color:#D0BDA2"/>
			<stop  offset="0.1341" style="stop-color:#88643A"/>
			<stop  offset="0.1873" style="stop-color:#805D35"/>
			<stop  offset="0.2705" style="stop-color:#694A27"/>
			<stop  offset="0.373" style="stop-color:#452C11"/>
			<stop  offset="0.4228" style="stop-color:#311B05"/>
			<stop  offset="0.687" style="stop-color:#AF9470"/>
			<stop  offset="0.7518" style="stop-color:#937959"/>
			<stop  offset="0.8907" style="stop-color:#4D361D"/>
			<stop  offset="0.9431" style="stop-color:#311B05"/>
		</linearGradient>
		<path fill="url(#SVGID_3_)" stroke="url(#SVGID_4_)" stroke-width="0.5271" stroke-miterlimit="10" d="M29.9,259.1
			c-0.1,1.8,0,3.5,0.6,5.3c0.6,1.8,1.5,3.4,2.6,4.9c0.3,0.4,0.6,0.8,0.9,1.2c0.3,0.5,0.5,1,0.5,1.6c-0.3,0.6-0.7,1.1-1.1,1.6
			c-0.5,0.5-0.9,0.9-1.4,1.4c-0.2,0.3-0.2,0.4,0,0.6c0.1,0.1,0.2,0.2,0.2,0.2c0.8,0.8,1.7,1.7,2.5,2.5c0.1,0.1,0.2,0.2,0.2,0.2
			c0.3,0.2,0.4,0.2,0.6,0c0.1-0.1,0.2-0.2,0.3-0.3c0.5-0.5,0.9-0.9,1.4-1.4c0.9-0.8,1.8-1,2.9-0.5c0.5,0.2,0.9,0.4,1.3,0.7
			c2.9,1.9,5.8,3.6,8.9,5.2c0.6,0.3,1.2,0.6,1.9,0.9c0.3,0.1,0.6,0.1,0.9,0c0.4-0.2,0.7-0.3,1.1-0.5c1.6-0.7,3.2-1.6,4.8-2.5
			c1.7-1,3.4-2.1,5.1-3.2c0.4-0.3,0.8-0.5,1.2-0.7c1-0.4,2-0.2,2.8,0.5c0.1,0.1,0.3,0.3,0.4,0.4c0.4,0.4,0.8,0.9,1.3,1.3
			c0.4,0.4,0.5,0.4,0.9,0c0.9-0.9,1.8-1.8,2.7-2.7c0.1-0.1,0.1-0.1,0.2-0.2c0.2-0.2,0.2-0.3,0-0.5c-0.4-0.4-0.8-0.7-1.1-1.1
			c-0.3-0.3-0.6-0.7-0.9-1c-0.7-1-0.7-1.4-0.1-2.3c0.2-0.4,0.5-0.8,0.8-1.2c1-1.4,1.9-3,2.5-4.7c0.4-1.1,0.7-2.3,0.8-3.5
			c0-1,0-2-0.2-3c-0.3-1.7-0.9-3.3-2-4.7c-1-1.3-2.2-2.2-3.6-3c-0.5-0.2-0.9-0.5-1.4-0.7c-0.3-0.2-0.6-0.4-0.9-0.6
			c-0.5-0.5-0.6-1.2-0.3-1.8c0.2-0.3,0.3-0.6,0.6-0.9c0.4-0.5,0.8-1,1.3-1.5c0.6-0.6,0.5-0.6,0-1.2c-0.6-0.6-1.1-1.1-1.7-1.7
			c-0.3-0.3-0.6-0.6-0.9-0.9c-0.3-0.3-0.6-0.4-1-0.4c-0.2,0-0.3,0-0.5,0c-2.1,0-4.2,0-6.3,0c-0.4,0-0.8,0-1.2,0
			c-0.6,0-1.1-0.2-1.5-0.6c-0.2-0.2-0.5-0.4-0.7-0.7c-0.6-0.6-1.2-1.2-1.8-1.8c-0.6-0.6-1.1-0.6-1.7,0c-0.6,0.6-1.2,1.2-1.8,1.8
			c-0.2,0.2-0.5,0.5-0.8,0.7c-0.4,0.3-0.9,0.5-1.5,0.6c-0.4,0-0.8,0-1.2,0c-2.2,0-4.4,0-6.6,0c-0.5,0-0.9,0.1-1.2,0.5
			c-0.9,0.9-1.8,1.8-2.7,2.7c-0.1,0.1-0.1,0.1-0.2,0.2c-0.1,0.1-0.1,0.3,0,0.4c0.1,0.2,0.3,0.3,0.4,0.5c0.6,0.7,1.2,1.3,1.7,2.1
			c0.3,0.6,0.4,1.1,0.1,1.7c-0.1,0-0.1,0.1-0.1,0.2c-0.3,0.4-0.7,0.6-1.1,0.8c-0.4,0.2-0.7,0.4-1.1,0.6c-3.2,1.7-4.6,4.1-4.6,4.1
			c-0.5,0.9-0.9,1.9-1.1,2.9L29.9,259.1z M73.1,267.2L73.1,267.2C73.1,267.3,73.1,267.2,73.1,267.2z M37.5,255.4
			c1.3-1,3.1-1.5,4.9-1.3c1.8,0.2,3.4,0.9,4.8,2c0.6,0.4,0.6,0.5,1.2-0.1c0.2-0.3,2.5-2.6,2.9-3c0.1-0.1,0.1-0.3,0-0.4
			c-0.1-0.1-0.2-0.3-0.4-0.4c-1.3-1.3-2.5-2.5-3.8-3.8c-0.2-0.2-0.4-0.4-0.6-0.7c-0.2-0.2-0.2-0.4-0.3-0.7c-0.1-0.5,0.2-0.9,0.7-1
			c0.3-0.1,0.5-0.1,0.8-0.1c1.8,0,3.5,0,5.3,0c1.6,0,3.2,0,4.8,0c0.3,0,0.6,0,0.8,0.1c0.5,0.1,0.9,0.6,0.7,1.3
			c-0.1,0.3-0.2,0.5-0.4,0.8c-0.2,0.2-0.4,0.4-0.6,0.7c-5.7,5.7-11.5,11.5-17.2,17.2c-0.1,0.1-0.3,0.3-0.4,0.4
			c-0.2,0.2-0.2,0.3,0,0.6c0,0,0.1,0.1,0.1,0.1v0c0,0,0,0,0,0c0.9,0.9,1.9,1.8,3,2.6c0.1,0.1,0.2,0.1,0.3,0.2c0.1,0.1,0.3,0.1,0.4,0
			c0.2-0.1,0.3-0.3,0.5-0.4c2.8-2.8,5.5-5.5,8.3-8.3c1.4-1.4,2.9-2.8,4.3-4.2c1.3-1.2,2.8-2.1,4.5-2.5c1.6-0.4,3.2-0.5,4.7,0.2
			c2,0.8,3.3,2.3,3.7,4.5c0.3,1.3,0.2,2.5-0.3,3.7c-0.4,1.2-1.1,2.3-1.8,3.3c-1.2,1.6-2.6,2.9-4.1,4.2c-3.1,2.6-6.5,4.7-10,6.6
			c-0.3,0.2-0.7,0.4-1,0.5c-0.2,0.1-0.3,0.1-0.5,0c-0.3-0.2-0.7-0.4-1-0.5c-3.3-1.8-6.5-3.8-9.5-6.2c-1.4-1.1-2.6-2.3-3.8-3.6
			c-0.9-1-1.7-2-2.3-3.2c-0.5-1-0.8-2-0.9-3c-0.1-1.1,0.1-2.5,0.5-3.2S36.2,256.5,37.5,255.4z"/>
		<g>
			<path fill="#EADAC1" d="M54.5,262.7c1-1,2-2,3-3c0,0,0.1-0.1,0.2-0.1c0.1,0,0.1,0,0.2-0.1c0.1,0,0.2,0.1,0.2,0.1
				c0.2,0.1,0.3,0.3,0.5,0.4c2.1,2.1,4.2,4.2,6.3,6.3c0.1,0.1,0.2,0.2,0.2,0.2c0,0,0,0,0,0c0.2-0.2,0.2-0.3,0-0.6
				c-0.1-0.1-0.2-0.2-0.2-0.2c-2.1-2.1-4.2-4.2-6.3-6.3c-0.1-0.1-0.3-0.3-0.5-0.4c-0.1-0.1-0.2-0.1-0.2-0.1c-0.1,0-0.2,0-0.2,0.1
				c-0.1,0-0.1,0.1-0.2,0.1c-1,1-2,2-3,3C54.2,262.5,54.2,262.6,54.5,262.7C54.5,262.8,54.5,262.8,54.5,262.7z"/>
		</g>
		<linearGradient id="SVGID_5_" gradientUnits="userSpaceOnUse" x1="234.2397" y1="247.156" x2="250.2031" y2="274.8054">
			<stop  offset="0" style="stop-color:#87633E"/>
			<stop  offset="0.252" style="stop-color:#CBB087"/>
			<stop  offset="0.2954" style="stop-color:#C2A67D"/>
			<stop  offset="0.4686" style="stop-color:#A38259"/>
			<stop  offset="0.6094" style="stop-color:#8F6C42"/>
			<stop  offset="0.6992" style="stop-color:#88643A"/>
			<stop  offset="1" style="stop-color:#D4B990"/>
		</linearGradient>
		<linearGradient id="SVGID_6_" gradientUnits="userSpaceOnUse" x1="242.4462" y1="244.1196" x2="242.4462" y2="277.3519">
			<stop  offset="0" style="stop-color:#D0BDA2"/>
			<stop  offset="0.3008" style="stop-color:#88643A"/>
			<stop  offset="0.3233" style="stop-color:#805D35"/>
			<stop  offset="0.3584" style="stop-color:#694A27"/>
			<stop  offset="0.4017" style="stop-color:#452C11"/>
			<stop  offset="0.4228" style="stop-color:#311B05"/>
			<stop  offset="0.687" style="stop-color:#AF9470"/>
			<stop  offset="0.7518" style="stop-color:#937959"/>
			<stop  offset="0.8907" style="stop-color:#4D361D"/>
			<stop  offset="0.9431" style="stop-color:#311B05"/>
		</linearGradient>
		<path fill="url(#SVGID_5_)" stroke="url(#SVGID_6_)" stroke-width="0.5271" stroke-miterlimit="10" d="M234,267.9
			c0-0.1,0-0.1,0-0.2c-0.3-0.5-0.5-0.9-0.8-1.3c0-0.1-0.1-0.1-0.2-0.2c-0.3-0.6-0.7-0.8-1.3-0.5c-0.5,0.3-0.7,0.5-0.6,1.1
			c0,0.1,0,0.2,0,0.3c0.3,1.5,0.5,3.1,0.8,4.6c0.1,0.6,0.2,1.2,0.4,1.8c0.1,0.1,0.1,0.1,0.1,0.2l0,0c0.1,0,0.1,0.1,0.1,0.2
			c0.3,0.6,0.7,1,1.3,1.3c0.5,0.3,1.1,0.5,1.6,0.7c1.5,0.6,3.1,0.9,4.7,1c1.7,0.1,3.4,0.1,5.1-0.2c1.5-0.3,2.9-0.8,4.2-1.6
			c2.1-1.3,3.5-3.1,4.2-5.5c0.4-1.5,0.4-3,0.2-4.5c-0.3-1.9-1-3.5-2.4-4.8c-0.5-0.5-1-0.9-1.6-1.3c-1-0.7-2.1-1.2-3.2-1.7
			c-1.6-0.7-3.2-1.5-4.9-2.2c-0.7-0.3-1.3-0.7-1.9-1.2c-1-0.8-1.5-1.9-1.4-3.2c0.1-1.5,0.9-2.7,2.3-3.2c1-0.4,2-0.4,3-0.2
			c1.2,0.2,2.3,0.8,3.2,1.7c0.6,0.6,1.1,1.2,1.6,1.8c0.5,0.7,0.9,1.5,1.3,2.3c0.2,0.3,0.3,0.6,0.5,0.9c0.3,0.4,0.7,0.5,1.2,0.4
			c0.4-0.1,0.7-0.4,0.7-0.9c0-0.1,0-0.2,0-0.3c-0.1-1.5-0.2-2.9-0.3-4.4c0-0.3,0-0.5-0.1-0.8c-0.1-1.1-0.6-1.9-1.7-2.4
			c-0.3-0.1-0.6-0.3-0.9-0.4c-2.2-0.8-4.4-1.2-6.7-1.1c-2.3,0-4.4,0.5-6.4,1.6c-1.5,0.8-2.7,1.8-3.5,3.3c-0.9,1.6-1.2,3.3-1.1,5.1
			c0.1,1,0.2,1.9,0.7,2.8c0.9,1.9,2.3,3.5,4.2,4.5c0.5,0.3,0.9,0.5,1.4,0.7c1.9,0.9,3.9,1.7,5.8,2.6c0.6,0.3,1.1,0.6,1.7,1
			c1.2,1,1.8,2.2,1.7,3.8c-0.1,1.6-0.9,2.8-2.3,3.6c-0.8,0.4-1.7,0.5-2.6,0.5c-1.9-0.1-3.6-0.7-5.1-2c-0.9-0.8-1.7-1.8-2.3-2.8
			C234.4,268.7,234.2,268.3,234,267.9"/>
		<linearGradient id="SVGID_7_" gradientUnits="userSpaceOnUse" x1="219.8578" y1="281.7337" x2="202.1624" y2="251.0845">
			<stop  offset="0" style="stop-color:#88643A"/>
			<stop  offset="0.4553" style="stop-color:#D4BF97"/>
			<stop  offset="0.7683" style="stop-color:#E4DBC5"/>
			<stop  offset="0.8443" style="stop-color:#DDCDAE"/>
			<stop  offset="0.9392" style="stop-color:#D6BE98"/>
			<stop  offset="1" style="stop-color:#D4B990"/>
		</linearGradient>
		<linearGradient id="SVGID_8_" gradientUnits="userSpaceOnUse" x1="214.2983" y1="244.8373" x2="214.2983" y2="276.185">
			<stop  offset="0" style="stop-color:#D0BDA2"/>
			<stop  offset="9.725348e-003" style="stop-color:#CCB89C"/>
			<stop  offset="5.189712e-002" style="stop-color:#BFA889"/>
			<stop  offset="0.1003" style="stop-color:#B69D7B"/>
			<stop  offset="0.16" style="stop-color:#B19672"/>
			<stop  offset="0.2642" style="stop-color:#AF9470"/>
			<stop  offset="0.4581" style="stop-color:#9B7C55"/>
			<stop  offset="0.622" style="stop-color:#88643A"/>
			<stop  offset="0.8211" style="stop-color:#87633A"/>
			<stop  offset="0.8677" style="stop-color:#75542F"/>
			<stop  offset="0.9607" style="stop-color:#472D12"/>
			<stop  offset="1" style="stop-color:#311B05"/>
		</linearGradient>
		<path fill="url(#SVGID_7_)" stroke="url(#SVGID_8_)" stroke-width="0.5271" stroke-miterlimit="10" d="M208.9,274.5
			c-0.1,0-0.4-0.2-0.6-0.2c-0.3-0.1-0.7-0.2-1-0.3c-0.6-0.3-0.8-0.6-0.7-1.2c0-0.4,0.1-0.8,0.3-1.2c0.3-0.9,0.7-1.8,1-2.7
			c0.3-0.7,0.2-0.6,0.9-0.6c2.9,0,5.8,0,8.7,0c0.1,0,0.2,0,0.3,0c0.2,0,0.3,0.1,0.4,0.3c0.1,0.3,0.2,0.6,0.3,0.9c0.4,1,0.8,2,1.1,3
			c0.3,1,0,1.5-1,1.8c-0.2,0.1-0.5,0.1-0.7,0.2c-0.3,0.1-0.5,0.4-0.4,0.7c0,0.2-0.1,0.4,0.1,0.5c0.2,0.1,0.3,0.2,0.6,0.2
			c0.3,0,0.5,0,0.8,0c3.3,0,6.7,0,10,0c0.2,0,0.4,0,0.6,0c0.2,0,0.5-0.1,0.7-0.2c0.2-0.1,0.4-0.4,0.3-0.6c-0.1-0.3-0.2-0.6-0.6-0.7
			c-0.2,0-0.3-0.1-0.5-0.1c-0.6-0.2-1.1-0.6-1.3-1.1c-0.3-0.6-0.5-1.2-0.8-1.8c-3.3-8.3-6.5-16.5-9.8-24.8c-0.1-0.2-0.1-0.3-0.2-0.5
			c-0.3-0.6-0.8-0.9-1.5-0.9c-1,0-2.1,0-3.1,0c-0.5,0-1,0.3-1.3,0.7c-0.1,0.2-0.3,0.5-0.4,0.7c-0.6,1.5-1.2,2.9-1.8,4.4
			c-2.5,6.3-5.1,12.7-7.6,19c-0.3,0.8-0.7,1.6-1,2.4c-0.4,1-1.1,1.7-2.1,2c-0.1,0-0.3,0.1-0.4,0.1c-0.4,0.1-0.5,0.4-0.4,0.8
			c0,0.3,0.3,0.6,0.6,0.6c0.2,0,0.5,0,0.7,0c2,0,4,0,6,0c0.9,0,1.7,0,2.6,0c0.3,0,0.6,0,0.9-0.2
			C209.2,275.5,209.2,274.6,208.9,274.5z M213.1,254.7c0.2,0.1,0.2,0.2,0.2,0.3c1.1,2.9,2.1,5.8,3.2,8.7c0.1,0.3,0.2,0.6,0.4,1
			c0.1,0.3,0,0.4-0.3,0.4c-0.5,0-1.1,0-1.6,0c-1.7,0-3.3,0-5,0c-0.2,0-0.4,0-0.7-0.1C210.5,261.5,211.8,258.1,213.1,254.7z"/>
		<g>
			<linearGradient id="SVGID_10_" gradientUnits="userSpaceOnUse" x1="202.4844" y1="270.0562" x2="185.1496" y2="240.0315">
				<stop  offset="0" style="stop-color:#E1D2B9"/>
				<stop  offset="0.3943" style="stop-color:#DCC09C"/>
				<stop  offset="0.7805" style="stop-color:#D4B990"/>
				<stop  offset="1" style="stop-color:#88643A"/>
			</linearGradient>
			<linearGradient id="SVGID_12_" gradientUnits="userSpaceOnUse" x1="191.3314" y1="242.6438" x2="185.489" y2="275.7779">
				<stop  offset="0" style="stop-color:#D0BDA2"/>
				<stop  offset="0.3008" style="stop-color:#88643A"/>
				<stop  offset="0.3233" style="stop-color:#805D35"/>
				<stop  offset="0.3584" style="stop-color:#694A27"/>
				<stop  offset="0.4017" style="stop-color:#452C11"/>
				<stop  offset="0.4228" style="stop-color:#311B05"/>
				<stop  offset="0.687" style="stop-color:#AF9470"/>
				<stop  offset="0.7518" style="stop-color:#937959"/>
				<stop  offset="0.8907" style="stop-color:#4D361D"/>
				<stop  offset="0.9431" style="stop-color:#311B05"/>
			</linearGradient>
			<path fill="url(#SVGID_10_)" stroke="url(#SVGID_12_)" stroke-width="0.5271" stroke-miterlimit="10" d="M195.9,245.6
				 M196.6,245.4 M192.8,275.3c0.1-0.2,0.2-0.5,0.3-0.8c1.8-4.6,3.7-9.2,5.5-13.8c1.5-3.8,3-7.6,4.6-11.3c0.3-0.7,0.6-1.4,1.1-2
				c0,0,0,0,0-0.1l0,0c0.5-0.1,0.9-0.3,1.3-0.4c0.4-0.1,0.5-0.4,0.5-0.7c0-0.4-0.2-0.6-0.6-0.7c-0.2,0-0.4-0.1-0.5-0.1
				c-2.8,0-5.6,0-8.4,0c-0.6,0-0.7,0.3-0.7,0.3c-0.4,0.7-0.3,1.1,0.4,1.3c0.3,0.1,0.5,0.2,0.8,0.3c0.3,0.1,0.6,0.3,0.7,0.7
				c0,0.1,0,0.1,0.1,0.3c0,0.5-0.1,0.9-0.3,1.3c-0.4,1.2-0.9,2.4-1.3,3.6c-1.3,3.6-2.7,7.1-4,10.7c-0.1,0.2-0.1,0.5-0.3,0.7
				c-0.1-0.1-0.2-0.2-0.2-0.4c-0.2-0.5-0.4-1-0.6-1.5c-0.8-2.1-1.6-4.1-2.4-6.2c0-0.1,0-0.1-0.1-0.2v0c-0.1-0.2-0.1-0.4-0.2-0.5
				c0-0.1,0-0.2-0.1-0.3c0,0,0-0.1,0-0.1c0-0.1,0-0.1-0.1-0.2c-0.1-0.2-0.1-0.4-0.2-0.5c0-0.1,0-0.2-0.1-0.3c0,0,0-0.1,0-0.1
				c0-0.1,0-0.1-0.1-0.2c-0.3-0.9-0.7-1.8-1-2.7c0-0.1,0-0.2-0.1-0.3c-0.2-0.5-0.4-1-0.6-1.6c-0.1-0.3-0.2-0.6-0.2-0.9
				c0-0.5,0.1-0.9,0.6-1.1c0.2-0.1,0.5-0.2,0.7-0.3c0.2-0.1,0.4-0.1,0.6-0.2c0.3-0.1,0.4-0.4,0.3-0.7c0-0.3-0.1-0.5-0.4-0.6
				c-0.2-0.1-0.4-0.1-0.7-0.1c-3.6,0-7.1,0-10.7,0c-0.2,0-0.4,0-0.5,0.1c-0.4,0.1-0.5,0.3-0.6,0.7c0,0.4,0.1,0.6,0.5,0.8
				c0.1,0,0.2,0.1,0.3,0.1c0.5,0.2,0.9,0.6,1.1,1c0.2,0.4,0.4,0.9,0.6,1.3c2,5.1,4,10.3,6,15.4c1.2,3.2,2.5,6.4,3.7,9.6
				c0.1,0.3,0.3,0.6,0.4,0.9c0.2,0.4,0.6,0.8,1.1,0.8c0.8,0,1.4,0,2.4,0S192.8,275.3,192.8,275.3z"/>
		</g>
		<linearGradient id="SVGID_14_" gradientUnits="userSpaceOnUse" x1="163.9897" y1="244.6003" x2="169.6073" y2="276.4596">
			<stop  offset="0" style="stop-color:#B29269"/>
			<stop  offset="0.252" style="stop-color:#CBB087"/>
			<stop  offset="0.4819" style="stop-color:#BDA378"/>
			<stop  offset="0.6911" style="stop-color:#B69C70"/>
			<stop  offset="1" style="stop-color:#DDCBB0"/>
		</linearGradient>
		<linearGradient id="SVGID_15_" gradientUnits="userSpaceOnUse" x1="163.9439" y1="244.3408" x2="169.6531" y2="276.7191">
			<stop  offset="0" style="stop-color:#D0BDA2"/>
			<stop  offset="0.3008" style="stop-color:#88643A"/>
			<stop  offset="0.3233" style="stop-color:#805D35"/>
			<stop  offset="0.3584" style="stop-color:#694A27"/>
			<stop  offset="0.4017" style="stop-color:#452C11"/>
			<stop  offset="0.4228" style="stop-color:#311B05"/>
			<stop  offset="0.687" style="stop-color:#AF9470"/>
			<stop  offset="0.7518" style="stop-color:#937959"/>
			<stop  offset="0.8907" style="stop-color:#4D361D"/>
			<stop  offset="0.9431" style="stop-color:#311B05"/>
		</linearGradient>
		<path fill="url(#SVGID_14_)" stroke="url(#SVGID_15_)" stroke-width="0.5271" stroke-miterlimit="10" d="M173.8,275.2
			c0-0.3,0-0.7-0.3-0.7c-1.7-0.5-2.4-1.1-2.5-1.6c0-0.1,0-0.2,0-0.3c-0.2-0.7-0.2-1.4-0.2-2.1c0-6.7,0-13.4,0-20.1
			c0-0.6,0-1.1,0.1-1.7c0.1-0.9,0.5-1.6,1.4-1.9c0.2-0.1,0.3-0.1,0.5-0.2c0.4-0.2,0.5-0.4,0.4-0.8c0-0.4-0.2-0.6-0.6-0.6
			c-0.2,0-0.5,0-0.8,0c-2.7,0-5.4,0-8,0c-0.8,0-1.6,0-2.4,0c-0.3,0-0.5,0-0.7,0.1c-0.5,0.1-0.5,0.2-0.5,0.8c0,0.3,0.2,0.5,0.6,0.6
			c0.2,0.1,0.4,0.1,0.6,0.2c0.9,0.3,1.4,0.8,1.6,1.7c0.1,0.6,0.1,1.3,0.1,1.9c0,6.7,0,13.4,0,20.1c0,0.4,0,0.8,0,1.2
			c0,0.4-0.1,0.7-0.2,1.1c-0.2,0.5-0.5,0.9-1,1.1c-0.2,0.1-0.3,0.1-0.5,0.2c-0.4,0-0.8,0.1-1,0.5c-0.2,0.3-0.1,0.6,0,0.8
			c0.2,0.3,0.4,0.3,0.7,0.3c0.3,0,0.6,0,0.8,0c3,0,6.1,0,9.1,0c0.5,0,1,0,1.5,0C172.5,275.9,173.8,275.9,173.8,275.2z"/>
		<g>
			<linearGradient id="SVGID_17_" gradientUnits="userSpaceOnUse" x1="151.6913" y1="278.8719" x2="130.4834" y2="242.1388">
				<stop  offset="0" style="stop-color:#D4BF97"/>
				<stop  offset="0.252" style="stop-color:#CBB087"/>
				<stop  offset="0.2954" style="stop-color:#C2A67D"/>
				<stop  offset="0.4686" style="stop-color:#A38259"/>
				<stop  offset="0.6094" style="stop-color:#8F6C42"/>
				<stop  offset="0.6992" style="stop-color:#88643A"/>
				<stop  offset="1" style="stop-color:#D4B990"/>
			</linearGradient>
			<linearGradient id="SVGID_19_" gradientUnits="userSpaceOnUse" x1="137.9847" y1="242.662" x2="144.2703" y2="278.3095">
				<stop  offset="0" style="stop-color:#D0BDA2"/>
				<stop  offset="0.3008" style="stop-color:#88643A"/>
				<stop  offset="0.3233" style="stop-color:#805D35"/>
				<stop  offset="0.3584" style="stop-color:#694A27"/>
				<stop  offset="0.4017" style="stop-color:#452C11"/>
				<stop  offset="0.4228" style="stop-color:#311B05"/>
				<stop  offset="0.687" style="stop-color:#AF9470"/>
				<stop  offset="0.7518" style="stop-color:#937959"/>
				<stop  offset="0.8907" style="stop-color:#4D361D"/>
				<stop  offset="0.9431" style="stop-color:#311B05"/>
			</linearGradient>
			<path fill="url(#SVGID_17_)" stroke="url(#SVGID_19_)" stroke-width="0.5271" stroke-miterlimit="10" d="M124.9,275.6
				c0,0.2,0.2,0.3,0.4,0.3c0.3,0,0.6,0,0.8,0c3,0,6.1,0,9.1,0c0.6,0,1.1,0,1.7,0c0.3,0,0.5,0,0.7-0.1c0.4-0.1,0.6-0.3,0.5-0.8
				c0,0-0.1-0.5-0.9-0.8c-1.5-0.5-1.7-1.3-1.7-1.3c-0.3-0.8-0.3-1.6-0.3-2.5c0-2.7,0-5.4,0-8c0-0.2,0-0.4,0-0.6
				c0-0.1,0.1-0.2,0.2-0.2c0.1,0,0.2,0,0.3,0c3.5,0,7,0,10.5,0c0.2,0,0.3,0,0.5,0.1c0,0.2,0,0.4,0,0.6c0,2.7,0,5.5,0,8.2
				c0,0.3,0,0.6,0,0.9c0,0.5-0.1,0.9-0.3,1.4c-0.2,0.5-0.5,0.9-1.1,1.1c-0.2,0.1-0.5,0.2-0.7,0.2c-0.2,0.1-0.3,0.1-0.5,0.2
				c-0.3,0.2-0.5,0.4-0.4,0.8c0.1,0.4,0.3,0.6,0.6,0.6c0.2,0,0.4,0,0.6,0c3.6,0,7.3,0,10.9,0c0.3,0,0.5,0,0.7-0.1v0
				c0.2,0,0.4,0,0.5-0.2c0.1-0.2,0.1-0.4,0-0.7c0-0.2-0.1-0.3-0.3-0.4c-0.2-0.1-0.5-0.2-0.7-0.2c-0.4-0.1-0.8-0.3-1.1-0.5
				c-0.3-0.3-0.5-0.7-0.7-1.1c-0.1-0.6-0.2-1.3-0.2-1.9c0-6.8,0-13.7,0-20.5c0-0.5,0-0.9,0.1-1.4c0.1-1.1,0.7-1.8,1.8-2.1
				c0.2,0,0.4-0.1,0.5-0.2c0.4-0.1,0.5-0.4,0.5-0.8c0-0.4-0.2-0.6-0.6-0.7c-0.2-0.1-0.5-0.1-0.8-0.1c-2.3,0-4.5,0-6.8,0
				c-1.4,0-2.8,0-4.2,0c-0.3,0-0.5,0-0.7,0.1c-0.3,0.1-0.5,0.4-0.5,0.7c0,0.3,0.1,0.6,0.4,0.7c0.2,0.1,0.4,0.1,0.7,0.2
				c1,0.3,1.5,0.9,1.7,1.9c0.1,0.6,0.1,1.1,0.1,1.7c0,2.6,0,5.1,0,7.7c0,0.1,0,0.3,0,0.4c0,0.1-0.1,0.2-0.2,0.2c-0.2,0-0.3,0-0.5,0
				c-1.9,0-3.7,0-5.6,0c-1.6,0-3.2,0-4.8,0c-0.4,0-0.4-0.1-0.4-0.4c0-0.1,0-0.2,0-0.3c0-2.5,0-5.1,0-7.6c0-0.4,0-0.8,0-1.2
				c0-0.4,0.1-0.8,0.3-1.2c0.2-0.4,0.5-0.8,0.9-1c0.2-0.1,0.5-0.2,0.7-0.3c0.2-0.1,0.4-0.1,0.5-0.2c0.3-0.1,0.4-0.4,0.4-0.7
				c0-0.3-0.2-0.6-0.5-0.7c-0.3-0.1-0.5-0.1-0.8-0.1c-1.4,0-2.9,0-4.3,0c-2.2,0-4.3,0-6.5,0c-0.3,0-0.6,0-1,0.1
				c-0.2,0.1-0.3,0.2-0.4,0.3c-0.2,0.5,0,0.9,0.4,1.1c0.3,0.1,0.6,0.2,0.9,0.3c0.7,0.2,1.1,0.7,1.3,1.3c0.1,0.3,0.1,0.5,0.2,0.8
				c0,0.5,0.1,1,0.1,1.5c0,6.6,0,13.2,0,19.8c0,0.3,0,0.5,0,0.8c0,0.5,0,1-0.2,1.4c-0.2,0.9-0.7,1.4-1.5,1.6
				c-0.2,0.1-0.5,0.1-0.7,0.2C124.9,274.5,124.8,274.8,124.9,275.6z"/>
		</g>
		<linearGradient id="SVGID_21_" gradientUnits="userSpaceOnUse" x1="114.8848" y1="276.9084" x2="103.3726" y2="245.2788">
			<stop  offset="0" style="stop-color:#87633E"/>
			<stop  offset="0.252" style="stop-color:#CBB087"/>
			<stop  offset="0.2954" style="stop-color:#C2A67D"/>
			<stop  offset="0.4686" style="stop-color:#A38259"/>
			<stop  offset="0.6094" style="stop-color:#8F6C42"/>
			<stop  offset="0.6992" style="stop-color:#88643A"/>
			<stop  offset="1" style="stop-color:#D4B990"/>
		</linearGradient>
		<linearGradient id="SVGID_22_" gradientUnits="userSpaceOnUse" x1="101.1704" y1="246.0605" x2="118.4886" y2="276.0564">
			<stop  offset="0" style="stop-color:#D0BDA2"/>
			<stop  offset="0.3008" style="stop-color:#88643A"/>
			<stop  offset="0.3233" style="stop-color:#805D35"/>
			<stop  offset="0.3584" style="stop-color:#694A27"/>
			<stop  offset="0.4017" style="stop-color:#452C11"/>
			<stop  offset="0.4228" style="stop-color:#311B05"/>
			<stop  offset="0.687" style="stop-color:#AF9470"/>
			<stop  offset="0.7518" style="stop-color:#937959"/>
			<stop  offset="0.8907" style="stop-color:#4D361D"/>
			<stop  offset="0.9431" style="stop-color:#311B05"/>
		</linearGradient>
		<path fill="url(#SVGID_21_)" stroke="url(#SVGID_22_)" stroke-width="0.5271" stroke-miterlimit="10" d="M101.5,246.2
			c-0.3,0.2-0.6,0.3-0.9,0.5c-0.8,0.5-1.7,1.1-2.4,1.7c-1.9,1.7-3.2,3.8-4,6.3C93,258.5,93,262.3,94,266c1.3,4.5,4.1,7.6,8.4,9.4
			c1.6,0.7,3.3,1.1,5,1.3c2.9,0.4,5.8,0.2,8.7-0.4c1.5-0.3,3-0.9,4.4-1.7c0.6-0.4,1-0.9,1.1-1.6c0.3-1.7,0.6-3.3,0.9-5
			c0-0.3,0-0.6,0-0.8c0-0.2-0.1-0.4-0.3-0.6c-0.5-0.4-1.2-0.3-1.6,0.2c-0.1,0.2-0.2,0.4-0.3,0.6c-0.3,0.5-0.5,0.9-0.8,1.4
			c-0.6,1.1-1.4,2-2.3,2.9c-0.9,0.8-2,1.4-3.2,1.8c-1.8,0.5-3.5,0.5-5.3,0c-2.4-0.6-4.2-2.1-5.3-4.3c-0.6-1.1-1-2.2-1.3-3.4
			c-0.4-1.8-0.6-3.6-0.6-5.5c0-1.7,0.1-3.4,0.5-5c0.3-1.5,0.8-3,1.6-4.4c0.6-1,1.4-1.9,2.4-2.6c1.9-1.3,4.1-1.6,6.4-1.1
			c1.7,0.4,3.2,1.2,4.5,2.5c0.5,0.5,1,1,1.5,1.6c0.5,0.5,0.9,1.2,1.1,1.9c0.1,0.4,0.3,0.8,0.5,1.1c0.1,0.2,0.3,0.4,0.5,0.4
			c0.6,0.2,1.2-0.2,1.3-0.9c0-0.3,0-0.6,0-0.8c-0.1-1.4-0.3-2.8-0.5-4.1c-0.1-0.5-0.1-1-0.2-1.4c-0.1-0.6-0.4-1.1-1-1.3
			c-0.4-0.2-0.8-0.4-1.2-0.5c-2.9-1.1-5.8-1.5-8.9-1.6c-1.6,0-3.2,0.1-4.6,0.5C104,244.9,101.5,246.2,101.5,246.2z"/>
		<g>
			<path fill="#EADAC1" d="M160.3,246.1c0.1-0.2,0.2-0.3,0.5-0.4c0.2-0.2,0.5-0.1,0.7-0.1c0.8,0,1.6,0,2.4,0c2.7,0,5.4,0,8,0
				c0.3,0,0.5,0,0.8,0c0.3,0.1,0.5,0.2,0.6,0.5c0-0.1,0-0.2,0-0.4c0-0.4-0.2-0.6-0.6-0.6c-0.2,0-0.5,0-0.8,0c-2.7,0-5.4,0-8,0
				c-0.8,0-1.6,0-2.4,0c-0.3,0-0.5,0-0.7,0.1C160.4,245.4,160.3,245.5,160.3,246.1C160.3,246.1,160.3,246.1,160.3,246.1z"/>
			<path fill="#EADAC1" d="M170.8,272.9c0-0.1,0-0.2,0-0.3c-0.2-0.7-0.2-1.4-0.2-2.1c0,0.2,0,0.4,0,0.5c0,0.7,0,1.4,0.2,2.1
				c0,0.1,0,0.2,0,0.3c0.1,0.4,0.7,1.1,2.5,1.6c0.2,0,0.2,0.2,0.2,0.4c0-0.1,0-0.1,0-0.2c0-0.3,0-0.7-0.3-0.7
				C171.5,274,170.9,273.4,170.8,272.9z"/>
			<path fill="#EADAC1" d="M160.6,275.2c0.2-0.4,0.6-0.4,1-0.5c0.2-0.1,0.4-0.1,0.5-0.2c0.5-0.2,0.8-0.6,1-1.1
				c0.1-0.3,0.2-0.7,0.2-1.1c0-0.4,0-0.8,0-1.2c0-6.7,0-13.4,0-20.1v0c0,6.5,0,13.1,0,19.6c0,0.4,0,0.8,0,1.2c0,0.4-0.1,0.7-0.2,1.1
				c-0.2,0.5-0.5,0.9-1,1.1c-0.2,0.1-0.3,0.1-0.5,0.2c-0.4,0-0.8,0.1-1,0.5c-0.1,0.2-0.1,0.4-0.1,0.6
				C160.6,275.3,160.6,275.3,160.6,275.2z"/>
		</g>
		<g>
			<path fill="#EADAC1" d="M135.3,258.3c0,0.1,0,0.2,0,0.2c0,0.1,0,0.2,0,0.3c0,0.3,0,0.4,0.4,0.4c1.6,0,3.2,0,4.8,0
				c1.9,0,3.7,0,5.6,0c0.2,0,0.3,0,0.5,0c0.1,0,0.2-0.1,0.2-0.2c0-0.1,0-0.3,0-0.4c0-2.6,0-5.1,0-7.7c0,0,0,0,0,0c0,2.4,0,4.8,0,7.2
				c0,0.1,0,0.3,0,0.4c0,0.1-0.1,0.2-0.2,0.2c-0.2,0-0.3,0-0.5,0c-1.9,0-3.7,0-5.6,0c-1.6,0-3.2,0-4.8,0
				C135.3,258.7,135.3,258.6,135.3,258.3z"/>
			<path fill="#EADAC1" d="M144.4,245.7c0.2-0.1,0.5-0.1,0.7-0.1c1.4,0,2.8,0,4.2,0c2.3,0,4.5,0,6.8,0c0.3,0,0.5,0,0.8,0.1
				c0.3,0.1,0.5,0.3,0.5,0.5c0-0.1,0-0.2,0-0.3c0-0.4-0.2-0.6-0.6-0.7c-0.2-0.1-0.5-0.1-0.8-0.1c-2.3,0-4.5,0-6.8,0
				c-1.4,0-2.8,0-4.2,0c-0.3,0-0.5,0-0.7,0.1c-0.3,0.1-0.5,0.4-0.5,0.7c0,0.1,0,0.2,0,0.3C144,246,144.1,245.8,144.4,245.7z"/>
			<path fill="#EADAC1" d="M157.1,274.9c0-0.2-0.1-0.3-0.3-0.4c-0.2-0.1-0.5-0.2-0.7-0.2c-0.4-0.1-0.8-0.3-1.1-0.5
				c-0.3-0.3-0.5-0.7-0.7-1.1c-0.1-0.6-0.2-1.3-0.2-1.9c0-6.7,0-13.3,0-20c0,0,0,0,0,0c0,6.8,0,13.7,0,20.5c0,0.6,0.1,1.3,0.2,1.9
				c0.2,0.4,0.3,0.8,0.7,1.1c0.3,0.2,0.7,0.4,1.1,0.5c0.2,0.1,0.5,0.2,0.7,0.2c0.2,0.1,0.2,0.2,0.3,0.4c0,0,0,0,0,0
				C157.1,275.3,157.1,275.1,157.1,274.9z"/>
			<path fill="#EADAC1" d="M144.6,275c0.1-0.1,0.3-0.1,0.5-0.2c0.2-0.1,0.5-0.2,0.7-0.2c0.5-0.2,0.9-0.6,1.1-1.1
				c0.2-0.4,0.2-0.9,0.3-1.4c0-0.3,0-0.6,0-0.9c0-2.7,0-5.5,0-8.2c0-0.2,0-0.4,0-0.5c0,2.7,0,5.5,0,8.2c0,0.3,0,0.6,0,0.9
				c0,0.5-0.1,0.9-0.3,1.4c-0.2,0.5-0.5,0.9-1.1,1.1c-0.2,0.1-0.5,0.2-0.7,0.2c-0.2,0.1-0.3,0.1-0.5,0.2c-0.3,0.2-0.5,0.4-0.4,0.8
				c0,0,0,0.1,0,0.1C144.3,275.2,144.4,275.1,144.6,275z"/>
			<path fill="#EADAC1" d="M125.5,274.9c0.2-0.1,0.4-0.1,0.7-0.2c0.8-0.2,1.3-0.7,1.5-1.6c0.1-0.5,0.1-1,0.2-1.4c0-0.3,0-0.5,0-0.8
				c0,0,0,0,0,0c0,0.1,0,0.2,0,0.3c0,0.5,0,1-0.2,1.4c-0.2,0.9-0.7,1.4-1.5,1.6c-0.2,0.1-0.5,0.1-0.7,0.2c-0.3,0.1-0.4,0.3-0.3,1
				C125.2,275.1,125.3,275,125.5,274.9z"/>
			<path fill="#EADAC1" d="M137,274.2c-1.5-0.5-1.7-1.3-1.7-1.3c-0.2-0.8-0.3-1.6-0.3-2.5c0,0.2,0,0.3,0,0.5c0,0.8,0,1.7,0.3,2.5
				c0,0,0.2,0.8,1.7,1.3c0.6,0.2,0.8,0.5,0.9,0.6c0.1-0.1,0.1-0.2,0-0.4C138,275,137.9,274.5,137,274.2z"/>
			<path fill="#EADAC1" d="M124.8,246.1c0.1-0.2,0.2-0.2,0.4-0.3c0.3-0.1,0.6-0.1,1-0.1c2.2,0,4.3,0,6.5,0c1.4,0,2.9,0,4.3,0
				c0.3,0,0.6,0,0.8,0.1c0.2,0.1,0.4,0.2,0.5,0.4c0-0.1,0-0.2,0-0.3c0-0.3-0.2-0.6-0.5-0.7c-0.3-0.1-0.5-0.1-0.8-0.1
				c-1.4,0-2.9,0-4.3,0c-2.2,0-4.3,0-6.5,0c-0.3,0-0.6,0-1,0.1c-0.2,0.1-0.3,0.2-0.4,0.3c-0.1,0.2-0.1,0.5,0,0.7
				C124.8,246.1,124.8,246.1,124.8,246.1z"/>
		</g>
		<g>
			<path fill="#EADAC1" d="M94.2,255.5c0.8-2.4,2.1-4.6,4-6.3c0.7-0.7,1.6-1.2,2.4-1.7c0.3-0.2,0.6-0.3,0.9-0.5c0,0,2.5-1.3,3.9-1.6
				c1.4-0.4,3-0.5,4.6-0.5c3,0,6,0.5,8.9,1.6c0.4,0.2,0.8,0.3,1.2,0.5c0.6,0.3,0.9,0.7,1,1.3c0.1,0.5,0.1,1,0.2,1.4
				c0.2,1.4,0.3,2.8,0.5,4.1c0,0,0,0.1,0,0.1c0,0,0-0.1,0-0.1c0-0.3,0-0.6,0-0.8c-0.1-1.4-0.3-2.8-0.5-4.1c-0.1-0.5-0.1-1-0.2-1.4
				c-0.1-0.6-0.4-1.1-1-1.3c-0.4-0.2-0.8-0.4-1.2-0.5c-2.9-1.1-5.8-1.5-8.9-1.6c-1.6,0-3.2,0.1-4.6,0.5c-1.4,0.4-3.9,1.6-3.9,1.6
				c-0.3,0.2-0.6,0.3-0.9,0.5c-0.8,0.5-1.7,1.1-2.4,1.7c-1.9,1.7-3.2,3.8-4,6.3c-0.7,2.1-1,4.2-0.9,6.3
				C93.3,259.2,93.6,257.3,94.2,255.5z"/>
			<path fill="#EADAC1" d="M120.5,266.9c-0.1,0.2-0.2,0.4-0.3,0.6c-0.3,0.5-0.5,0.9-0.8,1.4c-0.6,1.1-1.4,2-2.3,2.9
				c-0.9,0.8-2,1.4-3.2,1.8c-1.8,0.5-3.5,0.5-5.3,0c-2.4-0.6-4.2-2.1-5.3-4.3c-0.6-1.1-1-2.2-1.3-3.4c-0.4-1.7-0.6-3.5-0.6-5.3
				c0,0.2,0,0.4,0,0.6c0,1.9,0.2,3.7,0.6,5.5c0.3,1.2,0.7,2.3,1.3,3.4c1.2,2.2,2.9,3.7,5.3,4.3c1.8,0.5,3.5,0.5,5.3,0
				c1.2-0.3,2.2-0.9,3.2-1.8c0.9-0.8,1.7-1.8,2.3-2.9c0.3-0.5,0.5-0.9,0.8-1.4c0.1-0.2,0.2-0.4,0.3-0.6c0.4-0.5,1.1-0.6,1.6-0.2
				c0.2,0.1,0.3,0.3,0.3,0.5c0-0.2,0-0.4,0-0.7c0-0.2-0.1-0.4-0.3-0.6C121.6,266.3,120.9,266.4,120.5,266.9z"/>
		</g>
		<g>
			<path fill="#EADAC1" d="M33.3,274.2c0.5-0.5,0.9-1,1.1-1.6c0-0.2,0-0.3,0-0.5c-0.3,0.6-0.7,1.1-1.1,1.5c-0.5,0.5-0.9,0.9-1.4,1.4
				c-0.2,0.2-0.2,0.4,0,0.6c0,0,0,0,0-0.1C32.4,275.1,32.9,274.6,33.3,274.2z"/>
			<path fill="#EADAC1" d="M40.6,266.4c-0.2,0.2-0.2,0.3,0,0.5c0,0,0,0,0,0c0.1-0.2,0.3-0.3,0.4-0.4c5.7-5.7,11.5-11.5,17.2-17.2
				c0.2-0.2,0.4-0.4,0.6-0.7c0.2-0.2,0.3-0.5,0.4-0.8c0.1-0.2,0.1-0.4,0-0.6c0,0,0,0.1,0,0.1c-0.1,0.3-0.2,0.5-0.4,0.8
				c-0.2,0.2-0.4,0.4-0.6,0.7c-5.7,5.7-11.5,11.5-17.2,17.2C40.9,266.1,40.7,266.2,40.6,266.4z"/>
			<path fill="#EADAC1" d="M67.7,249.3c-0.3-0.3-0.4-0.5-0.5-0.8c-0.1,0.5,0.1,0.9,0.5,1.4c0.3,0.3,0.6,0.5,0.9,0.6
				c0.4,0.2,0.9,0.5,1.4,0.7c1.4,0.7,2.6,1.7,3.6,3c1.1,1.4,1.7,3,2,4.7c0.1,0.7,0.2,1.3,0.2,2c0-0.8,0-1.7-0.2-2.5
				c-0.3-1.7-0.9-3.3-2-4.7c-1-1.3-2.2-2.2-3.6-3c-0.5-0.2-0.9-0.5-1.4-0.7C68.3,249.7,67.9,249.5,67.7,249.3z"/>
			<path fill="#EADAC1" d="M46.2,247.6c0,0.3,0.1,0.5,0.3,0.7c0.2,0.2,0.4,0.5,0.6,0.7c1.3,1.3,2.5,2.5,3.8,3.8
				c0.1,0.1,0.2,0.2,0.3,0.3c0,0,0.1-0.1,0.1-0.1c0.1-0.1,0.1-0.3,0-0.4c-0.1-0.1-0.2-0.3-0.4-0.4c-1.3-1.3-2.5-2.5-3.8-3.8
				c-0.2-0.2-0.4-0.4-0.6-0.7c-0.1-0.2-0.2-0.4-0.2-0.6C46.2,247.3,46.2,247.5,46.2,247.6z"/>
			<path fill="#EADAC1" d="M29.9,259.6l0.3-1.6c0.2-1,0.6-2,1.1-2.9c0,0,1.4-2.4,4.6-4.1c0.4-0.2,0.7-0.4,1.1-0.6
				c0.4-0.2,0.8-0.5,1.1-0.8c0-0.1,0-0.1,0.1-0.2c0.2-0.4,0.2-0.7,0.2-1c0,0.2-0.1,0.3-0.2,0.5c-0.1,0-0.1,0.1-0.1,0.2
				c-0.3,0.4-0.7,0.6-1.1,0.8c-0.4,0.2-0.7,0.4-1.1,0.6c-3.2,1.7-4.6,4.1-4.6,4.1c-0.5,0.9-0.9,1.9-1.1,2.9l-0.3,1.6
				c0,0.5,0,1,0,1.5C29.9,260.3,29.9,260,29.9,259.6z"/>
			<path fill="#EADAC1" d="M72.6,273.9c-0.3-0.3-0.6-0.7-0.9-1c-0.3-0.4-0.5-0.7-0.5-0.9c-0.1,0.4,0,0.8,0.5,1.5
				c0.3,0.4,0.6,0.7,0.9,1c0.4,0.4,0.8,0.7,1.1,1.1c0,0,0,0,0,0c0,0,0,0,0,0c0.2-0.2,0.2-0.3,0-0.5C73.3,274.7,73,274.3,72.6,273.9z
				"/>
			<path fill="#EADAC1" d="M36.1,244.7c0-0.1,0.1-0.1,0.2-0.2c0.9-0.9,1.8-1.8,2.7-2.7c0.3-0.4,0.7-0.5,1.2-0.5c2.2,0,4.4,0,6.6,0
				c0.4,0,0.8,0,1.2,0c0.6,0,1-0.2,1.5-0.6c0.3-0.2,0.5-0.5,0.8-0.7c0.6-0.6,1.2-1.2,1.8-1.8c0.6-0.6,1.1-0.6,1.7,0
				c0.6,0.6,1.2,1.2,1.8,1.8c0.2,0.2,0.5,0.4,0.7,0.7c0.4,0.4,0.9,0.6,1.5,0.6c0.4,0,0.8,0,1.2,0c2.1,0,4.2,0,6.3,0
				c0.2,0,0.3,0,0.5,0c0.4,0,0.7,0.1,1,0.4c0.3,0.3,0.6,0.6,0.9,0.9c0.6,0.6,1.1,1.1,1.7,1.7c0.1,0.1,0.3,0.3,0.3,0.3
				c0.3-0.3,0.1-0.4-0.3-0.9c-0.6-0.6-1.1-1.1-1.7-1.7c-0.3-0.3-0.6-0.6-0.9-0.9c-0.3-0.3-0.6-0.4-1-0.4c-0.2,0-0.3,0-0.5,0
				c-2.1,0-4.2,0-6.3,0c-0.4,0-0.8,0-1.2,0c-0.6,0-1.1-0.2-1.5-0.6c-0.2-0.2-0.5-0.4-0.7-0.7c-0.6-0.6-1.2-1.2-1.8-1.8
				c-0.6-0.6-1.1-0.6-1.7,0c-0.6,0.6-1.2,1.2-1.8,1.8c-0.2,0.2-0.5,0.5-0.8,0.7c-0.4,0.3-0.9,0.5-1.5,0.6c-0.4,0-0.8,0-1.2,0
				c-2.2,0-4.4,0-6.6,0c-0.5,0-0.9,0.1-1.2,0.5c-0.9,0.9-1.8,1.8-2.7,2.7c-0.1,0.1-0.1,0.1-0.2,0.2
				C35.9,244.4,35.9,244.5,36.1,244.7C36,244.7,36.1,244.7,36.1,244.7z"/>
			<path fill="#EADAC1" d="M35.1,261.5c0.1,1.1,0.4,2.1,0.9,3c0.6,1.2,1.4,2.2,2.3,3.2c1.1,1.3,2.4,2.5,3.8,3.6
				c3,2.4,6.2,4.4,9.5,6.2c0.3,0.2,0.7,0.4,1,0.5c0.2,0.1,0.3,0.1,0.5,0c0.3-0.2,0.7-0.4,1-0.5c3.5-1.9,6.9-4.1,10-6.6
				c1.5-1.3,2.9-2.6,4.1-4.2c0.8-1,1.4-2.1,1.8-3.3c0.3-0.9,0.4-1.7,0.4-2.6c0,0.7-0.2,1.4-0.4,2.1c-0.4,1.2-1.1,2.3-1.8,3.3
				c-1.2,1.6-2.6,2.9-4.1,4.2c-3.1,2.6-6.5,4.7-10,6.6c-0.3,0.2-0.7,0.4-1,0.5c-0.2,0.1-0.3,0.1-0.5,0c-0.3-0.2-0.7-0.4-1-0.5
				c-3.3-1.8-6.5-3.8-9.5-6.2c-1.4-1.1-2.6-2.3-3.8-3.6c-0.9-1-1.7-2-2.3-3.2c-0.5-1-0.8-2-0.9-3c0-0.1,0-0.2,0-0.3
				C35.1,260.9,35.1,261.2,35.1,261.5z"/>
		</g>
		<g>
			<path fill="#EADAC1" d="M198.2,275.4c0.1-0.2,0.2-0.3,0.4-0.4c0.1-0.1,0.3-0.1,0.4-0.1c1-0.3,1.8-1,2.1-2c0.3-0.8,0.6-1.6,1-2.4
				c2.5-6.3,4.8-12.6,7.4-19c0.6-1.5,1.2-2.9,1.8-4.4c0.1-0.3,0.2-0.5,0.4-0.7c0.3-0.5,0.7-0.7,1.3-0.7c1,0,2.1,0,3.1,0
				c0.7,0,1.1,0.3,1.5,0.9c0.1,0.2,0.2,0.3,0.2,0.5c3.3,8.3,6.3,16.5,9.5,24.8c0.2,0.6,0.5,1.2,0.8,1.8c0.3,0.6,0.7,1,1.3,1.1
				c0.2,0,0.3,0.1,0.5,0.1c0.3,0.1,0.5,0.3,0.5,0.6c0.1-0.1,0.1-0.3,0-0.4c-0.1-0.3-0.2-0.6-0.6-0.7c-0.2,0-0.3-0.1-0.5-0.1
				c-0.6-0.2-1.1-0.6-1.3-1.1c-0.3-0.6-0.5-1.2-0.8-1.8c-3.3-8.3-6.3-16.5-9.5-24.8c-0.1-0.2-0.1-0.3-0.2-0.5
				c-0.3-0.6-0.8-0.9-1.5-0.9c-1,0-2.1,0-3.1,0c-0.5,0-1,0.3-1.3,0.7c-0.1,0.2-0.3,0.5-0.4,0.7c-0.6,1.5-1.2,2.9-1.8,4.4
				c-2.5,6.3-4.8,12.6-7.4,19c-0.3,0.8-0.7,1.6-1,2.4c-0.4,1-1.1,1.7-2.1,2c-0.1,0-0.3,0.1-0.4,0.1c-0.4,0.1-0.5,0.4-0.4,0.8
				C198.2,275.3,198.2,275.3,198.2,275.4z"/>
			<path fill="#EADAC1" d="M218.3,275c0.2-0.1,0.5-0.2,0.7-0.2c0.9-0.3,1.2-0.7,1.1-1.4c-0.1,0.4-0.4,0.7-1.1,0.9
				c-0.2,0.1-0.5,0.1-0.7,0.2c-0.3,0.1-0.5,0.4-0.4,0.7c0,0.1,0,0.2,0,0.3C217.9,275.2,218,275,218.3,275z"/>
			<path fill="#EADAC1" d="M210,265.6c1.7,0,3.3,0,5,0c0.5,0,1.1,0,1.6,0c0.3,0,0.4-0.1,0.3-0.4c0-0.1,0-0.1-0.1-0.2
				c-0.1,0-0.1,0-0.2,0c-0.5,0-1.1,0-1.6,0c-1.7,0-3.3,0-5,0c-0.2,0-0.3,0-0.5,0c-0.1,0.2-0.1,0.3-0.2,0.5
				C209.6,265.6,209.8,265.6,210,265.6z"/>
			<path fill="#EADAC1" d="M208.9,274.5c-0.1,0-0.4-0.2-0.6-0.2c-0.3-0.1-0.7-0.2-1-0.3c-0.5-0.2-0.7-0.4-0.7-0.8c0,0,0,0.1,0,0.1
				c0,0.7,0.1,1,0.7,1.2c0.3,0.1,0.7,0.2,1,0.3c0.2,0.1,0.5,0.2,0.6,0.2c0.1,0,0.1,0.1,0.2,0.3C209.2,274.9,209.1,274.6,208.9,274.5
				z"/>
		</g>
		<g>
			<path fill="#EADAC1" d="M195.9,246.2c0,0,0.1-0.3,0.7-0.3c2.8,0,5.6,0,8.4,0c0.2,0,0.4,0,0.5,0.1c0.3,0.1,0.5,0.2,0.5,0.5
				c0-0.1,0-0.2,0-0.3c0-0.4-0.2-0.6-0.6-0.7c-0.2,0-0.4-0.1-0.5-0.1c-2.8,0-5.6,0-8.4,0c-0.6,0-0.7,0.3-0.7,0.3
				c-0.2,0.4-0.3,0.7-0.2,0.9C195.7,246.4,195.8,246.3,195.9,246.2z"/>
			<path fill="#EADAC1" d="M175.9,246c0.2,0,0.4-0.1,0.5-0.1c3.6,0,7.1,0,10.7,0c0.2,0,0.5,0,0.7,0.1c0.2,0.1,0.3,0.2,0.4,0.4
				c0-0.1,0-0.2,0-0.3c0-0.3-0.1-0.5-0.4-0.6c-0.2-0.1-0.4-0.1-0.7-0.1c-3.6,0-7.1,0-10.7,0c-0.2,0-0.4,0-0.5,0.1
				c-0.4,0.1-0.5,0.3-0.6,0.7c0,0.1,0,0.2,0,0.3C175.4,246.2,175.6,246,175.9,246z"/>
		</g>
		<g>
			<path fill="#EADAC1" d="M249.8,259.2c-1-0.7-2.1-1.2-3.2-1.7c-1.6-0.7-3.2-1.5-4.9-2.2c-0.7-0.3-1.3-0.7-1.9-1.2
				c-0.9-0.7-1.4-1.7-1.4-2.8c0,0,0,0,0,0.1c-0.1,1.3,0.4,2.4,1.4,3.2c0.6,0.5,1.2,0.9,1.9,1.2c1.6,0.7,3.2,1.5,4.9,2.2
				c1.1,0.5,2.2,1,3.2,1.7c0.6,0.4,1.1,0.8,1.6,1.3c1.3,1.3,2.1,2.9,2.4,4.8c0.1,0.5,0.1,1,0.1,1.5c0-0.7,0-1.4-0.1-2
				c-0.3-1.9-1-3.5-2.4-4.8C250.9,260,250.4,259.6,249.8,259.2z"/>
			<path fill="#EADAC1" d="M232.7,249.9c0.8-1.5,2.1-2.5,3.5-3.3c2-1.1,4.1-1.6,6.4-1.6c2.3,0,4.5,0.4,6.7,1.1
				c0.3,0.1,0.6,0.2,0.9,0.4c1,0.5,1.5,1.3,1.7,2.4c0,0.3,0.1,0.5,0.1,0.8c0.1,1.4,0.2,2.8,0.3,4.2c0,0,0,0,0-0.1c0-0.1,0-0.2,0-0.3
				c-0.1-1.5-0.2-2.9-0.3-4.4c0-0.3,0-0.5-0.1-0.8c-0.1-1.1-0.6-1.9-1.7-2.4c-0.3-0.1-0.6-0.3-0.9-0.4c-2.2-0.8-4.4-1.2-6.7-1.1
				c-2.3,0-4.4,0.5-6.4,1.6c-1.5,0.8-2.7,1.8-3.5,3.3c-0.8,1.5-1.2,3.1-1.1,4.7C231.6,252.6,231.9,251.2,232.7,249.9z"/>
			<path fill="#EADAC1" d="M231,266.9c0.1-0.3,0.2-0.4,0.6-0.6c0.6-0.3,1-0.2,1.3,0.5c0.1,0.1,0.2,0.1,0.2,0.2
				c0.3,0.4,0.5,0.9,0.8,1.3c0,0.1,0,0.1,0,0.2c0.2,0.4,0.5,0.7,0.7,1.1c0.6,1.1,1.4,2,2.3,2.8c1.5,1.2,3.2,1.9,5.1,2
				c0.9,0,1.8-0.1,2.6-0.5c1.5-0.7,2.3-1.9,2.3-3.6c0-0.2,0-0.4,0-0.5c-0.1,1.6-0.9,2.8-2.3,3.6c-0.8,0.4-1.7,0.5-2.6,0.5
				c-1.9-0.1-3.6-0.7-5.1-2c-0.9-0.8-1.7-1.8-2.3-2.8c-0.2-0.4-0.5-0.7-0.7-1.1c0-0.1,0-0.1,0-0.2c-0.3-0.5-0.5-0.9-0.8-1.3
				c0-0.1-0.1-0.1-0.2-0.2c-0.3-0.6-0.7-0.8-1.3-0.5C231,266,230.9,266.3,231,266.9C231,266.8,231,266.9,231,266.9z"/>
		</g>
	</g>
</g>
</svg>
