<?xml version="1.0" encoding="utf-8"?>
<!-- Generator: Adobe Illustrator 19.1.1, SVG Export Plug-In . SVG Version: 6.00 Build 0)  -->
<svg version="1.1" xmlns="http://www.w3.org/2000/svg" xmlns:xlink="http://www.w3.org/1999/xlink" x="0px" y="0px"
	 viewBox="0 0 283 396" enable-background="new 0 0 283 396" xml:space="preserve">
<g id="bombki">
	<g id="wyborowa01">
	</g>
	<g id="jacobs_x5F_creek">
	</g>
	<path fill="#D1651C" d="M179.9,120.4c-5.9-1.7-18.9-30-18.9-30h-35c0,0-16.1,28.2-22,29.9C45,136.8,2.1,190.8,2.2,254.9
		c0.1,77.2,62.4,139.5,139.6,139.5c77.1,0,139.4-62.5,139.4-139.7C281.2,190.9,238.8,137.2,179.9,120.4z"/>
	<path opacity="0.1" fill="#E17310" d="M179.9,120.4c-2.3-0.7-4.3-1.9-5.9-3.5c1.3,1.8,3.1,3.3,5.2,4.3
		c56.2,26.9,89.6,88.1,78.6,152.1C245.8,344,183.6,393.6,114,391.6c9,1.8,18.2,2.8,27.8,2.8c77.1,0,139.4-62.5,139.4-139.7
		C281.2,190.9,238.8,137.2,179.9,120.4z"/>
	<path opacity="0.5" fill="#BA5E1F" d="M141.2,353.9c-48.8,0-93.3-15.6-126.6-41.3c21.9,48.3,70.5,81.8,127.1,81.8
		c56.9,0,105.7-34,127.4-82.8C235.7,337.8,190.7,353.9,141.2,353.9z"/>
	<g opacity="0.1">
		<path fill="#FFFFFF" d="M37,296.3c-24.1-59.3-4.6-125.5,43.9-163c2.2-1.7,3.7-3.9,4.6-6.4c-49.3,21.7-83.4,70.8-83.4,128
			c0.1,77.2,62.4,139.5,139.6,139.5c25,0,48.4-6.6,68.7-18.1C141,399.5,65,365.1,37,296.3z"/>
	</g>
	<path opacity="0.6" fill="#9F3C1E" d="M179.9,120.4c-2.3-0.7-4.3-1.9-5.9-3.5c1.3,1.8,3.1,3.3,5.2,4.3
		c54.9,26.2,87.9,85.1,79.4,147.4c11-1.8,18.6-3.8,21.7-6c-2.3,42.7-23.6,80.3-55.8,104.4c34.4-25.4,56.7-66.3,56.7-112.4
		C281.2,190.9,238.8,137.2,179.9,120.4z"/>
	<ellipse opacity="0.1" fill="#250800" cx="142.6" cy="260.4" rx="140.4" ry="15"/>
	<ellipse opacity="0.1" fill="#E68016" cx="141.2" cy="165.7" rx="70.6" ry="34.1"/>
	<path opacity="0.6" fill="#9F3C1E" d="M29.1,269.4c-9.7-51.5,10.6-104.2,51.8-136c2.2-1.7,3.7-3.9,4.6-6.4
		c-49.3,21.7-83.4,70.8-83.4,128c0,2.5,0.1,5,0.2,7.4C5.6,265,15,267.4,29.1,269.4z"/>
	<path fill="#FF901F" d="M157.3,29.1h-32.1l-0.7-1.2c-1.5-2.4-2.3-5.7-2.3-9c0-10.5,8.6-19,19.1-19s19.1,8.5,19.1,19
		c0,3.3-0.9,6.6-2.3,8.9L157.3,29.1z M128.1,24.1h26.3c0.6-1.5,1-3.3,1-5.1c0-7.7-6.3-14-14.1-14s-14.1,6.3-14.1,14
		C127.1,20.8,127.4,22.7,128.1,24.1z"/>
	<path fill="#D97907" d="M141.2,5.4c7.5,0,13.6,6.1,13.6,13.6c0,1.7-0.3,3.3-0.9,4.8h-16.2h-9.2c-0.6-1.5-0.9-3.1-0.9-4.8
		C127.6,11.5,133.7,5.4,141.2,5.4 M141.2,2.4c-9.2,0-16.6,7.4-16.6,16.6c0,2.8,0.7,5.5,2,7.8h11.2h18.2c1.2-2.3,2-5,2-7.8
		C157.8,9.8,150.4,2.4,141.2,2.4L141.2,2.4z"/>
	<path opacity="0.1" fill="#FFFFFF" d="M51.1,323.8c-5.2-14.6-6-49.9-4.7-66.2C52.1,183.2,69.6,148.9,84,130
		C39.5,165.7,2.5,239.9,27.1,315.3C43.2,321.3,44.6,322,51.1,323.8z"/>
	<ellipse opacity="0.1" fill="#E6E9EB" cx="142.7" cy="165.7" rx="56.3" ry="27.2"/>
	<path fill="#E0201A" d="M141.6,396.4c-37.9,0-73.4-14.7-100.1-41.4C14.8,328.3,0,292.8,0,254.9c0-31.6,10-61.4,29.1-86.3
		c18.5-24.2,44.8-42,74.1-50.2c5.1-1.4,18-21.8,17.3-27.2c-0.2-1.3,0.2-3.1,2.6-4.8c7.2-5,29.6-5.8,38.1-1.4
		c3.5,1.8,2.3,4.2,2.3,5.9c0,8.5,12.1,26.3,16.7,27.6l0,0c29.2,8.3,55.4,26.1,73.8,50.2c19,24.8,29,54.5,29,86
		c0,37.9-14.7,73.4-41.3,100.2C215,381.6,179.4,396.4,141.6,396.4z M144.7,86.1c-7.9,0-16.2,1.4-19.3,3.6c-0.6,0.4-0.9,0.8-0.9,1
		c1,7.5-13.2,29.6-20.2,31.6C45.1,138.8,3.9,193.4,4,254.9c0.1,75.8,61.8,137.5,137.6,137.5c75.7,0,137.4-61.8,137.4-137.7
		c0-61.2-41.1-115.6-99.9-132.3l0,0c-7.1-2-17.6-22.4-17.6-31.5c0-0.8-0.7-1.6-2.1-2.4C156.1,86.8,150.5,86.1,144.7,86.1z"/>
	<g>
		<g>
			<path fill-rule="evenodd" clip-rule="evenodd" fill="#ECE2C7" d="M249.4,284.5l-0.8-0.1l-0.7-0.3l-0.7-0.4l-0.5-0.5l-0.4-0.7
				l-0.3-0.7l-0.1-0.8l0.1-0.8l0.3-0.7l0.4-0.7l0.5-0.5l0.7-0.4l0.7-0.3l0.8-0.1l0.8,0.1l0.7,0.3l0.7,0.4l0.5,0.5l0.4,0.7l0.3,0.7
				l0.1,0.8l-0.1,0.8l-0.3,0.7l-0.4,0.7l-0.6,0.5l-0.7,0.4l-0.7,0.3L249.4,284.5L249.4,284.5z M248.6,284.1l-0.7-0.2l-0.6-0.4
				l-0.5-0.5l-0.4-0.6l-0.2-0.7l-0.1-0.7l0.1-0.7l0.2-0.7l0.4-0.6l0.5-0.5l0.6-0.4l0.7-0.2l0.7-0.1l0.7,0.1l0.7,0.2l0.6,0.4l0.5,0.5
				l0.4,0.6l0.2,0.7l0.1,0.7l-0.1,0.7l-0.3,0.7l-0.4,0.6l-0.5,0.5l-0.6,0.4l-0.6,0.2l-0.7,0.1L248.6,284.1z"/>
			<path fill-rule="evenodd" clip-rule="evenodd" fill="#ECE2C7" d="M248,282.8h0.5v-1.6h1l1,1.6h0.6l-1-1.6c0.6-0.1,0.9-0.6,0.9-1
				c0-0.8-0.6-1.1-1.2-1.1H248V282.8z M248.5,279.5h1.1c0.5,0,0.8,0.1,0.8,0.6c0,0.5-0.3,0.6-0.8,0.6h-1.1V279.5z"/>
			<path fill-rule="evenodd" clip-rule="evenodd" fill="#ECE2C7" d="M84,249c-1.3,0-1.7-0.6-1.6-1.1c0.1-0.4,0.7-0.8,1.7-0.8
				c1.1,0,2.1,0.2,2.8,1.1C86.1,248.7,84.9,249,84,249z M102.7,219.3c-2.3,0.7-4.4,2.1-5.6,2.8c-3.7-3.1-8.8-3.9-12.5-3.9
				c-11,0-36.5,6.7-44,27.1c-2.9,7.9,0.4,15,8.2,15c3.4,0,8.9-1.8,14.3-8.3c0.7-0.9,0.1-1.5-0.7-0.7c-5.9,6.8-12.5,8.9-16.4,7.2
				c-9.3-4.2-0.4-19.7,8.3-27c8.2-6.9,21.1-12.6,30.9-12.3c4.6,0.2,8.6,1.7,10.5,3.7c-6.5,4.3-16.2,12.4-26.9,29.6
				c-14.4,23.3-19.5,27.2-26.5,27.4c-5.9,0.2-7.8-2.7-7.8-5.4c0-2.6,1.3-4.6,3.5-5.6c0.4-0.2,0.5-0.4,0.4-0.6
				c-0.1-0.3-0.5-0.2-0.8-0.1c-2.5,1-4.3,3.2-4.5,5.7c-0.5,5.3,4.3,7.4,7.6,7.6c3.6,0.2,17.6,2.3,33.7-27.2
				c7.9-14.6,15.7-25.1,22.1-30.5c0.9,1.3,1.2,2.9,1,5.2c-0.4,6.9-4.6,15.5-9.6,18.4c-1.1-1-2.4-1.5-3.4-1.5c-2-0.1-3.4,0.7-3.6,1.8
				c-0.1,0.9,0.4,2.2,3.2,2.2c1.4,0,3.2-0.8,3.2-0.8c0.3,1.2,0.3,2.3,0.1,5.4c-0.8,9.6-10.7,25.3-17,25.3c-3.2,0-3.6-2.7-3.5-4.5
				c0.2-2.7,2.6-10.1,12.4-12.3c0.4-0.1,1-1.1-1.3-0.6c-3.3,0.7-6.9,2.7-9.8,6.4c-3.4,4.2-4.8,12,2.5,12.5
				c8.3,0.6,19.8-9.2,20.9-22.5c0.6-6.2-1.6-9.4-2.6-10.5c1.6-0.7,11.4-4.3,12.4-14.8c0.5-4.9-1.3-8.5-3.6-11
				c1.7-1.3,3.8-2.3,5.3-2.9C104.2,219.7,103.6,219,102.7,219.3z"/>
			<path fill-rule="evenodd" clip-rule="evenodd" fill="#ECE2C7" d="M205.1,247.4c1.5,0,3-1.2,3.3-2.8c0.3-1.5-0.7-2.7-2.2-2.7
				c-1.5,0-3,1.2-3.3,2.7C202.5,246.2,203.5,247.4,205.1,247.4z"/>
			<path fill-rule="evenodd" clip-rule="evenodd" fill="#ECE2C7" d="M243.8,249.8c0.3,0,0.2,0,0.4,0c-0.3,1.3-1.3,2.4-2.2,3
				c-0.3,0.2-0.2,0.6,0.5,0.4c1.2-0.3,4.2-2.3,4.4-5.7c0.1-1.4-1-2.6-2.2-2.6c-1.4,0-2.6,1-2.9,2.3
				C241.5,248.7,242.4,249.9,243.8,249.8z"/>
			<path fill-rule="evenodd" clip-rule="evenodd" fill="#ECE2C7" d="M235.4,278.6c-1.7-0.4-2-2.3-2-3.1c0.7-0.3,1.5-0.6,2.5-1.5
				c1.5-1.3,2.4-2.9,2-4.3c1.6-1.6,7.7-10.3,8.9-12.1C246.7,264.3,240.6,279.7,235.4,278.6z M139.3,276.8c-1.4,1.5-2.7,2.1-3.4,1.8
				c-0.9-0.5-2-2.2,4.3-11.8c7.3-11.1,9.2-11.1,10-10.6c0.8,0.5,0.3,2.6-0.9,4.9c-1.3,2.6-2.1,4.2-4.3,7.6
				C144,270.4,140.9,275,139.3,276.8z M97.2,276.8c-1.3,1.5-2.8,2.2-3.5,1.8c-0.7-0.4-1.9-2.2,4.4-11.8c7.3-11.1,9.2-11.1,10-10.6
				c0.8,0.5,0.2,2.8-1,5.2c-1.3,2.6-2,3.9-4.2,7.3C101.3,271.2,99.8,273.8,97.2,276.8z M235.9,256.1c1.5,0-0.1,3.4-1.4,5.4
				c-1,1.5-2.7,4.8-6.1,5.3c-1,0.1-1.3,0.2-1.3,0.2C228.2,265.2,233.4,256.1,235.9,256.1z M133.6,270.1c-1.6,2.3-3.4,5-5.2,6.7
				c-1.6,1.5-3.1,2.1-3.9,1.6c-0.5-0.3-0.9-1.6,0.6-4l27.7-44.8h-5l-24.1,39c-1.8,2.7-4.4,6.4-6.2,8.1c-1.6,1.5-3.2,2.2-3.9,1.6
				c-0.5-0.3-0.8-1.7,0.6-4l27.7-44.8h-4.9l-23.8,38.5c-1.4,2.3-4.6,7.1-6.2,8.6c-1.5,1.4-2.7,2.2-3.6,1.7c-0.6-0.3-0.6-1.6,0.8-4.1
				l11.7-19.4h-4.5l-2.2,3.7c1.2-2.6-0.2-3.9-1.9-3.8c-2.3,0.1-8.7,3-14,11.4c-4.7,7.5-3.3,13.7,0.4,13.7c3.3,0,6.3-4.7,8.2-7.8
				c-1.3,3-1.5,5.5-0.5,6.9c1.1,1.4,3.1,1,4.4,0.2c2.1-1.2,4.7-4.4,6.1-7.1c-1.4,3.2-1.3,5.9-0.3,7c1.3,1.5,3.4,0.8,4.9-0.1
				c2-1.2,3.5-2.7,6.2-6.9c-1.4,3.2-1.3,5.8-0.3,7c1.3,1.4,3.4,0.8,4.9-0.1c1.8-1.1,3.4-2.6,5.3-5.5c-0.6,3.9,0.9,6.5,3.2,6.5
				c3.4,0,6.5-5,8.3-7.8c-1.1,3-1.6,5.4-0.5,6.8c1,1.3,2.8,1.1,4,0.2c2.2-1.4,6.8-7.2,9.1-10.2c0.2-0.3,0.6-0.8-0.3,0.6l-6.4,9.8
				h4.6c0,0,6.3-9.8,7.6-11.6c4.9-6.6,10.4-12.2,11.6-11.2c0.5,0.5-0.1,1.5-0.9,2.8c-3.2,5.3-5.9,7.7-7.7,11.8
				c-1.5,3.4-1.3,6.5-0.3,7.8c1.1,1.5,3.2,0.9,4.7,0c2.1-1.2,3.7-3,6.3-7c-1.3,3-1.6,5.7-0.5,7c1.1,1.3,3.3,0.8,4.8,0
				c2.2-1.3,4.8-3.6,7-7c-1.2,2.7-1.5,5.5-0.4,6.9c1.3,1.6,3.1,1,4.5,0.2c3-1.8,5.8-5.5,9.4-10.2c0.3-0.3,0.6-0.7-0.3,0.6l-6.3,9.8
				h4.6c0,0,6.2-9.7,7.5-11.4c3.8-5.3,10.2-12.3,11.5-11.3c0.7,0.5,0,1.8-0.7,2.9c-3.1,5.3-5.9,7.7-7.7,11.8
				c-1.7,3.9-1.3,6.4-0.2,7.8c1.1,1.5,3.3,0.9,4.7,0.2c1.9-1.1,3.9-2.9,6.3-6.9c-0.1,1.2-0.2,2.1-0.1,3.4c0.3,2.3,1.5,4.3,4.2,4.3
				c3.1,0,6.5-2.8,7.6-3.9c0.3,2.3,1.7,3.9,4.4,3.9c7,0,11.5-6.5,12-12.9c0.3-3.5-0.5-9.8,0-11.3c0.4-1.2,2.7-2.7,3.9-4.5
				c1.1-1.8,0.9-3.1,0.3-3.4c-0.9-0.4-2.2,0.8-3.1,2.2c-1.5,2.4-2.7,4.8-2.8,5.2c-0.4,1.2-8.6,12.5-9.9,13.7c-0.7-0.2-2-0.1-3.2,1.3
				c-1.7,2-1.7,3.6-1.7,4.2c-1.5,1.6-5.4,4.6-7.5,4.1c-4.1-0.9,1.5-9.3,1.8-9.9c0.3-0.4,1.1-0.5,1.5-0.6c5.6-0.9,8.9-3.9,10.2-6.3
				c1.5-2.7,1.3-5.7-0.4-6.5c-1.3-0.6-3.7-0.1-5.6,1c-3,1.8-6.3,4.9-8.8,8.7c-1.7,2.6-1.8,3.7-3.3,5.7c-1.1,1.5-2.7,4.2-4.6,6
				c-1.5,1.4-3.4,2.3-4.1,1.7c-0.5-0.4-0.4-2,0.8-4c2.4-4,6.1-8.1,8-12.3c1.7-3.9,1.6-6.4-0.1-7.2c-3.3-1.5-8.7,4.9-12.2,9.3
				c0,0,5.8-9.4,5.8-9.4h-4.4l-3.4,5.6c-1.6,2.7-10.1,13.6-12.2,15.6c-1.3,1.3-3.4,2.9-4.4,2.3c-0.5-0.3-0.7-1.7,0.7-3.9l12.2-19.5
				h-5l-9,14.5c-1.6,2.3-3.7,5-6,7c-1.9,1.7-3.9,2.6-4.6,1.8c-0.5-0.6,0-2.1,1-3.8l14.1-22.7h8.7c6.3,0,8.6-1.7,9.7-3
				c0.3-0.4,0.2-0.9-0.5-0.4c-1.2,1-4.1,2.1-8.6,2.1h-8.5l7.8-12.4h-4.8l-7.8,12.4h-4.5c-2.1,0-4.1,0.3-5.4,1.1
				c-1,0.6-0.4,0.8,0.4,0.5c0.8-0.3,2.4-0.3,3.6-0.3h5.1l-12,18.8c-1.9,2.7-3.5,4.8-5,6.2c-1.3,1.3-2.8,2.1-3.6,1.7
				c-0.6-0.3-0.6-1.7,0.8-4c2.4-4,6.1-8,8-12.3c1.6-3.7,1.7-6.4-0.1-7.2c-3.2-1.5-8.4,4.5-12.2,9.4c0,0,5.9-9.4,5.9-9.4h-4.4
				l-3.4,5.5c-1.6,2.8-10.1,13.8-13,16.5c-1.2,1.1-2.4,1.9-3.1,1.4c-0.6-0.4-0.1-2.2,0.9-4l11.9-19.5h-4.4l-2.3,3.7
				c1.2-2.6,0.1-3.9-1.9-3.8c-2.3,0.1-8.8,3.1-14,11.4C135.2,266.8,134.4,268.1,133.6,270.1z"/>
		</g>
		<g>
			<path fill="#DA1A35" d="M90.4,305.4h-4.8c0.6-0.3,0.9-1,0.9-1.9v-6h-7v6c0,0.9,0.3,1.6,0.9,1.9h-4.8c0.6-0.3,0.9-1,0.9-1.9v-12.9
				c0-0.9-0.3-1.6-0.9-1.9h4.8c-0.6,0.4-0.9,1-0.9,1.9v4.6h7v-4.6c0-0.9-0.3-1.6-0.9-1.9h4.8c-0.6,0.4-0.9,1-0.9,1.9v12.9
				C89.6,304.4,89.9,305,90.4,305.4z M109.6,305.4h-5c0.3-0.3,0.5-0.6,0.5-0.9c0-0.2-0.1-0.5-0.3-1l-1.8-4.3h-5.6l-2,4.6
				c-0.1,0.3-0.2,0.5-0.2,0.8c0,0.3,0.2,0.6,0.5,0.8h-4.4c0.1-0.1,0.3-0.2,0.4-0.3c0.3-0.2,0.5-0.5,0.6-0.9l6-13.6
				c0.2-0.5,0.3-0.9,0.3-1.2c0-0.3-0.1-0.5-0.4-0.8h3.4l6.5,14.8c0.2,0.4,0.4,0.8,0.5,1C108.8,304.7,109.2,305.1,109.6,305.4z
				 M102,296.8l-1.8-4.2l-1.8,4.2H102z M126.7,305.4H122l-4.5-6.1c-0.5-0.7-1-1.2-1.5-1.5c-0.4-0.3-1-0.4-1.7-0.5v6.1
				c0,0.9,0.3,1.6,0.9,1.9h-4.8c0.6-0.3,0.9-1,0.9-1.9v-12.9c0-0.9-0.3-1.6-0.9-1.9h4.3c0.1,0,0.3,0,0.6,0c0.4,0,0.7,0,1,0
				c1.4,0,2.4,0.1,3.1,0.3c0.9,0.3,1.6,0.8,2.2,1.5c0.5,0.7,0.8,1.5,0.8,2.5c0,0.9-0.2,1.7-0.7,2.4c-0.5,0.7-1.3,1.3-2.5,1.5
				c0.1,0.1,0.4,0.4,0.8,0.9l0.4,0.4l3.8,5c0,0,0.1,0.2,0.3,0.4l0,0c0.3,0.5,0.6,0.8,0.9,1C125.6,304.8,126,305,126.7,305.4z
				 M119.1,292.9c0-1.3-1.1-2-3.3-2h-0.6h-0.8v4.2c0.4,0,0.7,0,1.1,0c0.8,0,1.4,0,1.8-0.1c0.6-0.1,1-0.3,1.3-0.7
				C118.9,293.9,119.1,293.4,119.1,292.9z M143.5,296.9c0,2.1-0.6,3.8-1.7,5.3c-0.5,0.6-1.1,1.2-1.8,1.6c-1.5,1-3.5,1.5-5.8,1.5
				h-6.7c0.6-0.3,0.9-1,0.9-1.9v-12.9c0-0.9-0.3-1.6-0.9-1.9h6.7c2,0,3.7,0.3,5,1c1.3,0.7,2.4,1.7,3.2,3
				C143.1,293.9,143.5,295.4,143.5,296.9z M140.2,297c0-1.9-0.5-3.4-1.5-4.4c-1-1.1-2.3-1.6-4.1-1.6h-3.3V303h3.3
				c1.7,0,3.1-0.5,4.1-1.6C139.7,300.3,140.2,298.9,140.2,297z M162,291.7L162,291.7c-0.7-0.5-1.5-0.8-2.5-0.8H155v4h4.9
				c0.7,0,1.1,0,1.3-0.1l0.1,3.1c-0.3-0.3-0.7-0.5-0.9-0.5c-0.2,0-0.7-0.1-1.3-0.1H155v6.2c0,0.9,0.3,1.6,0.9,1.9h-4.8
				c0.6-0.3,0.9-1,0.9-1.9v-12.9c0-0.9-0.3-1.6-0.9-1.9h10.6L162,291.7z M168.1,305.4h-4.8c0.6-0.3,0.9-1,0.9-1.9v-12.9
				c0-0.9-0.3-1.6-0.9-1.9h4.8c-0.6,0.4-0.9,1-0.9,1.9v12.9C167.2,304.4,167.5,305,168.1,305.4z M186.4,305.4h-4.8l-4.5-6.1
				c-0.5-0.7-1-1.2-1.5-1.5c-0.4-0.3-1-0.4-1.7-0.5v6.1c0,0.9,0.3,1.6,0.9,1.9h-4.8c0.6-0.3,0.9-1,0.9-1.9v-12.9
				c0-0.9-0.3-1.6-0.9-1.9h4.3c0.1,0,0.3,0,0.6,0c0.4,0,0.7,0,1,0c1.4,0,2.4,0.1,3.1,0.3c0.9,0.3,1.6,0.8,2.2,1.5
				c0.5,0.7,0.8,1.5,0.8,2.5c0,0.9-0.2,1.7-0.7,2.4c-0.5,0.7-1.3,1.3-2.5,1.5c0.1,0.1,0.4,0.4,0.8,0.9l0.4,0.4l3.8,5
				c0,0,0.1,0.2,0.3,0.4l0,0c0.3,0.5,0.6,0.8,0.9,1C185.2,304.8,185.7,305,186.4,305.4z M178.7,292.9c0-1.3-1.1-2-3.3-2h-0.6H174
				v4.2c0.4,0,0.7,0,1.1,0c0.8,0,1.4,0,1.8-0.1c0.6-0.1,1-0.3,1.3-0.7C178.6,293.9,178.7,293.4,178.7,292.9z M199.5,302l-0.8,3.4
				h-11.7c0.6-0.3,0.9-1,0.9-1.9v-12.9c0-0.9-0.3-1.6-0.9-1.9h11.1l0.3,3.1l-0.1-0.1c-0.6-0.5-1.4-0.7-2.4-0.7h-5v4h5
				c0.6,0,1.1,0,1.3-0.1l0.1,3.1c-0.3-0.3-0.6-0.5-0.9-0.5c-0.2,0-0.7-0.1-1.3-0.1H191v5.7h4.7c1,0,1.7-0.1,2.2-0.2
				c0.4-0.1,0.9-0.4,1.5-0.7L199.5,302z M216.8,296.9c0,2.1-0.6,3.8-1.7,5.3c-0.5,0.6-1.1,1.2-1.8,1.6c-1.5,1-3.5,1.5-5.8,1.5h-6.7
				c0.6-0.3,0.9-1,0.9-1.9v-12.9c0-0.9-0.3-1.6-0.9-1.9h6.7c2,0,3.7,0.3,5,1c1.3,0.7,2.4,1.7,3.2,3
				C216.4,293.9,216.8,295.4,216.8,296.9z M213.5,297c0-1.9-0.5-3.4-1.5-4.4c-1-1.1-2.3-1.6-4.1-1.6h-3.3V303h3.3
				c1.7,0,3.1-0.5,4.1-1.6C213,300.3,213.5,298.9,213.5,297z"/>
			<linearGradient id="SVGID_1_" gradientUnits="userSpaceOnUse" x1="76.2777" y1="297.718" x2="217.4966" y2="297.718">
				<stop  offset="0" style="stop-color:#996D44"/>
				<stop  offset="0.2086" style="stop-color:#F6D18D"/>
				<stop  offset="0.3258" style="stop-color:#BF915D"/>
				<stop  offset="0.5333" style="stop-color:#8E673D"/>
				<stop  offset="0.7179" style="stop-color:#BF915D"/>
				<stop  offset="0.8483" style="stop-color:#BF915D"/>
				<stop  offset="1" style="stop-color:#996D44"/>
			</linearGradient>
			<path fill="url(#SVGID_1_)" d="M116.1,291.2c0.6,0,1.1,0.1,1.6,0.2c0.4,0.1,0.7,0.3,0.9,0.6c-0.5-0.2-1.2-0.3-2.1-0.3h-0.6h-0.8
				v3.3c-0.1,0-0.2,0-0.4,0v-3.7h0.8H116.1z M115.9,298c-0.1-0.1-0.3-0.2-0.5-0.2c-0.2,0-0.4-0.1-0.7-0.1v6.1c0,0.4,0.1,0.7,0.2,1
				c0.1,0.1,0.2,0.3,0.4,0.4c-0.1-0.3-0.1-0.6-0.1-0.9v-6.1c0.5,0,0.9,0.1,1.3,0.3C116.2,298.2,116.1,298,115.9,298z M100.3,293.5
				l-1.4,3.2h0.6l1.1-2.5L100.3,293.5z M86.3,297.8h-6.5v6c0,0.4,0.1,0.7,0.2,1c0.1,0.1,0.2,0.3,0.4,0.4c-0.1-0.3-0.1-0.6-0.1-0.9
				v-6h6.1V297.8z M89.9,290.8v12.9c0,0.4,0.1,0.7,0.2,1c0.1,0.1,0.2,0.3,0.4,0.4c-0.1-0.3-0.1-0.6-0.1-0.9v-12.9
				c0-0.9,0.3-1.6,0.9-1.9h-0.8C90.1,289.7,89.9,290.2,89.9,290.8z M135.4,291.7c1.1,0,2.1,0.2,2.9,0.7c-0.5-0.4-1-0.7-1.6-0.9
				c-0.5-0.1-1-0.2-1.6-0.2h-3.3v11.6h0.4v-11.1H135.4z M79.8,290.8v4.1h0.4v-3.7c0-0.9,0.3-1.6,0.9-1.9h-0.8
				C80,289.7,79.8,290.2,79.8,290.8z M108.6,304c0.1,0.1,0.1,0.2,0.2,0.3c0.1,0.1,0.2,0.3,0.3,0.4c-0.1-0.2-0.2-0.3-0.3-0.6
				l-6.5-14.8h-0.2l6.3,14.4C108.5,303.8,108.6,303.9,108.6,304z M122.3,291.1c0.4,0.6,0.5,1.3,0.5,2.1c0,0.9-0.2,1.7-0.7,2.4
				c-0.5,0.7-1.3,1.2-2.4,1.5c0.1,0.1,0.2,0.3,0.4,0.4c1.1-0.3,1.9-0.8,2.4-1.5c0.5-0.7,0.7-1.5,0.7-2.4c0-1-0.3-1.8-0.8-2.5
				c-0.1-0.1-0.1-0.2-0.2-0.2C122.2,291,122.2,291.1,122.3,291.1z M196,298c0.6,0,1,0,1.3,0.1c0.1,0,0.2,0,0.2,0.1l-0.2-0.1
				c-0.2-0.2-0.4-0.3-0.6-0.4c-0.3,0-0.6-0.1-1.2-0.1h-4.3v5.2h0.4V298H196z M198.8,291.9C198.8,291.9,198.7,291.9,198.8,291.9
				l0,0.2l-0.4-0.3c-0.2-0.2-0.5-0.3-0.8-0.4c-0.3-0.1-0.7-0.1-1.1-0.1h-5v3.5h0.4v-3.1h5c1,0,1.8,0.2,2.4,0.7l0.1,0.1l-0.3-3.1
				h-0.3L198.8,291.9L198.8,291.9z M197.7,298.3c0.2,0.1,0.3,0.2,0.5,0.4l-0.1-3.1c-0.1,0-0.2,0.1-0.3,0.1l0.1,2.6
				c-0.1,0-0.1-0.1-0.2-0.1L197.7,298.3z M175.6,298c-0.2-0.1-0.3-0.2-0.5-0.2c-0.2,0-0.4-0.1-0.7-0.1v6.1c0,0.4,0.1,0.7,0.2,1
				c0.1,0.1,0.2,0.3,0.4,0.4c-0.1-0.3-0.1-0.6-0.1-0.9v-6.1c0.5,0,0.9,0.1,1.3,0.3C175.9,298.2,175.7,298,175.6,298z M181.9,291.1
				c0.4,0.6,0.5,1.3,0.5,2.1c0,0.9-0.2,1.7-0.7,2.4c-0.5,0.7-1.3,1.2-2.4,1.5c0.1,0.1,0.2,0.3,0.4,0.4c1.1-0.3,1.9-0.8,2.4-1.5
				c0.5-0.7,0.7-1.5,0.7-2.4c0-1-0.3-1.8-0.8-2.5c-0.1-0.1-0.1-0.2-0.2-0.2C181.9,291,181.9,291.1,181.9,291.1z M162.3,291.9
				C162.2,291.9,162.2,291.9,162.3,291.9l0,0.2l-0.4-0.3c-0.2-0.2-0.5-0.3-0.8-0.4c-0.3-0.1-0.7-0.1-1.1-0.1h-4.5v3.5h0.4v-3.1h4.5
				c1,0,1.8,0.2,2.4,0.7l0.1,0.1l-0.3-3.1h-0.3L162.3,291.9L162.3,291.9z M175.2,291.2h-0.8v3.7c0.1,0,0.2,0,0.4,0v-3.3h0.8h0.6
				c0.9,0,1.6,0.1,2.1,0.3c-0.2-0.3-0.5-0.5-0.9-0.6c-0.4-0.1-1-0.2-1.6-0.2H175.2z M208.7,291.7c1.1,0,2.1,0.2,2.8,0.7
				c-0.5-0.4-1-0.7-1.6-0.9c-0.5-0.1-1-0.2-1.6-0.2H205v11.6h0.4v-11.1H208.7z M167.6,290.8v12.9c0,0.4,0.1,0.7,0.2,1
				c0.1,0.1,0.2,0.3,0.4,0.4c-0.1-0.3-0.1-0.6-0.1-0.9v-12.9c0-0.9,0.3-1.6,0.9-1.9H168C167.8,289.7,167.6,290.2,167.6,290.8z
				 M168.4,305.7h-3.9c-0.1,0.2-0.3,0.3-0.5,0.4h4.8C168.7,306,168.5,305.9,168.4,305.7z M175.2,305.7h-3.9
				c-0.1,0.2-0.3,0.3-0.5,0.4h4.8C175.5,306,175.3,305.9,175.2,305.7z M80.6,305.7h-3.9c-0.1,0.2-0.3,0.3-0.5,0.4h4.8
				C80.9,306,80.8,305.9,80.6,305.7z M182,305.7l0.3,0.4h4.8c-0.4-0.2-0.6-0.3-0.8-0.4H182z M216.4,293.4c-0.2-0.3-0.4-0.5-0.6-0.8
				c0.1,0.1,0.1,0.2,0.2,0.4c0,0,0,0,0,0c0.8,1.3,1.1,2.7,1.1,4.3c0,2.1-0.6,3.8-1.7,5.3c-0.5,0.6-1.1,1.2-1.8,1.6
				c-1.5,1-3.5,1.5-5.8,1.5h-5.9c-0.1,0.2-0.3,0.3-0.5,0.4h6.7c2.3,0,4.3-0.5,5.8-1.5c0.7-0.5,1.3-1,1.8-1.6
				c1.2-1.5,1.7-3.2,1.7-5.3C217.5,296.1,217.1,294.6,216.4,293.4z M161.2,298.1c-0.2-0.2-0.4-0.3-0.6-0.4c-0.3,0-0.6-0.1-1.2-0.1
				h-4.1v6.2c0,0.4,0.1,0.7,0.2,1c0.1,0.1,0.2,0.3,0.4,0.4c-0.1-0.3-0.1-0.6-0.1-0.9V298h4.1C160.5,298,160.9,298.1,161.2,298.1
				c0,0.1,0.1,0.1,0.2,0.1L161.2,298.1z M200.1,302.8c-0.1,0.1-0.3,0.2-0.4,0.2l-0.6,2.6h-10.8c-0.1,0.2-0.3,0.3-0.5,0.4h11.7
				l0.8-3.4L200.1,302.8z M161.6,295.6l0.1,2.6c-0.1,0-0.1-0.1-0.2-0.1l0,0.2c0.2,0.1,0.3,0.2,0.5,0.4l-0.1-3.1
				C161.8,295.6,161.7,295.6,161.6,295.6z M102.9,299.5h-5.2l-2,4.6c-0.1,0.3-0.2,0.5-0.2,0.8c0,0.1,0,0.1,0,0.2
				c0.1,0.1,0.1,0.1,0.2,0.2l0.2,0.1c0,0,0-0.1,0-0.1c0-0.3,0.1-0.5,0.2-0.8l2-4.6h5L102.9,299.5z M96,305.6L96,305.6
				c0,0,0,0.1,0,0.1h-3.5c0,0-0.1,0.1-0.1,0.1c-0.1,0.1-0.3,0.3-0.4,0.3h4.4C96.2,305.9,96.1,305.8,96,305.6z M90.7,305.7h-3.9
				c-0.1,0.2-0.3,0.3-0.5,0.4h4.8C91,306,90.8,305.9,90.7,305.7z M105.7,305.7c-0.1,0.1-0.2,0.3-0.3,0.4h5c-0.2-0.1-0.3-0.3-0.5-0.4
				H105.7z M122.4,305.7l0.3,0.4h4.8c-0.3-0.2-0.6-0.3-0.8-0.4H122.4z M115.5,305.7h-3.9c-0.1,0.2-0.3,0.3-0.5,0.4h4.8
				C115.8,306,115.7,305.9,115.5,305.7z M142.5,292.6c0.1,0.1,0.1,0.3,0.2,0.4c0.7,1.3,1.1,2.7,1.1,4.2c0,2.1-0.6,3.8-1.7,5.3
				c-0.5,0.6-1.1,1.2-1.8,1.6c-1.5,1-3.5,1.5-5.8,1.5h-5.9c-0.1,0.2-0.3,0.3-0.5,0.4h6.7c2.3,0,4.3-0.5,5.8-1.5
				c0.7-0.5,1.3-1,1.8-1.6c1.2-1.5,1.7-3.2,1.7-5.3c0-1.6-0.4-3-1.1-4.3C142.9,293.1,142.7,292.8,142.5,292.6z M156.2,305.7h-3.9
				c-0.1,0.2-0.3,0.3-0.5,0.4h4.8C156.5,306,156.3,305.9,156.2,305.7z"/>
		</g>
	</g>
	<path fill="#3A2E26" d="M179.9,120.4c-5.9-1.7-18.9-30-18.9-30h-35c0,0-16.1,28.2-22,29.9C45,136.8,2.1,190.8,2.2,254.9
		c0.1,77.2,62.4,139.5,139.6,139.5c77.1,0,139.4-62.5,139.4-139.7C281.2,190.9,238.8,137.2,179.9,120.4z"/>
	<path opacity="0.1" d="M179.9,120.4c-2.3-0.7-4.3-1.9-5.9-3.5c1.3,1.8,3.1,3.3,5.2,4.3c56.2,26.9,89.6,88.1,78.6,152.1
		C245.8,344,183.6,393.6,114,391.6c9,1.8,18.2,2.8,27.8,2.8c77.1,0,139.4-62.5,139.4-139.7C281.2,190.9,238.8,137.2,179.9,120.4z"/>
	<path opacity="0.5" d="M141.2,353.9c-48.8,0-93.3-15.6-126.6-41.3c21.9,48.3,70.5,81.8,127.1,81.8c56.9,0,105.7-34,127.4-82.8
		C235.7,337.8,190.7,353.9,141.2,353.9z"/>
	<g opacity="0.1">
		<path d="M37,296.3c-24.1-59.3-4.6-125.5,43.9-163c2.2-1.7,3.7-3.9,4.6-6.4c-49.3,21.7-83.4,70.8-83.4,128
			c0.1,77.2,62.4,139.5,139.6,139.5c25,0,48.4-6.6,68.7-18.1C141,399.5,65,365.1,37,296.3z"/>
	</g>
	<ellipse opacity="0.1" fill="#FFFFFF" cx="142.5" cy="159.4" rx="52.5" ry="20"/>
	<path fill="#FF901F" d="M157.3,29.1h-32.1l-0.7-1.2c-1.5-2.4-2.3-5.7-2.3-9c0-10.5,8.6-19,19.1-19s19.1,8.5,19.1,19
		c0,3.3-0.9,6.6-2.3,8.9L157.3,29.1z M128.1,24.1h26.3c0.6-1.5,1-3.3,1-5.1c0-7.7-6.3-14-14.1-14s-14.1,6.3-14.1,14
		C127.1,20.8,127.4,22.7,128.1,24.1z"/>
	<path fill="#D97907" d="M141.2,5.4c7.5,0,13.6,6.1,13.6,13.6c0,1.7-0.3,3.3-0.9,4.8h-16.2h-9.2c-0.6-1.5-0.9-3.1-0.9-4.8
		C127.6,11.5,133.7,5.4,141.2,5.4 M141.2,2.4c-9.2,0-16.6,7.4-16.6,16.6c0,2.8,0.7,5.5,2,7.8h11.2h18.2c1.2-2.3,2-5,2-7.8
		C157.8,9.8,150.4,2.4,141.2,2.4L141.2,2.4z"/>
	<g>
		<path opacity="0.1" d="M175.4,282.4C84,285.8,5,250,2.6,267.7C23.4,309.1,105.7,297.5,175.4,282.4z"/>
		<path opacity="0.4" fill="#110604" d="M280.3,265.9c4.5-24.2-239.8,77.5-277.8,1.8c7,70.7,66.4,125.7,138.9,125.7
			C214.6,393.4,274.2,337.3,280.3,265.9z"/>
	</g>
	<path fill="#E0201A" d="M141.6,396.4c-37.9,0-73.4-14.7-100.1-41.4C14.8,328.3,0,292.8,0,254.9c0-31.6,10-61.4,29.1-86.3
		c18.5-24.2,44.8-42,74.1-50.2c5.1-1.4,17-21.8,16.3-27.2c-0.2-1.3,1.2-3.1,3.6-4.8c7.2-5,29.6-5.8,38.1-1.4
		c3.5,1.8,2.3,4.2,2.3,5.9c0,8.5,12.1,26.3,16.7,27.6l0,0c29.2,8.3,55.4,26.1,73.8,50.2c19,24.8,29,54.5,29,86
		c0,37.9-14.7,73.4-41.3,100.2C215,381.6,179.4,396.4,141.6,396.4z M144.7,86.1c-7.9,0-16.2,1.4-19.3,3.6c-0.6,0.4-1.9,0.8-1.9,1
		c1,7.5-12.2,29.6-19.2,31.6C45.1,138.8,3.9,193.4,4,254.9c0.1,75.8,61.8,137.5,137.6,137.5c75.7,0,137.4-61.8,137.4-137.7
		c0-61.2-41.1-115.6-99.9-132.3l0,0c-7.1-2-19.6-22.4-19.6-31.5c0-0.8,1.3-1.6-0.1-2.4C156.1,86.8,150.5,86.1,144.7,86.1z"/>
	<g>
		<path fill="#202526" d="M163.3,73.4c-0.7-5.4,1.7-10.2,1.7-16.2s-0.1-25.8-0.1-28c0-2.2-5.3-5.8-23.5-5.8c0,0,0,0,0,0
			c-0.1,0-0.2,0-0.3,0c-0.1,0-0.2,0-0.3,0c0,0,0,0,0,0c-18.2,0.1-23.5,3.6-23.5,5.8c0,2.2-0.1,22.1-0.1,28s2.5,10.9,1.7,16.2
			c-0.7,5.4-3.5,28.4-3.5,28.4h25.4h0.5h25.4C166.8,101.7,164.1,78.7,163.3,73.4z"/>
		<path fill="#E0201A" d="M141.5,23.2C141.5,23.2,141.5,23.2,141.5,23.2c-0.1,0-0.2,0-0.3,0c-0.1,0-0.2,0-0.3,0c0,0,0,0,0,0
			c-18.2,0.1-23.5,3.6-23.5,5.8c0,1.6,0,5.2,0,6.3c0-2.2,5.4-5.8,23.8-5.8c18.5,0,23.8,3.6,23.8,5.8c0-1.1,0-4.7,0-6.3
			C165,26.9,159.7,23.3,141.5,23.2z"/>
		<path opacity="0.1" d="M141.4,54.4c-9.2,0-17.9,3.4-23.6,6.5c0.5,3.4,1.4,6.5,1.6,9.7c3-0.8,12.4-3.2,22-3.2
			c8.1,0,16.4,1.2,22,2.7c0.2-3.6,1.5-7.2,1.8-11.2C153.5,55.3,152.3,54.4,141.4,54.4z"/>
		<path fill="#E0201A" d="M166.1,95.3c-0.1-0.7-0.1-1.5-0.3-2.2h-49.2c-0.1,0.8-0.1,1.5-0.3,2.2H166.1z"/>
		<path opacity="0.1" d="M163.3,73.4c-0.7-5.4,1.7-10.2,1.7-16.2s-0.1-25.8-0.1-28c0-1.2-1.5-2.8-5.8-4v32.4l-1.6,12.3l4,32h5.3
			C164.1,78.7,164.1,78.9,163.3,73.4z"/>
		<path opacity="0.1" fill="#FFFFFF" d="M159.2,57.5V25.1c-1.9-0.5-4.2-1-7.2-1.3c-0.1,10.7,0.1,30.6,0.1,30.6l-0.7,13.9l4.8,33.4
			h5.4l-4-32L159.2,57.5z"/>
		<path opacity="0.1" d="M119.1,73.4c0.7-5.4-1.7-10.2-1.7-16.2s0.1-25.8,0.1-28c0-1.2,1.5-2.8,5.8-4v32.4l1.6,12.3l-4,32h-5.3
			C115.6,101.7,118.3,78.7,119.1,73.4z"/>
		<path opacity="0.1" fill="#FFFFFF" d="M123.2,57.5V25.1c1.9-0.5,4.2-1,7.2-1.3c0.1,10.7-0.1,30.6-0.1,30.6l0.7,13.9l-4.8,33.4
			h-5.4l4-32L123.2,57.5z"/>
	</g>
</g>
<g id="BRAND">
	<g id="New_Symbol_13">
	</g>
	<g>
		<g>
			<path fill-rule="evenodd" clip-rule="evenodd" fill="#ECE2C7" d="M248.3,276.8l-0.8-0.1l-0.7-0.3l-0.7-0.4l-0.5-0.5l-0.4-0.7
				l-0.3-0.7l-0.1-0.8l0.1-0.8l0.3-0.7l0.4-0.7l0.5-0.5l0.7-0.4l0.7-0.3l0.8-0.1l0.8,0.1l0.7,0.3l0.7,0.4l0.5,0.5l0.4,0.7l0.3,0.7
				l0.1,0.8l-0.1,0.8l-0.3,0.7l-0.4,0.7l-0.6,0.5l-0.7,0.4l-0.7,0.3L248.3,276.8L248.3,276.8z M247.6,276.3l-0.7-0.2l-0.6-0.4
				l-0.5-0.5l-0.4-0.6l-0.2-0.7l-0.1-0.7l0.1-0.7l0.2-0.7l0.4-0.6l0.5-0.5l0.6-0.4l0.7-0.2l0.7-0.1l0.7,0.1l0.7,0.2l0.6,0.4l0.5,0.5
				l0.4,0.6l0.2,0.7l0.1,0.7l-0.1,0.7l-0.3,0.7l-0.4,0.6l-0.5,0.5l-0.6,0.4l-0.6,0.2l-0.7,0.1L247.6,276.3z"/>
			<path fill-rule="evenodd" clip-rule="evenodd" fill="#ECE2C7" d="M246.9,275h0.5v-1.6h1l1,1.6h0.6l-1-1.6c0.6-0.1,0.9-0.6,0.9-1
				c0-0.8-0.6-1.1-1.2-1.1h-1.7V275z M247.4,271.7h1.1c0.5,0,0.8,0.1,0.8,0.6c0,0.5-0.3,0.6-0.8,0.6h-1.1V271.7z"/>
			<path fill-rule="evenodd" clip-rule="evenodd" fill="#ECE2C7" d="M83,241.2c-1.3,0-1.7-0.6-1.6-1.1c0.1-0.4,0.7-0.8,1.7-0.8
				c1.1,0,2.1,0.2,2.8,1.1C85,240.9,83.8,241.2,83,241.2z M101.6,211.5c-2.3,0.7-4.4,2.1-5.6,2.8c-3.7-3.1-8.8-3.9-12.5-3.9
				c-11,0-36.5,6.7-44,27.1c-2.9,7.9,0.4,15,8.2,15c3.4,0,8.9-1.8,14.3-8.3c0.7-0.9,0.1-1.5-0.7-0.7c-5.9,6.8-12.5,8.9-16.4,7.2
				c-9.3-4.2-0.4-19.7,8.3-27c8.2-6.9,21.1-12.6,30.9-12.3c4.6,0.2,8.6,1.7,10.5,3.7c-6.5,4.3-16.2,12.4-26.9,29.6
				c-14.4,23.3-19.5,27.2-26.5,27.4c-5.9,0.2-7.8-2.7-7.8-5.4c0-2.6,1.3-4.6,3.5-5.6c0.4-0.2,0.5-0.4,0.4-0.6
				c-0.1-0.3-0.5-0.2-0.8-0.1c-2.5,1-4.3,3.2-4.5,5.7c-0.5,5.3,4.3,7.4,7.6,7.6c3.6,0.2,17.6,2.3,33.7-27.2
				c7.9-14.6,15.7-25.1,22.1-30.5c0.9,1.3,1.2,2.9,1,5.2c-0.4,6.9-4.6,15.5-9.6,18.4c-1.1-1-2.4-1.5-3.4-1.5c-2-0.1-3.4,0.7-3.6,1.8
				c-0.1,0.9,0.4,2.2,3.2,2.2c1.4,0,3.2-0.8,3.2-0.8c0.3,1.2,0.3,2.3,0.1,5.4c-0.8,9.6-10.7,25.3-17,25.3c-3.2,0-3.6-2.7-3.5-4.5
				c0.2-2.7,2.6-10.1,12.4-12.3c0.4-0.1,1-1.1-1.3-0.6c-3.3,0.7-6.9,2.7-9.8,6.4c-3.4,4.2-4.8,12,2.5,12.5c8.3,0.6,19.8-9.2,21-22.5
				c0.6-6.2-1.6-9.4-2.6-10.5c1.6-0.7,11.4-4.3,12.4-14.8c0.5-4.9-1.3-8.5-3.6-11c1.7-1.3,3.8-2.3,5.3-2.9
				C103.2,211.9,102.5,211.2,101.6,211.5z"/>
			<path fill-rule="evenodd" clip-rule="evenodd" fill="#ECE2C7" d="M204,239.6c1.5,0,3-1.2,3.3-2.8c0.3-1.5-0.7-2.7-2.2-2.7
				c-1.5,0-3,1.2-3.3,2.7C201.5,238.4,202.5,239.7,204,239.6z"/>
			<path fill-rule="evenodd" clip-rule="evenodd" fill="#ECE2C7" d="M242.7,242.1c0.3,0,0.2,0,0.4,0c-0.3,1.3-1.3,2.4-2.2,3
				c-0.3,0.2-0.2,0.6,0.5,0.4c1.2-0.3,4.2-2.3,4.4-5.7c0.1-1.4-1-2.6-2.2-2.6c-1.4,0-2.6,1-2.9,2.3
				C240.5,240.9,241.3,242.1,242.7,242.1z"/>
			<path fill-rule="evenodd" clip-rule="evenodd" fill="#ECE2C7" d="M234.3,270.8c-1.7-0.4-2-2.3-2-3.1c0.7-0.3,1.5-0.6,2.5-1.5
				c1.5-1.3,2.4-2.9,2-4.3c1.6-1.6,7.7-10.3,8.9-12.1C245.7,256.5,239.6,272,234.3,270.8z M138.3,269c-1.4,1.5-2.7,2.1-3.4,1.8
				c-0.9-0.5-2-2.2,4.3-11.8c7.3-11.1,9.2-11.1,10-10.6c0.8,0.5,0.3,2.6-0.9,4.9c-1.3,2.6-2.1,4.2-4.3,7.6
				C142.9,262.6,139.8,267.3,138.3,269z M96.1,269c-1.3,1.5-2.8,2.2-3.5,1.8c-0.7-0.4-1.9-2.2,4.4-11.8c7.3-11.1,9.2-11.1,10-10.6
				c0.8,0.5,0.2,2.8-1,5.2c-1.3,2.6-2,3.9-4.2,7.3C100.3,263.4,98.7,266,96.1,269z M234.9,248.3c1.5,0-0.1,3.4-1.4,5.4
				c-1,1.5-2.7,4.8-6.1,5.3c-1,0.1-1.3,0.2-1.3,0.2C227.1,257.4,232.3,248.3,234.9,248.3z M132.5,262.3c-1.6,2.3-3.4,5-5.2,6.7
				c-1.6,1.5-3.1,2.1-3.9,1.6c-0.5-0.3-0.9-1.6,0.6-4l27.7-44.8h-5l-24.1,39c-1.8,2.7-4.4,6.4-6.2,8.1c-1.6,1.5-3.2,2.2-3.9,1.6
				c-0.5-0.3-0.8-1.7,0.6-4l27.7-44.8h-4.9l-23.8,38.5c-1.4,2.3-4.6,7.1-6.2,8.6c-1.5,1.4-2.7,2.2-3.6,1.7c-0.6-0.3-0.6-1.6,0.8-4.1
				l11.7-19.4h-4.5l-2.2,3.7c1.2-2.6-0.2-3.9-1.9-3.8c-2.3,0.1-8.7,3-14,11.4c-4.7,7.5-3.3,13.7,0.4,13.7c3.3,0,6.3-4.7,8.2-7.8
				c-1.3,3-1.5,5.5-0.5,6.9c1.1,1.4,3.1,1,4.4,0.2c2.1-1.2,4.7-4.4,6.1-7.1c-1.4,3.2-1.3,5.9-0.3,7c1.3,1.5,3.4,0.8,4.9-0.1
				c2-1.2,3.5-2.7,6.2-6.9c-1.4,3.2-1.3,5.8-0.3,7c1.3,1.4,3.4,0.8,4.9-0.1c1.8-1.1,3.4-2.6,5.3-5.5c-0.6,3.9,0.9,6.5,3.2,6.5
				c3.4,0,6.5-5,8.3-7.8c-1.1,3-1.6,5.4-0.5,6.8c1,1.3,2.8,1.1,4,0.2c2.2-1.4,6.8-7.2,9.1-10.2c0.2-0.3,0.6-0.8-0.3,0.6l-6.4,9.8
				h4.6c0,0,6.3-9.8,7.6-11.6c4.9-6.6,10.4-12.2,11.6-11.2c0.5,0.5-0.1,1.5-0.9,2.8c-3.2,5.3-5.9,7.7-7.7,11.8
				c-1.5,3.4-1.3,6.5-0.3,7.8c1.1,1.5,3.2,0.9,4.7,0c2.1-1.2,3.7-3,6.3-7c-1.3,3-1.6,5.7-0.5,7c1.1,1.3,3.3,0.8,4.8,0
				c2.2-1.3,4.8-3.6,7-7c-1.2,2.7-1.5,5.5-0.4,6.9c1.3,1.6,3.1,1,4.5,0.2c3-1.8,5.8-5.5,9.4-10.2c0.3-0.3,0.6-0.7-0.3,0.6l-6.3,9.8
				h4.6c0,0,6.2-9.7,7.5-11.4c3.8-5.3,10.2-12.3,11.5-11.3c0.7,0.5,0,1.8-0.7,2.9c-3.1,5.3-5.9,7.7-7.7,11.8
				c-1.7,3.9-1.3,6.4-0.2,7.8c1.1,1.5,3.3,0.9,4.7,0.2c1.9-1.1,3.9-2.9,6.3-6.9c-0.1,1.2-0.2,2.1-0.1,3.4c0.3,2.3,1.5,4.3,4.2,4.3
				c3.1,0,6.5-2.8,7.6-3.9c0.3,2.3,1.7,3.9,4.5,3.9c7,0,11.5-6.5,12-12.9c0.3-3.5-0.5-9.8,0-11.3c0.4-1.2,2.7-2.7,3.9-4.5
				c1.1-1.8,0.9-3.1,0.3-3.4c-0.9-0.4-2.3,0.8-3.1,2.2c-1.5,2.4-2.7,4.8-2.8,5.2c-0.4,1.2-8.6,12.5-9.9,13.7c-0.7-0.2-2-0.1-3.2,1.3
				c-1.7,2-1.7,3.6-1.7,4.2c-1.5,1.6-5.4,4.6-7.5,4.1c-4.1-0.9,1.5-9.3,1.8-9.9c0.3-0.4,1.1-0.5,1.5-0.6c5.6-0.9,8.9-3.9,10.2-6.3
				c1.5-2.7,1.3-5.7-0.4-6.5c-1.3-0.6-3.7-0.1-5.6,1c-3,1.8-6.3,4.9-8.8,8.7c-1.7,2.6-1.8,3.7-3.3,5.7c-1.1,1.5-2.7,4.2-4.6,6
				c-1.5,1.4-3.4,2.3-4.1,1.7c-0.5-0.4-0.4-2,0.8-4c2.4-4,6.1-8.1,8-12.3c1.7-3.9,1.6-6.4-0.1-7.2c-3.3-1.5-8.7,4.9-12.2,9.3
				c0,0,5.8-9.4,5.8-9.4H208l-3.4,5.6c-1.6,2.7-10.1,13.6-12.2,15.6c-1.3,1.3-3.4,2.9-4.4,2.3c-0.5-0.3-0.7-1.7,0.7-3.9l12.2-19.5
				h-5l-9,14.5c-1.6,2.3-3.7,5-6,7c-1.9,1.7-3.9,2.6-4.6,1.8c-0.5-0.6,0-2.1,1-3.8l14.1-22.7h8.7c6.3,0,8.6-1.7,9.7-3
				c0.3-0.4,0.2-0.9-0.5-0.4c-1.2,1-4.1,2.1-8.6,2.1h-8.5l7.8-12.4h-4.8l-7.8,12.4H183c-2.1,0-4.1,0.3-5.4,1.1
				c-1,0.6-0.4,0.8,0.4,0.5c0.8-0.3,2.4-0.3,3.6-0.3h5.1l-12,18.8c-1.9,2.7-3.5,4.8-5,6.2c-1.3,1.3-2.8,2.1-3.6,1.7
				c-0.6-0.3-0.6-1.7,0.8-4c2.4-4,6.1-8,8-12.3c1.6-3.7,1.7-6.4-0.1-7.2c-3.2-1.5-8.4,4.5-12.2,9.4c0,0,5.9-9.4,5.9-9.4h-4.4
				l-3.4,5.5c-1.6,2.8-10.1,13.8-13,16.5c-1.2,1.1-2.4,1.9-3.1,1.4c-0.6-0.4-0.1-2.2,0.9-4l11.9-19.5h-4.4l-2.3,3.7
				c1.2-2.6,0.1-3.9-1.9-3.8c-2.3,0.1-8.8,3.1-14,11.4C134.2,259,133.3,260.4,132.5,262.3z"/>
		</g>
		<g>
			<path fill="#DA1A35" d="M89.4,297.6h-4.8c0.6-0.3,0.9-1,0.9-1.9v-6h-7v6c0,0.9,0.3,1.6,0.9,1.9h-4.8c0.6-0.3,0.9-1,0.9-1.9v-12.9
				c0-0.9-0.3-1.6-0.9-1.9h4.8c-0.6,0.4-0.9,1-0.9,1.9v4.6h7v-4.6c0-0.9-0.3-1.6-0.9-1.9h4.8c-0.6,0.4-0.9,1-0.9,1.9v12.9
				C88.5,296.6,88.8,297.3,89.4,297.6z M108.5,297.6h-5c0.3-0.3,0.5-0.6,0.5-0.9c0-0.2-0.1-0.5-0.3-1l-1.8-4.3h-5.6l-2,4.6
				c-0.1,0.3-0.2,0.5-0.2,0.8c0,0.3,0.2,0.6,0.5,0.8h-4.4c0.1-0.1,0.3-0.2,0.4-0.3c0.3-0.2,0.5-0.5,0.6-0.9l6-13.6
				c0.2-0.5,0.3-0.9,0.3-1.2c0-0.3-0.1-0.5-0.4-0.8h3.4l6.5,14.8c0.2,0.4,0.4,0.8,0.5,1C107.8,297,108.1,297.3,108.5,297.6z
				 M100.9,289.1l-1.8-4.2l-1.8,4.2H100.9z M125.7,297.6h-4.8l-4.5-6.1c-0.5-0.7-1-1.2-1.5-1.5c-0.4-0.3-1-0.4-1.7-0.5v6.1
				c0,0.9,0.3,1.6,0.9,1.9h-4.8c0.6-0.3,0.9-1,0.9-1.9v-12.9c0-0.9-0.3-1.6-0.9-1.9h4.3c0.1,0,0.3,0,0.6,0c0.4,0,0.7,0,1,0
				c1.4,0,2.4,0.1,3.1,0.3c0.9,0.3,1.6,0.8,2.2,1.5c0.5,0.7,0.8,1.5,0.8,2.5c0,0.9-0.2,1.7-0.7,2.4c-0.5,0.7-1.3,1.3-2.5,1.5
				c0.1,0.1,0.4,0.4,0.8,0.9l0.4,0.4l3.8,5c0,0,0.1,0.2,0.3,0.4l0,0c0.3,0.5,0.6,0.8,0.9,1C124.5,297,125,297.3,125.7,297.6z
				 M118,285.1c0-1.3-1.1-2-3.3-2h-0.6h-0.8v4.2c0.4,0,0.7,0,1.1,0c0.8,0,1.4,0,1.8-0.1c0.6-0.1,1-0.3,1.3-0.7
				C117.8,286.1,118,285.7,118,285.1z M142.4,289.2c0,2.1-0.6,3.8-1.7,5.3c-0.5,0.6-1.1,1.2-1.8,1.6c-1.5,1-3.5,1.5-5.8,1.5h-6.7
				c0.6-0.3,0.9-1,0.9-1.9v-12.9c0-0.9-0.3-1.6-0.9-1.9h6.7c2,0,3.7,0.3,5,1c1.3,0.7,2.4,1.7,3.2,3
				C142,286.2,142.4,287.6,142.4,289.2z M139.1,289.2c0-1.9-0.5-3.4-1.5-4.4c-1-1.1-2.3-1.6-4.1-1.6h-3.3v12.1h3.3
				c1.7,0,3.1-0.5,4.1-1.6C138.7,292.6,139.1,291.1,139.1,289.2z M160.9,283.9L160.9,283.9c-0.7-0.5-1.5-0.8-2.5-0.8H154v4h4.9
				c0.7,0,1.1,0,1.3-0.1l0.1,3.1c-0.3-0.3-0.7-0.5-0.9-0.5c-0.2,0-0.7-0.1-1.3-0.1H154v6.2c0,0.9,0.3,1.6,0.9,1.9H150
				c0.6-0.3,0.9-1,0.9-1.9v-12.9c0-0.9-0.3-1.6-0.9-1.9h10.6L160.9,283.9z M167.1,297.6h-4.8c0.6-0.3,0.9-1,0.9-1.9v-12.9
				c0-0.9-0.3-1.6-0.9-1.9h4.8c-0.6,0.4-0.9,1-0.9,1.9v12.9C166.2,296.6,166.5,297.3,167.1,297.6z M185.3,297.6h-4.8l-4.5-6.1
				c-0.5-0.7-1-1.2-1.5-1.5c-0.4-0.3-1-0.4-1.7-0.5v6.1c0,0.9,0.3,1.6,0.9,1.9H169c0.6-0.3,0.9-1,0.9-1.9v-12.9
				c0-0.9-0.3-1.6-0.9-1.9h4.3c0.1,0,0.3,0,0.6,0c0.4,0,0.7,0,1,0c1.4,0,2.4,0.1,3.1,0.3c0.9,0.3,1.6,0.8,2.2,1.5
				c0.5,0.7,0.8,1.5,0.8,2.5c0,0.9-0.2,1.7-0.7,2.4c-0.5,0.7-1.3,1.3-2.5,1.5c0.1,0.1,0.4,0.4,0.8,0.9l0.4,0.4l3.8,5
				c0,0,0.1,0.2,0.3,0.4l0,0c0.3,0.5,0.6,0.8,0.9,1C184.2,297,184.6,297.3,185.3,297.6z M177.7,285.1c0-1.3-1.1-2-3.3-2h-0.6H173
				v4.2c0.4,0,0.7,0,1.1,0c0.8,0,1.4,0,1.8-0.1c0.6-0.1,1-0.3,1.3-0.7C177.5,286.1,177.7,285.7,177.7,285.1z M198.5,294.2l-0.8,3.4
				H186c0.6-0.3,0.9-1,0.9-1.9v-12.9c0-0.9-0.3-1.6-0.9-1.9h11.1l0.3,3.1l-0.1-0.1c-0.6-0.5-1.4-0.7-2.4-0.7h-5v4h5
				c0.6,0,1.1,0,1.3-0.1l0.1,3.1c-0.3-0.3-0.6-0.5-0.9-0.5c-0.2,0-0.7-0.1-1.3-0.1H190v5.7h4.7c1,0,1.7-0.1,2.2-0.2
				c0.4-0.1,0.9-0.4,1.5-0.7L198.5,294.2z M215.7,289.2c0,2.1-0.6,3.8-1.7,5.3c-0.5,0.6-1.1,1.2-1.8,1.6c-1.5,1-3.5,1.5-5.8,1.5
				h-6.7c0.6-0.3,0.9-1,0.9-1.9v-12.9c0-0.9-0.3-1.6-0.9-1.9h6.7c2,0,3.7,0.3,5,1c1.3,0.7,2.4,1.7,3.2,3
				C215.3,286.2,215.7,287.6,215.7,289.2z M212.4,289.2c0-1.9-0.5-3.4-1.5-4.4c-1-1.1-2.3-1.6-4.1-1.6h-3.3v12.1h3.3
				c1.7,0,3.1-0.5,4.1-1.6C211.9,292.6,212.4,291.1,212.4,289.2z"/>
			<linearGradient id="SVGID_2_" gradientUnits="userSpaceOnUse" x1="75.2015" y1="289.9567" x2="216.4353" y2="289.9567">
				<stop  offset="0" style="stop-color:#996D44"/>
				<stop  offset="0.2086" style="stop-color:#F6D18D"/>
				<stop  offset="0.3258" style="stop-color:#BF915D"/>
				<stop  offset="0.5333" style="stop-color:#8E673D"/>
				<stop  offset="0.7179" style="stop-color:#BF915D"/>
				<stop  offset="0.8483" style="stop-color:#BF915D"/>
				<stop  offset="1" style="stop-color:#996D44"/>
			</linearGradient>
			<path fill="url(#SVGID_2_)" d="M115.1,283.5c0.6,0,1.1,0.1,1.6,0.2c0.4,0.1,0.7,0.3,0.9,0.6c-0.5-0.2-1.2-0.3-2.1-0.3h-0.6H114
				v3.3c-0.1,0-0.2,0-0.4,0v-3.7h0.8H115.1z M114.9,290.2c-0.1-0.1-0.3-0.2-0.5-0.2c-0.2,0-0.4-0.1-0.7-0.1v6.1c0,0.4,0.1,0.7,0.2,1
				c0.1,0.1,0.2,0.3,0.4,0.4c-0.1-0.3-0.1-0.6-0.1-0.9v-6.1c0.5,0,0.9,0.1,1.3,0.3C115.2,290.4,115,290.3,114.9,290.2z M99.3,285.7
				l-1.4,3.2h0.6l1.1-2.5L99.3,285.7z M85.2,290h-6.5v6c0,0.4,0.1,0.7,0.2,1c0.1,0.1,0.2,0.3,0.4,0.4c-0.1-0.3-0.1-0.6-0.1-0.9v-6
				h6.1V290z M88.8,283.1V296c0,0.4,0.1,0.7,0.2,1c0.1,0.1,0.2,0.3,0.4,0.4c-0.1-0.3-0.1-0.6-0.1-0.9v-12.9c0-0.9,0.3-1.6,0.9-1.9
				h-0.8C89,281.9,88.8,282.4,88.8,283.1z M134.3,283.9c1.1,0,2.1,0.2,2.9,0.7c-0.5-0.4-1-0.7-1.6-0.9c-0.5-0.1-1-0.2-1.6-0.2h-3.3
				v11.6h0.4v-11.1H134.3z M78.8,283.1v4.1h0.4v-3.7c0-0.9,0.3-1.6,0.9-1.9h-0.8C78.9,281.9,78.8,282.4,78.8,283.1z M107.5,296.2
				c0.1,0.1,0.1,0.2,0.2,0.3c0.1,0.1,0.2,0.3,0.3,0.4c-0.1-0.2-0.2-0.3-0.3-0.6l-6.5-14.8h-0.2l6.3,14.4
				C107.4,296.1,107.5,296.2,107.5,296.2z M121.2,283.4c0.4,0.6,0.5,1.3,0.5,2.1c0,0.9-0.2,1.7-0.7,2.4c-0.5,0.7-1.3,1.2-2.4,1.5
				c0.1,0.1,0.2,0.3,0.4,0.4c1.1-0.3,1.9-0.8,2.4-1.5c0.5-0.7,0.7-1.5,0.7-2.4c0-1-0.3-1.8-0.8-2.5c-0.1-0.1-0.1-0.2-0.2-0.2
				C121.2,283.2,121.2,283.3,121.2,283.4z M195,290.3c0.6,0,1,0,1.3,0.1c0.1,0,0.2,0,0.2,0.1l-0.2-0.1c-0.2-0.2-0.4-0.3-0.6-0.4
				c-0.3,0-0.6-0.1-1.2-0.1h-4.3v5.2h0.4v-4.8H195z M197.7,284.2C197.7,284.2,197.7,284.2,197.7,284.2l0,0.2l-0.4-0.3
				c-0.2-0.2-0.5-0.3-0.8-0.4c-0.3-0.1-0.7-0.1-1.1-0.1h-5v3.5h0.4v-3.1h5c1,0,1.8,0.2,2.4,0.7l0.1,0.1l-0.3-3.1h-0.3L197.7,284.2
				L197.7,284.2z M196.7,290.5c0.2,0.1,0.3,0.2,0.5,0.4l-0.1-3.1c-0.1,0-0.2,0.1-0.3,0.1l0.1,2.6c-0.1,0-0.1-0.1-0.2-0.1
				L196.7,290.5z M174.5,290.2c-0.2-0.1-0.3-0.2-0.5-0.2c-0.2,0-0.4-0.1-0.7-0.1v6.1c0,0.4,0.1,0.7,0.2,1c0.1,0.1,0.2,0.3,0.4,0.4
				c-0.1-0.3-0.1-0.6-0.1-0.9v-6.1c0.5,0,0.9,0.1,1.3,0.3C174.8,290.4,174.7,290.3,174.5,290.2z M180.9,283.4
				c0.4,0.6,0.5,1.3,0.5,2.1c0,0.9-0.2,1.7-0.7,2.4c-0.5,0.7-1.3,1.2-2.4,1.5c0.1,0.1,0.2,0.3,0.4,0.4c1.1-0.3,1.9-0.8,2.4-1.5
				c0.5-0.7,0.7-1.5,0.7-2.4c0-1-0.3-1.8-0.8-2.5c-0.1-0.1-0.1-0.2-0.2-0.2C180.8,283.2,180.8,283.3,180.9,283.4z M161.2,284.2
				C161.2,284.2,161.2,284.2,161.2,284.2l0,0.2l-0.4-0.3c-0.2-0.2-0.5-0.3-0.8-0.4c-0.3-0.1-0.7-0.1-1.1-0.1h-4.5v3.5h0.4v-3.1h4.5
				c1,0,1.8,0.2,2.4,0.7l0.1,0.1l-0.3-3.1H161L161.2,284.2L161.2,284.2z M174.2,283.5h-0.8v3.7c0.1,0,0.2,0,0.4,0v-3.3h0.8h0.6
				c0.9,0,1.6,0.1,2.1,0.3c-0.2-0.3-0.5-0.5-0.9-0.6c-0.4-0.1-1-0.2-1.6-0.2H174.2z M207.6,283.9c1.1,0,2.1,0.2,2.8,0.7
				c-0.5-0.4-1-0.7-1.6-0.9c-0.5-0.1-1-0.2-1.6-0.2H204v11.6h0.4v-11.1H207.6z M166.5,283.1V296c0,0.4,0.1,0.7,0.2,1
				c0.1,0.1,0.2,0.3,0.4,0.4c-0.1-0.3-0.1-0.6-0.1-0.9v-12.9c0-0.9,0.3-1.6,0.9-1.9H167C166.7,281.9,166.5,282.4,166.5,283.1z
				 M167.3,297.9h-3.9c-0.1,0.2-0.3,0.3-0.5,0.4h4.8C167.6,298.2,167.5,298.1,167.3,297.9z M174.1,297.9h-3.9
				c-0.1,0.2-0.3,0.3-0.5,0.4h4.8C174.4,298.2,174.2,298.1,174.1,297.9z M79.6,297.9h-3.9c-0.1,0.2-0.3,0.3-0.5,0.4H80
				C79.8,298.2,79.7,298.1,79.6,297.9z M181,297.9l0.3,0.4h4.8c-0.4-0.2-0.6-0.3-0.8-0.4H181z M215.3,285.6
				c-0.2-0.3-0.4-0.5-0.6-0.8c0.1,0.1,0.1,0.2,0.2,0.4c0,0,0,0,0,0c0.8,1.3,1.1,2.7,1.1,4.3c0,2.1-0.6,3.8-1.7,5.3
				c-0.5,0.6-1.1,1.2-1.8,1.6c-1.5,1-3.5,1.5-5.8,1.5h-5.9c-0.1,0.2-0.3,0.3-0.5,0.4h6.7c2.3,0,4.3-0.5,5.8-1.5
				c0.7-0.5,1.3-1,1.8-1.6c1.2-1.5,1.7-3.2,1.7-5.3C216.4,288.3,216.1,286.9,215.3,285.6z M160.2,290.3c-0.2-0.2-0.4-0.3-0.6-0.4
				c-0.3,0-0.6-0.1-1.2-0.1h-4.1v6.2c0,0.4,0.1,0.7,0.2,1c0.1,0.1,0.2,0.3,0.4,0.4c-0.1-0.3-0.1-0.6-0.1-0.9v-6.2h4.1
				C159.4,290.3,159.8,290.3,160.2,290.3c0,0.1,0.1,0.1,0.2,0.1L160.2,290.3z M199,295.1c-0.1,0.1-0.3,0.2-0.4,0.2l-0.6,2.6h-10.8
				c-0.1,0.2-0.3,0.3-0.5,0.4h11.7l0.8-3.4L199,295.1z M160.5,287.8l0.1,2.6c-0.1,0-0.1-0.1-0.2-0.1l0,0.2c0.2,0.1,0.3,0.2,0.5,0.4
				l-0.1-3.1C160.8,287.8,160.7,287.8,160.5,287.8z M101.8,291.7h-5.2l-2,4.6c-0.1,0.3-0.2,0.5-0.2,0.8c0,0.1,0,0.1,0,0.2
				c0.1,0.1,0.1,0.1,0.2,0.2l0.2,0.1c0,0,0-0.1,0-0.1c0-0.3,0.1-0.5,0.2-0.8l2-4.6h5L101.8,291.7z M94.9,297.8L94.9,297.8
				c0,0,0,0.1,0,0.1h-3.5c0,0-0.1,0.1-0.1,0.1c-0.1,0.1-0.3,0.3-0.4,0.3h4.4C95.1,298.2,95,298,94.9,297.8z M89.6,297.9h-3.9
				c-0.1,0.2-0.3,0.3-0.5,0.4h4.8C89.9,298.2,89.8,298.1,89.6,297.9z M104.6,297.9c-0.1,0.1-0.2,0.3-0.3,0.4h5
				c-0.2-0.1-0.3-0.3-0.5-0.4H104.6z M121.3,297.9l0.3,0.4h4.8c-0.3-0.2-0.6-0.3-0.8-0.4H121.3z M114.5,297.9h-3.9
				c-0.1,0.2-0.3,0.3-0.5,0.4h4.8C114.7,298.2,114.6,298.1,114.5,297.9z M141.5,284.8c0.1,0.1,0.1,0.3,0.2,0.4
				c0.7,1.3,1.1,2.7,1.1,4.2c0,2.1-0.6,3.8-1.7,5.3c-0.5,0.6-1.1,1.2-1.8,1.6c-1.5,1-3.5,1.5-5.8,1.5h-5.9c-0.1,0.2-0.3,0.3-0.5,0.4
				h6.7c2.3,0,4.3-0.5,5.8-1.5c0.7-0.5,1.3-1,1.8-1.6c1.2-1.5,1.7-3.2,1.7-5.3c0-1.6-0.4-3-1.1-4.3
				C141.8,285.3,141.7,285.1,141.5,284.8z M155.1,297.9h-3.9c-0.1,0.2-0.3,0.3-0.5,0.4h4.8C155.4,298.2,155.2,298.1,155.1,297.9z"/>
		</g>
	</g>
</g>
</svg>
