<?xml version="1.0" encoding="utf-8"?>
<!-- Generator: Adobe Illustrator 19.1.1, SVG Export Plug-In . SVG Version: 6.00 Build 0)  -->
<svg version="1.1" xmlns="http://www.w3.org/2000/svg" xmlns:xlink="http://www.w3.org/1999/xlink" x="0px" y="0px"
	 viewBox="0 0 283 396" enable-background="new 0 0 283 396" xml:space="preserve">
<g id="bombki">
	<g id="wyborowa01">
	</g>
	<g id="jacobs_x5F_creek">
	</g>
	<g>
		<path fill="#000034" d="M180,120.3c-5.9-1.7-9.7-7-9.7-13.1V102c0-0.9-1-1.7-1.9-1.7h0.1c-1.8,0-3.2-1.5-3.2-3.3v-6.2h-45.8v6.3
			c0,1.8-1.7,3.2-3.4,3.2h0.1c-1,0-1.7,0.8-1.7,1.8v4.9c0,6.1-4.3,11.5-10.2,13.1C45.6,136.6,2.7,190.4,2.7,254.3
			c0.1,76.9,62.1,139,139,138.9c76.8,0,139-62.3,139-139.1C280.8,190.5,238.6,137,180,120.3z"/>
		<path fill="#E6E9EB" d="M141.7,395.7c-37.8,0-73.4-14.7-100.1-41.4C15,327.7,0.3,292.1,0.2,254.3c0-31.5,10.1-61.4,29.2-86.3
			c18.6-24.2,44.9-42,74.2-50.2c4.9-1.4,8.4-5.8,8.4-10.8v-4.9c0-2.4,1.8-4.2,4-4.3v0c0.5,0,1-0.4,1-0.7v-8.8h50.8V97
			c0,0.4,0.2,0.8,0.7,0.8v0c2.4,0.1,4.3,2,4.3,4.2v5.1c0,5.1,3.2,9.4,7.8,10.7h0c29.1,8.3,55.3,26.1,73.7,50.2
			c18.9,24.8,28.9,54.5,28.9,86C283.2,332.2,219.8,395.7,141.7,395.7z M117,102.7v4.2c0,7.2-4.9,13.6-12,15.5
			C46.2,139,5.1,193.2,5.2,254.3c0.1,75.2,61.3,136.5,136.5,136.5c75.3,0,136.5-61.3,136.5-136.6c0-60.8-40.7-114.8-99-131.4h0
			c-6.9-1.9-11.5-8.2-11.5-15.5v-4.4c-2.8-0.3-5-2.7-5-5.7v-3.7H122v3.8C122,99.9,119.8,102.3,117,102.7z"/>
	</g>
	<path opacity="0.1" fill="#E6E9EB" d="M179.7,120.3c-2.3-0.7-4.3-1.9-5.9-3.5c1.3,1.8,3.1,3.3,5.2,4.3
		c56,26.8,89.2,87.8,78.4,151.5c-12,70.4-73.9,119.8-143.3,117.8c8.9,1.8,18.2,2.7,27.7,2.7c76.8,0,138.9-62.3,138.9-139.1
		C280.6,190.5,238.4,137,179.7,120.3z"/>
	<path opacity="0.1" fill="#E6E9EB" d="M104.5,120.3c2.3-0.7,4.3-1.9,5.9-3.5c-1.3,1.8-3.1,3.3-5.2,4.3
		c-56,26.8-89.2,87.8-78.4,151.5c12,70.4,73.9,119.8,143.3,117.8c-8.9,1.8-18.2,2.7-27.7,2.7c-76.8,0-138.9-62.3-138.9-139.1
		C3.7,190.5,45.9,137,104.5,120.3z"/>
	<g opacity="0.1">
		<path fill="#E6E9EB" d="M42.3,306.4c1.2,2.4,4.8,0.6,3.7-1.8c-0.6-1.3-1.1-2.6-1.7-3.9c-12.9-31.7-13.3-65.3-3.4-95.4
			c0.8-2.6-2.9-4-3.9-1.5c-11.9,29.5-12.3,63,1.4,94.5C39.6,301,40.9,303.8,42.3,306.4z"/>
	</g>
	<ellipse opacity="0.1" fill="#E6E9EB" cx="141.1" cy="165.4" rx="70.4" ry="33.9"/>
	<ellipse opacity="0.2" fill="#E6E9EB" cx="141.1" cy="147.4" rx="16.7" ry="8.1"/>
	<path opacity="0.3" d="M141.2,352.9c-48.6,0-92.9-15.6-126.1-41.1c21.9,48.1,70.3,81.5,126.6,81.5c56.7,0,105.3-33.9,126.9-82.5
		C235.3,336.9,190.5,352.9,141.2,352.9z"/>
	<path fill="#E6E9EB" d="M141.7,395.7c-37.8,0-73.4-14.7-100.1-41.4C15,327.7,0.3,292.1,0.2,254.3c0-31.5,10.1-61.4,29.2-86.3
		c18.6-24.2,44.9-42,74.2-50.2c4.9-1.4,8.4-5.8,8.4-10.8v-4.9c0-2.4,1.8-4.2,4-4.3v0c0.5,0,1-0.4,1-0.7v-8.8h50.8V97
		c0,0.4,0.2,0.8,0.7,0.8v0c2.4,0.1,4.3,2,4.3,4.2v5.1c0,5.1,3.2,9.4,7.8,10.7h0c29.1,8.3,55.3,26.1,73.7,50.2
		c18.9,24.8,28.9,54.5,28.9,86C283.2,332.2,219.8,395.7,141.7,395.7z M117,102.7v4.2c0,7.2-4.9,13.6-12,15.5
		C46.2,139,5.1,193.2,5.2,254.3c0.1,75.2,61.3,136.5,136.5,136.5c75.3,0,136.5-61.3,136.5-136.6c0-60.8-40.7-114.8-99-131.4h0
		c-6.9-1.9-11.5-8.2-11.5-15.5v-4.4c-2.8-0.3-5-2.7-5-5.7v-3.7H122v3.8C122,99.9,119.8,102.3,117,102.7z"/>
	<path fill="#FF901F" d="M157.2,29.1h-32.1l-0.7-1.2c-1.5-2.4-2.3-5.7-2.3-9c0-10.5,8.6-19,19.1-19s19.1,8.5,19.1,19
		c0,3.3-0.9,6.6-2.3,8.9L157.2,29.1z M128,24.1h26.3c0.6-1.5,1-3.3,1-5.1c0-7.7-6.3-14-14.1-14S127,11.3,127,19
		C127,20.8,127.4,22.7,128,24.1z"/>
	<path fill="#D97907" d="M141.2,5.4c7.5,0,13.6,6.1,13.6,13.6c0,1.7-0.3,3.3-0.9,4.8h-16.2h-9.2c-0.6-1.5-0.9-3.1-0.9-4.8
		C127.5,11.5,133.7,5.4,141.2,5.4 M141.2,2.4c-9.2,0-16.6,7.4-16.6,16.6c0,2.8,0.7,5.5,2,7.8h11.2h18.2c1.2-2.3,2-5,2-7.8
		C157.8,9.8,150.3,2.4,141.2,2.4L141.2,2.4z"/>
	<g>
		<rect x="115" y="88.4" fill="#1C2051" width="53.8" height="4"/>
		<rect x="114" y="91.4" fill="#202274" width="55.8" height="5"/>
		<path fill="#BDBDBD" d="M166.7,23.6h-49.6c-1.7,0-3.1,1.8-3.1,3.5v62.3h55.8V27.1C169.8,25.4,168.4,23.6,166.7,23.6z"/>
	</g>
	<path opacity="0.2" d="M128,23.6h-10.8c-1.7,0-3.1,1.8-3.1,3.5v62.3h1v2h-1v5H128V23.6z"/>
	<rect x="143.9" y="23.6" opacity="0.5" fill="#FFFFFF" width="9" height="72.7"/>
	<g opacity="0.1">
		<path fill="#E6E9EB" d="M242.7,307.5c1.1-2.5-2.5-4.2-3.8-1.8c-0.7,1.3-1.3,2.5-2,3.8c-16.8,29.8-42.9,51-72.6,62
			c-2.5,0.9-1.3,4.7,1.3,4c30.5-9,57-29.5,73.2-59.8C240.1,313,241.5,310.3,242.7,307.5z"/>
	</g>
</g>
<g id="BRAND">
	<g>
		<path fill="#FFFFFF" d="M66.6,283.4c-1.9,0-3.7,0-5.6,0c-0.8-6-1.6-12.1-2.4-18.2c-0.3-2.3-0.7-5.5-0.9-9.2c0,0-0.1,0-0.1,0
			c-0.2,3.6-0.6,6.8-0.8,9.2c-0.8,6-1.6,12.1-2.4,18.2c-1.8,0-3.7,0-5.5,0c-2.2-15.3-4.3-30.6-6.5-45.9c2.1,0,4.2,0,6.3,0
			c0.7,6.1,1.4,12.3,2.2,18.4c0.2,2.4,0.6,6.3,0.8,9.1c0,0,0.1,0,0.1,0c0.2-2.9,0.5-6.7,0.8-9.1c0.6-6.1,1.3-12.3,1.9-18.4
			c2.1,0,4.3,0,6.4,0c0.7,6.1,1.4,12.3,2.1,18.4c0.3,2.8,0.6,6.3,0.8,9.1c0,0,0.1,0,0.1,0c0.2-2.8,0.5-6.3,0.8-9.1
			c0.6-6.1,1.3-12.3,1.9-18.4c2,0,4,0,6,0C70.6,252.8,68.6,268.1,66.6,283.4z"/>
		<path fill="#FFFFFF" d="M89,263.4c0,6.6,0,13.3,0,20c-2.3,0-4.6,0-6.8,0c0-6.6,0-13.2,0-19.7c-1.9-8.7-3.9-17.5-5.8-26.2
			c2.2,0,4.4,0,6.6,0c0.7,3.2,1.3,6.5,2,9.7c0.3,1.3,0.6,3.5,0.7,4.8c0,0,0.1,0,0.1,0c0.2-1.4,0.5-3.4,0.8-4.8
			c0.6-3.2,1.3-6.5,1.9-9.7c2.1,0,4.2,0,6.3,0C92.8,246.1,90.9,254.8,89,263.4z"/>
		<path fill="#FFFFFF" d="M106.8,249.2c0,4-1.2,6-2,6c-0.2,0-0.3,0-0.5,0c0-4.1,0-8.1,0-12.2c0.2,0,0.3,0,0.5,0
			C105.6,243,106.8,245.2,106.8,249.2z M114.5,269.5c0-7-2.6-10.7-4.1-11.4c1.4-0.9,2.8-4.8,2.8-8.8c0-7.8-3.5-11.9-8.2-11.9
			c-2.2,0-4.5,0-6.7,0c0,15.3,0,30.6,0.1,45.9c2.3,0,4.6,0,7,0C110.8,283.4,114.5,278.2,114.5,269.5z M107.7,269.4
			c0,5.2-1.4,8-2.7,8c-0.2,0-0.4,0-0.6,0c0-5.4,0-10.8,0-16.1c0.2,0,0.4,0,0.6,0C106.2,261.2,107.7,264.1,107.7,269.4z"/>
		<path fill="#FFFFFF" d="M130.3,260.4c0,9.4-0.8,16.2-2.2,16.2c-1.4,0-2.3-6.8-2.3-16.2c0-9.4,0.8-16.3,2.3-16.3
			C129.4,244.1,130.3,251,130.3,260.4z M137.3,260.4c0-13.9-2.7-23.4-9.3-23.4c-6.7,0-9.3,9.5-9.3,23.4c0,13.9,2.7,23.4,9.3,23.4
			C134.7,283.8,137.3,274.3,137.3,260.4z"/>
		<path fill="#FFFFFF" d="M152,250.4c0,4.2-1.1,6.6-2.1,6.6c-0.2,0-0.2,0-0.7,0c0-4.4,0-9,0-13.1c0.5,0,0.5,0,0.7,0
			C151,243.8,152,246.2,152,250.4z M160.9,283.3c-1.6-7.6-3.3-15.2-4.9-22.8c1.6-1.9,2.8-5.8,2.8-10.1c0-7.4-3.5-13-8.3-13
			c-2.6,0-5.2,0-7.8,0c0,15.3,0,30.5,0,46c2.2,0,4.5,0,6.7,0c0-6.8,0-13.2,0-19.8c0.2,0,0.4,0,0.5,0c1.4,6.6,2.8,13.2,4.1,19.8
			C156.3,283.3,158.6,283.3,160.9,283.3z"/>
		<path fill="#FFFFFF" d="M175.2,260.4c0,9.4-0.9,16.2-2.3,16.2c-1.4,0-2.3-6.8-2.3-16.2c0-9.4,0.9-16.3,2.3-16.3
			C174.4,244.1,175.2,251,175.2,260.4z M182.3,260.4c0-13.9-2.7-23.4-9.2-23.4c-6.7,0-9.3,9.5-9.4,23.4c0,13.9,2.6,23.4,9.3,23.4
			C179.5,283.8,182.2,274.3,182.3,260.4z"/>
		<path fill="#FFFFFF" d="M209.4,283.4c-1.9,0-3.7,0-5.6,0c-0.8-6-1.5-12.1-2.3-18.1c-0.3-2.3-0.7-6-0.8-9.1c0,0-0.1,0-0.1,0
			c-0.2,3.2-0.6,6.8-0.9,9.1c-0.8,6-1.6,12.1-2.5,18.1c-1.8,0-3.7,0-5.5,0c-2.1-15.3-4.2-30.6-6.2-45.9c2.1,0,4.2,0,6.3,0
			c0.7,6.1,1.4,12.3,2.1,18.4c0.2,2.4,0.6,6.3,0.8,9.1c0,0,0.1,0,0.1,0c0.2-2.9,0.5-6.7,0.8-9.1c0.7-6.1,1.3-12.3,2-18.4
			c2.2,0,4.3,0,6.5,0c0.7,6.1,1.3,12.3,2,18.4c0.3,2.8,0.6,6.3,0.8,9.1c0,0,0.1,0,0.1,0c0.2-2.8,0.5-6.3,0.9-9.1
			c0.7-6.1,1.3-12.3,2-18.4c2,0,4,0,6,0C213.7,252.8,211.6,268.1,209.4,283.4z"/>
		<path fill="#FFFFFF" d="M226.4,266.6c-0.7,0-1.5,0-2.2,0c0.2-2.9,0.5-5.7,0.7-8.6c0.1-1.3,0.3-2.7,0.3-4.3c0,0,0.1,0,0.1,0
			c0.1,1.7,0.1,3,0.3,4.3C225.9,260.9,226.1,263.7,226.4,266.6z M234.5,283.5c-1.9-15.3-3.9-30.6-5.8-46c-2.1,0-4.1,0-6.2,0
			c-2.1,15.3-4.1,30.6-6.2,45.9c2.1,0,4.1,0,6.2,0c0.4-3.7,0.8-7.4,1.1-11.1c1.1,0,2.1,0,3.2,0c0.4,3.7,0.7,7.4,1.1,11.1
			C230.1,283.4,232.3,283.5,234.5,283.5z"/>
		<path fill="#FFFFFF" d="M239.8,239.6c0,0.7-0.2,1.3-0.7,1.8c-0.5,0.5-1.1,0.8-1.8,0.8c-0.7,0-1.3-0.3-1.8-0.8
			c-0.5-0.5-0.8-1.1-0.7-1.8c0-0.7,0.3-1.3,0.8-1.8c0.5-0.5,1.1-0.7,1.8-0.7c0.7,0,1.3,0.3,1.8,0.8
			C239.6,238.3,239.8,238.9,239.8,239.6z M239.5,239.6c0-0.6-0.2-1.2-0.6-1.6c-0.4-0.4-1-0.7-1.6-0.7c-0.6,0-1.1,0.2-1.6,0.6
			c-0.5,0.5-0.7,1-0.7,1.6c0,0.6,0.2,1.1,0.6,1.6c0.4,0.4,1,0.7,1.6,0.7c0.6,0,1.1-0.2,1.6-0.7C239.2,240.7,239.5,240.2,239.5,239.6
			z M238.5,238.9c0,0.4-0.2,0.7-0.7,0.8l0.7,1.3l-0.6,0l-0.6-1.2l-0.5,0l0,1.2l-0.5,0l0-2.9l1.1,0
			C238.1,238.1,238.5,238.3,238.5,238.9z M237.9,238.9c0-0.3-0.3-0.5-0.8-0.5l-0.5,0v0.9h0.6C237.7,239.3,237.9,239.2,237.9,238.9z"
			/>
	</g>
	<g id="New_Symbol_13">
	</g>
</g>
</svg>
