<?xml version="1.0" encoding="utf-8"?>
<!-- Generator: Adobe Illustrator 19.1.1, SVG Export Plug-In . SVG Version: 6.00 Build 0)  -->
<svg version="1.1" xmlns="http://www.w3.org/2000/svg" xmlns:xlink="http://www.w3.org/1999/xlink" x="0px" y="0px"
	 viewBox="0 0 283 396" enable-background="new 0 0 283 396" xml:space="preserve">
<g id="bombki">
	<g id="wyborowa01">
	</g>
	<g id="jacobs_x5F_creek">
	</g>
	<path fill="#FF901F" d="M157.7,29.1h-32.1l-0.7-1.2c-1.5-2.4-2.3-5.7-2.3-9c0-10.5,8.6-19,19.1-19c10.5,0,19.1,8.5,19.1,19
		c0,3.3-0.9,6.6-2.3,8.9L157.7,29.1z M128.5,24.1h26.3c0.6-1.5,1-3.3,1-5.1c0-7.7-6.3-14-14.1-14s-14.1,6.3-14.1,14
		C127.5,20.8,127.9,22.7,128.5,24.1z"/>
	<path fill="#D97907" d="M141.6,5.4c7.5,0,13.6,6.1,13.6,13.6c0,1.7-0.3,3.3-0.9,4.8h-16.2h-9.2c-0.6-1.5-0.9-3.1-0.9-4.8
		C128,11.5,134.1,5.4,141.6,5.4 M141.6,2.4C132.4,2.4,125,9.8,125,19c0,2.8,0.7,5.5,2,7.8h11.2h18.2c1.2-2.3,2-5,2-7.8
		C158.2,9.8,150.8,2.4,141.6,2.4L141.6,2.4z"/>
	<g>
		<path fill="#E6EDF1" d="M179.7,120.3c-5.9-1.7-9.7-7-9.7-13.1v-5.1c0-0.9-1-1.7-1.9-1.7h0.1c-1.8,0-3.2-1.5-3.2-3.3v-6.2h-45.8
			v6.3c0,1.8-1.7,3.2-3.4,3.2h0.1c-1,0-1.7,0.8-1.7,1.8v4.9c0,6.1-4.3,11.5-10.2,13.1C45.3,136.7,2.4,190.5,2.5,254.3
			c0.1,76.9,62.1,139,139,138.9c76.8,0,139-62.3,139-139.1C280.5,190.6,238.4,137,179.7,120.3z"/>
		<path fill="#E6E9EB" d="M141.5,395.7c-37.8,0-73.4-14.7-100.1-41.4C14.8,327.7,0.1,292.2,0,254.3c0-31.5,10.1-61.4,29.2-86.3
			c18.6-24.2,44.9-42,74.2-50.2c4.9-1.4,8.4-5.8,8.4-10.8v-4.9c0-2.4,1.8-4.2,4-4.3v0c0.5,0,1-0.4,1-0.7v-8.8h50.8v8.7
			c0,0.4,0.2,0.8,0.7,0.8v0c2.4,0.1,4.3,2,4.3,4.2v5.1c0,5.1,3.2,9.4,7.8,10.7c29.1,8.3,55.3,26.1,73.7,50.2
			c18.9,24.8,28.9,54.5,28.9,86C283,332.2,219.5,395.7,141.5,395.7z M116.8,102.8v4.2c0,7.2-4.9,13.6-12,15.5
			C45.9,139.1,4.9,193.2,5,254.3c0.1,75.2,61.3,136.5,136.5,136.5c75.3,0,136.5-61.3,136.5-136.6c0-60.8-40.7-114.8-99-131.4h0
			c-6.9-1.9-11.5-8.2-11.5-15.5v-4.4c-2.8-0.3-5-2.7-5-5.7v-3.7h-40.8v3.8C121.7,99.9,119.5,102.3,116.8,102.8z"/>
	</g>
	<path opacity="0.4" fill="#FFFFFF" d="M179.5,120.3c-2.3-0.7-4.3-1.9-5.9-3.5c1.3,1.8,3.1,3.3,5.2,4.3
		c56,26.8,89.2,87.8,78.4,151.5c-12,70.4-73.9,119.8-143.3,117.8c8.9,1.8,18.2,2.7,27.7,2.7c76.8,0,138.9-62.3,138.9-139.1
		C280.4,190.6,238.1,137,179.5,120.3z"/>
	<path opacity="0.1" fill="#E6E9EB" d="M140.9,352.9c-48.6,0-92.9-15.6-126.1-41.1c21.9,48.1,70.3,81.5,126.6,81.5
		c56.7,0,105.3-33.9,126.9-82.5C235,336.9,190.2,352.9,140.9,352.9z"/>
	<g opacity="0.3">
		<path fill="#FFFFFF" d="M37.1,295.6c-24-59.1-4.6-125.1,43.7-162.4c2.2-1.7,3.7-3.9,4.6-6.4c-49.1,21.6-83.1,70.6-83,127.5
			c0.1,76.9,62.2,139,139.1,138.9c24.9,0,48.2-6.5,68.4-18C140.7,398.3,64.9,364,37.1,295.6z"/>
	</g>
	<ellipse opacity="0.5" fill="#FFFFFF" cx="140.9" cy="165.5" rx="70.4" ry="33.9"/>
	<path opacity="0.1" d="M148,98.8v-1c0,3.2,2.6,5.8,5.8,5.8h1c3.2,0,5.8-2.6,5.8-5.8v-3.4c0,8.2,8.9,7.4,8.9,7.4v-3.7
		c-0.4-0.1-0.9-0.2-1.3-0.3v0c-0.5,0-0.7-0.4-0.7-0.8v-8.7h-50.8v8.8c0,0.3-0.5,0.7-1,0.7v0c-0.8,0-1.4,0.3-2,0.6v3.3
		c0,0,8.9,0.7,8.9-7.4v3.4c0,3.2,2.6,5.8,5.8,5.8h1c3,0,5.4-2.2,5.8-5.1v0.3c0,3.2,2.6,5.8,5.8,5.8h1C145.3,104.6,148,102,148,98.8z
		"/>
	<path fill="#002856" d="M166.5,23.4h-49.8c-1.7,0-3.1,1.8-3.1,3.5v62.5v7.4c0,0,9,0.8,9-7.4v3.4c0,3.2,2.6,5.9,5.9,5.9h1
		c3,0,5.5-2.3,5.8-5.1v0.3c0,3.2,2.6,5.9,5.9,5.9h1c3.2,0,5.9-2.6,5.9-5.9v-1c0,3.2,2.6,5.9,5.9,5.9h1c3.2,0,5.9-2.6,5.9-5.9v-3.4
		c0,8.2,9,7.4,9,7.4v-7.4V26.9C169.7,25.2,168.3,23.4,166.5,23.4z"/>
	<path opacity="0.1" d="M113.7,26.9v62.5v7.4c0,0,9,0.8,9-7.4v3.4c0,3.2,2.6,5.9,5.9,5.9h1c0.4,0,0.8,0,1.1-0.1V23.4h-13.8
		C115.1,23.4,113.7,25.2,113.7,26.9z"/>
	<path opacity="0.1" fill="#FFFFFF" d="M148,93.8v-1c0,2.8,2,5.2,4.7,5.7V23.4h-9v76.1C146.2,98.8,148,96.5,148,93.8z"/>
	<path opacity="0.1" fill="#FFFFFF" d="M164.9,29.4h-46.7c-0.7,0-1.3-0.6-1.3-1.3v0c0-0.7,0.6-1.2,1.3-1.2h46.7
		c0.7,0,1.3,0.6,1.3,1.2v0C166.1,28.8,165.5,29.4,164.9,29.4z"/>
</g>
<g id="BRAND">
	<path fill="#B89C52" d="M190.3,335.2h1.9l-1.3,1.2l0.6,0.6l2-1.8h0.6l-0.5,0.7l0.7,0.4l0.8-1.1h0.4v1.6l1.2,1.2l-0.3,0.3L195,338
		l-0.2,0.8l0.8,0.2l-0.4,0.4l-2.7,0.1l0,0.8l1.8-0.1l-1.3,1.3l0.6,0.6l1.3-1.3l-0.1,1.8l0.8,0l0.1-2.7l0.4-0.4l0.2,0.8l0.8-0.2
		l-0.3-1.3l0.3-0.3l1.2,1.2h1.7v0.4l-1.1,0.7l0.5,0.7l0.7-0.4v0.6l-1.8,2l0.6,0.5l1.2-1.3v1.9h0.8v-1.9l1.2,1.3l0.6-0.5l-1.8-2v-0.6
		l0.7,0.4l0.5-0.7l-1.1-0.7v-0.4h1.7l1.2-1.2l0.3,0.3l-0.3,1.3l0.8,0.2l0.2-0.8l0.4,0.4l0.1,2.7l0.8,0l-0.1-1.8l1.3,1.3l0.6-0.6
		l-1.3-1.3l1.8,0.1l0-0.8l-2.7-0.1l-0.4-0.4l0.8-0.2l-0.2-0.8l-1.3,0.3l-0.3-0.3l1.2-1.2v-1.6h0.4l0.8,1.1l0.7-0.4l-0.5-0.7h0.6
		l2,1.8l0.6-0.6l-1.3-1.2h1.9v-0.8h-1.9l1.3-1.2l-0.6-0.6l-2,1.8h-0.6l0.5-0.7l-0.7-0.4l-0.8,1.1h-0.4v-1.6l-1.2-1.2l0.3-0.3
		l1.3,0.3l0.2-0.8l-0.8-0.2l0.4-0.4l2.7-0.1l0-0.8l-1.8,0.1l1.3-1.3l-0.6-0.6l-1.3,1.3l0.1-1.8l-0.8,0l-0.1,2.7l-0.4,0.4l-0.2-0.8
		l-0.8,0.2l0.3,1.3l-0.3,0.3l-1.2-1.2h-1.7v-0.4l1.1-0.7l-0.5-0.7l-0.7,0.4v-0.6l1.8-2l-0.6-0.5l-1.2,1.3v-1.9H200v1.9l-1.2-1.3
		l-0.6,0.5l1.8,2v0.6l-0.7-0.4l-0.5,0.7l1.1,0.7v0.4h-1.7l-1.2,1.2l-0.3-0.3l0.3-1.3l-0.8-0.2l-0.2,0.8l-0.4-0.4l-0.1-2.7l-0.8,0
		l0.1,1.8l-1.3-1.3L193,328l1.3,1.3l-1.8-0.1l0,0.8l2.7,0.1l0.4,0.4l-0.8,0.2l0.2,0.8l1.3-0.3l0.3,0.3l-1.2,1.2v1.6H195l-0.7-1.1
		l-0.7,0.4l0.5,0.7h-0.6l-2-1.8l-0.6,0.6l1.3,1.2h-1.9V335.2z M196.3,336.5L196.3,336.5v-1.3h1.5v0.7l0.5,0.5l-1,1L196.3,336.5z
		 M198.6,335.5L198.6,335.5V334l1.1-1.1h1.6l1.1,1.1v1.5l-1.1,1.1h-1.6L198.6,335.5z M198.7,338.9L198.7,338.9l-0.9-0.9l1-1l0.5,0.5
		h0.7v1.5H198.7z M202.2,338.9L202.2,338.9h-1.3v-1.5h0.7l0.5-0.5l1,1L202.2,338.9z M204.6,336.5L204.6,336.5l-0.9,0.9l-1-1l0.5-0.5
		v-0.7h1.5V336.5z M204.6,333.1L204.6,333.1v1.3h-1.5v-0.7l-0.5-0.5l1-1L204.6,333.1z M202.2,330.7L202.2,330.7l0.9,0.9l-1,1
		l-0.5-0.5h-0.7v-1.5H202.2z M198.7,330.7L198.7,330.7h1.3v1.5h-0.7l-0.5,0.5l-1-1L198.7,330.7z M196.3,333.1L196.3,333.1l0.9-0.9
		l1,1l-0.5,0.5v0.7h-1.5V333.1z"/>
	<path fill="#B89C52" d="M91.8,341v-0.8l1,0.6l0.5-0.9l-1-0.6l0.8-0.4l-0.6-0.9l-1.3,0.7l-0.9-0.5l2.1-1.2l-0.6-0.9l-2.6,1.5
		l-0.7-0.4l0.8-0.4l-0.5-0.9l-1.3,0.7l-1-0.6v-2.3l1-0.5l1.2,0.7l0.5-0.9l-0.7-0.4l0.7-0.4l2.7,1.5l0.5-0.9l-2.1-1.2l0.9-0.5
		l1.2,0.7l0.5-0.9l-0.7-0.4l1-0.6l-0.5-0.9l-1,0.6v-0.9h-1.1v1.5l-0.9,0.5v-2.4h-1.1v3l-0.7,0.4v-0.9H87v1.5l-0.8,0.5l-2.2-1.3v-0.9
		l1.2-0.7l-0.5-0.9l-0.7,0.4v-0.8l2.7-1.5l-0.5-0.9l-2.1,1.2v-1l1.2-0.7l-0.5-0.9l-0.7,0.4v-1.2h-1.1v1.2l-0.8-0.4l-0.6,0.9l1.3,0.8
		v1l-2.1-1.2l-0.6,0.9l2.6,1.5v0.8l-0.7-0.4l-0.6,0.9l1.3,0.7v1l-2.2,1.2l-0.8-0.5v-1.4h-1.1v0.8l-0.7-0.4v-3H77v2.4l-0.9-0.5v-1.4
		H75v0.8l-1-0.6l-0.5,0.9l1,0.6l-0.8,0.4l0.5,0.9l1.3-0.7l0.9,0.5l-2.1,1.2l0.5,0.9l2.6-1.5l0.7,0.4l-0.8,0.4l0.6,0.9l1.3-0.7l1,0.6
		v2.3l-1,0.6l-1.2-0.7l-0.5,0.9l0.7,0.4l-0.7,0.4l-2.7-1.5l-0.5,0.9l2.1,1.2l-0.9,0.5l-1.2-0.7l-0.6,0.9l0.7,0.4l-1,0.6l0.5,0.9
		l1-0.6v0.9h1.1v-1.5l0.9-0.5v2.4h1.1v-3l0.7-0.4v0.9h1.1v-1.5l1.2-0.7l1.9,1.1v1.3l-1.2,0.7l0.6,0.9l0.7-0.4v0.8l-2.7,1.5l0.6,0.9
		l2.1-1.2v1l-1.2,0.7l0.5,0.9l0.7-0.4v1.2H84v-1.2l0.8,0.4l0.6-0.9l-1.3-0.7v-1l2.1,1.2l0.5-0.9l-2.6-1.5v-0.8l0.8,0.4l0.5-0.9
		l-1.3-0.7v-1.3l1.9-1.1l1.1,0.6v1.4h1.1V338l0.7,0.4v3h1.1v-2.4l0.9,0.5v1.4H91.8z M83.4,336.7L83.4,336.7l-1.9-1.1v-2.1l1.9-1.1
		l1.9,1.1v2.1L83.4,336.7z"/>
	<path fill="#B89C52" d="M155,338.7l-3.9,2.2l-1-0.6l1.1-0.6l-0.8-1.4l-1.9,1.1l-1.7-1V335l1.6-0.9l1.8,1.1l0.8-1.4l-1-0.6l1-0.6
		l4,2.3l0.8-1.4l-3.2-1.8l2.9-1.7l-0.8-1.4l-2.9,1.6v-3.5h-1.6v4.5l-1,0.6v-1.3h-1.6v2.2l-1.7,1l-3-1.7V330l1.8-1.1l-0.8-1.4l-1,0.6
		v-1.2l4-2.3l-0.8-1.4l-3.2,1.8v-3.3h-1.6v3.3l-3.1-1.8l-0.8,1.4l3.9,2.2v1.2l-1.1-0.7l-0.8,1.4l1.9,1.1v2l-3,1.7l-1.6-1v-2.1h-1.6
		v1.2l-1-0.6v-4.6h-1.6v3.6l-2.9-1.7l-0.8,1.4l2.8,1.6l-3.1,1.8l0.8,1.4l3.9-2.2l1,0.6l-1.1,0.6l0.8,1.4l1.9-1.1l1.7,1v3.4l-1.7,1
		l-1.8-1.1l-0.8,1.4l1,0.6l-1,0.6l-4-2.3l-0.8,1.4l3.2,1.8l-2.9,1.6l0.8,1.4l2.8-1.6v3.5h1.6v-4.5l1-0.6v1.3h1.6v-2.2l1.7-1l3,1.7
		v1.9l-1.8,1.1l0.8,1.4l1-0.6v1.2l-4,2.3l0.8,1.4l3.2-1.8v3.3h1.6v-3.3l3.1,1.8l0.8-1.4l-3.9-2.2v-1.2l1.1,0.6l0.8-1.4l-1.9-1.1v-2
		l3-1.7l1.7,0.9v2.1h1.6v-1.2l1,0.6v4.6h1.6v-3.6l2.9,1.7l0.8-1.4l-2.8-1.6l3.1-1.8L155,338.7z M142.1,339.9L142.1,339.9l-2.8-1.6
		v-3.2l2.8-1.6l2.8,1.6v3.2L142.1,339.9z"/>
	<g id="New_Symbol_13">
	</g>
	<g>
		<g>
			<g>
				<path fill="#7FA2CD" d="M125.3,211c4.2,1.6,7,4.3,7,4.3c0-1.3,0.4-2.6,0.9-3.8c0,0-1.4-2.5-5.4-5.3c-4.3-2.9-9.2-3.8-9.2-3.8
					c-1,2.2-1.7,4.5-2.1,7C116.5,209.5,120.1,209.1,125.3,211z"/>
				<path fill="#7FA2CD" d="M128.3,202.5c4,3.9,5.5,7.8,5.5,7.8c0.7-1.2,1.7-2.2,2.9-3c0,0-1.5-4.7-3.9-8.2
					c-2.4-3.5-6.4-6.4-6.4-6.4c-1.9,1.5-3.6,3.2-5.1,5.2C121.4,197.9,125.4,199.6,128.3,202.5z"/>
				<path fill="#7FA2CD" d="M135.5,197.6c1.8,4.7,2.3,9.1,2.3,9.1c1.2-0.6,2.8-1.1,4.2-1.2c0,0,0.1-4.5-0.9-9.1
					c-1.2-5.4-2.5-8.8-2.5-8.8c-2.4,0.4-4.7,1.1-6.8,2C131.7,189.6,134.2,194.4,135.5,197.6z"/>
				<path fill="#7FA2CD" d="M159.6,211c-4.2,1.6-7.1,4.3-7.1,4.3c0-1.3-0.4-2.6-0.9-3.8c0,0,1.4-2.5,5.4-5.3
					c4.3-2.9,9.2-3.8,9.2-3.8c1,2.2,1.7,4.5,2.1,7C168.4,209.5,164.8,209.1,159.6,211z"/>
				<path fill="#7FA2CD" d="M156.6,202.5c-4,3.9-5.5,7.8-5.5,7.8c-0.7-1.2-1.7-2.2-2.9-3c0,0,1.5-4.7,3.9-8.2
					c2.4-3.5,6.4-6.4,6.4-6.4c1.9,1.5,3.6,3.2,5.1,5.2C163.5,197.9,159.5,199.6,156.6,202.5z"/>
				<path fill="#7FA2CD" d="M149.5,197.6c-1.8,4.7-2.3,9.1-2.3,9.1c-1.2-0.6-2.8-1.1-4.2-1.2c0,0-0.1-4.5,0.9-9.1
					c1.2-5.4,2.5-8.8,2.5-8.8c2.4,0.4,4.7,1.1,6.8,2C153.2,189.6,150.7,194.4,149.5,197.6z"/>
			</g>
			<g>
				<path fill="#023466" d="M128.8,226.9c5.1-2.4,10.1-1.9,10.1-1.9c-1.8-0.7-3.4-1.8-4.5-3.3c0,0-4.5-0.5-8,0.2
					c-5.2,1.1-7.6,2.9-7.6,2.9c1.1,2.2,2.4,4.2,4,6C122.9,230.8,125.1,228.7,128.8,226.9z"/>
				<path fill="#023466" d="M124.9,219.3c5.2-0.2,8.7,1.1,8.7,1.1c-0.6-1.2-1.1-2.4-1.2-3.8c0,0-4.1-2.3-7.9-2.8
					c-5.2-0.7-8.3,0.3-8.3,0.3c0.1,2.5,0.5,4.9,1.2,7.1C117.4,221.2,120.8,219.5,124.9,219.3z"/>
				<path fill="#023466" d="M142.5,230.9c7.4,0,10.6,6.4,10.6,6.4c2.3-1,4.4-2.4,6.3-4c0,0-6.2-7.8-16.9-7.8
					c-10.7,0-16.9,7.8-16.9,7.8c1.9,1.6,4,2.9,6.3,4C131.9,237.3,135.1,230.9,142.5,230.9z"/>
				<path fill="#023466" d="M156.1,226.9c-5.1-2.4-10.2-1.9-10.2-1.9c1.8-0.7,3.4-1.8,4.5-3.3c0,0,4.5-0.5,8,0.2
					c5.2,1.1,7.6,2.9,7.6,2.9c-1.1,2.2-2.4,4.2-4,6C162,230.8,159.8,228.7,156.1,226.9z"/>
				<path fill="#023466" d="M160,219.3c-5.2-0.2-8.7,1.1-8.7,1.1c0.6-1.2,1.1-2.4,1.2-3.8c0,0,4.1-2.3,7.9-2.8
					c5.2-0.7,8.3,0.3,8.3,0.3c-0.1,2.5-0.5,4.9-1.2,7.1C167.5,221.2,164.1,219.5,160,219.3z"/>
			</g>
		</g>
		<g>
			<path fill="#023466" d="M62.2,244.5h7.6v2.1H67l4.7,17.1l4.6-17.1h2.9l4.6,17.1l4.6-17.1h-2.7v-2.1h7.6v2.1h-2.3l-5.6,20.3h-3.2
				l-4.6-16.3l-4.5,16.3h-3.2l-5.6-20.3h-2.3V244.5z"/>
			<path fill="#023466" d="M102,251.2h6.9v2H107l-6.6,16.8c-1.1,2.7-2.6,4-5.1,4c-1.2,0-1.9-0.2-2.7-0.6l0.6-2.2
				c0.6,0.3,1.3,0.5,2,0.5c1.2,0,2.1-0.5,2.9-2.3l1-2.5l-5.8-13.7h-1.9v-2h6.9v2h-2.5l4.6,10.7l4.1-10.7H102V251.2z"/>
			<path fill="#023466" d="M108.9,264.9h2.5v-18.4h-2.5v-2h4.8v9.4c1.1-1.8,2.9-3,5.5-3c4.4,0,7.1,3.5,7.1,8.2
				c0,4.7-2.9,8.3-7.3,8.3c-2.6,0-4.4-1.1-5.5-2.5v2.2h-4.8V264.9z M113.7,259.1c0,4,2.4,6.1,5.3,6.1c2.8,0,5.1-2.2,5.1-6.2
				c0-3.9-2.2-6-5-6C116.2,253,113.7,255.1,113.7,259.1z"/>
			<path fill="#023466" d="M136.7,250.8c4.7,0,7.6,3.5,7.6,8.2c0,4.8-2.9,8.2-7.6,8.2s-7.6-3.5-7.6-8.2
				C129.1,254.3,132,250.8,136.7,250.8z M136.7,265.2c2.9,0,5.3-2.2,5.3-6.1c0-3.9-2.3-6.1-5.3-6.1s-5.3,2.2-5.3,6.1
				C131.5,263,133.8,265.2,136.7,265.2z"/>
			<path fill="#023466" d="M152,264.9h3.1v2h-7.9v-2h2.5v-11.7h-2.5v-2h4.7v2.7c0.9-1.6,2.4-3,4.6-3c0.5,0,1.2,0.1,1.8,0.3l0,2.4
				c-0.7-0.2-1.3-0.3-1.9-0.3c-2.6,0-4.3,1.9-4.3,4.8V264.9z"/>
			<path fill="#023466" d="M166.7,250.8c4.7,0,7.6,3.5,7.6,8.2c0,4.8-2.9,8.2-7.6,8.2s-7.6-3.5-7.6-8.2
				C159.1,254.3,162,250.8,166.7,250.8z M166.7,265.2c2.9,0,5.3-2.2,5.3-6.1c0-3.9-2.3-6.1-5.3-6.1c-2.9,0-5.3,2.2-5.3,6.1
				C161.5,263,163.8,265.2,166.7,265.2z"/>
			<path fill="#023466" d="M198,253.2h-2.3v-2h6.7v2h-2l-4.8,13.7h-3.3l-3.5-13l-3.5,13H182l-4.8-13.7h-2v-2h6.7v2h-2.3l4,11.3
				l3.6-13.4h3.1l3.6,13.4L198,253.2z"/>
			<path fill="#023466" d="M218.3,264.9h2.7v2H216v-2.8c-1,1.8-2.8,3.2-5.6,3.2c-4.3,0-7.1-3.4-7.1-8.2c0-4.6,3.1-8.3,7.6-8.3
				c2.3,0,4.1,1.2,5.1,2.4v-2h4.8v2h-2.5V264.9z M205.6,259.1c0,4,2.2,6,5.1,6c3.1,0,5.3-2.5,5.3-6.4c0-4-2.5-5.8-5.2-5.8
				C207.9,253,205.6,255.1,205.6,259.1z"/>
		</g>
		<g>
			<path fill="#023466" d="M70,291.8h2.9v1.5h-6.6v-1.5h1.9v-13h-1.9v-1.5h6.9c3.4,0,5.4,1.7,5.4,4.9c0,3.1-2.2,5-5.6,5h-3V291.8z
				 M70,278.8v6.8H73c2.7,0,3.8-1.5,3.8-3.4c0-2-1.2-3.3-3.6-3.3H70z"/>
			<path fill="#023466" d="M89.8,290.7c-0.7,1.6-2.2,2.8-4.6,2.8c-3.3,0-5.4-2.1-5.4-5.9c0-3.5,2-5.9,5.3-5.9c3.5,0,5.7,2.9,5,6.5
				h-8.5c0.1,2.1,1.4,3.7,3.6,3.7c1.6,0,2.6-0.7,3.2-1.8L89.8,290.7z M88.4,286.8c0.1-2-1.2-3.5-3.4-3.5c-2.2,0-3.6,1.7-3.6,3.5
				H88.4z"/>
			<path fill="#023466" d="M95.7,291.8h2.2v1.5h-5.6v-1.5h1.8v-8.3h-1.8V282h3.3v1.9c0.7-1.1,1.7-2.2,3.3-2.2c0.4,0,0.8,0.1,1.3,0.2
				l0,1.7c-0.5-0.1-0.9-0.2-1.3-0.2c-1.9,0-3.1,1.3-3.1,3.4V291.8z"/>
			<path fill="#023466" d="M104.7,283.9c0.9-1.5,2.3-2.1,3.9-2.1c2.3,0,4.3,1.4,4.3,4.8v5.3h1.8v1.5h-5.3v-1.5h1.8v-4.9
				c0-2.4-1.1-3.6-3.1-3.6c-1.6,0-3.3,1-3.3,3.8v4.7h1.8v1.5h-5.2v-1.5h1.8v-8.3h-1.8V282h3.3V283.9z"/>
			<path fill="#023466" d="M121.4,281.8c3.4,0,5.4,2.5,5.4,5.9c0,3.4-2,5.9-5.4,5.9c-3.4,0-5.4-2.5-5.4-5.9
				C116,284.3,118,281.8,121.4,281.8z M121.4,292c2.1,0,3.8-1.5,3.8-4.4c0-2.8-1.6-4.4-3.8-4.4c-2.1,0-3.8,1.5-3.8,4.4
				C117.6,290.5,119.3,292,121.4,292z"/>
			<path fill="#023466" d="M139.4,291.8h1.9v1.5h-3.5v-2c-0.7,1.3-2,2.2-4,2.2c-3,0-5.1-2.4-5.1-5.8c0-3.3,2.2-5.9,5.4-5.9
				c1.7,0,3,0.8,3.6,1.5v-4.6h-1.9v-1.5h3.6V291.8z M130.4,287.7c0,2.9,1.6,4.3,3.6,4.3c2.2,0,3.8-1.8,3.8-4.6
				c0-2.8-1.8-4.1-3.7-4.1C132,283.3,130.4,284.8,130.4,287.7z"/>
			<path fill="#023466" d="M162.7,291.8v1.5h-3l-4-6.6H153v5h2v1.5h-5.7v-1.5h1.9v-13h-1.9v-1.5h6.9c3.1,0,5.3,1.8,5.3,4.7
				c0,2.5-1.9,4.2-3.7,4.6l3,5.2H162.7z M155.5,285.3c3.1,0,4.2-1.5,4.2-3.3c0-1.7-1.3-3.1-3.6-3.1H153v6.4H155.5z"/>
			<path fill="#023466" d="M167.9,291.8h1.8v1.5h-5.3v-1.5h1.8v-8.3h-1.8V282h3.5V291.8z M165.9,277.2h2v2.1h-2V277.2z"/>
			<path fill="#023466" d="M181.6,290.5c-0.8,1.8-2.4,3-4.9,3c-3.5,0-5.4-2.5-5.4-5.9c0-3.4,2-5.9,5.4-5.9c1.4,0,2.4,0.5,3.1,1.3
				v-1.3h1.5v4.1h-1.6c0-1.5-1.3-2.6-3-2.6c-2.2,0-3.8,1.5-3.8,4.4c0,2.8,1.6,4.4,3.8,4.4c1.5,0,2.7-0.8,3.3-2.1L181.6,290.5z"/>
			<path fill="#023466" d="M194,291.8h1.9v1.5h-3.5v-2c-0.7,1.3-2,2.2-4,2.2c-3.1,0-5.1-2.4-5.1-5.8c0-3.3,2.2-5.9,5.4-5.9
				c1.7,0,2.9,0.8,3.6,1.7V282h3.4v1.5H194V291.8z M185,287.7c0,2.9,1.6,4.3,3.6,4.3c2.2,0,3.8-1.8,3.8-4.6c0-2.8-1.8-4.1-3.7-4.1
				C186.6,283.3,185,284.8,185,287.7z"/>
			<path fill="#023466" d="M201.5,291.8h2.2v1.5H198v-1.5h1.8v-8.3H198V282h3.3v1.9c0.7-1.1,1.7-2.2,3.3-2.2c0.4,0,0.8,0.1,1.3,0.2
				l0,1.7c-0.5-0.1-0.9-0.2-1.3-0.2c-1.9,0-3.1,1.3-3.1,3.4V291.8z"/>
			<path fill="#023466" d="M217.3,291.8h1.9v1.5h-3.5v-2c-0.7,1.3-2,2.2-4,2.2c-3,0-5.1-2.4-5.1-5.8c0-3.3,2.2-5.9,5.4-5.9
				c1.7,0,3,0.8,3.6,1.5v-4.6h-1.9v-1.5h3.6V291.8z M208.3,287.7c0,2.9,1.6,4.3,3.6,4.3c2.2,0,3.8-1.8,3.8-4.6
				c0-2.8-1.8-4.1-3.7-4.1C209.9,283.3,208.3,284.8,208.3,287.7z"/>
		</g>
	</g>
</g>
</svg>
