<?xml version="1.0" encoding="utf-8"?>
<!-- Generator: Adobe Illustrator 19.1.1, SVG Export Plug-In . SVG Version: 6.00 Build 0)  -->
<svg version="1.1" xmlns="http://www.w3.org/2000/svg" xmlns:xlink="http://www.w3.org/1999/xlink" x="0px" y="0px"
	 viewBox="0 0 283 396" enable-background="new 0 0 283 396" xml:space="preserve">
<g id="bombki">
	<g id="wyborowa01">
	</g>
	<g id="jacobs_x5F_creek">
	</g>
	<path fill="#FF901F" d="M158.9,29.1h-32.1L126,28c-1.5-2.4-2.3-5.7-2.3-9c0-10.5,8.6-19,19.1-19S162,8.5,162,19
		c0,3.3-0.9,6.6-2.3,8.9L158.9,29.1z M129.7,24.1H156c0.6-1.5,1-3.3,1-5.1c0-7.7-6.3-14-14.1-14c-7.8,0-14.1,6.3-14.1,14
		C128.7,20.8,129.1,22.7,129.7,24.1z"/>
	<path fill="#D97907" d="M142.8,5.5c7.5,0,13.6,6.1,13.6,13.6c0,1.7-0.3,3.3-0.9,4.8h-16.2h-9.2c-0.6-1.5-0.9-3.1-0.9-4.8
		C129.2,11.6,135.3,5.5,142.8,5.5 M142.8,2.5c-9.2,0-16.6,7.4-16.6,16.6c0,2.8,0.7,5.5,2,7.8h11.2h18.2c1.2-2.3,2-5,2-7.8
		C159.5,9.9,152,2.5,142.8,2.5L142.8,2.5z"/>
	<g opacity="0.8">
		<path fill="#EEEEEE" d="M179.9,119.1c-16.9-5.4-16.7-30.6-16.7-30.6h-42c0,0,3.2,25.2-17.2,30.4c-59,16.6-102,70.6-102,134.6
			C2.1,330.7,64.3,393,141.5,393c77.1,0,139.5-62.5,139.5-139.7C281,189.6,238.7,135.8,179.9,119.1z"/>
		<path fill="#D0D0D0" d="M141.5,395.5c-38,0-73.7-14.7-100.4-41.5C14.3,327.2-0.5,291.5-0.5,253.5c0-31.7,10.1-61.6,29.4-86.7
			c18.6-24.3,45.1-42.1,74.4-50.4c18.1-4.6,15.5-27.4,15.4-27.7l-0.4-2.8h47.3l0,2.5c0,0.2,0.1,23.4,14.9,28.1
			c29.2,8.3,55.5,26.2,73.9,50.4c19,24.9,29,54.7,29,86.3C283.5,331.7,219.8,395.5,141.5,395.5z M123.9,91
			c0.4,10-3.1,26.2-19.3,30.3C45.6,137.9,4.4,192.2,4.5,253.5c0.1,75.5,61.6,137,137,137c75.6,0,137-61.5,137-137.2
			c0-61-40.9-115.3-99.4-131.9l-0.1,0c-15.3-4.9-17.9-23.6-18.3-30.4H123.9z"/>
	</g>
	<path opacity="0.1" fill="#474747" d="M194.8,124c-2.2-0.9-4.1-2.4-5.5-4.1c1.1,1.9,2.7,3.6,4.7,4.9c53,32.8,79.4,97.3,61.6,159.8
		c-19.7,69-86.9,111.5-155.9,101.9c8.7,2.8,17.8,4.7,27.3,5.8c76.7,8.4,145.4-47,153.8-123.6C287.8,205.2,251.5,147.1,194.8,124z"/>
	<path opacity="0.1" fill="#E6E9EB" d="M140.9,352.5c-48.8,0-93.3-15.6-126.6-41.3C36.3,359.5,84.8,393,141.4,393
		c56.9,0,105.7-34,127.4-82.8C235.4,336.4,190.4,352.5,140.9,352.5z"/>
	<g opacity="0.1">
		<path fill="#474747" d="M33.6,283.3C16.1,221.7,42.8,158,95,126c2.4-1.4,4.1-3.5,5.3-5.9C48.9,136.3,9.6,181.5,3.5,238.3
			C-4.9,315,50.3,383.8,127,392.2c24.8,2.7,48.8-1.3,70.2-10.5C125.7,397.2,53.9,354.7,33.6,283.3z"/>
	</g>
	<g opacity="0.1">
		<path fill="#474747" d="M280.5,240.8c0.1,1.5,0.2,3,0.3,4.4C280.7,243.8,280.6,242.3,280.5,240.8z"/>
	</g>
	<path opacity="0.2" fill="#474747" d="M239.8,352.5c25.5-25.3,41.3-60.4,41.3-99.2c0-63.8-42.3-117.6-101.2-134.3
		c-16.9-5.4-16.7-30.6-16.7-30.6H153c-0.6,9.7-0.2,27.9,9.6,36.2c13.8,11.7,74.2,19.4,96.1,68.7c21.9,49.3,18.1,104.9-18.3,158.3
		C240.2,351.9,240,352.2,239.8,352.5z"/>
	<path opacity="0.2" fill="#474747" d="M45.9,352.5c-25.5-25.3-41.3-60.4-41.3-99.2c0-63.8,42.3-117.6,101.2-134.3
		c16.9-5.4,16.7-30.6,16.7-30.6h10.2c0.6,9.7,0.2,27.9-9.6,36.2c-13.8,11.7-74.2,19.4-96.1,68.7C5.1,242.6,8.9,298.2,45.3,351.6
		C45.5,351.9,45.7,352.2,45.9,352.5z"/>
	<g opacity="0.2">
		<path fill="#474747" d="M142,370c-32,0-62.2-3.1-89-8.6c24.1,19.7,54.8,31.6,88.5,31.6c33.4,0,64-11.7,88-31.3
			C203.1,367,173.4,370,142,370z"/>
	</g>
	<g>
		<path opacity="0.1" fill="#474747" d="M176.2,282C84.8,285.4,5.8,249.6,3.4,267.3C24.1,308.7,106.5,297.1,176.2,282z"/>
		<path opacity="0.15" fill="#474747" d="M281.2,265.5c4.5-24.2-239.8,77.5-277.8,1.8c7,70.7,66.4,125.7,139,125.7
			C215.4,393,275,336.9,281.2,265.5z"/>
	</g>
	<path fill="#D0D0D0" d="M141.5,396c-38,0-73.7-14.7-100.4-41.5C14.3,327.7-0.5,292-0.5,254c0-31.7,10.1-61.6,29.4-86.7
		c18.6-24.3,45.1-42.1,74.4-50.4c18.1-4.6,15.5-27.4,15.4-27.7l-0.4-2.8h47.3l0,2.5c0,0.2,0.1,23.4,14.9,28.1
		c29.2,8.3,55.5,26.2,73.9,50.4c19,24.9,29,54.7,29,86.3C283.5,332.2,219.8,396,141.5,396z M123.9,91.5c0.4,10-3.1,26.2-19.3,30.3
		C45.6,138.4,4.4,192.7,4.5,254c0.1,75.5,61.6,137,137,137c75.6,0,137-61.5,137-137.2c0-61-40.9-115.3-99.4-131.9l-0.1,0
		c-15.3-4.9-17.9-23.6-18.3-30.4H123.9z"/>
	<g>
		<path fill="#E9CC4F" d="M142.8,91.7h24.8V64c0,0,0.6-1.2-2.9-4c0-1.3,0.2-2.2,0.2-2.2s3.3-1.1,3.3-4.8c0-0.7,0-3.1,0-3.7
			c0-2.9-2.5-4-2.5-4v-7.6c0,0,1.8-2.8,1.8-4.7c0-1.9-0.5-3.7-0.5-3.7s-2.6-7-24.3-7C142.8,34.2,142.8,91.7,142.8,91.7z"/>
		<path fill="#C88700" d="M165.7,37.8c-1.8-3-13.4-5.6-16.2-6.6c0,0,14.1,1,17.2,4.7C166.8,35.9,166.4,36.5,165.7,37.8z"/>
		<path fill="#C88700" d="M147.9,40.9c0,0,8.5,0,17.8,3c0.1,1,0,1.4,0,1.4C160.3,43.3,148.1,40.9,147.9,40.9z"/>
		<path fill="#E9CC4F" d="M142.9,91.7h-24.8V64c0,0-0.6-1.2,2.9-4c0-1.3-0.2-2.2-0.2-2.2s-3.3-1.1-3.3-4.8c0-0.7,0-3.1,0-3.7
			c0-2.9,2.5-4,2.5-4v-7.6c0,0-1.8-2.8-1.8-4.7c0-1.9,0.5-3.7,0.5-3.7s2.6-7,24.3-7C142.9,34.2,142.9,91.7,142.9,91.7z"/>
		<path fill="#C88700" d="M142.9,49L142.9,49C142.9,49,142.8,49,142.9,49c-0.1,0-0.1,0-0.1,0v0c-5.8,0-19.2,1.6-25.1,5.4
			c0.7,2.6,3.1,3.4,3.1,3.4c2.8-3,12-5.2,22.1-5.2c8.1,0,19.3,2.2,22.1,5.2c0,0,2.4-0.8,3.1-3.4C162.1,50.6,148.7,49.1,142.9,49z"/>
		<path fill="#C88700" d="M119.9,37.8c1.8-3,13.4-5.6,16.2-6.6c0,0-14.1,1-17.2,4.7C118.9,35.9,119.3,36.5,119.9,37.8z"/>
		<path fill="#C88700" d="M137.8,40.9c0,0-8.5,0-17.8,3c-0.1,1,0,1.4,0,1.4C125.3,43.3,137.5,40.9,137.8,40.9z"/>
		<path opacity="0.6" fill="#C88700" d="M167.6,91.7V64c0,0,0.6-1.2-2.9-4c0-1.3,0.2-2.2,0.2-2.2s3.3-1.1,3.3-4.8c0-0.7,0-3.1,0-3.7
			c0-2.9-2.5-4-2.5-4v-7.6c0,0,1.8-2.8,1.8-4.7c0-1.9-0.5-3.7-0.5-3.7s-1.1-2.9-7.8-5v8.3l-1.1,1.1v7.2l1.2,2.8v7.4l-1.2,3.6v4.8
			l2.4,4.1v28.1H167.6z"/>
		<path opacity="0.6" fill="#C88700" d="M118.6,29.4c0,0-0.5,1.7-0.5,3.7c0,1.9,1.8,4.7,1.8,4.7v7.6c0,0-2.5,1-2.5,4
			c0,0.6,0,3,0,3.7c0,3.7,3.3,4.8,3.3,4.8s0.2,0.8,0.2,2.2c-3.5,2.8-2.9,4-2.9,4v27.7h3.1V63.9l2-4.3v-3.5l-2.4-3.3v-6.7l1.1-1.5
			v-8.6l-1-1.6l0-7.5C119,28.3,118.6,29.4,118.6,29.4z"/>
		<path opacity="0.4" fill="#FFEBB0" d="M158.2,59.5v-4.8l1.2-3.6v-7.4l-1.2-2.8v-7.2l1.1-1.1v-8.3l0,0c-2.7-0.8-6.4-1.5-11.3-1.8
			c0,9.8-0.1,26.8-0.1,26.8L149,53v5.7l1.1,4.5v28.4h10.4V63.9L158.2,59.5z"/>
		<path opacity="0.4" fill="#FFEBB0" d="M121.2,63.9v27.7h12.2V63.2l0.6-3.9v-6.1l-1.2-3.3v-8l0.2-0.7v-9.1l-0.2-0.6
			c0,0,0.2-5.3,0.2-8.6c-6.5,0.9-10.1,2.6-12.1,4l0,7.5l1,1.6v8.6l-1.1,1.5v6.7l2.4,3.3v3.5L121.2,63.9z"/>
		<g opacity="0.9">
			<path fill="#FFFFFF" d="M118.3,62.8c6.7-1.6,15.1-2.6,24.8-2.6c9.3,0,17.5,1,24.1,2.5c-0.4-0.6-1-1.4-2.3-2.4
				c-6.4-1.3-13.8-2-21.8-2c-8.3,0-16,0.8-22.6,2.1C119.3,61.4,118.7,62.2,118.3,62.8z"/>
		</g>
	</g>
</g>
<g id="BRAND">
	<path fill="#FFFFFF" d="M39.5,238h9v38.8h9.2l0,9.8H39.5V238z M67.2,242.5l0,33.1c0,2.3,1,2.3,1.5,2.3c0.5,0,1.6,0,1.6-2.3v-33.1
		h8.9v33.1c0,7-4.3,11.9-10.4,11.9c-6.2,0-10.6-5-10.6-11.9v-33.1H67.2z M81.7,242.5h9v11.5l4-11.5h9.3L97,261.4l7.1,25.2h-9.4
		L91.1,273l-0.3,0.9l0,12.7h-9V242.5z M102.9,271.1h8.5v3.9c0,3.2,1.3,3.2,1.8,3.2c0.5,0,1.7,0,1.7-2.7c0-2.5-1.1-4.3-4.4-7.4
		c-3.4-3.1-7.4-7.6-7.4-13.9c0-7.5,4.2-12.5,10.4-12.5c5.9,0,10,5,10,12v4.1h-8.5l0-4c0-0.9-0.2-2.9-1.6-2.9c-1.3,0-1.4,1.6-1.4,2.2
		c0,2.7,1.1,4.1,4.7,7.5c3.7,3.5,7,7.6,7,14c0,7.6-4.3,12.9-10.4,12.9c-6.4,0-10.5-4.8-10.5-12.1V271.1z M125.3,242.5h9.1v33.1
		c0,2.3,1,2.3,1.5,2.3c0.5,0,1.6,0,1.6-2.3l0-33.1h8.9v33.1c0,7-4.3,11.9-10.4,11.9c-6.2,0-10.6-5-10.6-11.9V242.5z M156.3,271.1
		l0,3.9c0,3.2,1.3,3.2,1.8,3.2c0.5,0,1.7,0,1.7-2.7c0-2.5-1.1-4.3-4.4-7.4c-3.4-3.1-7.4-7.6-7.4-13.9c0-7.5,4.2-12.5,10.3-12.5
		c5.9,0,10,5,10,12.1l0,4.1H160l0-4c0-0.9-0.2-2.9-1.6-2.9c-1.3,0-1.4,1.6-1.4,2.2c0,2.7,1.1,4.1,4.7,7.5c3.7,3.5,7,7.6,7,14
		c0,7.6-4.3,12.9-10.4,12.9c-6.4,0-10.5-4.8-10.5-12.1v-4.3H156.3z M170.2,254.3c0-7.5,4.4-12.7,10.7-12.7c6.4,0,10.7,5.1,10.7,12.7
		v20.5c0,7.6-4.3,12.7-10.7,12.7c-6.3,0-10.7-5.2-10.7-12.7L170.2,254.3z M182.5,253.8c0-1.2-0.3-2.5-1.6-2.5
		c-1.4,0-1.6,1.6-1.6,2.5v21.5c0,0.9,0.2,2.5,1.6,2.5c1.3,0,1.6-1.4,1.6-2.5V253.8z M200.4,242.5l1.7,16.2l2.1-16.2h7.3l1.9,16
		l1.8-16h8.6l-6.4,44.1h-8l-2-14.9l-2.1,14.9h-7.9l-6.2-44.1H200.4z M227.8,242.5h9.3l6.9,44.1h-9.2l-1.1-8.1h-3.1l-1.2,8.1h-8.7
		L227.8,242.5z M231.9,269.5h0.7l-0.4-2.9L231.9,269.5z"/>
	<g id="New_Symbol_13">
	</g>
	<path fill="#231F20" d="M41.2,284.3v-45.6h6v38.8h9.2v6.8H41.2z M68.9,285.3c-5.3,0-9.2-4.3-9.2-10.4l0-31.6h6.1v31.6
		c0,2.4,1.1,3.8,3,3.8c2,0,3.1-1.4,3.1-3.8v-31.6h5.9v31.6C77.9,281,74.2,285.3,68.9,285.3z M96,284.3l-4.5-16.9l-2.1,5.4l0,11.5h-6
		v-41.1h6l0,18.8l6.5-18.8h6.1l-6.4,17.4l6.7,23.8H96z M113.6,285.3c-5.5,0-9-4.2-9-10.6v-2.8h5.6v2.4c0,3,1.1,4.7,3.3,4.7
		c2.1,0,3.2-1.6,3.2-4.1c0-3.3-1.7-5.5-4.9-8.5c-3.3-3-6.9-7.1-6.9-12.9c0-5.9,3-11.1,8.9-11.1c5.1,0,8.5,4.4,8.5,10.6v2.7h-5.5
		v-2.5c0-2.5-1-4.4-3.1-4.4c-1.8,0-2.9,1.4-2.9,3.7c0,3.5,1.6,5.3,5.2,8.6c3.8,3.6,6.6,7.4,6.6,12.9
		C122.6,280.5,119,285.3,113.6,285.3z M136.1,285.3c-5.3,0-9.2-4.3-9.2-10.4v-31.6h6.1v31.6c0,2.4,1.1,3.8,3,3.8
		c2,0,3.1-1.4,3.1-3.8l0-31.6h5.9v31.6C145.1,281,141.4,285.3,136.1,285.3z M158.5,285.3c-5.6,0-9-4.2-9-10.6l0-2.8h5.6v2.4
		c0,3,1.1,4.7,3.3,4.7c2.1,0,3.2-1.6,3.2-4.1c0-3.3-1.7-5.5-4.9-8.5c-3.3-3-6.9-7.1-6.9-12.9c0-5.9,3-11.1,8.9-11.1
		c5.1,0,8.5,4.4,8.5,10.6v2.7h-5.5l0-2.5c0-2.5-1-4.4-3.1-4.4c-1.8,0-2.9,1.4-2.9,3.7c0,3.5,1.6,5.3,5.2,8.6
		c3.8,3.6,6.6,7.4,6.6,12.9C167.5,280.5,163.9,285.3,158.5,285.3z M181,285.3c-5.6,0-9.2-4.7-9.2-11.2v-20.5
		c0-6.5,3.6-11.2,9.2-11.2c5.7,0,9.2,4.7,9.2,11.2V274C190.2,280.6,186.7,285.3,181,285.3z M184.2,253c0-2.4-1.1-4-3.1-4
		c-1.9,0-3.1,1.6-3.1,4l0,21.5c0,2.4,1.1,4,3.1,4c2,0,3.1-1.6,3.1-4L184.2,253z M216.5,284.3h-5.4l-3.3-24.2l-3.5,24.2h-5.4
		l-5.7-41.1h6l2.9,27.2l3.6-27.2h4.7l3.3,27.2l3.1-27.2h5.6L216.5,284.3z M236.4,284.3l-1.1-8.1h-5.7l-1.2,8.1h-5.6l6.5-41.1h6.8
		l6.5,41.1H236.4z M232.5,254.3l-2.2,15.9h4.1L232.5,254.3z"/>
	<g>
		<g>
			<g>
				<defs>
					<path id="SVGID_9_" d="M579,261.4c16.9,7.4,53,23,70.1,33.2c5.5,3.3,12.5,8.3,15.2,15.7V278c-3.1-8-15.1-15.4-34.4-25
						c-16.7-8.3-33.5-15.3-50.8-22.9c-16.9-7.4-53-23-70.1-33.2c-5.5-3.3-12.5-8.3-15.2-15.7v32.3c3.1,8,15.1,15.4,34.4,25
						C544.9,246.8,561.7,253.8,579,261.4"/>
				</defs>
				<clipPath id="SVGID_1_">
					<use xlink:href="#SVGID_9_"  overflow="visible"/>
				</clipPath>
				<g clip-path="url(#SVGID_1_)">
					<defs>
						<rect id="SVGID_11_" x="-52.5" y="-8.8" width="785.2" height="555.2"/>
					</defs>
					<clipPath id="SVGID_2_">
						<use xlink:href="#SVGID_11_"  overflow="visible"/>
					</clipPath>
					<g clip-path="url(#SVGID_2_)">
						<defs>
							<rect id="SVGID_13_" x="-52.4" y="-8.8" width="785.2" height="555.2"/>
						</defs>
						<clipPath id="SVGID_3_">
							<use xlink:href="#SVGID_13_"  overflow="visible"/>
						</clipPath>
						
							<linearGradient id="SVGID_4_" gradientUnits="userSpaceOnUse" x1="-2188.1372" y1="-156.8964" x2="-2187.4778" y2="-156.8964" gradientTransform="matrix(258.586 0 0 -258.586 566315.4375 -40302.3945)">
							<stop  offset="0" style="stop-color:#940621"/>
							<stop  offset="4.773683e-002" style="stop-color:#9E0924"/>
							<stop  offset="0.2014" style="stop-color:#B8102D"/>
							<stop  offset="0.3395" style="stop-color:#C71433"/>
							<stop  offset="0.4479" style="stop-color:#CD1635"/>
							<stop  offset="0.6177" style="stop-color:#CA1534"/>
							<stop  offset="0.7505" style="stop-color:#C01230"/>
							<stop  offset="0.8707" style="stop-color:#AF0E2B"/>
							<stop  offset="0.9828" style="stop-color:#980722"/>
							<stop  offset="1" style="stop-color:#940621"/>
						</linearGradient>
						<rect x="-52.4" y="-8.8" clip-path="url(#SVGID_3_)" fill="url(#SVGID_4_)" width="785.2" height="555.2"/>
					</g>
				</g>
			</g>
			<g>
				<defs>
					<path id="SVGID_16_" d="M629.9,253c-16.7-8.3-33.5-15.3-50.8-22.9c-16.9-7.4-53-23-70.1-33.2c-5.5-3.3-12.5-8.3-15.2-15.7v3.9
						c2.2,4.8,6,9.4,13.1,13.7c17,10.3,53.2,25.8,70.1,33.2c17.2,7.6,34,14.7,50.8,22.9c12,5.8,21.6,11.4,26.3,14.7
						c5.2,3.7,8.2,6.8,10.2,12.2V278C661.2,270,649.2,262.6,629.9,253"/>
				</defs>
				<clipPath id="SVGID_5_">
					<use xlink:href="#SVGID_16_"  overflow="visible"/>
				</clipPath>
				<g clip-path="url(#SVGID_5_)">
					<defs>
						<rect id="SVGID_18_" x="-52.5" y="-8.8" width="785.2" height="555.2"/>
					</defs>
					<clipPath id="SVGID_6_">
						<use xlink:href="#SVGID_18_"  overflow="visible"/>
					</clipPath>
					<g clip-path="url(#SVGID_6_)">
						<defs>
							<rect id="SVGID_20_" x="-52.4" y="-8.8" width="785.2" height="555.2"/>
						</defs>
						<clipPath id="SVGID_7_">
							<use xlink:href="#SVGID_20_"  overflow="visible"/>
						</clipPath>
						
							<linearGradient id="SVGID_8_" gradientUnits="userSpaceOnUse" x1="-2188.1372" y1="-156.9805" x2="-2187.4778" y2="-156.9805" gradientTransform="matrix(258.586 0 0 -258.586 566315.4375 -40324.1289)">
							<stop  offset="0" style="stop-color:#C41432"/>
							<stop  offset="0.5" style="stop-color:#BA122F"/>
							<stop  offset="1" style="stop-color:#C41432"/>
						</linearGradient>
						<rect x="-52.4" y="-8.8" clip-path="url(#SVGID_7_)" fill="url(#SVGID_8_)" width="785.2" height="555.2"/>
					</g>
				</g>
			</g>
			<g>
				<defs>
					<path id="SVGID_23_" d="M651.2,292.8c-17-10.3-53.2-25.8-70.1-33.2c-17.2-7.6-34.3-14.9-50.7-22.9c-12-5.8-23-12.2-27.1-15.2
						c-4.3-3.3-7.4-6-9.5-11.7v3.7c3.1,8,15.1,15.4,34.4,25c16.7,8.3,33.5,15.3,50.8,22.9c16.9,7.4,53,23,70.1,33.2
						c5.5,3.3,12.5,8.3,15.2,15.7v-3.9C662.1,301.7,658.3,297.1,651.2,292.8"/>
				</defs>
				<clipPath id="SVGID_10_">
					<use xlink:href="#SVGID_23_"  overflow="visible"/>
				</clipPath>
				<g clip-path="url(#SVGID_10_)">
					<defs>
						<rect id="SVGID_25_" x="-52.5" y="-8.8" width="785.2" height="555.2"/>
					</defs>
					<clipPath id="SVGID_12_">
						<use xlink:href="#SVGID_25_"  overflow="visible"/>
					</clipPath>
					<g clip-path="url(#SVGID_12_)">
						<defs>
							<rect id="SVGID_27_" x="-52.4" y="-8.8" width="785.2" height="555.2"/>
						</defs>
						<clipPath id="SVGID_14_">
							<use xlink:href="#SVGID_27_"  overflow="visible"/>
						</clipPath>
						
							<linearGradient id="SVGID_15_" gradientUnits="userSpaceOnUse" x1="-2188.1372" y1="-156.8123" x2="-2187.4778" y2="-156.8123" gradientTransform="matrix(258.586 0 0 -258.586 566315.4375 -40280.6484)">
							<stop  offset="0" style="stop-color:#C41432"/>
							<stop  offset="0.5" style="stop-color:#BA122F"/>
							<stop  offset="1" style="stop-color:#C41432"/>
						</linearGradient>
						<rect x="-52.4" y="-8.8" clip-path="url(#SVGID_14_)" fill="url(#SVGID_15_)" width="785.2" height="555.2"/>
					</g>
				</g>
			</g>
		</g>
	</g>
</g>
</svg>
