<?xml version="1.0" encoding="utf-8"?>
<!-- Generator: Adobe Illustrator 19.1.1, SVG Export Plug-In . SVG Version: 6.00 Build 0)  -->
<svg version="1.1" xmlns="http://www.w3.org/2000/svg" xmlns:xlink="http://www.w3.org/1999/xlink" x="0px" y="0px"
	 viewBox="0 0 284.1 396.9" enable-background="new 0 0 284.1 396.9" xml:space="preserve">
<g id="bg_yellow">
</g>
<g id="Layer_3">
	<g id="Ballantine_x27_s">
	</g>
</g>
<g id="Layer_1">
	<g id="wyborowa01">
	</g>
	<g id="jacobs_x5F_creek">
	</g>
</g>
<g id="lable">
	<g>
		<g>
			<path fill="#FF931F" d="M157.8,29.1h-32.1l-0.7-1.2c-1.5-2.4-2.3-5.7-2.3-9c0-10.5,8.6-19,19.1-19s19.1,8.5,19.1,19
				c0,3.3-0.9,6.6-2.3,8.9L157.8,29.1z M128.6,24.1h26.3c0.6-1.5,1-3.3,1-5.1c0-7.7-6.3-14-14.1-14c-7.8,0-14.1,6.3-14.1,14
				C127.6,20.8,127.9,22.7,128.6,24.1z"/>
		</g>
	</g>
	<g>
		<g>
			<path fill="#DC7907" d="M141.7,5.4c7.5,0,13.6,6.1,13.6,13.6c0,1.7-0.3,3.3-0.9,4.8h-16.2H129c-0.6-1.5-0.9-3.1-0.9-4.8
				C128.1,11.5,134.2,5.4,141.7,5.4 M141.7,2.4c-9.2,0-16.6,7.4-16.6,16.6c0,2.8,0.7,5.5,2,7.8h11.2h18.2c1.2-2.3,2-5,2-7.8
				C158.3,9.8,150.9,2.4,141.7,2.4L141.7,2.4z"/>
		</g>
	</g>
	<g>
		<path fill="#E9ECEE" d="M142,396.9c-38,0-73.7-14.7-100.4-41.5C14.8,328.6,0.1,292.9,0,254.9c0-31.7,10.1-61.6,29.3-86.7
			c18.6-24.3,45.1-42.1,74.4-50.4c5-1.4,8.4-5.8,8.4-10.8v-4.9c0-2.4,1.8-4.2,4-4.3v0c0.5,0,1-0.4,1-0.7v-8.8h51v8.7
			c0,0.4,0.2,0.8,0.7,0.8v0c2.4,0.1,4.3,2,4.3,4.2v5.2c0,5.1,3.2,9.4,7.9,10.8l0,0c29.3,8.3,55.5,26.2,74,50.4
			c19,24.9,29,54.7,29,86.3C284.1,333.1,220.4,396.9,142,396.9z M117.2,102.8v4.3c0,7.2-5,13.6-12.1,15.6
			C46.1,139.3,4.9,193.6,5,254.9c0.1,75.5,61.6,137,137,137c75.6,0,137-61.5,137-137.2c0-61-40.9-115.3-99.4-131.9l0,0
			c-6.9-2-11.5-8.2-11.5-15.6v-4.4c-2.9-0.3-5-2.7-5-5.8v-3.7h-41v3.8C122.2,100,120,102.4,117.2,102.8z"/>
	</g>
	<g opacity="0.1">
		<path fill="#E9ECEE" d="M180.1,120.4c-2.3-0.7-4.3-1.9-5.9-3.5c1.3,1.8,3.1,3.3,5.2,4.3c56.2,26.9,89.6,88.1,78.7,152.1
			c-12.1,70.7-74.2,120.3-143.9,118.3c9,1.8,18.3,2.8,27.8,2.8c77.1,0,139.5-62.5,139.5-139.7C281.4,191,239,137.2,180.1,120.4z"/>
	</g>
	<g>
		<g>
			<rect x="115.2" y="88.4" fill="#1C2051" width="54" height="4"/>
		</g>
		<g>
			<rect x="114.2" y="91.4" fill="#202274" width="56" height="5"/>
		</g>
		<g>
			<path fill="#C0C0C0" d="M167.1,23.4h-49.7c-1.7,0-3.1,1.8-3.1,3.5v62.5h56V26.9C170.2,25.2,168.8,23.4,167.1,23.4z"/>
		</g>
	</g>
	<g opacity="0.1">
		<path fill="#E9ECEE" d="M141.5,353.9c-48.8,0-93.3-15.6-126.6-41.3c21.9,48.3,70.5,81.8,127.1,81.8c56.9,0,105.7-34,127.4-82.8
			C235.9,337.8,190.9,353.9,141.5,353.9z"/>
	</g>
	<g opacity="0.1">
		<g>
			<path fill="#FFFFFF" d="M37.3,296.4c-24.1-59.4-4.6-125.5,43.9-163c2.2-1.7,3.7-3.9,4.6-6.4c-49.3,21.7-83.4,70.9-83.4,128
				C2.5,332.1,64.8,394.4,142,394.4c25,0,48.4-6.6,68.7-18.1C141.2,399.5,65.2,365.1,37.3,296.4z"/>
		</g>
	</g>
	<g opacity="0.1">
		<ellipse fill="#E9ECEE" cx="141.4" cy="165.8" rx="70.6" ry="34.1"/>
	</g>
	<g opacity="0.2">
		<path d="M128.2,23.4h-10.9c-1.7,0-3.1,1.8-3.1,3.5v62.5h1v2h-1v5h14V23.4z"/>
	</g>
	<g opacity="0.5">
		<rect x="144.2" y="23.4" fill="#FFFFFF" width="9" height="73"/>
	</g>
	<g opacity="0.2">
		<path fill="#D3EBFF" d="M141.8,275.4c-73.6,0-133.9-6-139.9-13.7c3.3,74.3,64.3,133.2,139.4,133.2c74.6,0,135.3-58.5,139.2-132.2
			C270,269.9,211.9,275.4,141.8,275.4z"/>
	</g>
	<g opacity="0.4">
		<ellipse fill="#D3EBFF" cx="142.8" cy="260.4" rx="140.4" ry="15"/>
	</g>
	<g>
		<g enable-background="new    ">
			<g>
				<g>
					<path fill="#FFFFFF" d="M281.9,254.7c0,9.7-1,19.2-2.9,28.4c-1.9,9.2-4.7,18-8.3,26.4c-3.6,8.4-8,16.4-13.1,23.8
						c-5.1,7.5-10.9,14.4-17.4,20.7c2.3-2.2,5.2-5.4,7.3-7.8c2.1-2.4,4.7-5.8,6.7-8.3c2-2.5,4.3-6.2,6.1-8.8
						c4.7-6.9,10.1-18.9,10.1-19c1.3-3,2.9-7.1,3.9-10.1c1.1-3.1,2.2-7.4,3.2-10.5c1-3.2,1.7-7.6,2.3-10.8c0.8-3.7,1.3-8.7,1.6-12.5
						C281.7,262.7,281.7,258.2,281.9,254.7z"/>
				</g>
			</g>
			<g>
				<g>
					<path fill="#FFFFFF" d="M240.1,155.4c6.4,6.3,12.3,13.2,17.4,20.7c5.1,7.5,9.5,15.4,13.1,23.8c3.6,8.4,6.4,17.2,8.3,26.4
						c1.9,9.2,2.9,18.7,2.9,28.4c0-12.8-1.8-22.5-1.8-22.6c-0.7-3.3-1.3-7.7-2.2-10.9c-0.9-3.2-2-7.4-3.1-10.5
						c-1-3.1-2.6-7.2-3.8-10.2c-1.3-3-3-7-4.6-9.8c-3.2-5.6-7.7-12.9-11.3-18.2c-2-3-5.1-6.6-7.5-9.3
						C245.4,160.8,242.4,157.7,240.1,155.4z"/>
				</g>
			</g>
			<g enable-background="new    ">
				<defs>
					<path id="SVGID_10_" enable-background="new    " d="M240.2,354c-6.3,6.2-13.1,11.7-20.5,16.6c-7.4,4.9-15.2,9.1-23.4,12.6
						c-8.2,3.4-16.9,6.1-25.8,7.9c-9,1.8-18.2,2.8-27.7,2.8c9.5,0,18.7-0.9,27.7-2.8c9-1.8,17.6-4.5,25.8-7.9
						c8.2-3.4,16.1-7.7,23.4-12.6C227,365.8,233.9,360.2,240.2,354c-4.3,4-10.2,9.2-14.9,12.7c-5.1,3.7-12.2,8.3-17.8,11.2
						c-7.2,3.7-20.7,10.3-40.2,13.8c-3.3,0.6-7.6,1.2-10.9,1.5c-2.2,0.2-3.9,0.4-6.3,0.5c-4,0.2-6.9,0.2-6.9,0.2c-0.3,0-0.7,0-1,0
						c-0.4,0-1,0-1.4-0.1c-2.7-0.1-6.4-0.4-9.5-0.6c-7.5-0.6-11.2-1.2-11.9-1.3c-0.7-0.1-1.7-0.3-2.4-0.4c-3.1-0.7-7.3-1.6-10.3-2.4
						c-6.4-1.6-15.7-5-20.2-7.2c-7.9-3.7-12.2-5.9-18.9-10.2c-7.9-5.1-13.8-10.1-17-12.9c-4.8-4.2-9.8-9.3-14.9-15.4
						c-2-2.5-4.7-5.8-6.5-8.5c-1.8-2.7-4.2-6.2-5.9-9c-1.7-2.8-3.7-6.6-5.2-9.5c-1.4-2.9-3.2-6.9-4.4-9.9c-1.2-3-2.7-7.2-3.7-10.3
						c-1-3.2-2.1-7.4-2.9-10.6c-1.3-5.8-2.6-13.6-3-19.6c-0.2-3.4-0.5-8-0.5-11.4c0-3.4,0.2-8,0.5-11.4c0.3-3.4,0.7-7.9,1.4-11.2
						c0.7-3.3,1.4-7.6,2.2-10.9c0.8-3.2,1.9-7.5,3.1-10.6c2.3-6.1,5.5-14.2,8.5-20c5.5-10.5,11.3-18.2,11.3-18.2
						c7.8-9.9,8.4-10.7,13.9-16.2c6.4-6.3,12.4-11.1,16.3-13.9c2.2-1.6,8.9-6.5,18.4-11.4c5.7-3,13.8-6.1,19.9-8.4
						c3.3-1.2,7.8-2.4,11.2-3.2c3.2-0.8,7.4-1.6,10.7-2.1c1.4-0.2,4.6-0.7,10.6-1.1c3.6-0.3,6.8-0.4,6.9-0.4
						c1.2-0.1,2.3-0.1,3.5-0.2c1,0,1.7,0,1.7,0h0c0.5,0,0.9,0,1.4,0c1.2,0,2.3,0.1,2.6,0.1c4,0.1,7.4,0.4,9,0.6
						c2.8,0.3,6.5,0.9,9.3,1.3c3.2,0.4,7.4,1.5,10.5,2.2c6.2,1.4,14.3,4.2,20.2,6.8c5.8,2.5,13.5,6.1,18.8,9.7
						c2.6,1.7,6.3,3.9,8.8,5.8c5,3.9,11.4,9.3,16,13.5v0c-6.3-6.2-13.1-11.7-20.5-16.6c-7.4-4.9-15.2-9.1-23.4-12.6
						c-8.2-3.4-16.9-6.1-25.8-7.9c-9-1.8-18.2-2.8-27.7-2.8c9.5,0,18.7,0.9,27.7,2.8c9,1.8,17.6,4.5,25.8,7.9
						c8.2,3.4,16.1,7.7,23.4,12.6c7.4,4.9,14.2,10.5,20.5,16.6c9.6,9.5,14.8,17,14.8,17.1c3.6,5.3,8.1,12.6,11.3,18.2
						c1.6,2.8,3.3,6.8,4.6,9.8c1.3,3,2.8,7.1,3.8,10.2c1,3.1,2.1,7.4,3.1,10.5c0.9,3.2,1.6,7.6,2.2,10.9c0,0.1,1.8,9.8,1.8,22.6
						c0,13.6-2,23.8-2,23.9c-0.7,3.3-1.4,7.7-2.3,10.8c-0.9,3.2-2.1,7.4-3.2,10.5c-1.1,3.1-2.7,7.1-3.9,10.1
						c-2.8,6.8-7.8,15.7-10.1,19c-1.8,2.7-4.1,6.3-6.1,8.8C250.2,342.9,244.6,349.4,240.2,354z"/>
				</defs>
				<clipPath id="SVGID_2_">
					<use xlink:href="#SVGID_10_"  overflow="visible"/>
				</clipPath>
			</g>
			<g enable-background="new    ">
				<defs>
					<path id="SVGID_12_" enable-background="new    " d="M142.6,393.9c-1.3,0-12.2-0.5-21.1-1.7c-2.1-0.3-3.6-0.5-3.8-0.6
						c-3.1-0.6-7.3-1.4-10.4-2.3c-3.3-1-7.7-2.2-11-3.4c-3.1-1.1-7.1-2.7-10.1-4c-10.8-4.8-18.9-10.2-19-10.3
						c-8.3-5.6-11.5-8-17.1-13c-3.2-2.8-8.9-8.1-14.9-15.4c-13.2-15.9-19.2-30.1-22-36.8c-0.9-2.3-4.2-10.5-6.5-20.9
						c-0.7-3.3-1.6-7.6-2-10.9c-0.5-3.4-0.9-7.8-1.2-11.2c-0.4-6.1-0.4-14.2,0.2-20.2c0.3-3.4,0.8-7.8,1.4-11.2
						c0.5-3.3,1.6-7.6,2.2-10.9c0.7-3.2,1.9-7.5,3.1-10.6c1.2-3.1,2.6-7.2,3.9-10.2c1.3-3,3-7,4.6-9.8c1.6-2.8,3.6-6.6,5.3-9.4
						c1.7-2.7,4.1-6.3,6-8.9c6.9-9.5,13.7-16,13.9-16.2c4.6-4.4,11.2-9.9,16.2-13.9c2.5-2,6.2-4.2,8.9-6c0.7-0.5,9.4-5.9,19.1-9.9
						c3-1.3,7.1-2.9,10.3-3.9c6-1.8,14.1-3.8,20.2-5.1c0,0,1.9-0.3,4-0.6c1.2-0.1,2.8-0.3,6.2-0.6c5.5-0.5,11.9-0.8,13.4-0.8
						c0.1,0,0.3,0,0.4,0c0.6,0,1.2,0,1.8,0c2.3,0,3.9,0.1,5.1,0.2c2.2,0.1,3.6,0.2,6.3,0.5c3.3,0.3,7.7,0.8,10.9,1.5
						c12.8,2.7,16.9,3.7,30.6,9.3c5.9,2.4,13.4,6.3,18.7,9.8c2.6,1.8,6.2,4,8.7,5.9c4.6,3.6,10.6,8.7,14.9,12.7
						c6.4,6.3,12.3,13.2,17.4,20.7c5.1,7.5,9.5,15.4,13.1,23.8c3.6,8.4,6.4,17.2,8.3,26.4c1.9,9.2,2.9,18.7,2.9,28.4
						c0,9.7-1,19.2-2.9,28.4c-1.9,9.2-4.7,18-8.3,26.4c-3.6,8.4-8,16.4-13.1,23.8c-5.1,7.5-10.9,14.4-17.4,20.7l0,0
						c-4.6,4.2-11.1,9.6-16,13.5c-2.5,1.9-6.1,4.1-8.8,5.8c-5.3,3.5-13,7.2-18.8,9.7c-5.9,2.5-14,5.4-20.2,6.8
						c-3.2,0.7-7.3,1.8-10.5,2.2c-2.8,0.4-6.5,1-9.3,1.3c-1.4,0.1-5.5,0.5-10.4,0.6c-0.7,0-1.4,0-2.1,0
						C143.5,393.9,143.1,393.9,142.6,393.9z"/>
				</defs>
				<clipPath id="SVGID_4_">
					<use xlink:href="#SVGID_12_"  overflow="visible"/>
				</clipPath>
				<g clip-path="url(#SVGID_4_)">
					<g>
						<path fill="#000034" d="M60.8,229.5c-2,0-4,0-5.9,0C51.4,247.3,51,260.6,51,267c0-0.1-2.5-16.5-1.7-37.4c-1.9,0-3.9,0-5.8,0
							c-3.9,20-3.7,33.1-3.6,37.4c0-0.1-2.6-16.7-1.3-37.4c-1.6,0-3.1,0-4.7,0c-0.6,4.3-2.8,27.4,6.8,61.5c1.5,0,3.1,0,4.6,0
							c-1.3-12.6-1.2-21.2-0.6-36.4c0.9,5.7,1.1,11.4,2.1,17.1c1.7,9.4,3.5,16.3,4.4,19.3c1.7,0,3.5,0,5.2,0
							C55,270,56.3,251.5,60.8,229.5"/>
					</g>
					<g>
						<path fill="#000034" d="M84.8,229.4c-2.4,0-4.8,0-7.2,0c-3.1,12.4-3.8,17.5-4,19.6c-0.3-0.7-2.1-19.4-2.1-19.6
							c-2.3,0-4.7,0-7,0c0.1,1.9,0.5,6.3,1.1,10.9c1.2,9.4,3.8,18.6,4.3,28.1c0.3,6.6,0.9,13,1.8,19.6c0.1,1,0.3,2.2,0.4,3.2
							c2.5,0,4.9,0,7.4,0C76.2,264.8,75.9,262.7,84.8,229.4"/>
					</g>
					<g>
						<path fill="#000034" d="M96.7,283.5c-0.5-7.6-0.8-13.8-1-21.7c3.2,0,3.9,5.6,4.1,7.4c0.9,7.7-0.2,12.6-1.6,13.9
							C97.8,283.5,97.7,283.5,96.7,283.5 M95.6,253.7c0-6,0.1-10.8,0.4-16.7c1.6,0,2.5,2.1,2.7,6.4c0.2,4.4-0.6,8.7-1.9,10
							C96.5,253.7,96.5,253.7,95.6,253.7 M97.1,229.4c-2.7,0-5.4,0-8.1,0c-1.4,21.9-1.1,40.4,1.1,61.8c11.8,0,14.2,0,16.7-6
							c3.8-9.2,1.7-23.1-2.8-27.2c-0.2-0.2-0.5-0.4-0.8-0.6c4.9-3.9,6.4-26.7-5-28C97.9,229.4,97.4,229.4,97.1,229.4"/>
					</g>
					<g>
						<path fill="#000034" d="M126.8,282.4c-4.3-1.3-4.8-41.6-0.6-44.1c3.8-2.2,4.1,33.5,2,41.6
							C127.8,282.1,127.2,282.4,126.8,282.4 M126.8,228.7c-19.1,1.7-13.5,53.6-5.3,60.9c5.5,4.9,19.9,5.5,17.6-35.9
							C137.7,229.2,129.5,228.9,126.8,228.7"/>
					</g>
					<g>
						<path fill="#000034" d="M155.8,255.9c0-6.5,0-11.8-0.1-18.3c0.9,0,2.9,0,3.4,6.1c0.6,6.1-0.5,10.6-1.8,11.8
							C156.9,255.9,156.9,255.9,155.8,255.9 M157,229.3c-3.5,0-6.9,0-10.4,0c0.1,21.7,0.1,40.2-0.1,61.9c2.9,0,5.9,0,8.8,0
							c0.2-8.7,0.3-16.5,0.4-26.3c0.2,0,0.4,0,0.6,0c1.3,5,5,26.1,5,26.3c2.9,0,5.8,0,8.7,0c-1.6-9.8-3.2-18.7-5.5-30.4
							C171.2,252,169.1,229.7,157,229.3"/>
					</g>
					<g>
						<path fill="#000034" d="M185.7,282.4c-1.1-0.4-2.2-3-2.1-19.4c0.1-15.4,0.9-23.7,2.3-24.6c3.4-2.1,4.7,25.8,1.8,39.3
							C187.1,280.7,186.4,282.4,185.7,282.4 M185.8,228.8c-4.8,0.5-9.4,3.4-10.8,21.7c-0.4,5.7-2.2,34.2,6,40
							c12.4,8.8,20.2-20.7,15.8-45.9C195,234.4,191.1,228.8,185.8,228.8"/>
					</g>
					<g>
						<path fill="#000034" d="M200.7,229.4c4.2,21.9,6,40.9,5.9,61.8c2,0,4,0,6,0c5.3-21.5,5.9-32.8,6.1-36.5
							c0,0.1,1.7,17.6,0.8,36.5c1.9,0,3.7,0,5.6,0c5.6-21.6,7.9-40,7.7-61.7c-1.9,0-3.9,0-5.8,0c0.4,16-0.8,26.9-1.9,37.5
							c-0.1-0.4-0.1-1-0.1-1.5c-0.1-13-2.2-26.8-3.9-36c-2.3,0-4.6,0-6.8,0c0,13-0.7,22.5-2.2,37.5c-0.1-0.5-0.2-1.1-0.2-1.5
							c-0.1-3.8-0.3-15.5-4-36C205.5,229.4,203.1,229.4,200.7,229.4"/>
					</g>
					<g>
						<path fill="#000034" d="M243.6,269c-0.7,0-1.3,0-2,0c0-0.1,1.5-11.6,1.4-17.6c0,0,0.1,0,0.1,0
							C243.1,251.4,243.7,259.2,243.6,269 M239,229.6c0.5,21.7-1.6,40.1-7.3,61.6c1.9,0,3.7,0,5.6,0c1.3-5.1,2.2-9.2,3.2-14.4
							c0.9,0,1.9,0,2.8,0c-0.3,5.2-0.7,9.4-1.3,14.4c1.8,0,3.5,0,5.3,0c2.5-21.2,1.7-39.6-2.8-61.5
							C242.6,229.6,240.8,229.6,239,229.6"/>
					</g>
					<g>
						<path fill="#000034" d="M251.3,232.1c0-0.1,0-0.2,0-0.3c0-0.1,0-0.2,0-0.3c0-0.1,0-0.2,0-0.3c0-0.1,0-0.2,0-0.3
							c0,0,0.1,0,0.1,0c0,0,0.1,0,0.1,0s0.1,0,0.1,0c0,0,0.1,0,0.1,0c0.8,0,0.8,0.9,0.5,1.1c-0.1,0.1-0.3,0.1-0.4,0.1
							c0,0-0.1,0-0.1,0c0,0-0.1,0-0.1,0C251.5,232.1,251.4,232.1,251.3,232.1C251.4,232.1,251.3,232.1,251.3,232.1 M251.5,230.4
							c-0.1,0-0.1,0-0.2,0s-0.1,0-0.2,0s-0.1,0-0.2,0s-0.1,0-0.2,0c0,0.3,0.1,0.6,0.1,1c0,0.3,0.1,0.6,0.1,1s0.1,0.6,0.1,1
							c0,0.3,0.1,0.6,0.1,1c0,0,0.1,0,0.1,0c0,0,0.1,0,0.1,0c0,0,0.1,0,0.1,0c0,0,0.1,0,0.1,0c0-0.1,0-0.3,0-0.4s0-0.3,0-0.4
							c0-0.1,0-0.3-0.1-0.4s0-0.3-0.1-0.4l0.4,0l0.7,1.6c0,0,0.1,0,0.1,0s0.1,0,0.1,0c0,0,0.1,0,0.1,0c0,0,0.1,0,0.1,0
							c-0.2-0.5-0.5-1.2-0.7-1.8c0.7-0.3,0.5-1.7-0.3-2C251.7,230.4,251.6,230.4,251.5,230.4 M252.1,235.3c-2-0.1-2.8-4.4-1.4-5.6
							c1.1-1,3,0.9,2.8,3.6C253.4,234.3,252.9,235.3,252.1,235.3 M251.2,229c-2.1,0.1-1.9,4.7-0.2,6.3c1.3,1.2,2.7,0,2.7-2.2
							C253.7,230.9,252.5,229,251.2,229"/>
					</g>
				</g>
			</g>
		</g>
	</g>
	<g id="New_Symbol_1">
	</g>
</g>
<g id="BRAND">
</g>
<g id="Layer_2">
</g>
</svg>
