<?xml version="1.0" encoding="utf-8"?>
<!-- Generator: Adobe Illustrator 19.1.1, SVG Export Plug-In . SVG Version: 6.00 Build 0)  -->
<svg version="1.1" id="Layer_1" xmlns="http://www.w3.org/2000/svg" xmlns:xlink="http://www.w3.org/1999/xlink" x="0px" y="0px"
	 viewBox="0 0 84.7 118.9" style="enable-background:new 0 0 84.7 118.9;" xml:space="preserve">
<style type="text/css">
	.st0{fill:none;stroke:#F89926;stroke-width:5;stroke-miterlimit:10;}
	.st1{fill:#E17A26;}
	.st2{fill:none;stroke:#F0F2F4;stroke-width:3;stroke-miterlimit:10;}
	.st3{opacity:0.1;fill:#F0F2F4;}
	.st4{fill:#1F2151;}
	.st5{fill:#2C2C70;}
	.st6{fill:#C7C6C6;}
	.st7{opacity:0.1;}
	.st8{fill:#FFFFFF;}
	.st9{opacity:0.2;fill:#010101;}
	.st10{opacity:0.5;fill:#FFFFFF;}
	.st11{opacity:0.2;fill:#DAF1FD;}
	.st12{opacity:0.4;fill:#DAF1FD;}
	.st13{enable-background:new    ;}
	.st14{clip-path:url(#SVGID_4_);}
	.st15{fill:#233D7A;}
	.st16{fill:#BCBAB8;}
</style>
<g>
	<g>
		<path class="st0" d="M46.8,9.1c0.4,0,0.6-1.1,0.6-1.9c0-2.7-2.2-4.7-4.9-4.7c-2.7,0-4.9,1.9-4.9,4.6c0,0.8,0.2,2,0.6,2H46.8z"/>
		<g>
			<path class="st1" d="M42.6,5.4c0.8,0,1.4,1.2,1.7,1.2h-2.8h-0.7C41.1,6.6,41.8,5.4,42.6,5.4 M42.6,2.7c-2.7,0-4.9,2.1-4.9,4.7
				c0,0.8,0.2,2.2,0.6,2.2h3.3h5.3c0.4,0,0.6-1.3,0.6-2.2C47.4,4.7,45.2,2.7,42.6,2.7L42.6,2.7z"/>
		</g>
		<path class="st2" d="M53.6,37.1c-1.7-0.5-2.9-2.1-2.9-3.9v-1.5c0-0.3-0.2-0.5-0.5-0.5l0,0c-0.5,0-1-0.4-1-1v-2H35.7v2
			c0,0.5-0.4,0.9-0.9,0.9l0,0c-0.3,0-0.5,0.2-0.5,0.5v1.4c0,1.8-1.2,3.4-2.9,3.9C14.1,41.9,1.5,57.8,1.5,76.5
			c0,22.6,18.3,40.9,40.9,40.9c22.6,0,40.8-18.3,40.8-40.9C83.2,57.8,70.8,42,53.6,37.1z"/>
		<path class="st3" d="M53.6,37.1c-0.7-0.2-1.3-0.6-1.7-1c0.4,0.5,0.9,1,1.5,1.3c16.5,7.9,26.2,25.8,23,44.6
			c-3.5,20.7-21.7,35.2-42.1,34.6c2.6,0.5,5.3,0.8,8.1,0.8c22.6,0,40.8-18.3,40.8-40.9C83.2,57.8,70.8,42,53.6,37.1z"/>
		<g>
			<rect x="34.5" y="27.8" class="st4" width="15.9" height="1"/>
			<rect x="34.3" y="28.6" class="st5" width="16.4" height="1.5"/>
			<path class="st6" d="M47.5,8.8H37.4c-1.7,0-3.1,1.4-3.1,3.1v16.2h16.4V11.9C50.7,10.2,49.3,8.8,47.5,8.8z"/>
		</g>
		<path class="st3" d="M42.2,105.5c-14.3,0-27.3-4.6-37.1-12.1c6.4,14.1,20.7,24,37.2,24c16.7,0,31-10,37.3-24.3
			C69.9,100.8,56.7,105.5,42.2,105.5z"/>
		<g class="st7">
			<path class="st8" d="M11.7,88.7c-7.1-17.4-1.3-36.8,12.9-47.8c0.6-0.5,1.1-1.2,1.3-1.9C11.5,45.4,1.5,59.8,1.5,76.5
				c0,22.6,18.3,40.9,40.9,40.9c7.3,0,14.2-1.9,20.1-5.3C42.2,118.9,19.9,108.8,11.7,88.7z"/>
		</g>
		<ellipse class="st3" cx="42.2" cy="50.4" rx="20.7" ry="10"/>
		<path class="st9" d="M38.4,8.6h-3.2c-0.5,0-0.8,0.6-0.8,1.1v18l0,0v0.8l0,0v1.1h4V8.6z"/>
		<rect x="43.4" y="8.6" class="st10" width="2" height="21"/>
		<path class="st11" d="M42.3,82.5c-21.6,0-39.2-1.8-41-4c1,21.8,18.8,39,40.8,39c21.9,0,39.6-17.1,40.8-38.7
			C79.9,80.9,62.9,82.5,42.3,82.5z"/>
		<ellipse class="st12" cx="42.6" cy="78.1" rx="41.1" ry="4.4"/>
	</g>
	<g>
		<g class="st13">
			<g>
				<path class="st8" d="M83.4,76.5c0,2.9-0.3,5.7-0.9,8.4c-0.6,2.7-1.4,5.3-2.4,7.8c-1.1,2.5-2.4,4.8-3.9,7
					c-1.5,2.2-3.2,4.3-5.1,6.1c0.7-0.7,1.5-1.6,2.2-2.3c0.6-0.7,1.4-1.7,2-2.5c0.6-0.7,1.3-1.8,1.8-2.6c0.5-0.8,1.1-1.9,1.6-2.8
					c0.4-0.9,1-2,1.4-2.9c0.4-0.9,0.8-2.1,1.2-3c0.3-0.9,0.6-2.2,0.9-3.1c0.3-0.9,0.5-2.2,0.7-3.2c0.2-1,0.4-2.5,0.4-3.5
					C83.3,78.8,83.3,77.5,83.4,76.5z"/>
			</g>
			<g>
				<path class="st8" d="M71.1,47.2c1.9,1.9,3.6,3.9,5.1,6.1c1.5,2.2,2.8,4.6,3.9,7c1.1,2.5,1.9,5.1,2.4,7.8
					c0.6,2.7,0.9,5.5,0.9,8.4c0-3.8-0.5-6.7-0.5-6.7c-0.2-1-0.4-2.3-0.7-3.2c-0.3-0.9-0.6-2.2-0.9-3.1c-0.3-0.9-0.8-2.1-1.1-3
					c-0.4-0.9-0.9-2.1-1.4-2.9c-0.9-1.7-2.3-3.8-3.4-5.4c-0.6-0.8-1.5-1.9-2.1-2.7C72.7,48.7,71.8,47.8,71.1,47.2z"/>
			</g>
			<g class="st13">
				<defs>
					<path id="SVGID_1_" class="st13" d="M71.1,105.8c-1.9,1.8-3.9,3.5-6.1,5c-2.2,1.5-4.5,2.7-7,3.8c-2.5,1-5,1.8-7.7,2.4
						c-2.7,0.5-5.4,0.8-8.2,0.8c2.8,0,5.6-0.3,8.2-0.8c2.7-0.5,5.2-1.3,7.7-2.4c2.5-1,4.8-2.3,7-3.8
						C67.2,109.3,69.3,107.6,71.1,105.8c-1.3,1.2-3.1,2.8-4.5,3.8c-1.5,1.1-3.6,2.5-5.3,3.3c-2.5,1.3-6.4,3.1-11.9,4.1
						c-1,0.2-2.3,0.4-3.2,0.5c-0.7,0.1-1.2,0.1-1.9,0.1c-1.2,0.1-2.1,0.1-2.1,0.1c-0.1,0-0.2,0-0.3,0c-0.1,0-0.3,0-0.4,0
						c-0.8,0-1.9-0.1-2.8-0.2c-2.2-0.2-3.3-0.4-3.5-0.4c-0.2,0-0.5-0.1-0.7-0.1c-0.9-0.2-2.1-0.5-3.1-0.7c-0.9-0.2-2.1-0.6-3-0.9
						c-0.9-0.3-2.1-0.8-3-1.2c0,0-2.6-1.1-5.6-3c-2.4-1.5-4.1-3-5-3.8c-1.4-1.3-2.9-2.8-4.4-4.6C9.8,102,9,101,8.5,100.2
						c-0.6-0.8-1.2-1.9-1.7-2.7c-1.3-1.9-3.3-6.4-3.9-8.8c-0.5-1.9-1.2-4.4-1.5-6.4c-0.4-2.9-0.4-5.9-0.4-5.9c0-1,0-2.4,0.1-3.4
						c0.1-1,0.2-2.3,0.4-3.3c0.2-1,0.4-2.3,0.7-3.2c1.1-4,1.1-4,2-6.1c1.4-3.3,2.9-5.6,2.9-5.7c0.5-0.8,1.2-1.9,1.8-2.6
						c0.6-0.8,1.4-1.8,2-2.5c0.8-0.9,2.3-2.6,4.5-4.5c1.1-0.9,2.8-2.3,5.1-3.7c0.8-0.5,2.9-1.8,5.7-2.9c1-0.4,2.3-1,3.4-1.2
						c1.8-0.5,4.2-1.1,6-1.4c0,0,0.9-0.2,3.3-0.3c0.7-0.1,1.6-0.1,2.1-0.1c0.3,0,0.7,0,1.1,0c0.3,0,0.5,0,0.5,0c0.1,0,0.3,0,0.4,0
						c0.3,0,0.6,0,0.8,0c1.3,0,2.3,0.1,2.7,0.2c0.9,0.1,2,0.3,2.9,0.4c0.9,0.1,2.2,0.5,3.1,0.7c1.8,0.4,4.2,1.3,6,2
						c1.7,0.7,4,1.8,5.6,2.9c0.8,0.5,1.9,1.2,2.6,1.7c1.5,1.1,3.4,2.8,4.7,4c-1.9-1.8-3.9-3.5-6.1-5c-2.2-1.5-4.5-2.7-7-3.8
						c-2.5-1-5-1.8-7.7-2.4c-2.7-0.5-5.4-0.8-8.2-0.8c2.8,0,5.6,0.3,8.2,0.8c2.7,0.5,5.2,1.3,7.7,2.4c2.5,1,4.8,2.3,7,3.8
						c2.2,1.5,4.2,3.1,6.1,5c2.7,2.7,4.3,4.9,4.3,5c1.1,1.6,2.4,3.7,3.4,5.4c0.5,0.8,1,2,1.4,2.9c0.4,0.9,0.8,2.1,1.1,3
						c0.3,0.9,0.6,2.2,0.9,3.1c0.3,0.9,0.5,2.3,0.7,3.2c0,0,0.5,2.9,0.5,6.7c0,3.9-0.6,6.9-0.6,6.9c-0.2,1-0.4,2.3-0.7,3.2
						c-0.3,0.9-0.6,2.2-0.9,3.1c-0.3,0.9-0.8,2.1-1.2,3c-1,2.4-2.5,5-3,5.7c-0.5,0.8-1.2,1.9-1.8,2.6
						C74.1,102.5,72.4,104.4,71.1,105.8z"/>
				</defs>
				<clipPath id="SVGID_2_">
					<use xlink:href="#SVGID_1_"  style="overflow:visible;"/>
				</clipPath>
			</g>
			<g class="st13">
				<defs>
					<path id="SVGID_3_" class="st13" d="M42.1,117.7c-0.4,0-3.6-0.2-6.3-0.5c-0.6-0.1-1.1-0.2-1.1-0.2c-0.9-0.2-2.2-0.4-3.1-0.7
						c-1-0.3-2.3-0.7-3.2-1c-0.9-0.3-2.1-0.8-3-1.2c-3.2-1.4-5.6-3-5.6-3c-2.4-1.6-3.4-2.4-5.1-3.8c-0.9-0.8-2.6-2.4-4.4-4.6
						c-3.9-4.8-5.7-9-6.5-10.9c-0.3-0.7-1.2-3.1-1.9-6.2c-0.2-1-0.5-2.3-0.6-3.2c-0.1-1-0.3-2.3-0.3-3.3c-0.1-1.8-0.1-4.2,0.1-6
						c0.1-1,0.2-2.3,0.4-3.3c0.2-1,0.5-2.3,0.7-3.2c0.2-1,0.6-2.2,0.9-3.1c0.3-0.9,0.8-2.1,1.1-3c0.4-0.9,0.9-2.1,1.4-2.9
						c0.5-0.8,1.1-2,1.6-2.8c0.5-0.8,1.2-1.9,1.8-2.6c2.1-2.8,4-4.7,4.1-4.8c1.4-1.3,3.3-2.9,4.8-4.1c0.7-0.6,1.8-1.2,2.6-1.8
						c0.2-0.1,2.8-1.7,5.7-2.9c0.9-0.4,2.1-0.9,3-1.1c1.8-0.5,4.2-1.1,6-1.5c0,0,0.6-0.1,1.2-0.2c0.4,0,0.8-0.1,1.8-0.2
						c1.6-0.1,3.5-0.2,4-0.2c0,0,0.1,0,0.1,0c0.2,0,0.4,0,0.5,0c0.6,0,1.1,0,1.5,0.1c0.6,0,1,0.1,1.9,0.1c1,0.1,2.3,0.3,3.2,0.5
						c3.7,0.8,5,1.1,9.1,2.8c1.7,0.7,4,1.9,5.5,2.9c0.8,0.5,1.8,1.2,2.6,1.8c1.4,1.1,3.2,2.6,4.5,3.8c1.9,1.9,3.6,3.9,5.1,6.1
						c1.5,2.2,2.8,4.6,3.9,7c1.1,2.5,1.9,5.1,2.4,7.8c0.6,2.7,0.9,5.5,0.9,8.4c0,2.9-0.3,5.7-0.9,8.4c-0.6,2.7-1.4,5.3-2.4,7.8
						c-1.1,2.5-2.4,4.8-3.9,7c-1.5,2.2-3.2,4.3-5.1,6.1l0,0c-1.4,1.3-3.3,2.9-4.7,4c-0.7,0.6-1.8,1.2-2.6,1.7
						c-1.6,1-3.8,2.1-5.6,2.9c-4.8,2.1-9.9,3.2-15.1,3.3c-0.2,0-0.4,0-0.6,0C42.4,117.7,42.3,117.7,42.1,117.7z"/>
				</defs>
				<clipPath id="SVGID_4_">
					<use xlink:href="#SVGID_3_"  style="overflow:visible;"/>
				</clipPath>
				<g class="st14">
					<path class="st15" d="M19.8,71.7c-0.6,0.1-0.9,8.7-0.8,10.7c-0.2-0.4-0.9-5.2-0.9-10.2c0-0.4,0-0.4-0.1-0.5
						c0,0-1.6-0.1-1.6,0.1c-0.7,3.4-0.3,6.9-0.7,10.4c-0.4-2.3-0.8-6.5-0.8-10.5c-0.5,0-1,0-1.5,0c0.1,6.4,0.9,11.5,2.7,17.7
						c0.4,0,0.9,0,1.3,0c-0.4-3.4-0.5-6.4-0.4-10.1c0.3,3.4,0.9,6.4,2,10.1c0.5,0,1,0,1.5,0c-0.4-6-0.2-11.3,0.8-17.7
						C20.9,71.7,20.3,71.7,19.8,71.7"/>
					<path class="st15" d="M65.2,71.8c-0.6,0-1.1,0-1.7,0c-0.1,3.8-0.3,6.9-0.8,10.7c-0.8-10.5-0.8-10.5-0.8-10.7
						c-0.6,0-1.3,0-1.9,0c-0.1,3.7-0.4,6.8-0.9,10.5c-0.2-4.6-0.5-7.9-0.9-10.5c-0.7,0-1.3,0-2,0c1.2,8.2,1.3,13.8,1.3,17.7
						c0.5,0,1.1,0,1.6,0c0.8-3.5,1.4-6.4,1.9-10c0.1,2.6,0.1,8.1,0,10c0.5,0,1.1,0,1.6,0C64.1,83.3,64.9,78.1,65.2,71.8"/>
					<path class="st15" d="M45,79.6c-0.1,0-0.2,0-0.2-0.2c0,0,0-4.6,0-5.1c0.5,0,0.8,0,0.9,1.7c0.1,1.8-0.1,3-0.5,3.5
						C45.2,79.6,45.1,79.6,45,79.6 M42.6,71.8c0,0.3,0,0.8-0.1,17.8c0.7,0,1.5,0,2.2,0c0.1-2,0.1-4.8,0.1-7.4c0.3,0,0.3-0.1,1.4,6.9
						c0.1,0.5,0.1,0.4,2.2,0.4c0-0.4-1-6.3-1.2-7.6c-0.1-0.8-0.2-0.9,0-1.3c0.6-1.5,0.9-2,0.8-3.7c0-0.1,0-0.1,0-0.2
						c-0.1-1.2-0.2-1.9-0.4-2.7c-0.4-1.1-0.9-1.7-1.5-2C45.4,71.6,42.6,71.8,42.6,71.8"/>
					<path class="st15" d="M37.8,87.1c-0.8-0.7-0.9-4-0.9-5.9c-0.1-6.1,0.6-6.7,0.8-6.7c0.8-0.1,0.8,5.8,0.8,6.5c0,0,0,0,0.1,0
						C38.5,86.5,38.2,86.7,37.8,87.1 M37.7,71.6c-4.3,0.1-4.2,14.7-1.1,17.6c1.7,1.6,4.8,0.4,4.4-9.7C40.9,77.1,40.4,71.6,37.7,71.6
						"/>
					<path class="st15" d="M52.2,87.1c-0.3-0.3-0.6-0.6-0.5-6.4c0-1.8,0.2-6.2,0.8-6.3c0.6-0.1,0.8,3.3,0.7,6.4c0,0,0,0,0.1,0
						C53.3,80.9,53.2,86.1,52.2,87.1 M52.4,71.6c-3.7,0.1-4,15.4-1.5,17.7c2.3,2.1,5-2.8,4.6-10.9C55.4,76.8,55,71.6,52.4,71.6"/>
					<path class="st15" d="M30.5,87.4c-0.2-2.1-0.3-3.9-0.3-6.1c0.3,0,0.9,0.1,1.2,2.6c0.2,1.5-0.1,3.1-0.5,3.4
						C30.7,87.3,30.6,87.4,30.5,87.4 M30.2,78.9C30.1,78.9,30.1,78.9,30.2,78.9c-0.1-1.8-0.1-3.2-0.1-4.9c0.2,0,0.7,0.2,0.8,2.3
						C30.9,78.2,30.5,78.6,30.2,78.9 M29.5,71.7c-0.4,0-0.8,0-1.3,0c0,0.1-0.6,7,0.5,17.8c2.7,0,3.7,0,4.4-1.9
						c0.5-1.6,0.8-5.4-1.1-7.6C33,78.6,34.4,71.7,29.5,71.7"/>
					<path class="st15" d="M66.9,83.2c0.3-1.7,0.4-3,0.6-4.7c0,0,0,0,0,0c0.1,1.7,0,3.1,0,4.7C67.2,83.2,67.1,83.2,66.9,83.2
						 M68.2,71.8c-0.5,0-1,0-1.6,0c-0.2,6.4-1,11.5-2.7,17.7c0.5,0,1.1,0,1.6,0c0.4-1.3,0.4-2.7,1-4c0-0.1,0-0.1,0.8-0.1
						c0,0.6-0.2,2.5-0.4,4.1c0.5,0,1.1,0,1.6,0C69.2,83.5,69.1,78.2,68.2,71.8"/>
					<path class="st15" d="M23.5,71.7c-0.6,0-1.1-0.1-1.7,0c0,0.1,0,0.2,0.2,2.3c0.4,2.8,1.2,5.5,1.5,8.4c0.3,2.3,0.4,4.6,0.7,6.8
						c0,0.1,0,0.1,0,0.2c0.1,0,0.1,0,2,0c-1-7.5-1.1-8.1,1-17.7c-1.9,0-1.9,0-2,0.2c0,0-0.5,2.2-0.9,5.6c-0.1-0.5-0.4-2.8-0.4-3.2
						C23.6,71.7,23.6,71.7,23.5,71.7"/>
					<path class="st16" d="M40.6,67.8c-0.4-0.2-0.8-0.4-1.2-0.7c0,0,0-0.1,0-0.1c1,0.2,1,0.2,1.1,0.2C40.7,67.4,40.6,67.4,40.6,67.8
						 M41.7,68c-0.1-0.2,0-0.3,0.1-0.4c0,0,0.7-0.3,0.8-0.4c0.1,0,0.1,0,0.8-0.2c0,0,0,0.1,0,0.1C42.8,67.7,42.4,68,41.7,68
						 M33.1,68c0.2-1.1,0.9-1.7,2-1.9c-0.3,0.2-0.7,0.5-1,0.7c0.1,0,0.2,0,0.3-0.1c0,0.2,0,0.3-0.1,0.4C33.9,67.5,33.5,67.7,33.1,68
						 M48.4,66.8C48.4,66.7,48.4,66.7,48.4,66.8c-0.1-0.2-0.8-0.7-1.1-0.9c-0.1,0-0.1-0.1-0.1-0.1c-0.1-0.1,0-0.2,0-0.3
						c1.3,0.5,1.3,0.5,1.5,0.7c0.2,0.2,0.2,0.2,0.7,1.7c0,0,0,0-0.1,0c0,0,0,0,0,0c-0.2-0.1-0.2-0.3-0.4-0.4
						c-0.3-0.3-0.6-0.4-0.7-0.5c-0.1,0-0.1-0.1-0.2-0.1C48,66.9,48,66.7,48,66.6C48.1,66.7,48.3,66.7,48.4,66.8 M44.8,65.5
						c0,0,0-0.1,0-0.1s0,0,0,0s0,0,0,0s0,0,0,0c0-0.1,0.3-0.1,0.5-0.2c0,0.1,0,0,0,0.3C45.1,65.5,44.8,65.5,44.8,65.5 M37,65.3
						c0-0.1,0-0.2,0.1-0.3c0.4,0.1,0.8,0.2,1.2,0.3c0,0,0,0,0,0C37.9,65.3,37.4,65.3,37,65.3 M41.7,65.8
						C41.7,65.8,41.6,65.8,41.7,65.8c0-0.1,0-0.2,0-0.3c0,0,0,0,0,0c0,0,0.1-0.1,0.1-0.1c0.1-0.1,0.2-0.2,0.3-0.2
						c0.1-0.1,0.2-0.2,0.4-0.1c0,0,0,0,0,0.1C42.3,65.3,42,65.5,41.7,65.8 M46,66C46,66,45.9,66,46,66c-0.3-1-0.3-1-0.3-1
						c0.1-0.1,0.4-0.2,0.6-0.2c0.2,0,0.5,0.2,0.5,0.2c0.1,0,0.1,0.1,0.1,0.3c0,0.1-0.1,0.6-0.1,0.6c0,0,0,0.1-0.1,0.1
						c-0.1,0-0.2,0-0.2,0c0-0.6,0-0.7-0.1-0.7c0-0.1-0.1-0.1-0.4,0C46,65.4,46.2,65.7,46,66 M35.6,65.9c-0.1-0.1-0.1-0.1-0.1-0.2
						c0,0,0-0.5,0-0.7c0.1-0.2,0.5-0.4,0.6-0.4c0.1,0,0.1,0,0.6,0.2c-0.2,0.9-0.2,0.9-0.2,0.9c-0.1,0.1-0.2,0.1-0.4,0.1
						c0-0.2,0-0.4,0.1-0.6c-0.1,0-0.3,0-0.4-0.1c0,0.5,0,0.5,0,0.6C35.8,65.8,35.8,65.8,35.6,65.9 M40.7,65.8
						c-0.3-0.2-1-0.8-1.3-1.1c0.1-0.1,0.1-0.1,0.2-0.2c1,0.9,1,0.9,1,0.9c0,0,0,0,0,0.1C40.8,65.7,40.8,65.7,40.7,65.8
						C40.8,65.8,40.8,65.8,40.7,65.8 M43.4,65.2c0.2,0,0.9-0.3,1-0.6c0-0.1,0-0.1,1.2-0.6c-0.3,0.5-0.4,0.7-0.8,0.9
						c0,0-0.8,0.3-1.1,0.4c-0.5,0.2-1.1,0.3-1.6,0.5c0.7-0.6,0.7-0.6,0.8-0.6C43,65.1,43.2,65.2,43.4,65.2 M35.5,64.5
						c0.2-0.3,0.4-0.6,0.6-0.9c0.2,0.2,0.4,0.5,0.5,0.7c0,0,0,0.1,0,0.1c-0.1,0-0.2-0.2-0.4-0.1c-0.1,0-0.1,0-0.2,0.1
						C35.8,64.4,35.6,64.5,35.5,64.5 M43.3,64.9C43.3,64.9,43.3,64.9,43.3,64.9l-0.5-0.1c-0.1,0-0.2-0.1-0.2-0.2
						c-0.1-0.1,0.1-0.6,0.3-0.8c0,0,0,0,0.3-0.2c0,0.2,0,0.5,0.1,0.7c0.3,0,0.5,0,0.8,0C43.5,64.9,43.5,64.9,43.3,64.9 M45.7,64.5
						C45.7,64.5,45.7,64.5,45.7,64.5c0.1-0.4,0.2-0.5,0.5-0.9c0.2,0.3,0.4,0.6,0.6,0.9c0,0,0,0,0,0.1C46.4,64.3,46.1,64.2,45.7,64.5
						 M41,66.6c0-0.5,0.1-2.7,0.1-3c0.3-0.1,0.3-0.1,0.2,3.1c1.5-0.8,1.5-0.8,2.4-0.9c1.6-0.2,1.7,0.1,1.8,0.4
						c-0.1,0.1-1.4,0.7-1.6,0.7c-0.8-0.2-2.4,0.5-2.4,0.5c-0.1,0.1-0.1,0.1-0.2,0.7C41,68,41,68,41,67.6c0-0.5-0.5-0.7-0.7-0.7
						c-0.4-0.1-0.9,0.1-1.3-0.1c-0.3-0.2-0.6-0.4-0.9-0.6c-0.5-0.3-0.8-0.3-0.9-0.3c-0.1,0-0.1,0-0.2,0c0-0.5,2.5-0.2,2.5-0.2
						C39.9,65.8,40.2,66,41,66.6 M39.1,64.3c-0.2-0.3-0.2-0.5,0-0.9c0.3,0.1,0.4,0.3,0.4,0.4c0,0.2,0,0.7-0.1,0.7
						c-0.3,0.1-0.5,0.2-0.6,0.1c-0.1,0-0.1,0-0.2,0c-0.2-0.1-0.3-0.2-0.5-0.3C38.5,64.2,38.7,64.1,39.1,64.3 M40,65.6
						c-2.8-0.8-2.8-0.8-3.6-2.3c0,0,0,0,0,0c1.2,0.8,1.2,0.8,1.3,1c0.1,0.1,0.1,0.1,0.6,0.4c0.6,0.3,0.6,0.4,0.7,0.4
						C39.4,65,39.6,65.2,40,65.6 M45,63.9c0.3-0.4,0.6-0.6,1-0.7C45.9,63.7,45.6,63.9,45,63.9 M44.2,64.2c0,0-0.1,0-0.1,0
						c-0.1,0-0.1,0-0.1,0c-0.1,0-0.2,0-0.3,0c0,0-0.1,0-0.1-0.1c0-0.1-0.1-0.6,0.2-0.9C43.8,63,43.9,63,44,63c0,0.2,0.1,0.3,0.1,0.5
						c0,0.2-0.1,0.2-0.2,0.3c0.3,0,0.6,0,1,0C44.7,64,44.5,64.2,44.2,64.2 M38.2,64c-0.4,0-0.6-0.3-0.7-0.3c0.3,0,0.6-0.1,0.8-0.1
						c-0.1-0.1-0.2-0.2-0.2-0.3c0-0.1,0-0.1,0-0.2c0-0.1,0.1-0.2,0.2-0.4c0.3,0.2,0.4,0.2,0.4,0.5c0,0,0,0.4-0.1,0.6
						c0,0.1-0.1,0.2-0.3,0.2C38.4,64,38.3,64,38.2,64 M44.6,63.5c-0.2,0-0.4,0-0.4-0.3c0,0-0.1-0.4,0.2-0.7c0.2-0.2,0.3-0.2,0.4-0.2
						c0,0.3-0.1,0.5-0.1,0.8c0.3-0.1,0.5-0.2,0.7,0C45.2,63.4,44.8,63.5,44.6,63.5 M37.5,62.9c0-0.3,0-0.5,0-0.8c0,0,0.1,0,0.1,0
						c0.1,0.1,0.2,0.2,0.3,0.3c0,0.1,0.1,0.1,0.1,0.2c0,0.1,0.1,0.3,0,0.5c0,0.2-0.1,0.2-0.1,0.3c0,0-0.3,0.1-0.5,0.1
						c-0.3,0-0.5-0.2-0.6-0.4C37.2,62.7,37.3,62.7,37.5,62.9 M41.2,63.2c-0.1,0-0.5-0.2-0.5-0.4c-0.1-0.2-0.1-0.2,0-0.8
						c0.2,0.2,0.4,0.4,0.6,0.6c0.2-0.2,0.3-0.4,0.5-0.6c0,0,0,0,0.1,0c0,0.3,0,0.5-0.1,0.8C41.7,62.8,41.5,63.2,41.2,63.2
						 M41.3,61.6c0.2-0.3,0.2-0.3,0.6-0.6c0.2,0.5,0.1,0.6-0.7,1.2c-0.1-0.2-0.4-0.4-0.5-0.7c-0.1-0.2,0-0.4,0-0.5
						C40.9,61.2,41.1,61.4,41.3,61.6 M41.3,60.5c0.2-0.2,0.4-0.3,0.6-0.5c0,0.6-0.1,0.8-0.7,1.1c-0.4-0.4-0.6-0.6-0.5-1.1
						C41,60.2,41.1,60.3,41.3,60.5 M40.8,57.6c-0.1,0-0.3,0.1-0.2,0.2c0,0.7,0.3,1.3,0.4,1.9c-0.1,0-0.3,0-0.4-0.4
						c-0.4-1.2-1.1-1.8-1.5-1.6c0.2,0.6,0.8,0.8,1.1,1.4c0.1,0.4,0.4,1.3,0.2,2c0,0-0.1,0-0.1-0.1c0,0-0.2,1.6,0.4,2.2
						c0.2,0.2,0.2,0.3,0.2,0.4c-0.9-0.4-1.1-1.9-1-2.5c0.2-1.6-0.7-1.9-1.2-2c-0.3-0.1-1.2,0.3-1,1.4c0,0.1,0,0.1,1,0.7
						c0.7-0.8,0.2-0.9-0.1-1c0,0.1,0.1,0.2,0.1,0.3c-0.5,0.3-0.6,0-0.5-0.4c0.1-0.3,0.5-0.7,1,0c0,0.1,0.1,0.1,0.2,0.5
						c0.1,0.6-0.2,1.3,0.1,2c0.7,1.5,0.7,1.5,0.7,1.7c0,0-0.1,0-0.1,0c-0.2-0.3-0.2-0.7-0.5-1c-0.3-0.3-0.6-0.5-0.9-0.9
						c0-0.1-0.1-0.1-0.1-0.2c-0.2-0.3-0.3-0.7-0.5-1c0,0-0.1,0-0.1,0c0,0.1,0,0.1,0.1,1c-0.4-0.3-0.6-0.5-0.7-0.9
						c-0.7-1.7-0.9-1.6-1.1-1.6c0,0.6,0.2,0.8,0.5,1.2c0.6,0.8,0.6,0.8,0.5,1c-0.6-0.1-0.8-0.8-1.3-1.1c-0.3-0.2-0.7-0.4-1.1-0.6
						c0,0.2-0.1,0.3,0,0.4c0.3,0.3,0.7,0.2,0.9,0.5c0.9,0.9,0.9,0.9,1.1,1.1c-0.1,0.1-0.2,0.3-0.5,0c-1.4-0.9-1.7-1.1-2.2-0.6
						c0.6,0.6,1.6,0.4,2.2,1.1c0,0,0,0.1-0.1,0.1c-0.8,0-1.5-0.3-2.2-0.3c-0.5,0-0.5,0-0.7,0.2c0.8,0.4,1.7,0.1,2.5,0.3
						c-0.8,1.2-0.8,1.2-1.6,1c-0.4-0.1-1.3-0.2-2.1,0.4c-0.7,0.6-0.1,1.2,0.3,1.2c0,0,0.5-0.1,0.5-0.7c-0.1,0.1-0.3,0.2-0.4,0.3
						c0-0.1,0-0.3,0-0.4c1.2-0.6,2.3-0.3,2.3-0.3c-0.1,0.1-0.1,0.1-0.6,0.4c0.1,0.2,0.1,0.2,0.2,0.2c0.1,0,0.2-0.1,0.4-0.1
						c0.1,0.1,0.1,0.1,0.1,0.3c-0.5,0.2-0.9,0-1.4,0.1c-0.5,0.1-0.9,0.5-1.4,0.7c0.1,0.3,0.2,0.3,1.3-0.3c0.4-0.2,0.5-0.3,0.9-0.2
						c-2.3,1.8-1.8,2.5-1.4,2.7c0.4-0.4,0.8-0.7,1.4-0.9c0.2,1.4,2.1,1.2,2.6,0.4c0.7-0.9-0.6-1.5-1.2-1.3c-0.2,0.1-0.3,0.8,0.1,0.9
						c0.1,0,0.1,0,0.2,0c-0.2-0.7,0.2-0.6,0.3-0.5c0.3,0.1,0.1,0.6-0.1,0.8c-0.5,0.4-1.2,0-1.1-0.6c0.1-0.8,1-0.7,1.7-0.7
						c0,0,0.1,0,0.1,0c0.2,0,0.2-0.1,1.2,0.5c1.8,1.1,2.2,1.3,3.3,1.3c1.9,0,3.2-2,5.1-1.8c0.1,0,0.3,0,0.5,0.4
						c0.5,0.7-0.3,1.4-1.1,1.2c-0.5-0.1-0.2-0.5-0.1-0.5c0.5-0.4,0.5,0.2,0.5,0.2c0.6-0.5-0.1-0.8-0.1-0.8c-0.3-0.1-1.6,0.4-0.9,1.5
						c0.3,0.4,2.4,0.1,2.6-0.8c0-0.1,0-0.2,0.1-0.3c0.4,0.2,0.4,0.2,1.3,1.1c0.4-0.2,0.6-1.6-1-2.9c0.6,0.1,1.2,1.2,1.8,0.6
						c-0.7-1.1-2-0.3-2.9-0.9c0-0.1,0-0.2,0-0.2c0.2,0.1,0.4,0.1,0.5,0.2c0.2-0.4-0.5-0.4-0.6-0.7c0.3-0.3,2-0.1,2.4,0.3
						c0,0.1,0,0.2,0,0.3c-0.1,0-0.2,0-0.4-0.2c-0.1,0.6,0.5,0.8,0.8,0.6c0.5-0.3,0.3-1.2-0.8-1.5c-0.8-0.2-1.9,0.7-2.6-0.4
						c-0.1-0.1-0.1-0.2-0.2-0.3c0,0,1-0.6,2.1-0.3c0.3,0.1,0.3,0.1,0.4-0.1c-0.9-1.1-2,0.2-3.1,0.1c0,0,0-0.1-0.1-0.1
						c0.7-0.6,0.7-0.6,1.4-0.8c1.2-0.3,1.2-0.3,1.2-0.5c-0.7-0.3-2.3,0.6-3.1,1.1c0-0.5,0.6-0.8,2.3-1.8c-0.1-0.1-0.1-0.2-0.2-0.3
						c-0.1,0-0.6,0.1-2.1,1.5c-0.3-0.2,0.7-1.5,1.3-1.8c-0.1-0.1-0.2-0.1-0.4-0.2c-0.6,0.7-1.1,1.5-1.8,2.2c0,0-0.1,0-0.1,0
						c0.4-0.8,0.4-0.8,0.4-1c-0.6,0.7-1,1.5-1.7,2.2c0,0-0.1,0-0.1-0.1c0.4-1,0-2.2,0.5-3.2c0.2-0.5,0.8-0.6,1-0.1
						c0,0,0.3,0.8-0.5,0.5c0-0.1,0-0.1,0.1-0.3c-0.4-0.1-0.4,0.4-0.3,0.6c0.2,0.4,1.2-0.2,1.3-0.5c0.1-0.4-0.3-1.6-1.6-1.1
						c-0.6,0.2-0.6,0.3-0.8,2.3c-0.2,1.4-0.2,1.4-0.9,2.1l0.6-2.8c0-0.1,0.1-0.2,0.1-0.3c-0.1,0-0.1,0.1-0.2,0.1
						c-0.1-2,1.2-2.8,1.7-3c-0.1-0.1-0.1-0.1-0.2-0.2c-1.1,0.9-1.1,0.9-1.3,1.3c-0.3,0.7-0.3,0.7-0.5,0.8c0-0.7,0.4-1.4,0.4-2.1
						c-0.1,0-0.1,0-0.9,2.3c-0.1-0.1-0.1-0.1-0.1-0.5C41.4,58.2,40.9,57.6,40.8,57.6"/>
					<path class="st16" d="M30.4,92.9c-0.3,0-0.3,0-0.5,1.7C29.2,93,29.2,93,29.1,93c-0.1-0.1-0.1-0.1-0.7-0.1
						c0.6,1.4,1.3,2.8,1.3,2.8c0.1,0.1,0.4,0.1,0.5,0c0.1-0.3,0.1-0.7,0.1-1c0-0.2,0.1-0.4,0.1-0.6c0-0.1,0-0.1,0-0.2
						c0.8,1.7,0.8,1.7,0.8,1.7c0.1,0.1,0.4,0.2,0.5,0c0,0,0.3-1.5,0.5-2.8c-0.6,0-0.6,0-0.6,0.1c0,0.1-0.3,1.6-0.3,1.6
						c-0.2-0.5-0.4-1-0.7-1.5C30.7,93,30.7,92.9,30.4,92.9"/>
					<path class="st16" d="M53.6,92.9c-0.2,0-0.2,0.1-0.3,0.2c0,0-0.3,2.3-0.4,2.7c0.2,0,0.4,0,0.6,0c0.1-0.6,0.2-1.1,0.3-1.8
						c0,0,0,0,1.2,1.7c0.1,0.2,0.3,0.2,0.4,0.1c0.2-1,0.3-1.8,0.5-2.9c-0.6,0-0.6,0-0.6,0.1c0,0,0,0.1,0,0.1
						c-0.1,0.5-0.1,0.9-0.2,1.4c-0.4-0.4-0.6-1-1-1.4C53.8,92.9,53.6,92.9,53.6,92.9"/>
					<path class="st16" d="M34.3,95.2c-0.9,0-1.2-1.2-0.6-1.6c0.5-0.4,1.5,0,1.4,0.9C35,95,34.7,95.2,34.3,95.2 M34.1,92.8
						c-1.6,0.1-1.7,1.8-0.8,2.6c1,0.9,2.6,0.4,2.5-1C35.7,93.7,35.2,92.9,34.1,92.8"/>
					<path class="st16" d="M19.4,95.2c-0.7-0.1-1.2-1.3-0.8-1.7c0.4-0.4,1.2,0.4,1.2,1.1C19.8,95,19.6,95.2,19.4,95.2 M18.7,92.8
						c-1.2,0.1-1,1.8-0.1,2.6c0.9,0.8,1.8,0.5,1.8-0.6C20.4,93.8,19.6,92.8,18.7,92.8"/>
					<path class="st16" d="M37.2,95.2c-0.1,0-0.1,0-0.2,0c0-0.6-0.1-1.1-0.1-1.7c1.3-0.1,1.4,1,1,1.5C37.6,95.2,37.3,95.2,37.2,95.2
						 M36.9,92.9c-0.3,0-0.5,0-0.8,0c0.1,1,0.1,1.9,0.2,2.8c1.5,0,1.7,0,2.1-0.5c0.4-0.5,0.4-1.3-0.1-1.9
						C37.8,92.9,37.2,92.9,36.9,92.9"/>
					<path class="st16" d="M27.2,92.9c-0.2,0-0.4,0-0.6,0c0,0.3,0.1,0.6,0.2,1c0,0,0,0.1,0,0.1c0,0-0.1,0-0.9,0
						c-0.1-0.4-0.1-0.8-0.2-1.1c-0.2,0-0.4,0-0.6,0c0.2,1,0.4,1.8,0.6,2.8c0.2,0,0.4,0,0.6,0C26.1,95.4,26,95,26,94.6
						c0.3,0,0.7,0,1,0c0.1,0.4,0.1,0.7,0.2,1.1c0.2,0,0.4,0,0.6,0C27.6,94.8,27.4,93.9,27.2,92.9"/>
					<path class="st16" d="M39.2,92.9c-0.1,0-0.2-0.1-0.2,0.1c0,0,0.1,2.6,0.1,2.6c0.2,0,0.5,0,0.7,0c0,0,0-0.6,0-1
						c0.2,0.2,0.3,0.4,0.6,0.7c0.2,0.3,0.2,0.3,0.3,0.3c0.1,0.1,0.1,0.1,0.9,0.1c-1.1-1.4-1.1-1.4-1.1-1.4c0-0.1,0-0.1,0.5-0.7
						c0.4-0.5,0.4-0.5,0.5-0.7c-0.7,0-0.7,0-0.8,0.1c0,0,0,0-0.5,0.7C40,94,40,94,39.8,94.1c0-0.4,0-0.8,0-1.2
						C39.6,92.9,39.4,92.9,39.2,92.9"/>
					<path class="st16" d="M62.8,95.3c-0.3,0-0.3-0.4,0-0.7c0.4-0.3,0.5,0.1,0.5,0.2C63.2,95.1,62.9,95.3,62.8,95.3 M63.1,94
						c-0.2,0-0.3-0.3-0.1-0.6c0.2-0.2,0.4-0.1,0.4,0.1C63.5,93.7,63.3,94,63.1,94 M63.4,92.7c-0.8,0-1.3,0.9-0.8,1.5
						c-0.8,0.6-0.8,1.5-0.1,1.6c0.8,0.1,1.6-0.9,1.1-1.6c0,0,0-0.1,0-0.1C64.3,93.3,64,92.6,63.4,92.7
						C63.5,92.6,63.4,92.6,63.4,92.7"/>
					<path class="st16" d="M42.8,94.6c0.1-0.2,0.2-0.5,0.3-0.7c0,0,0,0,0.1,0c0.1,0.2,0.2,0.4,0.3,0.7
						C43.2,94.5,42.8,94.5,42.8,94.6 M43.3,92.9c-0.4,0-0.4,0-0.4,0.1c0,0-0.6,1.4-1.1,2.7c0,0,0.1,0,0.3,0c0.3,0,0.3-0.1,0.5-0.5
						c0.1-0.2,0.1-0.2,0.8-0.2c0.2,0,0.2,0.1,0.3,0.3c0.2,0.3,0.2,0.3,0.2,0.4c0,0,0,0,0.6,0c0-0.2-1-2.7-1-2.8
						C43.4,92.9,43.4,92.9,43.3,92.9"/>
					<path class="st16" d="M60.2,92.9c-0.5,0-1,0-1.4,0c-0.2,1-0.4,1.8-0.6,2.8c0.5,0,1,0,1.5,0c0-0.2,0.1-0.4,0.1-0.5
						c-0.3,0-0.6,0-0.9,0c0-0.2,0.1-0.4,0.1-0.6c0.2,0,0.4,0,0.7,0c0-0.2,0.1-0.4,0.1-0.6c-0.6,0-0.6,0-0.6-0.1c0,0,0,0,0.1-0.5
						c0.3,0,0.6,0,0.8,0C60.1,93.3,60.2,93.1,60.2,92.9"/>
					<path class="st16" d="M16.5,93.4c0.1,0,0.2,0,0.3,0c0.1,0,0.1,0.1,0.2,0.1c0.1,0.1,0.2,0.4,0.1,0.5c0,0-0.1,0-0.1,0
						c-0.1,0-0.2,0-0.2,0C16.7,93.8,16.6,93.6,16.5,93.4C16.5,93.4,16.5,93.4,16.5,93.4 M16,92.8c-0.1,0-0.1,0-0.1,0.2
						c0,0.1,0.6,2.1,0.9,2.6c0.2,0,0.3,0,0.5,0c-0.1-0.4-0.2-0.7-0.4-1.1c0.4,0,0.7,0,0.7-0.4c0.1-0.3-0.1-0.8-0.4-1.1
						C16.9,92.8,16.7,92.8,16,92.8"/>
					<path class="st16" d="M23.9,92.8c-0.9,0-0.8,1-0.4,1.4c0.2,0.2,0.4,0.3,0.5,0.3c0.1,0,0.3,0.1,0.4,0.2c0.2,0.2,0,0.4-0.1,0.4
						c0,0,0,0-0.8-0.2c0.2,0.5,0.2,0.6,0.4,0.7c0,0,0.9,0.2,1.1-0.2c0,0,0.4-1.1-0.8-1.5c-0.3-0.1-0.4-0.1-0.4-0.3
						c-0.1-0.1,0-0.3,0.1-0.3c0.1,0,0.2,0,0.6,0.1c0-0.2,0-0.4,0-0.5C24.3,92.9,24.1,92.8,23.9,92.8"/>
					<path class="st16" d="M50.8,92.9c-1.1,0-1.3,1-0.9,1.5c0.2,0.2,0.4,0.2,0.5,0.3c0.2,0.1,0.3,0.1,0.4,0.3c0,0,0.1,0.4-0.5,0.4
						c-0.2,0-0.2,0-0.7-0.2c-0.1,0.5-0.1,0.6,0.1,0.7c0.8,0.3,1.3-0.1,1.4-0.1c0.3-0.3,0.4-0.8,0.3-1.1c0,0-0.1-0.2-0.3-0.3
						C51,94,50.7,94,50.5,93.9c-0.2-0.1-0.1-0.4,0.1-0.4c0.1-0.1,0.1-0.1,0.7,0.1c0.1-0.2,0.1-0.3,0.2-0.5
						C51.4,93,51.2,92.9,50.8,92.9"/>
					<path class="st16" d="M57.7,92.8c-1.4,0-2.2,1.9-1.4,2.6c0.5,0.4,1.2,0.3,1.2,0.3c0.2,0,0.2-0.2,0.3-0.6
						c-1.3,0.4-1.3-0.7-1.1-1c0.1-0.2,0.5-0.9,1.4-0.5c0-0.1,0-0.1,0.2-0.6C58.2,92.9,58,92.8,57.7,92.8"/>
					<path class="st16" d="M64.9,92.8c-0.3,0-0.5,0.1-0.6,0.2c0,0.2,0,0.3,0,0.5c0.8-0.3,0.7,0.2,0.5,0.5c-0.3,0.7-0.9,1.1-1.3,1.7
						c0.5,0,0.9,0,1.4,0c0.1-0.2,0.1-0.3,0.2-0.5c-0.2,0-0.4,0-0.6,0C66.5,92.9,65,92.8,64.9,92.8"/>
					<path class="st16" d="M66.4,92.7c-0.5,0-0.4,0.1-0.5,0.7c0.3-0.1,0.4-0.1,0.4-0.1c0.1,0,0.1,0.2,0,0.3
						c-0.1,0.1-0.2,0.2-0.4,0.3c0,0.1,0,0.3-0.1,0.4c0.6,0.2,0.1,0.7,0,0.7c-0.2,0.1-0.4,0-0.6,0c-0.1,0.5-0.1,0.5-0.1,0.6
						c0,0,0.4,0.1,0.8-0.1c0.4-0.2,1-1.3,0.4-1.7C67.4,93.2,67.1,92.6,66.4,92.7C66.5,92.6,66.4,92.6,66.4,92.7"/>
					<path class="st16" d="M20.4,92.9c-0.1,0-0.2,0,0.6,2.8c0.5,0,0.9,0,1.4,0c-0.1-0.2-0.1-0.4-0.1-0.5c-0.3,0-0.6,0-0.9,0
						c-0.2-0.8-0.4-1.5-0.6-2.3C20.7,92.9,20.5,92.9,20.4,92.9"/>
					<path class="st16" d="M62.2,92.8c-0.3,0-0.6,0.1-0.9,0.1c-0.1,0.2-0.2,0.4-0.2,0.6c0.1,0,0.3,0,0.4,0c-0.2,0.8-0.4,1.5-0.6,2.3
						c0.2,0,0.3,0,0.5,0C61.8,94.7,62,93.9,62.2,92.8"/>
					<path class="st16" d="M52.8,92.9c-0.2,0-0.4,0-0.6,0c-0.1,1-0.2,1.8-0.4,2.8c0.2,0,0.4,0,0.6,0C52.6,94.8,52.7,93.9,52.8,92.9"
						/>
					<path class="st16" d="M22.5,92.9c-0.2,0-0.4,0-0.6,0c0.2,1,0.4,1.8,0.7,2.8c0.2,0,0.4,0,0.5,0C23,94.7,22.8,93.9,22.5,92.9"/>
					<path class="st16" d="M46.6,94.6c-0.3,0-0.5,0.4-0.3,0.6c0.1,0.1,0.3,0,0.3,0c0,0,0,0,0.1-0.2c-0.1,0.1-0.1,0.1-0.2,0.2
						C46.4,95,46.4,95,46.4,95c0.1-0.3,0.2-0.2,0.3-0.2c0.4,0.1,0.3,0.6,0.2,0.9c-0.2-0.3-0.3-0.3-0.5-0.1c0.4,0.2,0.4,0.2,0.4,0.2
						c0,0,0,0,0.2,0.4c0-0.1,0-0.2,0.2-0.4c0.2-0.1,0.4-0.2,0.5-0.3c-0.2-0.2-0.2-0.2-0.6,0.1c0-0.5,0-0.5,0.1-0.7
						c0-0.1,0.2-0.4,0.4-0.2c0.1,0.1,0.1,0.1,0,0.3c-0.1,0-0.1-0.1-0.2-0.1c-0.2,0.2,0.1,0.3,0.2,0.3c0.3,0,0.3-0.4,0-0.6
						c-0.1-0.1-0.3-0.1-0.6,0.2C46.9,94.7,46.8,94.6,46.6,94.6"/>
					<path class="st16" d="M37.3,67.2C37.3,67.2,37.3,67.2,37.3,67.2c0.5,0.7,0.5,0.7,0.5,0.7c0,0.1,0,0.1-0.7,0.5
						c0.2,0,0.4,0,0.5-0.1c0.1,0,0.3-0.1,0.5-0.1c0.1,0,0.1,0,0.5,0.1c0.1,0,0.1,0,1.2,0.1c0,0,0,0-0.8-0.3
						c-0.4-0.2-0.7-0.4-1.1-0.6C37.7,67.4,37.5,67.3,37.3,67.2"/>
					<path class="st16" d="M45.2,67.3c-0.5,0.3-1,0.6-1.5,0.9c-0.3,0.2-0.6,0.2-0.8,0.3c0,0,0.1,0,0.1,0c0.3,0,0.5-0.1,0.8-0.1
						c0.3,0,0.5,0.1,0.7,0.2c0,0,0.2,0.1,0.3,0.1c0.2,0,0.3-0.1,0.3-0.1c-0.1-0.1-0.1-0.1-0.2-0.2c-0.2-0.1-0.3-0.2-0.3-0.3
						C44.7,67.9,44.7,67.9,45.2,67.3"/>
					<path class="st16" d="M34.3,91.7c-0.1,0-0.1,0-0.7,0.8c0.1,0,0.2,0.1,0.3,0.1c0,0,0,0,0.2-0.1c0.2-0.1,0.5-0.4,0.5-0.4
						c0,0,0.1-0.1,0-0.2C34.6,91.8,34.4,91.7,34.3,91.7"/>
					<path class="st16" d="M47.5,93.9c-0.2,0.1-0.3,0.2-0.5,0.3c-0.2-0.1-0.2-0.1-0.4-0.3c0,0.1-0.1,0.3,0.1,0.5
						c0.1,0.1,0.3,0.2,0.5,0.1C47.6,94.3,47.5,94,47.5,93.9"/>
					<path class="st16" d="M46.9,92.3c0,0.8,0,0.8,0,0.9c0,0.1,0.2,0.3,0.4,0c0.1-0.1,0.1-0.1,0.2-0.8c-0.1,0.3-0.2,0.5-0.3,0.8
						C46.9,92.9,46.9,92.7,46.9,92.3C46.9,92.3,46.9,92.3,46.9,92.3"/>
					<path class="st16" d="M47.5,93.4c-0.1,0.1-0.3,0.2-0.4,0.3c-0.1-0.1-0.2-0.2-0.3-0.3c0,0.1-0.1,0.2,0,0.3
						c0.1,0.2,0.3,0.2,0.4,0.2c0,0,0.2-0.1,0.3-0.2C47.5,93.5,47.5,93.4,47.5,93.4"/>
					<path class="st16" d="M43.9,66.1c-0.5,0-0.9,0.1-1.3,0.2c-0.1,0.1-1.1,0.5-1.1,0.5c-0.1,0.1-0.1,0.2-0.1,0.3
						C42.2,66.7,43,66.4,43.9,66.1"/>
					<path class="st16" d="M39.2,66.1c-0.2,0-0.4,0-0.6,0c0.9,0,1.6,0.3,2.2,0.8C40.9,66.4,39.9,66.1,39.2,66.1"/>
				</g>
			</g>
		</g>
	</g>
</g>
</svg>
