<?xml version="1.0" encoding="utf-8"?>
<!-- Generator: Adobe Illustrator 19.1.1, SVG Export Plug-In . SVG Version: 6.00 Build 0)  -->
<svg version="1.1" id="Layer_1" xmlns="http://www.w3.org/2000/svg" xmlns:xlink="http://www.w3.org/1999/xlink" x="0px" y="0px"
	 viewBox="0 0 283 395.6" style="enable-background:new 0 0 283 395.6;" xml:space="preserve">
<style type="text/css">
	.st0{fill:none;stroke:#FFFFFF;stroke-width:4;stroke-linecap:round;stroke-linejoin:round;}
	.st1{fill:none;stroke:#FFFFFF;stroke-width:4;stroke-linecap:round;stroke-linejoin:round;stroke-dasharray:6.2835,18.8504;}
	.st2{fill:none;stroke:#FFFFFF;stroke-width:4;stroke-linecap:round;stroke-linejoin:round;stroke-dasharray:7.7381,23.2143;}
	.st3{fill:none;stroke:#FFFFFF;stroke-width:4;stroke-linecap:round;stroke-linejoin:round;stroke-dasharray:6.3414,19.0242;}
	.st4{fill:none;stroke:#FFFFFF;stroke-width:4;stroke-linecap:round;stroke-linejoin:round;stroke-dasharray:6.9581,20.8744;}
</style>
<g>
	<g>
		<path class="st0" d="M166,98.9c-0.7-0.6-1.2-1.5-1.2-2.5v-0.6h5v-5.3h-0.9v-1.6h0.9v-3.5"/>
		<path class="st1" d="M169.8,66.5V26.1c0-0.2,0-0.3,0-0.5"/>
		<path class="st0" d="M161.7,23h-3.5c0.3-1.1,0.5-2.3,0.5-3.5"/>
		<path class="st2" d="M146,2.4c-1.2-0.3-2.5-0.4-3.8-0.4c-5.5,0-10.3,2.6-13.4,6.7"/>
		<path class="st0" d="M125.6,19.6c0.1,1.2,0.3,2.3,0.5,3.5h-3.5"/>
		<line class="st3" x1="113.8" y1="34.6" x2="113.8" y2="75.8"/>
		<path class="st0" d="M113.8,85.3v3.5h0.9v1.6h-0.9v5.3h5v0.7c0,1-0.4,1.9-1.1,2.5"/>
		<path class="st4" d="M109.7,116.1c-1.6,1.6-3.6,2.7-5.9,3.4C44.9,136.1,1.9,190.1,2,254.2c0.1,77.2,62.4,139.5,139.6,139.5
			c77.1,0,139.5-62.5,139.5-139.7c0-63.8-42.4-117.6-101.3-134.3c-5.8-1.6-9.8-6.9-9.9-12.9"/>
	</g>
</g>
</svg>
