<?xml version="1.0" encoding="utf-8"?>
<!-- Generator: Adobe Illustrator 19.1.1, SVG Export Plug-In . SVG Version: 6.00 Build 0)  -->
<svg version="1.1" id="Layer_1" xmlns="http://www.w3.org/2000/svg" xmlns:xlink="http://www.w3.org/1999/xlink" x="0px" y="0px"
	 viewBox="0 0 280.7 392" style="enable-background:new 0 0 280.7 392;" xml:space="preserve">
<style type="text/css">
	.st0{fill:#F89926;}
	.st1{fill:#E17A26;}
	.st2{fill:#F0F2F4;}
	.st3{opacity:0.1;fill:#F0F2F4;}
	.st4{fill:#1F2151;}
	.st5{fill:#2C2C70;}
	.st6{fill:#C7C6C6;}
	.st7{opacity:0.1;}
	.st8{fill:#FFFFFF;}
	.st9{opacity:0.2;fill:#010101;}
	.st10{opacity:0.5;fill:#FFFFFF;}
	.st11{opacity:0.2;fill:#DAF1FD;}
	.st12{opacity:0.4;fill:#DAF1FD;}
	.st13{enable-background:new    ;}
	.st14{clip-path:url(#SVGID_4_);}
	.st15{fill:#0F1132;}
</style>
<g>
	<g>
		<path class="st0" d="M156.8,28.8h-31.7l-0.7-1.2c-1.5-2.4-2.3-5.6-2.3-8.9C122.1,8.4,130.6,0,141,0c10.4,0,18.9,8.4,18.9,18.8
			c0,3.3-0.8,6.5-2.3,8.8L156.8,28.8z M128,23.9h26c0.6-1.5,1-3.3,1-5.1c0-7.6-6.3-13.9-14-13.9c-7.7,0-14,6.2-14,13.8
			C127,20.6,127.4,22.4,128,23.9z"/>
		<path class="st1" d="M141,5.5c7.4,0,13.5,6,13.5,13.5c0,1.7-0.3,3.2-0.9,4.8h-16.1h-9.1c-0.6-1.5-0.9-3.1-0.9-4.8
			C127.5,11.6,133.6,5.5,141,5.5 M141,2.6c-9.1,0-16.4,7.4-16.4,16.4c0,2.8,0.7,5.4,1.9,7.7h11h18c1.2-2.3,1.9-4.9,1.9-7.7
			C157.4,9.9,150.1,2.6,141,2.6L141,2.6z"/>
		<path class="st2" d="M140.4,392c-37.5,0-72.8-14.6-99.3-41C14.7,324.5,0.1,289.2,0,251.7c0-31.3,10-60.9,28.9-85.6
			c18.4-24,44.5-41.7,73.5-49.8c4.8-1.3,8.1-5.7,8.1-10.7v-4.8c0-2.3,1.9-4.2,4.2-4.2c0.4,0,0.7-0.3,0.7-0.7v-9.2h50.4v9.1
			c0,0.4,0.4,0.8,0.8,0.8c2.3,0,4.2,1.9,4.2,4.2v5.1c0,4.9,3.3,9.3,8,10.7c28.9,8.2,54.9,25.9,73.2,49.8
			c18.8,24.6,28.7,54.1,28.7,85.3C280.7,329,217.8,392,140.4,392z M115.5,101.4v4.2c0,7.2-4.8,13.5-11.7,15.4
			C45.5,137.4,4.9,191.1,4.9,251.7C5,326.3,65.8,387.1,140.4,387.1c74.6,0,135.4-60.8,135.4-135.6c0-60.3-40.4-113.9-98.3-130.3l0,0
			c-6.8-1.9-11.6-8.3-11.6-15.4v-4.4c-2.8-0.4-4.9-2.8-4.9-5.7v-4.2h-40.5v4.2C120.4,98.7,118.2,101.1,115.5,101.4z"/>
		<path class="st3" d="M178.2,118.8c-2.3-0.6-4.3-1.9-5.9-3.5c1.3,1.8,3.1,3.3,5.2,4.3c55.6,26.5,88.5,87.1,77.7,150.3
			c-11.9,69.9-73.3,118.9-142.2,116.9c8.9,1.8,18,2.7,27.4,2.7c76.2,0,137.8-61.8,137.8-138C278.2,188.5,236.4,135.3,178.2,118.8z"
			/>
		<g>
			<rect x="113.9" y="87.4" class="st4" width="53.5" height="3.4"/>
			<rect x="113" y="89.9" class="st5" width="55.3" height="5.2"/>
			<path class="st6" d="M165.3,23.2h-49.2c-1.7,0-3.1,1.4-3.1,3.1v62h55.3v-62C168.3,24.6,167,23.2,165.3,23.2z"/>
		</g>
		<path class="st3" d="M139.9,349.5c-48.3,0-92.2-15.5-125.1-40.8c21.7,47.7,69.7,80.8,125.6,80.8c56.2,0,104.5-33.6,125.9-81.8
			C233.3,333.6,188.8,349.5,139.9,349.5z"/>
		<g class="st7">
			<path class="st8" d="M37,292.6C13.1,234,32.4,168.6,80.3,131.5c2.2-1.7,3.7-3.9,4.5-6.4c-48.7,21.4-82.5,70-82.4,126.5
				c0.1,76.3,61.7,137.8,138,137.8c24.7,0,47.8-6.5,67.9-17.8C139.7,394.6,64.6,360.6,37,292.6z"/>
		</g>
		<ellipse class="st3" cx="139.9" cy="163.6" rx="69.8" ry="33.7"/>
		<path class="st9" d="M126.8,22.9h-10.8c-1.7,0-3.1,1.8-3.1,3.5v61.8h1v2h-1V95h13.8V22.9z"/>
		<rect x="142.6" y="22.9" class="st10" width="8.9" height="72.1"/>
		<path class="st11" d="M140.3,271.9c-72.7,0-132.4-6-138.3-13.6C5.3,331.7,65.6,390,139.8,390c73.7,0,133.8-57.8,137.6-130.6
			C267,266.5,209.6,271.9,140.3,271.9z"/>
		<ellipse class="st12" cx="141.3" cy="257.1" rx="138.8" ry="14.8"/>
	</g>
	<g>
		<g class="st13">
			<g>
				<path class="st8" d="M278.7,251.5c0,9.6-1,19-2.9,28.1c-1.9,9.1-4.7,17.8-8.2,26.2c-3.6,8.3-7.9,16.2-13,23.6
					c-5.1,7.4-10.8,14.3-17.2,20.5c2.3-2.2,5.2-5.3,7.3-7.7c2.1-2.4,4.7-5.8,6.7-8.3c2-2.5,4.2-6.1,6-8.8c1.8-2.6,3.9-6.4,5.4-9.2
					c1.5-2.8,3.4-6.7,4.6-9.7c1.3-3,2.8-7,3.9-10.1c1.1-3.1,2.2-7.3,3.1-10.4c0.9-3.2,1.6-7.5,2.3-10.8c0.7-3.6,1.2-8.5,1.5-12.1
					C278.5,259.4,278.6,254.9,278.7,251.5z"/>
			</g>
			<g>
				<path class="st8" d="M237.4,153c6.4,6.3,12.1,13.1,17.2,20.5c5.1,7.4,9.4,15.3,13,23.6c3.6,8.3,6.3,17.1,8.2,26.2
					c1.9,9.1,2.9,18.5,2.9,28.1c0-12.7-1.8-22.3-1.8-22.4c-0.7-3.2-1.3-7.6-2.2-10.8c-0.9-3.1-2-7.4-3-10.5c-1-3.1-2.6-7.1-3.8-10.1
					c-1.2-3-3-6.9-4.6-9.7c-3.2-5.6-7.7-12.8-11.3-18.1c-2-2.9-5-6.5-7.3-9.1C242.6,158.3,239.6,155.3,237.4,153z"/>
			</g>
			<g class="st13">
				<defs>
					<path id="SVGID_1_" class="st13" d="M237.4,350c-6.2,6.1-13.1,11.7-20.4,16.6c-7.3,4.9-15.1,9.1-23.3,12.5
						c-8.2,3.4-16.8,6.1-25.7,7.9c-8.9,1.8-18.1,2.8-27.6,2.7c9.4,0,18.6-0.9,27.6-2.7c8.9-1.8,17.5-4.5,25.7-7.9
						c8.2-3.4,16-7.6,23.3-12.5C224.4,361.7,231.2,356.1,237.4,350c-4.3,4-10.2,9.3-14.9,12.7c-5.1,3.7-12.2,8.2-17.7,11.1
						c-7.8,4.1-21.1,10.3-39.9,13.8c-3.2,0.6-7.6,1.2-10.9,1.5c-2.3,0.2-3.9,0.4-6.3,0.5c-4,0.2-6.9,0.2-6.9,0.2c-0.3,0-0.7,0-1,0
						c-0.4,0-1,0-1.4-0.1c-2.7-0.1-6.3-0.4-9.4-0.6c-7.4-0.6-11.2-1.2-11.8-1.3c-0.7-0.1-1.7-0.3-2.4-0.4c-3.1-0.7-7.2-1.6-10.3-2.3
						c-6.4-1.6-15.6-5-20.1-7.1c-6.4-3-11.3-5.4-18.8-10.2c-7.8-5-13.6-9.9-16.9-12.9c-4.7-4.2-9.8-9.2-14.8-15.3
						c-1.4-1.7-7-8.4-12.3-17.4c-1.6-2.8-3.7-6.5-5.1-9.4c-1.4-2.9-3.2-6.8-4.4-9.8c-1.2-3-2.7-7.1-3.6-10.2
						c-1-3.1-2.1-7.4-2.8-10.6c-1.3-5.7-2.6-13.5-3-19.4c-0.2-3.4-0.5-7.9-0.5-11.3c0-3.4,0.2-7.9,0.5-11.3
						c0.3-3.3,0.7-7.8,1.4-11.1c0.7-3.2,1.4-7.6,2.2-10.8c0.8-3.2,1.9-7.4,3-10.5c2.3-6.1,5.4-14.1,8.4-19.8
						c5.4-10.5,11.2-18.1,11.3-18.1c2-2.5,4.5-5.9,6.6-8.3c2.1-2.4,5-5.5,7.2-7.8c6.3-6.3,12.3-11,16.2-13.8
						c2.2-1.6,8.8-6.4,18.2-11.3c5.7-2.9,13.7-6.1,19.7-8.3c3.3-1.2,7.8-2.4,11.1-3.2c3.1-0.8,7.4-1.6,10.6-2.1
						c1.4-0.2,4.6-0.7,10.5-1.1c3.5-0.3,6.6-0.4,6.9-0.4c0.9,0,2.3-0.1,3.5-0.2c1,0,1.7,0,1.7,0h0c0.5,0,0.9,0,1.4,0
						c1.1,0,1.9,0,2.6,0.1c4,0.1,7.4,0.4,9,0.6c2.8,0.3,6.6,0.9,9.4,1.3c3.2,0.4,7.3,1.5,10.4,2.2c6.2,1.4,14.2,4.2,20.1,6.7
						c5.8,2.5,13.4,6.1,18.7,9.6c2.6,1.7,6.2,3.9,8.7,5.8c4.9,3.8,11.3,9.2,15.9,13.4c-6.2-6.1-13.1-11.7-20.4-16.6
						c-7.3-4.9-15.1-9.1-23.3-12.5c-8.2-3.4-16.8-6.1-25.7-7.9c-8.9-1.8-18.1-2.7-27.6-2.7c9.4,0,18.6,0.9,27.6,2.7
						c8.9,1.8,17.5,4.5,25.7,7.9c8.2,3.4,16,7.6,23.3,12.5c7.3,4.9,14.1,10.4,20.4,16.6c9.3,9.2,14.5,16.8,14.6,16.8
						c3.6,5.3,8.1,12.6,11.3,18.1c1.6,2.8,3.3,6.7,4.6,9.7c1.3,3,2.8,7,3.8,10.1c1,3.1,2.1,7.3,3,10.5c0.9,3.2,1.6,7.6,2.2,10.8
						c0,0.1,1.8,9.7,1.8,22.4c0,13.2-2,23.4-2,23.5c-0.7,3.2-1.4,7.6-2.3,10.8c-0.9,3.1-2.1,7.3-3.1,10.4c-1,3.1-2.6,7.1-3.9,10.1
						c-3.7,8.9-9.2,17.8-10,18.9c-1.8,2.6-4,6.3-6,8.8C247.4,338.9,241.8,345.3,237.4,350z"/>
				</defs>
				<clipPath id="SVGID_2_">
					<use xlink:href="#SVGID_1_"  style="overflow:visible;"/>
				</clipPath>
			</g>
			<g class="st13">
				<defs>
					<path id="SVGID_3_" class="st13" d="M140.4,389.8c-1.3,0-12.1-0.5-21-1.6c-2-0.3-3.6-0.5-3.8-0.6c-3.1-0.6-7.3-1.4-10.3-2.3
						c-3.3-1-7.7-2.2-10.9-3.3c-3-1.1-7-2.7-10-4c-10.8-4.7-18.8-10.1-18.9-10.2c-8-5.4-11.3-7.8-16.9-12.9
						c-2.9-2.6-8.7-7.9-14.8-15.3c-13.1-15.8-19-29.9-21.8-36.6c-0.9-2.3-4.2-10.4-6.5-20.8c-0.7-3.2-1.5-7.6-2-10.9
						c-0.5-3.3-0.9-7.8-1.1-11.2c-0.4-6-0.3-14.1,0.2-20.1c0.3-3.3,0.8-7.8,1.4-11.1c0.5-3.3,1.5-7.6,2.2-10.8
						c0.7-3.2,1.9-7.4,3-10.5c1.1-3,2.6-7.1,3.8-10.1c1.3-3,3-6.9,4.6-9.7c3.2-5.6,7.5-13,11.3-18.1c6.9-9.4,13.6-15.8,13.8-16.1
						c4.6-4.4,11.1-9.9,16.1-13.8c2.5-2,6.2-4.2,8.8-6c0.6-0.4,9.2-5.8,19-9.8c3-1.3,7.1-2.9,10.2-3.8c6-1.7,14-3.8,20.1-5
						c0,0,1.9-0.3,4-0.6c1.2-0.1,2.8-0.3,6.2-0.6c5.3-0.4,11.8-0.8,13.3-0.8c0.1,0,0.3,0,0.4,0c0.6,0,1.2,0,1.8,0
						c2.1,0,3.6,0.1,5.1,0.2c2.1,0.1,3.5,0.2,6.3,0.5c3.3,0.3,7.6,0.8,10.9,1.5c12.6,2.6,16.8,3.7,30.4,9.2
						c5.8,2.4,13.3,6.3,18.6,9.8c2.6,1.8,6.2,3.9,8.6,5.9c4.6,3.6,10.6,8.7,14.9,12.7c6.4,6.3,12.1,13.1,17.2,20.5
						c5.1,7.4,9.4,15.3,13,23.6c3.6,8.3,6.3,17.1,8.2,26.2c1.9,9.1,2.9,18.5,2.9,28.1c0,9.6-1,19-2.9,28.1
						c-1.9,9.1-4.7,17.8-8.2,26.2c-3.6,8.3-7.9,16.2-13,23.6c-5.1,7.4-10.8,14.3-17.2,20.5l0,0c-4.6,4.2-11,9.6-15.9,13.4
						c-2.5,1.9-6.1,4.1-8.7,5.8c-5.2,3.5-12.9,7.2-18.7,9.6c-5.8,2.5-13.9,5.4-20.1,6.7c-3.1,0.7-7.3,1.8-10.4,2.2
						c-2.8,0.4-6.6,1-9.4,1.3c-1.3,0.1-5.4,0.5-10.4,0.6c-0.7,0-1.4,0-2.1,0C141.3,389.7,140.9,389.8,140.4,389.8z"/>
				</defs>
				<clipPath id="SVGID_4_">
					<use xlink:href="#SVGID_3_"  style="overflow:visible;"/>
				</clipPath>
				<g class="st14">
					<path class="st15" d="M59.1,226.4c-2,0-3.9,0-5.9,0c-3.4,17.7-3.8,30.9-3.8,37.2c0-0.1-2.5-16.7-1.7-37.2c-1.9,0-3.8,0-5.7,0
						c-3.9,19.9-3.6,32.9-3.5,37.2c0-0.1-2.5-16.6-1.3-37.1c-1.6,0-3.1,0-4.7,0c-0.6,4.3-2.8,27.2,6.7,61.1c1.5,0,3,0,4.5,0
						c-1.3-12.5-1.1-21-0.6-36.2c0.9,5.6,1.1,11.4,2,17c1.7,9.4,3.5,16.2,4.3,19.2c1.7,0,3.4,0,5.2,0
						C53.3,266.7,54.7,248.3,59.1,226.4"/>
					<path class="st15" d="M83,226.3c-2.4,0-4.8,0-7.2,0c-3.1,12.4-3.8,17.5-4,19.5c-0.3-0.7-2-19.3-2.1-19.5c-2.3,0-4.6,0-7,0
						c0.1,1.7,0.5,6.2,1.1,10.8c1.1,9.3,3.8,18.4,4.3,27.9c0.3,6.6,0.9,12.9,1.8,19.5c0.1,0.9,0.3,2.2,0.4,3.1c2.5,0,4.9,0,7.4,0
						C74.5,262.1,74.2,259.4,83,226.3"/>
					<path class="st15" d="M94.8,280.1c-0.5-7.5-0.8-13.8-1-21.5c3.2,0,3.9,5.5,4.1,7.4c0.9,7.7-0.1,12.4-1.6,13.8
						C95.9,280.1,95.8,280.1,94.8,280.1 M93.7,250.4c0-6,0.1-10.8,0.4-16.6c2.4,0,2.7,4.8,2.7,6.4c0.2,4.4-0.6,8.6-1.9,9.9
						C94.6,250.4,94.6,250.4,93.7,250.4 M95.2,226.3c-2.7,0-5.4,0-8,0c-1.4,21.7-1.1,40.1,1.1,61.4c11.7,0,14.1,0,16.6-5.9
						c3.8-9.1,1.6-23-2.8-27.1c-0.2-0.2-0.5-0.4-0.8-0.6c4.9-3.9,6.4-26.5-5-27.8C95.9,226.3,95.5,226.3,95.2,226.3"/>
					<path class="st15" d="M124.7,279c-4.3-1.3-4.8-41.4-0.6-43.8c3.8-2.2,4,33.3,2,41.4C125.6,278.7,125,279,124.7,279
						 M124.7,225.7c-19,1.7-13.4,53.3-5.3,60.5c5.5,4.9,19.8,5.4,17.5-35.7C135.5,226.2,127.3,225.8,124.7,225.7"/>
					<path class="st15" d="M153.5,252.7c0-6.5,0-11.7-0.1-18.2c0.9,0,2.9,0,3.4,6.1c0.6,6.1-0.5,10.5-1.8,11.7
						C154.6,252.7,154.6,252.7,153.5,252.7 M154.6,226.2c-3.4,0-6.9,0-10.3,0c0.1,22.1,0.1,40.5-0.1,61.5c2.9,0,5.8,0,8.8,0
						c0.2-9,0.3-16.8,0.4-26.1c0.2,0,0.4,0,0.6,0c1.2,4.6,4.5,23.6,5,26.1c2.9,0,5.8,0,8.7,0c-1.6-9.8-3.1-18.3-5.5-30.2
						C168.8,248.8,166.7,226.7,154.6,226.2"/>
					<path class="st15" d="M183.2,279c-1.1-0.4-2.1-3-2-19.3c0.1-15.3,0.9-23.5,2.3-24.4c3.3-2.1,4.6,25.6,1.8,39.1
						C184.6,277.3,183.9,279,183.2,279 M183.3,225.7c-4.7,0.5-9.3,3.4-10.7,21.6c-0.4,5.6-2.2,34,5.9,39.8
						c12.3,8.7,20-20.6,15.7-45.6C192.4,231.3,188.5,225.7,183.3,225.7"/>
					<path class="st15" d="M198.1,226.3c4.1,21.8,6,40.7,5.9,61.4c2,0,4,0,5.9,0c5.3-21.4,5.9-32.6,6.1-36.2
						c0,0.1,1.7,17.5,0.8,36.2c1.8,0,3.7,0,5.5,0c5.6-21.4,7.9-39.7,7.7-61.2c-1.9,0-3.9,0-5.8,0c0.4,14.8-0.5,24.8-1.9,37.2
						c-0.1-0.4-0.1-1-0.1-1.5c-0.1-12.9-2.1-26.6-3.8-35.8c-2.3,0-4.5,0-6.8,0c0,13-0.7,22.8-2.2,37.3c-0.1-0.4-0.2-1.1-0.2-1.5
						c-0.1-3.8-0.3-15.5-4-35.8C202.9,226.3,200.5,226.3,198.1,226.3"/>
					<path class="st15" d="M240.7,265.7c-0.7,0-1.3,0-2,0c0-0.1,1.5-11.5,1.4-17.5c0,0,0.1,0,0.1,0
						C240.2,248.2,240.8,256.2,240.7,265.7 M236.2,226.5c0.5,21.5-1.6,39.8-7.3,61.2c1.9,0,3.7,0,5.6,0c1.3-5,2.2-9.2,3.1-14.3
						c0.9,0,1.9,0,2.8,0c-0.3,5.2-0.7,9.3-1.3,14.3c1.8,0,3.5,0,5.3,0c2.5-21.1,1.7-39.4-2.8-61.1
						C239.7,226.5,238,226.5,236.2,226.5"/>
					<path class="st15" d="M248.4,229c0-0.1,0-0.2,0-0.3s0-0.2,0-0.3c0-0.1,0-0.2,0-0.3c0-0.1,0-0.2,0-0.3c0.5,0,0.7,0,0.8,0.2
						c0.2,0.2,0.3,0.7,0.1,0.9c-0.1,0.1-0.3,0.1-0.4,0.1c0,0-0.1,0-0.1,0s-0.1,0-0.1,0C248.5,229,248.5,229,248.4,229
						C248.4,229,248.4,229,248.4,229 M248.6,227.3c-0.1,0-0.1,0-0.2,0c-0.1,0-0.1,0-0.2,0c-0.1,0-0.1,0-0.2,0c-0.1,0-0.1,0-0.2,0
						l0.5,3.8l0.4,0l-0.2-1.6l0.4,0l0.6,1.6c0,0,0.1,0,0.1,0c0,0,0.1,0,0.1,0c0,0,0.1,0,0.1,0c0,0,0.1,0,0.1,0
						c-0.2-0.5-0.5-1.2-0.7-1.7c0.7-0.3,0.5-1.7-0.3-2C248.8,227.3,248.6,227.3,248.6,227.3 M249.1,232.2c-2-0.1-2.7-4.4-1.4-5.6
						c1.1-1,2.9,0.9,2.8,3.5C250.4,231.2,250,232.2,249.1,232.2 M248.3,225.9c-2,0.1-2.1,4.5-0.2,6.3c1.3,1.2,2.7,0,2.7-2.2
						C250.7,227.8,249.6,225.9,248.3,225.9"/>
				</g>
			</g>
		</g>
	</g>
</g>
</svg>
