<?xml version="1.0" encoding="utf-8"?>
<!-- Generator: Adobe Illustrator 19.1.1, SVG Export Plug-In . SVG Version: 6.00 Build 0)  -->
<svg version="1.1" id="Layer_1" xmlns="http://www.w3.org/2000/svg" xmlns:xlink="http://www.w3.org/1999/xlink" x="0px" y="0px"
	 viewBox="0 0 358 315" enable-background="new 0 0 358 315" xml:space="preserve">
<g opacity="5.000000e-002">
	<g>
		<defs>
			<rect id="SVGID_10_" x="-0.2" y="-0.5" width="358" height="316"/>
		</defs>
		<clipPath id="SVGID_2_">
			<use xlink:href="#SVGID_10_"  overflow="visible"/>
		</clipPath>
		<g clip-path="url(#SVGID_2_)">
			<path d="M256.3,301.4c-2.3-1.4-6-2.9-6-6c0-0.1,0.2-0.1,0.2-0.3c0,0-0.1-9.6-0.1-10s-0.1-0.5-0.1-1.2c0-0.7-0.1-1.5-0.1-1.5
				s-0.7-0.8-4.3-0.8s-4.3,0.8-4.3,0.8s-0.1,0.8-0.1,1.5c0,0.7-0.1,0.8-0.1,1.2s-0.1,10-0.1,10c0,0.2,0.2,0.2,0.2,0.3
				c0,3.1-3.6,4.6-6,6s-2.1,2.8-2.1,4.2c0,1.4,0.2,1,0.2,1.8c0,0.8-0.1,19.7-0.1,21.8c0,2.2-0.2,2.2-0.2,2.8s0.2,7.4,0.2,10.9
				s1.2,5.6,1.7,5.9c0.5,0.3,7.9,0.5,10.4,0.5l0.2,0l0.2,0c2.5,0,9.9-0.2,10.4-0.5c0.5-0.3,1.7-2.5,1.7-5.9s0.2-10.3,0.2-10.9
				s-0.2-0.6-0.2-2.8c0-2.2-0.1-21-0.1-21.8c0-0.8,0.2-0.4,0.2-1.8C258.4,304.2,258.7,302.8,256.3,301.4z"/>
			<path d="M23.1,297.7c-0.2-0.1-0.2-1-1-1.3c-0.4-0.3-0.3-0.7-0.3-1.8s0-8,0-8s0.7-0.2,0.9-0.4c0-0.5,0-3.2,0-3.7
				c0-0.5-1.5-0.7-4.9-0.7s-4.9,0.3-4.9,0.7c0,0.5,0,3.2,0,3.7c0.2,0.2,0.9,0.4,0.9,0.4s0,6.9,0,8s0,1.5-0.3,1.8
				c-0.8,0.3-0.8,1.3-1,1.3c-7,3-6.6,8-6.6,10.7s0,30.2,0,32.4s0.1,5.2,0.8,6.8c0.8,1.6,10,1.7,11.1,1.7c1.2,0,10.4-0.1,11.1-1.7
				c0.8-1.6,0.8-4.6,0.8-6.8s0-29.6,0-32.4S30.1,300.7,23.1,297.7z"/>
			<path d="M286.5,313.9c0-3.6,0.7-6.5-1.7-10.8c-2.4-4.4-2.8-5-2.8-7.1c0-1.2,0-7.1,0-7.8c0-0.7-0.2-0.5-0.2-0.8s0.3-0.6,0.3-0.9
				s0-1.4,0-1.8c0-0.4-0.2-0.3-0.2-0.5c0-0.2,0.1-0.1,0.1-0.4c0-0.2-0.1-0.1-0.1-0.3s0.1-0.3,0.1-0.6c0-0.1,0,0,0-0.6
				s-3.4-0.7-3.4-0.7s-3.4,0.2-3.4,0.7s0,0.4,0,0.6c0,0.3,0.1,0.4,0.1,0.6s-0.1,0.1-0.1,0.3c0,0.2,0.1,0.2,0.1,0.4
				c0,0.2-0.2,0.1-0.2,0.5c0,0.4,0,1.5,0,1.8s0.3,0.6,0.3,0.9s-0.2,0.1-0.2,0.8c0,0.7,0,6.6,0,7.8c0,2.1-0.4,2.7-2.8,7.1
				c-2.3,4.3-1.7,7.2-1.7,10.8c0,3.6,0.4,22.8,0.5,25.3c0.1,2.5,0,5.9-0.1,8c-0.1,2,2,2.2,7.5,2.2c5.4,0,7.6-0.2,7.5-2.2
				c-0.1-2-0.2-5.4-0.1-8C286.1,336.6,286.5,317.4,286.5,313.9z"/>
			<path d="M321.7,320.9c-0.1-3.2-4.2-8.4-5.3-10.2c-1.1-1.8-1-6.3-1.1-7.8c-0.1-1.5-0.8-13.8-0.9-14.8c-0.1-0.8,0.4-0.6,0.3-1.3
				c-0.1-0.4-0.1-0.7-0.1-1.2c0-0.5,0-0.4-0.1-0.8c-0.1-0.3,0-1.2-0.1-2.1c0-0.9-2.1-1-3.2-1c-1.1,0-3.1,0.1-3.2,1
				c0,0.9,0,1.8-0.1,2.1c-0.1,0.4-0.1,0.3-0.1,0.8c0,0.5-0.1,0.8-0.1,1.2c-0.1,0.7,0.3,0.5,0.3,1.3c-0.1,1-0.8,13.3-0.9,14.8
				c-0.1,1.5,0,5.9-1.1,7.8c-1.1,1.8-5.2,7-5.3,10.2c-0.1,3.2,0.3,9.2,0.4,11.5c0.1,2.3,0.7,10.7,0.8,12.9c0.2,2.3,1,4.1,9.2,4
				c8.2,0.1,9.1-1.8,9.2-4c0.2-2.3,0.7-10.6,0.8-12.9C321.4,330,321.8,324.1,321.7,320.9z"/>
			<path d="M351.9,307.5c-0.1-0.9,0.2-1.3-1.3-2.1c-1.5-0.8-2.5-1.2-2.5-2.2c0-1,0.5-1.1,0.5-1.8s-0.8-3.2-0.9-5.4
				c0-1.6-0.3-1.8-0.3-1.8s0.2-0.1,0.3-0.3s-0.1-9.9-0.1-10.8s-0.6-1.3-3.7-1.3s-3.7,0.4-3.7,1.3c0,0.9-0.1,10.6-0.1,10.8
				c0,0.2,0.3,0.3,0.3,0.3s-0.2,0.2-0.3,1.8c0,2.2-0.8,4.6-0.9,5.4c0,0.8,0.5,0.8,0.5,1.8c0,1-1,1.4-2.5,2.2
				c-1.5,0.8-1.2,1.2-1.3,2.1c-0.1,0.9,0.4,38.1,0.3,40c0,2,5.9,1.8,7.7,1.8s7.7,0.2,7.7-1.8C351.5,345.5,351.9,308.4,351.9,307.5z"
				/>
			<path d="M58.9,311.6c0-1.1,0.5-2.2,0.3-3.4c-0.5-2.2-0.7-2.3-2.1-3.3c-1.4-1-3-1.6-3.3-5.3c-0.3-3.7-0.5-9.3-0.6-12
				c0-0.3-0.2-0.3-0.3-0.5c0-0.2,0.3-0.3,0.3-0.8c0-0.3-0.1-0.3-0.1-0.4c0-0.1,0.2-0.2,0.2-0.4s-0.1-0.3-0.1-0.6c0-0.4,0-0.3,0-0.5
				s-0.3-0.1-0.3-0.3s0.3-0.2,0.2-0.4c0-0.2-0.2-0.2-0.2-0.4c0-0.2,0.3-0.3,0.3-0.7c0-0.4,0-0.4,0-0.4s0-0.5-2.7-0.5v0
				c0,0-0.1,0-0.1,0c0,0-0.1,0-0.1,0v0c-2.8,0-2.7,0.5-2.7,0.5s0,0,0,0.4c0,0.4,0.3,0.5,0.3,0.7c0,0.2-0.2,0.2-0.2,0.4
				c0,0.2,0.2,0.2,0.2,0.4s-0.3,0.1-0.3,0.3s0,0.1,0,0.5c0,0.4-0.1,0.4-0.1,0.6s0.2,0.2,0.2,0.4c0,0.1-0.1,0.1-0.1,0.4
				c0,0.5,0.3,0.5,0.3,0.8c0,0.2-0.2,0.2-0.3,0.5c-0.1,2.8-0.3,8.3-0.6,12c-0.3,3.7-1.9,4.3-3.3,5.3c-1.4,1-1.7,1.1-2.1,3.3
				c-0.3,1.2,0.3,2.3,0.3,3.4s0,27.1-0.1,29.6c-0.1,2.5-0.3,4.9,0,6.4c0.3,1.5,4.1,1.7,8.6,1.7v0c0,0,0.1,0,0.1,0c0,0,0.1,0,0.1,0v0
				c4.5,0,8.3-0.1,8.6-1.7c0.3-1.5,0.1-3.9,0-6.4C58.9,338.7,58.9,312.8,58.9,311.6z"/>
			<path d="M88.8,306.4c-1.7-3.6-2.2-4.8-2.4-9c-0.2-4.2-0.1-13-0.2-13.8c0-0.4-0.2-0.2-0.2-0.5c0-0.3,0.3-0.4,0.2-0.7
				c-0.1-0.3-0.7-0.6-3.3-0.6v0c0,0,0,0,0,0c0,0,0,0,0,0v0c-2.6,0-3.1,0.3-3.3,0.6c-0.1,0.3,0.2,0.5,0.2,0.7c0,0.3-0.1,0.2-0.2,0.5
				c-0.1,0.8,0,9.6-0.2,13.8c-0.2,4.2-0.7,5.4-2.4,9c-1.7,3.6-3.5,4.4-3.4,7.6c0.1,3.3,0.4,9.1,0.5,13.7c0,4.6-0.4,9.2-0.4,12.8
				c0,3.6,1.2,7.3,2,8c0.7,0.7,5.3,0.7,7.3,0.7c1.9,0,6.5,0,7.3-0.7c0.7-0.7,2-4.4,2-8c0-3.6-0.4-8.2-0.4-12.8
				c0-4.6,0.4-10.4,0.5-13.7C92.4,310.7,90.5,309.9,88.8,306.4z"/>
			<path d="M124.6,323.2c0-5.8-3-13.2-4-17.2c-1-4.1-1.9-8.2-1.9-12.3c0-4.1,0.6-3.3,0.5-5.1c0-1.8-0.1-4.6-0.6-5.5
				c-0.5-0.9-1.1-1.4-2.9-1.5v0c0,0-0.1,0-0.1,0c0,0-0.1,0-0.1,0v0c-1.8,0-2.4,0.6-2.9,1.5c-0.5,0.9-0.5,3.7-0.6,5.5
				c0,1.8,0.5,0.9,0.5,5.1s-0.9,8.2-1.9,12.3c-1,4.1-4,11.4-4,17.2c0,5.8,0,19,0,22.7c0,3.7,6,3.4,9,3.4c3.1,0,9,0.3,9-3.4
				C124.6,342.2,124.6,329,124.6,323.2z"/>
			<path d="M161.3,318.8c0-4.6-2.5-6.8-4.4-8.3c-1.8-1.5-3.5-2.5-3.5-4.4c0-1.9,1-2.6,0.3-6.3s-1.8-6.7-1.5-7.9
				c0.2-1.2,0.1-2.7,0.1-4.5c-0.1-1.8,0.3-1.5,0.1-3.4c-0.2-1.9-0.1-2.4-4.2-2.4c-4.1,0-4.1,0.6-4.2,2.4c-0.2,1.9,0.2,1.6,0.1,3.4
				s-0.2,3.3,0.1,4.5c0.2,1.2-0.8,4.1-1.5,7.9s0.3,4.4,0.3,6.3c0,1.9-1.6,2.9-3.5,4.4c-1.8,1.5-4.4,3.7-4.4,8.3
				c0,4.6,0.4,21,0.4,24.7c0,2.5-0.3,1.8-0.1,3.1c0.2,2.1,8.3,2.8,12.9,2.8c4.6,0,12.7-0.6,12.9-2.8c0.1-1.3-0.1-0.6-0.1-3.1
				C160.9,339.8,161.3,323.4,161.3,318.8z"/>
			<path d="M186.6,303.5c-2.5-3.4-2.3-3.4-2.7-9.2c-0.3-5.7-0.3-7.9-0.1-8.4c0.2-0.5,0.1-0.4,0.1-0.8s0-1.2,0-1.4
				c0-0.2-0.2-0.3-0.2-0.6s0-0.8,0-0.8s-0.1-0.7-3-0.7s-3,0.7-3,0.7s0,0.4,0,0.8s-0.2,0.4-0.2,0.6c0,0.2,0,1,0,1.4s-0.1,0.3,0.1,0.8
				c0.2,0.5,0.3,2.6-0.1,8.4c-0.3,5.7-0.2,5.8-2.7,9.2c-2.5,3.4-2.2,5.7-2.2,7.8c0,2.1,0,24.2,0,29.8c0,5.6,0.2,5.9,0.3,7.1
				s5.2,1.1,7.7,1.1c2.5,0,7.5,0.1,7.7-1.1c0.2-1.2,0.3-1.5,0.3-7.1c0-5.6,0-27.7,0-29.8C188.8,309.2,189.1,306.9,186.6,303.5z"/>
			<path d="M222.6,313.4c0-0.5,0.3-0.3,0.3-1.4s0.2-2-0.7-2.8c-0.9-0.8-3.9-3.5-4.5-4.1c-0.6-0.6-0.8-0.8-0.6-2
				c0.2-1.2,0.3-2.4,0.3-3.9s-0.5-3.5-0.5-7.3s0-4,0-4.4c0-0.3-0.2-0.4-0.2-0.7c0-0.4,0.2-0.2,0.2-0.8s0-0.5,0-0.7s-0.1-0.4-0.1-0.7
				s0.1-0.2,0.1-0.5s-0.1-0.1-0.1-0.3s0.1-0.1,0.1-0.5s0-0.6,0-0.9s-0.7-0.8-3.5-0.8s-3.5,0.5-3.5,0.8s0,0.5,0,0.9s0.1,0.3,0.1,0.5
				s-0.1,0.1-0.1,0.3s0.1,0.2,0.1,0.5s-0.1,0.5-0.1,0.7s0,0.1,0,0.7s0.2,0.4,0.2,0.8c0,0.4-0.2,0.4-0.2,0.7c0,0.3,0,0.6,0,4.4
				s-0.5,5.8-0.5,7.3s0.1,2.7,0.3,3.9c0.2,1.2,0,1.4-0.6,2c-0.6,0.6-3.5,3.3-4.5,4.1s-0.7,1.7-0.7,2.8s0.3,0.9,0.3,1.4
				c0,0.5,0,11.1,0,15.3s0,15.6,0,16.4s-0.3,0.8-0.3,1.5c0,0.2,0,0.4,0,0.8c0,0.8,0,1.7,1.9,1.7c2.3,0,5.3,0.1,7.6,0.1
				c2.3,0,5.3,0,7.6-0.1c1.9,0,1.9-1,1.9-1.7c0-0.4,0-0.6,0-0.8c0-0.7-0.3-0.6-0.3-1.5s0-12.2,0-16.4S222.6,313.9,222.6,313.4z"/>
		</g>
		<g clip-path="url(#SVGID_2_)">
			<path d="M202.1,218.7c-0.2-0.1-0.2-1-1-1.3c-0.4-0.3-0.3-0.7-0.3-1.8s0-8,0-8s0.7-0.2,0.9-0.4c0-0.5,0-3.2,0-3.7
				c0-0.5-1.5-0.7-4.9-0.7c-3.4,0-4.9,0.3-4.9,0.7c0,0.5,0,3.2,0,3.7c0.2,0.2,0.9,0.4,0.9,0.4s0,6.9,0,8s0,1.5-0.3,1.8
				c-0.8,0.3-0.8,1.3-1,1.3c-7,3-6.6,8-6.6,10.7c0,2.7,0,30.2,0,32.4s0.1,5.2,0.8,6.8c0.8,1.6,10,1.7,11.1,1.7
				c1.2,0,10.4-0.1,11.1-1.7c0.8-1.6,0.8-4.6,0.8-6.8s0-29.6,0-32.4C208.7,226.7,209.1,221.7,202.1,218.7z"/>
			<path d="M237.9,232.6c0-1.1,0.5-2.2,0.3-3.4c-0.5-2.2-0.7-2.3-2.1-3.3c-1.4-1-3-1.6-3.3-5.3c-0.3-3.7-0.5-9.3-0.6-12
				c0-0.3-0.2-0.3-0.3-0.5c0-0.2,0.3-0.3,0.3-0.8c0-0.3-0.1-0.3-0.1-0.4s0.2-0.2,0.2-0.4c0-0.2-0.1-0.3-0.1-0.6c0-0.4,0-0.3,0-0.5
				c0-0.2-0.3-0.1-0.3-0.3c0-0.2,0.3-0.2,0.2-0.4c0-0.2-0.2-0.2-0.2-0.4s0.3-0.3,0.3-0.7c0-0.4,0-0.4,0-0.4s0-0.5-2.7-0.5v0
				c0,0-0.1,0-0.1,0c0,0-0.1,0-0.1,0v0c-2.8,0-2.7,0.5-2.7,0.5s0,0,0,0.4c0,0.4,0.3,0.5,0.3,0.7s-0.2,0.2-0.2,0.4
				c0,0.2,0.2,0.2,0.2,0.4c0,0.2-0.3,0.1-0.3,0.3c0,0.2,0,0.1,0,0.5s-0.1,0.4-0.1,0.6c0,0.2,0.2,0.2,0.2,0.4s-0.1,0.1-0.1,0.4
				c0,0.5,0.3,0.5,0.3,0.8c0,0.2-0.2,0.2-0.3,0.5c-0.1,2.8-0.3,8.3-0.6,12c-0.3,3.7-1.9,4.3-3.3,5.3c-1.4,1-1.7,1.1-2.1,3.3
				c-0.3,1.2,0.3,2.3,0.3,3.4s0,27.1-0.1,29.6c-0.1,2.5-0.3,4.9,0,6.4c0.3,1.5,4.1,1.7,8.6,1.7v0c0,0,0.1,0,0.1,0c0,0,0.1,0,0.1,0v0
				c4.5,0,8.3-0.1,8.6-1.7c0.3-1.5,0.1-3.9,0-6.4C237.9,259.7,237.9,233.8,237.9,232.6z"/>
			<path d="M267.8,227.4c-1.7-3.6-2.2-4.8-2.4-9c-0.2-4.2-0.1-13-0.2-13.8c0-0.4-0.2-0.2-0.2-0.5c0-0.3,0.3-0.4,0.2-0.7
				c-0.1-0.3-0.7-0.6-3.3-0.6v0c0,0,0,0,0,0s0,0,0,0v0c-2.6,0-3.1,0.3-3.3,0.6c-0.1,0.3,0.2,0.5,0.2,0.7c0,0.3-0.1,0.2-0.2,0.5
				c-0.1,0.8,0,9.6-0.2,13.8c-0.2,4.2-0.7,5.4-2.4,9c-1.7,3.6-3.5,4.4-3.4,7.6c0.1,3.3,0.4,9.1,0.5,13.7c0,4.6-0.4,9.2-0.4,12.8
				c0,3.6,1.2,7.3,2,8c0.7,0.7,5.3,0.7,7.3,0.7c1.9,0,6.5,0,7.3-0.7c0.7-0.7,2-4.4,2-8s-0.4-8.2-0.4-12.8c0-4.6,0.4-10.4,0.5-13.7
				C271.4,231.7,269.5,230.9,267.8,227.4z"/>
			<path d="M303.6,244.2c0-5.8-3-13.2-4-17.2c-1-4.1-1.9-8.2-1.9-12.3c0-4.1,0.6-3.3,0.5-5.1s-0.1-4.6-0.6-5.5
				c-0.5-0.9-1.1-1.4-2.9-1.5v0c0,0-0.1,0-0.1,0c0,0-0.1,0-0.1,0v0c-1.8,0-2.4,0.6-2.9,1.5c-0.5,0.9-0.5,3.7-0.6,5.5
				s0.5,0.9,0.5,5.1c0,4.1-0.9,8.2-1.9,12.3c-1,4.1-4,11.4-4,17.2s0,19,0,22.7c0,3.7,6,3.4,9,3.4c3.1,0,9,0.3,9-3.4
				C303.6,263.2,303.6,250,303.6,244.2z"/>
			<path d="M340.3,239.8c0-4.6-2.5-6.8-4.4-8.3c-1.8-1.5-3.5-2.5-3.5-4.4c0-1.9,1-2.6,0.3-6.3c-0.7-3.8-1.8-6.7-1.5-7.9
				c0.2-1.2,0.1-2.7,0.1-4.5c-0.1-1.8,0.3-1.5,0.1-3.4c-0.2-1.9-0.1-2.4-4.2-2.4s-4.1,0.6-4.2,2.4c-0.2,1.9,0.2,1.6,0.1,3.4
				c-0.1,1.8-0.2,3.3,0.1,4.5c0.2,1.2-0.8,4.1-1.5,7.9c-0.7,3.8,0.3,4.4,0.3,6.3c0,1.9-1.6,2.9-3.5,4.4c-1.8,1.5-4.4,3.7-4.4,8.3
				c0,4.6,0.4,21,0.4,24.7c0,2.5-0.3,1.8-0.1,3.1c0.2,2.1,8.3,2.8,12.9,2.8s12.7-0.6,12.9-2.8c0.1-1.3-0.1-0.6-0.1-3.1
				C339.9,260.8,340.3,244.4,340.3,239.8z"/>
			<path d="M365.6,224.5c-2.5-3.4-2.3-3.4-2.7-9.2c-0.3-5.7-0.3-7.9-0.1-8.4c0.2-0.5,0.1-0.4,0.1-0.8s0-1.2,0-1.4
				c0-0.2-0.2-0.3-0.2-0.6c0-0.3,0-0.8,0-0.8s-0.1-0.7-3-0.7s-3,0.7-3,0.7s0,0.4,0,0.8c0,0.3-0.2,0.4-0.2,0.6c0,0.2,0,1,0,1.4
				s-0.1,0.3,0.1,0.8c0.2,0.5,0.3,2.6-0.1,8.4c-0.3,5.7-0.2,5.8-2.7,9.2c-2.5,3.4-2.2,5.7-2.2,7.8c0,2.1,0,24.2,0,29.8
				c0,5.6,0.2,5.9,0.3,7.1s5.2,1.1,7.7,1.1c2.5,0,7.5,0.1,7.7-1.1c0.2-1.2,0.3-1.5,0.3-7.1c0-5.6,0-27.7,0-29.8
				C367.8,230.2,368.1,227.9,365.6,224.5z"/>
		</g>
		<g clip-path="url(#SVGID_2_)">
			<path d="M77.3,222.4c-2.3-1.4-6-2.9-6-6c0-0.1,0.2-0.1,0.2-0.3c0,0-0.1-9.6-0.1-10c0-0.3-0.1-0.5-0.1-1.2s-0.1-1.5-0.1-1.5
				s-0.7-0.8-4.3-0.8c-3.6,0-4.3,0.8-4.3,0.8s-0.1,0.8-0.1,1.5s-0.1,0.8-0.1,1.2c0,0.3-0.1,10-0.1,10c0,0.2,0.2,0.2,0.2,0.3
				c0,3.1-3.6,4.6-6,6s-2.1,2.8-2.1,4.2c0,1.4,0.2,1,0.2,1.8c0,0.8-0.1,19.7-0.1,21.8c0,2.2-0.2,2.2-0.2,2.8c0,0.6,0.2,7.4,0.2,10.9
				s1.2,5.6,1.7,5.9c0.5,0.3,7.9,0.5,10.4,0.5l0.2,0l0.2,0c2.5,0,9.9-0.2,10.4-0.5c0.5-0.3,1.7-2.5,1.7-5.9s0.2-10.3,0.2-10.9
				c0-0.6-0.2-0.6-0.2-2.8c0-2.2-0.1-21-0.1-21.8c0-0.8,0.2-0.4,0.2-1.8C79.4,225.2,79.7,223.8,77.3,222.4z"/>
			<path d="M107.5,234.9c0-3.6,0.7-6.5-1.7-10.8c-2.4-4.4-2.8-5-2.8-7.1c0-1.2,0-7.1,0-7.8c0-0.7-0.2-0.5-0.2-0.8s0.3-0.6,0.3-0.9
				c0-0.3,0-1.4,0-1.8c0-0.4-0.2-0.3-0.2-0.5s0.1-0.1,0.1-0.4c0-0.2-0.1-0.1-0.1-0.3c0-0.2,0.1-0.3,0.1-0.6c0-0.1,0,0,0-0.6
				s-3.4-0.7-3.4-0.7s-3.4,0.2-3.4,0.7s0,0.4,0,0.6c0,0.3,0.1,0.4,0.1,0.6c0,0.2-0.1,0.1-0.1,0.3c0,0.2,0.1,0.2,0.1,0.4
				s-0.2,0.1-0.2,0.5c0,0.4,0,1.5,0,1.8c0,0.3,0.3,0.6,0.3,0.9s-0.2,0.1-0.2,0.8c0,0.7,0,6.6,0,7.8c0,2.1-0.4,2.7-2.8,7.1
				c-2.3,4.3-1.7,7.2-1.7,10.8c0,3.6,0.4,22.8,0.5,25.3c0.1,2.5,0,5.9-0.1,8c-0.1,2,2,2.2,7.5,2.2c5.4,0,7.6-0.2,7.5-2.2
				c-0.1-2-0.2-5.4-0.1-8C107.1,257.6,107.5,238.4,107.5,234.9z"/>
			<path d="M142.7,241.9c-0.1-3.2-4.2-8.4-5.3-10.2c-1.1-1.8-1-6.3-1.1-7.8c-0.1-1.5-0.8-13.8-0.9-14.8c-0.1-0.8,0.4-0.6,0.3-1.3
				c-0.1-0.4-0.1-0.7-0.1-1.2c0-0.5,0-0.4-0.1-0.8c-0.1-0.3,0-1.2-0.1-2.1c0-0.9-2.1-1-3.2-1c-1.1,0-3.1,0.1-3.2,1
				c0,0.9,0,1.8-0.1,2.1c-0.1,0.4-0.1,0.3-0.1,0.8c0,0.5-0.1,0.8-0.1,1.2c-0.1,0.7,0.3,0.5,0.3,1.3c-0.1,1-0.8,13.3-0.9,14.8
				c-0.1,1.5,0,5.9-1.1,7.8c-1.1,1.8-5.2,7-5.3,10.2c-0.1,3.2,0.3,9.2,0.4,11.5c0.1,2.3,0.7,10.7,0.8,12.9c0.2,2.3,1,4.1,9.2,4
				c8.2,0.1,9.1-1.8,9.2-4c0.2-2.3,0.7-10.6,0.8-12.9C142.4,251,142.8,245.1,142.7,241.9z"/>
			<path d="M172.9,228.5c-0.1-0.9,0.2-1.3-1.3-2.1c-1.5-0.8-2.5-1.2-2.5-2.2c0-1,0.5-1.1,0.5-1.8c0-0.8-0.8-3.2-0.9-5.4
				c0-1.6-0.3-1.8-0.3-1.8s0.2-0.1,0.3-0.3c0-0.2-0.1-9.9-0.1-10.8c0-0.9-0.6-1.3-3.7-1.3c-3.1,0-3.7,0.4-3.7,1.3
				c0,0.9-0.1,10.6-0.1,10.8c0,0.2,0.3,0.3,0.3,0.3s-0.2,0.2-0.3,1.8c0,2.2-0.8,4.6-0.9,5.4c0,0.8,0.5,0.8,0.5,1.8
				c0,1-1,1.4-2.5,2.2c-1.5,0.8-1.2,1.2-1.3,2.1c-0.1,0.9,0.4,38.1,0.3,40c0,2,5.9,1.8,7.7,1.8c1.9,0,7.7,0.2,7.7-1.8
				C172.5,266.5,172.9,229.4,172.9,228.5z"/>
			<path d="M7.6,224.5c-2.5-3.4-2.3-3.4-2.7-9.2c-0.3-5.7-0.3-7.9-0.1-8.4c0.2-0.5,0.1-0.4,0.1-0.8s0-1.2,0-1.4
				c0-0.2-0.2-0.3-0.2-0.6c0-0.3,0-0.8,0-0.8s-0.1-0.7-3-0.7c-2.9,0-3,0.7-3,0.7s0,0.4,0,0.8c0,0.3-0.2,0.4-0.2,0.6c0,0.2,0,1,0,1.4
				s-0.1,0.3,0.1,0.8c0.2,0.5,0.3,2.6-0.1,8.4c-0.3,5.7-0.2,5.8-2.7,9.2c-2.5,3.4-2.2,5.7-2.2,7.8c0,2.1,0,24.2,0,29.8
				c0,5.6,0.2,5.9,0.3,7.1c0.2,1.2,5.2,1.1,7.7,1.1s7.5,0.1,7.7-1.1c0.2-1.2,0.3-1.5,0.3-7.1c0-5.6,0-27.7,0-29.8
				C9.8,230.2,10.1,227.9,7.6,224.5z"/>
			<path d="M43.6,234.4c0-0.5,0.3-0.3,0.3-1.4s0.2-2-0.7-2.8c-0.9-0.8-3.9-3.5-4.5-4.1s-0.8-0.8-0.6-2c0.2-1.2,0.3-2.4,0.3-3.9
				s-0.5-3.5-0.5-7.3c0-3.8,0-4,0-4.4c0-0.3-0.2-0.4-0.2-0.7s0.2-0.2,0.2-0.8c0-0.6,0-0.5,0-0.7s-0.1-0.4-0.1-0.7
				c0-0.3,0.1-0.2,0.1-0.5s-0.1-0.1-0.1-0.3c0-0.2,0.1-0.1,0.1-0.5c0-0.4,0-0.6,0-0.9c0-0.3-0.7-0.8-3.5-0.8s-3.5,0.5-3.5,0.8
				c0,0.3,0,0.5,0,0.9c0,0.4,0.1,0.3,0.1,0.5c0,0.2-0.1,0.1-0.1,0.3s0.1,0.2,0.1,0.5c0,0.3-0.1,0.5-0.1,0.7s0,0.1,0,0.7
				c0,0.6,0.2,0.4,0.2,0.8s-0.2,0.4-0.2,0.7c0,0.3,0,0.6,0,4.4c0,3.8-0.5,5.8-0.5,7.3s0.1,2.7,0.3,3.9s0,1.4-0.6,2
				c-0.6,0.6-3.5,3.3-4.5,4.1c-0.9,0.8-0.7,1.7-0.7,2.8s0.3,0.9,0.3,1.4c0,0.5,0,11.1,0,15.3s0,15.6,0,16.4s-0.3,0.8-0.3,1.5
				c0,0.2,0,0.4,0,0.8c0,0.8,0,1.7,1.9,1.7c2.3,0,5.3,0.1,7.6,0.1c2.3,0,5.3,0,7.6-0.1c1.9,0,1.9-1,1.9-1.7c0-0.4,0-0.6,0-0.8
				c0-0.7-0.3-0.6-0.3-1.5s0-12.2,0-16.4S43.6,234.9,43.6,234.4z"/>
		</g>
		<g clip-path="url(#SVGID_2_)">
			<path d="M256.3,143.4c-2.3-1.4-6-2.9-6-6c0-0.1,0.2-0.1,0.2-0.3c0,0-0.1-9.6-0.1-10c0-0.3-0.1-0.5-0.1-1.2c0-0.7-0.1-1.5-0.1-1.5
				s-0.7-0.8-4.3-0.8s-4.3,0.8-4.3,0.8s-0.1,0.8-0.1,1.5c0,0.7-0.1,0.8-0.1,1.2c0,0.3-0.1,10-0.1,10c0,0.2,0.2,0.2,0.2,0.3
				c0,3.1-3.6,4.6-6,6s-2.1,2.8-2.1,4.2c0,1.4,0.2,1,0.2,1.8c0,0.8-0.1,19.7-0.1,21.8c0,2.2-0.2,2.2-0.2,2.8c0,0.6,0.2,7.4,0.2,10.9
				c0,3.4,1.2,5.6,1.7,5.9c0.5,0.3,7.9,0.5,10.4,0.5l0.2,0l0.2,0c2.5,0,9.9-0.2,10.4-0.5c0.5-0.3,1.7-2.5,1.7-5.9
				c0-3.4,0.2-10.3,0.2-10.9c0-0.6-0.2-0.6-0.2-2.8c0-2.2-0.1-21-0.1-21.8c0-0.8,0.2-0.4,0.2-1.8
				C258.4,146.2,258.7,144.8,256.3,143.4z"/>
			<path d="M23.1,139.7c-0.2-0.1-0.2-1-1-1.3c-0.4-0.3-0.3-0.7-0.3-1.8s0-8,0-8s0.7-0.2,0.9-0.4c0-0.5,0-3.2,0-3.7
				c0-0.5-1.5-0.7-4.9-0.7s-4.9,0.3-4.9,0.7c0,0.5,0,3.2,0,3.7c0.2,0.2,0.9,0.4,0.9,0.4s0,6.9,0,8s0,1.5-0.3,1.8
				c-0.8,0.3-0.8,1.3-1,1.3c-7,3-6.6,8-6.6,10.7c0,2.7,0,30.2,0,32.4s0.1,5.2,0.8,6.8c0.8,1.6,10,1.7,11.1,1.7
				c1.2,0,10.4-0.1,11.1-1.7c0.8-1.6,0.8-4.6,0.8-6.8s0-29.6,0-32.4C29.7,147.7,30.1,142.7,23.1,139.7z"/>
			<path d="M286.5,155.9c0-3.6,0.7-6.5-1.7-10.8c-2.4-4.4-2.8-5-2.8-7.1c0-1.2,0-7.1,0-7.8c0-0.7-0.2-0.5-0.2-0.8s0.3-0.6,0.3-0.9
				c0-0.3,0-1.4,0-1.8c0-0.4-0.2-0.3-0.2-0.5s0.1-0.1,0.1-0.4c0-0.2-0.1-0.1-0.1-0.3s0.1-0.3,0.1-0.6c0-0.1,0,0,0-0.6
				c0-0.6-3.4-0.7-3.4-0.7s-3.4,0.2-3.4,0.7c0,0.6,0,0.4,0,0.6c0,0.3,0.1,0.4,0.1,0.6s-0.1,0.1-0.1,0.3c0,0.2,0.1,0.2,0.1,0.4
				s-0.2,0.1-0.2,0.5c0,0.4,0,1.5,0,1.8c0,0.3,0.3,0.6,0.3,0.9s-0.2,0.1-0.2,0.8c0,0.7,0,6.6,0,7.8c0,2.1-0.4,2.7-2.8,7.1
				c-2.3,4.3-1.7,7.2-1.7,10.8c0,3.6,0.4,22.8,0.5,25.3s0,5.9-0.1,8c-0.1,2,2,2.2,7.5,2.2c5.4,0,7.6-0.2,7.5-2.2
				c-0.1-2-0.2-5.4-0.1-8S286.5,159.4,286.5,155.9z"/>
			<path d="M321.7,162.9c-0.1-3.2-4.2-8.4-5.3-10.2c-1.1-1.8-1-6.3-1.1-7.8c-0.1-1.5-0.8-13.8-0.9-14.8c-0.1-0.8,0.4-0.6,0.3-1.3
				c-0.1-0.4-0.1-0.7-0.1-1.2c0-0.5,0-0.4-0.1-0.8c-0.1-0.3,0-1.2-0.1-2.1c0-0.9-2.1-1-3.2-1c-1.1,0-3.1,0.1-3.2,1
				c0,0.9,0,1.8-0.1,2.1c-0.1,0.4-0.1,0.3-0.1,0.8s-0.1,0.8-0.1,1.2c-0.1,0.7,0.3,0.5,0.3,1.3c-0.1,1-0.8,13.3-0.9,14.8
				c-0.1,1.5,0,5.9-1.1,7.8c-1.1,1.8-5.2,7-5.3,10.2c-0.1,3.2,0.3,9.2,0.4,11.5c0.1,2.3,0.7,10.7,0.8,12.9c0.2,2.3,1,4.1,9.2,4
				c8.2,0.1,9.1-1.8,9.2-4c0.2-2.3,0.7-10.6,0.8-12.9C321.4,172,321.8,166.1,321.7,162.9z"/>
			<path d="M351.9,149.5c-0.1-0.9,0.2-1.3-1.3-2.1c-1.5-0.8-2.5-1.2-2.5-2.2c0-1,0.5-1.1,0.5-1.8c0-0.8-0.8-3.2-0.9-5.4
				c0-1.6-0.3-1.8-0.3-1.8s0.2-0.1,0.3-0.3c0-0.2-0.1-9.9-0.1-10.8c0-0.9-0.6-1.3-3.7-1.3s-3.7,0.4-3.7,1.3c0,0.9-0.1,10.6-0.1,10.8
				c0,0.2,0.3,0.3,0.3,0.3s-0.2,0.2-0.3,1.8c0,2.2-0.8,4.6-0.9,5.4c0,0.8,0.5,0.8,0.5,1.8c0,1-1,1.4-2.5,2.2
				c-1.5,0.8-1.2,1.2-1.3,2.1c-0.1,0.9,0.4,38.1,0.3,40s5.9,1.8,7.7,1.8s7.7,0.2,7.7-1.8S351.9,150.4,351.9,149.5z"/>
			<path d="M58.9,153.6c0-1.1,0.5-2.2,0.3-3.4c-0.5-2.2-0.7-2.3-2.1-3.3c-1.4-1-3-1.6-3.3-5.3c-0.3-3.7-0.5-9.3-0.6-12
				c0-0.3-0.2-0.3-0.3-0.5c0-0.2,0.3-0.3,0.3-0.8c0-0.3-0.1-0.3-0.1-0.4s0.2-0.2,0.2-0.4s-0.1-0.3-0.1-0.6c0-0.4,0-0.3,0-0.5
				s-0.3-0.1-0.3-0.3s0.3-0.2,0.2-0.4s-0.2-0.2-0.2-0.4c0-0.2,0.3-0.3,0.3-0.7c0-0.4,0-0.4,0-0.4s0-0.5-2.7-0.5v0c0,0-0.1,0-0.1,0
				c0,0-0.1,0-0.1,0v0c-2.8,0-2.7,0.5-2.7,0.5s0,0,0,0.4c0,0.4,0.3,0.5,0.3,0.7c0,0.2-0.2,0.2-0.2,0.4s0.2,0.2,0.2,0.4
				s-0.3,0.1-0.3,0.3s0,0.1,0,0.5c0,0.4-0.1,0.4-0.1,0.6s0.2,0.2,0.2,0.4s-0.1,0.1-0.1,0.4c0,0.5,0.3,0.5,0.3,0.8
				c0,0.2-0.2,0.2-0.3,0.5c-0.1,2.8-0.3,8.3-0.6,12c-0.3,3.7-1.9,4.3-3.3,5.3c-1.4,1-1.7,1.1-2.1,3.3c-0.3,1.2,0.3,2.3,0.3,3.4
				s0,27.1-0.1,29.6c-0.1,2.5-0.3,4.9,0,6.4c0.3,1.5,4.1,1.7,8.6,1.7v0c0,0,0.1,0,0.1,0c0,0,0.1,0,0.1,0v0c4.5,0,8.3-0.1,8.6-1.7
				c0.3-1.5,0.1-3.9,0-6.4C58.9,180.7,58.9,154.8,58.9,153.6z"/>
			<path d="M88.8,148.4c-1.7-3.6-2.2-4.8-2.4-9c-0.2-4.2-0.1-13-0.2-13.8c0-0.4-0.2-0.2-0.2-0.5c0-0.3,0.3-0.4,0.2-0.7
				c-0.1-0.3-0.7-0.6-3.3-0.6v0c0,0,0,0,0,0c0,0,0,0,0,0v0c-2.6,0-3.1,0.3-3.3,0.6c-0.1,0.3,0.2,0.5,0.2,0.7c0,0.3-0.1,0.2-0.2,0.5
				c-0.1,0.8,0,9.6-0.2,13.8c-0.2,4.2-0.7,5.4-2.4,9s-3.5,4.4-3.4,7.6c0.1,3.3,0.4,9.1,0.5,13.7c0,4.6-0.4,9.2-0.4,12.8
				c0,3.6,1.2,7.3,2,8c0.7,0.7,5.3,0.7,7.3,0.7c1.9,0,6.5,0,7.3-0.7c0.7-0.7,2-4.4,2-8c0-3.6-0.4-8.2-0.4-12.8
				c0-4.6,0.4-10.4,0.5-13.7C92.4,152.7,90.5,151.9,88.8,148.4z"/>
			<path d="M124.6,165.2c0-5.8-3-13.2-4-17.2c-1-4.1-1.9-8.2-1.9-12.3c0-4.1,0.6-3.3,0.5-5.1c0-1.8-0.1-4.6-0.6-5.5
				c-0.5-0.9-1.1-1.4-2.9-1.5v0c0,0-0.1,0-0.1,0c0,0-0.1,0-0.1,0v0c-1.8,0-2.4,0.6-2.9,1.5c-0.5,0.9-0.5,3.7-0.6,5.5
				c0,1.8,0.5,0.9,0.5,5.1c0,4.1-0.9,8.2-1.9,12.3c-1,4.1-4,11.4-4,17.2s0,19,0,22.7c0,3.7,6,3.4,9,3.4c3.1,0,9,0.3,9-3.4
				C124.6,184.2,124.6,171,124.6,165.2z"/>
			<path d="M161.3,160.8c0-4.6-2.5-6.8-4.4-8.3c-1.8-1.5-3.5-2.5-3.5-4.4c0-1.9,1-2.6,0.3-6.3s-1.8-6.7-1.5-7.9
				c0.2-1.2,0.1-2.7,0.1-4.5c-0.1-1.8,0.3-1.5,0.1-3.4c-0.2-1.9-0.1-2.4-4.2-2.4c-4.1,0-4.1,0.6-4.2,2.4c-0.2,1.9,0.2,1.6,0.1,3.4
				s-0.2,3.3,0.1,4.5c0.2,1.2-0.8,4.1-1.5,7.9s0.3,4.4,0.3,6.3c0,1.9-1.6,2.9-3.5,4.4c-1.8,1.5-4.4,3.7-4.4,8.3
				c0,4.6,0.4,21,0.4,24.7c0,2.5-0.3,1.8-0.1,3.1c0.2,2.1,8.3,2.8,12.9,2.8c4.6,0,12.7-0.6,12.9-2.8c0.1-1.3-0.1-0.6-0.1-3.1
				C160.9,181.8,161.3,165.4,161.3,160.8z"/>
			<path d="M186.6,145.5c-2.5-3.4-2.3-3.4-2.7-9.2c-0.3-5.7-0.3-7.9-0.1-8.4c0.2-0.5,0.1-0.4,0.1-0.8s0-1.2,0-1.4s-0.2-0.3-0.2-0.6
				c0-0.3,0-0.8,0-0.8s-0.1-0.7-3-0.7s-3,0.7-3,0.7s0,0.4,0,0.8c0,0.3-0.2,0.4-0.2,0.6s0,1,0,1.4s-0.1,0.3,0.1,0.8
				c0.2,0.5,0.3,2.6-0.1,8.4c-0.3,5.7-0.2,5.8-2.7,9.2c-2.5,3.4-2.2,5.7-2.2,7.8c0,2.1,0,24.2,0,29.8s0.2,5.9,0.3,7.1
				c0.2,1.2,5.2,1.1,7.7,1.1c2.5,0,7.5,0.1,7.7-1.1c0.2-1.2,0.3-1.5,0.3-7.1s0-27.7,0-29.8C188.8,151.2,189.1,148.9,186.6,145.5z"/>
			<path d="M222.6,155.4c0-0.5,0.3-0.3,0.3-1.4s0.2-2-0.7-2.8c-0.9-0.8-3.9-3.5-4.5-4.1c-0.6-0.6-0.8-0.8-0.6-2
				c0.2-1.2,0.3-2.4,0.3-3.9s-0.5-3.5-0.5-7.3c0-3.8,0-4,0-4.4c0-0.3-0.2-0.4-0.2-0.7s0.2-0.2,0.2-0.8c0-0.6,0-0.5,0-0.7
				s-0.1-0.4-0.1-0.7c0-0.3,0.1-0.2,0.1-0.5c0-0.2-0.1-0.1-0.1-0.3c0-0.2,0.1-0.1,0.1-0.5s0-0.6,0-0.9c0-0.3-0.7-0.8-3.5-0.8
				s-3.5,0.5-3.5,0.8c0,0.3,0,0.5,0,0.9s0.1,0.3,0.1,0.5c0,0.2-0.1,0.1-0.1,0.3c0,0.2,0.1,0.2,0.1,0.5c0,0.3-0.1,0.5-0.1,0.7
				s0,0.1,0,0.7c0,0.6,0.2,0.4,0.2,0.8s-0.2,0.4-0.2,0.7c0,0.3,0,0.6,0,4.4c0,3.8-0.5,5.8-0.5,7.3s0.1,2.7,0.3,3.9
				c0.2,1.2,0,1.4-0.6,2c-0.6,0.6-3.5,3.3-4.5,4.1s-0.7,1.7-0.7,2.8s0.3,0.9,0.3,1.4c0,0.5,0,11.1,0,15.3s0,15.6,0,16.4
				c0,0.9-0.3,0.8-0.3,1.5c0,0.2,0,0.4,0,0.8c0,0.8,0,1.7,1.9,1.7c2.3,0,5.3,0.1,7.6,0.1c2.3,0,5.3,0,7.6-0.1c1.9,0,1.9-1,1.9-1.7
				c0-0.4,0-0.6,0-0.8c0-0.7-0.3-0.6-0.3-1.5c0-0.9,0-12.2,0-16.4S222.6,155.9,222.6,155.4z"/>
		</g>
		<g clip-path="url(#SVGID_2_)">
			<path d="M202.1,60.7c-0.2-0.1-0.2-1-1-1.3c-0.4-0.3-0.3-0.7-0.3-1.8c0-1.1,0-8,0-8s0.7-0.2,0.9-0.4c0-0.5,0-3.2,0-3.7
				c0-0.5-1.5-0.7-4.9-0.7c-3.4,0-4.9,0.3-4.9,0.7c0,0.5,0,3.2,0,3.7c0.2,0.2,0.9,0.4,0.9,0.4s0,6.9,0,8c0,1.1,0,1.5-0.3,1.8
				c-0.8,0.3-0.8,1.3-1,1.3c-7,3-6.6,8-6.6,10.7c0,2.7,0,30.2,0,32.4c0,2.2,0.1,5.2,0.8,6.8c0.8,1.6,10,1.7,11.1,1.7
				c1.2,0,10.4-0.1,11.1-1.7s0.8-4.6,0.8-6.8c0-2.2,0-29.6,0-32.4C208.7,68.7,209.1,63.7,202.1,60.7z"/>
			<path d="M237.9,74.6c0-1.1,0.5-2.2,0.3-3.4c-0.5-2.2-0.7-2.3-2.1-3.3c-1.4-1-3-1.6-3.3-5.3c-0.3-3.7-0.5-9.3-0.6-12
				c0-0.3-0.2-0.3-0.3-0.5s0.3-0.3,0.3-0.8c0-0.3-0.1-0.3-0.1-0.4s0.2-0.2,0.2-0.4s-0.1-0.3-0.1-0.6c0-0.4,0-0.3,0-0.5
				c0-0.2-0.3-0.1-0.3-0.3c0-0.2,0.3-0.2,0.2-0.4c0-0.2-0.2-0.2-0.2-0.4c0-0.2,0.3-0.3,0.3-0.7c0-0.4,0-0.4,0-0.4s0-0.5-2.7-0.5v0
				c0,0-0.1,0-0.1,0c0,0-0.1,0-0.1,0v0c-2.8,0-2.7,0.5-2.7,0.5s0,0,0,0.4c0,0.4,0.3,0.5,0.3,0.7c0,0.2-0.2,0.2-0.2,0.4
				c0,0.2,0.2,0.2,0.2,0.4c0,0.2-0.3,0.1-0.3,0.3c0,0.2,0,0.1,0,0.5s-0.1,0.4-0.1,0.6s0.2,0.2,0.2,0.4s-0.1,0.1-0.1,0.4
				c0,0.5,0.3,0.5,0.3,0.8s-0.2,0.2-0.3,0.5c-0.1,2.8-0.3,8.3-0.6,12c-0.3,3.7-1.9,4.3-3.3,5.3c-1.4,1-1.7,1.1-2.1,3.3
				c-0.3,1.2,0.3,2.3,0.3,3.4s0,27.1-0.1,29.6s-0.3,4.9,0,6.4c0.3,1.5,4.1,1.7,8.6,1.7v0c0,0,0.1,0,0.1,0c0,0,0.1,0,0.1,0v0
				c4.5,0,8.3-0.1,8.6-1.7c0.3-1.5,0.1-3.9,0-6.4C237.9,101.7,237.9,75.8,237.9,74.6z"/>
			<path d="M267.8,69.4c-1.7-3.6-2.2-4.8-2.4-9c-0.2-4.2-0.1-13-0.2-13.8c0-0.4-0.2-0.2-0.2-0.5c0-0.3,0.3-0.4,0.2-0.7
				c-0.1-0.3-0.7-0.6-3.3-0.6v0c0,0,0,0,0,0s0,0,0,0v0c-2.6,0-3.1,0.3-3.3,0.6c-0.1,0.3,0.2,0.5,0.2,0.7c0,0.3-0.1,0.2-0.2,0.5
				c-0.1,0.8,0,9.6-0.2,13.8c-0.2,4.2-0.7,5.4-2.4,9c-1.7,3.6-3.5,4.4-3.4,7.6c0.1,3.3,0.4,9.1,0.5,13.7c0,4.6-0.4,9.2-0.4,12.8
				c0,3.6,1.2,7.3,2,8c0.7,0.7,5.3,0.7,7.3,0.7c1.9,0,6.5,0,7.3-0.7c0.7-0.7,2-4.4,2-8s-0.4-8.2-0.4-12.8c0-4.6,0.4-10.4,0.5-13.7
				C271.4,73.7,269.5,72.9,267.8,69.4z"/>
			<path d="M303.6,86.2c0-5.8-3-13.2-4-17.2c-1-4.1-1.9-8.2-1.9-12.3c0-4.1,0.6-3.3,0.5-5.1c0-1.8-0.1-4.6-0.6-5.5
				c-0.5-0.9-1.1-1.4-2.9-1.5v0c0,0-0.1,0-0.1,0c0,0-0.1,0-0.1,0v0c-1.8,0-2.4,0.6-2.9,1.5c-0.5,0.9-0.5,3.7-0.6,5.5
				c0,1.8,0.5,0.9,0.5,5.1c0,4.1-0.9,8.2-1.9,12.3c-1,4.1-4,11.4-4,17.2s0,19,0,22.7c0,3.7,6,3.4,9,3.4c3.1,0,9,0.3,9-3.4
				C303.6,105.2,303.6,92,303.6,86.2z"/>
			<path d="M340.3,81.8c0-4.6-2.5-6.8-4.4-8.3c-1.8-1.5-3.5-2.5-3.5-4.4c0-1.9,1-2.6,0.3-6.3c-0.7-3.8-1.8-6.7-1.5-7.9
				c0.2-1.2,0.1-2.7,0.1-4.5c-0.1-1.8,0.3-1.5,0.1-3.4c-0.2-1.9-0.1-2.4-4.2-2.4s-4.1,0.6-4.2,2.4c-0.2,1.9,0.2,1.6,0.1,3.4
				c-0.1,1.8-0.2,3.3,0.1,4.5c0.2,1.2-0.8,4.1-1.5,7.9c-0.7,3.8,0.3,4.4,0.3,6.3c0,1.9-1.6,2.9-3.5,4.4c-1.8,1.5-4.4,3.7-4.4,8.3
				c0,4.6,0.4,21,0.4,24.7c0,2.5-0.3,1.8-0.1,3.1c0.2,2.1,8.3,2.8,12.9,2.8s12.7-0.6,12.9-2.8c0.1-1.3-0.1-0.6-0.1-3.1
				C339.9,102.8,340.3,86.4,340.3,81.8z"/>
			<path d="M365.6,66.5c-2.5-3.4-2.3-3.4-2.7-9.2c-0.3-5.7-0.3-7.9-0.1-8.4c0.2-0.5,0.1-0.4,0.1-0.8c0-0.4,0-1.2,0-1.4
				c0-0.2-0.2-0.3-0.2-0.6c0-0.3,0-0.8,0-0.8s-0.1-0.7-3-0.7s-3,0.7-3,0.7s0,0.4,0,0.8c0,0.3-0.2,0.4-0.2,0.6c0,0.2,0,1,0,1.4
				c0,0.4-0.1,0.3,0.1,0.8c0.2,0.5,0.3,2.6-0.1,8.4c-0.3,5.7-0.2,5.8-2.7,9.2c-2.5,3.4-2.2,5.7-2.2,7.8c0,2.1,0,24.2,0,29.8
				s0.2,5.9,0.3,7.1c0.2,1.2,5.2,1.1,7.7,1.1c2.5,0,7.5,0.1,7.7-1.1c0.2-1.2,0.3-1.5,0.3-7.1s0-27.7,0-29.8
				C367.8,72.2,368.1,69.9,365.6,66.5z"/>
		</g>
		<g clip-path="url(#SVGID_2_)">
			<path d="M77.3,64.4c-2.3-1.4-6-2.9-6-6c0-0.1,0.2-0.1,0.2-0.3c0,0-0.1-9.6-0.1-10c0-0.3-0.1-0.5-0.1-1.2c0-0.7-0.1-1.5-0.1-1.5
				s-0.7-0.8-4.3-0.8c-3.6,0-4.3,0.8-4.3,0.8s-0.1,0.8-0.1,1.5c0,0.7-0.1,0.8-0.1,1.2c0,0.3-0.1,10-0.1,10c0,0.2,0.2,0.2,0.2,0.3
				c0,3.1-3.6,4.6-6,6c-2.3,1.4-2.1,2.8-2.1,4.2c0,1.4,0.2,1,0.2,1.8c0,0.8-0.1,19.7-0.1,21.8c0,2.2-0.2,2.2-0.2,2.8
				c0,0.6,0.2,7.4,0.2,10.9c0,3.4,1.2,5.6,1.7,5.9c0.5,0.3,7.9,0.5,10.4,0.5l0.2,0l0.2,0c2.5,0,9.9-0.2,10.4-0.5s1.7-2.5,1.7-5.9
				c0-3.4,0.2-10.3,0.2-10.9c0-0.6-0.2-0.6-0.2-2.8c0-2.2-0.1-21-0.1-21.8c0-0.8,0.2-0.4,0.2-1.8C79.4,67.2,79.7,65.8,77.3,64.4z"/>
			<path d="M107.5,76.9c0-3.6,0.7-6.5-1.7-10.8c-2.4-4.4-2.8-5-2.8-7.1c0-1.2,0-7.1,0-7.8c0-0.7-0.2-0.5-0.2-0.8
				c0-0.3,0.3-0.6,0.3-0.9c0-0.3,0-1.4,0-1.8c0-0.4-0.2-0.3-0.2-0.5s0.1-0.1,0.1-0.4c0-0.2-0.1-0.1-0.1-0.3c0-0.2,0.1-0.3,0.1-0.6
				c0-0.1,0,0,0-0.6s-3.4-0.7-3.4-0.7s-3.4,0.2-3.4,0.7s0,0.4,0,0.6c0,0.3,0.1,0.4,0.1,0.6c0,0.2-0.1,0.1-0.1,0.3
				c0,0.2,0.1,0.2,0.1,0.4s-0.2,0.1-0.2,0.5c0,0.4,0,1.5,0,1.8c0,0.3,0.3,0.6,0.3,0.9c0,0.3-0.2,0.1-0.2,0.8c0,0.7,0,6.6,0,7.8
				c0,2.1-0.4,2.7-2.8,7.1c-2.3,4.3-1.7,7.2-1.7,10.8s0.4,22.8,0.5,25.3c0.1,2.5,0,5.9-0.1,8c-0.1,2,2,2.2,7.5,2.2
				c5.4,0,7.6-0.2,7.5-2.2c-0.1-2-0.2-5.4-0.1-8C107.1,99.6,107.5,80.4,107.5,76.9z"/>
			<path d="M142.7,83.9c-0.1-3.2-4.2-8.4-5.3-10.2c-1.1-1.8-1-6.3-1.1-7.8c-0.1-1.5-0.8-13.8-0.9-14.8c-0.1-0.8,0.4-0.6,0.3-1.3
				c-0.1-0.4-0.1-0.7-0.1-1.2c0-0.5,0-0.4-0.1-0.8c-0.1-0.3,0-1.2-0.1-2.1c0-0.9-2.1-1-3.2-1c-1.1,0-3.1,0.1-3.2,1
				c0,0.9,0,1.8-0.1,2.1c-0.1,0.4-0.1,0.3-0.1,0.8c0,0.5-0.1,0.8-0.1,1.2c-0.1,0.7,0.3,0.5,0.3,1.3c-0.1,1-0.8,13.3-0.9,14.8
				c-0.1,1.5,0,5.9-1.1,7.8c-1.1,1.8-5.2,7-5.3,10.2s0.3,9.2,0.4,11.5s0.7,10.7,0.8,12.9s1,4.1,9.2,4c8.2,0.1,9.1-1.8,9.2-4
				s0.7-10.6,0.8-12.9C142.4,93,142.8,87.1,142.7,83.9z"/>
			<path d="M172.9,70.5c-0.1-0.9,0.2-1.3-1.3-2.1c-1.5-0.8-2.5-1.2-2.5-2.2c0-1,0.5-1.1,0.5-1.8c0-0.8-0.8-3.2-0.9-5.4
				c0-1.6-0.3-1.8-0.3-1.8s0.2-0.1,0.3-0.3c0-0.2-0.1-9.9-0.1-10.8c0-0.9-0.6-1.3-3.7-1.3c-3.1,0-3.7,0.4-3.7,1.3
				c0,0.9-0.1,10.6-0.1,10.8c0,0.2,0.3,0.3,0.3,0.3s-0.2,0.2-0.3,1.8c0,2.2-0.8,4.6-0.9,5.4c0,0.8,0.5,0.8,0.5,1.8
				c0,1-1,1.4-2.5,2.2c-1.5,0.8-1.2,1.2-1.3,2.1c-0.1,0.9,0.4,38.1,0.3,40s5.9,1.8,7.7,1.8c1.9,0,7.7,0.2,7.7-1.8
				C172.5,108.5,172.9,71.4,172.9,70.5z"/>
			<path d="M7.6,66.5c-2.5-3.4-2.3-3.4-2.7-9.2s-0.3-7.9-0.1-8.4C5.1,48.5,5,48.6,5,48.2c0-0.4,0-1.2,0-1.4c0-0.2-0.2-0.3-0.2-0.6
				c0-0.3,0-0.8,0-0.8s-0.1-0.7-3-0.7c-2.9,0-3,0.7-3,0.7s0,0.4,0,0.8c0,0.3-0.2,0.4-0.2,0.6c0,0.2,0,1,0,1.4c0,0.4-0.1,0.3,0.1,0.8
				c0.2,0.5,0.3,2.6-0.1,8.4c-0.3,5.7-0.2,5.8-2.7,9.2c-2.5,3.4-2.2,5.7-2.2,7.8c0,2.1,0,24.2,0,29.8s0.2,5.9,0.3,7.1
				c0.2,1.2,5.2,1.1,7.7,1.1s7.5,0.1,7.7-1.1c0.2-1.2,0.3-1.5,0.3-7.1s0-27.7,0-29.8C9.8,72.2,10.1,69.9,7.6,66.5z"/>
			<path d="M43.6,76.4c0-0.5,0.3-0.3,0.3-1.4c0-1.1,0.2-2-0.7-2.8c-0.9-0.8-3.9-3.5-4.5-4.1c-0.6-0.6-0.8-0.8-0.6-2
				c0.2-1.2,0.3-2.4,0.3-3.9s-0.5-3.5-0.5-7.3c0-3.8,0-4,0-4.4c0-0.3-0.2-0.4-0.2-0.7c0-0.4,0.2-0.2,0.2-0.8s0-0.5,0-0.7
				s-0.1-0.4-0.1-0.7c0-0.3,0.1-0.2,0.1-0.5c0-0.2-0.1-0.1-0.1-0.3c0-0.2,0.1-0.1,0.1-0.5c0-0.4,0-0.6,0-0.9c0-0.3-0.7-0.8-3.5-0.8
				s-3.5,0.5-3.5,0.8c0,0.3,0,0.5,0,0.9c0,0.4,0.1,0.3,0.1,0.5c0,0.2-0.1,0.1-0.1,0.3c0,0.2,0.1,0.2,0.1,0.5c0,0.3-0.1,0.5-0.1,0.7
				s0,0.1,0,0.7s0.2,0.4,0.2,0.8c0,0.4-0.2,0.4-0.2,0.7c0,0.3,0,0.6,0,4.4c0,3.8-0.5,5.8-0.5,7.3s0.1,2.7,0.3,3.9s0,1.4-0.6,2
				c-0.6,0.6-3.5,3.3-4.5,4.1c-0.9,0.8-0.7,1.7-0.7,2.8c0,1.1,0.3,0.9,0.3,1.4c0,0.5,0,11.1,0,15.3c0,4.2,0,15.6,0,16.4
				c0,0.9-0.3,0.8-0.3,1.5c0,0.2,0,0.4,0,0.8c0,0.8,0,1.7,1.9,1.7c2.3,0,5.3,0.1,7.6,0.1c2.3,0,5.3,0,7.6-0.1c1.9,0,1.9-1,1.9-1.7
				c0-0.4,0-0.6,0-0.8c0-0.7-0.3-0.6-0.3-1.5c0-0.9,0-12.2,0-16.4C43.6,87.5,43.6,76.9,43.6,76.4z"/>
		</g>
		<g clip-path="url(#SVGID_2_)">
			<path d="M256.3-14.6c-2.3-1.4-6-2.9-6-6c0-0.1,0.2-0.1,0.2-0.3c0,0-0.1-9.6-0.1-10s-0.1-0.5-0.1-1.2c0-0.7-0.1-1.5-0.1-1.5
				s-0.7-0.8-4.3-0.8s-4.3,0.8-4.3,0.8s-0.1,0.8-0.1,1.5c0,0.7-0.1,0.8-0.1,1.2s-0.1,10-0.1,10c0,0.2,0.2,0.2,0.2,0.3
				c0,3.1-3.6,4.6-6,6s-2.1,2.8-2.1,4.2s0.2,1,0.2,1.8s-0.1,19.7-0.1,21.8s-0.2,2.2-0.2,2.8s0.2,7.4,0.2,10.9s1.2,5.6,1.7,5.9
				c0.5,0.3,7.9,0.5,10.4,0.5l0.2,0l0.2,0c2.5,0,9.9-0.2,10.4-0.5c0.5-0.3,1.7-2.5,1.7-5.9s0.2-10.3,0.2-10.9s-0.2-0.6-0.2-2.8
				s-0.1-21-0.1-21.8s0.2-0.4,0.2-1.8S258.7-13.2,256.3-14.6z"/>
			<path d="M23.1-18.3c-0.2-0.1-0.2-1-1-1.3c-0.4-0.3-0.3-0.7-0.3-1.8c0-1.1,0-8,0-8s0.7-0.2,0.9-0.4c0-0.5,0-3.2,0-3.7
				c0-0.5-1.5-0.7-4.9-0.7s-4.9,0.3-4.9,0.7c0,0.5,0,3.2,0,3.7c0.2,0.2,0.9,0.4,0.9,0.4s0,6.9,0,8c0,1.1,0,1.5-0.3,1.8
				c-0.8,0.3-0.8,1.3-1,1.3c-7,3-6.6,8-6.6,10.7s0,30.2,0,32.4s0.1,5.2,0.8,6.8s10,1.7,11.1,1.7c1.2,0,10.4-0.1,11.1-1.7
				c0.8-1.6,0.8-4.6,0.8-6.8s0-29.6,0-32.4S30.1-15.3,23.1-18.3z"/>
			<path d="M286.5-2.1c0-3.6,0.7-6.5-1.7-10.8c-2.4-4.4-2.8-5-2.8-7.1c0-1.2,0-7.1,0-7.8s-0.2-0.5-0.2-0.8s0.3-0.6,0.3-0.9
				s0-1.4,0-1.8c0-0.4-0.2-0.3-0.2-0.5c0-0.2,0.1-0.1,0.1-0.4c0-0.2-0.1-0.1-0.1-0.3c0-0.2,0.1-0.3,0.1-0.6c0-0.1,0,0,0-0.6
				s-3.4-0.7-3.4-0.7s-3.4,0.2-3.4,0.7s0,0.4,0,0.6c0,0.3,0.1,0.4,0.1,0.6c0,0.2-0.1,0.1-0.1,0.3c0,0.2,0.1,0.2,0.1,0.4
				c0,0.2-0.2,0.1-0.2,0.5c0,0.4,0,1.5,0,1.8s0.3,0.6,0.3,0.9s-0.2,0.1-0.2,0.8s0,6.6,0,7.8c0,2.1-0.4,2.7-2.8,7.1
				c-2.3,4.3-1.7,7.2-1.7,10.8s0.4,22.8,0.5,25.3s0,5.9-0.1,8c-0.1,2,2,2.2,7.5,2.2c5.4,0,7.6-0.2,7.5-2.2s-0.2-5.4-0.1-8
				S286.5,1.4,286.5-2.1z"/>
			<path d="M321.7,4.9c-0.1-3.2-4.2-8.4-5.3-10.2c-1.1-1.8-1-6.3-1.1-7.8c-0.1-1.5-0.8-13.8-0.9-14.8c-0.1-0.8,0.4-0.6,0.3-1.3
				c-0.1-0.4-0.1-0.7-0.1-1.2c0-0.5,0-0.4-0.1-0.8c-0.1-0.3,0-1.2-0.1-2.1c0-0.9-2.1-1-3.2-1c-1.1,0-3.1,0.1-3.2,1
				c0,0.9,0,1.8-0.1,2.1c-0.1,0.4-0.1,0.3-0.1,0.8s-0.1,0.8-0.1,1.2c-0.1,0.7,0.3,0.5,0.3,1.3c-0.1,1-0.8,13.3-0.9,14.8
				c-0.1,1.5,0,5.9-1.1,7.8c-1.1,1.8-5.2,7-5.3,10.2c-0.1,3.2,0.3,9.2,0.4,11.5c0.1,2.3,0.7,10.7,0.8,12.9s1,4.1,9.2,4
				c8.2,0.1,9.1-1.8,9.2-4s0.7-10.6,0.8-12.9S321.8,8.1,321.7,4.9z"/>
			<path d="M351.9-8.5c-0.1-0.9,0.2-1.3-1.3-2.1c-1.5-0.8-2.5-1.2-2.5-2.2s0.5-1.1,0.5-1.8c0-0.8-0.8-3.2-0.9-5.4
				c0-1.6-0.3-1.8-0.3-1.8s0.2-0.1,0.3-0.3c0-0.2-0.1-9.9-0.1-10.8c0-0.9-0.6-1.3-3.7-1.3s-3.7,0.4-3.7,1.3c0,0.9-0.1,10.6-0.1,10.8
				c0,0.2,0.3,0.3,0.3,0.3s-0.2,0.2-0.3,1.8c0,2.2-0.8,4.6-0.9,5.4c0,0.8,0.5,0.8,0.5,1.8s-1,1.4-2.5,2.2c-1.5,0.8-1.2,1.2-1.3,2.1
				c-0.1,0.9,0.4,38.1,0.3,40c0,2,5.9,1.8,7.7,1.8s7.7,0.2,7.7-1.8C351.5,29.5,351.9-7.6,351.9-8.5z"/>
			<path d="M58.9-4.4c0-1.1,0.5-2.2,0.3-3.4c-0.5-2.2-0.7-2.3-2.1-3.3s-3-1.6-3.3-5.3c-0.3-3.7-0.5-9.3-0.6-12
				c0-0.3-0.2-0.3-0.3-0.5c0-0.2,0.3-0.3,0.3-0.8c0-0.3-0.1-0.3-0.1-0.4s0.2-0.2,0.2-0.4c0-0.2-0.1-0.3-0.1-0.6c0-0.4,0-0.3,0-0.5
				s-0.3-0.1-0.3-0.3c0-0.2,0.3-0.2,0.2-0.4c0-0.2-0.2-0.2-0.2-0.4c0-0.2,0.3-0.3,0.3-0.7c0-0.4,0-0.4,0-0.4s0-0.5-2.7-0.5v0
				c0,0-0.1,0-0.1,0c0,0-0.1,0-0.1,0v0c-2.8,0-2.7,0.5-2.7,0.5s0,0,0,0.4c0,0.4,0.3,0.5,0.3,0.7c0,0.2-0.2,0.2-0.2,0.4
				c0,0.2,0.2,0.2,0.2,0.4c0,0.2-0.3,0.1-0.3,0.3s0,0.1,0,0.5c0,0.4-0.1,0.4-0.1,0.6c0,0.2,0.2,0.2,0.2,0.4s-0.1,0.1-0.1,0.4
				c0,0.5,0.3,0.5,0.3,0.8c0,0.2-0.2,0.2-0.3,0.5c-0.1,2.8-0.3,8.3-0.6,12c-0.3,3.7-1.9,4.3-3.3,5.3S42-10,41.5-7.8
				c-0.3,1.2,0.3,2.3,0.3,3.4s0,27.1-0.1,29.6c-0.1,2.5-0.3,4.9,0,6.4c0.3,1.5,4.1,1.7,8.6,1.7v0c0,0,0.1,0,0.1,0c0,0,0.1,0,0.1,0v0
				c4.5,0,8.3-0.1,8.6-1.7c0.3-1.5,0.1-3.9,0-6.4C58.9,22.7,58.9-3.2,58.9-4.4z"/>
			<path d="M88.8-9.6c-1.7-3.6-2.2-4.8-2.4-9c-0.2-4.2-0.1-13-0.2-13.8c0-0.4-0.2-0.2-0.2-0.5c0-0.3,0.3-0.4,0.2-0.7
				c-0.1-0.3-0.7-0.6-3.3-0.6v0c0,0,0,0,0,0c0,0,0,0,0,0v0c-2.6,0-3.1,0.3-3.3,0.6c-0.1,0.3,0.2,0.5,0.2,0.7c0,0.3-0.1,0.2-0.2,0.5
				c-0.1,0.8,0,9.6-0.2,13.8c-0.2,4.2-0.7,5.4-2.4,9S73.6-5.3,73.7-2c0.1,3.3,0.4,9.1,0.5,13.7c0,4.6-0.4,9.2-0.4,12.8
				c0,3.6,1.2,7.3,2,8c0.7,0.7,5.3,0.7,7.3,0.7c1.9,0,6.5,0,7.3-0.7c0.7-0.7,2-4.4,2-8c0-3.6-0.4-8.2-0.4-12.8
				c0-4.6,0.4-10.4,0.5-13.7C92.4-5.3,90.5-6.1,88.8-9.6z"/>
			<path d="M124.6,7.2c0-5.8-3-13.2-4-17.2c-1-4.1-1.9-8.2-1.9-12.3c0-4.1,0.6-3.3,0.5-5.1c0-1.8-0.1-4.6-0.6-5.5
				c-0.5-0.9-1.1-1.4-2.9-1.5v0c0,0-0.1,0-0.1,0c0,0-0.1,0-0.1,0v0c-1.8,0-2.4,0.6-2.9,1.5c-0.5,0.9-0.5,3.7-0.6,5.5
				c0,1.8,0.5,0.9,0.5,5.1c0,4.1-0.9,8.2-1.9,12.3s-4,11.4-4,17.2s0,19,0,22.7c0,3.7,6,3.4,9,3.4c3.1,0,9,0.3,9-3.4
				C124.6,26.2,124.6,13,124.6,7.2z"/>
			<path d="M161.3,2.8c0-4.6-2.5-6.8-4.4-8.3c-1.8-1.5-3.5-2.5-3.5-4.4c0-1.9,1-2.6,0.3-6.3s-1.8-6.7-1.5-7.9
				c0.2-1.2,0.1-2.7,0.1-4.5c-0.1-1.8,0.3-1.5,0.1-3.4c-0.2-1.9-0.1-2.4-4.2-2.4c-4.1,0-4.1,0.6-4.2,2.4c-0.2,1.9,0.2,1.6,0.1,3.4
				s-0.2,3.3,0.1,4.5c0.2,1.2-0.8,4.1-1.5,7.9s0.3,4.4,0.3,6.3c0,1.9-1.6,2.9-3.5,4.4C137.5-4,135-1.8,135,2.8
				c0,4.6,0.4,21,0.4,24.7c0,2.5-0.3,1.8-0.1,3.1c0.2,2.1,8.3,2.8,12.9,2.8c4.6,0,12.7-0.6,12.9-2.8c0.1-1.3-0.1-0.6-0.1-3.1
				C160.9,23.8,161.3,7.4,161.3,2.8z"/>
			<path d="M186.6-12.5c-2.5-3.4-2.3-3.4-2.7-9.2c-0.3-5.7-0.3-7.9-0.1-8.4c0.2-0.5,0.1-0.4,0.1-0.8s0-1.2,0-1.4
				c0-0.2-0.2-0.3-0.2-0.6c0-0.3,0-0.8,0-0.8s-0.1-0.7-3-0.7s-3,0.7-3,0.7s0,0.4,0,0.8c0,0.3-0.2,0.4-0.2,0.6c0,0.2,0,1,0,1.4
				s-0.1,0.3,0.1,0.8c0.2,0.5,0.3,2.6-0.1,8.4s-0.2,5.8-2.7,9.2c-2.5,3.4-2.2,5.7-2.2,7.8c0,2.1,0,24.2,0,29.8s0.2,5.9,0.3,7.1
				c0.2,1.2,5.2,1.1,7.7,1.1c2.5,0,7.5,0.1,7.7-1.1c0.2-1.2,0.3-1.5,0.3-7.1s0-27.7,0-29.8C188.8-6.8,189.1-9.1,186.6-12.5z"/>
			<path d="M222.6-2.6c0-0.5,0.3-0.3,0.3-1.4c0-1.1,0.2-2-0.7-2.8c-0.9-0.8-3.9-3.5-4.5-4.1c-0.6-0.6-0.8-0.8-0.6-2
				c0.2-1.2,0.3-2.4,0.3-3.9c0-1.5-0.5-3.5-0.5-7.3s0-4,0-4.4c0-0.3-0.2-0.4-0.2-0.7c0-0.4,0.2-0.2,0.2-0.8s0-0.5,0-0.7
				c0-0.2-0.1-0.4-0.1-0.7c0-0.3,0.1-0.2,0.1-0.5c0-0.2-0.1-0.1-0.1-0.3c0-0.2,0.1-0.1,0.1-0.5c0-0.4,0-0.6,0-0.9
				c0-0.3-0.7-0.8-3.5-0.8s-3.5,0.5-3.5,0.8c0,0.3,0,0.5,0,0.9c0,0.4,0.1,0.3,0.1,0.5c0,0.2-0.1,0.1-0.1,0.3c0,0.2,0.1,0.2,0.1,0.5
				c0,0.3-0.1,0.5-0.1,0.7c0,0.2,0,0.1,0,0.7s0.2,0.4,0.2,0.8c0,0.4-0.2,0.4-0.2,0.7c0,0.3,0,0.6,0,4.4s-0.5,5.8-0.5,7.3
				c0,1.5,0.1,2.7,0.3,3.9c0.2,1.2,0,1.4-0.6,2c-0.6,0.6-3.5,3.3-4.5,4.1s-0.7,1.7-0.7,2.8c0,1.1,0.3,0.9,0.3,1.4
				c0,0.5,0,11.1,0,15.3s0,15.6,0,16.4c0,0.9-0.3,0.8-0.3,1.5c0,0.2,0,0.4,0,0.8c0,0.8,0,1.7,1.9,1.7c2.3,0,5.3,0.1,7.6,0.1
				c2.3,0,5.3,0,7.6-0.1c1.9,0,1.9-1,1.9-1.7c0-0.4,0-0.6,0-0.8c0-0.7-0.3-0.6-0.3-1.5c0-0.9,0-12.2,0-16.4S222.6-2.1,222.6-2.6z"/>
		</g>
	</g>
</g>
<rect x="-0.7" y="1" fill="none" width="359" height="315"/>
</svg>
