<?xml version="1.0" encoding="utf-8"?>
<!-- Generator: Adobe Illustrator 19.1.1, SVG Export Plug-In . SVG Version: 6.00 Build 0)  -->
<svg version="1.1" id="Layer_1" xmlns="http://www.w3.org/2000/svg" xmlns:xlink="http://www.w3.org/1999/xlink" x="0px" y="0px"
	 viewBox="0 0 16.4 16.3" style="enable-background:new 0 0 16.4 16.3;" xml:space="preserve">
<style type="text/css">
	.st0{fill:#BA9E51;}
</style>
<path class="st0" d="M16.3,8.2C16.3,8.2,16.3,8.2,16.3,8.2C16.3,8.2,16.4,8.2,16.3,8.2c0-0.1,0-0.1,0-0.1c-4.5,0-8.1-3.6-8.1-8.1
	c0,0,0,0,0,0c0,4.5-3.7,8.1-8.2,8.1c0,0,0,0,0,0c0,0,0,0,0,0.1c0,0,0,0,0,0.1c4.5,0,8.1,3.6,8.1,8.1c0,0,0,0,0,0
	C8.2,11.9,11.8,8.2,16.3,8.2z"/>
</svg>
