<?xml version="1.0" encoding="utf-8"?>
<!-- Generator: Adobe Illustrator 19.1.1, SVG Export Plug-In . SVG Version: 6.00 Build 0)  -->
<svg version="1.1" id="Layer_1" xmlns="http://www.w3.org/2000/svg" xmlns:xlink="http://www.w3.org/1999/xlink" x="0px" y="0px"
	 viewBox="0 0 51.9 58.6" style="enable-background:new 0 0 51.9 58.6;" xml:space="preserve">
<style type="text/css">
	.st0{fill:#BA9E51;}
</style>
<polygon class="st0" points="1.2,45 7.2,41.5 6.7,46.3 9,46.6 9.8,40 11.4,39 10.6,46.6 13,46.8 14,37.6 22.7,32.6 19.1,38.8 
	15.2,39.2 15.5,41.6 17.6,41.4 15.9,44.3 18,45.5 19.6,42.6 20.5,44.5 22.7,43.6 21.1,40 24.7,33.7 24.7,43.9 17.3,49.3 18.7,51.3 
	24.7,46.8 24.7,48.7 19.4,52.7 20.8,54.6 24.7,51.7 24.7,58.6 27.1,58.6 27.1,51.7 31.1,54.6 32.5,52.7 27.1,48.7 27.1,46.8 
	33.2,51.3 34.6,49.3 27.1,43.9 27.1,33.7 30.7,40 29.2,43.6 31.4,44.5 32.2,42.6 33.9,45.5 36,44.3 34.2,41.4 36.4,41.6 36.6,39.3 
	32.8,38.8 29.2,32.5 37.9,37.6 39,46.8 41.3,46.6 40.5,39.1 42.1,40 42.9,46.7 45.3,46.4 44.7,41.5 50.7,44.9 51.9,42.9 45.9,39.5 
	50.4,37.5 49.4,35.3 43.3,37.9 41.7,37 48.6,34 47.6,31.8 39.1,35.6 30.4,30.5 37.6,30.5 39.9,33.6 41.9,32.2 40.6,30.5 43.9,30.5 
	43.9,28.1 40.6,28.1 41.9,26.4 39.9,25 37.6,28.1 30.4,28.1 39.1,23 47.6,26.8 48.6,24.6 41.7,21.6 43.3,20.6 49.4,23.3 50.4,21.1 
	45.8,19.1 51.8,15.7 50.6,13.6 44.7,17.1 45.3,12.2 42.9,11.9 42.1,18.6 40.5,19.5 41.3,12 38.9,11.8 37.9,21 29.2,26 32.8,19.7 
	36.7,19.3 36.4,16.9 34.3,17.2 36,14.3 33.9,13.1 32.2,16 31.4,14 29.2,15 30.7,18.5 27.1,24.8 27.1,14.8 34.6,9.3 33.2,7.4 
	27.1,11.8 27.1,10 32.5,6 31.1,4.1 27.1,7 27.1,0 24.7,0 24.7,7 20.8,4.1 19.4,6 24.7,10 24.7,11.8 18.7,7.4 17.3,9.3 24.7,14.8 
	24.7,24.9 21.1,18.6 22.6,15 20.4,14 19.6,16 18,13.1 15.9,14.3 17.6,17.2 15.5,16.9 15.2,19.3 19.1,19.8 22.7,26 14,21 13,11.8 
	10.6,12 11.4,19.5 9.8,18.6 9,12 6.7,12.2 7.3,17.1 1.2,13.6 0,15.7 6.1,19.2 1.6,21.1 2.5,23.3 8.7,20.7 10.3,21.6 3.4,24.6 
	4.3,26.8 12.8,23.1 21.5,28.1 14.3,28.1 11.9,25 10.1,26.4 11.3,28.1 7.9,28.1 7.9,30.5 11.3,30.5 10.1,32.2 11.9,33.6 14.3,30.5 
	21.5,30.5 12.8,35.5 4.3,31.8 3.3,34 10.3,37 8.6,37.9 2.5,35.3 1.5,37.5 6.1,39.4 0,42.9 "/>
</svg>
