<?xml version="1.0" encoding="utf-8"?>
<!-- Generator: Adobe Illustrator 19.1.1, SVG Export Plug-In . SVG Version: 6.00 Build 0)  -->
<svg version="1.1" id="Layer_1" xmlns="http://www.w3.org/2000/svg" xmlns:xlink="http://www.w3.org/1999/xlink" x="0px" y="0px"
	 viewBox="0 0 50.6 56.9" style="enable-background:new 0 0 50.6 56.9;" xml:space="preserve">
<style type="text/css">
	.st0{fill:#BA9E51;}
</style>
<path class="st0" d="M49.7,23.2l0.9-2.1l-5.9-2.5l5.8-3.4l-1.2-2l-5.8,3.4l0.8-6.4L42,9.9L41,18l-1.6,0.9l1-8.9l-2.3-0.3L37,20.4
	L35.9,21v-5h-2.3l0,6.4l-0.8,0.4l-6.4-3.7v-0.8l5.5-3.2l-1.2-2l-4.3,2.5v-1.3L35,8l-1.4-1.9l-7.2,5.3V9.6L33,4.7l-1.4-1.9l-5.1,3.9
	V0h-2.3v6.7L19,2.9l-1.4,1.9l6.5,4.9v1.8l-7.2-5.3L15.6,8l8.6,6.3v1.3l-4.4-2.5l-1.1,2l5.5,3.2v0.9l-6.3,3.6L17,22.4l0-6.4h-2.3l0,5
	l-1.1-0.7L12.4,9.8L10.1,10l1,8.9L9.6,18l-1-8.1l-2.3,0.3l0.8,6.4l-5.8-3.4l-1.2,2l5.8,3.4L0,21.1l0.9,2.1L8.4,20L10,21l-8.2,3.6
	l0.9,2.1l9.8-4.3l1.1,0.7l-4.3,2.5l1.2,2l5.5-3.2l0.8,0.5v7.2l-0.8,0.5l-5.5-3.2l-1.2,2l4.3,2.5l-1.1,0.6l-9.8-4.3l-0.9,2.1L10,36
	l-1.6,0.9l-7.5-3.2L0,35.8l5.9,2.5l-5.8,3.4l1.2,2l5.8-3.4l-0.8,6.4L8.6,47l1-8.1l1.6-0.9l-1,8.9l2.3,0.3l1.2-10.6l1.1-0.6l0,5
	l2.3,0l0-6.4l0.8-0.5l6.3,3.6v1l-5.5,3.2l1.1,2l4.4-2.5v1.3L15.6,49l1.4,1.9l7.2-5.3v1.8l-6.5,4.9l1.4,1.8l5.1-3.9v6.7h2.3v-6.7
	l5.1,3.9l1.4-1.8l-6.5-4.9v-1.8l7.2,5.3L35,49l-8.6-6.4v-1.3l4.3,2.5l1.2-2l-5.5-3.2v-0.9l6.4-3.7l0.8,0.4l0,6.4l2.3,0v-5l1.1,0.6
	l1.2,10.6l2.3-0.3l-1-8.9l1.6,0.9l1,8.1l2.3-0.3l-0.8-6.4l5.8,3.4l1.2-2l-5.8-3.4l5.9-2.5l-0.9-2.1l-7.5,3.2L40.6,36l8.2-3.6
	l-0.9-2.1l-9.8,4.3L37,33.9l4.3-2.5l-1.2-2l-5.5,3.2L34,32.2v-7.4l0.7-0.4l5.5,3.2l1.2-2L37,23l1.1-0.7l9.8,4.3l0.9-2.1L40.6,21
	l1.6-0.9L49.7,23.2z M30,24.4L30,24.4l-3.6,2.1v-4.1L30,24.4z M24.1,22.4L24.1,22.4v4l-3.5-2L24.1,22.4z M19.5,26.5L19.5,26.5l3.5,2
	l-3.5,2V26.5z M20.6,32.5L20.6,32.5l3.5-2v4L20.6,32.5z M26.4,34.6L26.4,34.6v-4.1l3.6,2.1L26.4,34.6z M31.2,30.6L31.2,30.6
	l-3.6-2.1l3.6-2.1V30.6z"/>
</svg>
