<?xml version="1.0" encoding="utf-8"?>
<!-- Generator: Adobe Illustrator 19.1.1, SVG Export Plug-In . SVG Version: 6.00 Build 0)  -->
<svg version="1.1" id="Layer_1" xmlns="http://www.w3.org/2000/svg" xmlns:xlink="http://www.w3.org/1999/xlink" x="0px" y="0px"
	 viewBox="0 0 52.3 58.8" style="enable-background:new 0 0 52.3 58.8;" xml:space="preserve">
<style type="text/css">
	.st0{fill:#BA9E51;}
</style>
<path class="st0" d="M48.2,45.8v-2.1l2.7,1.6l1.4-2.5l-2.6-1.5l2-1.1l-1.5-2.5l-3.4,2l-2.3-1.3l5.4-3.1l-1.5-2.5l-6.9,4l-1.8-1
	l2-1.1l-1.4-2.5l-3.4,2l-2.6-1.5v-6.2l2.5-1.4l3.2,1.9l1.4-2.5l-1.8-1l1.8-1l7,4l1.4-2.5l-5.5-3.2l2.3-1.4l3.2,1.9l1.4-2.5l-1.8-1
	l2.7-1.5l-1.4-2.5l-2.6,1.5v-2.3h-2.9v4L43,17.9v-6.3h-2.9v7.9l-1.8,1v-2.3h-2.9v3.9l-2.2,1.3l-5.7-3.3v-2.4l3.2-1.9l-1.4-2.5
	l-1.8,1v-2.1l7-4l-1.4-2.5l-5.5,3.2V6.4l3.2-1.9l-1.4-2.5l-1.8,1V0h-2.9v3.1l-2-1.1l-1.5,2.5l3.4,2V9l-5.4-3.1l-1.5,2.5l6.9,4v2.1
	l-1.9-1.1l-1.5,2.5l3.4,2v2.6L19,23.7l-2.1-1.2v-3.8H14v2.1l-1.8-1v-8.1H9.3v6.4L7,16.7V13H4.1v2.1l-2.7-1.6L0,16l2.6,1.5l-2,1.1
	l1.4,2.5l3.4-2l2.3,1.3l-5.4,3.1l1.4,2.5l6.9-4l1.8,1l-2,1.1l1.5,2.5l3.4-2l2.6,1.5v6.1L15.5,34l-3.2-1.9l-1.4,2.5l1.8,1l-1.8,1
	l-7-4l-1.4,2.5L8,38.3l-2.4,1.4l-3.2-1.9L1,40.3l1.8,1l-2.7,1.5l1.4,2.5l2.7-1.5v2.3H7v-4l2.3-1.3v6.3h2.8v-7.9l1.8-1v2.3h2.9v-3.9
	l3.1-1.8l4.9,2.8V41l-3.2,1.9l1.5,2.5l1.8-1v2.1l-7,4l1.5,2.5l5.5-3.2v2.7l-3.2,1.9l1.4,2.5l1.8-1v3.1h2.9v-3.1l2,1.2l1.5-2.5
	l-3.4-2v-2.7l5.4,3.1l1.4-2.5l-6.9-4v-2.1l2,1.1l1.4-2.5l-3.4-2v-3.5l4.9-2.9l2.9,1.7v3.8h2.9V38l1.8,1v8.1H43v-6.4l2.4,1.3v3.7
	H48.2z M26.2,34.6L26.2,34.6l-4.9-2.8v-5.7l4.9-2.9l4.9,2.9v5.7L26.2,34.6z"/>
</svg>
