<?xml version="1.0" encoding="utf-8"?>
<!-- Generator: Adobe Illustrator 19.1.1, SVG Export Plug-In . SVG Version: 6.00 Build 0)  -->
<svg version="1.1" id="Layer_1" xmlns="http://www.w3.org/2000/svg" xmlns:xlink="http://www.w3.org/1999/xlink" x="0px" y="0px"
	 viewBox="0 0 58.5 58.6" style="enable-background:new 0 0 58.5 58.6;" xml:space="preserve">
<style type="text/css">
	.st0{fill:#BA9E51;}
</style>
<path class="st0" d="M58.5,28.1H53l3.9-3.5l-1.6-1.8l-5.8,5.3h-1.8l1.3-2l-2-1.3l-2.2,3.3h-3.6l7.8-7l-10.5,0.5l2.6-2.6l3.9,0.8
	l0.5-2.3L43.1,17l1.2-1.3l7.8-0.3l-0.1-2.4l-5.2,0.2l3.9-3.9l-1.7-1.7l-3.9,3.9l0.3-5.2l-2.4-0.1l-0.3,7.9l-1.3,1.3L41,13l-2.3,0.5
	l0.8,3.8l-2.5,2.6l0.5-10.5l-7,7.8v-3.6l3.3-2.2l-1.3-2l-2,1.3V9l5.3-5.8L34,1.6l-3.5,3.9V0h-2.4v5.5l-3.5-3.9l-1.7,1.6L28.1,9v1.8
	l-2-1.3l-1.3,2l3.3,2.2v3.6l-7-7.8l0.5,10.5L19,17.4l0.8-3.9L17.5,13L17,15.4l-1.3-1.3l-0.3-7.9L13,6.4l0.2,5.2L9.4,7.7L7.7,9.4
	l3.8,3.9l-5.2-0.2l-0.1,2.4l7.8,0.4l1.3,1.3L13,17.5l0.5,2.3l3.9-0.8l2.5,2.5L9.4,21.1l7.8,7h-3.6l-2.1-3.3l-2,1.3l1.3,2H9l-5.8-5.3
	l-1.6,1.8l3.9,3.5H0v2.4h5.4L1.6,34l1.6,1.8L9,30.5h1.8l-1.3,2l2,1.3l2.1-3.3h3.6l-7.8,7L19.9,37l-2.5,2.5l-3.9-0.8L13,41.1l2.3,0.5
	l-1.3,1.3l-7.8,0.4l0.1,2.4l5.2-0.3l-3.8,3.9l1.7,1.7l3.8-3.9L13,52.2l2.4,0.1l0.3-7.9l1.3-1.3l0.5,2.3l2.3-0.5L19,41.2l2.5-2.5
	L21,49.1l7-7.8V45l-3.3,2.2l1.3,2l2-1.3v1.8l-5.3,5.8l1.7,1.6l3.5-3.9v5.5h2.4v-5.5L34,57l1.7-1.6l-5.3-5.8v-1.8l2,1.3l1.3-2
	L30.4,45v-3.6l7,7.8l-0.5-10.5l2.5,2.6l-0.8,3.8l2.3,0.5l0.5-2.3l1.2,1.3l0.4,7.9l2.4-0.1L45.2,47l3.9,3.9l1.7-1.7l-3.9-3.9l5.2,0.2
	l0.1-2.4l-7.8-0.4l-1.2-1.3l2.3-0.5L45,38.7l-3.9,0.8L38.6,37l10.5,0.6l-7.8-7h3.6l2.2,3.3l2-1.3l-1.3-2h1.8l5.8,5.3l1.6-1.8
	L53,30.5h5.5V28.1z M41.2,24.4L41.2,24.4L37,28.1h-4.9l3.5-3.5L41.2,24.4z M34.2,17.4L34.2,17.4L33.9,23l-3.5,3.5v-4.9L34.2,17.4z
	 M24.3,17.4L24.3,17.4l3.7,4.2v4.9L24.6,23L24.3,17.4z M17.3,24.4L17.3,24.4l5.6,0.3l3.5,3.5h-4.9L17.3,24.4z M17.3,34.2L17.3,34.2
	l4.2-3.8h4.9L22.9,34L17.3,34.2z M24.3,41.2L24.3,41.2l0.3-5.6l3.5-3.5v4.9L24.3,41.2z M34.2,41.2L34.2,41.2l-3.7-4.2v-4.9l3.5,3.5
	L34.2,41.2z M41.2,34.2L41.2,34.2L35.6,34l-3.5-3.5H37L41.2,34.2z"/>
</svg>
