<?xml version="1.0" encoding="utf-8"?>
<!-- Generator: Adobe Illustrator 19.1.1, SVG Export Plug-In . SVG Version: 6.00 Build 0)  -->
<svg version="1.1" id="Layer_1" xmlns="http://www.w3.org/2000/svg" xmlns:xlink="http://www.w3.org/1999/xlink" x="0px" y="0px"
	 viewBox="0 0 1150.2 164.2" style="enable-background:new 0 0 1150.2 164.2;" xml:space="preserve">
<style type="text/css">
	.st0{fill:#F1BFA0;}
	.st1{fill:#0F2649;}
	.st2{fill:#FFFFFF;}
	.st3{opacity:0.1;}
	.st4{fill:#010101;}
	.st5{opacity:5.000000e-002;fill:#010101;}
</style>
<g>
	<path class="st0" d="M1150.2,96.3l-213.3,33.2L774.4,133V53.6h339.4c20.1,0,36.4,16.3,36.4,36.4V96.3z"/>
	<rect class="st1" width="745.3" height="164.2"/>
	<rect x="745.1" y="11.5" class="st2" width="29.5" height="141.3"/>
	<circle class="st2" cx="698.1" cy="139.8" r="7.3"/>
	<circle class="st2" cx="729" cy="139.8" r="7.3"/>
	<circle class="st1" cx="759.9" cy="139.8" r="7.3"/>
	<g class="st3">
		<polygon class="st4" points="0,82.1 0,164.2 745.3,164.2 745.3,152.8 774.7,152.8 774.7,82.1 		"/>
	</g>
	<path class="st5" d="M1150.2,89.9c0-3.8-0.6-7.5-1.7-11c-55.2,5.5-209.5,21.5-209.5,21.5l-164.6-4V133l162.5-3.5l213.3-33.2V89.9z"
		/>
	<path class="st0" d="M940.1,58.6H774.4V27.3l73.7-9.9h92.1c11.4,0,20.6,9.2,20.6,20.6v0C960.7,49.4,951.5,58.6,940.1,58.6z"/>
	<path class="st5" d="M851.8,66.7h86.7c10.6,0,23.8-3.1,27.2-13.1h-12L851.8,66.7z"/>
</g>
</svg>
