<?xml version="1.0" encoding="utf-8"?>
<!-- Generator: Adobe Illustrator 19.1.1, SVG Export Plug-In . SVG Version: 6.00 Build 0)  -->
<svg version="1.1" id="Layer_1" xmlns="http://www.w3.org/2000/svg" xmlns:xlink="http://www.w3.org/1999/xlink" x="0px" y="0px"
	 viewBox="0 0 759.6 755.7" style="enable-background:new 0 0 759.6 755.7;" xml:space="preserve">
<style type="text/css">
	.st0{fill:#092850;}
</style>
<path class="st0" d="M684.1,539.3l55-34.7l-37.5-3.7c11.9-31.2,19.5-64.5,21.8-99.3l36.1-54.1l-35.8,11.9
	c-2.1-39.1-10.7-76.4-24.7-110.9l8.7-64.4l-27,26.4c-18.6-33.3-42.5-63.2-70.7-88.5l-20.5-62.1l-12.7,35.7
	c-30.8-21.5-65.2-38-102.1-48.6L429,0l4.2,37.9c-17.3-2.7-35-4.1-53-4.1c-20.3,0-40.3,1.8-59.7,5.2l-62.2-22.3L278.9,49
	c-36.4,11.2-70.2,28.3-100.3,50.1l-66.2,7.3l32.9,20.2c-27.3,25.6-50.5,55.5-68.3,88.8l-56.5,35.7l38.4,3.8
	c-11.7,30.7-19.2,63.4-21.7,97.6L0,408.2L36.7,396c2,38.5,10.3,75.3,24,109.4l-9,66.2l27.6-27c18.3,33,41.9,62.7,69.6,87.9
	l20.9,63.3l12.9-36.3c30.6,21.5,64.8,38.1,101.5,48.7l46.2,47.4l-4.3-38c17.6,2.8,35.6,4.2,54,4.2c20.1,0,39.8-1.7,59-5.1l61.9,22.2
	l-20.3-32.1c36.8-11.2,70.9-28.4,101.3-50.5l65-7.2L615,629.4C642.7,603.5,666.2,573,684.1,539.3z M537.4,541.8l-12.9-38.2
	l-16.7,62.2c-17.8,12.1-37.3,21.7-58.2,28.4l5.1-39.8l-42.1,48.3c-10.6,1.5-21.3,2.3-32.3,2.3c-11,0-21.9-0.8-32.5-2.3l21.9-33.3
	L311,594.1c-20.9-6.7-40.5-16.3-58.3-28.4l34.1-20.2l-63.3-3.4c-15.7-15-29.3-32.2-40.2-51.1l39.4-3.2L167.4,457
	c-7.4-20-12.2-41.4-13.7-63.6l36.7,14.3L154.3,356c1.9-19.6,6.2-38.6,12.8-56.4l28.8,29.2l-12.4-64.2c10.7-18.6,24-35.5,39.4-50.3
	l13.1,38.9l17.1-63.4c17.6-11.9,36.9-21.4,57.5-28l-5.3,41l43.3-49.7c10.4-1.5,21-2.2,31.7-2.2c10.9,0,21.6,0.8,32.1,2.3l-22.8,34.7
	l61.1-25.8c20.5,6.7,39.7,16.2,57.2,28.1l-35.9,21.3l66.4,3.6c15.3,14.8,28.5,31.7,39.1,50.3l-41.8,3.4l58.4,32.5
	c7.1,19.6,11.5,40.5,12.9,62.2l-39.1-15.3l38.2,54.7c-2,18.7-6.3,36.7-12.6,53.7L565,427.5l12.3,63.5
	C566.4,509.8,553,526.9,537.4,541.8z"/>
</svg>
