<?xml version="1.0" encoding="utf-8"?>
<!-- Generator: Adobe Illustrator 19.1.1, SVG Export Plug-In . SVG Version: 6.00 Build 0)  -->
<svg version="1.1" id="Layer_1" xmlns="http://www.w3.org/2000/svg" xmlns:xlink="http://www.w3.org/1999/xlink" x="0px" y="0px"
	 viewBox="0 0 890.7 594.2" style="enable-background:new 0 0 890.7 594.2;" xml:space="preserve">
<style type="text/css">
	.st0{fill:none;}
	.st1{fill:#BA9E51;}
	.st2{fill:#F4F4F4;}
	.st3{fill:#FFFFFF;}
	.st4{fill:url(#SVGID_1_);}
	.st5{fill:url(#SVGID_2_);}
	.st6{fill:none;stroke:#F9B742;stroke-width:40;stroke-miterlimit:10;}
	.st7{fill:none;stroke:#F9B742;stroke-width:20;stroke-miterlimit:10;}
	.st8{opacity:0.1;fill:#010101;}
	.st9{fill:#F1BFA0;}
	.st10{fill:#0F2649;}
	.st11{opacity:0.1;}
	.st12{fill:#010101;}
	.st13{opacity:5.000000e-002;fill:#010101;}
</style>
<pattern  x="140" y="-98.6" width="240" height="240" patternUnits="userSpaceOnUse" id="New_Pattern_10" viewBox="17.5 -248.8 240 240" style="overflow:visible;">
	<g>
		<polygon class="st0" points="17.5,-248.8 257.5,-248.8 257.5,-8.8 17.5,-8.8 		"/>
		<g>
			<g>
				<path class="st1" d="M257.5-9.6h1.7l-1.2-1.1l0.5-0.5l1.8,1.6h0.6l-0.4-0.6l0.6-0.4l0.7,1h0.4V-11l1.1-1.1l-0.3-0.3l-1.2,0.2
					l-0.2-0.7l0.7-0.1l-0.4-0.4l-2.5-0.1l0-0.7l1.7,0.1l-1.2-1.2l0.5-0.5l1.2,1.2l-0.1-1.6l0.8,0l0.1,2.5l0.4,0.4l0.2-0.7l0.7,0.1
					l-0.3,1.2l0.3,0.3l1.1-1.1h1.5v-0.4l-1-0.7l0.4-0.6l0.6,0.4v-0.6l-1.7-1.8l0.6-0.5l1.1,1.2v-1.7h0.8v1.7l1.1-1.2l0.6,0.5
					l-1.7,1.8v0.6l0.6-0.4l0.4,0.6l-1,0.7v0.4h1.5l1.1,1.1l0.3-0.3l-0.3-1.2l0.7-0.2l0.2,0.7l0.4-0.4l0.1-2.5l0.7,0l-0.1,1.6
					l1.2-1.2l0.5,0.5l-1.2,1.2l1.7-0.1l0,0.7l-2.5,0.1l-0.4,0.4l0.7,0.2l-0.2,0.7l-1.2-0.2l-0.3,0.3l1.1,1.1v1.5h0.4l0.7-1l0.6,0.4
					l-0.4,0.6h0.6l1.8-1.6l0.5,0.5l-1.2,1.1h1.7v0.7h-1.7l1.2,1.1L275-7.1l-1.8-1.7h-0.6l0.4,0.6l-0.6,0.4l-0.7-1h-0.4v1.5l-1.1,1.1
					l0.3,0.3l1.2-0.2l0.2,0.7l-0.7,0.1l0.4,0.4l2.5,0.1l0,0.7l-1.7-0.1l1.2,1.2L273-2.4l-1.2-1.2l0.1,1.6l-0.8,0L271-4.4l-0.4-0.4
					l-0.2,0.7l-0.7-0.1l0.3-1.2l-0.3-0.3l-1.1,1.1h-1.5v0.4l1,0.7L267.7-3l-0.6-0.4v0.6l1.7,1.8l-0.6,0.5l-1.1-1.2V0h-0.8v-1.7
					l-1.1,1.2L264.7-1l1.7-1.8v-0.6L265.7-3l-0.4-0.6l1-0.7v-0.4h-1.5l-1.1-1.1l-0.3,0.3l0.2,1.2L263-4.1l-0.2-0.7l-0.4,0.4L262.3-2
					l-0.8,0l0.1-1.6l-1.2,1.2L259.9-3l1.2-1.2l-1.7,0.1l0-0.7l2.5-0.1l0.4-0.4l-0.7-0.1l0.2-0.7L263-6l0.3-0.3l-1.1-1.1v-1.5h-0.4
					l-0.7,1l-0.6-0.4l0.4-0.6h-0.6l-1.8,1.7L258-7.7l1.2-1.1h-1.7V-9.6z M263.8-6.8l0.9-0.9l-0.5-0.5v-0.6h-1.3v1.2l0,0L263.8-6.8z
					 M266-7.5h1.4l1-1v-1.4l-1-1H266l-1,1v1.4l0,0L266-7.5z M266.4-5.4v-1.3h-0.6l-0.5-0.5l-1,0.9l0.9,0.8l0,0H266.4z M269.2-6.2
					l-1-0.9l-0.5,0.5h-0.7v1.3h1.2l0,0L269.2-6.2z M270.5-8.8h-1.3v0.6l-0.5,0.5l1,0.9l0.8-0.8l0,0V-8.8z M269.7-11.6l-0.9,0.9
					l0.5,0.5v0.6h1.3v-1.2l0,0L269.7-11.6z M267.1-13v1.3h0.7l0.5,0.4l0.9-0.9l-0.8-0.8l0,0H267.1z M264.3-12.1l0.9,0.9l0.5-0.5h0.6
					V-13h-1.2l0,0L264.3-12.1z M262.9-9.6h1.3v-0.6l0.5-0.4l-0.9-0.9l-0.9,0.8l0,0V-9.6z"/>
			</g>
		</g>
		<g>
			<g>
				<path class="st1" d="M235.7-9.5h1.7v0.7h-1.7l1.2,1.1l-0.5,0.6l-1.8-1.7H232l2.5,2.2l-3.3-0.2l1.8,1.8l2.5,0.1l0,0.7l-1.7-0.1
					L235-3l-0.5,0.5l-1.2-1.2l0.1,1.6l-0.8,0l-0.1-2.5l-1.8-1.8l0.2,3.3l-2.2-2.4v2.6l1.7,1.8l-0.6,0.5l-1.1-1.2V0h-0.8v-1.7
					l-1.1,1.2L226.2-1l1.7-1.8v-2.6L225.6-3l0.2-3.3l-1.8,1.8L223.8-2l-0.8,0l0.1-1.6l-1.2,1.2L221.4-3l1.2-1.2L221-4.1l0-0.7
					l2.5-0.1l1.8-1.8l-3.3,0.2l2.5-2.2h-2.6L220-7.1l-0.5-0.6l1.2-1.1H219v-0.7h1.7l-1.2-1.1l0.5-0.5l1.8,1.7h2.6l-2.5-2.2l3.3,0.2
					l-1.8-1.8l-2.5-0.1l0-0.7l1.7,0.1l-1.2-1.2l0.5-0.5l1.2,1.2l-0.1-1.6l0.8,0l0.1,2.5l1.8,1.8l-0.2-3.3l2.2,2.4v-2.6l-1.7-1.8
					l0.6-0.5l1.1,1.2v-1.7h0.8v1.7l1.1-1.2l0.6,0.5l-1.7,1.8v2.6l2.2-2.4l-0.2,3.3l1.8-1.8l0.1-2.5l0.7,0l-0.1,1.6l1.2-1.2l0.5,0.5
					l-1.2,1.2l1.7-0.1l0,0.7l-2.5,0.1l-1.8,1.8l3.3-0.2L232-9.5h2.6l1.8-1.7l0.5,0.6L235.7-9.5z M230.2-10.6l-1.1,1.1h1.6l1.3-1.2
					l0,0L230.2-10.6z M228.6-11.6v1.5l1.1-1.1l0.1-1.7l0,0L228.6-11.6z M226.7-11.2l1.1,1.1v-1.5l-1.2-1.3l0,0L226.7-11.2z
					 M225.7-9.5h1.6l-1.1-1.1l-1.8-0.1l0,0L225.7-9.5z M226.2-7.7l1.1-1.1h-1.5l-1.3,1.2l0,0L226.2-7.7z M227.8-6.7v-1.5l-1.1,1.1
					l-0.1,1.7l0,0L227.8-6.7z M229.7-7.2l-1.1-1.1v1.5l1.2,1.3l0,0L229.7-7.2z M230.7-8.8h-1.5l1.1,1.1l1.8,0.1l0,0L230.7-8.8z"/>
				<path class="st1" d="M193.8-6l1.9,1.1l-0.4,0.6l-1.9-1.1l0.2,1.5l-0.7,0.1l-0.3-2.1l-0.5-0.3l0.3,2.4l-0.7,0.1l-0.3-2.9
					l-0.4-0.2L189.2-7l0.5,0.8l1.2,0.1l-0.1,0.7l-0.7-0.1l0.5,0.9L190-4.1L189.5-5l-0.3,0.6l-0.7-0.3l0.5-1.1l-0.5-0.8L187.8-5v0.4
					l2.4,1.7l-0.5,0.6l-1.9-1.4v0.6l1.7,1.3l-0.5,0.6l-1.3-0.9V0h-0.8v-2.2l-1.2,0.9l-0.5-0.6l1.7-1.3v-0.6l-1.9,1.4l-0.4-0.6
					l2.4-1.7V-5l-0.7-1.6L186-5.8l0.5,1.1l-0.7,0.3L185.5-5l-0.5,0.9l-0.7-0.4l0.5-0.9l-0.7,0.1l-0.1-0.7l1.2-0.1l0.4-0.8L184-6.8
					l-0.3,0.2l-0.3,2.9l-0.7-0.1l0.3-2.4l-0.5,0.3l-0.3,2.1l-0.7-0.1l0.2-1.5l-1.9,1.1l-0.4-0.6l1.9-1.1l-1.4-0.6l0.3-0.7l1.9,0.8
					l0.5-0.3l-2.2-0.9l0.3-0.7l2.7,1.2l0.3-0.2l1-1.4h-0.9l-0.7,1l-0.6-0.4l0.4-0.5h-1.1v-0.7h1.1l-0.4-0.5l0.6-0.4l0.7,1h0.9
					l-1-1.4l-0.3-0.2l-2.7,1.2l-0.3-0.7l2.2-1l-0.5-0.3l-1.9,0.8l-0.3-0.7l1.4-0.6l-1.9-1.1l0.4-0.6l1.9,1.1l-0.2-1.5l0.7-0.1
					l0.2,2.1l0.5,0.3l-0.3-2.3l0.7-0.1l0.3,2.9l0.3,0.2l1.7,0.2l-0.5-0.8l-1.2-0.1l0.1-0.7l0.7,0.1l-0.5-0.9l0.6-0.4l0.5,0.9
					l0.3-0.6l0.7,0.3l-0.5,1.1l0.5,0.8l0.7-1.6v-0.4l-2.4-1.7l0.4-0.6l1.9,1.4v-0.6l-1.7-1.3l0.5-0.6l1.2,0.9v-2.2h0.8v2.2l1.3-0.9
					l0.5,0.6l-1.7,1.3v0.6l1.9-1.4l0.5,0.6l-2.4,1.7v0.4l0.7,1.5l0.5-0.8l-0.5-1.1l0.7-0.3l0.3,0.6l0.5-0.9l0.7,0.4l-0.5,0.9
					l0.7-0.1l0.1,0.7l-1.2,0.1l-0.5,0.8l1.7-0.2l0.4-0.2l0.3-2.9l0.7,0.1l-0.3,2.3l0.5-0.3l0.2-2.1l0.7,0.1l-0.2,1.5l1.9-1.1
					l0.4,0.6l-1.9,1.1l1.4,0.6l-0.3,0.7l-1.9-0.8l-0.5,0.3l2.2,1l-0.3,0.7l-2.7-1.2l-0.4,0.2l-1,1.4h0.9l0.7-1l0.6,0.4l-0.4,0.5h1.1
					v0.7h-1.1l0.4,0.5l-0.6,0.4l-0.7-1h-0.9l1,1.4l0.4,0.2l2.7-1.2l0.3,0.7l-2.2,1l0.5,0.3l1.9-0.8l0.3,0.7L193.8-6z M188.3-7.8
					l1.9,0.2l-1.2-1.6l1.2-1.6l-1.9,0.2l-0.8-1.8l-0.8,1.8l-1.9-0.2l1.2,1.6l-1.2,1.6l1.9-0.2l0.8,1.8l0,0L188.3-7.8z"/>
				<path class="st1" d="M137.5-9.6h1.7l-1.2-1.1l0.5-0.5l1.8,1.6h0.6l-0.4-0.6l0.6-0.4l0.7,1h0.4V-11l1.1-1.1l-0.3-0.3l-1.2,0.2
					l-0.2-0.7l0.7-0.1l-0.4-0.4l-2.5-0.1l0-0.7l1.7,0.1l-1.2-1.2l0.5-0.5l1.2,1.2l-0.1-1.6l0.8,0l0.1,2.5l0.4,0.4l0.2-0.7l0.7,0.1
					l-0.3,1.2l0.3,0.3l1.1-1.1h1.5v-0.4l-1-0.7l0.4-0.6l0.6,0.4v-0.6l-1.7-1.8l0.6-0.5l1.1,1.2v-1.7h0.8v1.7l1.1-1.2l0.6,0.5
					l-1.7,1.8v0.6l0.6-0.4l0.4,0.6l-1,0.7v0.4h1.5l1.1,1.1l0.3-0.3l-0.3-1.2l0.7-0.2l0.2,0.7l0.4-0.4l0.1-2.5l0.7,0l-0.1,1.6
					l1.2-1.2l0.5,0.5l-1.2,1.2l1.7-0.1l0,0.7l-2.5,0.1l-0.4,0.4l0.7,0.2l-0.2,0.7l-1.2-0.2l-0.3,0.3l1.1,1.1v1.5h0.4l0.7-1l0.6,0.4
					l-0.4,0.6h0.6l1.8-1.6l0.5,0.5l-1.2,1.1h1.7v0.7h-1.7l1.2,1.1L155-7.1l-1.8-1.7h-0.6l0.4,0.6l-0.6,0.4l-0.7-1h-0.4v1.5l-1.1,1.1
					l0.3,0.3l1.2-0.2l0.2,0.7l-0.7,0.1l0.4,0.4l2.5,0.1l0,0.7l-1.7-0.1l1.2,1.2L153-2.4l-1.2-1.2l0.1,1.6l-0.8,0L151-4.4l-0.4-0.4
					l-0.2,0.7l-0.7-0.1l0.3-1.2l-0.3-0.3l-1.1,1.1h-1.5v0.4l1,0.7L147.7-3l-0.6-0.4v0.6l1.7,1.8l-0.6,0.5l-1.1-1.2V0h-0.8v-1.7
					l-1.1,1.2L144.7-1l1.7-1.8v-0.6L145.7-3l-0.4-0.6l1-0.7v-0.4h-1.5l-1.1-1.1l-0.3,0.3l0.2,1.2L143-4.1l-0.2-0.7l-0.4,0.4L142.3-2
					l-0.8,0l0.1-1.6l-1.2,1.2L139.9-3l1.2-1.2l-1.7,0.1l0-0.7l2.5-0.1l0.4-0.4l-0.7-0.1l0.2-0.7L143-6l0.3-0.3l-1.1-1.1v-1.5h-0.4
					l-0.7,1l-0.6-0.4l0.4-0.6h-0.6l-1.8,1.7L138-7.7l1.2-1.1h-1.7V-9.6z M143.8-6.8l0.9-0.9l-0.5-0.5v-0.6h-1.3v1.2l0,0L143.8-6.8z
					 M146-7.5h1.4l1-1v-1.4l-1-1H146l-1,1v1.4l0,0L146-7.5z M146.4-5.4v-1.3h-0.6l-0.5-0.5l-1,0.9l0.9,0.8l0,0H146.4z M149.2-6.2
					l-1-0.9l-0.5,0.5h-0.7v1.3h1.2l0,0L149.2-6.2z M150.5-8.8h-1.3v0.6l-0.5,0.5l1,0.9l0.8-0.8l0,0V-8.8z M149.7-11.6l-0.9,0.9
					l0.5,0.5v0.6h1.3v-1.2l0,0L149.7-11.6z M147.1-13v1.3h0.7l0.5,0.4l0.9-0.9l-0.8-0.8l0,0H147.1z M144.3-12.1l0.9,0.9l0.5-0.5h0.6
					V-13h-1.2l0,0L144.3-12.1z M142.9-9.6h1.3v-0.6l0.5-0.4l-0.9-0.9l-0.9,0.8l0,0V-9.6z"/>
			</g>
			<g>
				<path class="st1" d="M173.1-44.4v-1.2l-0.7-0.4v2h-0.9v-2.5l-0.6-0.3v0.7h-0.9v-1.2l-0.9-0.5l-1.6,0.9v1.1l1.1,0.6l-0.5,0.8
					l-0.6-0.4v0.7l2.2,1.2l-0.5,0.8l-1.7-1v0.8l1.1,0.6l-0.5,0.8l-0.6-0.4v1h-0.9v-1L166-41l-0.5-0.8l1-0.6v-0.8l-1.7,1l-0.5-0.8
					l2.2-1.3v-0.6l-0.6,0.3l-0.5-0.8l1-0.6V-47l-1.5-0.9l-1,0.6v1.2h-0.9v-0.7l-0.6,0.3v2.5h-0.9v-2l-0.7,0.4v1.2H160V-45l-0.8,0.5
					l-0.5-0.8l0.8-0.5l-0.6-0.3l0.5-0.8l1,0.6l0.7-0.4l-1.8-1l0.5-0.8l2.2,1.3l0.6-0.3l-0.6-0.3l0.5-0.8l1,0.6l0.8-0.5v-1.9
					l-0.8-0.5l-1.1,0.6l-0.5-0.8l0.6-0.4l-0.6-0.3l-2.2,1.2l-0.5-0.8l1.7-1l-0.7-0.4l-1.1,0.6l-0.5-0.8l0.6-0.4l-0.8-0.5l0.5-0.8
					L160-54v-0.6h0.9v1.2l0.7,0.4v-2h0.9v2.5l0.6,0.3v-0.7h0.9v1.2l0.7,0.4l1.8-1v-0.8l-1.1-0.6l0.5-0.8l0.6,0.4v-0.7l-2.2-1.2
					l0.5-0.8l1.7,1v-0.8l-1.1-0.6l0.5-0.8l0.6,0.4v-1h0.9v1l0.6-0.3l0.5,0.8l-1,0.6v0.8l1.8-1l0.5,0.8l-2.2,1.3v0.6l0.6-0.3l0.5,0.8
					l-1,0.6v0.8l1.8,1l0.7-0.4V-53h0.9v0.7l0.6-0.3v-2.5h0.9v2l0.7-0.4v-1.2h0.9v0.7l0.8-0.5l0.5,0.8l-0.8,0.5L175-53l-0.5,0.8
					l-1-0.6l-0.7,0.4l1.7,1l-0.5,0.8l-2.2-1.3l-0.6,0.3l0.6,0.3l-0.5,0.8l-1-0.6l-0.8,0.4v1.9l0.8,0.5l1.1-0.6l0.5,0.8l-0.6,0.4
					l0.6,0.3l2.2-1.2l0.5,0.8l-1.7,1l0.7,0.4l1.1-0.6l0.5,0.8l-0.6,0.4l0.8,0.5l-0.5,0.8l-0.8-0.5v0.6H173.1z M168.5-48.8v-1.8
					l-1.6-0.9l-1.5,0.9v1.8l1.5,0.9l0,0L168.5-48.8z"/>
				<path class="st1" d="M257.6-47.5l-1.9,1.1l1.7,1l-0.5,0.9l-1.8-1v2.2h-1v-2.8l-0.6-0.4v0.7h-1v-1.3l-1-0.6l-1.8,1.1v1.2l1.2,0.7
					l-0.5,0.9l-0.7-0.4v0.7l2.4,1.4l-0.5,0.9l-1.9-1.1v2h-1v-2l-1.9,1.1l-0.5-0.9l2.4-1.4v-0.7l-0.6,0.4l-0.5-0.9l1.1-0.6v-1.2
					l-1.8-1.1l-1.1,0.6v1.4h-1v-0.8l-0.6,0.4v2.7h-1v-2.2l-1.7,1l-0.5-0.9l1.8-1l-1.9-1.1l0.5-0.9l2.4,1.4l0.6-0.4l-0.6-0.4l0.5-0.9
					l1.1,0.6l1-0.6v-2.1l-1.1-0.6l-1.2,0.7l-0.5-0.9l0.7-0.4l-0.6-0.4l-2.4,1.4l-0.5-0.9l1.9-1.1l-1.7-1l0.5-0.9l1.8,1v-2.2h1v2.8
					l0.6,0.4v-0.7h1v1.3l1,0.6l1.9-1.1v-1.2l-1.2-0.7l0.5-0.9l0.7,0.4v-0.7l-2.4-1.4l0.5-0.9l1.9,1.1v-2h1v2l1.9-1.1L252-57
					l-2.4,1.4v0.7l0.6-0.4l0.5,0.9l-1.1,0.6v1.1l1.9,1.1l1-0.6v-1.4h1v0.8l0.6-0.4v-2.7h1v2.2l1.8-1l0.5,0.9l-1.8,1l1.9,1.1
					l-0.5,0.9l-2.4-1.4l-0.6,0.4l0.6,0.4l-0.5,0.9l-1.1-0.6l-1,0.6v2.1l1,0.6l1.2-0.7l0.5,0.9l-0.7,0.4l0.6,0.4l2.4-1.4L257.6-47.5z
					 M250.8-48.6v-2l-1.7-1l-1.7,1v2l1.7,1l0,0L250.8-48.6z"/>
				<path class="st1" d="M214.7-55l1.4,0.8v1.6l-1.4,0.8l-1-0.6l-0.8,0.5l1.7,0.9l-0.4,0.8l-2.1-1.2l-0.6,0.3l0.6,0.3l-0.4,0.7
					l-1-0.6l-0.5,0.3v1.3l0.4,0.2l1-0.6l0.4,0.8l-0.5,0.3l0.5,0.3L214-49l0.4,0.7l-1.7,1l0.8,0.5l1-0.6l1.4,0.8v1.6l-1.4,0.8
					l-1.4-0.8v-1.1l-0.8-0.5v1.9h-0.9v-2.4l-0.6-0.3v0.7h-0.9v-1.2l-0.6-0.3l-1,0.6v0.6l1,0.6l-0.4,0.8l-0.5-0.3v0.6l2.1,1.2
					l-0.4,0.7l-1.7-1v1l1,0.6v1.6l-1.4,0.8l-1.4-0.8v-1.6l1-0.6v-1l-1.7,0.9l-0.4-0.7l2.1-1.2V-46l-0.6,0.3l-0.4-0.8l1-0.6v-0.7
					l-1-0.6l-0.5,0.3v1.1h-0.9v-0.6l-0.5,0.3v2.4h-0.9v-1.9l-0.8,0.5v1.2l-1.4,0.8L200-45v-1.6l1.4-0.8l1,0.6l0.8-0.5l-1.7-0.9
					L202-49l2.1,1.2l0.6-0.3l-0.6-0.3l0.4-0.7l1,0.6l0.5-0.3v-1.3l-0.5-0.3l-1,0.6l-0.4-0.7l0.6-0.3l-0.5-0.3l-2.1,1.2l-0.4-0.7
					l1.7-1l-0.8-0.5l-1,0.6l-1.4-0.8v-1.6l1.4-0.8l1.4,0.8v1.1l0.8,0.5v-1.9h0.9v2.4l0.6,0.3v-0.7h0.9v1.2l0.4,0.2l1.2-0.7v-0.4
					l-1-0.6l0.4-0.8l0.6,0.3v-0.6l-2.1-1.2l0.4-0.7l1.7,1v-1l-1-0.6v-1.6l1.4-0.8l1.4,0.8v1.6l-1,0.6v1l1.7-0.9l0.4,0.7l-2.1,1.2
					v0.6l0.6-0.3l0.4,0.7l-1,0.6v0.4l1.2,0.7l0.4-0.2v-1.1h0.9v0.6l0.5-0.3v-2.4h0.9v1.9l0.9-0.5v-1.2L214.7-55z M214.7-52.4
					l0.8-0.4v-0.9l-0.8-0.4l-0.8,0.4v0.9l0,0L214.7-52.4z M213.9-45.3l0.8,0.4l0.8-0.4v-0.9l-0.8-0.4l-0.8,0.4l0,0V-45.3z
					 M207.3-42.4v0.9l0.8,0.4l0.8-0.4v-0.9l-0.8-0.4l0,0L207.3-42.4z M201.4-46.7l-0.8,0.4v0.9l0.8,0.4l0.8-0.4v-0.9l0,0L201.4-46.7
					z M202.2-53.8l-0.8-0.4l-0.8,0.4v0.9l0.8,0.4l0.8-0.4l0,0V-53.8z M208.8-56.7v-0.9l-0.8-0.4l-0.8,0.4v0.9l0.8,0.4l0,0
					L208.8-56.7z M208.1-51l-1.2,0.7v1.4l1.2,0.7l1.2-0.7v-1.4l0,0L208.1-51z"/>
			</g>
		</g>
		<g>
			<g>
				<path class="st1" d="M115.7-9.5h1.7v0.7h-1.7l1.2,1.1l-0.5,0.6l-1.8-1.7H112l2.5,2.2l-3.3-0.2l1.8,1.8l2.5,0.1l0,0.7l-1.7-0.1
					L115-3l-0.5,0.5l-1.2-1.2l0.1,1.6l-0.8,0l-0.1-2.5l-1.8-1.8l0.2,3.3l-2.2-2.4v2.6l1.7,1.8l-0.6,0.5l-1.1-1.2V0h-0.8v-1.7
					l-1.1,1.2L106.2-1l1.7-1.8v-2.6L105.6-3l0.2-3.3l-1.8,1.8L103.8-2l-0.8,0l0.1-1.6l-1.2,1.2L101.4-3l1.2-1.2L101-4.1l0-0.7
					l2.5-0.1l1.8-1.8l-3.3,0.2l2.5-2.2h-2.6L100-7.1l-0.5-0.6l1.2-1.1H99v-0.7h1.7l-1.2-1.1l0.5-0.5l1.8,1.7h2.6l-2.5-2.2l3.3,0.2
					l-1.8-1.8l-2.5-0.1l0-0.7l1.7,0.1l-1.2-1.2l0.5-0.5l1.2,1.2l-0.1-1.6l0.8,0l0.1,2.5l1.8,1.8l-0.2-3.3l2.2,2.4v-2.6l-1.7-1.8
					l0.6-0.5l1.1,1.2v-1.7h0.8v1.7l1.1-1.2l0.6,0.5l-1.7,1.8v2.6l2.2-2.4l-0.2,3.3l1.8-1.8l0.1-2.5l0.7,0l-0.1,1.6l1.2-1.2l0.5,0.5
					l-1.2,1.2l1.7-0.1l0,0.7l-2.5,0.1l-1.8,1.8l3.3-0.2L112-9.5h2.6l1.8-1.7l0.5,0.6L115.7-9.5z M110.2-10.6l-1.1,1.1h1.6l1.3-1.2
					l0,0L110.2-10.6z M108.6-11.6v1.5l1.1-1.1l0.1-1.7l0,0L108.6-11.6z M106.7-11.2l1.1,1.1v-1.5l-1.2-1.3l0,0L106.7-11.2z
					 M105.7-9.5h1.6l-1.1-1.1l-1.8-0.1l0,0L105.7-9.5z M106.2-7.7l1.1-1.1h-1.5l-1.3,1.2l0,0L106.2-7.7z M107.8-6.7v-1.5l-1.1,1.1
					l-0.1,1.7l0,0L107.8-6.7z M109.7-7.2l-1.1-1.1v1.5l1.2,1.3l0,0L109.7-7.2z M110.7-8.8h-1.5l1.1,1.1l1.8,0.1l0,0L110.7-8.8z"/>
				<path class="st1" d="M73.8-6l1.9,1.1l-0.4,0.6l-1.9-1.1l0.2,1.5l-0.7,0.1l-0.3-2.1l-0.5-0.3l0.3,2.4l-0.7,0.1l-0.3-2.9l-0.4-0.2
					L69.2-7l0.5,0.8L70.9-6l-0.1,0.7l-0.7-0.1l0.5,0.9L70-4.1L69.5-5l-0.3,0.6l-0.7-0.3L69-5.8l-0.5-0.8L67.8-5v0.4l2.4,1.7
					l-0.5,0.6l-1.9-1.4v0.6l1.7,1.3l-0.5,0.6l-1.3-0.9V0h-0.8v-2.2l-1.2,0.9l-0.5-0.6l1.7-1.3v-0.6l-1.9,1.4l-0.4-0.6l2.4-1.7V-5
					l-0.7-1.6L66-5.8l0.5,1.1l-0.7,0.3L65.5-5l-0.5,0.9l-0.7-0.4l0.5-0.9l-0.7,0.1l-0.1-0.7l1.2-0.1L65.7-7L64-6.8l-0.3,0.2
					l-0.3,2.9l-0.7-0.1l0.3-2.4l-0.5,0.3l-0.3,2.1l-0.7-0.1l0.2-1.5l-1.9,1.1l-0.4-0.6L61.2-6l-1.4-0.6L60-7.3L62-6.5l0.5-0.3
					l-2.2-0.9l0.3-0.7l2.7,1.2l0.3-0.2l1-1.4h-0.9l-0.7,1l-0.6-0.4l0.4-0.5h-1.1v-0.7h1.1l-0.4-0.5l0.6-0.4l0.7,1h0.9l-1-1.4
					l-0.3-0.2l-2.7,1.2l-0.3-0.7l2.2-1L62-11.9L60.1-11l-0.3-0.7l1.4-0.6l-1.9-1.1l0.4-0.6l1.9,1.1l-0.2-1.5l0.7-0.1l0.2,2.1
					l0.5,0.3l-0.3-2.3l0.7-0.1l0.3,2.9l0.3,0.2l1.7,0.2l-0.5-0.8l-1.2-0.1l0.1-0.7l0.7,0.1l-0.5-0.9l0.6-0.4l0.5,0.9l0.3-0.6
					l0.7,0.3l-0.5,1.1l0.5,0.8l0.7-1.6v-0.4l-2.4-1.7l0.4-0.6l1.9,1.4v-0.6l-1.7-1.3l0.5-0.6l1.2,0.9v-2.2h0.8v2.2l1.3-0.9l0.5,0.6
					l-1.7,1.3v0.6l1.9-1.4l0.5,0.6l-2.4,1.7v0.4l0.7,1.5l0.5-0.8l-0.5-1.1l0.7-0.3l0.3,0.6l0.5-0.9l0.7,0.4L70.1-13l0.7-0.1l0.1,0.7
					l-1.2,0.1l-0.5,0.8l1.7-0.2l0.4-0.2l0.3-2.9l0.7,0.1l-0.3,2.3l0.5-0.3l0.2-2.1l0.7,0.1L73.4-13l1.9-1.1l0.4,0.6l-1.9,1.1
					l1.4,0.6l-0.3,0.7L73-11.9l-0.5,0.3l2.2,1L74.3-10l-2.7-1.2l-0.4,0.2l-1,1.4h0.9l0.7-1l0.6,0.4l-0.4,0.5h1.1v0.7h-1.1l0.4,0.5
					l-0.6,0.4l-0.7-1h-0.9l1,1.4l0.4,0.2l2.7-1.2l0.3,0.7l-2.2,1L73-6.5l1.9-0.8l0.3,0.7L73.8-6z M68.3-7.8l1.9,0.2l-1.2-1.6
					l1.2-1.6l-1.9,0.2l-0.8-1.8l-0.8,1.8l-1.9-0.2l1.2,1.6l-1.2,1.6l1.9-0.2L67.5-6l0,0L68.3-7.8z"/>
				<path class="st1" d="M17.5-9.6h1.7L18-10.7l0.5-0.5l1.8,1.6h0.6l-0.4-0.6l0.6-0.4l0.7,1h0.4V-11l1.1-1.1L23-12.4l-1.2,0.2
					l-0.2-0.7l0.7-0.1l-0.4-0.4l-2.5-0.1l0-0.7l1.7,0.1l-1.2-1.2l0.5-0.5l1.2,1.2l-0.1-1.6l0.8,0l0.1,2.5l0.4,0.4l0.2-0.7l0.7,0.1
					l-0.3,1.2l0.3,0.3l1.1-1.1h1.5v-0.4l-1-0.7l0.4-0.6l0.6,0.4v-0.6l-1.7-1.8l0.6-0.5l1.1,1.2v-1.7h0.8v1.7l1.1-1.2l0.6,0.5
					l-1.7,1.8v0.6l0.6-0.4l0.4,0.6l-1,0.7v0.4h1.5l1.1,1.1l0.3-0.3l-0.3-1.2l0.7-0.2l0.2,0.7l0.4-0.4l0.1-2.5l0.7,0l-0.1,1.6
					l1.2-1.2l0.5,0.5l-1.2,1.2l1.7-0.1l0,0.7l-2.5,0.1L31.1-13l0.7,0.2l-0.2,0.7l-1.2-0.2l-0.3,0.3l1.1,1.1v1.5h0.4l0.7-1l0.6,0.4
					l-0.4,0.6h0.6l1.8-1.6l0.5,0.5l-1.2,1.1H36v0.7h-1.7l1.2,1.1L35-7.1l-1.8-1.7h-0.6L33-8.2l-0.6,0.4l-0.7-1h-0.4v1.5l-1.1,1.1
					L30.5-6l1.2-0.2l0.2,0.7l-0.7,0.1l0.4,0.4L34-4.8l0,0.7l-1.7-0.1L33.5-3L33-2.4l-1.2-1.2L31.9-2l-0.8,0L31-4.4l-0.4-0.4
					l-0.2,0.7l-0.7-0.1L30-5.4l-0.3-0.3l-1.1,1.1h-1.5v0.4l1,0.7L27.7-3l-0.6-0.4v0.6L28.8-1l-0.6,0.5l-1.1-1.2V0h-0.8v-1.7
					l-1.1,1.2L24.7-1l1.7-1.8v-0.6L25.7-3l-0.4-0.6l1-0.7v-0.4h-1.5l-1.1-1.1l-0.3,0.3l0.2,1.2L23-4.1l-0.2-0.7l-0.4,0.4L22.3-2
					l-0.8,0l0.1-1.6l-1.2,1.2L19.9-3l1.2-1.2l-1.7,0.1l0-0.7l2.5-0.1l0.4-0.4l-0.7-0.1l0.2-0.7L23-6l0.3-0.3l-1.1-1.1v-1.5h-0.4
					l-0.7,1l-0.6-0.4l0.4-0.6h-0.6l-1.8,1.7L18-7.7l1.2-1.1h-1.7V-9.6z M23.8-6.8l0.9-0.9l-0.5-0.5v-0.6h-1.3v1.2l0,0L23.8-6.8z
					 M26-7.5h1.4l1-1v-1.4l-1-1H26l-1,1v1.4l0,0L26-7.5z M26.4-5.4v-1.3h-0.6l-0.5-0.5l-1,0.9l0.9,0.8l0,0H26.4z M29.2-6.2l-1-0.9
					l-0.5,0.5h-0.7v1.3h1.2l0,0L29.2-6.2z M30.5-8.8h-1.3v0.6l-0.5,0.5l1,0.9l0.8-0.8l0,0V-8.8z M29.7-11.6l-0.9,0.9l0.5,0.5v0.6
					h1.3v-1.2l0,0L29.7-11.6z M27.1-13v1.3h0.7l0.5,0.4l0.9-0.9L28.3-13l0,0H27.1z M24.3-12.1l0.9,0.9l0.5-0.5h0.6V-13h-1.2l0,0
					L24.3-12.1z M22.9-9.6h1.3v-0.6l0.5-0.4l-0.9-0.9l-0.9,0.8l0,0V-9.6z"/>
			</g>
			<g>
				<path class="st1" d="M53.1-44.4v-1.2L52.3-46v2h-0.9v-2.5l-0.6-0.3v0.7h-0.9v-1.2L49-47.9L47.5-47v1.1l1.1,0.6l-0.5,0.8
					l-0.6-0.4v0.7l2.2,1.2l-0.5,0.8l-1.7-1v0.8l1.1,0.6l-0.5,0.8l-0.6-0.4v1h-0.9v-1L46-41l-0.5-0.8l1-0.6v-0.8l-1.7,1L44.3-43
					l2.2-1.3v-0.6L46-44.6l-0.5-0.8l1-0.6V-47L45-47.9l-1,0.6v1.2h-0.9v-0.7l-0.6,0.3v2.5h-0.9v-2l-0.7,0.4v1.2H40V-45l-0.8,0.5
					l-0.5-0.8l0.8-0.5L39-46.1l0.5-0.8l1,0.6l0.7-0.4l-1.8-1l0.5-0.8l2.2,1.3l0.6-0.3l-0.6-0.3l0.5-0.8l1,0.6l0.8-0.5v-1.9L43.6-51
					l-1.1,0.6L42-51.1l0.6-0.4l-0.6-0.3l-2.2,1.2l-0.5-0.8l1.7-1l-0.7-0.4l-1.1,0.6l-0.5-0.8l0.6-0.4l-0.8-0.5l0.5-0.8L40-54v-0.6
					h0.9v1.2l0.7,0.4v-2h0.9v2.5l0.6,0.3v-0.7H44v1.2l0.7,0.4l1.8-1v-0.8l-1.1-0.6l0.5-0.8l0.6,0.4v-0.7l-2.2-1.2l0.5-0.8l1.7,1
					v-0.8l-1.1-0.6l0.5-0.8l0.6,0.4v-1h0.9v1l0.6-0.3l0.5,0.8l-1,0.6v0.8l1.8-1l0.5,0.8l-2.2,1.3v0.6l0.6-0.3l0.5,0.8l-1,0.6v0.8
					l1.8,1l0.7-0.4V-53h0.9v0.7l0.6-0.3v-2.5h0.9v2l0.7-0.4v-1.2H54v0.7l0.8-0.5l0.5,0.8l-0.8,0.5L55-53l-0.5,0.8l-1-0.6l-0.7,0.4
					l1.7,1L54-50.6l-2.2-1.3l-0.6,0.3l0.6,0.3l-0.5,0.8l-1-0.6l-0.8,0.4v1.9l0.8,0.5l1.1-0.6l0.5,0.8l-0.6,0.4l0.6,0.3l2.2-1.2
					l0.5,0.8l-1.7,1l0.7,0.4l1.1-0.6l0.5,0.8l-0.6,0.4l0.8,0.5l-0.5,0.8L54-45.1v0.6H53.1z M48.5-48.8v-1.8L47-51.5l-1.5,0.9v1.8
					l1.5,0.9l0,0L48.5-48.8z"/>
				<path class="st1" d="M137.6-47.5l-1.9,1.1l1.7,1l-0.5,0.9l-1.8-1v2.2h-1v-2.8l-0.6-0.4v0.7h-1v-1.3l-1-0.6l-1.8,1.1v1.2l1.2,0.7
					l-0.5,0.9l-0.7-0.4v0.7l2.4,1.4l-0.5,0.9l-1.9-1.1v2h-1v-2l-1.9,1.1l-0.5-0.9l2.4-1.4v-0.7l-0.6,0.4l-0.5-0.9l1.1-0.6v-1.2
					l-1.8-1.1l-1.1,0.6v1.4h-1v-0.8l-0.6,0.4v2.7h-1v-2.2l-1.7,1l-0.5-0.9l1.8-1l-1.9-1.1l0.5-0.9l2.4,1.4l0.6-0.4l-0.6-0.4l0.5-0.9
					l1.1,0.6l1-0.6v-2.1l-1.1-0.6l-1.2,0.7l-0.5-0.9l0.7-0.4l-0.6-0.4l-2.4,1.4l-0.5-0.9l1.9-1.1l-1.7-1l0.5-0.9l1.8,1v-2.2h1v2.8
					l0.6,0.4v-0.7h1v1.3l1,0.6l1.9-1.1v-1.2l-1.2-0.7l0.5-0.9l0.7,0.4v-0.7l-2.4-1.4l0.5-0.9l1.9,1.1v-2h1v2l1.9-1.1L132-57
					l-2.4,1.4v0.7l0.6-0.4l0.5,0.9l-1.1,0.6v1.1l1.9,1.1l1-0.6v-1.4h1v0.8l0.6-0.4v-2.7h1v2.2l1.8-1l0.5,0.9l-1.8,1l1.9,1.1
					l-0.5,0.9l-2.4-1.4l-0.6,0.4l0.6,0.4l-0.5,0.9l-1.1-0.6l-1,0.6v2.1l1,0.6l1.2-0.7l0.5,0.9l-0.7,0.4l0.6,0.4l2.4-1.4L137.6-47.5z
					 M130.8-48.6v-2l-1.7-1l-1.7,1v2l1.7,1l0,0L130.8-48.6z"/>
				<path class="st1" d="M94.7-55l1.4,0.8v1.6l-1.4,0.8l-1-0.6l-0.8,0.5l1.7,0.9l-0.4,0.8L92-51.3l-0.6,0.3l0.6,0.3l-0.4,0.7l-1-0.6
					l-0.5,0.3v1.3l0.4,0.2l1-0.6l0.4,0.8l-0.5,0.3l0.5,0.3L94-49l0.4,0.7l-1.7,1l0.8,0.5l1-0.6l1.4,0.8v1.6l-1.4,0.8l-1.4-0.8v-1.1
					l-0.8-0.5v1.9h-0.9v-2.4l-0.6-0.3v0.7h-0.9v-1.2l-0.6-0.3l-1,0.6v0.6l1,0.6L89-45.7L88.5-46v0.6l2.1,1.2l-0.4,0.7l-1.7-1v1
					l1,0.6v1.6L88-40.3l-1.4-0.8v-1.6l1-0.6v-1l-1.7,0.9l-0.4-0.7l2.1-1.2V-46L87-45.6l-0.4-0.8l1-0.6v-0.7l-1-0.6L86-47.9v1.1h-0.9
					v-0.6l-0.5,0.3v2.4h-0.9v-1.9l-0.8,0.5v1.2l-1.4,0.8L80-45v-1.6l1.4-0.8l1,0.6l0.8-0.5l-1.7-0.9L82-49l2.1,1.2l0.6-0.3l-0.6-0.3
					l0.4-0.7l1,0.6l0.5-0.3v-1.3l-0.5-0.3l-1,0.6l-0.4-0.7l0.6-0.3l-0.5-0.3l-2.1,1.2l-0.4-0.7l1.7-1l-0.8-0.5l-1,0.6L80-52.5v-1.6
					l1.4-0.8l1.4,0.8v1.1l0.8,0.5v-1.9h0.9v2.4l0.6,0.3v-0.7H86v1.2l0.4,0.2l1.2-0.7v-0.4l-1-0.6l0.4-0.8l0.6,0.3v-0.6L85.5-55
					l0.4-0.7l1.7,1v-1l-1-0.6v-1.6l1.4-0.8l1.4,0.8v1.6l-1,0.6v1l1.7-0.9l0.4,0.7l-2.1,1.2v0.6l0.6-0.3l0.4,0.7l-1,0.6v0.4l1.2,0.7
					l0.4-0.2v-1.1H91v0.6l0.5-0.3v-2.4h0.9v1.9l0.9-0.5v-1.2L94.7-55z M94.7-52.4l0.8-0.4v-0.9l-0.8-0.4l-0.8,0.4v0.9l0,0L94.7-52.4
					z M93.9-45.3l0.8,0.4l0.8-0.4v-0.9l-0.8-0.4l-0.8,0.4l0,0V-45.3z M87.3-42.4v0.9l0.8,0.4l0.8-0.4v-0.9L88-42.9l0,0L87.3-42.4z
					 M81.4-46.7l-0.8,0.4v0.9l0.8,0.4l0.8-0.4v-0.9l0,0L81.4-46.7z M82.2-53.8l-0.8-0.4l-0.8,0.4v0.9l0.8,0.4l0.8-0.4l0,0V-53.8z
					 M88.8-56.7v-0.9L88.1-58l-0.8,0.4v0.9l0.8,0.4l0,0L88.8-56.7z M88.1-51l-1.2,0.7v1.4l1.2,0.7l1.2-0.7v-1.4l0,0L88.1-51z"/>
			</g>
		</g>
		<g>
			<g>
				<path class="st1" d="M17.6-47.5l-1.9,1.1l1.7,1l-0.5,0.9l-1.8-1v2.2h-1v-2.8l-0.6-0.4v0.7h-1v-1.3l-1-0.6l-1.8,1.1v1.2l1.2,0.7
					l-0.5,0.9l-0.7-0.4v0.7l2.4,1.4l-0.5,0.9l-1.9-1.1v2h-1v-2l-1.9,1.1l-0.5-0.9l2.4-1.4v-0.7L8-43.9l-0.5-0.9l1.1-0.6v-1.2
					l-1.8-1.1L5.7-47v1.4h-1v-0.8l-0.6,0.4v2.7h-1v-2.2l-1.7,1l-0.5-0.9l1.8-1l-1.9-1.1l0.5-0.9l2.4,1.4l0.6-0.4l-0.6-0.4l0.5-0.9
					l1.1,0.6l1-0.6v-2.1l-1.1-0.6L4-50.5l-0.5-0.9l0.7-0.4l-0.6-0.4l-2.4,1.4l-0.5-0.9l1.9-1.1l-1.7-1l0.5-0.9l1.8,1v-2.2h1v2.8
					l0.6,0.4v-0.7h1v1.3l1,0.6l1.9-1.1v-1.2l-1.2-0.7l0.5-0.9l0.7,0.4v-0.7L6.2-57l0.5-0.9l1.9,1.1v-2h1v2l1.9-1.1L12-57l-2.4,1.4
					v0.7l0.6-0.4l0.5,0.9l-1.1,0.6v1.1l1.9,1.1l1-0.6v-1.4h1v0.8l0.6-0.4v-2.7h1v2.2l1.8-1l0.5,0.9l-1.8,1l1.9,1.1l-0.5,0.9
					l-2.4-1.4L14-51.8l0.6,0.4l-0.5,0.9L13-51.2l-1,0.6v2.1l1,0.6l1.2-0.7l0.5,0.9L14-47.3l0.6,0.4l2.4-1.4L17.6-47.5z M10.8-48.6
					v-2l-1.7-1l-1.7,1v2l1.7,1l0,0L10.8-48.6z"/>
			</g>
		</g>
		<g>
			<g>
				<path class="st1" d="M253.8-126l1.9,1.1l-0.4,0.6l-1.9-1.1l0.2,1.5l-0.7,0.1l-0.3-2.1l-0.5-0.3l0.3,2.4l-0.7,0.1l-0.3-2.9
					l-0.4-0.2l-1.7-0.2l0.5,0.8l1.2,0.1l-0.1,0.7l-0.7-0.1l0.5,0.9l-0.7,0.4l-0.5-0.9l-0.3,0.6l-0.7-0.3l0.5-1.1l-0.5-0.8l-0.7,1.5
					v0.4l2.4,1.7l-0.5,0.6l-1.9-1.4v0.6l1.7,1.3l-0.5,0.6l-1.3-0.9v2.2h-0.8v-2.2l-1.2,0.9l-0.5-0.6l1.7-1.3v-0.6l-1.9,1.4l-0.4-0.6
					l2.4-1.7v-0.4l-0.7-1.6l-0.5,0.8l0.5,1.1l-0.7,0.3l-0.3-0.6l-0.5,0.9l-0.7-0.4l0.5-0.9l-0.7,0.1l-0.1-0.7l1.2-0.1l0.4-0.8
					l-1.7,0.2l-0.3,0.2l-0.3,2.9l-0.7-0.1l0.3-2.4l-0.5,0.3l-0.3,2.1l-0.7-0.1l0.2-1.5l-1.9,1.1l-0.4-0.6l1.9-1.1l-1.4-0.6l0.3-0.7
					l1.9,0.8l0.5-0.3l-2.2-0.9l0.3-0.7l2.7,1.2l0.3-0.2l1-1.4h-0.9l-0.7,1l-0.6-0.4l0.4-0.5h-1.1v-0.7h1.1l-0.4-0.5l0.6-0.4l0.7,1
					h0.9l-1-1.4l-0.3-0.2l-2.7,1.2l-0.3-0.7l2.2-1l-0.5-0.3l-1.9,0.8l-0.3-0.7l1.4-0.6l-1.9-1.1l0.4-0.6l1.9,1.1l-0.2-1.5l0.7-0.1
					l0.2,2.1l0.5,0.3l-0.3-2.3l0.7-0.1l0.3,2.9l0.3,0.2l1.7,0.2l-0.5-0.8l-1.2-0.1l0.1-0.7l0.7,0.1l-0.5-0.9l0.6-0.4l0.5,0.9
					l0.3-0.6l0.7,0.3l-0.5,1.1l0.5,0.8l0.7-1.6v-0.4l-2.4-1.7l0.4-0.6l1.9,1.4v-0.6l-1.7-1.3l0.5-0.6l1.2,0.9v-2.2h0.8v2.2l1.3-0.9
					l0.5,0.6l-1.7,1.3v0.6l1.9-1.4l0.5,0.6l-2.4,1.7v0.4l0.7,1.5l0.5-0.8l-0.5-1.1l0.7-0.3l0.3,0.6l0.5-0.9l0.7,0.4l-0.5,0.9
					l0.7-0.1l0.1,0.7l-1.2,0.1l-0.5,0.8l1.7-0.2l0.4-0.2l0.3-2.9l0.7,0.1l-0.3,2.3l0.5-0.3l0.2-2.1l0.7,0.1l-0.2,1.5l1.9-1.1
					l0.4,0.6l-1.9,1.1l1.4,0.6l-0.3,0.7l-1.9-0.8l-0.5,0.3l2.2,1l-0.3,0.7l-2.7-1.2l-0.4,0.2l-1,1.4h0.9l0.7-1l0.6,0.4l-0.4,0.5h1.1
					v0.7h-1.1l0.4,0.5l-0.6,0.4l-0.7-1h-0.9l1,1.4l0.4,0.2l2.7-1.2l0.3,0.7l-2.2,1l0.5,0.3l1.9-0.8l0.3,0.7L253.8-126z M248.3-127.8
					l1.9,0.2l-1.2-1.6l1.2-1.6l-1.9,0.2l-0.8-1.8l-0.8,1.8l-1.9-0.2l1.2,1.6l-1.2,1.6l1.9-0.2l0.8,1.8l0,0L248.3-127.8z"/>
				<path class="st1" d="M197.5-129.6h1.7l-1.2-1.1l0.5-0.5l1.8,1.6h0.6l-0.4-0.6l0.6-0.4l0.7,1h0.4v-1.5l1.1-1.1l-0.3-0.3l-1.2,0.2
					l-0.2-0.7l0.7-0.1l-0.4-0.4l-2.5-0.1l0-0.7l1.7,0.1l-1.2-1.2l0.5-0.5l1.2,1.2l-0.1-1.6l0.8,0l0.1,2.5l0.4,0.4l0.2-0.7l0.7,0.1
					l-0.3,1.2l0.3,0.3l1.1-1.1h1.5v-0.4l-1-0.7l0.4-0.6l0.6,0.4v-0.6l-1.7-1.8l0.6-0.5l1.1,1.2v-1.7h0.8v1.7l1.1-1.2l0.6,0.5
					l-1.7,1.8v0.6l0.6-0.4l0.4,0.6l-1,0.7v0.4h1.5l1.1,1.1l0.3-0.3l-0.3-1.2l0.7-0.2l0.2,0.7l0.4-0.4l0.1-2.5l0.7,0l-0.1,1.6
					l1.2-1.2l0.5,0.5l-1.2,1.2l1.7-0.1l0,0.7l-2.5,0.1l-0.4,0.4l0.7,0.2l-0.2,0.7l-1.2-0.2l-0.3,0.3l1.1,1.1v1.5h0.4l0.7-1l0.6,0.4
					l-0.4,0.6h0.6l1.8-1.6l0.5,0.5l-1.2,1.1h1.7v0.7h-1.7l1.2,1.1l-0.5,0.5l-1.8-1.7h-0.6l0.4,0.6l-0.6,0.4l-0.7-1h-0.4v1.5
					l-1.1,1.1l0.3,0.3l1.2-0.2l0.2,0.7l-0.7,0.1l0.4,0.4l2.5,0.1l0,0.7l-1.7-0.1l1.2,1.2l-0.5,0.5l-1.2-1.2l0.1,1.6l-0.8,0l-0.1-2.5
					l-0.4-0.4l-0.2,0.7l-0.7-0.1l0.3-1.2l-0.3-0.3l-1.1,1.1h-1.5v0.4l1,0.7l-0.4,0.6l-0.6-0.4v0.6l1.7,1.8l-0.6,0.5l-1.1-1.2v1.7
					h-0.8v-1.7l-1.1,1.2l-0.6-0.5l1.7-1.8v-0.6l-0.6,0.4l-0.4-0.6l1-0.7v-0.4h-1.5l-1.1-1.1l-0.3,0.3l0.2,1.2l-0.7,0.1l-0.2-0.7
					l-0.4,0.4l-0.1,2.5l-0.8,0l0.1-1.6l-1.2,1.2l-0.5-0.5l1.2-1.2l-1.7,0.1l0-0.7l2.5-0.1l0.4-0.4l-0.7-0.1l0.2-0.7l1.2,0.3l0.3-0.3
					l-1.1-1.1v-1.5h-0.4l-0.7,1l-0.6-0.4l0.4-0.6h-0.6l-1.8,1.7l-0.5-0.5l1.2-1.1h-1.7V-129.6z M203.8-126.8l0.9-0.9l-0.5-0.5v-0.6
					h-1.3v1.2l0,0L203.8-126.8z M206-127.5h1.4l1-1v-1.4l-1-1H206l-1,1v1.4l0,0L206-127.5z M206.4-125.4v-1.3h-0.6l-0.5-0.5l-1,0.9
					l0.9,0.8l0,0H206.4z M209.2-126.2l-1-0.9l-0.5,0.5h-0.7v1.3h1.2l0,0L209.2-126.2z M210.5-128.8h-1.3v0.6l-0.5,0.5l1,0.9l0.8-0.8
					l0,0V-128.8z M209.7-131.6l-0.9,0.9l0.5,0.5v0.6h1.3v-1.2l0,0L209.7-131.6z M207.1-133v1.3h0.7l0.5,0.4l0.9-0.9l-0.8-0.8l0,0
					H207.1z M204.3-132.1l0.9,0.9l0.5-0.5h0.6v-1.3h-1.2l0,0L204.3-132.1z M202.9-129.6h1.3v-0.6l0.5-0.4l-0.9-0.9l-0.9,0.8l0,0
					V-129.6z"/>
			</g>
			<g>
				<path class="st1" d="M233.1-164.4v-1.2l-0.7-0.4v2h-0.9v-2.5l-0.6-0.3v0.7h-0.9v-1.2l-0.9-0.5l-1.6,0.9v1.1l1.1,0.6l-0.5,0.8
					l-0.6-0.4v0.7l2.2,1.2l-0.5,0.8l-1.7-1v0.8l1.1,0.6l-0.5,0.8l-0.6-0.4v1h-0.9v-1L226-161l-0.5-0.8l1-0.6v-0.8l-1.7,1l-0.5-0.8
					l2.2-1.3v-0.6l-0.6,0.3l-0.5-0.8l1-0.6v-1.1l-1.5-0.9l-1,0.6v1.2h-0.9v-0.7l-0.6,0.3v2.5h-0.9v-2l-0.7,0.4v1.2H220v-0.7
					l-0.8,0.5l-0.5-0.8l0.8-0.5l-0.6-0.3l0.5-0.8l1,0.6l0.7-0.4l-1.8-1l0.5-0.8l2.2,1.3l0.6-0.3l-0.6-0.3l0.5-0.8l1,0.6l0.8-0.5
					v-1.9l-0.8-0.5l-1.1,0.6l-0.5-0.8l0.6-0.4l-0.6-0.3l-2.2,1.2l-0.5-0.8l1.7-1l-0.7-0.4l-1.1,0.6l-0.5-0.8l0.6-0.4l-0.8-0.5
					l0.5-0.8l0.8,0.5v-0.6h0.9v1.2l0.7,0.4v-2h0.9v2.5l0.6,0.3v-0.7h0.9v1.2l0.7,0.4l1.8-1v-0.8l-1.1-0.6l0.5-0.8l0.6,0.4v-0.7
					l-2.2-1.2l0.5-0.8l1.7,1v-0.8l-1.1-0.6l0.5-0.8l0.6,0.4v-1h0.9v1l0.6-0.3l0.5,0.8l-1,0.6v0.8l1.8-1l0.5,0.8l-2.2,1.3v0.6
					l0.6-0.3l0.5,0.8l-1,0.6v0.8l1.8,1l0.7-0.4v-1.2h0.9v0.7l0.6-0.3v-2.5h0.9v2l0.7-0.4v-1.2h0.9v0.7l0.8-0.5l0.5,0.8l-0.8,0.5
					l0.6,0.3l-0.5,0.8l-1-0.6l-0.7,0.4l1.7,1l-0.5,0.8l-2.2-1.3l-0.6,0.3l0.6,0.3l-0.5,0.8l-1-0.6l-0.8,0.4v1.9l0.8,0.5l1.1-0.6
					l0.5,0.8l-0.6,0.4l0.6,0.3l2.2-1.2l0.5,0.8l-1.7,1l0.7,0.4l1.1-0.6l0.5,0.8l-0.6,0.4l0.8,0.5l-0.5,0.8l-0.8-0.5v0.6H233.1z
					 M228.5-168.8v-1.8l-1.6-0.9l-1.5,0.9v1.8l1.5,0.9l0,0L228.5-168.8z"/>
			</g>
			<g>
				<path class="st1" d="M234.6-88.3h1.7v0.7h-1.7l1.2,1.1l-0.5,0.6l-1.8-1.7h-0.6l0.4,0.6l-0.6,0.4l-0.7-1h-1.1l2.5,2.2l-3.4-0.2
					l1,1l2,0.1l0,0.6l-1.3-0.1l1,1l-0.4,0.4l-1-1l0.1,1.3l-0.6,0l-0.1-2l-1-1l0.2,3.4l-2.2-2.4v1.1l1,0.7l-0.4,0.6l-0.6-0.4v0.6
					l1.7,1.8l-0.6,0.5l-1.1-1.2v1.7h-0.8v-1.7l-1.1,1.2l-0.6-0.5l1.7-1.8v-0.6l-0.6,0.4l-0.4-0.6l1-0.7v-1.1l-2.2,2.4l0.2-3.4l-1,1
					l-0.1,2l-0.6,0l0.1-1.3l-1,1l-0.4-0.4l1-1l-1.3,0.1l0-0.6l2-0.1l1-1l-3.4,0.2l2.5-2.2h-1.1l-0.7,1l-0.6-0.4l0.4-0.6h-0.6
					l-1.8,1.7l-0.5-0.6l1.2-1.1h-1.7v-0.7h1.7l-1.2-1.1l0.5-0.6l1.8,1.7h0.6l-0.4-0.6l0.6-0.4l0.7,1h1.1l-2.5-2.2l3.4,0.2l-1-1
					l-2-0.1l0-0.6l1.3,0.1l-1-1l0.4-0.4l1,1l-0.1-1.3l0.6,0l0.1,2l1,1l-0.2-3.4l2.2,2.4v-1.1l-1-0.7l0.4-0.6l0.6,0.4v-0.6l-1.7-1.8
					l0.6-0.5l1.1,1.2v-1.7h0.8v1.7l1.1-1.2l0.6,0.5l-1.7,1.8v0.6l0.6-0.4l0.4,0.6l-1,0.7v1.1l2.2-2.4l-0.2,3.4l1-1l0.1-2l0.6,0
					l-0.1,1.3l1-1l0.4,0.4l-1,1l1.3-0.1l0,0.6l-2,0.1l-1,1l3.4-0.2l-2.5,2.2h1.1l0.7-1l0.6,0.4l-0.4,0.6h0.6l1.8-1.7l0.5,0.6
					L234.6-88.3z M229-89.4l-1.1,1.1h1.7l1.3-1.2l0,0L229-89.4z M227.5-90.4v1.6l1.1-1.1l0.1-1.9l0,0L227.5-90.4z M225.6-89.8
					l1.1,1.1v-1.6l-1.2-1.3l0,0L225.6-89.8z M224.6-88.3h1.7l-1.1-1.1l-1.9-0.1l0,0L224.6-88.3z M225.2-86.5l1.1-1.1h-1.7l-1.3,1.2
					l0,0L225.2-86.5z M226.7-85.5v-1.6l-1.1,1.1l-0.1,1.9l0,0L226.7-85.5z M228.5-86.1l-1.1-1.1v1.6l1.2,1.3l0,0L228.5-86.1z
					 M229.5-87.6h-1.7l1.1,1.1l1.9,0.1l0,0L229.5-87.6z"/>
			</g>
		</g>
		<g>
			<g>
				<path class="st1" d="M175.7-129.5h1.7v0.7h-1.7l1.2,1.1l-0.5,0.6l-1.8-1.7H172l2.5,2.2l-3.3-0.2l1.8,1.8l2.5,0.1l0,0.7l-1.7-0.1
					l1.2,1.2l-0.5,0.5l-1.2-1.2l0.1,1.6l-0.8,0l-0.1-2.5l-1.8-1.8l0.2,3.3l-2.2-2.4v2.6l1.7,1.8l-0.6,0.5l-1.1-1.2v1.7h-0.8v-1.7
					l-1.1,1.2l-0.6-0.5l1.7-1.8v-2.6l-2.2,2.4l0.2-3.3l-1.8,1.8l-0.1,2.5l-0.8,0l0.1-1.6l-1.2,1.2l-0.5-0.5l1.2-1.2l-1.7,0.1l0-0.7
					l2.5-0.1l1.8-1.8l-3.3,0.2l2.5-2.2h-2.6l-1.8,1.7l-0.5-0.6l1.2-1.1H159v-0.7h1.7l-1.2-1.1l0.5-0.5l1.8,1.7h2.6l-2.5-2.2l3.3,0.2
					l-1.8-1.8l-2.5-0.1l0-0.7l1.7,0.1l-1.2-1.2l0.5-0.5l1.2,1.2l-0.1-1.6l0.8,0l0.1,2.5l1.8,1.8l-0.2-3.3l2.2,2.4v-2.6l-1.7-1.8
					l0.6-0.5l1.1,1.2v-1.7h0.8v1.7l1.1-1.2l0.6,0.5l-1.7,1.8v2.6l2.2-2.4l-0.2,3.3l1.8-1.8l0.1-2.5l0.7,0l-0.1,1.6l1.2-1.2l0.5,0.5
					l-1.2,1.2l1.7-0.1l0,0.7l-2.5,0.1l-1.8,1.8l3.3-0.2l-2.5,2.2h2.6l1.8-1.7l0.5,0.6L175.7-129.5z M170.2-130.6l-1.1,1.1h1.6
					l1.3-1.2l0,0L170.2-130.6z M168.6-131.6v1.5l1.1-1.1l0.1-1.7l0,0L168.6-131.6z M166.7-131.2l1.1,1.1v-1.5l-1.2-1.3l0,0
					L166.7-131.2z M165.7-129.5h1.6l-1.1-1.1l-1.8-0.1l0,0L165.7-129.5z M166.2-127.7l1.1-1.1h-1.5l-1.3,1.2l0,0L166.2-127.7z
					 M167.8-126.7v-1.5l-1.1,1.1l-0.1,1.7l0,0L167.8-126.7z M169.7-127.2l-1.1-1.1v1.5l1.2,1.3l0,0L169.7-127.2z M170.7-128.8h-1.5
					l1.1,1.1l1.8,0.1l0,0L170.7-128.8z"/>
				<path class="st1" d="M133.8-126l1.9,1.1l-0.4,0.6l-1.9-1.1l0.2,1.5l-0.7,0.1l-0.3-2.1l-0.5-0.3l0.3,2.4l-0.7,0.1l-0.3-2.9
					l-0.4-0.2l-1.7-0.2l0.5,0.8l1.2,0.1l-0.1,0.7l-0.7-0.1l0.5,0.9l-0.7,0.4l-0.5-0.9l-0.3,0.6l-0.7-0.3l0.5-1.1l-0.5-0.8l-0.7,1.5
					v0.4l2.4,1.7l-0.5,0.6l-1.9-1.4v0.6l1.7,1.3l-0.5,0.6l-1.3-0.9v2.2h-0.8v-2.2l-1.2,0.9l-0.5-0.6l1.7-1.3v-0.6l-1.9,1.4l-0.4-0.6
					l2.4-1.7v-0.4l-0.7-1.6l-0.5,0.8l0.5,1.1l-0.7,0.3l-0.3-0.6l-0.5,0.9l-0.7-0.4l0.5-0.9l-0.7,0.1l-0.1-0.7l1.2-0.1l0.4-0.8
					l-1.7,0.2l-0.3,0.2l-0.3,2.9l-0.7-0.1l0.3-2.4l-0.5,0.3l-0.3,2.1l-0.7-0.1l0.2-1.5l-1.9,1.1l-0.4-0.6l1.9-1.1l-1.4-0.6l0.3-0.7
					l1.9,0.8l0.5-0.3l-2.2-0.9l0.3-0.7l2.7,1.2l0.3-0.2l1-1.4h-0.9l-0.7,1l-0.6-0.4l0.4-0.5h-1.1v-0.7h1.1l-0.4-0.5l0.6-0.4l0.7,1
					h0.9l-1-1.4l-0.3-0.2l-2.7,1.2l-0.3-0.7l2.2-1l-0.5-0.3l-1.9,0.8l-0.3-0.7l1.4-0.6l-1.9-1.1l0.4-0.6l1.9,1.1l-0.2-1.5l0.7-0.1
					l0.2,2.1l0.5,0.3l-0.3-2.3l0.7-0.1l0.3,2.9l0.3,0.2l1.7,0.2l-0.5-0.8l-1.2-0.1l0.1-0.7l0.7,0.1l-0.5-0.9l0.6-0.4l0.5,0.9
					l0.3-0.6l0.7,0.3l-0.5,1.1l0.5,0.8l0.7-1.6v-0.4l-2.4-1.7l0.4-0.6l1.9,1.4v-0.6l-1.7-1.3l0.5-0.6l1.2,0.9v-2.2h0.8v2.2l1.3-0.9
					l0.5,0.6l-1.7,1.3v0.6l1.9-1.4l0.5,0.6l-2.4,1.7v0.4l0.7,1.5l0.5-0.8l-0.5-1.1l0.7-0.3l0.3,0.6l0.5-0.9l0.7,0.4l-0.5,0.9
					l0.7-0.1l0.1,0.7l-1.2,0.1l-0.5,0.8l1.7-0.2l0.4-0.2l0.3-2.9l0.7,0.1l-0.3,2.3l0.5-0.3l0.2-2.1l0.7,0.1l-0.2,1.5l1.9-1.1
					l0.4,0.6l-1.9,1.1l1.4,0.6l-0.3,0.7l-1.9-0.8l-0.5,0.3l2.2,1l-0.3,0.7l-2.7-1.2l-0.4,0.2l-1,1.4h0.9l0.7-1l0.6,0.4l-0.4,0.5h1.1
					v0.7h-1.1l0.4,0.5l-0.6,0.4l-0.7-1h-0.9l1,1.4l0.4,0.2l2.7-1.2l0.3,0.7l-2.2,1l0.5,0.3l1.9-0.8l0.3,0.7L133.8-126z M128.3-127.8
					l1.9,0.2l-1.2-1.6l1.2-1.6l-1.9,0.2l-0.8-1.8l-0.8,1.8l-1.9-0.2l1.2,1.6l-1.2,1.6l1.9-0.2l0.8,1.8l0,0L128.3-127.8z"/>
				<path class="st1" d="M77.5-129.6h1.7l-1.2-1.1l0.5-0.5l1.8,1.6h0.6l-0.4-0.6l0.6-0.4l0.7,1h0.4v-1.5l1.1-1.1l-0.3-0.3l-1.2,0.2
					l-0.2-0.7l0.7-0.1l-0.4-0.4l-2.5-0.1l0-0.7l1.7,0.1l-1.2-1.2l0.5-0.5l1.2,1.2l-0.1-1.6l0.8,0l0.1,2.5l0.4,0.4l0.2-0.7l0.7,0.1
					l-0.3,1.2l0.3,0.3l1.1-1.1h1.5v-0.4l-1-0.7l0.4-0.6l0.6,0.4v-0.6l-1.7-1.8l0.6-0.5l1.1,1.2v-1.7h0.8v1.7l1.1-1.2l0.6,0.5
					l-1.7,1.8v0.6l0.6-0.4l0.4,0.6l-1,0.7v0.4h1.5l1.1,1.1l0.3-0.3l-0.3-1.2l0.7-0.2l0.2,0.7l0.4-0.4l0.1-2.5l0.7,0l-0.1,1.6
					l1.2-1.2l0.5,0.5l-1.2,1.2l1.7-0.1l0,0.7l-2.5,0.1l-0.4,0.4l0.7,0.2l-0.2,0.7l-1.2-0.2l-0.3,0.3l1.1,1.1v1.5h0.4l0.7-1l0.6,0.4
					l-0.4,0.6h0.6l1.8-1.6l0.5,0.5l-1.2,1.1H96v0.7h-1.7l1.2,1.1l-0.5,0.5l-1.8-1.7h-0.6l0.4,0.6l-0.6,0.4l-0.7-1h-0.4v1.5l-1.1,1.1
					l0.3,0.3l1.2-0.2l0.2,0.7l-0.7,0.1l0.4,0.4l2.5,0.1l0,0.7l-1.7-0.1l1.2,1.2l-0.5,0.5l-1.2-1.2l0.1,1.6l-0.8,0l-0.1-2.5l-0.4-0.4
					l-0.2,0.7l-0.7-0.1l0.3-1.2l-0.3-0.3l-1.1,1.1h-1.5v0.4l1,0.7l-0.4,0.6l-0.6-0.4v0.6l1.7,1.8l-0.6,0.5l-1.1-1.2v1.7h-0.8v-1.7
					l-1.1,1.2l-0.6-0.5l1.7-1.8v-0.6l-0.6,0.4l-0.4-0.6l1-0.7v-0.4h-1.5l-1.1-1.1l-0.3,0.3l0.2,1.2l-0.7,0.1l-0.2-0.7l-0.4,0.4
					l-0.1,2.5l-0.8,0l0.1-1.6l-1.2,1.2l-0.5-0.5l1.2-1.2l-1.7,0.1l0-0.7l2.5-0.1l0.4-0.4l-0.7-0.1l0.2-0.7L83-126l0.3-0.3l-1.1-1.1
					v-1.5h-0.4l-0.7,1l-0.6-0.4l0.4-0.6h-0.6l-1.8,1.7l-0.5-0.5l1.2-1.1h-1.7V-129.6z M83.8-126.8l0.9-0.9l-0.5-0.5v-0.6h-1.3v1.2
					l0,0L83.8-126.8z M86-127.5h1.4l1-1v-1.4l-1-1H86l-1,1v1.4l0,0L86-127.5z M86.4-125.4v-1.3h-0.6l-0.5-0.5l-1,0.9l0.9,0.8l0,0
					H86.4z M89.2-126.2l-1-0.9l-0.5,0.5h-0.7v1.3h1.2l0,0L89.2-126.2z M90.5-128.8h-1.3v0.6l-0.5,0.5l1,0.9l0.8-0.8l0,0V-128.8z
					 M89.7-131.6l-0.9,0.9l0.5,0.5v0.6h1.3v-1.2l0,0L89.7-131.6z M87.1-133v1.3h0.7l0.5,0.4l0.9-0.9l-0.8-0.8l0,0H87.1z M84.3-132.1
					l0.9,0.9l0.5-0.5h0.6v-1.3h-1.2l0,0L84.3-132.1z M82.9-129.6h1.3v-0.6l0.5-0.4l-0.9-0.9l-0.9,0.8l0,0V-129.6z"/>
			</g>
			<g>
				<path class="st1" d="M113.1-164.4v-1.2l-0.7-0.4v2h-0.9v-2.5l-0.6-0.3v0.7h-0.9v-1.2l-0.9-0.5l-1.6,0.9v1.1l1.1,0.6l-0.5,0.8
					l-0.6-0.4v0.7l2.2,1.2l-0.5,0.8l-1.7-1v0.8l1.1,0.6l-0.5,0.8l-0.6-0.4v1h-0.9v-1L106-161l-0.5-0.8l1-0.6v-0.8l-1.7,1l-0.5-0.8
					l2.2-1.3v-0.6l-0.6,0.3l-0.5-0.8l1-0.6v-1.1l-1.5-0.9l-1,0.6v1.2h-0.9v-0.7l-0.6,0.3v2.5h-0.9v-2l-0.7,0.4v1.2H100v-0.7
					l-0.8,0.5l-0.5-0.8l0.8-0.5l-0.6-0.3l0.5-0.8l1,0.6l0.7-0.4l-1.8-1l0.5-0.8l2.2,1.3l0.6-0.3l-0.6-0.3l0.5-0.8l1,0.6l0.8-0.5
					v-1.9l-0.8-0.5l-1.1,0.6l-0.5-0.8l0.6-0.4l-0.6-0.3l-2.2,1.2l-0.5-0.8l1.7-1l-0.7-0.4l-1.1,0.6l-0.5-0.8l0.6-0.4l-0.8-0.5
					l0.5-0.8l0.8,0.5v-0.6h0.9v1.2l0.7,0.4v-2h0.9v2.5l0.6,0.3v-0.7h0.9v1.2l0.7,0.4l1.8-1v-0.8l-1.1-0.6l0.5-0.8l0.6,0.4v-0.7
					l-2.2-1.2l0.5-0.8l1.7,1v-0.8l-1.1-0.6l0.5-0.8l0.6,0.4v-1h0.9v1l0.6-0.3l0.5,0.8l-1,0.6v0.8l1.8-1l0.5,0.8l-2.2,1.3v0.6
					l0.6-0.3l0.5,0.8l-1,0.6v0.8l1.8,1l0.7-0.4v-1.2h0.9v0.7l0.6-0.3v-2.5h0.9v2l0.7-0.4v-1.2h0.9v0.7l0.8-0.5l0.5,0.8l-0.8,0.5
					l0.6,0.3l-0.5,0.8l-1-0.6l-0.7,0.4l1.7,1l-0.5,0.8l-2.2-1.3l-0.6,0.3l0.6,0.3l-0.5,0.8l-1-0.6l-0.8,0.4v1.9l0.8,0.5l1.1-0.6
					l0.5,0.8l-0.6,0.4l0.6,0.3l2.2-1.2l0.5,0.8l-1.7,1l0.7,0.4l1.1-0.6l0.5,0.8l-0.6,0.4l0.8,0.5l-0.5,0.8l-0.8-0.5v0.6H113.1z
					 M108.5-168.8v-1.8l-1.6-0.9l-1.5,0.9v1.8l1.5,0.9l0,0L108.5-168.8z"/>
				<path class="st1" d="M197.6-167.5l-1.9,1.1l1.7,1l-0.5,0.9l-1.8-1v2.2h-1v-2.8l-0.6-0.4v0.7h-1v-1.3l-1-0.6l-1.8,1.1v1.2
					l1.2,0.7l-0.5,0.9l-0.7-0.4v0.7l2.4,1.4l-0.5,0.9l-1.9-1.1v2h-1v-2l-1.9,1.1l-0.5-0.9l2.4-1.4v-0.7l-0.6,0.4l-0.5-0.9l1.1-0.6
					v-1.2l-1.8-1.1l-1.1,0.6v1.4h-1v-0.8l-0.6,0.4v2.7h-1v-2.2l-1.7,1l-0.5-0.9l1.8-1l-1.9-1.1l0.5-0.9l2.4,1.4l0.6-0.4l-0.6-0.4
					l0.5-0.9l1.1,0.6l1-0.6v-2.1l-1.1-0.6l-1.2,0.7l-0.5-0.9l0.7-0.4l-0.6-0.4l-2.4,1.4l-0.5-0.9l1.9-1.1l-1.7-1l0.5-0.9l1.8,1v-2.2
					h1v2.8l0.6,0.4v-0.7h1v1.3l1,0.6l1.9-1.1v-1.2l-1.2-0.7l0.5-0.9l0.7,0.4v-0.7l-2.4-1.4l0.5-0.9l1.9,1.1v-2h1v2l1.9-1.1l0.5,0.9
					l-2.4,1.4v0.7l0.6-0.4l0.5,0.9l-1.1,0.6v1.1l1.9,1.1l1-0.6v-1.4h1v0.8l0.6-0.4v-2.7h1v2.2l1.8-1l0.5,0.9l-1.8,1l1.9,1.1
					l-0.5,0.9l-2.4-1.4l-0.6,0.4l0.6,0.4l-0.5,0.9l-1.1-0.6l-1,0.6v2.1l1,0.6l1.2-0.7l0.5,0.9l-0.7,0.4l0.6,0.4l2.4-1.4L197.6-167.5
					z M190.8-168.6v-2l-1.7-1l-1.7,1v2l1.7,1l0,0L190.8-168.6z"/>
				<path class="st1" d="M154.7-175l1.4,0.8v1.6l-1.4,0.8l-1-0.6l-0.8,0.5l1.7,0.9l-0.4,0.8l-2.1-1.2l-0.6,0.3l0.6,0.3l-0.4,0.7
					l-1-0.6l-0.5,0.3v1.3l0.4,0.2l1-0.6l0.4,0.8l-0.5,0.3l0.5,0.3l2.1-1.2l0.4,0.7l-1.7,1l0.8,0.5l1-0.6l1.4,0.8v1.6l-1.4,0.8
					l-1.4-0.8v-1.1l-0.8-0.5v1.9h-0.9v-2.4l-0.6-0.3v0.7h-0.9v-1.2l-0.6-0.3l-1,0.6v0.6l1,0.6l-0.4,0.8l-0.5-0.3v0.6l2.1,1.2
					l-0.4,0.7l-1.7-1v1l1,0.6v1.6l-1.4,0.8l-1.4-0.8v-1.6l1-0.6v-1l-1.7,0.9l-0.4-0.7l2.1-1.2v-0.6l-0.6,0.3l-0.4-0.8l1-0.6v-0.7
					l-1-0.6l-0.5,0.3v1.1h-0.9v-0.6l-0.5,0.3v2.4h-0.9v-1.9l-0.8,0.5v1.2l-1.4,0.8L140-165v-1.6l1.4-0.8l1,0.6l0.8-0.5l-1.7-0.9
					l0.4-0.7l2.1,1.2l0.6-0.3l-0.6-0.3l0.4-0.7l1,0.6l0.5-0.3v-1.3l-0.5-0.3l-1,0.6l-0.4-0.7l0.6-0.3l-0.5-0.3l-2.1,1.2l-0.4-0.7
					l1.7-1l-0.8-0.5l-1,0.6l-1.4-0.8v-1.6l1.4-0.8l1.4,0.8v1.1l0.8,0.5v-1.9h0.9v2.4l0.6,0.3v-0.7h0.9v1.2l0.4,0.2l1.2-0.7v-0.4
					l-1-0.6l0.4-0.8l0.6,0.3v-0.6l-2.1-1.2l0.4-0.7l1.7,1v-1l-1-0.6v-1.6l1.4-0.8l1.4,0.8v1.6l-1,0.6v1l1.7-0.9l0.4,0.7l-2.1,1.2
					v0.6l0.6-0.3l0.4,0.7l-1,0.6v0.4l1.2,0.7l0.4-0.2v-1.1h0.9v0.6l0.5-0.3v-2.4h0.9v1.9l0.9-0.5v-1.2L154.7-175z M154.7-172.4
					l0.8-0.4v-0.9l-0.8-0.4l-0.8,0.4v0.9l0,0L154.7-172.4z M153.9-165.3l0.8,0.4l0.8-0.4v-0.9l-0.8-0.4l-0.8,0.4l0,0V-165.3z
					 M147.3-162.4v0.9l0.8,0.4l0.8-0.4v-0.9l-0.8-0.4l0,0L147.3-162.4z M141.4-166.7l-0.8,0.4v0.9l0.8,0.4l0.8-0.4v-0.9l0,0
					L141.4-166.7z M142.2-173.8l-0.8-0.4l-0.8,0.4v0.9l0.8,0.4l0.8-0.4l0,0V-173.8z M148.8-176.7v-0.9l-0.8-0.4l-0.8,0.4v0.9
					l0.8,0.4l0,0L148.8-176.7z M148.1-171l-1.2,0.7v1.4l1.2,0.7l1.2-0.7v-1.4l0,0L148.1-171z"/>
			</g>
			<g>
				<path class="st1" d="M114.6-88.3h1.7v0.7h-1.7l1.2,1.1l-0.5,0.6l-1.8-1.7h-0.6l0.4,0.6l-0.6,0.4l-0.7-1h-1.1l2.5,2.2l-3.4-0.2
					l1,1l2,0.1l0,0.6l-1.3-0.1l1,1l-0.4,0.4l-1-1l0.1,1.3l-0.6,0l-0.1-2l-1-1l0.2,3.4l-2.2-2.4v1.1l1,0.7l-0.4,0.6l-0.6-0.4v0.6
					l1.7,1.8l-0.6,0.5l-1.1-1.2v1.7h-0.8v-1.7l-1.1,1.2l-0.6-0.5l1.7-1.8v-0.6l-0.6,0.4l-0.4-0.6l1-0.7v-1.1l-2.2,2.4l0.2-3.4l-1,1
					l-0.1,2l-0.6,0l0.1-1.3l-1,1l-0.4-0.4l1-1l-1.3,0.1l0-0.6l2-0.1l1-1l-3.4,0.2l2.5-2.2h-1.1l-0.7,1l-0.6-0.4l0.4-0.6h-0.6
					l-1.8,1.7l-0.5-0.6l1.2-1.1h-1.7v-0.7h1.7l-1.2-1.1l0.5-0.6l1.8,1.7h0.6l-0.4-0.6l0.6-0.4l0.7,1h1.1l-2.5-2.2l3.4,0.2l-1-1
					l-2-0.1l0-0.6l1.3,0.1l-1-1l0.4-0.4l1,1l-0.1-1.3l0.6,0l0.1,2l1,1l-0.2-3.4l2.2,2.4v-1.1l-1-0.7l0.4-0.6l0.6,0.4v-0.6l-1.7-1.8
					l0.6-0.5l1.1,1.2v-1.7h0.8v1.7l1.1-1.2l0.6,0.5l-1.7,1.8v0.6l0.6-0.4l0.4,0.6l-1,0.7v1.1l2.2-2.4l-0.2,3.4l1-1l0.1-2l0.6,0
					l-0.1,1.3l1-1l0.4,0.4l-1,1l1.3-0.1l0,0.6l-2,0.1l-1,1l3.4-0.2l-2.5,2.2h1.1l0.7-1l0.6,0.4l-0.4,0.6h0.6l1.8-1.7l0.5,0.6
					L114.6-88.3z M109-89.4l-1.1,1.1h1.7l1.3-1.2l0,0L109-89.4z M107.5-90.4v1.6l1.1-1.1l0.1-1.9l0,0L107.5-90.4z M105.6-89.8
					l1.1,1.1v-1.6l-1.2-1.3l0,0L105.6-89.8z M104.6-88.3h1.7l-1.1-1.1l-1.9-0.1l0,0L104.6-88.3z M105.2-86.5l1.1-1.1h-1.7l-1.3,1.2
					l0,0L105.2-86.5z M106.7-85.5v-1.6l-1.1,1.1l-0.1,1.9l0,0L106.7-85.5z M108.5-86.1l-1.1-1.1v1.6l1.2,1.3l0,0L108.5-86.1z
					 M109.5-87.6h-1.7l1.1,1.1l1.9,0.1l0,0L109.5-87.6z"/>
				<path class="st1" d="M154.2-84.7l1.9,1.1l-0.4,0.6l-1.9-1.1l0.2,1.5l-0.7,0.1l-0.3-2.1l-0.5-0.3l0.3,2.4l-0.8,0.1l-0.3-2.9
					l-0.4-0.2l-1.7-0.2l0.5,0.8l1.2,0.1l-0.1,0.7l-0.7-0.1l0.5,0.9l-0.6,0.4l-0.5-0.9l-0.3,0.6l-0.7-0.3l0.5-1.1l-0.5-0.8l-0.7,1.5
					v0.4l2.4,1.7l-0.5,0.6l-1.9-1.4v0.6l1.7,1.3l-0.5,0.6l-1.2-0.9v2.2h-0.8v-2.2l-1.2,0.9l-0.5-0.6l1.7-1.3v-0.6l-1.9,1.4l-0.4-0.6
					l2.4-1.7v-0.4l-0.7-1.6l-0.4,0.8l0.5,1.1l-0.7,0.3l-0.3-0.6l-0.5,0.9l-0.7-0.4l0.5-0.9l-0.7,0.1l-0.1-0.7l1.2-0.1l0.4-0.8
					l-1.7,0.2l-0.3,0.2l-0.3,2.9l-0.7-0.1l0.3-2.4l-0.5,0.3l-0.2,2.1l-0.7-0.1l0.2-1.5l-1.9,1.1l-0.4-0.6l1.9-1.1l-1.4-0.6l0.3-0.7
					l1.9,0.8l0.5-0.3l-2.2-0.9l0.3-0.7l2.7,1.2l0.3-0.2l1-1.4h-0.9l-0.7,1l-0.6-0.4l0.4-0.5h-1.1v-0.7h1.1l-0.4-0.5l0.6-0.4l0.7,1
					h0.9l-1-1.4l-0.3-0.2l-2.7,1.2l-0.3-0.7l2.2-1l-0.5-0.3l-1.9,0.8l-0.3-0.7l1.4-0.6l-1.9-1.1l0.4-0.6l1.9,1.1l-0.2-1.5l0.8-0.1
					l0.2,2.1l0.5,0.3l-0.3-2.3l0.8-0.1l0.3,2.9l0.3,0.2l1.7,0.2l-0.5-0.8l-1.2-0.1l0.1-0.7l0.7,0.1l-0.5-0.9l0.7-0.4l0.5,0.9
					l0.3-0.6l0.7,0.3l-0.5,1.1l0.5,0.8l0.7-1.6v-0.4l-2.4-1.7l0.4-0.6l1.9,1.4V-94l-1.7-1.3l0.5-0.6l1.2,0.9v-2.2h0.8v2.2l1.2-0.9
					l0.5,0.6l-1.7,1.3v0.6l1.9-1.4l0.5,0.6l-2.4,1.7v0.4l0.7,1.5l0.5-0.8l-0.5-1.1l0.7-0.3l0.3,0.6l0.5-0.9l0.7,0.4l-0.5,0.9
					l0.7-0.1l0.1,0.7l-1.2,0.1l-0.5,0.8l1.7-0.2l0.4-0.2l0.3-2.9l0.7,0.1l-0.3,2.3l0.5-0.3l0.3-2.1l0.7,0.1l-0.2,1.5l1.9-1.1
					l0.4,0.6l-1.9,1.1l1.4,0.6l-0.3,0.7l-1.9-0.8l-0.5,0.3l2.2,1l-0.3,0.7l-2.7-1.2l-0.4,0.2l-1,1.4h0.9l0.7-1l0.6,0.4l-0.4,0.5h1.1
					v0.7h-1.1L153-87l-0.6,0.4l-0.7-1h-0.9l1,1.4l0.4,0.2l2.7-1.2l0.3,0.7l-2.2,0.9l0.5,0.3l1.9-0.8l0.3,0.7L154.2-84.7z
					 M148.7-86.6l1.9,0.2l-1.2-1.6l1.2-1.6l-1.9,0.2l-0.8-1.8l-0.8,1.8l-1.9-0.2l1.2,1.6l-1.2,1.6l1.9-0.2l0.8,1.8l0,0L148.7-86.6z"
					/>
				<path class="st1" d="M193.5-91.3c-0.2,0.1-0.4,0.3-0.7,0.4c0.3,0.1,0.7,0.2,1.1,0.4c0.8,0.4,1.4,0.7,1.4,0.8
					c0,0.1-0.7-0.1-1.6-0.4c-0.5-0.2-1-0.5-1.2-0.6c-0.2,0.1-0.4,0.3-0.7,0.4c0.2,0.1,0.3,0.1,0.5,0.3c0.5,0.3,0.8,0.6,0.7,0.7
					c-0.1,0.1-0.5,0-1-0.3c-0.3-0.2-0.5-0.3-0.6-0.5c-0.3,0.2-0.6,0.4-0.9,0.5l1.8,0.8l-1.8,0.8c0.3,0.2,0.6,0.4,0.9,0.5
					c0.1-0.1,0.3-0.3,0.6-0.5c0.5-0.3,0.9-0.4,1-0.3c0.1,0.1-0.3,0.4-0.7,0.7c-0.2,0.1-0.4,0.2-0.5,0.3c0.2,0.1,0.5,0.3,0.7,0.4
					c0.2-0.2,0.7-0.4,1.2-0.6c0.8-0.4,1.5-0.5,1.6-0.4c0.1,0.1-0.6,0.5-1.4,0.8c-0.4,0.2-0.8,0.3-1.1,0.4c0.2,0.1,0.5,0.3,0.7,0.4
					l1.7-0.6l2.4,3.1l-3.9-0.5l-0.4-1.7c-0.2-0.1-0.5-0.2-0.7-0.4c0.1,0.3,0.2,0.7,0.2,1.2c0.1,0.9,0.1,1.6,0,1.6
					c-0.1,0-0.3-0.7-0.4-1.5c-0.1-0.6-0.1-1.1,0-1.4c-0.2-0.1-0.5-0.2-0.7-0.4c0,0.2,0,0.4,0,0.6c0,0.5-0.1,1-0.2,1
					c-0.1,0-0.2-0.4-0.2-1c0-0.3,0-0.6,0.1-0.8c-0.3-0.2-0.6-0.3-0.9-0.5l0.2,1.9l-1.5-1.1c0,0.4,0,0.7,0,1.1c0.2,0,0.5,0.1,0.7,0.3
					c0.5,0.3,0.8,0.6,0.8,0.7c-0.1,0.1-0.5,0-1-0.3c-0.2-0.1-0.4-0.2-0.5-0.3c0,0.3,0,0.5,0,0.8c0.3,0.1,0.7,0.4,1.2,0.7
					c0.7,0.5,1.2,1,1.1,1.1c-0.1,0.1-0.7-0.2-1.4-0.8c-0.4-0.3-0.7-0.6-0.9-0.8c0,0.3,0,0.5,0,0.8l1.3,1.2l-1.5,3.6l-1.5-3.6
					l1.3-1.2c0-0.2,0-0.5,0-0.8c-0.2,0.2-0.5,0.5-0.9,0.8c-0.7,0.5-1.4,0.9-1.4,0.8c-0.1-0.1,0.5-0.6,1.2-1.1
					c0.5-0.3,0.9-0.6,1.2-0.7c0-0.2,0-0.5,0-0.8c-0.1,0.1-0.3,0.2-0.5,0.3c-0.5,0.3-0.9,0.4-1,0.3c-0.1-0.1,0.3-0.4,0.8-0.7
					c0.3-0.2,0.5-0.3,0.7-0.3c0-0.3,0-0.7,0-1.1l-1.5,1.1l0.2-1.9c-0.3,0.2-0.6,0.3-0.9,0.5c0,0.2,0.1,0.5,0.1,0.8
					c0,0.5-0.1,1-0.2,1c-0.1,0-0.2-0.4-0.2-1c0-0.2,0-0.4,0-0.6c-0.2,0.1-0.5,0.3-0.7,0.4c0,0.3,0,0.8,0,1.4
					c-0.1,0.9-0.3,1.6-0.4,1.5c-0.1,0-0.1-0.7,0-1.6c0.1-0.5,0.1-0.9,0.2-1.2c-0.2,0.1-0.5,0.3-0.7,0.4l-0.4,1.7l-3.9,0.5l2.4-3.1
					l1.7,0.5c0.2-0.1,0.4-0.3,0.7-0.4c-0.3-0.1-0.7-0.2-1.1-0.4c-0.8-0.4-1.4-0.7-1.4-0.8c0.1-0.1,0.8,0.1,1.6,0.4
					c0.5,0.2,1,0.5,1.2,0.6c0.2-0.1,0.4-0.3,0.7-0.4c-0.2-0.1-0.3-0.1-0.5-0.3c-0.5-0.3-0.8-0.6-0.8-0.7c0.1-0.1,0.5,0,1,0.3
					c0.3,0.2,0.5,0.3,0.6,0.5c0.3-0.2,0.6-0.4,0.9-0.5l-1.7-0.8l1.7-0.8c-0.3-0.2-0.6-0.4-0.9-0.5c-0.1,0.1-0.4,0.3-0.6,0.5
					c-0.5,0.3-0.9,0.4-1,0.3c-0.1-0.1,0.3-0.4,0.8-0.7c0.2-0.1,0.4-0.2,0.5-0.3c-0.2-0.1-0.5-0.3-0.7-0.4c-0.2,0.2-0.7,0.4-1.2,0.6
					c-0.8,0.4-1.5,0.5-1.6,0.4c0-0.1,0.6-0.5,1.4-0.8c0.4-0.2,0.8-0.3,1.1-0.4c-0.2-0.1-0.5-0.3-0.7-0.4l-1.7,0.5l-2.4-3.1l3.9,0.5
					l0.4,1.7c0.2,0.1,0.5,0.2,0.7,0.4c-0.1-0.3-0.2-0.7-0.2-1.2c-0.1-0.9-0.1-1.6,0-1.6c0.1,0,0.3,0.7,0.4,1.5
					c0.1,0.6,0.1,1.1,0,1.4c0.2,0.1,0.5,0.2,0.7,0.4c0-0.2,0-0.4,0-0.6c0-0.5,0.1-1,0.2-1c0.1,0,0.2,0.4,0.2,1c0,0.3,0,0.6-0.1,0.8
					c0.3,0.2,0.6,0.3,0.9,0.5l-0.2-1.9l1.5,1.1c0-0.4,0-0.7,0-1c-0.2,0-0.4-0.2-0.7-0.3c-0.5-0.3-0.8-0.6-0.8-0.7
					c0.1-0.1,0.5,0,1,0.3c0.2,0.1,0.4,0.2,0.5,0.3c0-0.3,0-0.5,0-0.8c-0.3-0.1-0.7-0.4-1.2-0.7c-0.7-0.5-1.2-1-1.2-1.1
					c0.1-0.1,0.7,0.2,1.4,0.8c0.4,0.3,0.7,0.6,0.9,0.8c0-0.3,0-0.5,0-0.8l-1.3-1.2l1.5-3.6l1.5,3.6l-1.3,1.2c0,0.2,0,0.5,0,0.8
					c0.2-0.2,0.5-0.5,0.9-0.8c0.7-0.5,1.4-0.9,1.4-0.8c0.1,0.1-0.4,0.6-1.1,1.1c-0.5,0.4-0.9,0.6-1.2,0.7c0,0.2,0,0.5,0,0.8
					c0.1-0.1,0.3-0.2,0.5-0.3c0.5-0.3,0.9-0.4,1-0.3c0.1,0.1-0.3,0.4-0.8,0.7c-0.3,0.2-0.5,0.3-0.7,0.3c0,0.3,0,0.7,0,1l1.5-1.1
					l-0.2,1.9c0.3-0.2,0.6-0.3,0.9-0.5c-0.1-0.2-0.1-0.5-0.1-0.8c0-0.5,0.1-1,0.2-1c0.1,0,0.2,0.4,0.2,1c0,0.2,0,0.4,0,0.6
					c0.2-0.1,0.5-0.3,0.7-0.4c0-0.3,0-0.8,0-1.4c0.1-0.9,0.3-1.6,0.4-1.5c0.1,0,0.1,0.7,0,1.6c-0.1,0.5-0.1,0.9-0.2,1.2
					c0.2-0.1,0.5-0.3,0.7-0.4l0.4-1.7l3.9-0.5l-2.4,3.1L193.5-91.3z M195-91.5l1.2-1.6l-2,0.2l-0.2,1l0,0L195-91.5z M189.7-88.3
					l1.2-0.5l-1.2-0.5l0.1-1.3l-1,0.8l-1-0.8l0.1,1.3l-1.2,0.5l1.2,0.5l-0.1,1.3l1-0.7l1,0.7l0,0L189.7-88.3z M188-95.4l0.8,0.7
					l0.8-0.7l-0.8-1.8l0,0L188-95.4z M183.4-92.8l-2-0.2l1.2,1.6l1-0.3l0,0L183.4-92.8z M182.6-86.2l-1.2,1.6l2-0.2l0.2-1l0,0
					L182.6-86.2z M189.6-82.2l-0.8-0.7l-0.8,0.7l0.8,1.8l0,0L189.6-82.2z M194.2-84.8l2,0.2l-1.2-1.6l-1,0.3l0,0L194.2-84.8z"/>
			</g>
		</g>
		<g>
			<g>
				<path class="st1" d="M55.7-129.5h1.7v0.7h-1.7l1.2,1.1l-0.5,0.6l-1.8-1.7H52l2.5,2.2l-3.3-0.2l1.8,1.8l2.5,0.1l0,0.7l-1.7-0.1
					L55-123l-0.5,0.5l-1.2-1.2l0.1,1.6l-0.8,0l-0.1-2.5l-1.8-1.8l0.2,3.3l-2.2-2.4v2.6l1.7,1.8l-0.6,0.5l-1.1-1.2v1.7h-0.8v-1.7
					l-1.1,1.2l-0.6-0.5l1.7-1.8v-2.6l-2.2,2.4l0.2-3.3l-1.8,1.8l-0.1,2.5l-0.8,0l0.1-1.6l-1.2,1.2l-0.5-0.5l1.2-1.2l-1.7,0.1l0-0.7
					l2.5-0.1l1.8-1.8l-3.3,0.2l2.5-2.2h-2.6l-1.8,1.7l-0.5-0.6l1.2-1.1H39v-0.7h1.7l-1.2-1.1l0.5-0.5l1.8,1.7h2.6l-2.5-2.2l3.3,0.2
					l-1.8-1.8l-2.5-0.1l0-0.7l1.7,0.1l-1.2-1.2l0.5-0.5l1.2,1.2l-0.1-1.6l0.8,0l0.1,2.5l1.8,1.8l-0.2-3.3l2.2,2.4v-2.6l-1.7-1.8
					l0.6-0.5l1.1,1.2v-1.7h0.8v1.7l1.1-1.2l0.6,0.5l-1.7,1.8v2.6l2.2-2.4l-0.2,3.3l1.8-1.8l0.1-2.5l0.7,0l-0.1,1.6l1.2-1.2l0.5,0.5
					l-1.2,1.2l1.7-0.1l0,0.7l-2.5,0.1l-1.8,1.8l3.3-0.2l-2.5,2.2h2.6l1.8-1.7l0.5,0.6L55.7-129.5z M50.2-130.6l-1.1,1.1h1.6l1.3-1.2
					l0,0L50.2-130.6z M48.6-131.6v1.5l1.1-1.1l0.1-1.7l0,0L48.6-131.6z M46.7-131.2l1.1,1.1v-1.5l-1.2-1.3l0,0L46.7-131.2z
					 M45.7-129.5h1.6l-1.1-1.1l-1.8-0.1l0,0L45.7-129.5z M46.2-127.7l1.1-1.1h-1.5l-1.3,1.2l0,0L46.2-127.7z M47.8-126.7v-1.5
					l-1.1,1.1l-0.1,1.7l0,0L47.8-126.7z M49.7-127.2l-1.1-1.1v1.5l1.2,1.3l0,0L49.7-127.2z M50.7-128.8h-1.5l1.1,1.1l1.8,0.1l0,0
					L50.7-128.8z"/>
			</g>
			<g>
				<path class="st1" d="M77.6-167.5l-1.9,1.1l1.7,1l-0.5,0.9l-1.8-1v2.2h-1v-2.8l-0.6-0.4v0.7h-1v-1.3l-1-0.6l-1.8,1.1v1.2l1.2,0.7
					l-0.5,0.9l-0.7-0.4v0.7l2.4,1.4l-0.5,0.9l-1.9-1.1v2h-1v-2l-1.9,1.1l-0.5-0.9l2.4-1.4v-0.7l-0.6,0.4l-0.5-0.9l1.1-0.6v-1.2
					l-1.8-1.1l-1.1,0.6v1.4h-1v-0.8l-0.6,0.4v2.7h-1v-2.2l-1.7,1l-0.5-0.9l1.8-1l-1.9-1.1l0.5-0.9l2.4,1.4l0.6-0.4l-0.6-0.4l0.5-0.9
					l1.1,0.6l1-0.6v-2.1l-1.1-0.6l-1.2,0.7l-0.5-0.9l0.7-0.4l-0.6-0.4l-2.4,1.4l-0.5-0.9l1.9-1.1l-1.7-1l0.5-0.9l1.8,1v-2.2h1v2.8
					l0.6,0.4v-0.7h1v1.3l1,0.6l1.9-1.1v-1.2l-1.2-0.7l0.5-0.9l0.7,0.4v-0.7l-2.4-1.4l0.5-0.9l1.9,1.1v-2h1v2l1.9-1.1L72-177
					l-2.4,1.4v0.7l0.6-0.4l0.5,0.9l-1.1,0.6v1.1l1.9,1.1l1-0.6v-1.4h1v0.8l0.6-0.4v-2.7h1v2.2l1.8-1l0.5,0.9l-1.8,1l1.9,1.1
					l-0.5,0.9l-2.4-1.4l-0.6,0.4l0.6,0.4l-0.5,0.9l-1.1-0.6l-1,0.6v2.1l1,0.6l1.2-0.7l0.5,0.9l-0.7,0.4l0.6,0.4l2.4-1.4L77.6-167.5z
					 M70.8-168.6v-2l-1.7-1l-1.7,1v2l1.7,1l0,0L70.8-168.6z"/>
				<path class="st1" d="M34.7-175l1.4,0.8v1.6l-1.4,0.8l-1-0.6l-0.8,0.5l1.7,0.9l-0.4,0.8l-2.1-1.2l-0.6,0.3l0.6,0.3l-0.4,0.7
					l-1-0.6l-0.5,0.3v1.3l0.4,0.2l1-0.6l0.4,0.8l-0.5,0.3l0.5,0.3L34-169l0.4,0.7l-1.7,1l0.8,0.5l1-0.6l1.4,0.8v1.6l-1.4,0.8
					l-1.4-0.8v-1.1l-0.8-0.5v1.9h-0.9v-2.4l-0.6-0.3v0.7h-0.9v-1.2l-0.6-0.3l-1,0.6v0.6l1,0.6l-0.4,0.8l-0.5-0.3v0.6l2.1,1.2
					l-0.4,0.7l-1.7-1v1l1,0.6v1.6l-1.4,0.8l-1.4-0.8v-1.6l1-0.6v-1l-1.7,0.9l-0.4-0.7l2.1-1.2v-0.6l-0.6,0.3l-0.4-0.8l1-0.6v-0.7
					l-1-0.6l-0.5,0.3v1.1h-0.9v-0.6l-0.5,0.3v2.4h-0.9v-1.9l-0.8,0.5v1.2l-1.4,0.8L20-165v-1.6l1.4-0.8l1,0.6l0.8-0.5l-1.7-0.9
					L22-169l2.1,1.2l0.6-0.3l-0.6-0.3l0.4-0.7l1,0.6l0.5-0.3v-1.3l-0.5-0.3l-1,0.6l-0.4-0.7l0.6-0.3l-0.5-0.3l-2.1,1.2l-0.4-0.7
					l1.7-1l-0.8-0.5l-1,0.6l-1.4-0.8v-1.6l1.4-0.8l1.4,0.8v1.1l0.8,0.5v-1.9h0.9v2.4l0.6,0.3v-0.7H26v1.2l0.4,0.2l1.2-0.7v-0.4
					l-1-0.6l0.4-0.8l0.6,0.3v-0.6l-2.1-1.2l0.4-0.7l1.7,1v-1l-1-0.6v-1.6l1.4-0.8l1.4,0.8v1.6l-1,0.6v1l1.7-0.9l0.4,0.7l-2.1,1.2
					v0.6l0.6-0.3l0.4,0.7l-1,0.6v0.4l1.2,0.7l0.4-0.2v-1.1H31v0.6l0.5-0.3v-2.4h0.9v1.9l0.9-0.5v-1.2L34.7-175z M34.7-172.4l0.8-0.4
					v-0.9l-0.8-0.4l-0.8,0.4v0.9l0,0L34.7-172.4z M33.9-165.3l0.8,0.4l0.8-0.4v-0.9l-0.8-0.4l-0.8,0.4l0,0V-165.3z M27.3-162.4v0.9
					l0.8,0.4l0.8-0.4v-0.9l-0.8-0.4l0,0L27.3-162.4z M21.4-166.7l-0.8,0.4v0.9l0.8,0.4l0.8-0.4v-0.9l0,0L21.4-166.7z M22.2-173.8
					l-0.8-0.4l-0.8,0.4v0.9l0.8,0.4l0.8-0.4l0,0V-173.8z M28.8-176.7v-0.9l-0.8-0.4l-0.8,0.4v0.9l0.8,0.4l0,0L28.8-176.7z M28.1-171
					l-1.2,0.7v1.4l1.2,0.7l1.2-0.7v-1.4l0,0L28.1-171z"/>
			</g>
			<g>
				<path class="st1" d="M34.2-84.7l1.9,1.1L35.8-83l-1.9-1.1l0.2,1.5l-0.7,0.1l-0.3-2.1l-0.5-0.3l0.3,2.4l-0.8,0.1l-0.3-2.9
					l-0.4-0.2l-1.7-0.2l0.5,0.8l1.2,0.1l-0.1,0.7l-0.7-0.1l0.5,0.9l-0.6,0.4l-0.5-0.9l-0.3,0.6L29-83.4l0.5-1.1L29-85.3l-0.7,1.5
					v0.4l2.4,1.7L30.2-81l-1.9-1.4v0.6l1.7,1.3L29.5-80l-1.2-0.9v2.2h-0.8v-2.2L26.3-80l-0.5-0.6l1.7-1.3v-0.6L25.6-81l-0.4-0.6
					l2.4-1.7v-0.4l-0.7-1.6l-0.4,0.8l0.5,1.1l-0.7,0.3l-0.3-0.6l-0.5,0.9l-0.7-0.4l0.5-0.9l-0.7,0.1l-0.1-0.7l1.2-0.1l0.4-0.8
					l-1.7,0.2l-0.3,0.2l-0.3,2.9l-0.7-0.1l0.3-2.4l-0.5,0.3l-0.2,2.1l-0.7-0.1l0.2-1.5L20.1-83l-0.4-0.6l1.9-1.1l-1.4-0.6l0.3-0.7
					l1.9,0.8l0.5-0.3l-2.2-0.9l0.3-0.7l2.7,1.2l0.3-0.2l1-1.4h-0.9l-0.7,1L22.9-87l0.4-0.5h-1.1v-0.7h1.1l-0.4-0.5l0.6-0.4l0.7,1
					h0.9l-1-1.4l-0.3-0.2l-2.7,1.2l-0.3-0.7l2.2-1l-0.5-0.3l-1.9,0.8l-0.3-0.7l1.4-0.6l-1.9-1.1l0.4-0.6l1.9,1.1l-0.2-1.5l0.8-0.1
					l0.2,2.1l0.5,0.3l-0.3-2.3l0.8-0.1l0.3,2.9l0.3,0.2l1.7,0.2l-0.5-0.8l-1.2-0.1l0.1-0.7l0.7,0.1l-0.5-0.9l0.7-0.4l0.5,0.9
					l0.3-0.6l0.7,0.3l-0.5,1.1l0.5,0.8l0.7-1.6v-0.4l-2.4-1.7l0.4-0.6l1.9,1.4V-94l-1.7-1.3l0.5-0.6l1.2,0.9v-2.2h0.8v2.2l1.2-0.9
					l0.5,0.6L28.3-94v0.6l1.9-1.4l0.5,0.6l-2.4,1.7v0.4l0.7,1.5l0.5-0.8L29-92.4l0.7-0.3l0.3,0.6l0.5-0.9l0.7,0.4l-0.5,0.9l0.7-0.1
					l0.1,0.7l-1.2,0.1l-0.5,0.8l1.7-0.2l0.4-0.2l0.3-2.9l0.7,0.1L32.5-91l0.5-0.3l0.3-2.1l0.7,0.1l-0.2,1.5l1.9-1.1l0.4,0.6
					l-1.9,1.1l1.4,0.6l-0.3,0.7l-1.9-0.8l-0.5,0.3l2.2,1l-0.3,0.7l-2.7-1.2l-0.4,0.2l-1,1.4h0.9l0.7-1l0.6,0.4l-0.4,0.5h1.1v0.7
					h-1.1L33-87l-0.6,0.4l-0.7-1h-0.9l1,1.4l0.4,0.2l2.7-1.2l0.3,0.7l-2.2,0.9l0.5,0.3l1.9-0.8l0.3,0.7L34.2-84.7z M28.7-86.6
					l1.9,0.2l-1.2-1.6l1.2-1.6l-1.9,0.2l-0.8-1.8l-0.8,1.8l-2-0.2l1.2,1.6l-1.2,1.6l2-0.2l0.8,1.8l0,0L28.7-86.6z"/>
				<path class="st1" d="M73.5-91.3c-0.2,0.1-0.4,0.3-0.7,0.4c0.3,0.1,0.7,0.2,1.1,0.4c0.8,0.4,1.4,0.7,1.4,0.8
					c0,0.1-0.7-0.1-1.6-0.4c-0.5-0.2-1-0.5-1.2-0.6c-0.2,0.1-0.4,0.3-0.7,0.4c0.2,0.1,0.3,0.1,0.5,0.3c0.5,0.3,0.8,0.6,0.7,0.7
					c-0.1,0.1-0.5,0-1-0.3c-0.3-0.2-0.5-0.3-0.6-0.5c-0.3,0.2-0.6,0.4-0.9,0.5l1.8,0.8L70.7-88c0.3,0.2,0.6,0.4,0.9,0.5
					c0.1-0.1,0.3-0.3,0.6-0.5c0.5-0.3,0.9-0.4,1-0.3c0.1,0.1-0.3,0.4-0.7,0.7c-0.2,0.1-0.4,0.2-0.5,0.3c0.2,0.1,0.5,0.3,0.7,0.4
					c0.2-0.2,0.7-0.4,1.2-0.6c0.8-0.4,1.5-0.5,1.6-0.4c0.1,0.1-0.6,0.5-1.4,0.8c-0.4,0.2-0.8,0.3-1.1,0.4c0.2,0.1,0.5,0.3,0.7,0.4
					l1.7-0.6l2.4,3.1l-3.9-0.5L73.3-86c-0.2-0.1-0.5-0.2-0.7-0.4c0.1,0.3,0.2,0.7,0.2,1.2c0.1,0.9,0.1,1.6,0,1.6
					c-0.1,0-0.3-0.7-0.4-1.5c-0.1-0.6-0.1-1.1,0-1.4c-0.2-0.1-0.5-0.2-0.7-0.4c0,0.2,0,0.4,0,0.6c0,0.5-0.1,1-0.2,1
					c-0.1,0-0.2-0.4-0.2-1c0-0.3,0-0.6,0.1-0.8c-0.3-0.2-0.6-0.3-0.9-0.5l0.2,1.9l-1.5-1.1c0,0.4,0,0.7,0,1.1c0.2,0,0.5,0.1,0.7,0.3
					c0.5,0.3,0.8,0.6,0.8,0.7c-0.1,0.1-0.5,0-1-0.3c-0.2-0.1-0.4-0.2-0.5-0.3c0,0.3,0,0.5,0,0.8c0.3,0.1,0.7,0.4,1.2,0.7
					c0.7,0.5,1.2,1,1.1,1.1c-0.1,0.1-0.7-0.2-1.4-0.8c-0.4-0.3-0.7-0.6-0.9-0.8c0,0.3,0,0.5,0,0.8l1.3,1.2l-1.5,3.6l-1.5-3.6
					l1.3-1.2c0-0.2,0-0.5,0-0.8c-0.2,0.2-0.5,0.5-0.9,0.8c-0.7,0.5-1.4,0.9-1.4,0.8c-0.1-0.1,0.5-0.6,1.2-1.1
					c0.5-0.3,0.9-0.6,1.2-0.7c0-0.2,0-0.5,0-0.8c-0.1,0.1-0.3,0.2-0.5,0.3c-0.5,0.3-0.9,0.4-1,0.3c-0.1-0.1,0.3-0.4,0.8-0.7
					c0.3-0.2,0.5-0.3,0.7-0.3c0-0.3,0-0.7,0-1.1L67-85.7l0.2-1.9c-0.3,0.2-0.6,0.3-0.9,0.5c0,0.2,0.1,0.5,0.1,0.8c0,0.5-0.1,1-0.2,1
					c-0.1,0-0.2-0.4-0.2-1c0-0.2,0-0.4,0-0.6c-0.2,0.1-0.5,0.3-0.7,0.4c0,0.3,0,0.8,0,1.4c-0.1,0.9-0.3,1.6-0.4,1.5
					c-0.1,0-0.1-0.7,0-1.6c0.1-0.5,0.1-0.9,0.2-1.2c-0.2,0.1-0.5,0.3-0.7,0.4l-0.4,1.7L60-83.8l2.4-3.1l1.7,0.5
					c0.2-0.1,0.4-0.3,0.7-0.4c-0.3-0.1-0.7-0.2-1.1-0.4c-0.8-0.4-1.4-0.7-1.4-0.8c0.1-0.1,0.8,0.1,1.6,0.4c0.5,0.2,1,0.5,1.2,0.6
					c0.2-0.1,0.4-0.3,0.7-0.4c-0.2-0.1-0.3-0.1-0.5-0.3c-0.5-0.3-0.8-0.6-0.8-0.7c0.1-0.1,0.5,0,1,0.3c0.3,0.2,0.5,0.3,0.6,0.5
					c0.3-0.2,0.6-0.4,0.9-0.5l-1.7-0.8l1.7-0.8c-0.3-0.2-0.6-0.4-0.9-0.5c-0.1,0.1-0.4,0.3-0.6,0.5c-0.5,0.3-0.9,0.4-1,0.3
					c-0.1-0.1,0.3-0.4,0.8-0.7c0.2-0.1,0.4-0.2,0.5-0.3c-0.2-0.1-0.5-0.3-0.7-0.4c-0.2,0.2-0.7,0.4-1.2,0.6
					c-0.8,0.4-1.5,0.5-1.6,0.4c0-0.1,0.6-0.5,1.4-0.8c0.4-0.2,0.8-0.3,1.1-0.4c-0.2-0.1-0.5-0.3-0.7-0.4l-1.7,0.5L60-93.8l3.9,0.5
					l0.4,1.7c0.2,0.1,0.5,0.2,0.7,0.4c-0.1-0.3-0.2-0.7-0.2-1.2c-0.1-0.9-0.1-1.6,0-1.6c0.1,0,0.3,0.7,0.4,1.5
					c0.1,0.6,0.1,1.1,0,1.4c0.2,0.1,0.5,0.2,0.7,0.4c0-0.2,0-0.4,0-0.6c0-0.5,0.1-1,0.2-1c0.1,0,0.2,0.4,0.2,1c0,0.3,0,0.6-0.1,0.8
					c0.3,0.2,0.6,0.3,0.9,0.5L67-91.9l1.5,1.1c0-0.4,0-0.7,0-1c-0.2,0-0.4-0.2-0.7-0.3c-0.5-0.3-0.8-0.6-0.8-0.7
					c0.1-0.1,0.5,0,1,0.3c0.2,0.1,0.4,0.2,0.5,0.3c0-0.3,0-0.5,0-0.8c-0.3-0.1-0.7-0.4-1.2-0.7c-0.7-0.5-1.2-1-1.2-1.1
					c0.1-0.1,0.7,0.2,1.4,0.8c0.4,0.3,0.7,0.6,0.9,0.8c0-0.3,0-0.5,0-0.8l-1.3-1.2l1.5-3.6l1.5,3.6L69-94.1c0,0.2,0,0.5,0,0.8
					c0.2-0.2,0.5-0.5,0.9-0.8c0.7-0.5,1.4-0.9,1.4-0.8c0.1,0.1-0.4,0.6-1.1,1.1c-0.5,0.4-0.9,0.6-1.2,0.7c0,0.2,0,0.5,0,0.8
					c0.1-0.1,0.3-0.2,0.5-0.3c0.5-0.3,0.9-0.4,1-0.3c0.1,0.1-0.3,0.4-0.8,0.7c-0.3,0.2-0.5,0.3-0.7,0.3c0,0.3,0,0.7,0,1l1.5-1.1
					L70.4-90c0.3-0.2,0.6-0.3,0.9-0.5c-0.1-0.2-0.1-0.5-0.1-0.8c0-0.5,0.1-1,0.2-1c0.1,0,0.2,0.4,0.2,1c0,0.2,0,0.4,0,0.6
					c0.2-0.1,0.5-0.3,0.7-0.4c0-0.3,0-0.8,0-1.4c0.1-0.9,0.3-1.6,0.4-1.5c0.1,0,0.1,0.7,0,1.6c-0.1,0.5-0.1,0.9-0.2,1.2
					c0.2-0.1,0.5-0.3,0.7-0.4l0.4-1.7l3.9-0.5l-2.4,3.1L73.5-91.3z M75-91.5l1.2-1.6l-2,0.2l-0.2,1l0,0L75-91.5z M69.7-88.3l1.2-0.5
					l-1.2-0.5l0.1-1.3l-1,0.8l-1-0.8l0.1,1.3l-1.2,0.5l1.2,0.5L67.8-87l1-0.7l1,0.7l0,0L69.7-88.3z M68-95.4l0.8,0.7l0.8-0.7
					l-0.8-1.8l0,0L68-95.4z M63.4-92.8l-2-0.2l1.2,1.6l1-0.3l0,0L63.4-92.8z M62.6-86.2l-1.2,1.6l2-0.2l0.2-1l0,0L62.6-86.2z
					 M69.6-82.2l-0.8-0.7L68-82.2l0.8,1.8l0,0L69.6-82.2z M74.2-84.8l2,0.2L75-86.2l-1,0.3l0,0L74.2-84.8z"/>
			</g>
		</g>
		<g>
			<g>
				<path class="st1" d="M257.5-249.6h1.7l-1.2-1.1l0.5-0.5l1.8,1.6h0.6l-0.4-0.6l0.6-0.4l0.7,1h0.4v-1.5l1.1-1.1l-0.3-0.3l-1.2,0.2
					l-0.2-0.7l0.7-0.1l-0.4-0.4l-2.5-0.1l0-0.7l1.7,0.1l-1.2-1.2l0.5-0.5l1.2,1.2l-0.1-1.6l0.8,0l0.1,2.5l0.4,0.4l0.2-0.7l0.7,0.1
					l-0.3,1.2l0.3,0.3l1.1-1.1h1.5v-0.4l-1-0.7l0.4-0.6l0.6,0.4v-0.6l-1.7-1.8l0.6-0.5l1.1,1.2v-1.7h0.8v1.7l1.1-1.2l0.6,0.5
					l-1.7,1.8v0.6l0.6-0.4l0.4,0.6l-1,0.7v0.4h1.5l1.1,1.1l0.3-0.3l-0.3-1.2l0.7-0.2l0.2,0.7l0.4-0.4l0.1-2.5l0.7,0l-0.1,1.6
					l1.2-1.2l0.5,0.5l-1.2,1.2l1.7-0.1l0,0.7l-2.5,0.1l-0.4,0.4l0.7,0.2l-0.2,0.7l-1.2-0.2l-0.3,0.3l1.1,1.1v1.5h0.4l0.7-1l0.6,0.4
					l-0.4,0.6h0.6l1.8-1.6l0.5,0.5l-1.2,1.1h1.7v0.7h-1.7l1.2,1.1l-0.5,0.5l-1.8-1.7h-0.6l0.4,0.6l-0.6,0.4l-0.7-1h-0.4v1.5
					l-1.1,1.1l0.3,0.3l1.2-0.2l0.2,0.7l-0.7,0.1l0.4,0.4l2.5,0.1l0,0.7l-1.7-0.1l1.2,1.2l-0.5,0.5l-1.2-1.2l0.1,1.6l-0.8,0l-0.1-2.5
					l-0.4-0.4l-0.2,0.7l-0.7-0.1l0.3-1.2l-0.3-0.3l-1.1,1.1h-1.5v0.4l1,0.7l-0.4,0.6l-0.6-0.4v0.6l1.7,1.8l-0.6,0.5l-1.1-1.2v1.7
					h-0.8v-1.7l-1.1,1.2l-0.6-0.5l1.7-1.8v-0.6l-0.6,0.4l-0.4-0.6l1-0.7v-0.4h-1.5l-1.1-1.1l-0.3,0.3l0.2,1.2l-0.7,0.1l-0.2-0.7
					l-0.4,0.4l-0.1,2.5l-0.8,0l0.1-1.6l-1.2,1.2l-0.5-0.5l1.2-1.2l-1.7,0.1l0-0.7l2.5-0.1l0.4-0.4l-0.7-0.1l0.2-0.7l1.2,0.3l0.3-0.3
					l-1.1-1.1v-1.5h-0.4l-0.7,1l-0.6-0.4l0.4-0.6h-0.6l-1.8,1.7l-0.5-0.5l1.2-1.1h-1.7V-249.6z M263.8-246.8l0.9-0.9l-0.5-0.5v-0.6
					h-1.3v1.2l0,0L263.8-246.8z M266-247.5h1.4l1-1v-1.4l-1-1H266l-1,1v1.4l0,0L266-247.5z M266.4-245.4v-1.3h-0.6l-0.5-0.5l-1,0.9
					l0.9,0.8l0,0H266.4z M269.2-246.2l-1-0.9l-0.5,0.5h-0.7v1.3h1.2l0,0L269.2-246.2z M270.5-248.8h-1.3v0.6l-0.5,0.5l1,0.9l0.8-0.8
					l0,0V-248.8z M269.7-251.6l-0.9,0.9l0.5,0.5v0.6h1.3v-1.2l0,0L269.7-251.6z M267.1-253v1.3h0.7l0.5,0.4l0.9-0.9l-0.8-0.8l0,0
					H267.1z M264.3-252.1l0.9,0.9l0.5-0.5h0.6v-1.3h-1.2l0,0L264.3-252.1z M262.9-249.6h1.3v-0.6l0.5-0.4l-0.9-0.9l-0.9,0.8l0,0
					V-249.6z"/>
			</g>
		</g>
		<g>
			<g>
				<path class="st1" d="M235.7-249.5h1.7v0.7h-1.7l1.2,1.1l-0.5,0.6l-1.8-1.7H232l2.5,2.2l-3.3-0.2l1.8,1.8l2.5,0.1l0,0.7l-1.7-0.1
					l1.2,1.2l-0.5,0.5l-1.2-1.2l0.1,1.6l-0.8,0l-0.1-2.5l-1.8-1.8l0.2,3.3l-2.2-2.4v2.6l1.7,1.8l-0.6,0.5l-1.1-1.2v1.7h-0.8v-1.7
					l-1.1,1.2l-0.6-0.5l1.7-1.8v-2.6l-2.2,2.4l0.2-3.3l-1.8,1.8l-0.1,2.5l-0.8,0l0.1-1.6l-1.2,1.2l-0.5-0.5l1.2-1.2l-1.7,0.1l0-0.7
					l2.5-0.1l1.8-1.8l-3.3,0.2l2.5-2.2h-2.6l-1.8,1.7l-0.5-0.6l1.2-1.1H219v-0.7h1.7l-1.2-1.1l0.5-0.5l1.8,1.7h2.6l-2.5-2.2l3.3,0.2
					l-1.8-1.8l-2.5-0.1l0-0.7l1.7,0.1l-1.2-1.2l0.5-0.5l1.2,1.2l-0.1-1.6l0.8,0l0.1,2.5l1.8,1.8l-0.2-3.3l2.2,2.4v-2.6l-1.7-1.8
					l0.6-0.5l1.1,1.2v-1.7h0.8v1.7l1.1-1.2l0.6,0.5l-1.7,1.8v2.6l2.2-2.4l-0.2,3.3l1.8-1.8l0.1-2.5l0.7,0l-0.1,1.6l1.2-1.2l0.5,0.5
					l-1.2,1.2l1.7-0.1l0,0.7l-2.5,0.1l-1.8,1.8l3.3-0.2l-2.5,2.2h2.6l1.8-1.7l0.5,0.6L235.7-249.5z M230.2-250.6l-1.1,1.1h1.6
					l1.3-1.2l0,0L230.2-250.6z M228.6-251.6v1.5l1.1-1.1l0.1-1.7l0,0L228.6-251.6z M226.7-251.2l1.1,1.1v-1.5l-1.2-1.3l0,0
					L226.7-251.2z M225.7-249.5h1.6l-1.1-1.1l-1.8-0.1l0,0L225.7-249.5z M226.2-247.7l1.1-1.1h-1.5l-1.3,1.2l0,0L226.2-247.7z
					 M227.8-246.7v-1.5l-1.1,1.1l-0.1,1.7l0,0L227.8-246.7z M229.7-247.2l-1.1-1.1v1.5l1.2,1.3l0,0L229.7-247.2z M230.7-248.8h-1.5
					l1.1,1.1l1.8,0.1l0,0L230.7-248.8z"/>
				<path class="st1" d="M193.8-246l1.9,1.1l-0.4,0.6l-1.9-1.1l0.2,1.5l-0.7,0.1l-0.3-2.1l-0.5-0.3l0.3,2.4l-0.7,0.1l-0.3-2.9
					l-0.4-0.2l-1.7-0.2l0.5,0.8l1.2,0.1l-0.1,0.7l-0.7-0.1l0.5,0.9l-0.7,0.4l-0.5-0.9l-0.3,0.6l-0.7-0.3l0.5-1.1l-0.5-0.8l-0.7,1.5
					v0.4l2.4,1.7l-0.5,0.6l-1.9-1.4v0.6l1.7,1.3l-0.5,0.6l-1.3-0.9v2.2h-0.8v-2.2l-1.2,0.9l-0.5-0.6l1.7-1.3v-0.6l-1.9,1.4l-0.4-0.6
					l2.4-1.7v-0.4l-0.7-1.6l-0.5,0.8l0.5,1.1l-0.7,0.3l-0.3-0.6l-0.5,0.9l-0.7-0.4l0.5-0.9l-0.7,0.1l-0.1-0.7l1.2-0.1l0.4-0.8
					l-1.7,0.2l-0.3,0.2l-0.3,2.9l-0.7-0.1l0.3-2.4l-0.5,0.3l-0.3,2.1l-0.7-0.1l0.2-1.5l-1.9,1.1l-0.4-0.6l1.9-1.1l-1.4-0.6l0.3-0.7
					l1.9,0.8l0.5-0.3l-2.2-0.9l0.3-0.7l2.7,1.2l0.3-0.2l1-1.4h-0.9l-0.7,1l-0.6-0.4l0.4-0.5h-1.1v-0.7h1.1l-0.4-0.5l0.6-0.4l0.7,1
					h0.9l-1-1.4l-0.3-0.2l-2.7,1.2l-0.3-0.7l2.2-1l-0.5-0.3l-1.9,0.8l-0.3-0.7l1.4-0.6l-1.9-1.1l0.4-0.6l1.9,1.1l-0.2-1.5l0.7-0.1
					l0.2,2.1l0.5,0.3l-0.3-2.3l0.7-0.1l0.3,2.9l0.3,0.2l1.7,0.2l-0.5-0.8l-1.2-0.1l0.1-0.7l0.7,0.1l-0.5-0.9l0.6-0.4l0.5,0.9
					l0.3-0.6l0.7,0.3l-0.5,1.1l0.5,0.8l0.7-1.6v-0.4l-2.4-1.7l0.4-0.6l1.9,1.4v-0.6l-1.7-1.3l0.5-0.6l1.2,0.9v-2.2h0.8v2.2l1.3-0.9
					l0.5,0.6l-1.7,1.3v0.6l1.9-1.4l0.5,0.6l-2.4,1.7v0.4l0.7,1.5l0.5-0.8l-0.5-1.1l0.7-0.3l0.3,0.6l0.5-0.9l0.7,0.4l-0.5,0.9
					l0.7-0.1l0.1,0.7l-1.2,0.1l-0.5,0.8l1.7-0.2l0.4-0.2l0.3-2.9l0.7,0.1l-0.3,2.3l0.5-0.3l0.2-2.1l0.7,0.1l-0.2,1.5l1.9-1.1
					l0.4,0.6l-1.9,1.1l1.4,0.6l-0.3,0.7l-1.9-0.8l-0.5,0.3l2.2,1l-0.3,0.7l-2.7-1.2l-0.4,0.2l-1,1.4h0.9l0.7-1l0.6,0.4l-0.4,0.5h1.1
					v0.7h-1.1l0.4,0.5l-0.6,0.4l-0.7-1h-0.9l1,1.4l0.4,0.2l2.7-1.2l0.3,0.7l-2.2,1l0.5,0.3l1.9-0.8l0.3,0.7L193.8-246z M188.3-247.8
					l1.9,0.2l-1.2-1.6l1.2-1.6l-1.9,0.2l-0.8-1.8l-0.8,1.8l-1.9-0.2l1.2,1.6l-1.2,1.6l1.9-0.2l0.8,1.8l0,0L188.3-247.8z"/>
				<path class="st1" d="M137.5-249.6h1.7l-1.2-1.1l0.5-0.5l1.8,1.6h0.6l-0.4-0.6l0.6-0.4l0.7,1h0.4v-1.5l1.1-1.1l-0.3-0.3l-1.2,0.2
					l-0.2-0.7l0.7-0.1l-0.4-0.4l-2.5-0.1l0-0.7l1.7,0.1l-1.2-1.2l0.5-0.5l1.2,1.2l-0.1-1.6l0.8,0l0.1,2.5l0.4,0.4l0.2-0.7l0.7,0.1
					l-0.3,1.2l0.3,0.3l1.1-1.1h1.5v-0.4l-1-0.7l0.4-0.6l0.6,0.4v-0.6l-1.7-1.8l0.6-0.5l1.1,1.2v-1.7h0.8v1.7l1.1-1.2l0.6,0.5
					l-1.7,1.8v0.6l0.6-0.4l0.4,0.6l-1,0.7v0.4h1.5l1.1,1.1l0.3-0.3l-0.3-1.2l0.7-0.2l0.2,0.7l0.4-0.4l0.1-2.5l0.7,0l-0.1,1.6
					l1.2-1.2l0.5,0.5l-1.2,1.2l1.7-0.1l0,0.7l-2.5,0.1l-0.4,0.4l0.7,0.2l-0.2,0.7l-1.2-0.2l-0.3,0.3l1.1,1.1v1.5h0.4l0.7-1l0.6,0.4
					l-0.4,0.6h0.6l1.8-1.6l0.5,0.5l-1.2,1.1h1.7v0.7h-1.7l1.2,1.1l-0.5,0.5l-1.8-1.7h-0.6l0.4,0.6l-0.6,0.4l-0.7-1h-0.4v1.5
					l-1.1,1.1l0.3,0.3l1.2-0.2l0.2,0.7l-0.7,0.1l0.4,0.4l2.5,0.1l0,0.7l-1.7-0.1l1.2,1.2l-0.5,0.5l-1.2-1.2l0.1,1.6l-0.8,0l-0.1-2.5
					l-0.4-0.4l-0.2,0.7l-0.7-0.1l0.3-1.2l-0.3-0.3l-1.1,1.1h-1.5v0.4l1,0.7l-0.4,0.6l-0.6-0.4v0.6l1.7,1.8l-0.6,0.5l-1.1-1.2v1.7
					h-0.8v-1.7l-1.1,1.2l-0.6-0.5l1.7-1.8v-0.6l-0.6,0.4l-0.4-0.6l1-0.7v-0.4h-1.5l-1.1-1.1l-0.3,0.3l0.2,1.2l-0.7,0.1l-0.2-0.7
					l-0.4,0.4l-0.1,2.5l-0.8,0l0.1-1.6l-1.2,1.2l-0.5-0.5l1.2-1.2l-1.7,0.1l0-0.7l2.5-0.1l0.4-0.4l-0.7-0.1l0.2-0.7l1.2,0.3l0.3-0.3
					l-1.1-1.1v-1.5h-0.4l-0.7,1l-0.6-0.4l0.4-0.6h-0.6l-1.8,1.7l-0.5-0.5l1.2-1.1h-1.7V-249.6z M143.8-246.8l0.9-0.9l-0.5-0.5v-0.6
					h-1.3v1.2l0,0L143.8-246.8z M146-247.5h1.4l1-1v-1.4l-1-1H146l-1,1v1.4l0,0L146-247.5z M146.4-245.4v-1.3h-0.6l-0.5-0.5l-1,0.9
					l0.9,0.8l0,0H146.4z M149.2-246.2l-1-0.9l-0.5,0.5h-0.7v1.3h1.2l0,0L149.2-246.2z M150.5-248.8h-1.3v0.6l-0.5,0.5l1,0.9l0.8-0.8
					l0,0V-248.8z M149.7-251.6l-0.9,0.9l0.5,0.5v0.6h1.3v-1.2l0,0L149.7-251.6z M147.1-253v1.3h0.7l0.5,0.4l0.9-0.9l-0.8-0.8l0,0
					H147.1z M144.3-252.1l0.9,0.9l0.5-0.5h0.6v-1.3h-1.2l0,0L144.3-252.1z M142.9-249.6h1.3v-0.6l0.5-0.4l-0.9-0.9l-0.9,0.8l0,0
					V-249.6z"/>
			</g>
			<g>
				<path class="st1" d="M174.6-208.3h1.7v0.7h-1.7l1.2,1.1l-0.5,0.6l-1.8-1.7h-0.6l0.4,0.6l-0.6,0.4l-0.7-1h-1.1l2.5,2.2l-3.4-0.2
					l1,1l2,0.1l0,0.6l-1.3-0.1l1,1l-0.4,0.4l-1-1l0.1,1.3l-0.6,0l-0.1-2l-1-1l0.2,3.4l-2.2-2.4v1.1l1,0.7l-0.4,0.6l-0.6-0.4v0.6
					l1.7,1.8l-0.6,0.5l-1.1-1.2v1.7h-0.8v-1.7l-1.1,1.2l-0.6-0.5l1.7-1.8v-0.6l-0.6,0.4l-0.4-0.6l1-0.7v-1.1l-2.2,2.4l0.2-3.4l-1,1
					l-0.1,2l-0.6,0l0.1-1.3l-1,1l-0.4-0.4l1-1l-1.3,0.1l0-0.6l2-0.1l1-1l-3.4,0.2l2.5-2.2h-1.1l-0.7,1l-0.6-0.4l0.4-0.6h-0.6
					l-1.8,1.7l-0.5-0.6l1.2-1.1h-1.7v-0.7h1.7l-1.2-1.1l0.5-0.6l1.8,1.7h0.6l-0.4-0.6l0.6-0.4l0.7,1h1.1l-2.5-2.2l3.4,0.2l-1-1
					l-2-0.1l0-0.6l1.3,0.1l-1-1l0.4-0.4l1,1l-0.1-1.3l0.6,0l0.1,2l1,1l-0.2-3.4l2.2,2.4v-1.1l-1-0.7l0.4-0.6l0.6,0.4v-0.6l-1.7-1.8
					l0.6-0.5l1.1,1.2v-1.7h0.8v1.7l1.1-1.2l0.6,0.5l-1.7,1.8v0.6l0.6-0.4l0.4,0.6l-1,0.7v1.1l2.2-2.4l-0.2,3.4l1-1l0.1-2l0.6,0
					l-0.1,1.3l1-1l0.4,0.4l-1,1l1.3-0.1l0,0.6l-2,0.1l-1,1l3.4-0.2l-2.5,2.2h1.1l0.7-1l0.6,0.4l-0.4,0.6h0.6l1.8-1.7l0.5,0.6
					L174.6-208.3z M169-209.4l-1.1,1.1h1.7l1.3-1.2l0,0L169-209.4z M167.5-210.4v1.6l1.1-1.1l0.1-1.9l0,0L167.5-210.4z M165.6-209.8
					l1.1,1.1v-1.6l-1.2-1.3l0,0L165.6-209.8z M164.6-208.3h1.7l-1.1-1.1l-1.9-0.1l0,0L164.6-208.3z M165.2-206.5l1.1-1.1h-1.7
					l-1.3,1.2l0,0L165.2-206.5z M166.7-205.5v-1.6l-1.1,1.1l-0.1,1.9l0,0L166.7-205.5z M168.5-206.1l-1.1-1.1v1.6l1.2,1.3l0,0
					L168.5-206.1z M169.5-207.6h-1.7l1.1,1.1l1.9,0.1l0,0L169.5-207.6z"/>
				<path class="st1" d="M214.2-204.7l1.9,1.1l-0.4,0.6l-1.9-1.1l0.2,1.5l-0.7,0.1l-0.3-2.1l-0.5-0.3l0.3,2.4l-0.8,0.1l-0.3-2.9
					l-0.4-0.2l-1.7-0.2l0.5,0.8l1.2,0.1l-0.1,0.7l-0.7-0.1l0.5,0.9l-0.6,0.4l-0.5-0.9l-0.3,0.6l-0.7-0.3l0.5-1.1l-0.5-0.8l-0.7,1.5
					v0.4l2.4,1.7l-0.5,0.6l-1.9-1.4v0.6l1.7,1.3l-0.5,0.6l-1.2-0.9v2.2h-0.8v-2.2l-1.2,0.9l-0.5-0.6l1.7-1.3v-0.6l-1.9,1.4l-0.4-0.6
					l2.4-1.7v-0.4l-0.7-1.6l-0.4,0.8l0.5,1.1l-0.7,0.3l-0.3-0.6l-0.5,0.9l-0.7-0.4l0.5-0.9l-0.7,0.1l-0.1-0.7l1.2-0.1l0.4-0.8
					l-1.7,0.2l-0.3,0.2l-0.3,2.9l-0.7-0.1l0.3-2.4l-0.5,0.3l-0.2,2.1l-0.7-0.1l0.2-1.5l-1.9,1.1l-0.4-0.6l1.9-1.1l-1.4-0.6l0.3-0.7
					l1.9,0.8l0.5-0.3l-2.2-0.9l0.3-0.7l2.7,1.2l0.3-0.2l1-1.4h-0.9l-0.7,1l-0.6-0.4l0.4-0.5h-1.1v-0.7h1.1l-0.4-0.5l0.6-0.4l0.7,1
					h0.9l-1-1.4l-0.3-0.2l-2.7,1.2l-0.3-0.7l2.2-1l-0.5-0.3l-1.9,0.8l-0.3-0.7l1.4-0.6l-1.9-1.1l0.4-0.6l1.9,1.1l-0.2-1.5l0.8-0.1
					l0.2,2.1l0.5,0.3l-0.3-2.3l0.8-0.1l0.3,2.9l0.3,0.2l1.7,0.2l-0.5-0.8l-1.2-0.1l0.1-0.7l0.7,0.1l-0.5-0.9l0.7-0.4l0.5,0.9
					l0.3-0.6l0.7,0.3l-0.5,1.1l0.5,0.8l0.7-1.6v-0.4l-2.4-1.7l0.4-0.6l1.9,1.4v-0.6l-1.7-1.3l0.5-0.6l1.2,0.9v-2.2h0.8v2.2l1.2-0.9
					l0.5,0.6l-1.7,1.3v0.6l1.9-1.4l0.5,0.6l-2.4,1.7v0.4l0.7,1.5l0.5-0.8l-0.5-1.1l0.7-0.3l0.3,0.6l0.5-0.9l0.7,0.4l-0.5,0.9
					l0.7-0.1l0.1,0.7l-1.2,0.1l-0.5,0.8l1.7-0.2l0.4-0.2l0.3-2.9l0.7,0.1l-0.3,2.3l0.5-0.3l0.3-2.1l0.7,0.1l-0.2,1.5l1.9-1.1
					l0.4,0.6l-1.9,1.1l1.4,0.6l-0.3,0.7l-1.9-0.8l-0.5,0.3l2.2,1l-0.3,0.7l-2.7-1.2l-0.4,0.2l-1,1.4h0.9l0.7-1l0.6,0.4l-0.4,0.5h1.1
					v0.7h-1.1l0.4,0.5l-0.6,0.4l-0.7-1h-0.9l1,1.4l0.4,0.2l2.7-1.2l0.3,0.7l-2.2,0.9l0.5,0.3l1.9-0.8l0.3,0.7L214.2-204.7z
					 M208.7-206.6l1.9,0.2l-1.2-1.6l1.2-1.6l-1.9,0.2l-0.8-1.8l-0.8,1.8l-1.9-0.2l1.2,1.6l-1.2,1.6l1.9-0.2l0.8,1.8l0,0L208.7-206.6
					z"/>
				<path class="st1" d="M253.5-211.3c-0.2,0.1-0.4,0.3-0.7,0.4c0.3,0.1,0.7,0.2,1.1,0.4c0.8,0.4,1.4,0.7,1.4,0.8
					c0,0.1-0.7-0.1-1.6-0.4c-0.5-0.2-1-0.5-1.2-0.6c-0.2,0.1-0.4,0.3-0.7,0.4c0.2,0.1,0.3,0.1,0.5,0.3c0.5,0.3,0.8,0.6,0.7,0.7
					c-0.1,0.1-0.5,0-1-0.3c-0.3-0.2-0.5-0.3-0.6-0.5c-0.3,0.2-0.6,0.4-0.9,0.5l1.8,0.8l-1.8,0.8c0.3,0.2,0.6,0.4,0.9,0.5
					c0.1-0.1,0.3-0.3,0.6-0.5c0.5-0.3,0.9-0.4,1-0.3c0.1,0.1-0.3,0.4-0.7,0.7c-0.2,0.1-0.4,0.2-0.5,0.3c0.2,0.1,0.5,0.3,0.7,0.4
					c0.2-0.2,0.7-0.4,1.2-0.6c0.8-0.4,1.5-0.5,1.6-0.4c0.1,0.1-0.6,0.5-1.4,0.8c-0.4,0.2-0.8,0.3-1.1,0.4c0.2,0.1,0.5,0.3,0.7,0.4
					l1.7-0.6l2.4,3.1l-3.9-0.5l-0.4-1.7c-0.2-0.1-0.5-0.2-0.7-0.4c0.1,0.3,0.2,0.7,0.2,1.2c0.1,0.9,0.1,1.6,0,1.6
					c-0.1,0-0.3-0.7-0.4-1.5c-0.1-0.6-0.1-1.1,0-1.4c-0.2-0.1-0.5-0.2-0.7-0.4c0,0.2,0,0.4,0,0.6c0,0.5-0.1,1-0.2,1
					c-0.1,0-0.2-0.4-0.2-1c0-0.3,0-0.6,0.1-0.8c-0.3-0.2-0.6-0.3-0.9-0.5l0.2,1.9l-1.5-1.1c0,0.4,0,0.7,0,1.1c0.2,0,0.5,0.1,0.7,0.3
					c0.5,0.3,0.8,0.6,0.8,0.7c-0.1,0.1-0.5,0-1-0.3c-0.2-0.1-0.4-0.2-0.5-0.3c0,0.3,0,0.5,0,0.8c0.3,0.1,0.7,0.4,1.2,0.7
					c0.7,0.5,1.2,1,1.1,1.1c-0.1,0.1-0.7-0.2-1.4-0.8c-0.4-0.3-0.7-0.6-0.9-0.8c0,0.3,0,0.5,0,0.8l1.3,1.2l-1.5,3.6l-1.5-3.6
					l1.3-1.2c0-0.2,0-0.5,0-0.8c-0.2,0.2-0.5,0.5-0.9,0.8c-0.7,0.5-1.4,0.9-1.4,0.8c-0.1-0.1,0.5-0.6,1.2-1.1
					c0.5-0.3,0.9-0.6,1.2-0.7c0-0.2,0-0.5,0-0.8c-0.1,0.1-0.3,0.2-0.5,0.3c-0.5,0.3-0.9,0.4-1,0.3c-0.1-0.1,0.3-0.4,0.8-0.7
					c0.3-0.2,0.5-0.3,0.7-0.3c0-0.3,0-0.7,0-1.1l-1.5,1.1l0.2-1.9c-0.3,0.2-0.6,0.3-0.9,0.5c0,0.2,0.1,0.5,0.1,0.8
					c0,0.5-0.1,1-0.2,1c-0.1,0-0.2-0.4-0.2-1c0-0.2,0-0.4,0-0.6c-0.2,0.1-0.5,0.3-0.7,0.4c0,0.3,0,0.8,0,1.4
					c-0.1,0.9-0.3,1.6-0.4,1.5c-0.1,0-0.1-0.7,0-1.6c0.1-0.5,0.1-0.9,0.2-1.2c-0.2,0.1-0.5,0.3-0.7,0.4l-0.4,1.7l-3.9,0.5l2.4-3.1
					l1.7,0.5c0.2-0.1,0.4-0.3,0.7-0.4c-0.3-0.1-0.7-0.2-1.1-0.4c-0.8-0.4-1.4-0.7-1.4-0.8c0.1-0.1,0.8,0.1,1.6,0.4
					c0.5,0.2,1,0.5,1.2,0.6c0.2-0.1,0.4-0.3,0.7-0.4c-0.2-0.1-0.3-0.1-0.5-0.3c-0.5-0.3-0.8-0.6-0.8-0.7c0.1-0.1,0.5,0,1,0.3
					c0.3,0.2,0.5,0.3,0.6,0.5c0.3-0.2,0.6-0.4,0.9-0.5l-1.7-0.8l1.7-0.8c-0.3-0.2-0.6-0.4-0.9-0.5c-0.1,0.1-0.4,0.3-0.6,0.5
					c-0.5,0.3-0.9,0.4-1,0.3c-0.1-0.1,0.3-0.4,0.8-0.7c0.2-0.1,0.4-0.2,0.5-0.3c-0.2-0.1-0.5-0.3-0.7-0.4c-0.2,0.2-0.7,0.4-1.2,0.6
					c-0.8,0.4-1.5,0.5-1.6,0.4c0-0.1,0.6-0.5,1.4-0.8c0.4-0.2,0.8-0.3,1.1-0.4c-0.2-0.1-0.5-0.3-0.7-0.4l-1.7,0.5l-2.4-3.1l3.9,0.5
					l0.4,1.7c0.2,0.1,0.5,0.2,0.7,0.4c-0.1-0.3-0.2-0.7-0.2-1.2c-0.1-0.9-0.1-1.6,0-1.6c0.1,0,0.3,0.7,0.4,1.5
					c0.1,0.6,0.1,1.1,0,1.4c0.2,0.1,0.5,0.2,0.7,0.4c0-0.2,0-0.4,0-0.6c0-0.5,0.1-1,0.2-1c0.1,0,0.2,0.4,0.2,1c0,0.3,0,0.6-0.1,0.8
					c0.3,0.2,0.6,0.3,0.9,0.5l-0.2-1.9l1.5,1.1c0-0.4,0-0.7,0-1c-0.2,0-0.4-0.2-0.7-0.3c-0.5-0.3-0.8-0.6-0.8-0.7
					c0.1-0.1,0.5,0,1,0.3c0.2,0.1,0.4,0.2,0.5,0.3c0-0.3,0-0.5,0-0.8c-0.3-0.1-0.7-0.4-1.2-0.7c-0.7-0.5-1.2-1-1.2-1.1
					c0.1-0.1,0.7,0.2,1.4,0.8c0.4,0.3,0.7,0.6,0.9,0.8c0-0.3,0-0.5,0-0.8l-1.3-1.2l1.5-3.6l1.5,3.6l-1.3,1.2c0,0.2,0,0.5,0,0.8
					c0.2-0.2,0.5-0.5,0.9-0.8c0.7-0.5,1.4-0.9,1.4-0.8c0.1,0.1-0.4,0.6-1.1,1.1c-0.5,0.4-0.9,0.6-1.2,0.7c0,0.2,0,0.5,0,0.8
					c0.1-0.1,0.3-0.2,0.5-0.3c0.5-0.3,0.9-0.4,1-0.3c0.1,0.1-0.3,0.4-0.8,0.7c-0.3,0.2-0.5,0.3-0.7,0.3c0,0.3,0,0.7,0,1l1.5-1.1
					l-0.2,1.9c0.3-0.2,0.6-0.3,0.9-0.5c-0.1-0.2-0.1-0.5-0.1-0.8c0-0.5,0.1-1,0.2-1c0.1,0,0.2,0.4,0.2,1c0,0.2,0,0.4,0,0.6
					c0.2-0.1,0.5-0.3,0.7-0.4c0-0.3,0-0.8,0-1.4c0.1-0.9,0.3-1.6,0.4-1.5c0.1,0,0.1,0.7,0,1.6c-0.1,0.5-0.1,0.9-0.2,1.2
					c0.2-0.1,0.5-0.3,0.7-0.4l0.4-1.7l3.9-0.5l-2.4,3.1L253.5-211.3z M255-211.5l1.2-1.6l-2,0.2l-0.2,1l0,0L255-211.5z M249.7-208.3
					l1.2-0.5l-1.2-0.5l0.1-1.3l-1,0.8l-1-0.8l0.1,1.3l-1.2,0.5l1.2,0.5l-0.1,1.3l1-0.7l1,0.7l0,0L249.7-208.3z M248-215.4l0.8,0.7
					l0.8-0.7l-0.8-1.8l0,0L248-215.4z M243.4-212.8l-2-0.2l1.2,1.6l1-0.3l0,0L243.4-212.8z M242.6-206.2l-1.2,1.6l2-0.2l0.2-1l0,0
					L242.6-206.2z M249.6-202.2l-0.8-0.7l-0.8,0.7l0.8,1.8l0,0L249.6-202.2z M254.2-204.8l2,0.2l-1.2-1.6l-1,0.3l0,0L254.2-204.8z"
					/>
			</g>
		</g>
		<g>
			<g>
				<path class="st1" d="M115.7-249.5h1.7v0.7h-1.7l1.2,1.1l-0.5,0.6l-1.8-1.7H112l2.5,2.2l-3.3-0.2l1.8,1.8l2.5,0.1l0,0.7l-1.7-0.1
					l1.2,1.2l-0.5,0.5l-1.2-1.2l0.1,1.6l-0.8,0l-0.1-2.5l-1.8-1.8l0.2,3.3l-2.2-2.4v2.6l1.7,1.8l-0.6,0.5l-1.1-1.2v1.7h-0.8v-1.7
					l-1.1,1.2l-0.6-0.5l1.7-1.8v-2.6l-2.2,2.4l0.2-3.3l-1.8,1.8l-0.1,2.5l-0.8,0l0.1-1.6l-1.2,1.2l-0.5-0.5l1.2-1.2l-1.7,0.1l0-0.7
					l2.5-0.1l1.8-1.8l-3.3,0.2l2.5-2.2h-2.6l-1.8,1.7l-0.5-0.6l1.2-1.1H99v-0.7h1.7l-1.2-1.1l0.5-0.5l1.8,1.7h2.6l-2.5-2.2l3.3,0.2
					l-1.8-1.8l-2.5-0.1l0-0.7l1.7,0.1l-1.2-1.2l0.5-0.5l1.2,1.2l-0.1-1.6l0.8,0l0.1,2.5l1.8,1.8l-0.2-3.3l2.2,2.4v-2.6l-1.7-1.8
					l0.6-0.5l1.1,1.2v-1.7h0.8v1.7l1.1-1.2l0.6,0.5l-1.7,1.8v2.6l2.2-2.4l-0.2,3.3l1.8-1.8l0.1-2.5l0.7,0l-0.1,1.6l1.2-1.2l0.5,0.5
					l-1.2,1.2l1.7-0.1l0,0.7l-2.5,0.1l-1.8,1.8l3.3-0.2l-2.5,2.2h2.6l1.8-1.7l0.5,0.6L115.7-249.5z M110.2-250.6l-1.1,1.1h1.6
					l1.3-1.2l0,0L110.2-250.6z M108.6-251.6v1.5l1.1-1.1l0.1-1.7l0,0L108.6-251.6z M106.7-251.2l1.1,1.1v-1.5l-1.2-1.3l0,0
					L106.7-251.2z M105.7-249.5h1.6l-1.1-1.1l-1.8-0.1l0,0L105.7-249.5z M106.2-247.7l1.1-1.1h-1.5l-1.3,1.2l0,0L106.2-247.7z
					 M107.8-246.7v-1.5l-1.1,1.1l-0.1,1.7l0,0L107.8-246.7z M109.7-247.2l-1.1-1.1v1.5l1.2,1.3l0,0L109.7-247.2z M110.7-248.8h-1.5
					l1.1,1.1l1.8,0.1l0,0L110.7-248.8z"/>
				<path class="st1" d="M73.8-246l1.9,1.1l-0.4,0.6l-1.9-1.1l0.2,1.5l-0.7,0.1l-0.3-2.1l-0.5-0.3l0.3,2.4l-0.7,0.1l-0.3-2.9
					l-0.4-0.2l-1.7-0.2l0.5,0.8l1.2,0.1l-0.1,0.7l-0.7-0.1l0.5,0.9l-0.7,0.4l-0.5-0.9l-0.3,0.6l-0.7-0.3l0.5-1.1l-0.5-0.8l-0.7,1.5
					v0.4l2.4,1.7l-0.5,0.6l-1.9-1.4v0.6l1.7,1.3l-0.5,0.6l-1.3-0.9v2.2h-0.8v-2.2l-1.2,0.9l-0.5-0.6l1.7-1.3v-0.6l-1.9,1.4l-0.4-0.6
					l2.4-1.7v-0.4l-0.7-1.6l-0.5,0.8l0.5,1.1l-0.7,0.3l-0.3-0.6l-0.5,0.9l-0.7-0.4l0.5-0.9l-0.7,0.1l-0.1-0.7l1.2-0.1l0.4-0.8
					l-1.7,0.2l-0.3,0.2l-0.3,2.9l-0.7-0.1l0.3-2.4l-0.5,0.3l-0.3,2.1l-0.7-0.1l0.2-1.5l-1.9,1.1l-0.4-0.6l1.9-1.1l-1.4-0.6l0.3-0.7
					l1.9,0.8l0.5-0.3l-2.2-0.9l0.3-0.7l2.7,1.2l0.3-0.2l1-1.4h-0.9l-0.7,1l-0.6-0.4l0.4-0.5h-1.1v-0.7h1.1l-0.4-0.5l0.6-0.4l0.7,1
					h0.9l-1-1.4l-0.3-0.2l-2.7,1.2l-0.3-0.7l2.2-1l-0.5-0.3l-1.9,0.8l-0.3-0.7l1.4-0.6l-1.9-1.1l0.4-0.6l1.9,1.1l-0.2-1.5l0.7-0.1
					l0.2,2.1l0.5,0.3l-0.3-2.3l0.7-0.1l0.3,2.9l0.3,0.2l1.7,0.2l-0.5-0.8l-1.2-0.1l0.1-0.7l0.7,0.1l-0.5-0.9l0.6-0.4l0.5,0.9
					l0.3-0.6l0.7,0.3l-0.5,1.1l0.5,0.8l0.7-1.6v-0.4l-2.4-1.7l0.4-0.6l1.9,1.4v-0.6l-1.7-1.3l0.5-0.6l1.2,0.9v-2.2h0.8v2.2l1.3-0.9
					l0.5,0.6l-1.7,1.3v0.6l1.9-1.4l0.5,0.6l-2.4,1.7v0.4l0.7,1.5l0.5-0.8l-0.5-1.1l0.7-0.3l0.3,0.6l0.5-0.9l0.7,0.4l-0.5,0.9
					l0.7-0.1l0.1,0.7l-1.2,0.1l-0.5,0.8l1.7-0.2l0.4-0.2l0.3-2.9l0.7,0.1l-0.3,2.3l0.5-0.3l0.2-2.1l0.7,0.1l-0.2,1.5l1.9-1.1
					l0.4,0.6l-1.9,1.1l1.4,0.6l-0.3,0.7l-1.9-0.8l-0.5,0.3l2.2,1l-0.3,0.7l-2.7-1.2l-0.4,0.2l-1,1.4h0.9l0.7-1l0.6,0.4l-0.4,0.5h1.1
					v0.7h-1.1l0.4,0.5l-0.6,0.4l-0.7-1h-0.9l1,1.4l0.4,0.2l2.7-1.2l0.3,0.7l-2.2,1l0.5,0.3l1.9-0.8l0.3,0.7L73.8-246z M68.3-247.8
					l1.9,0.2l-1.2-1.6l1.2-1.6l-1.9,0.2l-0.8-1.8l-0.8,1.8l-1.9-0.2l1.2,1.6l-1.2,1.6l1.9-0.2l0.8,1.8l0,0L68.3-247.8z"/>
				<path class="st1" d="M17.5-249.6h1.7l-1.2-1.1l0.5-0.5l1.8,1.6h0.6l-0.4-0.6l0.6-0.4l0.7,1h0.4v-1.5l1.1-1.1l-0.3-0.3l-1.2,0.2
					l-0.2-0.7l0.7-0.1l-0.4-0.4l-2.5-0.1l0-0.7l1.7,0.1l-1.2-1.2l0.5-0.5l1.2,1.2l-0.1-1.6l0.8,0l0.1,2.5l0.4,0.4l0.2-0.7l0.7,0.1
					l-0.3,1.2l0.3,0.3l1.1-1.1h1.5v-0.4l-1-0.7l0.4-0.6l0.6,0.4v-0.6l-1.7-1.8l0.6-0.5l1.1,1.2v-1.7h0.8v1.7l1.1-1.2l0.6,0.5
					l-1.7,1.8v0.6l0.6-0.4l0.4,0.6l-1,0.7v0.4h1.5l1.1,1.1l0.3-0.3l-0.3-1.2l0.7-0.2l0.2,0.7l0.4-0.4l0.1-2.5l0.7,0l-0.1,1.6
					l1.2-1.2l0.5,0.5l-1.2,1.2l1.7-0.1l0,0.7l-2.5,0.1l-0.4,0.4l0.7,0.2l-0.2,0.7l-1.2-0.2l-0.3,0.3l1.1,1.1v1.5h0.4l0.7-1l0.6,0.4
					l-0.4,0.6h0.6l1.8-1.6l0.5,0.5l-1.2,1.1H36v0.7h-1.7l1.2,1.1l-0.5,0.5l-1.8-1.7h-0.6l0.4,0.6l-0.6,0.4l-0.7-1h-0.4v1.5l-1.1,1.1
					l0.3,0.3l1.2-0.2l0.2,0.7l-0.7,0.1l0.4,0.4l2.5,0.1l0,0.7l-1.7-0.1l1.2,1.2l-0.5,0.5l-1.2-1.2l0.1,1.6l-0.8,0l-0.1-2.5l-0.4-0.4
					l-0.2,0.7l-0.7-0.1l0.3-1.2l-0.3-0.3l-1.1,1.1h-1.5v0.4l1,0.7l-0.4,0.6l-0.6-0.4v0.6l1.7,1.8l-0.6,0.5l-1.1-1.2v1.7h-0.8v-1.7
					l-1.1,1.2l-0.6-0.5l1.7-1.8v-0.6l-0.6,0.4l-0.4-0.6l1-0.7v-0.4h-1.5l-1.1-1.1l-0.3,0.3l0.2,1.2l-0.7,0.1l-0.2-0.7l-0.4,0.4
					l-0.1,2.5l-0.8,0l0.1-1.6l-1.2,1.2l-0.5-0.5l1.2-1.2l-1.7,0.1l0-0.7l2.5-0.1l0.4-0.4l-0.7-0.1l0.2-0.7L23-246l0.3-0.3l-1.1-1.1
					v-1.5h-0.4l-0.7,1l-0.6-0.4l0.4-0.6h-0.6l-1.8,1.7l-0.5-0.5l1.2-1.1h-1.7V-249.6z M23.8-246.8l0.9-0.9l-0.5-0.5v-0.6h-1.3v1.2
					l0,0L23.8-246.8z M26-247.5h1.4l1-1v-1.4l-1-1H26l-1,1v1.4l0,0L26-247.5z M26.4-245.4v-1.3h-0.6l-0.5-0.5l-1,0.9l0.9,0.8l0,0
					H26.4z M29.2-246.2l-1-0.9l-0.5,0.5h-0.7v1.3h1.2l0,0L29.2-246.2z M30.5-248.8h-1.3v0.6l-0.5,0.5l1,0.9l0.8-0.8l0,0V-248.8z
					 M29.7-251.6l-0.9,0.9l0.5,0.5v0.6h1.3v-1.2l0,0L29.7-251.6z M27.1-253v1.3h0.7l0.5,0.4l0.9-0.9l-0.8-0.8l0,0H27.1z M24.3-252.1
					l0.9,0.9l0.5-0.5h0.6v-1.3h-1.2l0,0L24.3-252.1z M22.9-249.6h1.3v-0.6l0.5-0.4l-0.9-0.9l-0.9,0.8l0,0V-249.6z"/>
			</g>
			<g>
				<path class="st1" d="M54.6-208.3h1.7v0.7h-1.7l1.2,1.1l-0.5,0.6l-1.8-1.7h-0.6l0.4,0.6l-0.6,0.4l-0.7-1h-1.1l2.5,2.2l-3.4-0.2
					l1,1l2,0.1l0,0.6l-1.3-0.1l1,1l-0.4,0.4l-1-1l0.1,1.3l-0.6,0l-0.1-2l-1-1l0.2,3.4l-2.2-2.4v1.1l1,0.7l-0.4,0.6l-0.6-0.4v0.6
					l1.7,1.8l-0.6,0.5l-1.1-1.2v1.7h-0.8v-1.7l-1.1,1.2l-0.6-0.5l1.7-1.8v-0.6l-0.6,0.4l-0.4-0.6l1-0.7v-1.1l-2.2,2.4l0.2-3.4l-1,1
					l-0.1,2l-0.6,0l0.1-1.3l-1,1l-0.4-0.4l1-1l-1.3,0.1l0-0.6l2-0.1l1-1l-3.4,0.2l2.5-2.2h-1.1l-0.7,1l-0.6-0.4l0.4-0.6h-0.6
					l-1.8,1.7l-0.5-0.6l1.2-1.1h-1.7v-0.7h1.7l-1.2-1.1l0.5-0.6l1.8,1.7h0.6l-0.4-0.6l0.6-0.4l0.7,1h1.1l-2.5-2.2l3.4,0.2l-1-1
					l-2-0.1l0-0.6l1.3,0.1l-1-1l0.4-0.4l1,1l-0.1-1.3l0.6,0l0.1,2l1,1l-0.2-3.4l2.2,2.4v-1.1l-1-0.7l0.4-0.6l0.6,0.4v-0.6l-1.7-1.8
					l0.6-0.5l1.1,1.2v-1.7h0.8v1.7l1.1-1.2l0.6,0.5l-1.7,1.8v0.6l0.6-0.4l0.4,0.6l-1,0.7v1.1l2.2-2.4l-0.2,3.4l1-1l0.1-2l0.6,0
					l-0.1,1.3l1-1l0.4,0.4l-1,1l1.3-0.1l0,0.6l-2,0.1l-1,1l3.4-0.2l-2.5,2.2H52l0.7-1l0.6,0.4l-0.4,0.6h0.6l1.8-1.7l0.5,0.6
					L54.6-208.3z M49-209.4l-1.1,1.1h1.7l1.3-1.2l0,0L49-209.4z M47.5-210.4v1.6l1.1-1.1l0.1-1.9l0,0L47.5-210.4z M45.6-209.8
					l1.1,1.1v-1.6l-1.2-1.3l0,0L45.6-209.8z M44.6-208.3h1.7l-1.1-1.1l-1.9-0.1l0,0L44.6-208.3z M45.2-206.5l1.1-1.1h-1.7l-1.3,1.2
					l0,0L45.2-206.5z M46.7-205.5v-1.6l-1.1,1.1l-0.1,1.9l0,0L46.7-205.5z M48.5-206.1l-1.1-1.1v1.6l1.2,1.3l0,0L48.5-206.1z
					 M49.5-207.6h-1.7l1.1,1.1l1.9,0.1l0,0L49.5-207.6z"/>
				<path class="st1" d="M94.2-204.7l1.9,1.1l-0.4,0.6l-1.9-1.1l0.2,1.5l-0.7,0.1l-0.3-2.1l-0.5-0.3l0.3,2.4l-0.8,0.1l-0.3-2.9
					l-0.4-0.2l-1.7-0.2l0.5,0.8l1.2,0.1l-0.1,0.7l-0.7-0.1l0.5,0.9l-0.6,0.4l-0.5-0.9l-0.3,0.6l-0.7-0.3l0.5-1.1l-0.5-0.8l-0.7,1.5
					v0.4l2.4,1.7l-0.5,0.6l-1.9-1.4v0.6l1.7,1.3l-0.5,0.6l-1.2-0.9v2.2h-0.8v-2.2l-1.2,0.9l-0.5-0.6l1.7-1.3v-0.6l-1.9,1.4l-0.4-0.6
					l2.4-1.7v-0.4l-0.7-1.6l-0.4,0.8l0.5,1.1l-0.7,0.3l-0.3-0.6l-0.5,0.9l-0.7-0.4l0.5-0.9l-0.7,0.1l-0.1-0.7l1.2-0.1l0.4-0.8
					l-1.7,0.2l-0.3,0.2l-0.3,2.9l-0.7-0.1l0.3-2.4l-0.5,0.3l-0.2,2.1l-0.7-0.1l0.2-1.5l-1.9,1.1l-0.4-0.6l1.9-1.1l-1.4-0.6l0.3-0.7
					l1.9,0.8l0.5-0.3l-2.2-0.9l0.3-0.7l2.7,1.2l0.3-0.2l1-1.4h-0.9l-0.7,1l-0.6-0.4l0.4-0.5h-1.1v-0.7h1.1l-0.4-0.5l0.6-0.4l0.7,1
					h0.9l-1-1.4l-0.3-0.2l-2.7,1.2l-0.3-0.7l2.2-1l-0.5-0.3l-1.9,0.8l-0.3-0.7l1.4-0.6l-1.9-1.1l0.4-0.6l1.9,1.1l-0.2-1.5l0.8-0.1
					l0.2,2.1l0.5,0.3l-0.3-2.3l0.8-0.1l0.3,2.9l0.3,0.2l1.7,0.2l-0.5-0.8l-1.2-0.1l0.1-0.7l0.7,0.1l-0.5-0.9l0.7-0.4l0.5,0.9
					l0.3-0.6l0.7,0.3l-0.5,1.1l0.5,0.8l0.7-1.6v-0.4l-2.4-1.7l0.4-0.6l1.9,1.4v-0.6l-1.7-1.3l0.5-0.6l1.2,0.9v-2.2h0.8v2.2l1.2-0.9
					l0.5,0.6l-1.7,1.3v0.6l1.9-1.4l0.5,0.6l-2.4,1.7v0.4l0.7,1.5l0.5-0.8l-0.5-1.1l0.7-0.3l0.3,0.6l0.5-0.9l0.7,0.4l-0.5,0.9
					l0.7-0.1l0.1,0.7l-1.2,0.1l-0.5,0.8l1.7-0.2l0.4-0.2l0.3-2.9l0.7,0.1l-0.3,2.3l0.5-0.3l0.3-2.1l0.7,0.1l-0.2,1.5l1.9-1.1
					l0.4,0.6l-1.9,1.1l1.4,0.6l-0.3,0.7l-1.9-0.8l-0.5,0.3l2.2,1l-0.3,0.7l-2.7-1.2l-0.4,0.2l-1,1.4h0.9l0.7-1l0.6,0.4l-0.4,0.5h1.1
					v0.7h-1.1L93-207l-0.6,0.4l-0.7-1h-0.9l1,1.4l0.4,0.2l2.7-1.2l0.3,0.7l-2.2,0.9l0.5,0.3l1.9-0.8l0.3,0.7L94.2-204.7z
					 M88.7-206.6l1.9,0.2l-1.2-1.6l1.2-1.6l-1.9,0.2l-0.8-1.8l-0.8,1.8l-1.9-0.2l1.2,1.6l-1.2,1.6l1.9-0.2l0.8,1.8l0,0L88.7-206.6z"
					/>
				<path class="st1" d="M133.5-211.3c-0.2,0.1-0.4,0.3-0.7,0.4c0.3,0.1,0.7,0.2,1.1,0.4c0.8,0.4,1.4,0.7,1.4,0.8
					c0,0.1-0.7-0.1-1.6-0.4c-0.5-0.2-1-0.5-1.2-0.6c-0.2,0.1-0.4,0.3-0.7,0.4c0.2,0.1,0.3,0.1,0.5,0.3c0.5,0.3,0.8,0.6,0.7,0.7
					c-0.1,0.1-0.5,0-1-0.3c-0.3-0.2-0.5-0.3-0.6-0.5c-0.3,0.2-0.6,0.4-0.9,0.5l1.8,0.8l-1.8,0.8c0.3,0.2,0.6,0.4,0.9,0.5
					c0.1-0.1,0.3-0.3,0.6-0.5c0.5-0.3,0.9-0.4,1-0.3c0.1,0.1-0.3,0.4-0.7,0.7c-0.2,0.1-0.4,0.2-0.5,0.3c0.2,0.1,0.5,0.3,0.7,0.4
					c0.2-0.2,0.7-0.4,1.2-0.6c0.8-0.4,1.5-0.5,1.6-0.4c0.1,0.1-0.6,0.5-1.4,0.8c-0.4,0.2-0.8,0.3-1.1,0.4c0.2,0.1,0.5,0.3,0.7,0.4
					l1.7-0.6l2.4,3.1l-3.9-0.5l-0.4-1.7c-0.2-0.1-0.5-0.2-0.7-0.4c0.1,0.3,0.2,0.7,0.2,1.2c0.1,0.9,0.1,1.6,0,1.6
					c-0.1,0-0.3-0.7-0.4-1.5c-0.1-0.6-0.1-1.1,0-1.4c-0.2-0.1-0.5-0.2-0.7-0.4c0,0.2,0,0.4,0,0.6c0,0.5-0.1,1-0.2,1
					c-0.1,0-0.2-0.4-0.2-1c0-0.3,0-0.6,0.1-0.8c-0.3-0.2-0.6-0.3-0.9-0.5l0.2,1.9l-1.5-1.1c0,0.4,0,0.7,0,1.1c0.2,0,0.5,0.1,0.7,0.3
					c0.5,0.3,0.8,0.6,0.8,0.7c-0.1,0.1-0.5,0-1-0.3c-0.2-0.1-0.4-0.2-0.5-0.3c0,0.3,0,0.5,0,0.8c0.3,0.1,0.7,0.4,1.2,0.7
					c0.7,0.5,1.2,1,1.1,1.1c-0.1,0.1-0.7-0.2-1.4-0.8c-0.4-0.3-0.7-0.6-0.9-0.8c0,0.3,0,0.5,0,0.8l1.3,1.2l-1.5,3.6l-1.5-3.6
					l1.3-1.2c0-0.2,0-0.5,0-0.8c-0.2,0.2-0.5,0.5-0.9,0.8c-0.7,0.5-1.4,0.9-1.4,0.8c-0.1-0.1,0.5-0.6,1.2-1.1
					c0.5-0.3,0.9-0.6,1.2-0.7c0-0.2,0-0.5,0-0.8c-0.1,0.1-0.3,0.2-0.5,0.3c-0.5,0.3-0.9,0.4-1,0.3c-0.1-0.1,0.3-0.4,0.8-0.7
					c0.3-0.2,0.5-0.3,0.7-0.3c0-0.3,0-0.7,0-1.1l-1.5,1.1l0.2-1.9c-0.3,0.2-0.6,0.3-0.9,0.5c0,0.2,0.1,0.5,0.1,0.8
					c0,0.5-0.1,1-0.2,1c-0.1,0-0.2-0.4-0.2-1c0-0.2,0-0.4,0-0.6c-0.2,0.1-0.5,0.3-0.7,0.4c0,0.3,0,0.8,0,1.4
					c-0.1,0.9-0.3,1.6-0.4,1.5c-0.1,0-0.1-0.7,0-1.6c0.1-0.5,0.1-0.9,0.2-1.2c-0.2,0.1-0.5,0.3-0.7,0.4l-0.4,1.7l-3.9,0.5l2.4-3.1
					l1.7,0.5c0.2-0.1,0.4-0.3,0.7-0.4c-0.3-0.1-0.7-0.2-1.1-0.4c-0.8-0.4-1.4-0.7-1.4-0.8c0.1-0.1,0.8,0.1,1.6,0.4
					c0.5,0.2,1,0.5,1.2,0.6c0.2-0.1,0.4-0.3,0.7-0.4c-0.2-0.1-0.3-0.1-0.5-0.3c-0.5-0.3-0.8-0.6-0.8-0.7c0.1-0.1,0.5,0,1,0.3
					c0.3,0.2,0.5,0.3,0.6,0.5c0.3-0.2,0.6-0.4,0.9-0.5l-1.7-0.8l1.7-0.8c-0.3-0.2-0.6-0.4-0.9-0.5c-0.1,0.1-0.4,0.3-0.6,0.5
					c-0.5,0.3-0.9,0.4-1,0.3c-0.1-0.1,0.3-0.4,0.8-0.7c0.2-0.1,0.4-0.2,0.5-0.3c-0.2-0.1-0.5-0.3-0.7-0.4c-0.2,0.2-0.7,0.4-1.2,0.6
					c-0.8,0.4-1.5,0.5-1.6,0.4c0-0.1,0.6-0.5,1.4-0.8c0.4-0.2,0.8-0.3,1.1-0.4c-0.2-0.1-0.5-0.3-0.7-0.4l-1.7,0.5l-2.4-3.1l3.9,0.5
					l0.4,1.7c0.2,0.1,0.5,0.2,0.7,0.4c-0.1-0.3-0.2-0.7-0.2-1.2c-0.1-0.9-0.1-1.6,0-1.6c0.1,0,0.3,0.7,0.4,1.5
					c0.1,0.6,0.1,1.1,0,1.4c0.2,0.1,0.5,0.2,0.7,0.4c0-0.2,0-0.4,0-0.6c0-0.5,0.1-1,0.2-1c0.1,0,0.2,0.4,0.2,1c0,0.3,0,0.6-0.1,0.8
					c0.3,0.2,0.6,0.3,0.9,0.5l-0.2-1.9l1.5,1.1c0-0.4,0-0.7,0-1c-0.2,0-0.4-0.2-0.7-0.3c-0.5-0.3-0.8-0.6-0.8-0.7
					c0.1-0.1,0.5,0,1,0.3c0.2,0.1,0.4,0.2,0.5,0.3c0-0.3,0-0.5,0-0.8c-0.3-0.1-0.7-0.4-1.2-0.7c-0.7-0.5-1.2-1-1.2-1.1
					c0.1-0.1,0.7,0.2,1.4,0.8c0.4,0.3,0.7,0.6,0.9,0.8c0-0.3,0-0.5,0-0.8l-1.3-1.2l1.5-3.6l1.5,3.6l-1.3,1.2c0,0.2,0,0.5,0,0.8
					c0.2-0.2,0.5-0.5,0.9-0.8c0.7-0.5,1.4-0.9,1.4-0.8c0.1,0.1-0.4,0.6-1.1,1.1c-0.5,0.4-0.9,0.6-1.2,0.7c0,0.2,0,0.5,0,0.8
					c0.1-0.1,0.3-0.2,0.5-0.3c0.5-0.3,0.9-0.4,1-0.3c0.1,0.1-0.3,0.4-0.8,0.7c-0.3,0.2-0.5,0.3-0.7,0.3c0,0.3,0,0.7,0,1l1.5-1.1
					l-0.2,1.9c0.3-0.2,0.6-0.3,0.9-0.5c-0.1-0.2-0.1-0.5-0.1-0.8c0-0.5,0.1-1,0.2-1c0.1,0,0.2,0.4,0.2,1c0,0.2,0,0.4,0,0.6
					c0.2-0.1,0.5-0.3,0.7-0.4c0-0.3,0-0.8,0-1.4c0.1-0.9,0.3-1.6,0.4-1.5c0.1,0,0.1,0.7,0,1.6c-0.1,0.5-0.1,0.9-0.2,1.2
					c0.2-0.1,0.5-0.3,0.7-0.4l0.4-1.7l3.9-0.5l-2.4,3.1L133.5-211.3z M135-211.5l1.2-1.6l-2,0.2l-0.2,1l0,0L135-211.5z M129.7-208.3
					l1.2-0.5l-1.2-0.5l0.1-1.3l-1,0.8l-1-0.8l0.1,1.3l-1.2,0.5l1.2,0.5l-0.1,1.3l1-0.7l1,0.7l0,0L129.7-208.3z M128-215.4l0.8,0.7
					l0.8-0.7l-0.8-1.8l0,0L128-215.4z M123.4-212.8l-2-0.2l1.2,1.6l1-0.3l0,0L123.4-212.8z M122.6-206.2l-1.2,1.6l2-0.2l0.2-1l0,0
					L122.6-206.2z M129.6-202.2l-0.8-0.7l-0.8,0.7l0.8,1.8l0,0L129.6-202.2z M134.2-204.8l2,0.2l-1.2-1.6l-1,0.3l0,0L134.2-204.8z"
					/>
			</g>
		</g>
		<g>
			<g>
				<path class="st1" d="M13.5-211.3c-0.2,0.1-0.4,0.3-0.7,0.4c0.3,0.1,0.7,0.2,1.1,0.4c0.8,0.4,1.4,0.7,1.4,0.8
					c0,0.1-0.7-0.1-1.6-0.4c-0.5-0.2-1-0.5-1.2-0.6c-0.2,0.1-0.4,0.3-0.7,0.4c0.2,0.1,0.3,0.1,0.5,0.3c0.5,0.3,0.8,0.6,0.7,0.7
					c-0.1,0.1-0.5,0-1-0.3c-0.3-0.2-0.5-0.3-0.6-0.5c-0.3,0.2-0.6,0.4-0.9,0.5l1.8,0.8l-1.8,0.8c0.3,0.2,0.6,0.4,0.9,0.5
					c0.1-0.1,0.3-0.3,0.6-0.5c0.5-0.3,0.9-0.4,1-0.3c0.1,0.1-0.3,0.4-0.7,0.7c-0.2,0.1-0.4,0.2-0.5,0.3c0.2,0.1,0.5,0.3,0.7,0.4
					c0.2-0.2,0.7-0.4,1.2-0.6c0.8-0.4,1.5-0.5,1.6-0.4c0.1,0.1-0.6,0.5-1.4,0.8c-0.4,0.2-0.8,0.3-1.1,0.4c0.2,0.1,0.5,0.3,0.7,0.4
					l1.7-0.6l2.4,3.1l-3.9-0.5l-0.4-1.7c-0.2-0.1-0.5-0.2-0.7-0.4c0.1,0.3,0.2,0.7,0.2,1.2c0.1,0.9,0.1,1.6,0,1.6
					c-0.1,0-0.3-0.7-0.4-1.5c-0.1-0.6-0.1-1.1,0-1.4c-0.2-0.1-0.5-0.2-0.7-0.4c0,0.2,0,0.4,0,0.6c0,0.5-0.1,1-0.2,1
					c-0.1,0-0.2-0.4-0.2-1c0-0.3,0-0.6,0.1-0.8c-0.3-0.2-0.6-0.3-0.9-0.5l0.2,1.9l-1.5-1.1c0,0.4,0,0.7,0,1.1c0.2,0,0.5,0.1,0.7,0.3
					c0.5,0.3,0.8,0.6,0.8,0.7c-0.1,0.1-0.5,0-1-0.3c-0.2-0.1-0.4-0.2-0.5-0.3c0,0.3,0,0.5,0,0.8c0.3,0.1,0.7,0.4,1.2,0.7
					c0.7,0.5,1.2,1,1.1,1.1c-0.1,0.1-0.7-0.2-1.4-0.8c-0.4-0.3-0.7-0.6-0.9-0.8c0,0.3,0,0.5,0,0.8l1.3,1.2l-1.5,3.6l-1.5-3.6
					l1.3-1.2c0-0.2,0-0.5,0-0.8c-0.2,0.2-0.5,0.5-0.9,0.8c-0.7,0.5-1.4,0.9-1.4,0.8c-0.1-0.1,0.5-0.6,1.2-1.1
					c0.5-0.3,0.9-0.6,1.2-0.7c0-0.2,0-0.5,0-0.8c-0.1,0.1-0.3,0.2-0.5,0.3c-0.5,0.3-0.9,0.4-1,0.3c-0.1-0.1,0.3-0.4,0.8-0.7
					c0.3-0.2,0.5-0.3,0.7-0.3c0-0.3,0-0.7,0-1.1L7-205.7l0.2-1.9c-0.3,0.2-0.6,0.3-0.9,0.5c0,0.2,0.1,0.5,0.1,0.8c0,0.5-0.1,1-0.2,1
					c-0.1,0-0.2-0.4-0.2-1c0-0.2,0-0.4,0-0.6c-0.2,0.1-0.5,0.3-0.7,0.4c0,0.3,0,0.8,0,1.4c-0.1,0.9-0.3,1.6-0.4,1.5
					c-0.1,0-0.1-0.7,0-1.6c0.1-0.5,0.1-0.9,0.2-1.2c-0.2,0.1-0.5,0.3-0.7,0.4l-0.4,1.7L0-203.8l2.4-3.1l1.7,0.5
					c0.2-0.1,0.4-0.3,0.7-0.4c-0.3-0.1-0.7-0.2-1.1-0.4c-0.8-0.4-1.4-0.7-1.4-0.8c0.1-0.1,0.8,0.1,1.6,0.4c0.5,0.2,1,0.5,1.2,0.6
					c0.2-0.1,0.4-0.3,0.7-0.4c-0.2-0.1-0.3-0.1-0.5-0.3c-0.5-0.3-0.8-0.6-0.8-0.7c0.1-0.1,0.5,0,1,0.3c0.3,0.2,0.5,0.3,0.6,0.5
					c0.3-0.2,0.6-0.4,0.9-0.5l-1.7-0.8l1.7-0.8c-0.3-0.2-0.6-0.4-0.9-0.5c-0.1,0.1-0.4,0.3-0.6,0.5c-0.5,0.3-0.9,0.4-1,0.3
					c-0.1-0.1,0.3-0.4,0.8-0.7c0.2-0.1,0.4-0.2,0.5-0.3c-0.2-0.1-0.5-0.3-0.7-0.4c-0.2,0.2-0.7,0.4-1.2,0.6
					c-0.8,0.4-1.5,0.5-1.6,0.4c0-0.1,0.6-0.5,1.4-0.8c0.4-0.2,0.8-0.3,1.1-0.4c-0.2-0.1-0.5-0.3-0.7-0.4l-1.7,0.5L0-213.8l3.9,0.5
					l0.4,1.7c0.2,0.1,0.5,0.2,0.7,0.4c-0.1-0.3-0.2-0.7-0.2-1.2c-0.1-0.9-0.1-1.6,0-1.6c0.1,0,0.3,0.7,0.4,1.5
					c0.1,0.6,0.1,1.1,0,1.4c0.2,0.1,0.5,0.2,0.7,0.4c0-0.2,0-0.4,0-0.6c0-0.5,0.1-1,0.2-1c0.1,0,0.2,0.4,0.2,1c0,0.3,0,0.6-0.1,0.8
					c0.3,0.2,0.6,0.3,0.9,0.5L7-211.9l1.5,1.1c0-0.4,0-0.7,0-1c-0.2,0-0.4-0.2-0.7-0.3c-0.5-0.3-0.8-0.6-0.8-0.7
					c0.1-0.1,0.5,0,1,0.3c0.2,0.1,0.4,0.2,0.5,0.3c0-0.3,0-0.5,0-0.8c-0.3-0.1-0.7-0.4-1.2-0.7c-0.7-0.5-1.2-1-1.2-1.1
					c0.1-0.1,0.7,0.2,1.4,0.8c0.4,0.3,0.7,0.6,0.9,0.8c0-0.3,0-0.5,0-0.8l-1.3-1.2l1.5-3.6l1.5,3.6L9-214.1c0,0.2,0,0.5,0,0.8
					c0.2-0.2,0.5-0.5,0.9-0.8c0.7-0.5,1.4-0.9,1.4-0.8c0.1,0.1-0.4,0.6-1.1,1.1c-0.5,0.4-0.9,0.6-1.2,0.7c0,0.2,0,0.5,0,0.8
					c0.1-0.1,0.3-0.2,0.5-0.3c0.5-0.3,0.9-0.4,1-0.3c0.1,0.1-0.3,0.4-0.8,0.7c-0.3,0.2-0.5,0.3-0.7,0.3c0,0.3,0,0.7,0,1l1.5-1.1
					l-0.2,1.9c0.3-0.2,0.6-0.3,0.9-0.5c-0.1-0.2-0.1-0.5-0.1-0.8c0-0.5,0.1-1,0.2-1c0.1,0,0.2,0.4,0.2,1c0,0.2,0,0.4,0,0.6
					c0.2-0.1,0.5-0.3,0.7-0.4c0-0.3,0-0.8,0-1.4c0.1-0.9,0.3-1.6,0.4-1.5c0.1,0,0.1,0.7,0,1.6c-0.1,0.5-0.1,0.9-0.2,1.2
					c0.2-0.1,0.5-0.3,0.7-0.4l0.4-1.7l3.9-0.5l-2.4,3.1L13.5-211.3z M15-211.5l1.2-1.6l-2,0.2l-0.2,1l0,0L15-211.5z M9.7-208.3
					l1.2-0.5l-1.2-0.5l0.1-1.3l-1,0.8l-1-0.8l0.1,1.3l-1.2,0.5l1.2,0.5L7.8-207l1-0.7l1,0.7l0,0L9.7-208.3z M8-215.4l0.8,0.7
					l0.8-0.7l-0.8-1.8l0,0L8-215.4z M3.4-212.8l-2-0.2l1.2,1.6l1-0.3l0,0L3.4-212.8z M2.6-206.2l-1.2,1.6l2-0.2l0.2-1l0,0L2.6-206.2
					z M9.6-202.2l-0.8-0.7L8-202.2l0.8,1.8l0,0L9.6-202.2z M14.2-204.8l2,0.2l-1.2-1.6l-1,0.3l0,0L14.2-204.8z"/>
			</g>
		</g>
	</g>
</pattern>
<g>
	<path class="st2" d="M872.6,486.2H492c-1.1,0-2-0.9-2-2V131.6c0-1.1,0.9-2,2-2h380.6c1.1,0,2,0.9,2,2v352.6
		C874.6,485.3,873.7,486.2,872.6,486.2z"/>
	<path class="st3" d="M888.7,217.7H475.9c-1.1,0-2-0.9-2-2V125c0-1.1,0.9-2,2-2h412.9c1.1,0,2,0.9,2,2v90.6
		C890.7,216.8,889.8,217.7,888.7,217.7z"/>
	<pattern  id="SVGID_1_" xlink:href="#New_Pattern_10" patternTransform="matrix(1 0 0 1 179.7626 46)">
	</pattern>
	<path class="st4" d="M872.6,486.2H492c-1.1,0-2-0.9-2-2V131.6c0-1.1,0.9-2,2-2h380.6c1.1,0,2,0.9,2,2v352.6
		C874.6,485.3,873.7,486.2,872.6,486.2z"/>
	<pattern  id="SVGID_2_" xlink:href="#New_Pattern_10" patternTransform="matrix(1 0 0 1 179.7626 46)">
	</pattern>
	<path class="st5" d="M888.7,217.7H475.9c-1.1,0-2-0.9-2-2V125c0-1.1,0.9-2,2-2h412.9c1.1,0,2,0.9,2,2v90.6
		C890.7,216.8,889.8,217.7,888.7,217.7z"/>
	<line class="st6" x1="490" y1="324.7" x2="874.6" y2="324.7"/>
	<line class="st6" x1="682.3" y1="486.2" x2="682.3" y2="123.1"/>
	<path class="st7" d="M655.7,25c19.9,19.9,17.4,89.6,17.4,89.6s-69.7,2.6-89.6-17.4c-19.9-19.9-19.9-52.3,0-72.2
		C603.4,5,635.7,5,655.7,25z"/>
	<path class="st7" d="M708.1,25c-19.9,19.9-17.4,89.6-17.4,89.6s69.7,2.6,89.6-17.4c19.9-19.9,19.9-52.3,0-72.2
		C760.3,5,728,5,708.1,25z"/>
	<rect x="490" y="217.7" class="st8" width="384.6" height="15.7"/>
</g>
<g>
	<path class="st9" d="M800.2,526.3l-213.3,33.2L424.4,563v-79.4h339.4c20.1,0,36.4,16.3,36.4,36.4V526.3z"/>
	<rect y="430" class="st10" width="395.3" height="164.2"/>
	<rect x="395.1" y="441.4" class="st3" width="29.5" height="141.3"/>
	<circle class="st3" cx="348.1" cy="569.8" r="7.3"/>
	<circle class="st3" cx="379" cy="569.8" r="7.3"/>
	<circle class="st10" cx="409.9" cy="569.8" r="7.3"/>
	<g class="st11">
		<polygon class="st12" points="0,512.1 0,594.2 395.3,594.2 395.3,582.8 424.7,582.8 424.7,512.1 		"/>
	</g>
	<path class="st13" d="M800.2,519.9c0-3.8-0.6-7.5-1.7-11c-55.2,5.5-209.5,21.5-209.5,21.5l-164.6-4V563l162.5-3.5l213.3-33.2V519.9
		z"/>
	<path class="st9" d="M590.1,488.6H424.4v-31.3l73.7-9.9h92.1c11.4,0,20.6,9.2,20.6,20.6v0C610.7,479.4,601.5,488.6,590.1,488.6z"/>
	<path class="st13" d="M501.8,496.7h86.7c10.6,0,23.8-3.1,27.2-13.1h-12L501.8,496.7z"/>
</g>
</svg>
