<?xml version="1.0" encoding="utf-8"?>
<!-- Generator: Adobe Illustrator 19.1.1, SVG Export Plug-In . SVG Version: 6.00 Build 0)  -->
<svg version="1.1" id="Layer_1" xmlns="http://www.w3.org/2000/svg" xmlns:xlink="http://www.w3.org/1999/xlink" x="0px" y="0px"
	 viewBox="0 0 890.7 594.2" style="enable-background:new 0 0 890.7 594.2;" xml:space="preserve">
<style type="text/css">
	.st0{fill:#1E6FB1;}
	.st1{clip-path:url(#SVGID_2_);}
	.st2{clip-path:url(#SVGID_4_);}
	.st3{fill:#BA9E51;}
	.st4{fill:#002856;}
	.st5{clip-path:url(#SVGID_6_);}
	.st6{clip-path:url(#SVGID_8_);}
	.st7{fill:#F3F3F3;}
	.st8{clip-path:url(#SVGID_10_);}
	.st9{clip-path:url(#SVGID_12_);}
	.st10{clip-path:url(#SVGID_14_);}
	.st11{clip-path:url(#SVGID_16_);}
	.st12{clip-path:url(#SVGID_18_);}
	.st13{clip-path:url(#SVGID_20_);}
	.st14{clip-path:url(#SVGID_22_);}
	.st15{clip-path:url(#SVGID_24_);}
	.st16{clip-path:url(#SVGID_26_);}
	.st17{clip-path:url(#SVGID_28_);}
	.st18{opacity:0.1;fill:#010101;}
	.st19{fill:#F1BFA0;}
	.st20{fill:#0F2649;}
	.st21{fill:#FFFFFF;}
	.st22{opacity:0.1;}
	.st23{fill:#010101;}
	.st24{opacity:5.000000e-002;fill:#010101;}
</style>
<g>
	<path class="st0" d="M888.7,217.7H475.9c-1.1,0-2-0.9-2-2V125c0-1.1,0.9-2,2-2h412.9c1.1,0,2,0.9,2,2v90.6
		C890.7,216.8,889.8,217.7,888.7,217.7z"/>
	<g>
		<g>
			<defs>
				<path id="SVGID_1_" d="M888.7,123H475.9c-1.1,0-2,0.9-2,2v90.6c0,1.1,0.9,2,2,2H490h384.6h14.1c1.1,0,2-0.9,2-2V125
					C890.7,123.9,889.8,123,888.7,123z"/>
			</defs>
			<clipPath id="SVGID_2_">
				<use xlink:href="#SVGID_1_"  style="overflow:visible;"/>
			</clipPath>
			<g class="st1">
				<g>
					<defs>
						<rect id="SVGID_3_" x="701.3" y="53.4" width="200" height="180"/>
					</defs>
					<clipPath id="SVGID_4_">
						<use xlink:href="#SVGID_3_"  style="overflow:visible;"/>
					</clipPath>
					<g class="st2">
						<circle class="st3" cx="763.3" cy="236.4" r="5.8"/>
					</g>
					<g class="st2">
						<circle class="st3" cx="713.3" cy="221.4" r="5.8"/>
					</g>
					<g class="st2">
						<circle class="st4" cx="889.3" cy="185.4" r="5.8"/>
					</g>
					<g class="st2">
						<circle class="st3" cx="863.3" cy="206.4" r="5.8"/>
						<circle class="st4" cx="839.3" cy="230.4" r="5.8"/>
					</g>
					<g class="st2">
						<circle class="st3" cx="813.3" cy="191.4" r="5.8"/>
						<circle class="st4" cx="789.3" cy="215.4" r="5.8"/>
					</g>
					<g class="st2">
						<circle class="st3" cx="763.3" cy="176.4" r="5.8"/>
						<circle class="st4" cx="739.3" cy="200.4" r="5.8"/>
					</g>
					<g class="st2">
						<circle class="st3" cx="713.3" cy="161.4" r="5.8"/>
					</g>
					<g class="st2">
						<circle class="st4" cx="889.3" cy="125.4" r="5.8"/>
					</g>
					<g class="st2">
						<circle class="st3" cx="863.3" cy="146.4" r="5.8"/>
						<circle class="st4" cx="839.3" cy="170.4" r="5.8"/>
					</g>
					<g class="st2">
						<circle class="st3" cx="813.3" cy="131.4" r="5.8"/>
						<circle class="st4" cx="789.3" cy="155.4" r="5.8"/>
					</g>
					<g class="st2">
						<circle class="st3" cx="763.3" cy="116.4" r="5.8"/>
						<circle class="st4" cx="739.3" cy="140.4" r="5.8"/>
					</g>
					<g class="st2">
						<circle class="st3" cx="713.3" cy="101.4" r="5.8"/>
					</g>
					<g class="st2">
						<circle class="st4" cx="889.3" cy="65.4" r="5.8"/>
					</g>
					<g class="st2">
						<circle class="st3" cx="863.3" cy="86.4" r="5.8"/>
						<circle class="st4" cx="839.3" cy="110.4" r="5.8"/>
					</g>
					<g class="st2">
						<circle class="st3" cx="813.3" cy="71.4" r="5.8"/>
						<circle class="st4" cx="789.3" cy="95.4" r="5.8"/>
					</g>
					<g class="st2">
						<circle class="st3" cx="763.3" cy="56.4" r="5.8"/>
						<circle class="st4" cx="739.3" cy="80.4" r="5.8"/>
					</g>
					<g class="st2">
						<circle class="st4" cx="839.3" cy="50.4" r="5.8"/>
					</g>
				</g>
			</g>
			<g class="st1">
				<g>
					<defs>
						<rect id="SVGID_5_" x="501.3" y="53.4" width="200" height="180"/>
					</defs>
					<clipPath id="SVGID_6_">
						<use xlink:href="#SVGID_5_"  style="overflow:visible;"/>
					</clipPath>
					<g class="st5">
						<circle class="st3" cx="563.3" cy="236.4" r="5.8"/>
					</g>
					<g class="st5">
						<circle class="st3" cx="513.3" cy="221.4" r="5.8"/>
					</g>
					<g class="st5">
						<circle class="st4" cx="689.3" cy="185.4" r="5.8"/>
					</g>
					<g class="st5">
						<circle class="st3" cx="663.3" cy="206.4" r="5.8"/>
						<circle class="st4" cx="639.3" cy="230.4" r="5.8"/>
					</g>
					<g class="st5">
						<circle class="st3" cx="613.3" cy="191.4" r="5.8"/>
						<circle class="st4" cx="589.3" cy="215.4" r="5.8"/>
					</g>
					<g class="st5">
						<circle class="st3" cx="563.3" cy="176.4" r="5.8"/>
						<circle class="st4" cx="539.3" cy="200.4" r="5.8"/>
					</g>
					<g class="st5">
						<circle class="st3" cx="513.3" cy="161.4" r="5.8"/>
					</g>
					<g class="st5">
						<circle class="st4" cx="689.3" cy="125.4" r="5.8"/>
					</g>
					<g class="st5">
						<circle class="st3" cx="663.3" cy="146.4" r="5.8"/>
						<circle class="st4" cx="639.3" cy="170.4" r="5.8"/>
					</g>
					<g class="st5">
						<circle class="st3" cx="613.3" cy="131.4" r="5.8"/>
						<circle class="st4" cx="589.3" cy="155.4" r="5.8"/>
					</g>
					<g class="st5">
						<circle class="st3" cx="563.3" cy="116.4" r="5.8"/>
						<circle class="st4" cx="539.3" cy="140.4" r="5.8"/>
					</g>
					<g class="st5">
						<circle class="st3" cx="513.3" cy="101.4" r="5.8"/>
					</g>
					<g class="st5">
						<circle class="st4" cx="689.3" cy="65.4" r="5.8"/>
					</g>
					<g class="st5">
						<circle class="st3" cx="663.3" cy="86.4" r="5.8"/>
						<circle class="st4" cx="639.3" cy="110.4" r="5.8"/>
					</g>
					<g class="st5">
						<circle class="st3" cx="613.3" cy="71.4" r="5.8"/>
						<circle class="st4" cx="589.3" cy="95.4" r="5.8"/>
					</g>
					<g class="st5">
						<circle class="st3" cx="563.3" cy="56.4" r="5.8"/>
						<circle class="st4" cx="539.3" cy="80.4" r="5.8"/>
					</g>
					<g class="st5">
						<circle class="st4" cx="639.3" cy="50.4" r="5.8"/>
					</g>
				</g>
			</g>
			<g class="st1">
				<g>
					<defs>
						<rect id="SVGID_7_" x="301.3" y="53.4" width="200" height="180"/>
					</defs>
					<clipPath id="SVGID_8_">
						<use xlink:href="#SVGID_7_"  style="overflow:visible;"/>
					</clipPath>
					<g class="st6">
						<circle class="st3" cx="363.3" cy="236.4" r="5.8"/>
					</g>
					<g class="st6">
						<circle class="st3" cx="313.3" cy="221.4" r="5.8"/>
					</g>
					<g class="st6">
						<circle class="st4" cx="489.3" cy="185.4" r="5.8"/>
					</g>
					<g class="st6">
						<circle class="st3" cx="463.3" cy="206.4" r="5.8"/>
						<circle class="st4" cx="439.3" cy="230.4" r="5.8"/>
					</g>
					<g class="st6">
						<circle class="st3" cx="413.3" cy="191.4" r="5.8"/>
						<circle class="st4" cx="389.3" cy="215.4" r="5.8"/>
					</g>
					<g class="st6">
						<circle class="st3" cx="363.3" cy="176.4" r="5.8"/>
						<circle class="st4" cx="339.3" cy="200.4" r="5.8"/>
					</g>
					<g class="st6">
						<circle class="st3" cx="313.3" cy="161.4" r="5.8"/>
					</g>
					<g class="st6">
						<circle class="st4" cx="489.3" cy="125.4" r="5.8"/>
					</g>
					<g class="st6">
						<circle class="st3" cx="463.3" cy="146.4" r="5.8"/>
						<circle class="st4" cx="439.3" cy="170.4" r="5.8"/>
					</g>
					<g class="st6">
						<circle class="st3" cx="413.3" cy="131.4" r="5.8"/>
						<circle class="st4" cx="389.3" cy="155.4" r="5.8"/>
					</g>
					<g class="st6">
						<circle class="st3" cx="363.3" cy="116.4" r="5.8"/>
						<circle class="st4" cx="339.3" cy="140.4" r="5.8"/>
					</g>
					<g class="st6">
						<circle class="st3" cx="313.3" cy="101.4" r="5.8"/>
					</g>
					<g class="st6">
						<circle class="st4" cx="489.3" cy="65.4" r="5.8"/>
					</g>
					<g class="st6">
						<circle class="st3" cx="463.3" cy="86.4" r="5.8"/>
						<circle class="st4" cx="439.3" cy="110.4" r="5.8"/>
					</g>
					<g class="st6">
						<circle class="st3" cx="413.3" cy="71.4" r="5.8"/>
						<circle class="st4" cx="389.3" cy="95.4" r="5.8"/>
					</g>
					<g class="st6">
						<circle class="st3" cx="363.3" cy="56.4" r="5.8"/>
						<circle class="st4" cx="339.3" cy="80.4" r="5.8"/>
					</g>
					<g class="st6">
						<circle class="st4" cx="439.3" cy="50.4" r="5.8"/>
					</g>
				</g>
			</g>
		</g>
	</g>
	<g>
		<rect x="662.3" y="123.1" class="st7" width="40" height="94.6"/>
	</g>
	<g>
		<path class="st7" d="M664.2,124.7c-21,0-69.5-2.1-87.9-20.4c-23.8-23.8-23.8-62.6,0-86.4C587.9,6.4,603.2,0,619.6,0
			s31.6,6.4,43.2,17.9h0c22.4,22.4,20.6,89.5,20.3,97l-0.3,9.3l-9.3,0.3C672.1,124.6,668.8,124.7,664.2,124.7z M619.6,20
			c-11,0-21.3,4.3-29,12c-16,16-16,42.1,0,58.1c10.8,10.8,47,14.5,72.7,14.6c-0.1-25.7-3.8-61.8-14.6-72.7h0
			C640.8,24.3,630.5,20,619.6,20z"/>
	</g>
	<g>
		<path class="st7" d="M699.5,124.7c-4.6,0-7.8-0.1-9.2-0.1l-9.3-0.3l-0.3-9.3c-0.3-7.6-2.1-74.7,20.3-97h0h0
			C712.5,6.4,727.9,0,744.2,0s31.6,6.4,43.2,17.9c23.8,23.8,23.8,62.6,0,86.4C769,122.6,720.5,124.7,699.5,124.7z M744.2,20
			c-11,0-21.3,4.3-29,12h0c-10.9,10.9-14.5,47-14.6,72.7c25.7-0.1,61.8-3.8,72.7-14.6c16-16,16-42.1,0-58.1
			C765.5,24.3,755.1,20,744.2,20z"/>
	</g>
</g>
<g>
	<path class="st0" d="M872.9,486.2H491.8c-1,0-1.7-0.8-1.7-1.7V217.7h384.6v266.8C874.6,485.4,873.8,486.2,872.9,486.2z"/>
	<g>
		<g>
			<defs>
				<path id="SVGID_9_" d="M490,217.7v266.5c0,1.1,0.9,2,2,2h380.6c1.1,0,2-0.9,2-2V217.7H490z"/>
			</defs>
			<clipPath id="SVGID_10_">
				<use xlink:href="#SVGID_9_"  style="overflow:visible;"/>
			</clipPath>
			<g class="st8">
				<g>
					<defs>
						<rect id="SVGID_11_" x="701.3" y="53.4" width="200" height="180"/>
					</defs>
					<clipPath id="SVGID_12_">
						<use xlink:href="#SVGID_11_"  style="overflow:visible;"/>
					</clipPath>
					<g class="st9">
						<circle class="st3" cx="763.3" cy="236.4" r="5.8"/>
					</g>
					<g class="st9">
						<circle class="st3" cx="713.3" cy="221.4" r="5.8"/>
					</g>
					<g class="st9">
						<circle class="st4" cx="889.3" cy="185.4" r="5.8"/>
					</g>
					<g class="st9">
						<circle class="st3" cx="863.3" cy="206.4" r="5.8"/>
						<circle class="st4" cx="839.3" cy="230.4" r="5.8"/>
					</g>
					<g class="st9">
						<circle class="st3" cx="813.3" cy="191.4" r="5.8"/>
						<circle class="st4" cx="789.3" cy="215.4" r="5.8"/>
					</g>
					<g class="st9">
						<circle class="st3" cx="763.3" cy="176.4" r="5.8"/>
						<circle class="st4" cx="739.3" cy="200.4" r="5.8"/>
					</g>
					<g class="st9">
						<circle class="st3" cx="713.3" cy="161.4" r="5.8"/>
					</g>
					<g class="st9">
						<circle class="st4" cx="889.3" cy="125.4" r="5.8"/>
					</g>
					<g class="st9">
						<circle class="st3" cx="863.3" cy="146.4" r="5.8"/>
						<circle class="st4" cx="839.3" cy="170.4" r="5.8"/>
					</g>
					<g class="st9">
						<circle class="st3" cx="813.3" cy="131.4" r="5.8"/>
						<circle class="st4" cx="789.3" cy="155.4" r="5.8"/>
					</g>
					<g class="st9">
						<circle class="st3" cx="763.3" cy="116.4" r="5.8"/>
						<circle class="st4" cx="739.3" cy="140.4" r="5.8"/>
					</g>
					<g class="st9">
						<circle class="st3" cx="713.3" cy="101.4" r="5.8"/>
					</g>
					<g class="st9">
						<circle class="st4" cx="889.3" cy="65.4" r="5.8"/>
					</g>
					<g class="st9">
						<circle class="st3" cx="863.3" cy="86.4" r="5.8"/>
						<circle class="st4" cx="839.3" cy="110.4" r="5.8"/>
					</g>
					<g class="st9">
						<circle class="st3" cx="813.3" cy="71.4" r="5.8"/>
						<circle class="st4" cx="789.3" cy="95.4" r="5.8"/>
					</g>
					<g class="st9">
						<circle class="st3" cx="763.3" cy="56.4" r="5.8"/>
						<circle class="st4" cx="739.3" cy="80.4" r="5.8"/>
					</g>
					<g class="st9">
						<circle class="st4" cx="839.3" cy="50.4" r="5.8"/>
					</g>
				</g>
			</g>
			<g class="st8">
				<g>
					<defs>
						<rect id="SVGID_13_" x="701.3" y="233.4" width="200" height="180"/>
					</defs>
					<clipPath id="SVGID_14_">
						<use xlink:href="#SVGID_13_"  style="overflow:visible;"/>
					</clipPath>
					<g class="st10">
						<circle class="st3" cx="763.3" cy="416.4" r="5.8"/>
					</g>
					<g class="st10">
						<circle class="st3" cx="713.3" cy="401.4" r="5.8"/>
					</g>
					<g class="st10">
						<circle class="st4" cx="889.3" cy="365.4" r="5.8"/>
					</g>
					<g class="st10">
						<circle class="st3" cx="863.3" cy="386.4" r="5.8"/>
						<circle class="st4" cx="839.3" cy="410.4" r="5.8"/>
					</g>
					<g class="st10">
						<circle class="st3" cx="813.3" cy="371.4" r="5.8"/>
						<circle class="st4" cx="789.3" cy="395.4" r="5.8"/>
					</g>
					<g class="st10">
						<circle class="st3" cx="763.3" cy="356.4" r="5.8"/>
						<circle class="st4" cx="739.3" cy="380.4" r="5.8"/>
					</g>
					<g class="st10">
						<circle class="st3" cx="713.3" cy="341.4" r="5.8"/>
					</g>
					<g class="st10">
						<circle class="st4" cx="889.3" cy="305.4" r="5.8"/>
					</g>
					<g class="st10">
						<circle class="st3" cx="863.3" cy="326.4" r="5.8"/>
						<circle class="st4" cx="839.3" cy="350.4" r="5.8"/>
					</g>
					<g class="st10">
						<circle class="st3" cx="813.3" cy="311.4" r="5.8"/>
						<circle class="st4" cx="789.3" cy="335.4" r="5.8"/>
					</g>
					<g class="st10">
						<circle class="st3" cx="763.3" cy="296.4" r="5.8"/>
						<circle class="st4" cx="739.3" cy="320.4" r="5.8"/>
					</g>
					<g class="st10">
						<circle class="st3" cx="713.3" cy="281.4" r="5.8"/>
					</g>
					<g class="st10">
						<circle class="st4" cx="889.3" cy="245.4" r="5.8"/>
					</g>
					<g class="st10">
						<circle class="st3" cx="863.3" cy="266.4" r="5.8"/>
						<circle class="st4" cx="839.3" cy="290.4" r="5.8"/>
					</g>
					<g class="st10">
						<circle class="st3" cx="813.3" cy="251.4" r="5.8"/>
						<circle class="st4" cx="789.3" cy="275.4" r="5.8"/>
					</g>
					<g class="st10">
						<circle class="st3" cx="763.3" cy="236.4" r="5.8"/>
						<circle class="st4" cx="739.3" cy="260.4" r="5.8"/>
					</g>
					<g class="st10">
						<circle class="st4" cx="839.3" cy="230.4" r="5.8"/>
					</g>
				</g>
			</g>
			<g class="st8">
				<g>
					<defs>
						<rect id="SVGID_15_" x="701.3" y="413.4" width="200" height="180"/>
					</defs>
					<clipPath id="SVGID_16_">
						<use xlink:href="#SVGID_15_"  style="overflow:visible;"/>
					</clipPath>
					<g class="st11">
						<circle class="st3" cx="763.3" cy="596.4" r="5.8"/>
					</g>
					<g class="st11">
						<circle class="st3" cx="713.3" cy="581.4" r="5.8"/>
					</g>
					<g class="st11">
						<circle class="st4" cx="889.3" cy="545.4" r="5.8"/>
					</g>
					<g class="st11">
						<circle class="st3" cx="863.3" cy="566.4" r="5.8"/>
						<circle class="st4" cx="839.3" cy="590.4" r="5.8"/>
					</g>
					<g class="st11">
						<circle class="st3" cx="813.3" cy="551.4" r="5.8"/>
						<circle class="st4" cx="789.3" cy="575.4" r="5.8"/>
					</g>
					<g class="st11">
						<circle class="st3" cx="763.3" cy="536.4" r="5.8"/>
						<circle class="st4" cx="739.3" cy="560.4" r="5.8"/>
					</g>
					<g class="st11">
						<circle class="st3" cx="713.3" cy="521.4" r="5.8"/>
					</g>
					<g class="st11">
						<circle class="st4" cx="889.3" cy="485.4" r="5.8"/>
					</g>
					<g class="st11">
						<circle class="st3" cx="863.3" cy="506.4" r="5.8"/>
						<circle class="st4" cx="839.3" cy="530.4" r="5.8"/>
					</g>
					<g class="st11">
						<circle class="st3" cx="813.3" cy="491.4" r="5.8"/>
						<circle class="st4" cx="789.3" cy="515.4" r="5.8"/>
					</g>
					<g class="st11">
						<circle class="st3" cx="763.3" cy="476.4" r="5.8"/>
						<circle class="st4" cx="739.3" cy="500.4" r="5.8"/>
					</g>
					<g class="st11">
						<circle class="st3" cx="713.3" cy="461.4" r="5.8"/>
					</g>
					<g class="st11">
						<circle class="st4" cx="889.3" cy="425.4" r="5.8"/>
					</g>
					<g class="st11">
						<circle class="st3" cx="863.3" cy="446.4" r="5.8"/>
						<circle class="st4" cx="839.3" cy="470.4" r="5.8"/>
					</g>
					<g class="st11">
						<circle class="st3" cx="813.3" cy="431.4" r="5.8"/>
						<circle class="st4" cx="789.3" cy="455.4" r="5.8"/>
					</g>
					<g class="st11">
						<circle class="st3" cx="763.3" cy="416.4" r="5.8"/>
						<circle class="st4" cx="739.3" cy="440.4" r="5.8"/>
					</g>
					<g class="st11">
						<circle class="st4" cx="839.3" cy="410.4" r="5.8"/>
					</g>
				</g>
			</g>
			<g class="st8">
				<g>
					<defs>
						<rect id="SVGID_17_" x="501.3" y="53.4" width="200" height="180"/>
					</defs>
					<clipPath id="SVGID_18_">
						<use xlink:href="#SVGID_17_"  style="overflow:visible;"/>
					</clipPath>
					<g class="st12">
						<circle class="st3" cx="563.3" cy="236.4" r="5.8"/>
					</g>
					<g class="st12">
						<circle class="st3" cx="513.3" cy="221.4" r="5.8"/>
					</g>
					<g class="st12">
						<circle class="st4" cx="689.3" cy="185.4" r="5.8"/>
					</g>
					<g class="st12">
						<circle class="st3" cx="663.3" cy="206.4" r="5.8"/>
						<circle class="st4" cx="639.3" cy="230.4" r="5.8"/>
					</g>
					<g class="st12">
						<circle class="st3" cx="613.3" cy="191.4" r="5.8"/>
						<circle class="st4" cx="589.3" cy="215.4" r="5.8"/>
					</g>
					<g class="st12">
						<circle class="st3" cx="563.3" cy="176.4" r="5.8"/>
						<circle class="st4" cx="539.3" cy="200.4" r="5.8"/>
					</g>
					<g class="st12">
						<circle class="st3" cx="513.3" cy="161.4" r="5.8"/>
					</g>
					<g class="st12">
						<circle class="st4" cx="689.3" cy="125.4" r="5.8"/>
					</g>
					<g class="st12">
						<circle class="st3" cx="663.3" cy="146.4" r="5.8"/>
						<circle class="st4" cx="639.3" cy="170.4" r="5.8"/>
					</g>
					<g class="st12">
						<circle class="st3" cx="613.3" cy="131.4" r="5.8"/>
						<circle class="st4" cx="589.3" cy="155.4" r="5.8"/>
					</g>
					<g class="st12">
						<circle class="st3" cx="563.3" cy="116.4" r="5.8"/>
						<circle class="st4" cx="539.3" cy="140.4" r="5.8"/>
					</g>
					<g class="st12">
						<circle class="st3" cx="513.3" cy="101.4" r="5.8"/>
					</g>
					<g class="st12">
						<circle class="st4" cx="689.3" cy="65.4" r="5.8"/>
					</g>
					<g class="st12">
						<circle class="st3" cx="663.3" cy="86.4" r="5.8"/>
						<circle class="st4" cx="639.3" cy="110.4" r="5.8"/>
					</g>
					<g class="st12">
						<circle class="st3" cx="613.3" cy="71.4" r="5.8"/>
						<circle class="st4" cx="589.3" cy="95.4" r="5.8"/>
					</g>
					<g class="st12">
						<circle class="st3" cx="563.3" cy="56.4" r="5.8"/>
						<circle class="st4" cx="539.3" cy="80.4" r="5.8"/>
					</g>
					<g class="st12">
						<circle class="st4" cx="639.3" cy="50.4" r="5.8"/>
					</g>
				</g>
			</g>
			<g class="st8">
				<g>
					<defs>
						<rect id="SVGID_19_" x="501.3" y="233.4" width="200" height="180"/>
					</defs>
					<clipPath id="SVGID_20_">
						<use xlink:href="#SVGID_19_"  style="overflow:visible;"/>
					</clipPath>
					<g class="st13">
						<circle class="st3" cx="563.3" cy="416.4" r="5.8"/>
					</g>
					<g class="st13">
						<circle class="st3" cx="513.3" cy="401.4" r="5.8"/>
					</g>
					<g class="st13">
						<circle class="st4" cx="689.3" cy="365.4" r="5.8"/>
					</g>
					<g class="st13">
						<circle class="st3" cx="663.3" cy="386.4" r="5.8"/>
						<circle class="st4" cx="639.3" cy="410.4" r="5.8"/>
					</g>
					<g class="st13">
						<circle class="st3" cx="613.3" cy="371.4" r="5.8"/>
						<circle class="st4" cx="589.3" cy="395.4" r="5.8"/>
					</g>
					<g class="st13">
						<circle class="st3" cx="563.3" cy="356.4" r="5.8"/>
						<circle class="st4" cx="539.3" cy="380.4" r="5.8"/>
					</g>
					<g class="st13">
						<circle class="st3" cx="513.3" cy="341.4" r="5.8"/>
					</g>
					<g class="st13">
						<circle class="st4" cx="689.3" cy="305.4" r="5.8"/>
					</g>
					<g class="st13">
						<circle class="st3" cx="663.3" cy="326.4" r="5.8"/>
						<circle class="st4" cx="639.3" cy="350.4" r="5.8"/>
					</g>
					<g class="st13">
						<circle class="st3" cx="613.3" cy="311.4" r="5.8"/>
						<circle class="st4" cx="589.3" cy="335.4" r="5.8"/>
					</g>
					<g class="st13">
						<circle class="st3" cx="563.3" cy="296.4" r="5.8"/>
						<circle class="st4" cx="539.3" cy="320.4" r="5.8"/>
					</g>
					<g class="st13">
						<circle class="st3" cx="513.3" cy="281.4" r="5.8"/>
					</g>
					<g class="st13">
						<circle class="st4" cx="689.3" cy="245.4" r="5.8"/>
					</g>
					<g class="st13">
						<circle class="st3" cx="663.3" cy="266.4" r="5.8"/>
						<circle class="st4" cx="639.3" cy="290.4" r="5.8"/>
					</g>
					<g class="st13">
						<circle class="st3" cx="613.3" cy="251.4" r="5.8"/>
						<circle class="st4" cx="589.3" cy="275.4" r="5.8"/>
					</g>
					<g class="st13">
						<circle class="st3" cx="563.3" cy="236.4" r="5.8"/>
						<circle class="st4" cx="539.3" cy="260.4" r="5.8"/>
					</g>
					<g class="st13">
						<circle class="st4" cx="639.3" cy="230.4" r="5.8"/>
					</g>
				</g>
			</g>
			<g class="st8">
				<g>
					<defs>
						<rect id="SVGID_21_" x="501.3" y="413.4" width="200" height="180"/>
					</defs>
					<clipPath id="SVGID_22_">
						<use xlink:href="#SVGID_21_"  style="overflow:visible;"/>
					</clipPath>
					<g class="st14">
						<circle class="st3" cx="563.3" cy="596.4" r="5.8"/>
					</g>
					<g class="st14">
						<circle class="st3" cx="513.3" cy="581.4" r="5.8"/>
					</g>
					<g class="st14">
						<circle class="st4" cx="689.3" cy="545.4" r="5.8"/>
					</g>
					<g class="st14">
						<circle class="st3" cx="663.3" cy="566.4" r="5.8"/>
						<circle class="st4" cx="639.3" cy="590.4" r="5.8"/>
					</g>
					<g class="st14">
						<circle class="st3" cx="613.3" cy="551.4" r="5.8"/>
						<circle class="st4" cx="589.3" cy="575.4" r="5.8"/>
					</g>
					<g class="st14">
						<circle class="st3" cx="563.3" cy="536.4" r="5.8"/>
						<circle class="st4" cx="539.3" cy="560.4" r="5.8"/>
					</g>
					<g class="st14">
						<circle class="st3" cx="513.3" cy="521.4" r="5.8"/>
					</g>
					<g class="st14">
						<circle class="st4" cx="689.3" cy="485.4" r="5.8"/>
					</g>
					<g class="st14">
						<circle class="st3" cx="663.3" cy="506.4" r="5.8"/>
						<circle class="st4" cx="639.3" cy="530.4" r="5.8"/>
					</g>
					<g class="st14">
						<circle class="st3" cx="613.3" cy="491.4" r="5.8"/>
						<circle class="st4" cx="589.3" cy="515.4" r="5.8"/>
					</g>
					<g class="st14">
						<circle class="st3" cx="563.3" cy="476.4" r="5.8"/>
						<circle class="st4" cx="539.3" cy="500.4" r="5.8"/>
					</g>
					<g class="st14">
						<circle class="st3" cx="513.3" cy="461.4" r="5.8"/>
					</g>
					<g class="st14">
						<circle class="st4" cx="689.3" cy="425.4" r="5.8"/>
					</g>
					<g class="st14">
						<circle class="st3" cx="663.3" cy="446.4" r="5.8"/>
						<circle class="st4" cx="639.3" cy="470.4" r="5.8"/>
					</g>
					<g class="st14">
						<circle class="st3" cx="613.3" cy="431.4" r="5.8"/>
						<circle class="st4" cx="589.3" cy="455.4" r="5.8"/>
					</g>
					<g class="st14">
						<circle class="st3" cx="563.3" cy="416.4" r="5.8"/>
						<circle class="st4" cx="539.3" cy="440.4" r="5.8"/>
					</g>
					<g class="st14">
						<circle class="st4" cx="639.3" cy="410.4" r="5.8"/>
					</g>
				</g>
			</g>
			<g class="st8">
				<g>
					<defs>
						<rect id="SVGID_23_" x="301.3" y="53.4" width="200" height="180"/>
					</defs>
					<clipPath id="SVGID_24_">
						<use xlink:href="#SVGID_23_"  style="overflow:visible;"/>
					</clipPath>
					<g class="st15">
						<circle class="st3" cx="363.3" cy="236.4" r="5.8"/>
					</g>
					<g class="st15">
						<circle class="st3" cx="313.3" cy="221.4" r="5.8"/>
					</g>
					<g class="st15">
						<circle class="st4" cx="489.3" cy="185.4" r="5.8"/>
					</g>
					<g class="st15">
						<circle class="st3" cx="463.3" cy="206.4" r="5.8"/>
						<circle class="st4" cx="439.3" cy="230.4" r="5.8"/>
					</g>
					<g class="st15">
						<circle class="st3" cx="413.3" cy="191.4" r="5.8"/>
						<circle class="st4" cx="389.3" cy="215.4" r="5.8"/>
					</g>
					<g class="st15">
						<circle class="st3" cx="363.3" cy="176.4" r="5.8"/>
						<circle class="st4" cx="339.3" cy="200.4" r="5.8"/>
					</g>
					<g class="st15">
						<circle class="st3" cx="313.3" cy="161.4" r="5.8"/>
					</g>
					<g class="st15">
						<circle class="st4" cx="489.3" cy="125.4" r="5.8"/>
					</g>
					<g class="st15">
						<circle class="st3" cx="463.3" cy="146.4" r="5.8"/>
						<circle class="st4" cx="439.3" cy="170.4" r="5.8"/>
					</g>
					<g class="st15">
						<circle class="st3" cx="413.3" cy="131.4" r="5.8"/>
						<circle class="st4" cx="389.3" cy="155.4" r="5.8"/>
					</g>
					<g class="st15">
						<circle class="st3" cx="363.3" cy="116.4" r="5.8"/>
						<circle class="st4" cx="339.3" cy="140.4" r="5.8"/>
					</g>
					<g class="st15">
						<circle class="st3" cx="313.3" cy="101.4" r="5.8"/>
					</g>
					<g class="st15">
						<circle class="st4" cx="489.3" cy="65.4" r="5.8"/>
					</g>
					<g class="st15">
						<circle class="st3" cx="463.3" cy="86.4" r="5.8"/>
						<circle class="st4" cx="439.3" cy="110.4" r="5.8"/>
					</g>
					<g class="st15">
						<circle class="st3" cx="413.3" cy="71.4" r="5.8"/>
						<circle class="st4" cx="389.3" cy="95.4" r="5.8"/>
					</g>
					<g class="st15">
						<circle class="st3" cx="363.3" cy="56.4" r="5.8"/>
						<circle class="st4" cx="339.3" cy="80.4" r="5.8"/>
					</g>
					<g class="st15">
						<circle class="st4" cx="439.3" cy="50.4" r="5.8"/>
					</g>
				</g>
			</g>
			<g class="st8">
				<g>
					<defs>
						<rect id="SVGID_25_" x="301.3" y="233.4" width="200" height="180"/>
					</defs>
					<clipPath id="SVGID_26_">
						<use xlink:href="#SVGID_25_"  style="overflow:visible;"/>
					</clipPath>
					<g class="st16">
						<circle class="st3" cx="363.3" cy="416.4" r="5.8"/>
					</g>
					<g class="st16">
						<circle class="st3" cx="313.3" cy="401.4" r="5.8"/>
					</g>
					<g class="st16">
						<circle class="st4" cx="489.3" cy="365.4" r="5.8"/>
					</g>
					<g class="st16">
						<circle class="st3" cx="463.3" cy="386.4" r="5.8"/>
						<circle class="st4" cx="439.3" cy="410.4" r="5.8"/>
					</g>
					<g class="st16">
						<circle class="st3" cx="413.3" cy="371.4" r="5.8"/>
						<circle class="st4" cx="389.3" cy="395.4" r="5.8"/>
					</g>
					<g class="st16">
						<circle class="st3" cx="363.3" cy="356.4" r="5.8"/>
						<circle class="st4" cx="339.3" cy="380.4" r="5.8"/>
					</g>
					<g class="st16">
						<circle class="st3" cx="313.3" cy="341.4" r="5.8"/>
					</g>
					<g class="st16">
						<circle class="st4" cx="489.3" cy="305.4" r="5.8"/>
					</g>
					<g class="st16">
						<circle class="st3" cx="463.3" cy="326.4" r="5.8"/>
						<circle class="st4" cx="439.3" cy="350.4" r="5.8"/>
					</g>
					<g class="st16">
						<circle class="st3" cx="413.3" cy="311.4" r="5.8"/>
						<circle class="st4" cx="389.3" cy="335.4" r="5.8"/>
					</g>
					<g class="st16">
						<circle class="st3" cx="363.3" cy="296.4" r="5.8"/>
						<circle class="st4" cx="339.3" cy="320.4" r="5.8"/>
					</g>
					<g class="st16">
						<circle class="st3" cx="313.3" cy="281.4" r="5.8"/>
					</g>
					<g class="st16">
						<circle class="st4" cx="489.3" cy="245.4" r="5.8"/>
					</g>
					<g class="st16">
						<circle class="st3" cx="463.3" cy="266.4" r="5.8"/>
						<circle class="st4" cx="439.3" cy="290.4" r="5.8"/>
					</g>
					<g class="st16">
						<circle class="st3" cx="413.3" cy="251.4" r="5.8"/>
						<circle class="st4" cx="389.3" cy="275.4" r="5.8"/>
					</g>
					<g class="st16">
						<circle class="st3" cx="363.3" cy="236.4" r="5.8"/>
						<circle class="st4" cx="339.3" cy="260.4" r="5.8"/>
					</g>
					<g class="st16">
						<circle class="st4" cx="439.3" cy="230.4" r="5.8"/>
					</g>
				</g>
			</g>
			<g class="st8">
				<g>
					<defs>
						<rect id="SVGID_27_" x="301.3" y="413.4" width="200" height="180"/>
					</defs>
					<clipPath id="SVGID_28_">
						<use xlink:href="#SVGID_27_"  style="overflow:visible;"/>
					</clipPath>
					<g class="st17">
						<circle class="st3" cx="363.3" cy="596.4" r="5.8"/>
					</g>
					<g class="st17">
						<circle class="st3" cx="313.3" cy="581.4" r="5.8"/>
					</g>
					<g class="st17">
						<circle class="st4" cx="489.3" cy="545.4" r="5.8"/>
					</g>
					<g class="st17">
						<circle class="st3" cx="463.3" cy="566.4" r="5.8"/>
						<circle class="st4" cx="439.3" cy="590.4" r="5.8"/>
					</g>
					<g class="st17">
						<circle class="st3" cx="413.3" cy="551.4" r="5.8"/>
						<circle class="st4" cx="389.3" cy="575.4" r="5.8"/>
					</g>
					<g class="st17">
						<circle class="st3" cx="363.3" cy="536.4" r="5.8"/>
						<circle class="st4" cx="339.3" cy="560.4" r="5.8"/>
					</g>
					<g class="st17">
						<circle class="st3" cx="313.3" cy="521.4" r="5.8"/>
					</g>
					<g class="st17">
						<circle class="st4" cx="489.3" cy="485.4" r="5.8"/>
					</g>
					<g class="st17">
						<circle class="st3" cx="463.3" cy="506.4" r="5.8"/>
						<circle class="st4" cx="439.3" cy="530.4" r="5.8"/>
					</g>
					<g class="st17">
						<circle class="st3" cx="413.3" cy="491.4" r="5.8"/>
						<circle class="st4" cx="389.3" cy="515.4" r="5.8"/>
					</g>
					<g class="st17">
						<circle class="st3" cx="363.3" cy="476.4" r="5.8"/>
						<circle class="st4" cx="339.3" cy="500.4" r="5.8"/>
					</g>
					<g class="st17">
						<circle class="st3" cx="313.3" cy="461.4" r="5.8"/>
					</g>
					<g class="st17">
						<circle class="st4" cx="489.3" cy="425.4" r="5.8"/>
					</g>
					<g class="st17">
						<circle class="st3" cx="463.3" cy="446.4" r="5.8"/>
						<circle class="st4" cx="439.3" cy="470.4" r="5.8"/>
					</g>
					<g class="st17">
						<circle class="st3" cx="413.3" cy="431.4" r="5.8"/>
						<circle class="st4" cx="389.3" cy="455.4" r="5.8"/>
					</g>
					<g class="st17">
						<circle class="st3" cx="363.3" cy="416.4" r="5.8"/>
						<circle class="st4" cx="339.3" cy="440.4" r="5.8"/>
					</g>
					<g class="st17">
						<circle class="st4" cx="439.3" cy="410.4" r="5.8"/>
					</g>
				</g>
			</g>
		</g>
	</g>
	<g>
		<rect x="490" y="304.7" class="st7" width="384.6" height="40"/>
	</g>
	<g>
		<rect x="662.3" y="217.7" class="st7" width="40" height="268.5"/>
	</g>
	<rect x="490" y="217.7" class="st18" width="384.6" height="15.7"/>
</g>
<g>
	<path class="st19" d="M800.2,526.3l-213.3,33.2L424.4,563v-79.4h339.4c20.1,0,36.4,16.3,36.4,36.4V526.3z"/>
	<rect y="430" class="st20" width="395.3" height="164.2"/>
	<rect x="395.1" y="441.4" class="st21" width="29.5" height="141.3"/>
	<circle class="st21" cx="348.1" cy="569.8" r="7.3"/>
	<circle class="st21" cx="379" cy="569.8" r="7.3"/>
	<circle class="st20" cx="409.9" cy="569.8" r="7.3"/>
	<g class="st22">
		<polygon class="st23" points="0,512.1 0,594.2 395.3,594.2 395.3,582.8 424.7,582.8 424.7,512.1 		"/>
	</g>
	<path class="st24" d="M800.2,519.9c0-3.8-0.6-7.5-1.7-11c-55.2,5.5-209.5,21.5-209.5,21.5l-164.6-4V563l162.5-3.5l213.3-33.2V519.9
		z"/>
	<path class="st19" d="M590.1,488.6H424.4v-31.3l73.7-9.9h92.1c11.4,0,20.6,9.2,20.6,20.6v0C610.7,479.4,601.5,488.6,590.1,488.6z"
		/>
	<path class="st24" d="M501.8,496.7h86.7c10.6,0,23.8-3.1,27.2-13.1h-12L501.8,496.7z"/>
</g>
</svg>
