<?xml version="1.0" encoding="utf-8"?>
<!-- Generator: Adobe Illustrator 19.1.1, SVG Export Plug-In . SVG Version: 6.00 Build 0)  -->
<svg version="1.1" id="Layer_1" xmlns="http://www.w3.org/2000/svg" xmlns:xlink="http://www.w3.org/1999/xlink" x="0px" y="0px"
	 viewBox="0 0 890.7 594.2" style="enable-background:new 0 0 890.7 594.2;" xml:space="preserve">
<style type="text/css">
	.st0{fill:#D1AD4F;}
	.st1{clip-path:url(#SVGID_2_);}
	.st2{clip-path:url(#SVGID_4_);fill:#EDE4CC;}
	.st3{clip-path:url(#SVGID_6_);fill:#EDE4CC;}
	.st4{clip-path:url(#SVGID_8_);fill:#EDE4CC;}
	.st5{clip-path:url(#SVGID_10_);fill:#EDE4CC;}
	.st6{clip-path:url(#SVGID_12_);fill:#EDE4CC;}
	.st7{clip-path:url(#SVGID_14_);fill:#EDE4CC;}
	.st8{clip-path:url(#SVGID_16_);fill:#EDE4CC;}
	.st9{clip-path:url(#SVGID_18_);fill:#EDE4CC;}
	.st10{clip-path:url(#SVGID_20_);fill:#EDE4CC;}
	.st11{clip-path:url(#SVGID_22_);fill:#EDE4CC;}
	.st12{clip-path:url(#SVGID_24_);fill:#EDE4CC;}
	.st13{clip-path:url(#SVGID_26_);fill:#EDE4CC;}
	.st14{fill:#82AED7;}
	.st15{fill:#3095D2;}
	.st16{fill:#C6A14E;}
	.st17{clip-path:url(#SVGID_28_);}
	.st18{clip-path:url(#SVGID_30_);fill:#EDE4CC;}
	.st19{clip-path:url(#SVGID_32_);fill:#EDE4CC;}
	.st20{clip-path:url(#SVGID_34_);fill:#EDE4CC;}
	.st21{clip-path:url(#SVGID_36_);fill:#EDE4CC;}
	.st22{clip-path:url(#SVGID_38_);fill:#EDE4CC;}
	.st23{clip-path:url(#SVGID_40_);fill:#EDE4CC;}
	.st24{clip-path:url(#SVGID_42_);fill:#EDE4CC;}
	.st25{clip-path:url(#SVGID_44_);fill:#EDE4CC;}
	.st26{clip-path:url(#SVGID_46_);fill:#EDE4CC;}
	.st27{clip-path:url(#SVGID_48_);fill:#EDE4CC;}
	.st28{clip-path:url(#SVGID_50_);fill:#EDE4CC;}
	.st29{clip-path:url(#SVGID_52_);fill:#EDE4CC;}
	.st30{clip-path:url(#SVGID_54_);fill:#EDE4CC;}
	.st31{clip-path:url(#SVGID_56_);fill:#EDE4CC;}
	.st32{clip-path:url(#SVGID_58_);fill:#EDE4CC;}
	.st33{clip-path:url(#SVGID_60_);fill:#EDE4CC;}
	.st34{clip-path:url(#SVGID_62_);fill:#EDE4CC;}
	.st35{clip-path:url(#SVGID_64_);fill:#EDE4CC;}
	.st36{clip-path:url(#SVGID_66_);fill:#EDE4CC;}
	.st37{clip-path:url(#SVGID_68_);fill:#EDE4CC;}
	.st38{clip-path:url(#SVGID_70_);fill:#EDE4CC;}
	.st39{clip-path:url(#SVGID_72_);fill:#EDE4CC;}
	.st40{clip-path:url(#SVGID_74_);fill:#EDE4CC;}
	.st41{clip-path:url(#SVGID_76_);fill:#EDE4CC;}
	.st42{opacity:0.1;fill:#010101;}
	.st43{fill:#F1BFA0;}
	.st44{fill:#0F2649;}
	.st45{fill:#FFFFFF;}
	.st46{opacity:0.1;}
	.st47{fill:#010101;}
	.st48{opacity:5.000000e-002;fill:#010101;}
</style>
<g>
	<path class="st0" d="M888.7,217.7H475.9c-1.1,0-2-0.9-2-2v-90.6c0-1.1,0.9-2,2-2h412.9c1.1,0,2,0.9,2,2v90.6
		C890.7,216.8,889.8,217.7,888.7,217.7z"/>
	<g>
		<g>
			<defs>
				<path id="SVGID_1_" d="M888.7,217.7H475.9c-1.1,0-2-0.9-2-2v-90.6c0-1.1,0.9-2,2-2h412.9c1.1,0,2,0.9,2,2v90.6
					C890.7,216.8,889.8,217.7,888.7,217.7z"/>
			</defs>
			<clipPath id="SVGID_2_">
				<use xlink:href="#SVGID_1_"  style="overflow:visible;"/>
			</clipPath>
			<g class="st1">
				<g>
					<defs>
						<rect id="SVGID_3_" x="852.6" y="87.2" width="80" height="80"/>
					</defs>
					<clipPath id="SVGID_4_">
						<use xlink:href="#SVGID_3_"  style="overflow:visible;"/>
					</clipPath>
					<path class="st2" d="M917.6,169.5c0.5-0.3,0.9-0.7,1.3-1.1l-3.9-5.8c0.5-0.2,0.9-0.6,1.3-0.9l-3.7-5.6l-3.7,5.6
						c0.4,0.4,0.8,0.7,1.3,0.9l-3.9,5.8c0.4,0.4,0.8,0.8,1.3,1.1l-3.6,5.4c2.2,2.2,5.2,3.6,8.6,3.6c3.4,0,6.4-1.4,8.6-3.6
						L917.6,169.5z"/>
					<path class="st2" d="M877.6,169.5c0.5-0.3,0.9-0.7,1.3-1.1l-3.9-5.8c0.5-0.2,0.9-0.6,1.3-0.9l-3.7-5.6l-3.7,5.6
						c0.4,0.4,0.8,0.7,1.3,0.9l-3.9,5.8c0.4,0.4,0.8,0.8,1.3,1.1l-3.6,5.4c2.2,2.2,5.2,3.6,8.6,3.6c3.4,0,6.4-1.4,8.6-3.6
						L877.6,169.5z"/>
					<path class="st2" d="M937.6,129.5c0.5-0.3,0.9-0.7,1.3-1.1l-3.9-5.8c0.5-0.2,0.9-0.6,1.3-0.9l-3.7-5.6l-3.7,5.6
						c0.4,0.4,0.8,0.7,1.3,0.9l-3.9,5.8c0.4,0.4,0.8,0.8,1.3,1.1l-3.6,5.4c2.2,2.2,5.2,3.6,8.6,3.6c3.4,0,6.4-1.4,8.6-3.6
						L937.6,129.5z"/>
					<path class="st2" d="M897.6,129.5c0.5-0.3,0.9-0.7,1.3-1.1l-3.9-5.8c0.5-0.2,0.9-0.6,1.3-0.9l-3.7-5.6l-3.7,5.6
						c0.4,0.4,0.8,0.7,1.3,0.9l-3.9,5.8c0.4,0.4,0.8,0.8,1.3,1.1l-3.6,5.4c2.2,2.2,5.2,3.6,8.6,3.6c3.4,0,6.4-1.4,8.6-3.6
						L897.6,129.5z"/>
					<path class="st2" d="M857.6,129.5c0.5-0.3,0.9-0.7,1.3-1.1l-3.9-5.8c0.5-0.2,0.9-0.6,1.3-0.9l-3.7-5.6l-3.7,5.6
						c0.4,0.4,0.8,0.7,1.3,0.9l-3.9,5.8c0.4,0.4,0.8,0.8,1.3,1.1l-3.6,5.4c2.2,2.2,5.2,3.6,8.6,3.6c3.4,0,6.4-1.4,8.6-3.6
						L857.6,129.5z"/>
					<path class="st2" d="M917.6,89.5c0.5-0.3,0.9-0.7,1.3-1.1l-3.9-5.8c0.5-0.2,0.9-0.6,1.3-0.9l-3.7-5.6l-3.7,5.6
						c0.4,0.4,0.8,0.7,1.3,0.9l-3.9,5.8c0.4,0.4,0.8,0.8,1.3,1.1l-3.6,5.4c2.2,2.2,5.2,3.6,8.6,3.6c3.4,0,6.4-1.4,8.6-3.6
						L917.6,89.5z"/>
					<path class="st2" d="M877.6,89.5c0.5-0.3,0.9-0.7,1.3-1.1l-3.9-5.8c0.5-0.2,0.9-0.6,1.3-0.9l-3.7-5.6l-3.7,5.6
						c0.4,0.4,0.8,0.7,1.3,0.9l-3.9,5.8c0.4,0.4,0.8,0.8,1.3,1.1l-3.6,5.4c2.2,2.2,5.2,3.6,8.6,3.6c3.4,0,6.4-1.4,8.6-3.6
						L877.6,89.5z"/>
				</g>
			</g>
			<g class="st1">
				<g>
					<defs>
						<rect id="SVGID_5_" x="852.6" y="167.2" width="80" height="80"/>
					</defs>
					<clipPath id="SVGID_6_">
						<use xlink:href="#SVGID_5_"  style="overflow:visible;"/>
					</clipPath>
					<path class="st3" d="M917.6,249.5c0.5-0.3,0.9-0.7,1.3-1.1l-3.9-5.8c0.5-0.2,0.9-0.6,1.3-0.9l-3.7-5.6l-3.7,5.6
						c0.4,0.4,0.8,0.7,1.3,0.9l-3.9,5.8c0.4,0.4,0.8,0.8,1.3,1.1l-3.6,5.4c2.2,2.2,5.2,3.6,8.6,3.6c3.4,0,6.4-1.4,8.6-3.6
						L917.6,249.5z"/>
					<path class="st3" d="M877.6,249.5c0.5-0.3,0.9-0.7,1.3-1.1l-3.9-5.8c0.5-0.2,0.9-0.6,1.3-0.9l-3.7-5.6l-3.7,5.6
						c0.4,0.4,0.8,0.7,1.3,0.9l-3.9,5.8c0.4,0.4,0.8,0.8,1.3,1.1l-3.6,5.4c2.2,2.2,5.2,3.6,8.6,3.6c3.4,0,6.4-1.4,8.6-3.6
						L877.6,249.5z"/>
					<path class="st3" d="M937.6,209.5c0.5-0.3,0.9-0.7,1.3-1.1l-3.9-5.8c0.5-0.2,0.9-0.6,1.3-0.9l-3.7-5.6l-3.7,5.6
						c0.4,0.4,0.8,0.7,1.3,0.9l-3.9,5.8c0.4,0.4,0.8,0.8,1.3,1.1l-3.6,5.4c2.2,2.2,5.2,3.6,8.6,3.6c3.4,0,6.4-1.4,8.6-3.6
						L937.6,209.5z"/>
					<path class="st3" d="M897.6,209.5c0.5-0.3,0.9-0.7,1.3-1.1l-3.9-5.8c0.5-0.2,0.9-0.6,1.3-0.9l-3.7-5.6l-3.7,5.6
						c0.4,0.4,0.8,0.7,1.3,0.9l-3.9,5.8c0.4,0.4,0.8,0.8,1.3,1.1l-3.6,5.4c2.2,2.2,5.2,3.6,8.6,3.6c3.4,0,6.4-1.4,8.6-3.6
						L897.6,209.5z"/>
					<path class="st3" d="M857.6,209.5c0.5-0.3,0.9-0.7,1.3-1.1l-3.9-5.8c0.5-0.2,0.9-0.6,1.3-0.9l-3.7-5.6l-3.7,5.6
						c0.4,0.4,0.8,0.7,1.3,0.9l-3.9,5.8c0.4,0.4,0.8,0.8,1.3,1.1l-3.6,5.4c2.2,2.2,5.2,3.6,8.6,3.6c3.4,0,6.4-1.4,8.6-3.6
						L857.6,209.5z"/>
					<path class="st3" d="M917.6,169.5c0.5-0.3,0.9-0.7,1.3-1.1l-3.9-5.8c0.5-0.2,0.9-0.6,1.3-0.9l-3.7-5.6l-3.7,5.6
						c0.4,0.4,0.8,0.7,1.3,0.9l-3.9,5.8c0.4,0.4,0.8,0.8,1.3,1.1l-3.6,5.4c2.2,2.2,5.2,3.6,8.6,3.6c3.4,0,6.4-1.4,8.6-3.6
						L917.6,169.5z"/>
					<path class="st3" d="M877.6,169.5c0.5-0.3,0.9-0.7,1.3-1.1l-3.9-5.8c0.5-0.2,0.9-0.6,1.3-0.9l-3.7-5.6l-3.7,5.6
						c0.4,0.4,0.8,0.7,1.3,0.9l-3.9,5.8c0.4,0.4,0.8,0.8,1.3,1.1l-3.6,5.4c2.2,2.2,5.2,3.6,8.6,3.6c3.4,0,6.4-1.4,8.6-3.6
						L877.6,169.5z"/>
				</g>
			</g>
			<g class="st1">
				<g>
					<defs>
						<rect id="SVGID_7_" x="772.6" y="87.2" width="80" height="80"/>
					</defs>
					<clipPath id="SVGID_8_">
						<use xlink:href="#SVGID_7_"  style="overflow:visible;"/>
					</clipPath>
					<path class="st4" d="M837.6,169.5c0.5-0.3,0.9-0.7,1.3-1.1l-3.9-5.8c0.5-0.2,0.9-0.6,1.3-0.9l-3.7-5.6l-3.7,5.6
						c0.4,0.4,0.8,0.7,1.3,0.9l-3.9,5.8c0.4,0.4,0.8,0.8,1.3,1.1l-3.6,5.4c2.2,2.2,5.2,3.6,8.6,3.6c3.4,0,6.4-1.4,8.6-3.6
						L837.6,169.5z"/>
					<path class="st4" d="M797.6,169.5c0.5-0.3,0.9-0.7,1.3-1.1l-3.9-5.8c0.5-0.2,0.9-0.6,1.3-0.9l-3.7-5.6l-3.7,5.6
						c0.4,0.4,0.8,0.7,1.3,0.9l-3.9,5.8c0.4,0.4,0.8,0.8,1.3,1.1l-3.6,5.4c2.2,2.2,5.2,3.6,8.6,3.6c3.4,0,6.4-1.4,8.6-3.6
						L797.6,169.5z"/>
					<path class="st4" d="M857.6,129.5c0.5-0.3,0.9-0.7,1.3-1.1l-3.9-5.8c0.5-0.2,0.9-0.6,1.3-0.9l-3.7-5.6l-3.7,5.6
						c0.4,0.4,0.8,0.7,1.3,0.9l-3.9,5.8c0.4,0.4,0.8,0.8,1.3,1.1l-3.6,5.4c2.2,2.2,5.2,3.6,8.6,3.6c3.4,0,6.4-1.4,8.6-3.6
						L857.6,129.5z"/>
					<path class="st4" d="M817.6,129.5c0.5-0.3,0.9-0.7,1.3-1.1l-3.9-5.8c0.5-0.2,0.9-0.6,1.3-0.9l-3.7-5.6l-3.7,5.6
						c0.4,0.4,0.8,0.7,1.3,0.9l-3.9,5.8c0.4,0.4,0.8,0.8,1.3,1.1l-3.6,5.4c2.2,2.2,5.2,3.6,8.6,3.6c3.4,0,6.4-1.4,8.6-3.6
						L817.6,129.5z"/>
					<path class="st4" d="M777.6,129.5c0.5-0.3,0.9-0.7,1.3-1.1l-3.9-5.8c0.5-0.2,0.9-0.6,1.3-0.9l-3.7-5.6l-3.7,5.6
						c0.4,0.4,0.8,0.7,1.3,0.9l-3.9,5.8c0.4,0.4,0.8,0.8,1.3,1.1l-3.6,5.4c2.2,2.2,5.2,3.6,8.6,3.6c3.4,0,6.4-1.4,8.6-3.6
						L777.6,129.5z"/>
					<path class="st4" d="M837.6,89.5c0.5-0.3,0.9-0.7,1.3-1.1l-3.9-5.8c0.5-0.2,0.9-0.6,1.3-0.9l-3.7-5.6l-3.7,5.6
						c0.4,0.4,0.8,0.7,1.3,0.9l-3.9,5.8c0.4,0.4,0.8,0.8,1.3,1.1l-3.6,5.4c2.2,2.2,5.2,3.6,8.6,3.6c3.4,0,6.4-1.4,8.6-3.6
						L837.6,89.5z"/>
					<path class="st4" d="M797.6,89.5c0.5-0.3,0.9-0.7,1.3-1.1l-3.9-5.8c0.5-0.2,0.9-0.6,1.3-0.9l-3.7-5.6l-3.7,5.6
						c0.4,0.4,0.8,0.7,1.3,0.9l-3.9,5.8c0.4,0.4,0.8,0.8,1.3,1.1l-3.6,5.4c2.2,2.2,5.2,3.6,8.6,3.6c3.4,0,6.4-1.4,8.6-3.6
						L797.6,89.5z"/>
				</g>
			</g>
			<g class="st1">
				<g>
					<defs>
						<rect id="SVGID_9_" x="772.6" y="167.2" width="80" height="80"/>
					</defs>
					<clipPath id="SVGID_10_">
						<use xlink:href="#SVGID_9_"  style="overflow:visible;"/>
					</clipPath>
					<path class="st5" d="M837.6,249.5c0.5-0.3,0.9-0.7,1.3-1.1l-3.9-5.8c0.5-0.2,0.9-0.6,1.3-0.9l-3.7-5.6l-3.7,5.6
						c0.4,0.4,0.8,0.7,1.3,0.9l-3.9,5.8c0.4,0.4,0.8,0.8,1.3,1.1l-3.6,5.4c2.2,2.2,5.2,3.6,8.6,3.6c3.4,0,6.4-1.4,8.6-3.6
						L837.6,249.5z"/>
					<path class="st5" d="M797.6,249.5c0.5-0.3,0.9-0.7,1.3-1.1l-3.9-5.8c0.5-0.2,0.9-0.6,1.3-0.9l-3.7-5.6l-3.7,5.6
						c0.4,0.4,0.8,0.7,1.3,0.9l-3.9,5.8c0.4,0.4,0.8,0.8,1.3,1.1l-3.6,5.4c2.2,2.2,5.2,3.6,8.6,3.6c3.4,0,6.4-1.4,8.6-3.6
						L797.6,249.5z"/>
					<path class="st5" d="M857.6,209.5c0.5-0.3,0.9-0.7,1.3-1.1l-3.9-5.8c0.5-0.2,0.9-0.6,1.3-0.9l-3.7-5.6l-3.7,5.6
						c0.4,0.4,0.8,0.7,1.3,0.9l-3.9,5.8c0.4,0.4,0.8,0.8,1.3,1.1l-3.6,5.4c2.2,2.2,5.2,3.6,8.6,3.6c3.4,0,6.4-1.4,8.6-3.6
						L857.6,209.5z"/>
					<path class="st5" d="M817.6,209.5c0.5-0.3,0.9-0.7,1.3-1.1l-3.9-5.8c0.5-0.2,0.9-0.6,1.3-0.9l-3.7-5.6l-3.7,5.6
						c0.4,0.4,0.8,0.7,1.3,0.9l-3.9,5.8c0.4,0.4,0.8,0.8,1.3,1.1l-3.6,5.4c2.2,2.2,5.2,3.6,8.6,3.6c3.4,0,6.4-1.4,8.6-3.6
						L817.6,209.5z"/>
					<path class="st5" d="M777.6,209.5c0.5-0.3,0.9-0.7,1.3-1.1l-3.9-5.8c0.5-0.2,0.9-0.6,1.3-0.9l-3.7-5.6l-3.7,5.6
						c0.4,0.4,0.8,0.7,1.3,0.9l-3.9,5.8c0.4,0.4,0.8,0.8,1.3,1.1l-3.6,5.4c2.2,2.2,5.2,3.6,8.6,3.6c3.4,0,6.4-1.4,8.6-3.6
						L777.6,209.5z"/>
					<path class="st5" d="M837.6,169.5c0.5-0.3,0.9-0.7,1.3-1.1l-3.9-5.8c0.5-0.2,0.9-0.6,1.3-0.9l-3.7-5.6l-3.7,5.6
						c0.4,0.4,0.8,0.7,1.3,0.9l-3.9,5.8c0.4,0.4,0.8,0.8,1.3,1.1l-3.6,5.4c2.2,2.2,5.2,3.6,8.6,3.6c3.4,0,6.4-1.4,8.6-3.6
						L837.6,169.5z"/>
					<path class="st5" d="M797.6,169.5c0.5-0.3,0.9-0.7,1.3-1.1l-3.9-5.8c0.5-0.2,0.9-0.6,1.3-0.9l-3.7-5.6l-3.7,5.6
						c0.4,0.4,0.8,0.7,1.3,0.9l-3.9,5.8c0.4,0.4,0.8,0.8,1.3,1.1l-3.6,5.4c2.2,2.2,5.2,3.6,8.6,3.6c3.4,0,6.4-1.4,8.6-3.6
						L797.6,169.5z"/>
				</g>
			</g>
			<g class="st1">
				<g>
					<defs>
						<rect id="SVGID_11_" x="692.6" y="87.2" width="80" height="80"/>
					</defs>
					<clipPath id="SVGID_12_">
						<use xlink:href="#SVGID_11_"  style="overflow:visible;"/>
					</clipPath>
					<path class="st6" d="M757.6,169.5c0.5-0.3,0.9-0.7,1.3-1.1l-3.9-5.8c0.5-0.2,0.9-0.6,1.3-0.9l-3.7-5.6l-3.7,5.6
						c0.4,0.4,0.8,0.7,1.3,0.9l-3.9,5.8c0.4,0.4,0.8,0.8,1.3,1.1l-3.6,5.4c2.2,2.2,5.2,3.6,8.6,3.6c3.4,0,6.4-1.4,8.6-3.6
						L757.6,169.5z"/>
					<path class="st6" d="M717.6,169.5c0.5-0.3,0.9-0.7,1.3-1.1l-3.9-5.8c0.5-0.2,0.9-0.6,1.3-0.9l-3.7-5.6l-3.7,5.6
						c0.4,0.4,0.8,0.7,1.3,0.9l-3.9,5.8c0.4,0.4,0.8,0.8,1.3,1.1l-3.6,5.4c2.2,2.2,5.2,3.6,8.6,3.6c3.4,0,6.4-1.4,8.6-3.6
						L717.6,169.5z"/>
					<path class="st6" d="M777.6,129.5c0.5-0.3,0.9-0.7,1.3-1.1l-3.9-5.8c0.5-0.2,0.9-0.6,1.3-0.9l-3.7-5.6l-3.7,5.6
						c0.4,0.4,0.8,0.7,1.3,0.9l-3.9,5.8c0.4,0.4,0.8,0.8,1.3,1.1l-3.6,5.4c2.2,2.2,5.2,3.6,8.6,3.6c3.4,0,6.4-1.4,8.6-3.6
						L777.6,129.5z"/>
					<path class="st6" d="M737.6,129.5c0.5-0.3,0.9-0.7,1.3-1.1l-3.9-5.8c0.5-0.2,0.9-0.6,1.3-0.9l-3.7-5.6l-3.7,5.6
						c0.4,0.4,0.8,0.7,1.3,0.9l-3.9,5.8c0.4,0.4,0.8,0.8,1.3,1.1l-3.6,5.4c2.2,2.2,5.2,3.6,8.6,3.6c3.4,0,6.4-1.4,8.6-3.6
						L737.6,129.5z"/>
					<path class="st6" d="M697.6,129.5c0.5-0.3,0.9-0.7,1.3-1.1l-3.9-5.8c0.5-0.2,0.9-0.6,1.3-0.9l-3.7-5.6l-3.7,5.6
						c0.4,0.4,0.8,0.7,1.3,0.9l-3.9,5.8c0.4,0.4,0.8,0.8,1.3,1.1l-3.6,5.4c2.2,2.2,5.2,3.6,8.6,3.6c3.4,0,6.4-1.4,8.6-3.6
						L697.6,129.5z"/>
					<path class="st6" d="M757.6,89.5c0.5-0.3,0.9-0.7,1.3-1.1l-3.9-5.8c0.5-0.2,0.9-0.6,1.3-0.9l-3.7-5.6l-3.7,5.6
						c0.4,0.4,0.8,0.7,1.3,0.9l-3.9,5.8c0.4,0.4,0.8,0.8,1.3,1.1l-3.6,5.4c2.2,2.2,5.2,3.6,8.6,3.6c3.4,0,6.4-1.4,8.6-3.6
						L757.6,89.5z"/>
					<path class="st6" d="M717.6,89.5c0.5-0.3,0.9-0.7,1.3-1.1l-3.9-5.8c0.5-0.2,0.9-0.6,1.3-0.9l-3.7-5.6l-3.7,5.6
						c0.4,0.4,0.8,0.7,1.3,0.9l-3.9,5.8c0.4,0.4,0.8,0.8,1.3,1.1l-3.6,5.4c2.2,2.2,5.2,3.6,8.6,3.6c3.4,0,6.4-1.4,8.6-3.6
						L717.6,89.5z"/>
				</g>
			</g>
			<g class="st1">
				<g>
					<defs>
						<rect id="SVGID_13_" x="692.6" y="167.2" width="80" height="80"/>
					</defs>
					<clipPath id="SVGID_14_">
						<use xlink:href="#SVGID_13_"  style="overflow:visible;"/>
					</clipPath>
					<path class="st7" d="M757.6,249.5c0.5-0.3,0.9-0.7,1.3-1.1l-3.9-5.8c0.5-0.2,0.9-0.6,1.3-0.9l-3.7-5.6l-3.7,5.6
						c0.4,0.4,0.8,0.7,1.3,0.9l-3.9,5.8c0.4,0.4,0.8,0.8,1.3,1.1l-3.6,5.4c2.2,2.2,5.2,3.6,8.6,3.6c3.4,0,6.4-1.4,8.6-3.6
						L757.6,249.5z"/>
					<path class="st7" d="M717.6,249.5c0.5-0.3,0.9-0.7,1.3-1.1l-3.9-5.8c0.5-0.2,0.9-0.6,1.3-0.9l-3.7-5.6l-3.7,5.6
						c0.4,0.4,0.8,0.7,1.3,0.9l-3.9,5.8c0.4,0.4,0.8,0.8,1.3,1.1l-3.6,5.4c2.2,2.2,5.2,3.6,8.6,3.6c3.4,0,6.4-1.4,8.6-3.6
						L717.6,249.5z"/>
					<path class="st7" d="M777.6,209.5c0.5-0.3,0.9-0.7,1.3-1.1l-3.9-5.8c0.5-0.2,0.9-0.6,1.3-0.9l-3.7-5.6l-3.7,5.6
						c0.4,0.4,0.8,0.7,1.3,0.9l-3.9,5.8c0.4,0.4,0.8,0.8,1.3,1.1l-3.6,5.4c2.2,2.2,5.2,3.6,8.6,3.6c3.4,0,6.4-1.4,8.6-3.6
						L777.6,209.5z"/>
					<path class="st7" d="M737.6,209.5c0.5-0.3,0.9-0.7,1.3-1.1l-3.9-5.8c0.5-0.2,0.9-0.6,1.3-0.9l-3.7-5.6l-3.7,5.6
						c0.4,0.4,0.8,0.7,1.3,0.9l-3.9,5.8c0.4,0.4,0.8,0.8,1.3,1.1l-3.6,5.4c2.2,2.2,5.2,3.6,8.6,3.6c3.4,0,6.4-1.4,8.6-3.6
						L737.6,209.5z"/>
					<path class="st7" d="M697.6,209.5c0.5-0.3,0.9-0.7,1.3-1.1l-3.9-5.8c0.5-0.2,0.9-0.6,1.3-0.9l-3.7-5.6l-3.7,5.6
						c0.4,0.4,0.8,0.7,1.3,0.9l-3.9,5.8c0.4,0.4,0.8,0.8,1.3,1.1l-3.6,5.4c2.2,2.2,5.2,3.6,8.6,3.6c3.4,0,6.4-1.4,8.6-3.6
						L697.6,209.5z"/>
					<path class="st7" d="M757.6,169.5c0.5-0.3,0.9-0.7,1.3-1.1l-3.9-5.8c0.5-0.2,0.9-0.6,1.3-0.9l-3.7-5.6l-3.7,5.6
						c0.4,0.4,0.8,0.7,1.3,0.9l-3.9,5.8c0.4,0.4,0.8,0.8,1.3,1.1l-3.6,5.4c2.2,2.2,5.2,3.6,8.6,3.6c3.4,0,6.4-1.4,8.6-3.6
						L757.6,169.5z"/>
					<path class="st7" d="M717.6,169.5c0.5-0.3,0.9-0.7,1.3-1.1l-3.9-5.8c0.5-0.2,0.9-0.6,1.3-0.9l-3.7-5.6l-3.7,5.6
						c0.4,0.4,0.8,0.7,1.3,0.9l-3.9,5.8c0.4,0.4,0.8,0.8,1.3,1.1l-3.6,5.4c2.2,2.2,5.2,3.6,8.6,3.6c3.4,0,6.4-1.4,8.6-3.6
						L717.6,169.5z"/>
				</g>
			</g>
			<g class="st1">
				<g>
					<defs>
						<rect id="SVGID_15_" x="612.6" y="87.2" width="80" height="80"/>
					</defs>
					<clipPath id="SVGID_16_">
						<use xlink:href="#SVGID_15_"  style="overflow:visible;"/>
					</clipPath>
					<path class="st8" d="M677.6,169.5c0.5-0.3,0.9-0.7,1.3-1.1l-3.9-5.8c0.5-0.2,0.9-0.6,1.3-0.9l-3.7-5.6l-3.7,5.6
						c0.4,0.4,0.8,0.7,1.3,0.9l-3.9,5.8c0.4,0.4,0.8,0.8,1.3,1.1l-3.6,5.4c2.2,2.2,5.2,3.6,8.6,3.6c3.4,0,6.4-1.4,8.6-3.6
						L677.6,169.5z"/>
					<path class="st8" d="M637.6,169.5c0.5-0.3,0.9-0.7,1.3-1.1l-3.9-5.8c0.5-0.2,0.9-0.6,1.3-0.9l-3.7-5.6l-3.7,5.6
						c0.4,0.4,0.8,0.7,1.3,0.9l-3.9,5.8c0.4,0.4,0.8,0.8,1.3,1.1l-3.6,5.4c2.2,2.2,5.2,3.6,8.6,3.6c3.4,0,6.4-1.4,8.6-3.6
						L637.6,169.5z"/>
					<path class="st8" d="M697.6,129.5c0.5-0.3,0.9-0.7,1.3-1.1l-3.9-5.8c0.5-0.2,0.9-0.6,1.3-0.9l-3.7-5.6l-3.7,5.6
						c0.4,0.4,0.8,0.7,1.3,0.9l-3.9,5.8c0.4,0.4,0.8,0.8,1.3,1.1l-3.6,5.4c2.2,2.2,5.2,3.6,8.6,3.6c3.4,0,6.4-1.4,8.6-3.6
						L697.6,129.5z"/>
					<path class="st8" d="M657.6,129.5c0.5-0.3,0.9-0.7,1.3-1.1l-3.9-5.8c0.5-0.2,0.9-0.6,1.3-0.9l-3.7-5.6l-3.7,5.6
						c0.4,0.4,0.8,0.7,1.3,0.9l-3.9,5.8c0.4,0.4,0.8,0.8,1.3,1.1l-3.6,5.4c2.2,2.2,5.2,3.6,8.6,3.6c3.4,0,6.4-1.4,8.6-3.6
						L657.6,129.5z"/>
					<path class="st8" d="M617.6,129.5c0.5-0.3,0.9-0.7,1.3-1.1l-3.9-5.8c0.5-0.2,0.9-0.6,1.3-0.9l-3.7-5.6l-3.7,5.6
						c0.4,0.4,0.8,0.7,1.3,0.9l-3.9,5.8c0.4,0.4,0.8,0.8,1.3,1.1l-3.6,5.4c2.2,2.2,5.2,3.6,8.6,3.6c3.4,0,6.4-1.4,8.6-3.6
						L617.6,129.5z"/>
					<path class="st8" d="M677.6,89.5c0.5-0.3,0.9-0.7,1.3-1.1l-3.9-5.8c0.5-0.2,0.9-0.6,1.3-0.9l-3.7-5.6l-3.7,5.6
						c0.4,0.4,0.8,0.7,1.3,0.9l-3.9,5.8c0.4,0.4,0.8,0.8,1.3,1.1l-3.6,5.4c2.2,2.2,5.2,3.6,8.6,3.6c3.4,0,6.4-1.4,8.6-3.6
						L677.6,89.5z"/>
					<path class="st8" d="M637.6,89.5c0.5-0.3,0.9-0.7,1.3-1.1l-3.9-5.8c0.5-0.2,0.9-0.6,1.3-0.9l-3.7-5.6l-3.7,5.6
						c0.4,0.4,0.8,0.7,1.3,0.9l-3.9,5.8c0.4,0.4,0.8,0.8,1.3,1.1l-3.6,5.4c2.2,2.2,5.2,3.6,8.6,3.6c3.4,0,6.4-1.4,8.6-3.6
						L637.6,89.5z"/>
				</g>
			</g>
			<g class="st1">
				<g>
					<defs>
						<rect id="SVGID_17_" x="612.6" y="167.2" width="80" height="80"/>
					</defs>
					<clipPath id="SVGID_18_">
						<use xlink:href="#SVGID_17_"  style="overflow:visible;"/>
					</clipPath>
					<path class="st9" d="M677.6,249.5c0.5-0.3,0.9-0.7,1.3-1.1l-3.9-5.8c0.5-0.2,0.9-0.6,1.3-0.9l-3.7-5.6l-3.7,5.6
						c0.4,0.4,0.8,0.7,1.3,0.9l-3.9,5.8c0.4,0.4,0.8,0.8,1.3,1.1l-3.6,5.4c2.2,2.2,5.2,3.6,8.6,3.6c3.4,0,6.4-1.4,8.6-3.6
						L677.6,249.5z"/>
					<path class="st9" d="M637.6,249.5c0.5-0.3,0.9-0.7,1.3-1.1l-3.9-5.8c0.5-0.2,0.9-0.6,1.3-0.9l-3.7-5.6l-3.7,5.6
						c0.4,0.4,0.8,0.7,1.3,0.9l-3.9,5.8c0.4,0.4,0.8,0.8,1.3,1.1l-3.6,5.4c2.2,2.2,5.2,3.6,8.6,3.6c3.4,0,6.4-1.4,8.6-3.6
						L637.6,249.5z"/>
					<path class="st9" d="M697.6,209.5c0.5-0.3,0.9-0.7,1.3-1.1l-3.9-5.8c0.5-0.2,0.9-0.6,1.3-0.9l-3.7-5.6l-3.7,5.6
						c0.4,0.4,0.8,0.7,1.3,0.9l-3.9,5.8c0.4,0.4,0.8,0.8,1.3,1.1l-3.6,5.4c2.2,2.2,5.2,3.6,8.6,3.6c3.4,0,6.4-1.4,8.6-3.6
						L697.6,209.5z"/>
					<path class="st9" d="M657.6,209.5c0.5-0.3,0.9-0.7,1.3-1.1l-3.9-5.8c0.5-0.2,0.9-0.6,1.3-0.9l-3.7-5.6l-3.7,5.6
						c0.4,0.4,0.8,0.7,1.3,0.9l-3.9,5.8c0.4,0.4,0.8,0.8,1.3,1.1l-3.6,5.4c2.2,2.2,5.2,3.6,8.6,3.6c3.4,0,6.4-1.4,8.6-3.6
						L657.6,209.5z"/>
					<path class="st9" d="M617.6,209.5c0.5-0.3,0.9-0.7,1.3-1.1l-3.9-5.8c0.5-0.2,0.9-0.6,1.3-0.9l-3.7-5.6l-3.7,5.6
						c0.4,0.4,0.8,0.7,1.3,0.9l-3.9,5.8c0.4,0.4,0.8,0.8,1.3,1.1l-3.6,5.4c2.2,2.2,5.2,3.6,8.6,3.6c3.4,0,6.4-1.4,8.6-3.6
						L617.6,209.5z"/>
					<path class="st9" d="M677.6,169.5c0.5-0.3,0.9-0.7,1.3-1.1l-3.9-5.8c0.5-0.2,0.9-0.6,1.3-0.9l-3.7-5.6l-3.7,5.6
						c0.4,0.4,0.8,0.7,1.3,0.9l-3.9,5.8c0.4,0.4,0.8,0.8,1.3,1.1l-3.6,5.4c2.2,2.2,5.2,3.6,8.6,3.6c3.4,0,6.4-1.4,8.6-3.6
						L677.6,169.5z"/>
					<path class="st9" d="M637.6,169.5c0.5-0.3,0.9-0.7,1.3-1.1l-3.9-5.8c0.5-0.2,0.9-0.6,1.3-0.9l-3.7-5.6l-3.7,5.6
						c0.4,0.4,0.8,0.7,1.3,0.9l-3.9,5.8c0.4,0.4,0.8,0.8,1.3,1.1l-3.6,5.4c2.2,2.2,5.2,3.6,8.6,3.6c3.4,0,6.4-1.4,8.6-3.6
						L637.6,169.5z"/>
				</g>
			</g>
			<g class="st1">
				<g>
					<defs>
						<rect id="SVGID_19_" x="532.6" y="87.2" width="80" height="80"/>
					</defs>
					<clipPath id="SVGID_20_">
						<use xlink:href="#SVGID_19_"  style="overflow:visible;"/>
					</clipPath>
					<path class="st10" d="M597.6,169.5c0.5-0.3,0.9-0.7,1.3-1.1l-3.9-5.8c0.5-0.2,0.9-0.6,1.3-0.9l-3.7-5.6l-3.7,5.6
						c0.4,0.4,0.8,0.7,1.3,0.9l-3.9,5.8c0.4,0.4,0.8,0.8,1.3,1.1l-3.6,5.4c2.2,2.2,5.2,3.6,8.6,3.6c3.4,0,6.4-1.4,8.6-3.6
						L597.6,169.5z"/>
					<path class="st10" d="M557.6,169.5c0.5-0.3,0.9-0.7,1.3-1.1l-3.9-5.8c0.5-0.2,0.9-0.6,1.3-0.9l-3.7-5.6l-3.7,5.6
						c0.4,0.4,0.8,0.7,1.3,0.9l-3.9,5.8c0.4,0.4,0.8,0.8,1.3,1.1l-3.6,5.4c2.2,2.2,5.2,3.6,8.6,3.6c3.4,0,6.4-1.4,8.6-3.6
						L557.6,169.5z"/>
					<path class="st10" d="M617.6,129.5c0.5-0.3,0.9-0.7,1.3-1.1l-3.9-5.8c0.5-0.2,0.9-0.6,1.3-0.9l-3.7-5.6l-3.7,5.6
						c0.4,0.4,0.8,0.7,1.3,0.9l-3.9,5.8c0.4,0.4,0.8,0.8,1.3,1.1l-3.6,5.4c2.2,2.2,5.2,3.6,8.6,3.6c3.4,0,6.4-1.4,8.6-3.6
						L617.6,129.5z"/>
					<path class="st10" d="M577.6,129.5c0.5-0.3,0.9-0.7,1.3-1.1l-3.9-5.8c0.5-0.2,0.9-0.6,1.3-0.9l-3.7-5.6l-3.7,5.6
						c0.4,0.4,0.8,0.7,1.3,0.9l-3.9,5.8c0.4,0.4,0.8,0.8,1.3,1.1l-3.6,5.4c2.2,2.2,5.2,3.6,8.6,3.6c3.4,0,6.4-1.4,8.6-3.6
						L577.6,129.5z"/>
					<path class="st10" d="M537.6,129.5c0.5-0.3,0.9-0.7,1.3-1.1l-3.9-5.8c0.5-0.2,0.9-0.6,1.3-0.9l-3.7-5.6l-3.7,5.6
						c0.4,0.4,0.8,0.7,1.3,0.9l-3.9,5.8c0.4,0.4,0.8,0.8,1.3,1.1l-3.6,5.4c2.2,2.2,5.2,3.6,8.6,3.6c3.4,0,6.4-1.4,8.6-3.6
						L537.6,129.5z"/>
					<path class="st10" d="M597.6,89.5c0.5-0.3,0.9-0.7,1.3-1.1l-3.9-5.8c0.5-0.2,0.9-0.6,1.3-0.9l-3.7-5.6l-3.7,5.6
						c0.4,0.4,0.8,0.7,1.3,0.9l-3.9,5.8c0.4,0.4,0.8,0.8,1.3,1.1l-3.6,5.4c2.2,2.2,5.2,3.6,8.6,3.6c3.4,0,6.4-1.4,8.6-3.6
						L597.6,89.5z"/>
					<path class="st10" d="M557.6,89.5c0.5-0.3,0.9-0.7,1.3-1.1l-3.9-5.8c0.5-0.2,0.9-0.6,1.3-0.9l-3.7-5.6l-3.7,5.6
						c0.4,0.4,0.8,0.7,1.3,0.9l-3.9,5.8c0.4,0.4,0.8,0.8,1.3,1.1l-3.6,5.4c2.2,2.2,5.2,3.6,8.6,3.6c3.4,0,6.4-1.4,8.6-3.6
						L557.6,89.5z"/>
				</g>
			</g>
			<g class="st1">
				<g>
					<defs>
						<rect id="SVGID_21_" x="532.6" y="167.2" width="80" height="80"/>
					</defs>
					<clipPath id="SVGID_22_">
						<use xlink:href="#SVGID_21_"  style="overflow:visible;"/>
					</clipPath>
					<path class="st11" d="M597.6,249.5c0.5-0.3,0.9-0.7,1.3-1.1l-3.9-5.8c0.5-0.2,0.9-0.6,1.3-0.9l-3.7-5.6l-3.7,5.6
						c0.4,0.4,0.8,0.7,1.3,0.9l-3.9,5.8c0.4,0.4,0.8,0.8,1.3,1.1l-3.6,5.4c2.2,2.2,5.2,3.6,8.6,3.6c3.4,0,6.4-1.4,8.6-3.6
						L597.6,249.5z"/>
					<path class="st11" d="M557.6,249.5c0.5-0.3,0.9-0.7,1.3-1.1l-3.9-5.8c0.5-0.2,0.9-0.6,1.3-0.9l-3.7-5.6l-3.7,5.6
						c0.4,0.4,0.8,0.7,1.3,0.9l-3.9,5.8c0.4,0.4,0.8,0.8,1.3,1.1l-3.6,5.4c2.2,2.2,5.2,3.6,8.6,3.6c3.4,0,6.4-1.4,8.6-3.6
						L557.6,249.5z"/>
					<path class="st11" d="M617.6,209.5c0.5-0.3,0.9-0.7,1.3-1.1l-3.9-5.8c0.5-0.2,0.9-0.6,1.3-0.9l-3.7-5.6l-3.7,5.6
						c0.4,0.4,0.8,0.7,1.3,0.9l-3.9,5.8c0.4,0.4,0.8,0.8,1.3,1.1l-3.6,5.4c2.2,2.2,5.2,3.6,8.6,3.6c3.4,0,6.4-1.4,8.6-3.6
						L617.6,209.5z"/>
					<path class="st11" d="M577.6,209.5c0.5-0.3,0.9-0.7,1.3-1.1l-3.9-5.8c0.5-0.2,0.9-0.6,1.3-0.9l-3.7-5.6l-3.7,5.6
						c0.4,0.4,0.8,0.7,1.3,0.9l-3.9,5.8c0.4,0.4,0.8,0.8,1.3,1.1l-3.6,5.4c2.2,2.2,5.2,3.6,8.6,3.6c3.4,0,6.4-1.4,8.6-3.6
						L577.6,209.5z"/>
					<path class="st11" d="M537.6,209.5c0.5-0.3,0.9-0.7,1.3-1.1l-3.9-5.8c0.5-0.2,0.9-0.6,1.3-0.9l-3.7-5.6l-3.7,5.6
						c0.4,0.4,0.8,0.7,1.3,0.9l-3.9,5.8c0.4,0.4,0.8,0.8,1.3,1.1l-3.6,5.4c2.2,2.2,5.2,3.6,8.6,3.6c3.4,0,6.4-1.4,8.6-3.6
						L537.6,209.5z"/>
					<path class="st11" d="M597.6,169.5c0.5-0.3,0.9-0.7,1.3-1.1l-3.9-5.8c0.5-0.2,0.9-0.6,1.3-0.9l-3.7-5.6l-3.7,5.6
						c0.4,0.4,0.8,0.7,1.3,0.9l-3.9,5.8c0.4,0.4,0.8,0.8,1.3,1.1l-3.6,5.4c2.2,2.2,5.2,3.6,8.6,3.6c3.4,0,6.4-1.4,8.6-3.6
						L597.6,169.5z"/>
					<path class="st11" d="M557.6,169.5c0.5-0.3,0.9-0.7,1.3-1.1l-3.9-5.8c0.5-0.2,0.9-0.6,1.3-0.9l-3.7-5.6l-3.7,5.6
						c0.4,0.4,0.8,0.7,1.3,0.9l-3.9,5.8c0.4,0.4,0.8,0.8,1.3,1.1l-3.6,5.4c2.2,2.2,5.2,3.6,8.6,3.6c3.4,0,6.4-1.4,8.6-3.6
						L557.6,169.5z"/>
				</g>
			</g>
			<g class="st1">
				<g>
					<defs>
						<rect id="SVGID_23_" x="452.6" y="87.2" width="80" height="80"/>
					</defs>
					<clipPath id="SVGID_24_">
						<use xlink:href="#SVGID_23_"  style="overflow:visible;"/>
					</clipPath>
					<path class="st12" d="M517.6,169.5c0.5-0.3,0.9-0.7,1.3-1.1l-3.9-5.8c0.5-0.2,0.9-0.6,1.3-0.9l-3.7-5.6l-3.7,5.6
						c0.4,0.4,0.8,0.7,1.3,0.9l-3.9,5.8c0.4,0.4,0.8,0.8,1.3,1.1l-3.6,5.4c2.2,2.2,5.2,3.6,8.6,3.6c3.4,0,6.4-1.4,8.6-3.6
						L517.6,169.5z"/>
					<path class="st12" d="M477.6,169.5c0.5-0.3,0.9-0.7,1.3-1.1l-3.9-5.8c0.5-0.2,0.9-0.6,1.3-0.9l-3.7-5.6l-3.7,5.6
						c0.4,0.4,0.8,0.7,1.3,0.9l-3.9,5.8c0.4,0.4,0.8,0.8,1.3,1.1l-3.6,5.4c2.2,2.2,5.2,3.6,8.6,3.6s6.4-1.4,8.6-3.6L477.6,169.5z"/>
					<path class="st12" d="M537.6,129.5c0.5-0.3,0.9-0.7,1.3-1.1l-3.9-5.8c0.5-0.2,0.9-0.6,1.3-0.9l-3.7-5.6l-3.7,5.6
						c0.4,0.4,0.8,0.7,1.3,0.9l-3.9,5.8c0.4,0.4,0.8,0.8,1.3,1.1l-3.6,5.4c2.2,2.2,5.2,3.6,8.6,3.6c3.4,0,6.4-1.4,8.6-3.6
						L537.6,129.5z"/>
					<path class="st12" d="M497.6,129.5c0.5-0.3,0.9-0.7,1.3-1.1l-3.9-5.8c0.5-0.2,0.9-0.6,1.3-0.9l-3.7-5.6l-3.7,5.6
						c0.4,0.4,0.8,0.7,1.3,0.9l-3.9,5.8c0.4,0.4,0.8,0.8,1.3,1.1l-3.6,5.4c2.2,2.2,5.2,3.6,8.6,3.6s6.4-1.4,8.6-3.6L497.6,129.5z"/>
					<path class="st12" d="M457.6,129.5c0.5-0.3,0.9-0.7,1.3-1.1l-3.9-5.8c0.5-0.2,0.9-0.6,1.3-0.9l-3.7-5.6l-3.7,5.6
						c0.4,0.4,0.8,0.7,1.3,0.9l-3.9,5.8c0.4,0.4,0.8,0.8,1.3,1.1l-3.6,5.4c2.2,2.2,5.2,3.6,8.6,3.6s6.4-1.4,8.6-3.6L457.6,129.5z"/>
					<path class="st12" d="M517.6,89.5c0.5-0.3,0.9-0.7,1.3-1.1l-3.9-5.8c0.5-0.2,0.9-0.6,1.3-0.9l-3.7-5.6l-3.7,5.6
						c0.4,0.4,0.8,0.7,1.3,0.9l-3.9,5.8c0.4,0.4,0.8,0.8,1.3,1.1l-3.6,5.4c2.2,2.2,5.2,3.6,8.6,3.6c3.4,0,6.4-1.4,8.6-3.6
						L517.6,89.5z"/>
					<path class="st12" d="M477.6,89.5c0.5-0.3,0.9-0.7,1.3-1.1l-3.9-5.8c0.5-0.2,0.9-0.6,1.3-0.9l-3.7-5.6l-3.7,5.6
						c0.4,0.4,0.8,0.7,1.3,0.9l-3.9,5.8c0.4,0.4,0.8,0.8,1.3,1.1l-3.6,5.4c2.2,2.2,5.2,3.6,8.6,3.6s6.4-1.4,8.6-3.6L477.6,89.5z"/>
				</g>
			</g>
			<g class="st1">
				<g>
					<defs>
						<rect id="SVGID_25_" x="452.6" y="167.2" width="80" height="80"/>
					</defs>
					<clipPath id="SVGID_26_">
						<use xlink:href="#SVGID_25_"  style="overflow:visible;"/>
					</clipPath>
					<path class="st13" d="M517.6,249.5c0.5-0.3,0.9-0.7,1.3-1.1l-3.9-5.8c0.5-0.2,0.9-0.6,1.3-0.9l-3.7-5.6l-3.7,5.6
						c0.4,0.4,0.8,0.7,1.3,0.9l-3.9,5.8c0.4,0.4,0.8,0.8,1.3,1.1l-3.6,5.4c2.2,2.2,5.2,3.6,8.6,3.6c3.4,0,6.4-1.4,8.6-3.6
						L517.6,249.5z"/>
					<path class="st13" d="M477.6,249.5c0.5-0.3,0.9-0.7,1.3-1.1l-3.9-5.8c0.5-0.2,0.9-0.6,1.3-0.9l-3.7-5.6l-3.7,5.6
						c0.4,0.4,0.8,0.7,1.3,0.9l-3.9,5.8c0.4,0.4,0.8,0.8,1.3,1.1l-3.6,5.4c2.2,2.2,5.2,3.6,8.6,3.6s6.4-1.4,8.6-3.6L477.6,249.5z"/>
					<path class="st13" d="M537.6,209.5c0.5-0.3,0.9-0.7,1.3-1.1l-3.9-5.8c0.5-0.2,0.9-0.6,1.3-0.9l-3.7-5.6l-3.7,5.6
						c0.4,0.4,0.8,0.7,1.3,0.9l-3.9,5.8c0.4,0.4,0.8,0.8,1.3,1.1l-3.6,5.4c2.2,2.2,5.2,3.6,8.6,3.6c3.4,0,6.4-1.4,8.6-3.6
						L537.6,209.5z"/>
					<path class="st13" d="M497.6,209.5c0.5-0.3,0.9-0.7,1.3-1.1l-3.9-5.8c0.5-0.2,0.9-0.6,1.3-0.9l-3.7-5.6l-3.7,5.6
						c0.4,0.4,0.8,0.7,1.3,0.9l-3.9,5.8c0.4,0.4,0.8,0.8,1.3,1.1l-3.6,5.4c2.2,2.2,5.2,3.6,8.6,3.6s6.4-1.4,8.6-3.6L497.6,209.5z"/>
					<path class="st13" d="M457.6,209.5c0.5-0.3,0.9-0.7,1.3-1.1l-3.9-5.8c0.5-0.2,0.9-0.6,1.3-0.9l-3.7-5.6l-3.7,5.6
						c0.4,0.4,0.8,0.7,1.3,0.9l-3.9,5.8c0.4,0.4,0.8,0.8,1.3,1.1l-3.6,5.4c2.2,2.2,5.2,3.6,8.6,3.6s6.4-1.4,8.6-3.6L457.6,209.5z"/>
					<path class="st13" d="M517.6,169.5c0.5-0.3,0.9-0.7,1.3-1.1l-3.9-5.8c0.5-0.2,0.9-0.6,1.3-0.9l-3.7-5.6l-3.7,5.6
						c0.4,0.4,0.8,0.7,1.3,0.9l-3.9,5.8c0.4,0.4,0.8,0.8,1.3,1.1l-3.6,5.4c2.2,2.2,5.2,3.6,8.6,3.6c3.4,0,6.4-1.4,8.6-3.6
						L517.6,169.5z"/>
					<path class="st13" d="M477.6,169.5c0.5-0.3,0.9-0.7,1.3-1.1l-3.9-5.8c0.5-0.2,0.9-0.6,1.3-0.9l-3.7-5.6l-3.7,5.6
						c0.4,0.4,0.8,0.7,1.3,0.9l-3.9,5.8c0.4,0.4,0.8,0.8,1.3,1.1l-3.6,5.4c2.2,2.2,5.2,3.6,8.6,3.6s6.4-1.4,8.6-3.6L477.6,169.5z"/>
				</g>
			</g>
		</g>
	</g>
	<g>
		<line class="st14" x1="682.3" y1="217.7" x2="682.3" y2="124.2"/>
		<rect x="662.3" y="124.2" class="st15" width="40" height="93.6"/>
	</g>
	<g>
		<path class="st15" d="M666.6,124.6c-18.9,0-71.5-1.8-90.6-21.3c-23.6-24-23.2-62.8,0.8-86.4c24-23.6,62.8-23.2,86.4,0.8
			c22.2,22.6,19.7,89.7,19.4,97.2l-0.4,9.3l-9.3,0.3C671.8,124.6,669.6,124.6,666.6,124.6z M619.6,19.5c-10.4,0-20.8,3.9-28.8,11.7
			c-16.2,15.9-16.4,41.9-0.6,58.1c10.8,11,46.9,15,72.5,15.3c0.2-25.7-3.2-61.9-13.9-72.8C640.9,23.6,630.2,19.5,619.6,19.5z"/>
	</g>
	<g>
		<path class="st15" d="M702,125c-6.2,0-10.7-0.2-12.3-0.3l-9.3-0.4l-0.3-9.3c-0.2-7.6-1.4-74.7,21.2-96.8l0,0
			c24-23.6,62.8-23.2,86.4,0.8c11.4,11.6,17.6,27,17.5,43.4s-6.7,31.6-18.3,43C769.3,122.7,724.4,125,702,125z M700.1,105
			c25.7,0.1,61.9-3.2,72.8-13.9c7.8-7.7,12.2-18,12.3-28.9c0.1-11-4.1-21.3-11.7-29.2c-15.9-16.2-41.9-16.4-58.1-0.6l0,0
			C704.5,43.2,700.4,79.3,700.1,105z"/>
	</g>
</g>
<g>
	<path class="st16" d="M872.9,486.3H491.8c-1,0-1.7-0.8-1.7-1.7V217.7h384.6v266.8C874.6,485.5,873.8,486.3,872.9,486.3z"/>
	<g>
		<g>
			<defs>
				<path id="SVGID_27_" d="M872.9,486.3H491.8c-1,0-1.7-0.8-1.7-1.7V217.7h384.6v266.8C874.6,485.5,873.8,486.3,872.9,486.3z"/>
			</defs>
			<clipPath id="SVGID_28_">
				<use xlink:href="#SVGID_27_"  style="overflow:visible;"/>
			</clipPath>
			<g class="st17">
				<g>
					<defs>
						<rect id="SVGID_29_" x="852.6" y="167.2" width="80" height="80"/>
					</defs>
					<clipPath id="SVGID_30_">
						<use xlink:href="#SVGID_29_"  style="overflow:visible;"/>
					</clipPath>
					<path class="st18" d="M917.6,249.5c0.5-0.3,0.9-0.7,1.3-1.1l-3.9-5.8c0.5-0.2,0.9-0.6,1.3-0.9l-3.7-5.6l-3.7,5.6
						c0.4,0.4,0.8,0.7,1.3,0.9l-3.9,5.8c0.4,0.4,0.8,0.8,1.3,1.1l-3.6,5.4c2.2,2.2,5.2,3.6,8.6,3.6c3.4,0,6.4-1.4,8.6-3.6
						L917.6,249.5z"/>
					<path class="st18" d="M877.6,249.5c0.5-0.3,0.9-0.7,1.3-1.1l-3.9-5.8c0.5-0.2,0.9-0.6,1.3-0.9l-3.7-5.6l-3.7,5.6
						c0.4,0.4,0.8,0.7,1.3,0.9l-3.9,5.8c0.4,0.4,0.8,0.8,1.3,1.1l-3.6,5.4c2.2,2.2,5.2,3.6,8.6,3.6c3.4,0,6.4-1.4,8.6-3.6
						L877.6,249.5z"/>
					<path class="st18" d="M937.6,209.5c0.5-0.3,0.9-0.7,1.3-1.1l-3.9-5.8c0.5-0.2,0.9-0.6,1.3-0.9l-3.7-5.6l-3.7,5.6
						c0.4,0.4,0.8,0.7,1.3,0.9l-3.9,5.8c0.4,0.4,0.8,0.8,1.3,1.1l-3.6,5.4c2.2,2.2,5.2,3.6,8.6,3.6c3.4,0,6.4-1.4,8.6-3.6
						L937.6,209.5z"/>
					<path class="st18" d="M897.6,209.5c0.5-0.3,0.9-0.7,1.3-1.1l-3.9-5.8c0.5-0.2,0.9-0.6,1.3-0.9l-3.7-5.6l-3.7,5.6
						c0.4,0.4,0.8,0.7,1.3,0.9l-3.9,5.8c0.4,0.4,0.8,0.8,1.3,1.1l-3.6,5.4c2.2,2.2,5.2,3.6,8.6,3.6c3.4,0,6.4-1.4,8.6-3.6
						L897.6,209.5z"/>
					<path class="st18" d="M857.6,209.5c0.5-0.3,0.9-0.7,1.3-1.1l-3.9-5.8c0.5-0.2,0.9-0.6,1.3-0.9l-3.7-5.6l-3.7,5.6
						c0.4,0.4,0.8,0.7,1.3,0.9l-3.9,5.8c0.4,0.4,0.8,0.8,1.3,1.1l-3.6,5.4c2.2,2.2,5.2,3.6,8.6,3.6c3.4,0,6.4-1.4,8.6-3.6
						L857.6,209.5z"/>
					<path class="st18" d="M917.6,169.5c0.5-0.3,0.9-0.7,1.3-1.1l-3.9-5.8c0.5-0.2,0.9-0.6,1.3-0.9l-3.7-5.6l-3.7,5.6
						c0.4,0.4,0.8,0.7,1.3,0.9l-3.9,5.8c0.4,0.4,0.8,0.8,1.3,1.1l-3.6,5.4c2.2,2.2,5.2,3.6,8.6,3.6c3.4,0,6.4-1.4,8.6-3.6
						L917.6,169.5z"/>
					<path class="st18" d="M877.6,169.5c0.5-0.3,0.9-0.7,1.3-1.1l-3.9-5.8c0.5-0.2,0.9-0.6,1.3-0.9l-3.7-5.6l-3.7,5.6
						c0.4,0.4,0.8,0.7,1.3,0.9l-3.9,5.8c0.4,0.4,0.8,0.8,1.3,1.1l-3.6,5.4c2.2,2.2,5.2,3.6,8.6,3.6c3.4,0,6.4-1.4,8.6-3.6
						L877.6,169.5z"/>
				</g>
			</g>
			<g class="st17">
				<g>
					<defs>
						<rect id="SVGID_31_" x="852.6" y="247.2" width="80" height="80"/>
					</defs>
					<clipPath id="SVGID_32_">
						<use xlink:href="#SVGID_31_"  style="overflow:visible;"/>
					</clipPath>
					<path class="st19" d="M917.6,329.5c0.5-0.3,0.9-0.7,1.3-1.1l-3.9-5.8c0.5-0.2,0.9-0.6,1.3-0.9l-3.7-5.6l-3.7,5.6
						c0.4,0.4,0.8,0.7,1.3,0.9l-3.9,5.8c0.4,0.4,0.8,0.8,1.3,1.1l-3.6,5.4c2.2,2.2,5.2,3.6,8.6,3.6c3.4,0,6.4-1.4,8.6-3.6
						L917.6,329.5z"/>
					<path class="st19" d="M877.6,329.5c0.5-0.3,0.9-0.7,1.3-1.1l-3.9-5.8c0.5-0.2,0.9-0.6,1.3-0.9l-3.7-5.6l-3.7,5.6
						c0.4,0.4,0.8,0.7,1.3,0.9l-3.9,5.8c0.4,0.4,0.8,0.8,1.3,1.1l-3.6,5.4c2.2,2.2,5.2,3.6,8.6,3.6c3.4,0,6.4-1.4,8.6-3.6
						L877.6,329.5z"/>
					<path class="st19" d="M937.6,289.5c0.5-0.3,0.9-0.7,1.3-1.1l-3.9-5.8c0.5-0.2,0.9-0.6,1.3-0.9l-3.7-5.6l-3.7,5.6
						c0.4,0.4,0.8,0.7,1.3,0.9l-3.9,5.8c0.4,0.4,0.8,0.8,1.3,1.1l-3.6,5.4c2.2,2.2,5.2,3.6,8.6,3.6c3.4,0,6.4-1.4,8.6-3.6
						L937.6,289.5z"/>
					<path class="st19" d="M897.6,289.5c0.5-0.3,0.9-0.7,1.3-1.1l-3.9-5.8c0.5-0.2,0.9-0.6,1.3-0.9l-3.7-5.6l-3.7,5.6
						c0.4,0.4,0.8,0.7,1.3,0.9l-3.9,5.8c0.4,0.4,0.8,0.8,1.3,1.1l-3.6,5.4c2.2,2.2,5.2,3.6,8.6,3.6c3.4,0,6.4-1.4,8.6-3.6
						L897.6,289.5z"/>
					<path class="st19" d="M857.6,289.5c0.5-0.3,0.9-0.7,1.3-1.1l-3.9-5.8c0.5-0.2,0.9-0.6,1.3-0.9l-3.7-5.6l-3.7,5.6
						c0.4,0.4,0.8,0.7,1.3,0.9l-3.9,5.8c0.4,0.4,0.8,0.8,1.3,1.1l-3.6,5.4c2.2,2.2,5.2,3.6,8.6,3.6c3.4,0,6.4-1.4,8.6-3.6
						L857.6,289.5z"/>
					<path class="st19" d="M917.6,249.5c0.5-0.3,0.9-0.7,1.3-1.1l-3.9-5.8c0.5-0.2,0.9-0.6,1.3-0.9l-3.7-5.6l-3.7,5.6
						c0.4,0.4,0.8,0.7,1.3,0.9l-3.9,5.8c0.4,0.4,0.8,0.8,1.3,1.1l-3.6,5.4c2.2,2.2,5.2,3.6,8.6,3.6c3.4,0,6.4-1.4,8.6-3.6
						L917.6,249.5z"/>
					<path class="st19" d="M877.6,249.5c0.5-0.3,0.9-0.7,1.3-1.1l-3.9-5.8c0.5-0.2,0.9-0.6,1.3-0.9l-3.7-5.6l-3.7,5.6
						c0.4,0.4,0.8,0.7,1.3,0.9l-3.9,5.8c0.4,0.4,0.8,0.8,1.3,1.1l-3.6,5.4c2.2,2.2,5.2,3.6,8.6,3.6c3.4,0,6.4-1.4,8.6-3.6
						L877.6,249.5z"/>
				</g>
			</g>
			<g class="st17">
				<g>
					<defs>
						<rect id="SVGID_33_" x="852.6" y="327.2" width="80" height="80"/>
					</defs>
					<clipPath id="SVGID_34_">
						<use xlink:href="#SVGID_33_"  style="overflow:visible;"/>
					</clipPath>
					<path class="st20" d="M917.6,409.5c0.5-0.3,0.9-0.7,1.3-1.1l-3.9-5.8c0.5-0.2,0.9-0.6,1.3-0.9l-3.7-5.6l-3.7,5.6
						c0.4,0.4,0.8,0.7,1.3,0.9l-3.9,5.8c0.4,0.4,0.8,0.8,1.3,1.1l-3.6,5.4c2.2,2.2,5.2,3.6,8.6,3.6c3.4,0,6.4-1.4,8.6-3.6
						L917.6,409.5z"/>
					<path class="st20" d="M877.6,409.5c0.5-0.3,0.9-0.7,1.3-1.1l-3.9-5.8c0.5-0.2,0.9-0.6,1.3-0.9l-3.7-5.6l-3.7,5.6
						c0.4,0.4,0.8,0.7,1.3,0.9l-3.9,5.8c0.4,0.4,0.8,0.8,1.3,1.1l-3.6,5.4c2.2,2.2,5.2,3.6,8.6,3.6c3.4,0,6.4-1.4,8.6-3.6
						L877.6,409.5z"/>
					<path class="st20" d="M937.6,369.5c0.5-0.3,0.9-0.7,1.3-1.1l-3.9-5.8c0.5-0.2,0.9-0.6,1.3-0.9l-3.7-5.6l-3.7,5.6
						c0.4,0.4,0.8,0.7,1.3,0.9l-3.9,5.8c0.4,0.4,0.8,0.8,1.3,1.1l-3.6,5.4c2.2,2.2,5.2,3.6,8.6,3.6c3.4,0,6.4-1.4,8.6-3.6
						L937.6,369.5z"/>
					<path class="st20" d="M897.6,369.5c0.5-0.3,0.9-0.7,1.3-1.1l-3.9-5.8c0.5-0.2,0.9-0.6,1.3-0.9l-3.7-5.6l-3.7,5.6
						c0.4,0.4,0.8,0.7,1.3,0.9l-3.9,5.8c0.4,0.4,0.8,0.8,1.3,1.1l-3.6,5.4c2.2,2.2,5.2,3.6,8.6,3.6c3.4,0,6.4-1.4,8.6-3.6
						L897.6,369.5z"/>
					<path class="st20" d="M857.6,369.5c0.5-0.3,0.9-0.7,1.3-1.1l-3.9-5.8c0.5-0.2,0.9-0.6,1.3-0.9l-3.7-5.6l-3.7,5.6
						c0.4,0.4,0.8,0.7,1.3,0.9l-3.9,5.8c0.4,0.4,0.8,0.8,1.3,1.1l-3.6,5.4c2.2,2.2,5.2,3.6,8.6,3.6c3.4,0,6.4-1.4,8.6-3.6
						L857.6,369.5z"/>
					<path class="st20" d="M917.6,329.5c0.5-0.3,0.9-0.7,1.3-1.1l-3.9-5.8c0.5-0.2,0.9-0.6,1.3-0.9l-3.7-5.6l-3.7,5.6
						c0.4,0.4,0.8,0.7,1.3,0.9l-3.9,5.8c0.4,0.4,0.8,0.8,1.3,1.1l-3.6,5.4c2.2,2.2,5.2,3.6,8.6,3.6c3.4,0,6.4-1.4,8.6-3.6
						L917.6,329.5z"/>
					<path class="st20" d="M877.6,329.5c0.5-0.3,0.9-0.7,1.3-1.1l-3.9-5.8c0.5-0.2,0.9-0.6,1.3-0.9l-3.7-5.6l-3.7,5.6
						c0.4,0.4,0.8,0.7,1.3,0.9l-3.9,5.8c0.4,0.4,0.8,0.8,1.3,1.1l-3.6,5.4c2.2,2.2,5.2,3.6,8.6,3.6c3.4,0,6.4-1.4,8.6-3.6
						L877.6,329.5z"/>
				</g>
			</g>
			<g class="st17">
				<g>
					<defs>
						<rect id="SVGID_35_" x="852.6" y="407.2" width="80" height="80"/>
					</defs>
					<clipPath id="SVGID_36_">
						<use xlink:href="#SVGID_35_"  style="overflow:visible;"/>
					</clipPath>
					<path class="st21" d="M917.6,489.5c0.5-0.3,0.9-0.7,1.3-1.1l-3.9-5.8c0.5-0.2,0.9-0.6,1.3-0.9l-3.7-5.6l-3.7,5.6
						c0.4,0.4,0.8,0.7,1.3,0.9l-3.9,5.8c0.4,0.4,0.8,0.8,1.3,1.1l-3.6,5.4c2.2,2.2,5.2,3.6,8.6,3.6c3.4,0,6.4-1.4,8.6-3.6
						L917.6,489.5z"/>
					<path class="st21" d="M877.6,489.5c0.5-0.3,0.9-0.7,1.3-1.1l-3.9-5.8c0.5-0.2,0.9-0.6,1.3-0.9l-3.7-5.6l-3.7,5.6
						c0.4,0.4,0.8,0.7,1.3,0.9l-3.9,5.8c0.4,0.4,0.8,0.8,1.3,1.1l-3.6,5.4c2.2,2.2,5.2,3.6,8.6,3.6c3.4,0,6.4-1.4,8.6-3.6
						L877.6,489.5z"/>
					<path class="st21" d="M937.6,449.5c0.5-0.3,0.9-0.7,1.3-1.1l-3.9-5.8c0.5-0.2,0.9-0.6,1.3-0.9l-3.7-5.6l-3.7,5.6
						c0.4,0.4,0.8,0.7,1.3,0.9l-3.9,5.8c0.4,0.4,0.8,0.8,1.3,1.1l-3.6,5.4c2.2,2.2,5.2,3.6,8.6,3.6c3.4,0,6.4-1.4,8.6-3.6
						L937.6,449.5z"/>
					<path class="st21" d="M897.6,449.5c0.5-0.3,0.9-0.7,1.3-1.1l-3.9-5.8c0.5-0.2,0.9-0.6,1.3-0.9l-3.7-5.6l-3.7,5.6
						c0.4,0.4,0.8,0.7,1.3,0.9l-3.9,5.8c0.4,0.4,0.8,0.8,1.3,1.1l-3.6,5.4c2.2,2.2,5.2,3.6,8.6,3.6c3.4,0,6.4-1.4,8.6-3.6
						L897.6,449.5z"/>
					<path class="st21" d="M857.6,449.5c0.5-0.3,0.9-0.7,1.3-1.1l-3.9-5.8c0.5-0.2,0.9-0.6,1.3-0.9l-3.7-5.6l-3.7,5.6
						c0.4,0.4,0.8,0.7,1.3,0.9l-3.9,5.8c0.4,0.4,0.8,0.8,1.3,1.1l-3.6,5.4c2.2,2.2,5.2,3.6,8.6,3.6c3.4,0,6.4-1.4,8.6-3.6
						L857.6,449.5z"/>
					<path class="st21" d="M917.6,409.5c0.5-0.3,0.9-0.7,1.3-1.1l-3.9-5.8c0.5-0.2,0.9-0.6,1.3-0.9l-3.7-5.6l-3.7,5.6
						c0.4,0.4,0.8,0.7,1.3,0.9l-3.9,5.8c0.4,0.4,0.8,0.8,1.3,1.1l-3.6,5.4c2.2,2.2,5.2,3.6,8.6,3.6c3.4,0,6.4-1.4,8.6-3.6
						L917.6,409.5z"/>
					<path class="st21" d="M877.6,409.5c0.5-0.3,0.9-0.7,1.3-1.1l-3.9-5.8c0.5-0.2,0.9-0.6,1.3-0.9l-3.7-5.6l-3.7,5.6
						c0.4,0.4,0.8,0.7,1.3,0.9l-3.9,5.8c0.4,0.4,0.8,0.8,1.3,1.1l-3.6,5.4c2.2,2.2,5.2,3.6,8.6,3.6c3.4,0,6.4-1.4,8.6-3.6
						L877.6,409.5z"/>
				</g>
			</g>
			<g class="st17">
				<g>
					<defs>
						<rect id="SVGID_37_" x="772.6" y="167.2" width="80" height="80"/>
					</defs>
					<clipPath id="SVGID_38_">
						<use xlink:href="#SVGID_37_"  style="overflow:visible;"/>
					</clipPath>
					<path class="st22" d="M837.6,249.5c0.5-0.3,0.9-0.7,1.3-1.1l-3.9-5.8c0.5-0.2,0.9-0.6,1.3-0.9l-3.7-5.6l-3.7,5.6
						c0.4,0.4,0.8,0.7,1.3,0.9l-3.9,5.8c0.4,0.4,0.8,0.8,1.3,1.1l-3.6,5.4c2.2,2.2,5.2,3.6,8.6,3.6c3.4,0,6.4-1.4,8.6-3.6
						L837.6,249.5z"/>
					<path class="st22" d="M797.6,249.5c0.5-0.3,0.9-0.7,1.3-1.1l-3.9-5.8c0.5-0.2,0.9-0.6,1.3-0.9l-3.7-5.6l-3.7,5.6
						c0.4,0.4,0.8,0.7,1.3,0.9l-3.9,5.8c0.4,0.4,0.8,0.8,1.3,1.1l-3.6,5.4c2.2,2.2,5.2,3.6,8.6,3.6c3.4,0,6.4-1.4,8.6-3.6
						L797.6,249.5z"/>
					<path class="st22" d="M857.6,209.5c0.5-0.3,0.9-0.7,1.3-1.1l-3.9-5.8c0.5-0.2,0.9-0.6,1.3-0.9l-3.7-5.6l-3.7,5.6
						c0.4,0.4,0.8,0.7,1.3,0.9l-3.9,5.8c0.4,0.4,0.8,0.8,1.3,1.1l-3.6,5.4c2.2,2.2,5.2,3.6,8.6,3.6c3.4,0,6.4-1.4,8.6-3.6
						L857.6,209.5z"/>
					<path class="st22" d="M817.6,209.5c0.5-0.3,0.9-0.7,1.3-1.1l-3.9-5.8c0.5-0.2,0.9-0.6,1.3-0.9l-3.7-5.6l-3.7,5.6
						c0.4,0.4,0.8,0.7,1.3,0.9l-3.9,5.8c0.4,0.4,0.8,0.8,1.3,1.1l-3.6,5.4c2.2,2.2,5.2,3.6,8.6,3.6c3.4,0,6.4-1.4,8.6-3.6
						L817.6,209.5z"/>
					<path class="st22" d="M777.6,209.5c0.5-0.3,0.9-0.7,1.3-1.1l-3.9-5.8c0.5-0.2,0.9-0.6,1.3-0.9l-3.7-5.6l-3.7,5.6
						c0.4,0.4,0.8,0.7,1.3,0.9l-3.9,5.8c0.4,0.4,0.8,0.8,1.3,1.1l-3.6,5.4c2.2,2.2,5.2,3.6,8.6,3.6c3.4,0,6.4-1.4,8.6-3.6
						L777.6,209.5z"/>
					<path class="st22" d="M837.6,169.5c0.5-0.3,0.9-0.7,1.3-1.1l-3.9-5.8c0.5-0.2,0.9-0.6,1.3-0.9l-3.7-5.6l-3.7,5.6
						c0.4,0.4,0.8,0.7,1.3,0.9l-3.9,5.8c0.4,0.4,0.8,0.8,1.3,1.1l-3.6,5.4c2.2,2.2,5.2,3.6,8.6,3.6c3.4,0,6.4-1.4,8.6-3.6
						L837.6,169.5z"/>
					<path class="st22" d="M797.6,169.5c0.5-0.3,0.9-0.7,1.3-1.1l-3.9-5.8c0.5-0.2,0.9-0.6,1.3-0.9l-3.7-5.6l-3.7,5.6
						c0.4,0.4,0.8,0.7,1.3,0.9l-3.9,5.8c0.4,0.4,0.8,0.8,1.3,1.1l-3.6,5.4c2.2,2.2,5.2,3.6,8.6,3.6c3.4,0,6.4-1.4,8.6-3.6
						L797.6,169.5z"/>
				</g>
			</g>
			<g class="st17">
				<g>
					<defs>
						<rect id="SVGID_39_" x="772.6" y="247.2" width="80" height="80"/>
					</defs>
					<clipPath id="SVGID_40_">
						<use xlink:href="#SVGID_39_"  style="overflow:visible;"/>
					</clipPath>
					<path class="st23" d="M837.6,329.5c0.5-0.3,0.9-0.7,1.3-1.1l-3.9-5.8c0.5-0.2,0.9-0.6,1.3-0.9l-3.7-5.6l-3.7,5.6
						c0.4,0.4,0.8,0.7,1.3,0.9l-3.9,5.8c0.4,0.4,0.8,0.8,1.3,1.1l-3.6,5.4c2.2,2.2,5.2,3.6,8.6,3.6c3.4,0,6.4-1.4,8.6-3.6
						L837.6,329.5z"/>
					<path class="st23" d="M797.6,329.5c0.5-0.3,0.9-0.7,1.3-1.1l-3.9-5.8c0.5-0.2,0.9-0.6,1.3-0.9l-3.7-5.6l-3.7,5.6
						c0.4,0.4,0.8,0.7,1.3,0.9l-3.9,5.8c0.4,0.4,0.8,0.8,1.3,1.1l-3.6,5.4c2.2,2.2,5.2,3.6,8.6,3.6c3.4,0,6.4-1.4,8.6-3.6
						L797.6,329.5z"/>
					<path class="st23" d="M857.6,289.5c0.5-0.3,0.9-0.7,1.3-1.1l-3.9-5.8c0.5-0.2,0.9-0.6,1.3-0.9l-3.7-5.6l-3.7,5.6
						c0.4,0.4,0.8,0.7,1.3,0.9l-3.9,5.8c0.4,0.4,0.8,0.8,1.3,1.1l-3.6,5.4c2.2,2.2,5.2,3.6,8.6,3.6c3.4,0,6.4-1.4,8.6-3.6
						L857.6,289.5z"/>
					<path class="st23" d="M817.6,289.5c0.5-0.3,0.9-0.7,1.3-1.1l-3.9-5.8c0.5-0.2,0.9-0.6,1.3-0.9l-3.7-5.6l-3.7,5.6
						c0.4,0.4,0.8,0.7,1.3,0.9l-3.9,5.8c0.4,0.4,0.8,0.8,1.3,1.1l-3.6,5.4c2.2,2.2,5.2,3.6,8.6,3.6c3.4,0,6.4-1.4,8.6-3.6
						L817.6,289.5z"/>
					<path class="st23" d="M777.6,289.5c0.5-0.3,0.9-0.7,1.3-1.1l-3.9-5.8c0.5-0.2,0.9-0.6,1.3-0.9l-3.7-5.6l-3.7,5.6
						c0.4,0.4,0.8,0.7,1.3,0.9l-3.9,5.8c0.4,0.4,0.8,0.8,1.3,1.1l-3.6,5.4c2.2,2.2,5.2,3.6,8.6,3.6c3.4,0,6.4-1.4,8.6-3.6
						L777.6,289.5z"/>
					<path class="st23" d="M837.6,249.5c0.5-0.3,0.9-0.7,1.3-1.1l-3.9-5.8c0.5-0.2,0.9-0.6,1.3-0.9l-3.7-5.6l-3.7,5.6
						c0.4,0.4,0.8,0.7,1.3,0.9l-3.9,5.8c0.4,0.4,0.8,0.8,1.3,1.1l-3.6,5.4c2.2,2.2,5.2,3.6,8.6,3.6c3.4,0,6.4-1.4,8.6-3.6
						L837.6,249.5z"/>
					<path class="st23" d="M797.6,249.5c0.5-0.3,0.9-0.7,1.3-1.1l-3.9-5.8c0.5-0.2,0.9-0.6,1.3-0.9l-3.7-5.6l-3.7,5.6
						c0.4,0.4,0.8,0.7,1.3,0.9l-3.9,5.8c0.4,0.4,0.8,0.8,1.3,1.1l-3.6,5.4c2.2,2.2,5.2,3.6,8.6,3.6c3.4,0,6.4-1.4,8.6-3.6
						L797.6,249.5z"/>
				</g>
			</g>
			<g class="st17">
				<g>
					<defs>
						<rect id="SVGID_41_" x="772.6" y="327.2" width="80" height="80"/>
					</defs>
					<clipPath id="SVGID_42_">
						<use xlink:href="#SVGID_41_"  style="overflow:visible;"/>
					</clipPath>
					<path class="st24" d="M837.6,409.5c0.5-0.3,0.9-0.7,1.3-1.1l-3.9-5.8c0.5-0.2,0.9-0.6,1.3-0.9l-3.7-5.6l-3.7,5.6
						c0.4,0.4,0.8,0.7,1.3,0.9l-3.9,5.8c0.4,0.4,0.8,0.8,1.3,1.1l-3.6,5.4c2.2,2.2,5.2,3.6,8.6,3.6c3.4,0,6.4-1.4,8.6-3.6
						L837.6,409.5z"/>
					<path class="st24" d="M797.6,409.5c0.5-0.3,0.9-0.7,1.3-1.1l-3.9-5.8c0.5-0.2,0.9-0.6,1.3-0.9l-3.7-5.6l-3.7,5.6
						c0.4,0.4,0.8,0.7,1.3,0.9l-3.9,5.8c0.4,0.4,0.8,0.8,1.3,1.1l-3.6,5.4c2.2,2.2,5.2,3.6,8.6,3.6c3.4,0,6.4-1.4,8.6-3.6
						L797.6,409.5z"/>
					<path class="st24" d="M857.6,369.5c0.5-0.3,0.9-0.7,1.3-1.1l-3.9-5.8c0.5-0.2,0.9-0.6,1.3-0.9l-3.7-5.6l-3.7,5.6
						c0.4,0.4,0.8,0.7,1.3,0.9l-3.9,5.8c0.4,0.4,0.8,0.8,1.3,1.1l-3.6,5.4c2.2,2.2,5.2,3.6,8.6,3.6c3.4,0,6.4-1.4,8.6-3.6
						L857.6,369.5z"/>
					<path class="st24" d="M817.6,369.5c0.5-0.3,0.9-0.7,1.3-1.1l-3.9-5.8c0.5-0.2,0.9-0.6,1.3-0.9l-3.7-5.6l-3.7,5.6
						c0.4,0.4,0.8,0.7,1.3,0.9l-3.9,5.8c0.4,0.4,0.8,0.8,1.3,1.1l-3.6,5.4c2.2,2.2,5.2,3.6,8.6,3.6c3.4,0,6.4-1.4,8.6-3.6
						L817.6,369.5z"/>
					<path class="st24" d="M777.6,369.5c0.5-0.3,0.9-0.7,1.3-1.1l-3.9-5.8c0.5-0.2,0.9-0.6,1.3-0.9l-3.7-5.6l-3.7,5.6
						c0.4,0.4,0.8,0.7,1.3,0.9l-3.9,5.8c0.4,0.4,0.8,0.8,1.3,1.1l-3.6,5.4c2.2,2.2,5.2,3.6,8.6,3.6c3.4,0,6.4-1.4,8.6-3.6
						L777.6,369.5z"/>
					<path class="st24" d="M837.6,329.5c0.5-0.3,0.9-0.7,1.3-1.1l-3.9-5.8c0.5-0.2,0.9-0.6,1.3-0.9l-3.7-5.6l-3.7,5.6
						c0.4,0.4,0.8,0.7,1.3,0.9l-3.9,5.8c0.4,0.4,0.8,0.8,1.3,1.1l-3.6,5.4c2.2,2.2,5.2,3.6,8.6,3.6c3.4,0,6.4-1.4,8.6-3.6
						L837.6,329.5z"/>
					<path class="st24" d="M797.6,329.5c0.5-0.3,0.9-0.7,1.3-1.1l-3.9-5.8c0.5-0.2,0.9-0.6,1.3-0.9l-3.7-5.6l-3.7,5.6
						c0.4,0.4,0.8,0.7,1.3,0.9l-3.9,5.8c0.4,0.4,0.8,0.8,1.3,1.1l-3.6,5.4c2.2,2.2,5.2,3.6,8.6,3.6c3.4,0,6.4-1.4,8.6-3.6
						L797.6,329.5z"/>
				</g>
			</g>
			<g class="st17">
				<g>
					<defs>
						<rect id="SVGID_43_" x="772.6" y="407.2" width="80" height="80"/>
					</defs>
					<clipPath id="SVGID_44_">
						<use xlink:href="#SVGID_43_"  style="overflow:visible;"/>
					</clipPath>
					<path class="st25" d="M837.6,489.5c0.5-0.3,0.9-0.7,1.3-1.1l-3.9-5.8c0.5-0.2,0.9-0.6,1.3-0.9l-3.7-5.6l-3.7,5.6
						c0.4,0.4,0.8,0.7,1.3,0.9l-3.9,5.8c0.4,0.4,0.8,0.8,1.3,1.1l-3.6,5.4c2.2,2.2,5.2,3.6,8.6,3.6c3.4,0,6.4-1.4,8.6-3.6
						L837.6,489.5z"/>
					<path class="st25" d="M797.6,489.5c0.5-0.3,0.9-0.7,1.3-1.1l-3.9-5.8c0.5-0.2,0.9-0.6,1.3-0.9l-3.7-5.6l-3.7,5.6
						c0.4,0.4,0.8,0.7,1.3,0.9l-3.9,5.8c0.4,0.4,0.8,0.8,1.3,1.1l-3.6,5.4c2.2,2.2,5.2,3.6,8.6,3.6c3.4,0,6.4-1.4,8.6-3.6
						L797.6,489.5z"/>
					<path class="st25" d="M857.6,449.5c0.5-0.3,0.9-0.7,1.3-1.1l-3.9-5.8c0.5-0.2,0.9-0.6,1.3-0.9l-3.7-5.6l-3.7,5.6
						c0.4,0.4,0.8,0.7,1.3,0.9l-3.9,5.8c0.4,0.4,0.8,0.8,1.3,1.1l-3.6,5.4c2.2,2.2,5.2,3.6,8.6,3.6c3.4,0,6.4-1.4,8.6-3.6
						L857.6,449.5z"/>
					<path class="st25" d="M817.6,449.5c0.5-0.3,0.9-0.7,1.3-1.1l-3.9-5.8c0.5-0.2,0.9-0.6,1.3-0.9l-3.7-5.6l-3.7,5.6
						c0.4,0.4,0.8,0.7,1.3,0.9l-3.9,5.8c0.4,0.4,0.8,0.8,1.3,1.1l-3.6,5.4c2.2,2.2,5.2,3.6,8.6,3.6c3.4,0,6.4-1.4,8.6-3.6
						L817.6,449.5z"/>
					<path class="st25" d="M777.6,449.5c0.5-0.3,0.9-0.7,1.3-1.1l-3.9-5.8c0.5-0.2,0.9-0.6,1.3-0.9l-3.7-5.6l-3.7,5.6
						c0.4,0.4,0.8,0.7,1.3,0.9l-3.9,5.8c0.4,0.4,0.8,0.8,1.3,1.1l-3.6,5.4c2.2,2.2,5.2,3.6,8.6,3.6c3.4,0,6.4-1.4,8.6-3.6
						L777.6,449.5z"/>
					<path class="st25" d="M837.6,409.5c0.5-0.3,0.9-0.7,1.3-1.1l-3.9-5.8c0.5-0.2,0.9-0.6,1.3-0.9l-3.7-5.6l-3.7,5.6
						c0.4,0.4,0.8,0.7,1.3,0.9l-3.9,5.8c0.4,0.4,0.8,0.8,1.3,1.1l-3.6,5.4c2.2,2.2,5.2,3.6,8.6,3.6c3.4,0,6.4-1.4,8.6-3.6
						L837.6,409.5z"/>
					<path class="st25" d="M797.6,409.5c0.5-0.3,0.9-0.7,1.3-1.1l-3.9-5.8c0.5-0.2,0.9-0.6,1.3-0.9l-3.7-5.6l-3.7,5.6
						c0.4,0.4,0.8,0.7,1.3,0.9l-3.9,5.8c0.4,0.4,0.8,0.8,1.3,1.1l-3.6,5.4c2.2,2.2,5.2,3.6,8.6,3.6c3.4,0,6.4-1.4,8.6-3.6
						L797.6,409.5z"/>
				</g>
			</g>
			<g class="st17">
				<g>
					<defs>
						<rect id="SVGID_45_" x="692.6" y="167.2" width="80" height="80"/>
					</defs>
					<clipPath id="SVGID_46_">
						<use xlink:href="#SVGID_45_"  style="overflow:visible;"/>
					</clipPath>
					<path class="st26" d="M757.6,249.5c0.5-0.3,0.9-0.7,1.3-1.1l-3.9-5.8c0.5-0.2,0.9-0.6,1.3-0.9l-3.7-5.6l-3.7,5.6
						c0.4,0.4,0.8,0.7,1.3,0.9l-3.9,5.8c0.4,0.4,0.8,0.8,1.3,1.1l-3.6,5.4c2.2,2.2,5.2,3.6,8.6,3.6c3.4,0,6.4-1.4,8.6-3.6
						L757.6,249.5z"/>
					<path class="st26" d="M717.6,249.5c0.5-0.3,0.9-0.7,1.3-1.1l-3.9-5.8c0.5-0.2,0.9-0.6,1.3-0.9l-3.7-5.6l-3.7,5.6
						c0.4,0.4,0.8,0.7,1.3,0.9l-3.9,5.8c0.4,0.4,0.8,0.8,1.3,1.1l-3.6,5.4c2.2,2.2,5.2,3.6,8.6,3.6c3.4,0,6.4-1.4,8.6-3.6
						L717.6,249.5z"/>
					<path class="st26" d="M777.6,209.5c0.5-0.3,0.9-0.7,1.3-1.1l-3.9-5.8c0.5-0.2,0.9-0.6,1.3-0.9l-3.7-5.6l-3.7,5.6
						c0.4,0.4,0.8,0.7,1.3,0.9l-3.9,5.8c0.4,0.4,0.8,0.8,1.3,1.1l-3.6,5.4c2.2,2.2,5.2,3.6,8.6,3.6c3.4,0,6.4-1.4,8.6-3.6
						L777.6,209.5z"/>
					<path class="st26" d="M737.6,209.5c0.5-0.3,0.9-0.7,1.3-1.1l-3.9-5.8c0.5-0.2,0.9-0.6,1.3-0.9l-3.7-5.6l-3.7,5.6
						c0.4,0.4,0.8,0.7,1.3,0.9l-3.9,5.8c0.4,0.4,0.8,0.8,1.3,1.1l-3.6,5.4c2.2,2.2,5.2,3.6,8.6,3.6c3.4,0,6.4-1.4,8.6-3.6
						L737.6,209.5z"/>
					<path class="st26" d="M697.6,209.5c0.5-0.3,0.9-0.7,1.3-1.1l-3.9-5.8c0.5-0.2,0.9-0.6,1.3-0.9l-3.7-5.6l-3.7,5.6
						c0.4,0.4,0.8,0.7,1.3,0.9l-3.9,5.8c0.4,0.4,0.8,0.8,1.3,1.1l-3.6,5.4c2.2,2.2,5.2,3.6,8.6,3.6c3.4,0,6.4-1.4,8.6-3.6
						L697.6,209.5z"/>
					<path class="st26" d="M757.6,169.5c0.5-0.3,0.9-0.7,1.3-1.1l-3.9-5.8c0.5-0.2,0.9-0.6,1.3-0.9l-3.7-5.6l-3.7,5.6
						c0.4,0.4,0.8,0.7,1.3,0.9l-3.9,5.8c0.4,0.4,0.8,0.8,1.3,1.1l-3.6,5.4c2.2,2.2,5.2,3.6,8.6,3.6c3.4,0,6.4-1.4,8.6-3.6
						L757.6,169.5z"/>
					<path class="st26" d="M717.6,169.5c0.5-0.3,0.9-0.7,1.3-1.1l-3.9-5.8c0.5-0.2,0.9-0.6,1.3-0.9l-3.7-5.6l-3.7,5.6
						c0.4,0.4,0.8,0.7,1.3,0.9l-3.9,5.8c0.4,0.4,0.8,0.8,1.3,1.1l-3.6,5.4c2.2,2.2,5.2,3.6,8.6,3.6c3.4,0,6.4-1.4,8.6-3.6
						L717.6,169.5z"/>
				</g>
			</g>
			<g class="st17">
				<g>
					<defs>
						<rect id="SVGID_47_" x="692.6" y="247.2" width="80" height="80"/>
					</defs>
					<clipPath id="SVGID_48_">
						<use xlink:href="#SVGID_47_"  style="overflow:visible;"/>
					</clipPath>
					<path class="st27" d="M757.6,329.5c0.5-0.3,0.9-0.7,1.3-1.1l-3.9-5.8c0.5-0.2,0.9-0.6,1.3-0.9l-3.7-5.6l-3.7,5.6
						c0.4,0.4,0.8,0.7,1.3,0.9l-3.9,5.8c0.4,0.4,0.8,0.8,1.3,1.1l-3.6,5.4c2.2,2.2,5.2,3.6,8.6,3.6c3.4,0,6.4-1.4,8.6-3.6
						L757.6,329.5z"/>
					<path class="st27" d="M717.6,329.5c0.5-0.3,0.9-0.7,1.3-1.1l-3.9-5.8c0.5-0.2,0.9-0.6,1.3-0.9l-3.7-5.6l-3.7,5.6
						c0.4,0.4,0.8,0.7,1.3,0.9l-3.9,5.8c0.4,0.4,0.8,0.8,1.3,1.1l-3.6,5.4c2.2,2.2,5.2,3.6,8.6,3.6c3.4,0,6.4-1.4,8.6-3.6
						L717.6,329.5z"/>
					<path class="st27" d="M777.6,289.5c0.5-0.3,0.9-0.7,1.3-1.1l-3.9-5.8c0.5-0.2,0.9-0.6,1.3-0.9l-3.7-5.6l-3.7,5.6
						c0.4,0.4,0.8,0.7,1.3,0.9l-3.9,5.8c0.4,0.4,0.8,0.8,1.3,1.1l-3.6,5.4c2.2,2.2,5.2,3.6,8.6,3.6c3.4,0,6.4-1.4,8.6-3.6
						L777.6,289.5z"/>
					<path class="st27" d="M737.6,289.5c0.5-0.3,0.9-0.7,1.3-1.1l-3.9-5.8c0.5-0.2,0.9-0.6,1.3-0.9l-3.7-5.6l-3.7,5.6
						c0.4,0.4,0.8,0.7,1.3,0.9l-3.9,5.8c0.4,0.4,0.8,0.8,1.3,1.1l-3.6,5.4c2.2,2.2,5.2,3.6,8.6,3.6c3.4,0,6.4-1.4,8.6-3.6
						L737.6,289.5z"/>
					<path class="st27" d="M697.6,289.5c0.5-0.3,0.9-0.7,1.3-1.1l-3.9-5.8c0.5-0.2,0.9-0.6,1.3-0.9l-3.7-5.6l-3.7,5.6
						c0.4,0.4,0.8,0.7,1.3,0.9l-3.9,5.8c0.4,0.4,0.8,0.8,1.3,1.1l-3.6,5.4c2.2,2.2,5.2,3.6,8.6,3.6c3.4,0,6.4-1.4,8.6-3.6
						L697.6,289.5z"/>
					<path class="st27" d="M757.6,249.5c0.5-0.3,0.9-0.7,1.3-1.1l-3.9-5.8c0.5-0.2,0.9-0.6,1.3-0.9l-3.7-5.6l-3.7,5.6
						c0.4,0.4,0.8,0.7,1.3,0.9l-3.9,5.8c0.4,0.4,0.8,0.8,1.3,1.1l-3.6,5.4c2.2,2.2,5.2,3.6,8.6,3.6c3.4,0,6.4-1.4,8.6-3.6
						L757.6,249.5z"/>
					<path class="st27" d="M717.6,249.5c0.5-0.3,0.9-0.7,1.3-1.1l-3.9-5.8c0.5-0.2,0.9-0.6,1.3-0.9l-3.7-5.6l-3.7,5.6
						c0.4,0.4,0.8,0.7,1.3,0.9l-3.9,5.8c0.4,0.4,0.8,0.8,1.3,1.1l-3.6,5.4c2.2,2.2,5.2,3.6,8.6,3.6c3.4,0,6.4-1.4,8.6-3.6
						L717.6,249.5z"/>
				</g>
			</g>
			<g class="st17">
				<g>
					<defs>
						<rect id="SVGID_49_" x="692.6" y="327.2" width="80" height="80"/>
					</defs>
					<clipPath id="SVGID_50_">
						<use xlink:href="#SVGID_49_"  style="overflow:visible;"/>
					</clipPath>
					<path class="st28" d="M757.6,409.5c0.5-0.3,0.9-0.7,1.3-1.1l-3.9-5.8c0.5-0.2,0.9-0.6,1.3-0.9l-3.7-5.6l-3.7,5.6
						c0.4,0.4,0.8,0.7,1.3,0.9l-3.9,5.8c0.4,0.4,0.8,0.8,1.3,1.1l-3.6,5.4c2.2,2.2,5.2,3.6,8.6,3.6c3.4,0,6.4-1.4,8.6-3.6
						L757.6,409.5z"/>
					<path class="st28" d="M717.6,409.5c0.5-0.3,0.9-0.7,1.3-1.1l-3.9-5.8c0.5-0.2,0.9-0.6,1.3-0.9l-3.7-5.6l-3.7,5.6
						c0.4,0.4,0.8,0.7,1.3,0.9l-3.9,5.8c0.4,0.4,0.8,0.8,1.3,1.1l-3.6,5.4c2.2,2.2,5.2,3.6,8.6,3.6c3.4,0,6.4-1.4,8.6-3.6
						L717.6,409.5z"/>
					<path class="st28" d="M777.6,369.5c0.5-0.3,0.9-0.7,1.3-1.1l-3.9-5.8c0.5-0.2,0.9-0.6,1.3-0.9l-3.7-5.6l-3.7,5.6
						c0.4,0.4,0.8,0.7,1.3,0.9l-3.9,5.8c0.4,0.4,0.8,0.8,1.3,1.1l-3.6,5.4c2.2,2.2,5.2,3.6,8.6,3.6c3.4,0,6.4-1.4,8.6-3.6
						L777.6,369.5z"/>
					<path class="st28" d="M737.6,369.5c0.5-0.3,0.9-0.7,1.3-1.1l-3.9-5.8c0.5-0.2,0.9-0.6,1.3-0.9l-3.7-5.6l-3.7,5.6
						c0.4,0.4,0.8,0.7,1.3,0.9l-3.9,5.8c0.4,0.4,0.8,0.8,1.3,1.1l-3.6,5.4c2.2,2.2,5.2,3.6,8.6,3.6c3.4,0,6.4-1.4,8.6-3.6
						L737.6,369.5z"/>
					<path class="st28" d="M697.6,369.5c0.5-0.3,0.9-0.7,1.3-1.1l-3.9-5.8c0.5-0.2,0.9-0.6,1.3-0.9l-3.7-5.6l-3.7,5.6
						c0.4,0.4,0.8,0.7,1.3,0.9l-3.9,5.8c0.4,0.4,0.8,0.8,1.3,1.1l-3.6,5.4c2.2,2.2,5.2,3.6,8.6,3.6c3.4,0,6.4-1.4,8.6-3.6
						L697.6,369.5z"/>
					<path class="st28" d="M757.6,329.5c0.5-0.3,0.9-0.7,1.3-1.1l-3.9-5.8c0.5-0.2,0.9-0.6,1.3-0.9l-3.7-5.6l-3.7,5.6
						c0.4,0.4,0.8,0.7,1.3,0.9l-3.9,5.8c0.4,0.4,0.8,0.8,1.3,1.1l-3.6,5.4c2.2,2.2,5.2,3.6,8.6,3.6c3.4,0,6.4-1.4,8.6-3.6
						L757.6,329.5z"/>
					<path class="st28" d="M717.6,329.5c0.5-0.3,0.9-0.7,1.3-1.1l-3.9-5.8c0.5-0.2,0.9-0.6,1.3-0.9l-3.7-5.6l-3.7,5.6
						c0.4,0.4,0.8,0.7,1.3,0.9l-3.9,5.8c0.4,0.4,0.8,0.8,1.3,1.1l-3.6,5.4c2.2,2.2,5.2,3.6,8.6,3.6c3.4,0,6.4-1.4,8.6-3.6
						L717.6,329.5z"/>
				</g>
			</g>
			<g class="st17">
				<g>
					<defs>
						<rect id="SVGID_51_" x="692.6" y="407.2" width="80" height="80"/>
					</defs>
					<clipPath id="SVGID_52_">
						<use xlink:href="#SVGID_51_"  style="overflow:visible;"/>
					</clipPath>
					<path class="st29" d="M757.6,489.5c0.5-0.3,0.9-0.7,1.3-1.1l-3.9-5.8c0.5-0.2,0.9-0.6,1.3-0.9l-3.7-5.6l-3.7,5.6
						c0.4,0.4,0.8,0.7,1.3,0.9l-3.9,5.8c0.4,0.4,0.8,0.8,1.3,1.1l-3.6,5.4c2.2,2.2,5.2,3.6,8.6,3.6c3.4,0,6.4-1.4,8.6-3.6
						L757.6,489.5z"/>
					<path class="st29" d="M717.6,489.5c0.5-0.3,0.9-0.7,1.3-1.1l-3.9-5.8c0.5-0.2,0.9-0.6,1.3-0.9l-3.7-5.6l-3.7,5.6
						c0.4,0.4,0.8,0.7,1.3,0.9l-3.9,5.8c0.4,0.4,0.8,0.8,1.3,1.1l-3.6,5.4c2.2,2.2,5.2,3.6,8.6,3.6c3.4,0,6.4-1.4,8.6-3.6
						L717.6,489.5z"/>
					<path class="st29" d="M777.6,449.5c0.5-0.3,0.9-0.7,1.3-1.1l-3.9-5.8c0.5-0.2,0.9-0.6,1.3-0.9l-3.7-5.6l-3.7,5.6
						c0.4,0.4,0.8,0.7,1.3,0.9l-3.9,5.8c0.4,0.4,0.8,0.8,1.3,1.1l-3.6,5.4c2.2,2.2,5.2,3.6,8.6,3.6c3.4,0,6.4-1.4,8.6-3.6
						L777.6,449.5z"/>
					<path class="st29" d="M737.6,449.5c0.5-0.3,0.9-0.7,1.3-1.1l-3.9-5.8c0.5-0.2,0.9-0.6,1.3-0.9l-3.7-5.6l-3.7,5.6
						c0.4,0.4,0.8,0.7,1.3,0.9l-3.9,5.8c0.4,0.4,0.8,0.8,1.3,1.1l-3.6,5.4c2.2,2.2,5.2,3.6,8.6,3.6c3.4,0,6.4-1.4,8.6-3.6
						L737.6,449.5z"/>
					<path class="st29" d="M697.6,449.5c0.5-0.3,0.9-0.7,1.3-1.1l-3.9-5.8c0.5-0.2,0.9-0.6,1.3-0.9l-3.7-5.6l-3.7,5.6
						c0.4,0.4,0.8,0.7,1.3,0.9l-3.9,5.8c0.4,0.4,0.8,0.8,1.3,1.1l-3.6,5.4c2.2,2.2,5.2,3.6,8.6,3.6c3.4,0,6.4-1.4,8.6-3.6
						L697.6,449.5z"/>
					<path class="st29" d="M757.6,409.5c0.5-0.3,0.9-0.7,1.3-1.1l-3.9-5.8c0.5-0.2,0.9-0.6,1.3-0.9l-3.7-5.6l-3.7,5.6
						c0.4,0.4,0.8,0.7,1.3,0.9l-3.9,5.8c0.4,0.4,0.8,0.8,1.3,1.1l-3.6,5.4c2.2,2.2,5.2,3.6,8.6,3.6c3.4,0,6.4-1.4,8.6-3.6
						L757.6,409.5z"/>
					<path class="st29" d="M717.6,409.5c0.5-0.3,0.9-0.7,1.3-1.1l-3.9-5.8c0.5-0.2,0.9-0.6,1.3-0.9l-3.7-5.6l-3.7,5.6
						c0.4,0.4,0.8,0.7,1.3,0.9l-3.9,5.8c0.4,0.4,0.8,0.8,1.3,1.1l-3.6,5.4c2.2,2.2,5.2,3.6,8.6,3.6c3.4,0,6.4-1.4,8.6-3.6
						L717.6,409.5z"/>
				</g>
			</g>
			<g class="st17">
				<g>
					<defs>
						<rect id="SVGID_53_" x="612.6" y="167.2" width="80" height="80"/>
					</defs>
					<clipPath id="SVGID_54_">
						<use xlink:href="#SVGID_53_"  style="overflow:visible;"/>
					</clipPath>
					<path class="st30" d="M677.6,249.5c0.5-0.3,0.9-0.7,1.3-1.1l-3.9-5.8c0.5-0.2,0.9-0.6,1.3-0.9l-3.7-5.6l-3.7,5.6
						c0.4,0.4,0.8,0.7,1.3,0.9l-3.9,5.8c0.4,0.4,0.8,0.8,1.3,1.1l-3.6,5.4c2.2,2.2,5.2,3.6,8.6,3.6c3.4,0,6.4-1.4,8.6-3.6
						L677.6,249.5z"/>
					<path class="st30" d="M637.6,249.5c0.5-0.3,0.9-0.7,1.3-1.1l-3.9-5.8c0.5-0.2,0.9-0.6,1.3-0.9l-3.7-5.6l-3.7,5.6
						c0.4,0.4,0.8,0.7,1.3,0.9l-3.9,5.8c0.4,0.4,0.8,0.8,1.3,1.1l-3.6,5.4c2.2,2.2,5.2,3.6,8.6,3.6c3.4,0,6.4-1.4,8.6-3.6
						L637.6,249.5z"/>
					<path class="st30" d="M697.6,209.5c0.5-0.3,0.9-0.7,1.3-1.1l-3.9-5.8c0.5-0.2,0.9-0.6,1.3-0.9l-3.7-5.6l-3.7,5.6
						c0.4,0.4,0.8,0.7,1.3,0.9l-3.9,5.8c0.4,0.4,0.8,0.8,1.3,1.1l-3.6,5.4c2.2,2.2,5.2,3.6,8.6,3.6c3.4,0,6.4-1.4,8.6-3.6
						L697.6,209.5z"/>
					<path class="st30" d="M657.6,209.5c0.5-0.3,0.9-0.7,1.3-1.1l-3.9-5.8c0.5-0.2,0.9-0.6,1.3-0.9l-3.7-5.6l-3.7,5.6
						c0.4,0.4,0.8,0.7,1.3,0.9l-3.9,5.8c0.4,0.4,0.8,0.8,1.3,1.1l-3.6,5.4c2.2,2.2,5.2,3.6,8.6,3.6c3.4,0,6.4-1.4,8.6-3.6
						L657.6,209.5z"/>
					<path class="st30" d="M617.6,209.5c0.5-0.3,0.9-0.7,1.3-1.1l-3.9-5.8c0.5-0.2,0.9-0.6,1.3-0.9l-3.7-5.6l-3.7,5.6
						c0.4,0.4,0.8,0.7,1.3,0.9l-3.9,5.8c0.4,0.4,0.8,0.8,1.3,1.1l-3.6,5.4c2.2,2.2,5.2,3.6,8.6,3.6c3.4,0,6.4-1.4,8.6-3.6
						L617.6,209.5z"/>
					<path class="st30" d="M677.6,169.5c0.5-0.3,0.9-0.7,1.3-1.1l-3.9-5.8c0.5-0.2,0.9-0.6,1.3-0.9l-3.7-5.6l-3.7,5.6
						c0.4,0.4,0.8,0.7,1.3,0.9l-3.9,5.8c0.4,0.4,0.8,0.8,1.3,1.1l-3.6,5.4c2.2,2.2,5.2,3.6,8.6,3.6c3.4,0,6.4-1.4,8.6-3.6
						L677.6,169.5z"/>
					<path class="st30" d="M637.6,169.5c0.5-0.3,0.9-0.7,1.3-1.1l-3.9-5.8c0.5-0.2,0.9-0.6,1.3-0.9l-3.7-5.6l-3.7,5.6
						c0.4,0.4,0.8,0.7,1.3,0.9l-3.9,5.8c0.4,0.4,0.8,0.8,1.3,1.1l-3.6,5.4c2.2,2.2,5.2,3.6,8.6,3.6c3.4,0,6.4-1.4,8.6-3.6
						L637.6,169.5z"/>
				</g>
			</g>
			<g class="st17">
				<g>
					<defs>
						<rect id="SVGID_55_" x="612.6" y="247.2" width="80" height="80"/>
					</defs>
					<clipPath id="SVGID_56_">
						<use xlink:href="#SVGID_55_"  style="overflow:visible;"/>
					</clipPath>
					<path class="st31" d="M677.6,329.5c0.5-0.3,0.9-0.7,1.3-1.1l-3.9-5.8c0.5-0.2,0.9-0.6,1.3-0.9l-3.7-5.6l-3.7,5.6
						c0.4,0.4,0.8,0.7,1.3,0.9l-3.9,5.8c0.4,0.4,0.8,0.8,1.3,1.1l-3.6,5.4c2.2,2.2,5.2,3.6,8.6,3.6c3.4,0,6.4-1.4,8.6-3.6
						L677.6,329.5z"/>
					<path class="st31" d="M637.6,329.5c0.5-0.3,0.9-0.7,1.3-1.1l-3.9-5.8c0.5-0.2,0.9-0.6,1.3-0.9l-3.7-5.6l-3.7,5.6
						c0.4,0.4,0.8,0.7,1.3,0.9l-3.9,5.8c0.4,0.4,0.8,0.8,1.3,1.1l-3.6,5.4c2.2,2.2,5.2,3.6,8.6,3.6c3.4,0,6.4-1.4,8.6-3.6
						L637.6,329.5z"/>
					<path class="st31" d="M697.6,289.5c0.5-0.3,0.9-0.7,1.3-1.1l-3.9-5.8c0.5-0.2,0.9-0.6,1.3-0.9l-3.7-5.6l-3.7,5.6
						c0.4,0.4,0.8,0.7,1.3,0.9l-3.9,5.8c0.4,0.4,0.8,0.8,1.3,1.1l-3.6,5.4c2.2,2.2,5.2,3.6,8.6,3.6c3.4,0,6.4-1.4,8.6-3.6
						L697.6,289.5z"/>
					<path class="st31" d="M657.6,289.5c0.5-0.3,0.9-0.7,1.3-1.1l-3.9-5.8c0.5-0.2,0.9-0.6,1.3-0.9l-3.7-5.6l-3.7,5.6
						c0.4,0.4,0.8,0.7,1.3,0.9l-3.9,5.8c0.4,0.4,0.8,0.8,1.3,1.1l-3.6,5.4c2.2,2.2,5.2,3.6,8.6,3.6c3.4,0,6.4-1.4,8.6-3.6
						L657.6,289.5z"/>
					<path class="st31" d="M617.6,289.5c0.5-0.3,0.9-0.7,1.3-1.1l-3.9-5.8c0.5-0.2,0.9-0.6,1.3-0.9l-3.7-5.6l-3.7,5.6
						c0.4,0.4,0.8,0.7,1.3,0.9l-3.9,5.8c0.4,0.4,0.8,0.8,1.3,1.1l-3.6,5.4c2.2,2.2,5.2,3.6,8.6,3.6c3.4,0,6.4-1.4,8.6-3.6
						L617.6,289.5z"/>
					<path class="st31" d="M677.6,249.5c0.5-0.3,0.9-0.7,1.3-1.1l-3.9-5.8c0.5-0.2,0.9-0.6,1.3-0.9l-3.7-5.6l-3.7,5.6
						c0.4,0.4,0.8,0.7,1.3,0.9l-3.9,5.8c0.4,0.4,0.8,0.8,1.3,1.1l-3.6,5.4c2.2,2.2,5.2,3.6,8.6,3.6c3.4,0,6.4-1.4,8.6-3.6
						L677.6,249.5z"/>
					<path class="st31" d="M637.6,249.5c0.5-0.3,0.9-0.7,1.3-1.1l-3.9-5.8c0.5-0.2,0.9-0.6,1.3-0.9l-3.7-5.6l-3.7,5.6
						c0.4,0.4,0.8,0.7,1.3,0.9l-3.9,5.8c0.4,0.4,0.8,0.8,1.3,1.1l-3.6,5.4c2.2,2.2,5.2,3.6,8.6,3.6c3.4,0,6.4-1.4,8.6-3.6
						L637.6,249.5z"/>
				</g>
			</g>
			<g class="st17">
				<g>
					<defs>
						<rect id="SVGID_57_" x="612.6" y="327.2" width="80" height="80"/>
					</defs>
					<clipPath id="SVGID_58_">
						<use xlink:href="#SVGID_57_"  style="overflow:visible;"/>
					</clipPath>
					<path class="st32" d="M677.6,409.5c0.5-0.3,0.9-0.7,1.3-1.1l-3.9-5.8c0.5-0.2,0.9-0.6,1.3-0.9l-3.7-5.6l-3.7,5.6
						c0.4,0.4,0.8,0.7,1.3,0.9l-3.9,5.8c0.4,0.4,0.8,0.8,1.3,1.1l-3.6,5.4c2.2,2.2,5.2,3.6,8.6,3.6c3.4,0,6.4-1.4,8.6-3.6
						L677.6,409.5z"/>
					<path class="st32" d="M637.6,409.5c0.5-0.3,0.9-0.7,1.3-1.1l-3.9-5.8c0.5-0.2,0.9-0.6,1.3-0.9l-3.7-5.6l-3.7,5.6
						c0.4,0.4,0.8,0.7,1.3,0.9l-3.9,5.8c0.4,0.4,0.8,0.8,1.3,1.1l-3.6,5.4c2.2,2.2,5.2,3.6,8.6,3.6c3.4,0,6.4-1.4,8.6-3.6
						L637.6,409.5z"/>
					<path class="st32" d="M697.6,369.5c0.5-0.3,0.9-0.7,1.3-1.1l-3.9-5.8c0.5-0.2,0.9-0.6,1.3-0.9l-3.7-5.6l-3.7,5.6
						c0.4,0.4,0.8,0.7,1.3,0.9l-3.9,5.8c0.4,0.4,0.8,0.8,1.3,1.1l-3.6,5.4c2.2,2.2,5.2,3.6,8.6,3.6c3.4,0,6.4-1.4,8.6-3.6
						L697.6,369.5z"/>
					<path class="st32" d="M657.6,369.5c0.5-0.3,0.9-0.7,1.3-1.1l-3.9-5.8c0.5-0.2,0.9-0.6,1.3-0.9l-3.7-5.6l-3.7,5.6
						c0.4,0.4,0.8,0.7,1.3,0.9l-3.9,5.8c0.4,0.4,0.8,0.8,1.3,1.1l-3.6,5.4c2.2,2.2,5.2,3.6,8.6,3.6c3.4,0,6.4-1.4,8.6-3.6
						L657.6,369.5z"/>
					<path class="st32" d="M617.6,369.5c0.5-0.3,0.9-0.7,1.3-1.1l-3.9-5.8c0.5-0.2,0.9-0.6,1.3-0.9l-3.7-5.6l-3.7,5.6
						c0.4,0.4,0.8,0.7,1.3,0.9l-3.9,5.8c0.4,0.4,0.8,0.8,1.3,1.1l-3.6,5.4c2.2,2.2,5.2,3.6,8.6,3.6c3.4,0,6.4-1.4,8.6-3.6
						L617.6,369.5z"/>
					<path class="st32" d="M677.6,329.5c0.5-0.3,0.9-0.7,1.3-1.1l-3.9-5.8c0.5-0.2,0.9-0.6,1.3-0.9l-3.7-5.6l-3.7,5.6
						c0.4,0.4,0.8,0.7,1.3,0.9l-3.9,5.8c0.4,0.4,0.8,0.8,1.3,1.1l-3.6,5.4c2.2,2.2,5.2,3.6,8.6,3.6c3.4,0,6.4-1.4,8.6-3.6
						L677.6,329.5z"/>
					<path class="st32" d="M637.6,329.5c0.5-0.3,0.9-0.7,1.3-1.1l-3.9-5.8c0.5-0.2,0.9-0.6,1.3-0.9l-3.7-5.6l-3.7,5.6
						c0.4,0.4,0.8,0.7,1.3,0.9l-3.9,5.8c0.4,0.4,0.8,0.8,1.3,1.1l-3.6,5.4c2.2,2.2,5.2,3.6,8.6,3.6c3.4,0,6.4-1.4,8.6-3.6
						L637.6,329.5z"/>
				</g>
			</g>
			<g class="st17">
				<g>
					<defs>
						<rect id="SVGID_59_" x="612.6" y="407.2" width="80" height="80"/>
					</defs>
					<clipPath id="SVGID_60_">
						<use xlink:href="#SVGID_59_"  style="overflow:visible;"/>
					</clipPath>
					<path class="st33" d="M677.6,489.5c0.5-0.3,0.9-0.7,1.3-1.1l-3.9-5.8c0.5-0.2,0.9-0.6,1.3-0.9l-3.7-5.6l-3.7,5.6
						c0.4,0.4,0.8,0.7,1.3,0.9l-3.9,5.8c0.4,0.4,0.8,0.8,1.3,1.1l-3.6,5.4c2.2,2.2,5.2,3.6,8.6,3.6c3.4,0,6.4-1.4,8.6-3.6
						L677.6,489.5z"/>
					<path class="st33" d="M637.6,489.5c0.5-0.3,0.9-0.7,1.3-1.1l-3.9-5.8c0.5-0.2,0.9-0.6,1.3-0.9l-3.7-5.6l-3.7,5.6
						c0.4,0.4,0.8,0.7,1.3,0.9l-3.9,5.8c0.4,0.4,0.8,0.8,1.3,1.1l-3.6,5.4c2.2,2.2,5.2,3.6,8.6,3.6c3.4,0,6.4-1.4,8.6-3.6
						L637.6,489.5z"/>
					<path class="st33" d="M697.6,449.5c0.5-0.3,0.9-0.7,1.3-1.1l-3.9-5.8c0.5-0.2,0.9-0.6,1.3-0.9l-3.7-5.6l-3.7,5.6
						c0.4,0.4,0.8,0.7,1.3,0.9l-3.9,5.8c0.4,0.4,0.8,0.8,1.3,1.1l-3.6,5.4c2.2,2.2,5.2,3.6,8.6,3.6c3.4,0,6.4-1.4,8.6-3.6
						L697.6,449.5z"/>
					<path class="st33" d="M657.6,449.5c0.5-0.3,0.9-0.7,1.3-1.1l-3.9-5.8c0.5-0.2,0.9-0.6,1.3-0.9l-3.7-5.6l-3.7,5.6
						c0.4,0.4,0.8,0.7,1.3,0.9l-3.9,5.8c0.4,0.4,0.8,0.8,1.3,1.1l-3.6,5.4c2.2,2.2,5.2,3.6,8.6,3.6c3.4,0,6.4-1.4,8.6-3.6
						L657.6,449.5z"/>
					<path class="st33" d="M617.6,449.5c0.5-0.3,0.9-0.7,1.3-1.1l-3.9-5.8c0.5-0.2,0.9-0.6,1.3-0.9l-3.7-5.6l-3.7,5.6
						c0.4,0.4,0.8,0.7,1.3,0.9l-3.9,5.8c0.4,0.4,0.8,0.8,1.3,1.1l-3.6,5.4c2.2,2.2,5.2,3.6,8.6,3.6c3.4,0,6.4-1.4,8.6-3.6
						L617.6,449.5z"/>
					<path class="st33" d="M677.6,409.5c0.5-0.3,0.9-0.7,1.3-1.1l-3.9-5.8c0.5-0.2,0.9-0.6,1.3-0.9l-3.7-5.6l-3.7,5.6
						c0.4,0.4,0.8,0.7,1.3,0.9l-3.9,5.8c0.4,0.4,0.8,0.8,1.3,1.1l-3.6,5.4c2.2,2.2,5.2,3.6,8.6,3.6c3.4,0,6.4-1.4,8.6-3.6
						L677.6,409.5z"/>
					<path class="st33" d="M637.6,409.5c0.5-0.3,0.9-0.7,1.3-1.1l-3.9-5.8c0.5-0.2,0.9-0.6,1.3-0.9l-3.7-5.6l-3.7,5.6
						c0.4,0.4,0.8,0.7,1.3,0.9l-3.9,5.8c0.4,0.4,0.8,0.8,1.3,1.1l-3.6,5.4c2.2,2.2,5.2,3.6,8.6,3.6c3.4,0,6.4-1.4,8.6-3.6
						L637.6,409.5z"/>
				</g>
			</g>
			<g class="st17">
				<g>
					<defs>
						<rect id="SVGID_61_" x="532.6" y="167.2" width="80" height="80"/>
					</defs>
					<clipPath id="SVGID_62_">
						<use xlink:href="#SVGID_61_"  style="overflow:visible;"/>
					</clipPath>
					<path class="st34" d="M597.6,249.5c0.5-0.3,0.9-0.7,1.3-1.1l-3.9-5.8c0.5-0.2,0.9-0.6,1.3-0.9l-3.7-5.6l-3.7,5.6
						c0.4,0.4,0.8,0.7,1.3,0.9l-3.9,5.8c0.4,0.4,0.8,0.8,1.3,1.1l-3.6,5.4c2.2,2.2,5.2,3.6,8.6,3.6c3.4,0,6.4-1.4,8.6-3.6
						L597.6,249.5z"/>
					<path class="st34" d="M557.6,249.5c0.5-0.3,0.9-0.7,1.3-1.1l-3.9-5.8c0.5-0.2,0.9-0.6,1.3-0.9l-3.7-5.6l-3.7,5.6
						c0.4,0.4,0.8,0.7,1.3,0.9l-3.9,5.8c0.4,0.4,0.8,0.8,1.3,1.1l-3.6,5.4c2.2,2.2,5.2,3.6,8.6,3.6c3.4,0,6.4-1.4,8.6-3.6
						L557.6,249.5z"/>
					<path class="st34" d="M617.6,209.5c0.5-0.3,0.9-0.7,1.3-1.1l-3.9-5.8c0.5-0.2,0.9-0.6,1.3-0.9l-3.7-5.6l-3.7,5.6
						c0.4,0.4,0.8,0.7,1.3,0.9l-3.9,5.8c0.4,0.4,0.8,0.8,1.3,1.1l-3.6,5.4c2.2,2.2,5.2,3.6,8.6,3.6c3.4,0,6.4-1.4,8.6-3.6
						L617.6,209.5z"/>
					<path class="st34" d="M577.6,209.5c0.5-0.3,0.9-0.7,1.3-1.1l-3.9-5.8c0.5-0.2,0.9-0.6,1.3-0.9l-3.7-5.6l-3.7,5.6
						c0.4,0.4,0.8,0.7,1.3,0.9l-3.9,5.8c0.4,0.4,0.8,0.8,1.3,1.1l-3.6,5.4c2.2,2.2,5.2,3.6,8.6,3.6c3.4,0,6.4-1.4,8.6-3.6
						L577.6,209.5z"/>
					<path class="st34" d="M537.6,209.5c0.5-0.3,0.9-0.7,1.3-1.1l-3.9-5.8c0.5-0.2,0.9-0.6,1.3-0.9l-3.7-5.6l-3.7,5.6
						c0.4,0.4,0.8,0.7,1.3,0.9l-3.9,5.8c0.4,0.4,0.8,0.8,1.3,1.1l-3.6,5.4c2.2,2.2,5.2,3.6,8.6,3.6c3.4,0,6.4-1.4,8.6-3.6
						L537.6,209.5z"/>
					<path class="st34" d="M597.6,169.5c0.5-0.3,0.9-0.7,1.3-1.1l-3.9-5.8c0.5-0.2,0.9-0.6,1.3-0.9l-3.7-5.6l-3.7,5.6
						c0.4,0.4,0.8,0.7,1.3,0.9l-3.9,5.8c0.4,0.4,0.8,0.8,1.3,1.1l-3.6,5.4c2.2,2.2,5.2,3.6,8.6,3.6c3.4,0,6.4-1.4,8.6-3.6
						L597.6,169.5z"/>
					<path class="st34" d="M557.6,169.5c0.5-0.3,0.9-0.7,1.3-1.1l-3.9-5.8c0.5-0.2,0.9-0.6,1.3-0.9l-3.7-5.6l-3.7,5.6
						c0.4,0.4,0.8,0.7,1.3,0.9l-3.9,5.8c0.4,0.4,0.8,0.8,1.3,1.1l-3.6,5.4c2.2,2.2,5.2,3.6,8.6,3.6c3.4,0,6.4-1.4,8.6-3.6
						L557.6,169.5z"/>
				</g>
			</g>
			<g class="st17">
				<g>
					<defs>
						<rect id="SVGID_63_" x="532.6" y="247.2" width="80" height="80"/>
					</defs>
					<clipPath id="SVGID_64_">
						<use xlink:href="#SVGID_63_"  style="overflow:visible;"/>
					</clipPath>
					<path class="st35" d="M597.6,329.5c0.5-0.3,0.9-0.7,1.3-1.1l-3.9-5.8c0.5-0.2,0.9-0.6,1.3-0.9l-3.7-5.6l-3.7,5.6
						c0.4,0.4,0.8,0.7,1.3,0.9l-3.9,5.8c0.4,0.4,0.8,0.8,1.3,1.1l-3.6,5.4c2.2,2.2,5.2,3.6,8.6,3.6c3.4,0,6.4-1.4,8.6-3.6
						L597.6,329.5z"/>
					<path class="st35" d="M557.6,329.5c0.5-0.3,0.9-0.7,1.3-1.1l-3.9-5.8c0.5-0.2,0.9-0.6,1.3-0.9l-3.7-5.6l-3.7,5.6
						c0.4,0.4,0.8,0.7,1.3,0.9l-3.9,5.8c0.4,0.4,0.8,0.8,1.3,1.1l-3.6,5.4c2.2,2.2,5.2,3.6,8.6,3.6c3.4,0,6.4-1.4,8.6-3.6
						L557.6,329.5z"/>
					<path class="st35" d="M617.6,289.5c0.5-0.3,0.9-0.7,1.3-1.1l-3.9-5.8c0.5-0.2,0.9-0.6,1.3-0.9l-3.7-5.6l-3.7,5.6
						c0.4,0.4,0.8,0.7,1.3,0.9l-3.9,5.8c0.4,0.4,0.8,0.8,1.3,1.1l-3.6,5.4c2.2,2.2,5.2,3.6,8.6,3.6c3.4,0,6.4-1.4,8.6-3.6
						L617.6,289.5z"/>
					<path class="st35" d="M577.6,289.5c0.5-0.3,0.9-0.7,1.3-1.1l-3.9-5.8c0.5-0.2,0.9-0.6,1.3-0.9l-3.7-5.6l-3.7,5.6
						c0.4,0.4,0.8,0.7,1.3,0.9l-3.9,5.8c0.4,0.4,0.8,0.8,1.3,1.1l-3.6,5.4c2.2,2.2,5.2,3.6,8.6,3.6c3.4,0,6.4-1.4,8.6-3.6
						L577.6,289.5z"/>
					<path class="st35" d="M537.6,289.5c0.5-0.3,0.9-0.7,1.3-1.1l-3.9-5.8c0.5-0.2,0.9-0.6,1.3-0.9l-3.7-5.6l-3.7,5.6
						c0.4,0.4,0.8,0.7,1.3,0.9l-3.9,5.8c0.4,0.4,0.8,0.8,1.3,1.1l-3.6,5.4c2.2,2.2,5.2,3.6,8.6,3.6c3.4,0,6.4-1.4,8.6-3.6
						L537.6,289.5z"/>
					<path class="st35" d="M597.6,249.5c0.5-0.3,0.9-0.7,1.3-1.1l-3.9-5.8c0.5-0.2,0.9-0.6,1.3-0.9l-3.7-5.6l-3.7,5.6
						c0.4,0.4,0.8,0.7,1.3,0.9l-3.9,5.8c0.4,0.4,0.8,0.8,1.3,1.1l-3.6,5.4c2.2,2.2,5.2,3.6,8.6,3.6c3.4,0,6.4-1.4,8.6-3.6
						L597.6,249.5z"/>
					<path class="st35" d="M557.6,249.5c0.5-0.3,0.9-0.7,1.3-1.1l-3.9-5.8c0.5-0.2,0.9-0.6,1.3-0.9l-3.7-5.6l-3.7,5.6
						c0.4,0.4,0.8,0.7,1.3,0.9l-3.9,5.8c0.4,0.4,0.8,0.8,1.3,1.1l-3.6,5.4c2.2,2.2,5.2,3.6,8.6,3.6c3.4,0,6.4-1.4,8.6-3.6
						L557.6,249.5z"/>
				</g>
			</g>
			<g class="st17">
				<g>
					<defs>
						<rect id="SVGID_65_" x="532.6" y="327.2" width="80" height="80"/>
					</defs>
					<clipPath id="SVGID_66_">
						<use xlink:href="#SVGID_65_"  style="overflow:visible;"/>
					</clipPath>
					<path class="st36" d="M597.6,409.5c0.5-0.3,0.9-0.7,1.3-1.1l-3.9-5.8c0.5-0.2,0.9-0.6,1.3-0.9l-3.7-5.6l-3.7,5.6
						c0.4,0.4,0.8,0.7,1.3,0.9l-3.9,5.8c0.4,0.4,0.8,0.8,1.3,1.1l-3.6,5.4c2.2,2.2,5.2,3.6,8.6,3.6c3.4,0,6.4-1.4,8.6-3.6
						L597.6,409.5z"/>
					<path class="st36" d="M557.6,409.5c0.5-0.3,0.9-0.7,1.3-1.1l-3.9-5.8c0.5-0.2,0.9-0.6,1.3-0.9l-3.7-5.6l-3.7,5.6
						c0.4,0.4,0.8,0.7,1.3,0.9l-3.9,5.8c0.4,0.4,0.8,0.8,1.3,1.1l-3.6,5.4c2.2,2.2,5.2,3.6,8.6,3.6c3.4,0,6.4-1.4,8.6-3.6
						L557.6,409.5z"/>
					<path class="st36" d="M617.6,369.5c0.5-0.3,0.9-0.7,1.3-1.1l-3.9-5.8c0.5-0.2,0.9-0.6,1.3-0.9l-3.7-5.6l-3.7,5.6
						c0.4,0.4,0.8,0.7,1.3,0.9l-3.9,5.8c0.4,0.4,0.8,0.8,1.3,1.1l-3.6,5.4c2.2,2.2,5.2,3.6,8.6,3.6c3.4,0,6.4-1.4,8.6-3.6
						L617.6,369.5z"/>
					<path class="st36" d="M577.6,369.5c0.5-0.3,0.9-0.7,1.3-1.1l-3.9-5.8c0.5-0.2,0.9-0.6,1.3-0.9l-3.7-5.6l-3.7,5.6
						c0.4,0.4,0.8,0.7,1.3,0.9l-3.9,5.8c0.4,0.4,0.8,0.8,1.3,1.1l-3.6,5.4c2.2,2.2,5.2,3.6,8.6,3.6c3.4,0,6.4-1.4,8.6-3.6
						L577.6,369.5z"/>
					<path class="st36" d="M537.6,369.5c0.5-0.3,0.9-0.7,1.3-1.1l-3.9-5.8c0.5-0.2,0.9-0.6,1.3-0.9l-3.7-5.6l-3.7,5.6
						c0.4,0.4,0.8,0.7,1.3,0.9l-3.9,5.8c0.4,0.4,0.8,0.8,1.3,1.1l-3.6,5.4c2.2,2.2,5.2,3.6,8.6,3.6c3.4,0,6.4-1.4,8.6-3.6
						L537.6,369.5z"/>
					<path class="st36" d="M597.6,329.5c0.5-0.3,0.9-0.7,1.3-1.1l-3.9-5.8c0.5-0.2,0.9-0.6,1.3-0.9l-3.7-5.6l-3.7,5.6
						c0.4,0.4,0.8,0.7,1.3,0.9l-3.9,5.8c0.4,0.4,0.8,0.8,1.3,1.1l-3.6,5.4c2.2,2.2,5.2,3.6,8.6,3.6c3.4,0,6.4-1.4,8.6-3.6
						L597.6,329.5z"/>
					<path class="st36" d="M557.6,329.5c0.5-0.3,0.9-0.7,1.3-1.1l-3.9-5.8c0.5-0.2,0.9-0.6,1.3-0.9l-3.7-5.6l-3.7,5.6
						c0.4,0.4,0.8,0.7,1.3,0.9l-3.9,5.8c0.4,0.4,0.8,0.8,1.3,1.1l-3.6,5.4c2.2,2.2,5.2,3.6,8.6,3.6c3.4,0,6.4-1.4,8.6-3.6
						L557.6,329.5z"/>
				</g>
			</g>
			<g class="st17">
				<g>
					<defs>
						<rect id="SVGID_67_" x="532.6" y="407.2" width="80" height="80"/>
					</defs>
					<clipPath id="SVGID_68_">
						<use xlink:href="#SVGID_67_"  style="overflow:visible;"/>
					</clipPath>
					<path class="st37" d="M597.6,489.5c0.5-0.3,0.9-0.7,1.3-1.1l-3.9-5.8c0.5-0.2,0.9-0.6,1.3-0.9l-3.7-5.6l-3.7,5.6
						c0.4,0.4,0.8,0.7,1.3,0.9l-3.9,5.8c0.4,0.4,0.8,0.8,1.3,1.1l-3.6,5.4c2.2,2.2,5.2,3.6,8.6,3.6c3.4,0,6.4-1.4,8.6-3.6
						L597.6,489.5z"/>
					<path class="st37" d="M557.6,489.5c0.5-0.3,0.9-0.7,1.3-1.1l-3.9-5.8c0.5-0.2,0.9-0.6,1.3-0.9l-3.7-5.6l-3.7,5.6
						c0.4,0.4,0.8,0.7,1.3,0.9l-3.9,5.8c0.4,0.4,0.8,0.8,1.3,1.1l-3.6,5.4c2.2,2.2,5.2,3.6,8.6,3.6c3.4,0,6.4-1.4,8.6-3.6
						L557.6,489.5z"/>
					<path class="st37" d="M617.6,449.5c0.5-0.3,0.9-0.7,1.3-1.1l-3.9-5.8c0.5-0.2,0.9-0.6,1.3-0.9l-3.7-5.6l-3.7,5.6
						c0.4,0.4,0.8,0.7,1.3,0.9l-3.9,5.8c0.4,0.4,0.8,0.8,1.3,1.1l-3.6,5.4c2.2,2.2,5.2,3.6,8.6,3.6c3.4,0,6.4-1.4,8.6-3.6
						L617.6,449.5z"/>
					<path class="st37" d="M577.6,449.5c0.5-0.3,0.9-0.7,1.3-1.1l-3.9-5.8c0.5-0.2,0.9-0.6,1.3-0.9l-3.7-5.6l-3.7,5.6
						c0.4,0.4,0.8,0.7,1.3,0.9l-3.9,5.8c0.4,0.4,0.8,0.8,1.3,1.1l-3.6,5.4c2.2,2.2,5.2,3.6,8.6,3.6c3.4,0,6.4-1.4,8.6-3.6
						L577.6,449.5z"/>
					<path class="st37" d="M537.6,449.5c0.5-0.3,0.9-0.7,1.3-1.1l-3.9-5.8c0.5-0.2,0.9-0.6,1.3-0.9l-3.7-5.6l-3.7,5.6
						c0.4,0.4,0.8,0.7,1.3,0.9l-3.9,5.8c0.4,0.4,0.8,0.8,1.3,1.1l-3.6,5.4c2.2,2.2,5.2,3.6,8.6,3.6c3.4,0,6.4-1.4,8.6-3.6
						L537.6,449.5z"/>
					<path class="st37" d="M597.6,409.5c0.5-0.3,0.9-0.7,1.3-1.1l-3.9-5.8c0.5-0.2,0.9-0.6,1.3-0.9l-3.7-5.6l-3.7,5.6
						c0.4,0.4,0.8,0.7,1.3,0.9l-3.9,5.8c0.4,0.4,0.8,0.8,1.3,1.1l-3.6,5.4c2.2,2.2,5.2,3.6,8.6,3.6c3.4,0,6.4-1.4,8.6-3.6
						L597.6,409.5z"/>
					<path class="st37" d="M557.6,409.5c0.5-0.3,0.9-0.7,1.3-1.1l-3.9-5.8c0.5-0.2,0.9-0.6,1.3-0.9l-3.7-5.6l-3.7,5.6
						c0.4,0.4,0.8,0.7,1.3,0.9l-3.9,5.8c0.4,0.4,0.8,0.8,1.3,1.1l-3.6,5.4c2.2,2.2,5.2,3.6,8.6,3.6c3.4,0,6.4-1.4,8.6-3.6
						L557.6,409.5z"/>
				</g>
			</g>
			<g class="st17">
				<g>
					<defs>
						<rect id="SVGID_69_" x="452.6" y="167.2" width="80" height="80"/>
					</defs>
					<clipPath id="SVGID_70_">
						<use xlink:href="#SVGID_69_"  style="overflow:visible;"/>
					</clipPath>
					<path class="st38" d="M517.6,249.5c0.5-0.3,0.9-0.7,1.3-1.1l-3.9-5.8c0.5-0.2,0.9-0.6,1.3-0.9l-3.7-5.6l-3.7,5.6
						c0.4,0.4,0.8,0.7,1.3,0.9l-3.9,5.8c0.4,0.4,0.8,0.8,1.3,1.1l-3.6,5.4c2.2,2.2,5.2,3.6,8.6,3.6c3.4,0,6.4-1.4,8.6-3.6
						L517.6,249.5z"/>
					<path class="st38" d="M477.6,249.5c0.5-0.3,0.9-0.7,1.3-1.1l-3.9-5.8c0.5-0.2,0.9-0.6,1.3-0.9l-3.7-5.6l-3.7,5.6
						c0.4,0.4,0.8,0.7,1.3,0.9l-3.9,5.8c0.4,0.4,0.8,0.8,1.3,1.1l-3.6,5.4c2.2,2.2,5.2,3.6,8.6,3.6s6.4-1.4,8.6-3.6L477.6,249.5z"/>
					<path class="st38" d="M537.6,209.5c0.5-0.3,0.9-0.7,1.3-1.1l-3.9-5.8c0.5-0.2,0.9-0.6,1.3-0.9l-3.7-5.6l-3.7,5.6
						c0.4,0.4,0.8,0.7,1.3,0.9l-3.9,5.8c0.4,0.4,0.8,0.8,1.3,1.1l-3.6,5.4c2.2,2.2,5.2,3.6,8.6,3.6c3.4,0,6.4-1.4,8.6-3.6
						L537.6,209.5z"/>
					<path class="st38" d="M497.6,209.5c0.5-0.3,0.9-0.7,1.3-1.1l-3.9-5.8c0.5-0.2,0.9-0.6,1.3-0.9l-3.7-5.6l-3.7,5.6
						c0.4,0.4,0.8,0.7,1.3,0.9l-3.9,5.8c0.4,0.4,0.8,0.8,1.3,1.1l-3.6,5.4c2.2,2.2,5.2,3.6,8.6,3.6s6.4-1.4,8.6-3.6L497.6,209.5z"/>
					<path class="st38" d="M457.6,209.5c0.5-0.3,0.9-0.7,1.3-1.1l-3.9-5.8c0.5-0.2,0.9-0.6,1.3-0.9l-3.7-5.6l-3.7,5.6
						c0.4,0.4,0.8,0.7,1.3,0.9l-3.9,5.8c0.4,0.4,0.8,0.8,1.3,1.1l-3.6,5.4c2.2,2.2,5.2,3.6,8.6,3.6s6.4-1.4,8.6-3.6L457.6,209.5z"/>
					<path class="st38" d="M517.6,169.5c0.5-0.3,0.9-0.7,1.3-1.1l-3.9-5.8c0.5-0.2,0.9-0.6,1.3-0.9l-3.7-5.6l-3.7,5.6
						c0.4,0.4,0.8,0.7,1.3,0.9l-3.9,5.8c0.4,0.4,0.8,0.8,1.3,1.1l-3.6,5.4c2.2,2.2,5.2,3.6,8.6,3.6c3.4,0,6.4-1.4,8.6-3.6
						L517.6,169.5z"/>
					<path class="st38" d="M477.6,169.5c0.5-0.3,0.9-0.7,1.3-1.1l-3.9-5.8c0.5-0.2,0.9-0.6,1.3-0.9l-3.7-5.6l-3.7,5.6
						c0.4,0.4,0.8,0.7,1.3,0.9l-3.9,5.8c0.4,0.4,0.8,0.8,1.3,1.1l-3.6,5.4c2.2,2.2,5.2,3.6,8.6,3.6s6.4-1.4,8.6-3.6L477.6,169.5z"/>
				</g>
			</g>
			<g class="st17">
				<g>
					<defs>
						<rect id="SVGID_71_" x="452.6" y="247.2" width="80" height="80"/>
					</defs>
					<clipPath id="SVGID_72_">
						<use xlink:href="#SVGID_71_"  style="overflow:visible;"/>
					</clipPath>
					<path class="st39" d="M517.6,329.5c0.5-0.3,0.9-0.7,1.3-1.1l-3.9-5.8c0.5-0.2,0.9-0.6,1.3-0.9l-3.7-5.6l-3.7,5.6
						c0.4,0.4,0.8,0.7,1.3,0.9l-3.9,5.8c0.4,0.4,0.8,0.8,1.3,1.1l-3.6,5.4c2.2,2.2,5.2,3.6,8.6,3.6c3.4,0,6.4-1.4,8.6-3.6
						L517.6,329.5z"/>
					<path class="st39" d="M477.6,329.5c0.5-0.3,0.9-0.7,1.3-1.1l-3.9-5.8c0.5-0.2,0.9-0.6,1.3-0.9l-3.7-5.6l-3.7,5.6
						c0.4,0.4,0.8,0.7,1.3,0.9l-3.9,5.8c0.4,0.4,0.8,0.8,1.3,1.1l-3.6,5.4c2.2,2.2,5.2,3.6,8.6,3.6s6.4-1.4,8.6-3.6L477.6,329.5z"/>
					<path class="st39" d="M537.6,289.5c0.5-0.3,0.9-0.7,1.3-1.1l-3.9-5.8c0.5-0.2,0.9-0.6,1.3-0.9l-3.7-5.6l-3.7,5.6
						c0.4,0.4,0.8,0.7,1.3,0.9l-3.9,5.8c0.4,0.4,0.8,0.8,1.3,1.1l-3.6,5.4c2.2,2.2,5.2,3.6,8.6,3.6c3.4,0,6.4-1.4,8.6-3.6
						L537.6,289.5z"/>
					<path class="st39" d="M497.6,289.5c0.5-0.3,0.9-0.7,1.3-1.1l-3.9-5.8c0.5-0.2,0.9-0.6,1.3-0.9l-3.7-5.6l-3.7,5.6
						c0.4,0.4,0.8,0.7,1.3,0.9l-3.9,5.8c0.4,0.4,0.8,0.8,1.3,1.1l-3.6,5.4c2.2,2.2,5.2,3.6,8.6,3.6s6.4-1.4,8.6-3.6L497.6,289.5z"/>
					<path class="st39" d="M457.6,289.5c0.5-0.3,0.9-0.7,1.3-1.1l-3.9-5.8c0.5-0.2,0.9-0.6,1.3-0.9l-3.7-5.6l-3.7,5.6
						c0.4,0.4,0.8,0.7,1.3,0.9l-3.9,5.8c0.4,0.4,0.8,0.8,1.3,1.1l-3.6,5.4c2.2,2.2,5.2,3.6,8.6,3.6s6.4-1.4,8.6-3.6L457.6,289.5z"/>
					<path class="st39" d="M517.6,249.5c0.5-0.3,0.9-0.7,1.3-1.1l-3.9-5.8c0.5-0.2,0.9-0.6,1.3-0.9l-3.7-5.6l-3.7,5.6
						c0.4,0.4,0.8,0.7,1.3,0.9l-3.9,5.8c0.4,0.4,0.8,0.8,1.3,1.1l-3.6,5.4c2.2,2.2,5.2,3.6,8.6,3.6c3.4,0,6.4-1.4,8.6-3.6
						L517.6,249.5z"/>
					<path class="st39" d="M477.6,249.5c0.5-0.3,0.9-0.7,1.3-1.1l-3.9-5.8c0.5-0.2,0.9-0.6,1.3-0.9l-3.7-5.6l-3.7,5.6
						c0.4,0.4,0.8,0.7,1.3,0.9l-3.9,5.8c0.4,0.4,0.8,0.8,1.3,1.1l-3.6,5.4c2.2,2.2,5.2,3.6,8.6,3.6s6.4-1.4,8.6-3.6L477.6,249.5z"/>
				</g>
			</g>
			<g class="st17">
				<g>
					<defs>
						<rect id="SVGID_73_" x="452.6" y="327.2" width="80" height="80"/>
					</defs>
					<clipPath id="SVGID_74_">
						<use xlink:href="#SVGID_73_"  style="overflow:visible;"/>
					</clipPath>
					<path class="st40" d="M517.6,409.5c0.5-0.3,0.9-0.7,1.3-1.1l-3.9-5.8c0.5-0.2,0.9-0.6,1.3-0.9l-3.7-5.6l-3.7,5.6
						c0.4,0.4,0.8,0.7,1.3,0.9l-3.9,5.8c0.4,0.4,0.8,0.8,1.3,1.1l-3.6,5.4c2.2,2.2,5.2,3.6,8.6,3.6c3.4,0,6.4-1.4,8.6-3.6
						L517.6,409.5z"/>
					<path class="st40" d="M477.6,409.5c0.5-0.3,0.9-0.7,1.3-1.1l-3.9-5.8c0.5-0.2,0.9-0.6,1.3-0.9l-3.7-5.6l-3.7,5.6
						c0.4,0.4,0.8,0.7,1.3,0.9l-3.9,5.8c0.4,0.4,0.8,0.8,1.3,1.1l-3.6,5.4c2.2,2.2,5.2,3.6,8.6,3.6s6.4-1.4,8.6-3.6L477.6,409.5z"/>
					<path class="st40" d="M537.6,369.5c0.5-0.3,0.9-0.7,1.3-1.1l-3.9-5.8c0.5-0.2,0.9-0.6,1.3-0.9l-3.7-5.6l-3.7,5.6
						c0.4,0.4,0.8,0.7,1.3,0.9l-3.9,5.8c0.4,0.4,0.8,0.8,1.3,1.1l-3.6,5.4c2.2,2.2,5.2,3.6,8.6,3.6c3.4,0,6.4-1.4,8.6-3.6
						L537.6,369.5z"/>
					<path class="st40" d="M497.6,369.5c0.5-0.3,0.9-0.7,1.3-1.1l-3.9-5.8c0.5-0.2,0.9-0.6,1.3-0.9l-3.7-5.6l-3.7,5.6
						c0.4,0.4,0.8,0.7,1.3,0.9l-3.9,5.8c0.4,0.4,0.8,0.8,1.3,1.1l-3.6,5.4c2.2,2.2,5.2,3.6,8.6,3.6s6.4-1.4,8.6-3.6L497.6,369.5z"/>
					<path class="st40" d="M457.6,369.5c0.5-0.3,0.9-0.7,1.3-1.1l-3.9-5.8c0.5-0.2,0.9-0.6,1.3-0.9l-3.7-5.6l-3.7,5.6
						c0.4,0.4,0.8,0.7,1.3,0.9l-3.9,5.8c0.4,0.4,0.8,0.8,1.3,1.1l-3.6,5.4c2.2,2.2,5.2,3.6,8.6,3.6s6.4-1.4,8.6-3.6L457.6,369.5z"/>
					<path class="st40" d="M517.6,329.5c0.5-0.3,0.9-0.7,1.3-1.1l-3.9-5.8c0.5-0.2,0.9-0.6,1.3-0.9l-3.7-5.6l-3.7,5.6
						c0.4,0.4,0.8,0.7,1.3,0.9l-3.9,5.8c0.4,0.4,0.8,0.8,1.3,1.1l-3.6,5.4c2.2,2.2,5.2,3.6,8.6,3.6c3.4,0,6.4-1.4,8.6-3.6
						L517.6,329.5z"/>
					<path class="st40" d="M477.6,329.5c0.5-0.3,0.9-0.7,1.3-1.1l-3.9-5.8c0.5-0.2,0.9-0.6,1.3-0.9l-3.7-5.6l-3.7,5.6
						c0.4,0.4,0.8,0.7,1.3,0.9l-3.9,5.8c0.4,0.4,0.8,0.8,1.3,1.1l-3.6,5.4c2.2,2.2,5.2,3.6,8.6,3.6s6.4-1.4,8.6-3.6L477.6,329.5z"/>
				</g>
			</g>
			<g class="st17">
				<g>
					<defs>
						<rect id="SVGID_75_" x="452.6" y="407.2" width="80" height="80"/>
					</defs>
					<clipPath id="SVGID_76_">
						<use xlink:href="#SVGID_75_"  style="overflow:visible;"/>
					</clipPath>
					<path class="st41" d="M517.6,489.5c0.5-0.3,0.9-0.7,1.3-1.1l-3.9-5.8c0.5-0.2,0.9-0.6,1.3-0.9l-3.7-5.6l-3.7,5.6
						c0.4,0.4,0.8,0.7,1.3,0.9l-3.9,5.8c0.4,0.4,0.8,0.8,1.3,1.1l-3.6,5.4c2.2,2.2,5.2,3.6,8.6,3.6c3.4,0,6.4-1.4,8.6-3.6
						L517.6,489.5z"/>
					<path class="st41" d="M477.6,489.5c0.5-0.3,0.9-0.7,1.3-1.1l-3.9-5.8c0.5-0.2,0.9-0.6,1.3-0.9l-3.7-5.6l-3.7,5.6
						c0.4,0.4,0.8,0.7,1.3,0.9l-3.9,5.8c0.4,0.4,0.8,0.8,1.3,1.1l-3.6,5.4c2.2,2.2,5.2,3.6,8.6,3.6s6.4-1.4,8.6-3.6L477.6,489.5z"/>
					<path class="st41" d="M537.6,449.5c0.5-0.3,0.9-0.7,1.3-1.1l-3.9-5.8c0.5-0.2,0.9-0.6,1.3-0.9l-3.7-5.6l-3.7,5.6
						c0.4,0.4,0.8,0.7,1.3,0.9l-3.9,5.8c0.4,0.4,0.8,0.8,1.3,1.1l-3.6,5.4c2.2,2.2,5.2,3.6,8.6,3.6c3.4,0,6.4-1.4,8.6-3.6
						L537.6,449.5z"/>
					<path class="st41" d="M497.6,449.5c0.5-0.3,0.9-0.7,1.3-1.1l-3.9-5.8c0.5-0.2,0.9-0.6,1.3-0.9l-3.7-5.6l-3.7,5.6
						c0.4,0.4,0.8,0.7,1.3,0.9l-3.9,5.8c0.4,0.4,0.8,0.8,1.3,1.1l-3.6,5.4c2.2,2.2,5.2,3.6,8.6,3.6s6.4-1.4,8.6-3.6L497.6,449.5z"/>
					<path class="st41" d="M457.6,449.5c0.5-0.3,0.9-0.7,1.3-1.1l-3.9-5.8c0.5-0.2,0.9-0.6,1.3-0.9l-3.7-5.6l-3.7,5.6
						c0.4,0.4,0.8,0.7,1.3,0.9l-3.9,5.8c0.4,0.4,0.8,0.8,1.3,1.1l-3.6,5.4c2.2,2.2,5.2,3.6,8.6,3.6s6.4-1.4,8.6-3.6L457.6,449.5z"/>
					<path class="st41" d="M517.6,409.5c0.5-0.3,0.9-0.7,1.3-1.1l-3.9-5.8c0.5-0.2,0.9-0.6,1.3-0.9l-3.7-5.6l-3.7,5.6
						c0.4,0.4,0.8,0.7,1.3,0.9l-3.9,5.8c0.4,0.4,0.8,0.8,1.3,1.1l-3.6,5.4c2.2,2.2,5.2,3.6,8.6,3.6c3.4,0,6.4-1.4,8.6-3.6
						L517.6,409.5z"/>
					<path class="st41" d="M477.6,409.5c0.5-0.3,0.9-0.7,1.3-1.1l-3.9-5.8c0.5-0.2,0.9-0.6,1.3-0.9l-3.7-5.6l-3.7,5.6
						c0.4,0.4,0.8,0.7,1.3,0.9l-3.9,5.8c0.4,0.4,0.8,0.8,1.3,1.1l-3.6,5.4c2.2,2.2,5.2,3.6,8.6,3.6s6.4-1.4,8.6-3.6L477.6,409.5z"/>
				</g>
			</g>
		</g>
	</g>
	<g>
		<line class="st14" x1="490" y1="324.8" x2="874.6" y2="324.8"/>
		<rect x="490" y="304.8" class="st15" width="384.6" height="40"/>
	</g>
	<g>
		<line class="st14" x1="682.3" y1="486.5" x2="682.3" y2="217.8"/>
		<rect x="662.3" y="217.8" class="st15" width="40" height="268.8"/>
	</g>
	<rect x="490" y="217.7" class="st42" width="384.6" height="15.7"/>
</g>
<g>
	<path class="st43" d="M800.2,526.3l-213.3,33.2L424.4,563v-79.4h339.4c20.1,0,36.4,16.3,36.4,36.4V526.3z"/>
	<rect y="430" class="st44" width="395.3" height="164.2"/>
	<rect x="395.1" y="441.4" class="st45" width="29.5" height="141.3"/>
	<circle class="st45" cx="348.1" cy="569.8" r="7.3"/>
	<circle class="st45" cx="379" cy="569.8" r="7.3"/>
	<circle class="st44" cx="409.9" cy="569.8" r="7.3"/>
	<g class="st46">
		<polygon class="st47" points="0,512.1 0,594.2 395.3,594.2 395.3,582.8 424.7,582.8 424.7,512.1 		"/>
	</g>
	<path class="st48" d="M800.2,519.9c0-3.8-0.6-7.5-1.7-11c-55.2,5.5-209.5,21.5-209.5,21.5l-164.6-4V563l162.5-3.5l213.3-33.2V519.9
		z"/>
	<path class="st43" d="M590.1,488.6H424.4v-31.3l73.7-9.9h92.1c11.4,0,20.6,9.2,20.6,20.6v0C610.7,479.4,601.5,488.6,590.1,488.6z"
		/>
	<path class="st48" d="M501.8,496.7h86.7c10.6,0,23.8-3.1,27.2-13.1h-12L501.8,496.7z"/>
</g>
</svg>
