<?xml version="1.0" encoding="utf-8"?>
<!-- Generator: Adobe Illustrator 19.1.1, SVG Export Plug-In . SVG Version: 6.00 Build 0)  -->
<svg version="1.1" id="Layer_1" xmlns="http://www.w3.org/2000/svg" xmlns:xlink="http://www.w3.org/1999/xlink" x="0px" y="0px"
	 viewBox="0 0 31.3 45.7" style="enable-background:new 0 0 31.3 45.7;" xml:space="preserve">
<style type="text/css">
	.st0{fill:#BA9E51;}
</style>
<g>
	<g>
		<path class="st0" d="M15.7,45.7C7,45.7,0,38.6,0,30V15.7C0,7,7,0,15.7,0c8.6,0,15.7,7,15.7,15.7V30C31.3,38.6,24.3,45.7,15.7,45.7
			z M15.7,3C8.7,3,3,8.7,3,15.7V30c0,7,5.7,12.7,12.7,12.7c7,0,12.7-5.7,12.7-12.7V15.7C28.3,8.7,22.7,3,15.7,3z"/>
	</g>
</g>
<g>
	<path class="st0" d="M15.7,20.5c-0.8,0-1.5-0.7-1.5-1.5v-6.7c0-0.8,0.7-1.5,1.5-1.5s1.5,0.7,1.5,1.5V19
		C17.2,19.8,16.5,20.5,15.7,20.5z"/>
</g>
</svg>
