<?xml version="1.0" encoding="utf-8"?>
<!-- Generator: Adobe Illustrator 19.1.1, SVG Export Plug-In . SVG Version: 6.00 Build 0)  -->
<svg version="1.1" id="Layer_1" xmlns="http://www.w3.org/2000/svg" xmlns:xlink="http://www.w3.org/1999/xlink" x="0px" y="0px"
	 viewBox="0 0 119.9 139.8" style="enable-background:new 0 0 119.9 139.8;" xml:space="preserve">
<style type="text/css">
	.st0{fill:#F4F4F4;}
	.st1{opacity:0.1;fill:#010101;}
	.st2{fill:#BA9E51;}
</style>
<g>
	<path class="st0" d="M114.7,139.8H5.2c-0.3,0-0.6-0.3-0.6-0.6V37.8c0-0.3,0.3-0.6,0.6-0.6h109.5c0.3,0,0.6,0.3,0.6,0.6v101.4
		C115.3,139.6,115,139.8,114.7,139.8z"/>
	<path class="st0" d="M119.3,62.6H0.6C0.3,62.6,0,62.3,0,62V36c0-0.3,0.3-0.6,0.6-0.6h118.7c0.3,0,0.6,0.3,0.6,0.6V62
		C119.9,62.3,119.6,62.6,119.3,62.6z"/>
	<path class="st0" d="M54.7,35.9c-6,0-20-0.6-25.3-5.9c-3.3-3.3-5.1-7.7-5.1-12.4c0-4.7,1.8-9.1,5.1-12.4C32.8,1.8,37.2,0,41.9,0
		S51,1.8,54.3,5.1l0,0l0,0c6.4,6.4,5.9,25.7,5.8,27.9l-0.1,2.7l-2.7,0.1C57,35.8,56.1,35.9,54.7,35.9z M41.9,5.8
		c-3.2,0-6.1,1.2-8.4,3.5c-2.2,2.2-3.5,5.2-3.5,8.4c0,3.2,1.2,6.1,3.5,8.4c3.1,3.1,13.5,4.2,20.9,4.2c0-7.4-1.1-17.8-4.2-20.9l0,0
		C48,7,45.1,5.8,41.9,5.8z"/>
	<path class="st0" d="M64.9,35.9c-1.3,0-2.3,0-2.6,0l-2.7-0.1l-0.1-2.7c-0.1-2.2-0.6-21.5,5.8-27.9C68.6,1.8,73,0,77.7,0
		c4.7,0,9.1,1.8,12.4,5.1c6.8,6.8,6.8,18,0,24.8C84.9,35.3,70.9,35.9,64.9,35.9z M77.7,5.8c-3.2,0-6.1,1.2-8.4,3.5l0,0
		c-3.1,3.1-4.2,13.5-4.2,20.9c7.4,0,17.8-1.1,20.9-4.2c4.6-4.6,4.6-12.1,0-16.7C83.9,7,80.9,5.8,77.7,5.8z"/>
	<rect x="4.6" y="62.6" class="st1" width="110.6" height="4.5"/>
	<g>
		<g>
			<g>
				<path class="st2" d="M83.9,84.8l-0.4-0.5l-1.6,1.4h-2.2l2.1-1.9L79,84l1.6-1.5l2.1-0.1l0-0.6l-1.4,0.1l1-1l-0.5-0.4l-1,1
					l0.1-1.4l-0.6,0L80.1,82l-1.6,1.5l0.1-2.8l-1.9,2.1v-2.2l1.4-1.5l-0.5-0.4l-0.9,1v-1.4h-0.6v1.4l-0.9-1l-0.5,0.4l1.4,1.5v2.2
					l-1.9-2.1l0.1,2.8L72.9,82l-0.1-2.1l-0.6,0l0.1,1.4l-1-1l-0.5,0.4l1,1l-1.4-0.1l0,0.6l2.1,0.1L74,84l-2.8-0.1l2.1,1.9h-2.2
					l-1.5-1.4l-0.4,0.5l1,0.9h-1.5v0.6h1.5l-1,0.9l0.4,0.5l1.5-1.4h2.2l-2.1,1.9l2.8-0.1l-1.6,1.5l-2.1,0.1l0,0.6l1.4-0.1l-1,1
					l0.5,0.4l1-1l-0.1,1.4l0.6,0l0.1-2.1l1.6-1.5l-0.1,2.8l1.9-2.1v2.2l-1.4,1.5l0.5,0.4l0.9-1v1.4h0.6v-1.4l0.9,1l0.5-0.4l-1.4-1.5
					v-2.2l1.9,2.1l-0.1-2.8l1.6,1.5l0.1,2.1l0.6,0l-0.1-1.4l1,1l0.5-0.4l-1-1l1.4,0.1l0-0.6l-2.1-0.1L79,88.1l2.8,0.1l-2.1-1.9h2.2
					l1.6,1.4l0.4-0.5l-1-0.9h1.5v-0.6h-1.5L83.9,84.8z M79.7,84.7L79.7,84.7l-1.1,1h-1.3l0.9-0.9L79.7,84.7z M77.8,82.9L77.8,82.9
					l-0.1,1.5l-0.9,0.9V84L77.8,82.9z M75.2,82.9L75.2,82.9l1,1.1v1.3l-0.9-0.9L75.2,82.9z M73.3,84.7L73.3,84.7l1.5,0.1l0.9,0.9
					h-1.3L73.3,84.7z M73.3,87.3L73.3,87.3l1.1-1h1.3l-0.9,0.9L73.3,87.3z M75.2,89.2L75.2,89.2l0.1-1.5l0.9-0.9v1.3L75.2,89.2z
					 M77.8,89.2L77.8,89.2l-1-1.1v-1.3l0.9,0.9L77.8,89.2z M79.7,87.3L79.7,87.3l-1.5-0.1l-0.9-0.9h1.3L79.7,87.3z"/>
				<path class="st2" d="M48.6,88.2l-0.2-0.6l-1.6,0.7l-0.4-0.2l1.8-0.8l-0.3-0.6l-2.3,1l-0.3-0.2l-0.9-1.2h0.8l0.6,0.8l0.5-0.4
					L46,86.3h0.9v-0.6H46l0.3-0.5l-0.5-0.4l-0.6,0.8h-0.8l0.9-1.2l0.3-0.2l2.3,1l0.3-0.6L46.3,84l0.4-0.2l1.6,0.7l0.2-0.6l-1.2-0.5
					l1.6-0.9l-0.3-0.5l-1.6,0.9l0.2-1.3l-0.6-0.1l-0.2,1.8l-0.4,0.2l0.2-2l-0.6-0.1l-0.3,2.4L44.9,84l-1.4,0.2l0.4-0.7l1-0.1
					l-0.1-0.6l-0.6,0.1l0.4-0.8l-0.6-0.3l-0.4,0.8L43.5,82l-0.6,0.2l0.4,0.9l-0.4,0.7l-0.6-1.3v-0.3l2-1.5L44,80.2l-1.6,1.2v-0.5
					l1.4-1.1l-0.4-0.5l-1.1,0.8v-1.9h-0.6v1.9l-1.1-0.8l-0.4,0.5l1.4,1.1v0.5l-1.6-1.2l-0.4,0.5l2,1.5v0.3l-0.6,1.3l-0.4-0.7l0.4-1
					L40.6,82l-0.2,0.5l-0.5-0.8L39.3,82l0.4,0.8l-0.6-0.1l-0.1,0.6l1,0.1l0.4,0.7L39.1,84l-0.3-0.2l-0.3-2.4l-0.6,0.1l0.2,2
					l-0.4-0.2l-0.2-1.8l-0.6,0.1l0.2,1.3l-1.6-0.9l-0.3,0.5l1.6,0.9l-1.2,0.5l0.3,0.6l1.6-0.7l0.4,0.2L36,84.8l0.3,0.6l2.3-1
					l0.3,0.2l0.9,1.2h-0.8l-0.6-0.8l-0.5,0.4l0.3,0.5h-0.9v0.6h0.9l-0.3,0.5l0.5,0.4l0.6-0.8h0.8l-0.9,1.2l-0.3,0.2l-2.3-1L36,87.3
					l1.8,0.8l-0.4,0.2l-1.6-0.7l-0.2,0.6l1.2,0.5l-1.6,0.9l0.3,0.5l1.6-0.9l-0.2,1.3l0.6,0.1l0.2-1.8l0.4-0.2l-0.2,2l0.6,0.1
					l0.3-2.5l0.3-0.2l1.4-0.2l-0.4,0.6l-1,0.1l0.1,0.6l0.6-0.1L39.3,90l0.6,0.3l0.5-0.8l0.2,0.5l0.6-0.2l-0.4-0.9l0.4-0.6l0.6,1.3
					v0.4l-2,1.4l0.4,0.5l1.6-1.2v0.5l-1.4,1.1l0.4,0.5l1.1-0.8v1.8h0.6V92l1.1,0.8l0.4-0.5l-1.4-1.1v-0.5l1.6,1.2l0.4-0.5l-2-1.4
					v-0.4l0.6-1.3l0.4,0.7l-0.4,0.9l0.6,0.2l0.2-0.5l0.5,0.8l0.6-0.3l-0.5-0.8l0.6,0.1l0.1-0.6l-1-0.1l-0.4-0.7l1.4,0.2l0.3,0.2
					l0.3,2.4l0.6-0.1l-0.2-2l0.4,0.2l0.2,1.8l0.6-0.1l-0.2-1.3l1.6,0.9l0.3-0.5l-1.6-0.9L48.6,88.2z M42,88.7L42,88.7l-0.7-1.5
					l-1.6,0.2l1-1.3l-1-1.3l1.6,0.2l0.7-1.5l0.7,1.5l1.6-0.2l-1,1.3l1,1.3l-1.6-0.2L42,88.7z"/>
			</g>
			<g>
				<path class="st2" d="M30.6,56.2v-0.5l0.7,0.4l0.4-0.7L31,55l0.5-0.3L31.1,54l-0.9,0.5l-0.6-0.3l1.5-0.8l-0.4-0.7l-1.8,1.1
					l-0.5-0.3l0.5-0.3l-0.4-0.7l-0.9,0.5l-0.7-0.4V51l0.7-0.4l0.9,0.5l0.4-0.7l-0.5-0.3l0.5-0.3l1.9,1.1l0.4-0.7l-1.5-0.8l0.6-0.4
					l0.9,0.5l0.4-0.7L31,48.7l0.7-0.4l-0.4-0.7L30.6,48v-0.6h-0.8v1l-0.6,0.4v-1.7h-0.8v2.1L28,49.5v-0.6h-0.8v1l-0.6,0.3l-1.5-0.9
					v-0.6l0.9-0.5l-0.4-0.7l-0.5,0.3v-0.5l1.9-1.1l-0.4-0.7l-1.5,0.8v-0.7l0.9-0.5l-0.4-0.7l-0.5,0.3v-0.8h-0.8v0.8l-0.5-0.3
					l-0.4,0.7l0.9,0.5v0.7l-1.4-0.8l-0.4,0.7l1.8,1v0.6l-0.5-0.3l-0.4,0.7l0.9,0.5v0.7l-1.5,0.9L22.2,50v-1h-0.8v0.6L21,49.3v-2.1
					h-0.8v1.7l-0.6-0.4v-1h-0.8v0.5l-0.7-0.4l-0.4,0.7l0.7,0.4L17.9,49l0.4,0.7l0.9-0.5l0.6,0.3l-1.4,0.8l0.4,0.7l1.8-1.1l0.5,0.3
					l-0.5,0.3l0.4,0.7l0.9-0.5l0.7,0.4v1.6l-0.7,0.4L21,52.6l-0.4,0.7l0.5,0.3l-0.5,0.3l-1.9-1.1l-0.4,0.7l1.5,0.8l-0.6,0.4
					l-0.9-0.5l-0.4,0.7l0.5,0.3l-0.7,0.4l0.4,0.7l0.7-0.4v0.6h0.8v-1l0.6-0.4v1.7h0.8v-2.1l0.5-0.3v0.6h0.8v-1l0.8-0.5l1.3,0.7v0.9
					l-0.9,0.5l0.4,0.7l0.5-0.3v0.5l-1.9,1.1l0.4,0.7l1.5-0.8V58l-0.9,0.5l0.4,0.7l0.5-0.3v0.8h0.8v-0.8l0.5,0.3l0.4-0.7L25.1,58
					v-0.7l1.5,0.8l0.4-0.7l-1.8-1v-0.6l0.5,0.3l0.4-0.7l-0.9-0.5V54l1.3-0.8l0.8,0.4v1H28v-0.6l0.5,0.3v2.1h0.8v-1.7l0.6,0.4v1H30.6
					z M24.7,53.2L24.7,53.2l-1.3-0.7V51l1.3-0.8L26,51v1.5L24.7,53.2z"/>
				<path class="st2" d="M100.9,52.9l-2,1.2l-0.5-0.3l0.6-0.3l-0.4-0.7l-1,0.6l-0.9-0.5v-1.8l0.9-0.5l0.9,0.5l0.4-0.7L98.3,50
					l0.5-0.3l2.1,1.2l0.4-0.7l-1.6-0.9l1.5-0.9l-0.4-0.7l-1.5,0.8v-1.8h-0.8v2.3l-0.5,0.3v-0.7h-0.8v1.2l-0.9,0.5l-1.6-0.9v-1l1-0.5
					l-0.4-0.7l-0.5,0.3v-0.6l2.1-1.2l-0.4-0.7l-1.6,0.9v-1.7h-0.8v1.7l-1.6-0.9l-0.4,0.7l2,1.2v0.6L93.2,47l-0.4,0.7l1,0.6v1
					l-1.6,0.9l-0.9-0.5v-1.1h-0.8v0.6L90,49v-2.4h-0.8v1.9l-1.5-0.9l-0.4,0.7l1.5,0.8l-1.6,0.9l0.4,0.7l2-1.2L90,50l-0.6,0.3
					l0.4,0.7l1-0.6l0.9,0.5v1.8l-0.9,0.5l-1-0.5l-0.4,0.7l0.5,0.3l-0.5,0.3l-2.1-1.2l-0.4,0.7l1.6,0.9l-1.5,0.9l0.4,0.7l1.5-0.8v1.8
					h0.8v-2.3l0.5-0.3v0.7h0.8V54l0.9-0.5l1.6,0.9v1l-1,0.5l0.4,0.7l0.5-0.3V57l-2.1,1.2l0.4,0.7l1.6-0.9v1.7h0.8V58l1.6,0.9
					l0.4-0.7l-2-1.2v-0.6l0.6,0.3l0.4-0.7l-1-0.6v-1l1.6-0.9l0.9,0.5v1.1h0.9v-0.6l0.5,0.3v2.4h0.8v-1.9l1.5,0.9l0.4-0.7l-1.5-0.8
					l1.6-0.9L100.9,52.9z M94.2,53.5L94.2,53.5l-1.5-0.8V51l1.5-0.8l1.4,0.8v1.7L94.2,53.5z"/>
				<path class="st2" d="M63.8,48v1l-0.7,0.4v-1.6h-0.7v2.1l-0.5,0.3v-0.5h-0.7v1l-0.3,0.2l-1-0.6v-0.4l0.9-0.5l-0.4-0.6l-0.5,0.3
					v-0.5l1.8-1l-0.4-0.6l-1.4,0.8v-0.8l0.8-0.5v-1.4l-1.2-0.7l-1.2,0.7v1.4l0.9,0.5v0.8l-1.4-0.8l-0.4,0.6l1.8,1v0.5l-0.5-0.3
					l-0.4,0.6l0.8,0.5V50l-1,0.6l-0.3-0.2v-1H57V50l-0.5-0.3v-2h-0.7v1.6l-0.7-0.4v-1l-1.2-0.7L52.6,48v1.4l1.2,0.7l0.9-0.5l0.7,0.4
					L54,50.8l0.4,0.6l1.8-1l0.5,0.3l-0.5,0.3l0.4,0.6l0.8-0.5l0.4,0.2v1.1l-0.4,0.2l-0.9-0.5l-0.4,0.6l0.5,0.3l-0.5,0.3l-1.8-1
					L54,52.9l1.4,0.8l-0.7,0.4l-0.8-0.5l-1.2,0.7v1.4l1.2,0.7l1.2-0.7v-1l0.7-0.4V56h0.7v-2.1l0.5-0.3v0.5h0.7v-1l0.5-0.3l0.9,0.5
					V54l-0.9,0.5l0.4,0.6l0.5-0.3v0.5l-1.8,1l0.4,0.6l1.4-0.8v0.8l-0.8,0.5V59l1.2,0.7l1.2-0.7v-1.4l-0.9-0.5v-0.8l1.4,0.8l0.4-0.6
					l-1.8-1v-0.5l0.5,0.3l0.4-0.6L59.8,54v-0.5l0.9-0.5l0.5,0.3v1h0.7v-0.6l0.5,0.3v2h0.7v-1.6l0.7,0.4v1l1.2,0.7l1.2-0.7v-1.4
					L65,53.7l-0.9,0.5l-0.7-0.4l1.4-0.8l-0.4-0.6l-1.8,1l-0.5-0.3l0.5-0.3l-0.4-0.6l-0.8,0.5l-0.4-0.2v-1.1l0.4-0.2l0.9,0.5l0.4-0.6
					l-0.5-0.3l0.5-0.3l1.8,1l0.4-0.6L63.5,50l0.7-0.4l0.8,0.5l1.2-0.7V48L65,47.3L63.8,48z M64.4,49L64.4,49v-0.8l0.7-0.4l0.7,0.4
					V49L65,49.4L64.4,49z M64.4,54.7L64.4,54.7l0.7-0.4l0.7,0.4v0.8L65,55.8l-0.7-0.4V54.7z M59.4,57.5L59.4,57.5l0.7,0.4v0.7
					L59.4,59l-0.7-0.4v-0.7L59.4,57.5z M54.5,54.7L54.5,54.7v0.8l-0.7,0.4l-0.7-0.4v-0.8l0.7-0.4L54.5,54.7z M54.5,49L54.5,49
					l-0.7,0.4L53.2,49v-0.8l0.7-0.4l0.7,0.4V49z M59.5,46.2L59.5,46.2l-0.7-0.4v-0.8l0.7-0.4l0.7,0.4v0.8L59.5,46.2z M60.5,51.2
					L60.5,51.2v1.2l-1,0.6l-1-0.6v-1.2l1-0.6L60.5,51.2z"/>
			</g>
			<g>
				<path class="st2" d="M32.2,119.7l-0.4-0.5l-1.6,1.4h-0.5l0.4-0.5l-0.5-0.3l-0.6,0.9h-1l2.1-1.9l-2.9,0.1l0.8-0.8l1.7-0.1l0-0.5
					l-1.1,0.1l0.8-0.8l-0.4-0.4l-0.8,0.8l0-1.1l-0.5,0l-0.1,1.7l-0.8,0.8l0.1-2.9l-1.9,2.1v-1l0.9-0.6l-0.4-0.5l-0.5,0.3v-0.5
					l1.4-1.5l-0.5-0.4l-0.9,1v-1.4h-0.6v1.4l-0.9-1L23,114l1.4,1.5v0.5l-0.5-0.3l-0.4,0.5l0.9,0.6v1l-1.9-2.1l0.1,2.9l-0.8-0.8
					l-0.1-1.7l-0.5,0l0.1,1.1l-0.8-0.8l-0.4,0.4l0.8,0.8l-1.1-0.1l0,0.5l1.7,0.1l0.8,0.8l-2.9-0.1l2.1,1.9h-1l-0.6-0.9l-0.5,0.3
					l0.4,0.5h-0.5l-1.5-1.4l-0.4,0.5l1,0.9h-1.5v0.6h1.5l-1,0.9l0.4,0.5l1.5-1.4h0.5l-0.4,0.5l0.5,0.3l0.6-0.9h1l-2.1,1.9l2.9-0.1
					l-0.8,0.8l-1.7,0.1l0,0.5l1.1-0.1l-0.8,0.8l0.4,0.4l0.8-0.8l-0.1,1.1l0.5,0l0.1-1.7l0.8-0.8l-0.1,2.9l1.9-2.1v0.9l-0.9,0.6
					l0.4,0.5l0.5-0.3v0.5l-1.4,1.5l0.5,0.4l0.9-1v1.4h0.6v-1.4l0.9,1l0.5-0.4l-1.4-1.5v-0.5l0.5,0.3l0.4-0.5l-0.9-0.6v-0.9l1.9,2.1
					l-0.1-2.9l0.8,0.8l0.1,1.7l0.5,0l0-1.1l0.8,0.8l0.4-0.4l-0.8-0.8l1.1,0.1l0-0.5l-1.7-0.1l-0.8-0.8l2.9,0.1l-2.1-1.9h1l0.6,0.9
					l0.5-0.3l-0.4-0.5h0.5l1.6,1.4l0.4-0.5l-1-0.9h1.5v-0.6h-1.5L32.2,119.7z M28,119.6L28,119.6l-1.1,1h-1.4l0.9-0.9L28,119.6z
					 M26.1,117.8L26.1,117.8l-0.1,1.6l-0.9,0.9v-1.4L26.1,117.8z M23.5,117.8L23.5,117.8l1,1.1v1.4l-0.9-0.9L23.5,117.8z
					 M21.6,119.6L21.6,119.6l1.6,0.1l0.9,0.9h-1.4L21.6,119.6z M21.6,122.2L21.6,122.2l1.1-1h1.4l-0.9,0.9L21.6,122.2z M23.5,124.1
					L23.5,124.1l0.1-1.6l0.9-0.9v1.4L23.5,124.1z M26.1,124.1L26.1,124.1l-1-1.1v-1.4l0.9,0.9L26.1,124.1z M28,122.2L28,122.2
					l-1.6-0.1l-0.9-0.9h1.4L28,122.2z"/>
				<path class="st2" d="M65.9,123.1l-0.2-0.6l-1.6,0.7l-0.4-0.2l1.8-0.8l-0.3-0.6l-2.3,1l-0.3-0.2l-0.9-1.2h0.8l0.6,0.8l0.5-0.4
					l-0.3-0.5h0.9v-0.6h-0.9l0.3-0.5l-0.5-0.4l-0.6,0.8h-0.8l0.9-1.2l0.3-0.2l2.3,1l0.3-0.6l-1.8-0.8l0.4-0.2l1.6,0.7l0.2-0.6
					l-1.2-0.5l1.6-0.9l-0.3-0.5l-1.6,0.9l0.2-1.3l-0.6-0.1l-0.2,1.8l-0.4,0.2l0.2-2l-0.6-0.1l-0.3,2.4l-0.3,0.2l-1.4,0.2l0.4-0.7
					l1-0.1l-0.1-0.6l-0.6,0.1L62,117l-0.6-0.3l-0.4,0.8l-0.2-0.5l-0.6,0.2l0.4,0.9l-0.4,0.7l-0.6-1.3v-0.3l2-1.5l-0.4-0.5l-1.6,1.2
					v-0.5l1.4-1.1l-0.4-0.5l-1.1,0.8v-1.9H59v1.9l-1.1-0.8l-0.4,0.5l1.4,1.1v0.5l-1.6-1.2l-0.4,0.5l2,1.5v0.3l-0.6,1.3l-0.4-0.7
					l0.4-1l-0.6-0.2l-0.2,0.5l-0.5-0.8l-0.6,0.3l0.5,0.8l-0.6-0.1l-0.1,0.6l1,0.1l0.4,0.7l-1.4-0.2l-0.3-0.2l-0.3-2.4l-0.6,0.1
					l0.2,2l-0.4-0.2l-0.2-1.8l-0.6,0.1l0.2,1.3l-1.6-0.9l-0.3,0.5l1.6,0.9l-1.2,0.5l0.2,0.6l1.7-0.7l0.4,0.2l-1.9,0.8l0.3,0.6l2.3-1
					l0.3,0.2l0.9,1.2h-0.8l-0.6-0.8l-0.5,0.4l0.3,0.5h-0.9v0.6h0.9l-0.3,0.5l0.5,0.4l0.6-0.8H57l-0.9,1.2l-0.3,0.2l-2.3-1l-0.3,0.6
					l1.8,0.8l-0.4,0.2l-1.7-0.7l-0.2,0.6l1.2,0.5l-1.6,0.9l0.3,0.5l1.6-0.9l-0.2,1.3l0.6,0.1l0.2-1.8l0.4-0.2l-0.2,2l0.6,0.1
					l0.3-2.5l0.3-0.2l1.4-0.2l-0.4,0.6l-1,0.1l0.1,0.6l0.6-0.1l-0.5,0.8l0.6,0.3l0.5-0.8l0.2,0.5l0.6-0.2l-0.4-0.9l0.4-0.6l0.6,1.3
					v0.4l-2,1.4l0.4,0.5l1.6-1.2v0.5l-1.4,1.1l0.4,0.5l1.1-0.8v1.8h0.6v-1.8l1.1,0.8l0.4-0.5l-1.4-1.1v-0.5l1.6,1.2l0.4-0.5l-2-1.4
					v-0.4l0.6-1.3l0.4,0.6l-0.4,1l0.6,0.2l0.2-0.5l0.5,0.8l0.5-0.3l-0.5-0.8l0.6,0.1l0.1-0.6l-1-0.1l-0.4-0.7l1.4,0.2l0.3,0.2
					l0.3,2.4l0.6-0.1l-0.2-2l0.4,0.2l0.2,1.8l0.6-0.1l-0.2-1.3l1.6,0.9l0.3-0.5l-1.6-0.9L65.9,123.1z M59.3,123.6L59.3,123.6
					l-0.7-1.5l-1.7,0.2l1-1.3l-1-1.3l1.7,0.2l0.7-1.5l0.7,1.5l1.6-0.2l-1,1.3l1,1.3l-1.6-0.2L59.3,123.6z"/>
				<path class="st2" d="M99.3,118.6l2-2.6l-3.3,0.4l-0.3,1.4c-0.2,0.1-0.4,0.2-0.6,0.3c0.1-0.2,0.1-0.6,0.2-1
					c0.1-0.7,0.1-1.3,0-1.4c-0.1,0-0.3,0.6-0.3,1.3c-0.1,0.5-0.1,0.9,0,1.2c-0.2,0.1-0.4,0.2-0.6,0.3c0-0.1,0-0.3,0-0.5
					c0-0.5-0.1-0.8-0.2-0.8c-0.1,0-0.2,0.4-0.2,0.8c0,0.3,0,0.5,0.1,0.7c-0.3,0.1-0.5,0.3-0.8,0.4l0.2-1.6l-1.3,0.9
					c0-0.3,0-0.6,0-0.9c0.2,0,0.4-0.1,0.6-0.3c0.4-0.2,0.7-0.5,0.6-0.6c0-0.1-0.4,0-0.8,0.3c-0.2,0.1-0.3,0.2-0.4,0.3
					c0-0.2,0-0.4,0-0.7c0.2-0.1,0.6-0.3,1-0.6c0.6-0.4,1-0.9,1-0.9c-0.1-0.1-0.6,0.2-1.2,0.6c-0.3,0.2-0.6,0.5-0.8,0.6
					c0-0.2,0-0.5,0-0.7l1.1-1l-1.3-3l-1.3,3l1.1,1c0,0.2,0,0.4,0,0.7c-0.2-0.2-0.5-0.4-0.8-0.6c-0.6-0.4-1.1-0.7-1.2-0.6
					c-0.1,0.1,0.4,0.5,1,0.9c0.4,0.3,0.8,0.5,1,0.6c0,0.2,0,0.4,0,0.7c-0.1-0.1-0.3-0.2-0.4-0.3c-0.4-0.2-0.8-0.3-0.8-0.3
					c0,0.1,0.2,0.4,0.6,0.6c0.2,0.1,0.5,0.2,0.6,0.3c0,0.3,0,0.6,0,0.9l-1.3-0.9l0.2,1.6c-0.3-0.1-0.5-0.3-0.8-0.4
					c0-0.2,0.1-0.4,0.1-0.7c0-0.5-0.1-0.8-0.2-0.8c-0.1,0-0.2,0.4-0.2,0.8c0,0.2,0,0.4,0,0.5c-0.2-0.1-0.4-0.2-0.6-0.3
					c0-0.2,0-0.7,0-1.2c-0.1-0.7-0.2-1.3-0.3-1.3c-0.1,0-0.1,0.6,0,1.4c0,0.4,0.1,0.7,0.2,1c-0.2-0.1-0.4-0.2-0.6-0.3l-0.3-1.4
					l-3.3-0.4l2,2.6l1.4-0.5c0.2,0.1,0.4,0.2,0.6,0.3c-0.2,0.1-0.6,0.2-1,0.3c-0.7,0.3-1.2,0.6-1.2,0.7c0,0.1,0.6-0.1,1.3-0.4
					c0.5-0.2,0.8-0.4,1-0.5c0.2,0.1,0.4,0.2,0.6,0.3c-0.1,0-0.3,0.1-0.5,0.2c-0.4,0.2-0.7,0.5-0.6,0.6c0.1,0.1,0.4,0,0.8-0.3
					c0.2-0.1,0.4-0.3,0.5-0.4c0.2,0.1,0.5,0.3,0.8,0.5l-1.5,0.6l1.5,0.6c-0.3,0.2-0.5,0.3-0.8,0.5c-0.1-0.1-0.3-0.3-0.5-0.4
					c-0.4-0.2-0.8-0.4-0.8-0.3c0,0.1,0.2,0.4,0.6,0.6c0.2,0.1,0.3,0.2,0.5,0.2c-0.2,0.1-0.4,0.2-0.6,0.3c-0.2-0.1-0.6-0.3-1-0.5
					c-0.7-0.3-1.3-0.5-1.3-0.4c0,0.1,0.5,0.4,1.2,0.7c0.4,0.2,0.7,0.3,1,0.3c-0.2,0.1-0.4,0.2-0.6,0.3l-1.4-0.5l-2,2.6l3.3-0.4
					l0.3-1.4c0.2-0.1,0.4-0.2,0.6-0.3c-0.1,0.2-0.1,0.6-0.2,1c-0.1,0.7-0.1,1.3,0,1.4c0.1,0,0.3-0.6,0.3-1.3c0.1-0.5,0.1-0.9,0-1.2
					c0.2-0.1,0.4-0.2,0.6-0.3c0,0.1,0,0.3,0,0.5c0,0.5,0.1,0.8,0.2,0.8c0.1,0,0.2-0.4,0.2-0.8c0-0.3,0-0.5-0.1-0.7
					c0.2-0.1,0.5-0.3,0.8-0.4l-0.2,1.6l1.3-0.9c0,0.3,0,0.6,0,0.9c-0.2,0-0.4,0.1-0.6,0.3c-0.4,0.2-0.7,0.5-0.6,0.6
					c0.1,0.1,0.4,0,0.8-0.3c0.2-0.1,0.3-0.2,0.4-0.3c0,0.2,0,0.4,0,0.7c-0.2,0.1-0.6,0.3-1,0.6c-0.6,0.4-1,0.9-1,0.9
					c0.1,0.1,0.6-0.2,1.2-0.6c0.3-0.2,0.6-0.5,0.8-0.6c0,0.2,0,0.5,0,0.7l-1.1,1l1.3,3l1.3-3l-1.1-1c0-0.2,0-0.4,0-0.7
					c0.2,0.2,0.5,0.4,0.8,0.6c0.6,0.4,1.1,0.7,1.2,0.6c0.1-0.1-0.4-0.5-1-0.9c-0.4-0.3-0.8-0.5-1-0.6c0-0.2,0-0.4,0-0.7
					c0.1,0.1,0.3,0.2,0.4,0.3c0.4,0.2,0.8,0.3,0.8,0.3c0.1-0.1-0.2-0.4-0.6-0.6c-0.2-0.1-0.5-0.2-0.6-0.3c0-0.3,0-0.6,0-0.9l1.3,0.9
					l-0.2-1.6c0.3,0.1,0.5,0.3,0.8,0.4c0,0.1-0.1,0.4-0.1,0.6c0,0.5,0.1,0.8,0.2,0.8c0.1,0,0.2-0.4,0.2-0.8c0-0.2,0-0.4,0-0.5
					c0.2,0.1,0.4,0.2,0.6,0.3c0,0.2,0,0.7,0,1.2c0.1,0.7,0.2,1.3,0.3,1.3c0.1,0,0.1-0.6,0-1.3c0-0.4-0.1-0.8-0.2-1
					c0.2,0.1,0.4,0.2,0.6,0.3L98,124l3.3,0.4l-2-2.6l-1.4,0.5c-0.2-0.1-0.4-0.2-0.6-0.3c0.2-0.1,0.6-0.2,1-0.3
					c0.7-0.3,1.2-0.6,1.2-0.7c0-0.1-0.6,0.1-1.3,0.4c-0.5,0.2-0.8,0.4-1,0.5c-0.2-0.1-0.4-0.2-0.6-0.3c0.1,0,0.3-0.1,0.5-0.2
					c0.4-0.2,0.7-0.5,0.6-0.6c-0.1-0.1-0.4,0-0.8,0.3c-0.2,0.1-0.4,0.3-0.5,0.4c-0.2-0.1-0.5-0.3-0.8-0.5l1.5-0.6l-1.5-0.6
					c0.3-0.2,0.5-0.3,0.8-0.5c0.1,0.1,0.3,0.3,0.5,0.4c0.4,0.2,0.8,0.3,0.8,0.3c0.1-0.1-0.2-0.4-0.6-0.6c-0.2-0.1-0.3-0.2-0.5-0.2
					c0.2-0.1,0.4-0.2,0.6-0.3c0.2,0.1,0.6,0.3,1,0.5c0.7,0.3,1.3,0.5,1.3,0.4c0-0.1-0.5-0.4-1.2-0.7c-0.4-0.2-0.7-0.3-1-0.3
					c0.2-0.1,0.4-0.2,0.6-0.3L99.3,118.6z M98.3,117.7L98.3,117.7l0.2-0.8l1.7-0.2l-1,1.3L98.3,117.7z M94.8,121.7L94.8,121.7
					l-0.9-0.6l-0.9,0.6l0.1-1.1l-1-0.4l1-0.4l-0.1-1.1l0.9,0.6l0.9-0.6l-0.1,1.1l1,0.4l-1,0.4L94.8,121.7z M93.9,113.1L93.9,113.1
					l0.6,1.5l-0.6,0.6l-0.7-0.6L93.9,113.1z M89.5,117.7L89.5,117.7l-0.8,0.3l-1-1.3l1.7,0.2L89.5,117.7z M89.5,122.7L89.5,122.7
					l-0.2,0.8l-1.7,0.2l1-1.3L89.5,122.7z M93.9,127.3L93.9,127.3l-0.7-1.5l0.7-0.6l0.6,0.6L93.9,127.3z M98.3,122.7L98.3,122.7
					l0.8-0.3l1,1.3l-1.7-0.2L98.3,122.7z"/>
			</g>
		</g>
	</g>
</g>
</svg>
