<?xml version="1.0" encoding="utf-8"?>
<!-- Generator: Adobe Illustrator 19.1.1, SVG Export Plug-In . SVG Version: 6.00 Build 0)  -->
<svg version="1.1" id="Layer_1" xmlns="http://www.w3.org/2000/svg" xmlns:xlink="http://www.w3.org/1999/xlink" x="0px" y="0px"
	 viewBox="0 0 119.9 140" style="enable-background:new 0 0 119.9 140;" xml:space="preserve">
<style type="text/css">
	.st0{fill:#C6A14E;}
	.st1{fill:#D1AD4F;}
	.st2{opacity:0.1;fill:#010101;}
	.st3{fill:#EDE4CC;}
</style>
<g>
	<path class="st0" d="M114.7,140H5.2c-0.3,0-0.6-0.3-0.6-0.6V38c0-0.3,0.3-0.6,0.6-0.6h109.5c0.3,0,0.6,0.3,0.6,0.6v101.4
		C115.3,139.7,115,140,114.7,140z"/>
	<path class="st1" d="M119.3,62.8H0.6c-0.3,0-0.6-0.3-0.6-0.6V36.1c0-0.3,0.3-0.6,0.6-0.6h118.7c0.3,0,0.6,0.3,0.6,0.6v26.1
		C119.9,62.5,119.6,62.8,119.3,62.8z"/>
	<path class="st1" d="M55.4,36c-5.4,0-20.6-0.5-26.1-6.1c-6.8-6.9-6.7-18.1,0.2-24.8c6.9-6.8,18.1-6.7,24.8,0.2
		c6.4,6.5,5.7,25.8,5.6,28l-0.1,2.7L57.2,36C56.9,36,56.3,36,55.4,36z M41.9,5.7c-3,0-6,1.1-8.3,3.4c-4.6,4.6-4.7,12.1-0.2,16.7
		c3.1,3.2,13.5,4.3,20.9,4.4c0-7.4-0.9-17.8-4-20.9C48,6.9,45,5.7,41.9,5.7z"/>
	<path class="st1" d="M65.6,36.1c-1.8,0-3.1-0.1-3.5-0.1l-2.7-0.1l-0.1-2.7c-0.1-2.2-0.4-21.5,6.1-27.9l0,0
		c6.9-6.8,18.1-6.7,24.8,0.2c3.3,3.3,5.1,7.8,5,12.5s-1.9,9.1-5.3,12.4C85,35.4,72,36.1,65.6,36.1z M65.1,30.3
		c7.4,0,17.8-0.9,20.9-4c2.3-2.2,3.5-5.2,3.5-8.3c0-3.2-1.2-6.1-3.4-8.4C81.6,5,74.1,4.9,69.5,9.5l0,0
		C66.3,12.6,65.2,22.9,65.1,30.3z"/>
	<rect x="4.6" y="62.8" class="st2" width="110.6" height="4.5"/>
	<g>
		<path class="st3" d="M65.7,52.2c0.4-0.3,0.8-0.6,1.1-0.9l-3.3-5c0.4-0.2,0.8-0.5,1.1-0.8l-3.2-4.9l-3.2,4.9
			c0.3,0.3,0.7,0.6,1.1,0.8l-3.3,5c0.3,0.3,0.7,0.7,1.1,0.9l-3.1,4.6c1.9,1.9,4.5,3.1,7.4,3.1c2.9,0,5.5-1.2,7.4-3.1L65.7,52.2z"/>
		<path class="st3" d="M30.6,52.2c0.4-0.3,0.8-0.6,1.1-0.9l-3.3-5c0.4-0.2,0.8-0.5,1.1-0.8l-3.2-4.9L23,45.5
			c0.3,0.3,0.7,0.6,1.1,0.8l-3.3,5c0.3,0.3,0.7,0.7,1.1,0.9l-3.1,4.6c1.9,1.9,4.5,3.1,7.4,3.1s5.5-1.2,7.4-3.1L30.6,52.2z"/>
		<path class="st3" d="M100.7,52.2c0.4-0.3,0.8-0.6,1.1-0.9l-3.3-5c0.4-0.2,0.8-0.5,1.1-0.8l-3.2-4.9l-3.2,4.9
			c0.3,0.3,0.7,0.6,1.1,0.8l-3.3,5c0.3,0.3,0.7,0.7,1.1,0.9l-3.1,4.6c1.9,1.9,4.5,3.1,7.4,3.1c2.9,0,5.5-1.2,7.4-3.1L100.7,52.2z"/>
		<path class="st3" d="M65.7,119.6c0.4-0.3,0.8-0.6,1.1-0.9l-3.3-5c0.4-0.2,0.8-0.5,1.1-0.8l-3.2-4.9l-3.2,4.9
			c0.3,0.3,0.7,0.6,1.1,0.8l-3.3,5c0.3,0.3,0.7,0.7,1.1,0.9l-3.1,4.6c1.9,1.9,4.5,3.1,7.4,3.1c2.9,0,5.5-1.2,7.4-3.1L65.7,119.6z"/>
		<path class="st3" d="M30.6,119.6c0.4-0.3,0.8-0.6,1.1-0.9l-3.3-5c0.4-0.2,0.8-0.5,1.1-0.8l-3.2-4.9l-3.2,4.9
			c0.3,0.3,0.7,0.6,1.1,0.8l-3.3,5c0.3,0.3,0.7,0.7,1.1,0.9l-3.1,4.6c1.9,1.9,4.5,3.1,7.4,3.1s5.5-1.2,7.4-3.1L30.6,119.6z"/>
		<path class="st3" d="M100.7,119.6c0.4-0.3,0.8-0.6,1.1-0.9l-3.3-5c0.4-0.2,0.8-0.5,1.1-0.8l-3.2-4.9l-3.2,4.9
			c0.3,0.3,0.7,0.6,1.1,0.8l-3.3,5c0.3,0.3,0.7,0.7,1.1,0.9l-3.1,4.6c1.9,1.9,4.5,3.1,7.4,3.1c2.9,0,5.5-1.2,7.4-3.1L100.7,119.6z"
			/>
		<path class="st3" d="M47.5,89.9c0.4-0.3,0.8-0.6,1.1-0.9l-3.3-5c0.4-0.2,0.8-0.5,1.1-0.8l-3.2-4.9l-3.2,4.9
			c0.3,0.3,0.7,0.6,1.1,0.8l-3.3,5c0.3,0.3,0.7,0.7,1.1,0.9l-3.1,4.6c1.9,1.9,4.5,3.1,7.4,3.1c2.9,0,5.5-1.2,7.4-3.1L47.5,89.9z"/>
		<path class="st3" d="M82.6,89.9c0.4-0.3,0.8-0.6,1.1-0.9l-3.3-5c0.4-0.2,0.8-0.5,1.1-0.8l-3.2-4.9L75,83.1
			c0.3,0.3,0.7,0.6,1.1,0.8l-3.3,5c0.3,0.3,0.7,0.7,1.1,0.9l-3.1,4.6c1.9,1.9,4.5,3.1,7.4,3.1c2.9,0,5.5-1.2,7.4-3.1L82.6,89.9z"/>
	</g>
</g>
</svg>
