<?xml version="1.0" encoding="utf-8"?>
<!-- Generator: Adobe Illustrator 19.1.1, SVG Export Plug-In . SVG Version: 6.00 Build 0)  -->
<svg version="1.1" id="Layer_1" xmlns="http://www.w3.org/2000/svg" xmlns:xlink="http://www.w3.org/1999/xlink" x="0px" y="0px"
	 viewBox="0 0 119.9 139.8" style="enable-background:new 0 0 119.9 139.8;" xml:space="preserve">
<style type="text/css">
	.st0{fill:none;}
	.st1{fill:#142D52;}
	.st2{fill:#BA9E51;}
	.st3{fill:#1E6FB1;}
	.st4{opacity:0.1;fill:#010101;}
	.st5{fill:url(#SVGID_1_);}
</style>
<pattern  x="-245.7" y="-325.6" width="84" height="80" patternUnits="userSpaceOnUse" id="New_Pattern_19" viewBox="9.9 -85.9 84 80" style="overflow:visible;">
	<g>
		<polygon class="st0" points="9.9,-85.9 93.9,-85.9 93.9,-5.9 9.9,-5.9 		"/>
		<g>
			<path class="st1" d="M84-6.4C84-2.9,86.9,0,90.4,0c3.6,0,6.4-2.9,6.4-6.4s-2.9-6.4-6.4-6.4C86.9-12.9,84-10,84-6.4z"/>
			<path class="st2" d="M43-6.4C43-2.9,45.9,0,49.4,0c3.6,0,6.4-2.9,6.4-6.4s-2.9-6.4-6.4-6.4C45.9-12.9,43-10,43-6.4z"/>
		</g>
		<g>
			<path class="st1" d="M0-6.4C0-2.9,2.9,0,6.4,0s6.4-2.9,6.4-6.4s-2.9-6.4-6.4-6.4S0-10,0-6.4z"/>
		</g>
		<g>
			<path class="st2" d="M85-46.4c0,3.6,2.9,6.4,6.4,6.4c3.6,0,6.4-2.9,6.4-6.4c0-3.6-2.9-6.4-6.4-6.4C87.9-52.9,85-50,85-46.4z"/>
		</g>
		<g>
			<path class="st1" d="M42-46.4c0,3.6,2.9,6.4,6.4,6.4c3.6,0,6.4-2.9,6.4-6.4c0-3.6-2.9-6.4-6.4-6.4C44.9-52.9,42-50,42-46.4z"/>
			<path class="st2" d="M1-46.4C1-42.9,3.9-40,7.4-40s6.4-2.9,6.4-6.4c0-3.6-2.9-6.4-6.4-6.4S1-50,1-46.4z"/>
		</g>
		<g>
			<path class="st1" d="M84-86.4c0,3.6,2.9,6.4,6.4,6.4c3.6,0,6.4-2.9,6.4-6.4c0-3.6-2.9-6.4-6.4-6.4C86.9-92.9,84-90,84-86.4z"/>
			<path class="st2" d="M43-86.4c0,3.6,2.9,6.4,6.4,6.4c3.6,0,6.4-2.9,6.4-6.4c0-3.6-2.9-6.4-6.4-6.4C45.9-92.9,43-90,43-86.4z"/>
		</g>
		<g>
			<path class="st1" d="M0-86.4C0-82.9,2.9-80,6.4-80s6.4-2.9,6.4-6.4c0-3.6-2.9-6.4-6.4-6.4S0-90,0-86.4z"/>
		</g>
	</g>
</pattern>
<g>
	<path class="st3" d="M114.7,139.8H5.2c-0.3,0-0.6-0.3-0.6-0.6V37.8c0-0.3,0.3-0.6,0.6-0.6h109.5c0.3,0,0.6,0.3,0.6,0.6v101.4
		C115.3,139.6,115,139.8,114.7,139.8z"/>
	<path class="st3" d="M119.3,62.6H0.6C0.3,62.6,0,62.3,0,62V36c0-0.3,0.3-0.6,0.6-0.6h118.7c0.3,0,0.6,0.3,0.6,0.6V62
		C119.9,62.3,119.6,62.6,119.3,62.6z"/>
	<rect x="4.6" y="62.6" class="st4" width="110.6" height="4.5"/>
	<path class="st3" d="M54.7,35.9c-6,0-20-0.6-25.3-5.9c-6.8-6.8-6.8-18,0-24.8C32.8,1.8,37.2,0,41.9,0S51,1.8,54.3,5.1h0
		c6.4,6.4,5.9,25.7,5.8,27.9l-0.1,2.7l-2.7,0.1C57,35.8,56.1,35.9,54.7,35.9z M41.9,5.8c-3.2,0-6.1,1.2-8.4,3.5
		c-4.6,4.6-4.6,12.1,0,16.7c3.1,3.1,13.5,4.2,20.9,4.2c0-7.4-1.1-17.8-4.2-20.9h0C48,7,45.1,5.8,41.9,5.8z"/>
	<path class="st3" d="M64.9,35.9c-1.3,0-2.3,0-2.6,0l-2.7-0.1l-0.1-2.7c-0.1-2.2-0.6-21.5,5.8-27.9h0h0C68.6,1.8,73,0,77.7,0
		c4.7,0,9.1,1.8,12.4,5.1c6.8,6.8,6.8,18,0,24.8C84.9,35.3,70.9,35.9,64.9,35.9z M77.7,5.8c-3.2,0-6.1,1.2-8.4,3.5h0
		c-3.1,3.1-4.2,13.5-4.2,20.9c7.4,0,17.8-1.1,20.9-4.2c4.6-4.6,4.6-12.1,0-16.7C83.9,7,80.9,5.8,77.7,5.8z"/>
	<pattern  id="SVGID_1_" xlink:href="#New_Pattern_19" patternTransform="matrix(0.8059 0 0 0.8059 -1365.0063 -1385.1738)">
	</pattern>
	<rect x="10.4" y="39.7" class="st5" width="96.7" height="96.7"/>
</g>
</svg>
