<?xml version="1.0" encoding="utf-8"?>
<!-- Generator: Adobe Illustrator 19.1.1, SVG Export Plug-In . SVG Version: 6.00 Build 0)  -->
<svg version="1.1" id="Layer_1" xmlns="http://www.w3.org/2000/svg" xmlns:xlink="http://www.w3.org/1999/xlink" x="0px" y="0px"
	 viewBox="0 0 30 30" style="enable-background:new 0 0 30 30;" xml:space="preserve">
<style type="text/css">
	.st0{fill:#4D72AA;}
</style>
<g>
	<g>
		<path class="st0" d="M18.6,12.7c0.4,0,0.7,0.1,0.9,0.4c0.2,0.3,0.3,0.7,0.3,1.2v0.1h-2.5C17.4,13.2,17.8,12.7,18.6,12.7
			 M18.6,11.4c-0.9,0-1.7,0.3-2.2,1c-0.5,0.7-0.7,1.5-0.7,2.6c0,0.5,0,0.9,0.1,1.3c0.1,0.4,0.2,0.8,0.5,1.1c0.2,0.4,0.5,0.6,0.9,0.8
			c0.4,0.2,0.8,0.3,1.4,0.3c1,0,1.9-0.3,2.6-0.8l0.1,0l0-0.1c-0.1-0.4-0.2-0.7-0.5-0.9l-0.1-0.1l-0.1,0c-0.6,0.3-1.2,0.5-1.8,0.5
			c-0.5,0-0.9-0.1-1.1-0.5c-0.2-0.3-0.3-0.7-0.4-1.2h3.9l0-0.1c0.1-0.4,0.1-0.7,0.1-1.1c0-0.9-0.2-1.6-0.7-2.1
			C20.1,11.7,19.4,11.4,18.6,11.4"/>
		<path class="st0" d="M22.2,19c0.1,0,0.2,0,0.2-0.1c0.1-0.1,0.1-0.2,0.1-0.4v-6.1c0-0.3,0.1-0.6,0.2-0.7c0.1-0.2,0.4-0.2,0.7-0.2
			H24h0.2v7.4c0,0.5-0.1,0.9-0.4,1.1c-0.2,0.2-0.6,0.4-1,0.4v0h-0.4c-0.3,0-0.5-0.1-0.6-0.2c-0.1-0.1-0.2-0.3-0.2-0.5v-0.5V19
			L22.2,19L22.2,19z"/>
		<path class="st0" d="M14.6,17.3c-0.1,0-0.2,0-0.2-0.1c-0.1-0.1-0.1-0.2-0.1-0.4v-6c0-0.3-0.1-0.6-0.2-0.7
			c-0.1-0.2-0.4-0.2-0.7-0.2h-0.6h-0.2v7.3c0,0.5,0.1,0.9,0.4,1.1c0.2,0.2,0.6,0.4,1,0.4v0h0.4c0.3,0,0.5-0.1,0.6-0.2
			c0.1-0.1,0.2-0.3,0.2-0.5v-0.5v-0.1H14.6z"/>
		<path class="st0" d="M10,15.1c0,0.7-0.1,1.3-0.3,1.6c-0.2,0.3-0.5,0.5-0.8,0.5c-0.5,0-1-0.2-1.4-0.7v-3.7c0.3-0.1,0.6-0.1,1-0.1
			c0.5,0,0.8,0.2,1.1,0.6C9.8,13.7,10,14.3,10,15.1 M8.5,11.4c-0.9,0-1.7,0.2-2.5,0.5l-0.1,0v8.4H6h0.6c0.3,0,0.5-0.1,0.7-0.3
			c0.1-0.2,0.2-0.4,0.2-0.8V18c0.5,0.4,1.1,0.6,1.7,0.6c0.8,0,1.4-0.3,1.9-1c0.4-0.6,0.6-1.5,0.6-2.5V15c0-1.1-0.3-2.1-0.9-2.7
			C10.2,11.7,9.4,11.4,8.5,11.4"/>
		<path class="st0" d="M30,30H0V0h30V30z M1.7,28.3h26.7V1.7H1.7V28.3z"/>
	</g>
</g>
</svg>
