<?xml version="1.0" encoding="utf-8"?>
<!-- Generator: Adobe Illustrator 19.1.1, SVG Export Plug-In . SVG Version: 6.00 Build 0)  -->
<svg version="1.1" id="Layer_1" xmlns="http://www.w3.org/2000/svg" xmlns:xlink="http://www.w3.org/1999/xlink" x="0px" y="0px"
	 viewBox="0 0 15 15" style="enable-background:new 0 0 15 15;" xml:space="preserve">
<style type="text/css">
	.st0{fill:#162D53;}
</style>
<g>
	<g>
		<path class="st0" d="M7.5,15L7.5,15c-0.9,0-1.7-0.8-1.7-1.7V1.7C5.8,0.8,6.6,0,7.5,0h0c0.9,0,1.7,0.8,1.7,1.7v11.6
			C9.2,14.3,8.5,15,7.5,15z"/>
		<path class="st0" d="M15,7.5L15,7.5c0,0.9-0.8,1.7-1.7,1.7H1.7C0.8,9.2,0,8.5,0,7.5v0c0-0.9,0.8-1.7,1.7-1.7h11.6
			C14.3,5.8,15,6.6,15,7.5z"/>
	</g>
</g>
</svg>
