<?xml version="1.0" encoding="utf-8"?>
<!-- Generator: Adobe Illustrator 19.1.1, SVG Export Plug-In . SVG Version: 6.00 Build 0)  -->
<svg version="1.1" id="Layer_1" xmlns="http://www.w3.org/2000/svg" xmlns:xlink="http://www.w3.org/1999/xlink" x="0px" y="0px"
	 viewBox="0 0 384.6 268.5" style="enable-background:new 0 0 384.6 268.5;" xml:space="preserve">
<style type="text/css">
	.st0{fill:#1E6FB1;}
	.st1{clip-path:url(#SVGID_2_);}
	.st2{clip-path:url(#SVGID_4_);}
	.st3{fill:#BA9E51;}
	.st4{fill:#002856;}
	.st5{clip-path:url(#SVGID_6_);}
	.st6{clip-path:url(#SVGID_8_);}
	.st7{clip-path:url(#SVGID_10_);}
	.st8{clip-path:url(#SVGID_12_);}
	.st9{clip-path:url(#SVGID_14_);}
	.st10{clip-path:url(#SVGID_16_);}
	.st11{clip-path:url(#SVGID_18_);}
	.st12{clip-path:url(#SVGID_20_);}
	.st13{fill:#F3F3F3;}
	.st14{opacity:0.1;fill:#010101;}
</style>
<g>
	<path class="st0" d="M382.8,268.5H1.7c-1,0-1.7-0.8-1.7-1.7V0h384.6v266.8C384.6,267.8,383.8,268.5,382.8,268.5z"/>
	<g>
		<g>
			<defs>
				<path id="SVGID_1_" d="M0,0v266.5c0,1.1,0.9,2,2,2h380.6c1.1,0,2-0.9,2-2V0H0z"/>
			</defs>
			<clipPath id="SVGID_2_">
				<use xlink:href="#SVGID_1_"  style="overflow:visible;"/>
			</clipPath>
			<g class="st1">
				<g>
					<defs>
						<rect id="SVGID_3_" x="211.3" y="-164.2" width="200" height="180"/>
					</defs>
					<clipPath id="SVGID_4_">
						<use xlink:href="#SVGID_3_"  style="overflow:visible;"/>
					</clipPath>
					<g class="st2">
						<circle class="st3" cx="273.3" cy="18.8" r="5.8"/>
					</g>
					<g class="st2">
						<circle class="st3" cx="223.3" cy="3.8" r="5.8"/>
					</g>
					<g class="st2">
						<circle class="st4" cx="399.3" cy="-32.2" r="5.8"/>
					</g>
					<g class="st2">
						<circle class="st3" cx="373.3" cy="-11.2" r="5.8"/>
						<circle class="st4" cx="349.3" cy="12.8" r="5.8"/>
					</g>
					<g class="st2">
						<circle class="st3" cx="323.3" cy="-26.2" r="5.8"/>
						<circle class="st4" cx="299.3" cy="-2.2" r="5.8"/>
					</g>
					<g class="st2">
						<circle class="st3" cx="273.3" cy="-41.2" r="5.8"/>
						<circle class="st4" cx="249.3" cy="-17.2" r="5.8"/>
					</g>
					<g class="st2">
						<circle class="st3" cx="223.3" cy="-56.2" r="5.8"/>
					</g>
					<g class="st2">
						<circle class="st4" cx="399.3" cy="-92.2" r="5.8"/>
					</g>
					<g class="st2">
						<circle class="st3" cx="373.3" cy="-71.2" r="5.8"/>
						<circle class="st4" cx="349.3" cy="-47.2" r="5.8"/>
					</g>
					<g class="st2">
						<circle class="st3" cx="323.3" cy="-86.2" r="5.8"/>
						<circle class="st4" cx="299.3" cy="-62.2" r="5.8"/>
					</g>
					<g class="st2">
						<circle class="st3" cx="273.3" cy="-101.2" r="5.8"/>
						<circle class="st4" cx="249.3" cy="-77.2" r="5.8"/>
					</g>
					<g class="st2">
						<circle class="st3" cx="223.3" cy="-116.2" r="5.8"/>
					</g>
					<g class="st2">
						<circle class="st4" cx="399.3" cy="-152.2" r="5.8"/>
					</g>
					<g class="st2">
						<circle class="st3" cx="373.3" cy="-131.2" r="5.8"/>
						<circle class="st4" cx="349.3" cy="-107.2" r="5.8"/>
					</g>
					<g class="st2">
						<circle class="st3" cx="323.3" cy="-146.2" r="5.8"/>
						<circle class="st4" cx="299.3" cy="-122.2" r="5.8"/>
					</g>
					<g class="st2">
						<circle class="st3" cx="273.3" cy="-161.2" r="5.8"/>
						<circle class="st4" cx="249.3" cy="-137.2" r="5.8"/>
					</g>
					<g class="st2">
						<circle class="st4" cx="349.3" cy="-167.2" r="5.8"/>
					</g>
				</g>
			</g>
			<g class="st1">
				<g>
					<defs>
						<rect id="SVGID_5_" x="211.3" y="15.8" width="200" height="180"/>
					</defs>
					<clipPath id="SVGID_6_">
						<use xlink:href="#SVGID_5_"  style="overflow:visible;"/>
					</clipPath>
					<g class="st5">
						<circle class="st3" cx="273.3" cy="198.8" r="5.8"/>
					</g>
					<g class="st5">
						<circle class="st3" cx="223.3" cy="183.8" r="5.8"/>
					</g>
					<g class="st5">
						<circle class="st4" cx="399.3" cy="147.8" r="5.8"/>
					</g>
					<g class="st5">
						<circle class="st3" cx="373.3" cy="168.8" r="5.8"/>
						<circle class="st4" cx="349.3" cy="192.8" r="5.8"/>
					</g>
					<g class="st5">
						<circle class="st3" cx="323.3" cy="153.8" r="5.8"/>
						<circle class="st4" cx="299.3" cy="177.8" r="5.8"/>
					</g>
					<g class="st5">
						<circle class="st3" cx="273.3" cy="138.8" r="5.8"/>
						<circle class="st4" cx="249.3" cy="162.8" r="5.8"/>
					</g>
					<g class="st5">
						<circle class="st3" cx="223.3" cy="123.8" r="5.8"/>
					</g>
					<g class="st5">
						<circle class="st4" cx="399.3" cy="87.8" r="5.8"/>
					</g>
					<g class="st5">
						<circle class="st3" cx="373.3" cy="108.8" r="5.8"/>
						<circle class="st4" cx="349.3" cy="132.8" r="5.8"/>
					</g>
					<g class="st5">
						<circle class="st3" cx="323.3" cy="93.8" r="5.8"/>
						<circle class="st4" cx="299.3" cy="117.8" r="5.8"/>
					</g>
					<g class="st5">
						<circle class="st3" cx="273.3" cy="78.8" r="5.8"/>
						<circle class="st4" cx="249.3" cy="102.8" r="5.8"/>
					</g>
					<g class="st5">
						<circle class="st3" cx="223.3" cy="63.8" r="5.8"/>
					</g>
					<g class="st5">
						<circle class="st4" cx="399.3" cy="27.8" r="5.8"/>
					</g>
					<g class="st5">
						<circle class="st3" cx="373.3" cy="48.8" r="5.8"/>
						<circle class="st4" cx="349.3" cy="72.8" r="5.8"/>
					</g>
					<g class="st5">
						<circle class="st3" cx="323.3" cy="33.8" r="5.8"/>
						<circle class="st4" cx="299.3" cy="57.8" r="5.8"/>
					</g>
					<g class="st5">
						<circle class="st3" cx="273.3" cy="18.8" r="5.8"/>
						<circle class="st4" cx="249.3" cy="42.8" r="5.8"/>
					</g>
					<g class="st5">
						<circle class="st4" cx="349.3" cy="12.8" r="5.8"/>
					</g>
				</g>
			</g>
			<g class="st1">
				<g>
					<defs>
						<rect id="SVGID_7_" x="211.3" y="195.8" width="200" height="180"/>
					</defs>
					<clipPath id="SVGID_8_">
						<use xlink:href="#SVGID_7_"  style="overflow:visible;"/>
					</clipPath>
					<g class="st6">
						<circle class="st3" cx="273.3" cy="378.8" r="5.8"/>
					</g>
					<g class="st6">
						<circle class="st3" cx="223.3" cy="363.8" r="5.8"/>
					</g>
					<g class="st6">
						<circle class="st4" cx="399.3" cy="327.8" r="5.8"/>
					</g>
					<g class="st6">
						<circle class="st3" cx="373.3" cy="348.8" r="5.8"/>
						<circle class="st4" cx="349.3" cy="372.8" r="5.8"/>
					</g>
					<g class="st6">
						<circle class="st3" cx="323.3" cy="333.8" r="5.8"/>
						<circle class="st4" cx="299.3" cy="357.8" r="5.8"/>
					</g>
					<g class="st6">
						<circle class="st3" cx="273.3" cy="318.8" r="5.8"/>
						<circle class="st4" cx="249.3" cy="342.8" r="5.8"/>
					</g>
					<g class="st6">
						<circle class="st3" cx="223.3" cy="303.8" r="5.8"/>
					</g>
					<g class="st6">
						<circle class="st4" cx="399.3" cy="267.8" r="5.8"/>
					</g>
					<g class="st6">
						<circle class="st3" cx="373.3" cy="288.8" r="5.8"/>
						<circle class="st4" cx="349.3" cy="312.8" r="5.8"/>
					</g>
					<g class="st6">
						<circle class="st3" cx="323.3" cy="273.8" r="5.8"/>
						<circle class="st4" cx="299.3" cy="297.8" r="5.8"/>
					</g>
					<g class="st6">
						<circle class="st3" cx="273.3" cy="258.8" r="5.8"/>
						<circle class="st4" cx="249.3" cy="282.8" r="5.8"/>
					</g>
					<g class="st6">
						<circle class="st3" cx="223.3" cy="243.8" r="5.8"/>
					</g>
					<g class="st6">
						<circle class="st4" cx="399.3" cy="207.8" r="5.8"/>
					</g>
					<g class="st6">
						<circle class="st3" cx="373.3" cy="228.8" r="5.8"/>
						<circle class="st4" cx="349.3" cy="252.8" r="5.8"/>
					</g>
					<g class="st6">
						<circle class="st3" cx="323.3" cy="213.8" r="5.8"/>
						<circle class="st4" cx="299.3" cy="237.8" r="5.8"/>
					</g>
					<g class="st6">
						<circle class="st3" cx="273.3" cy="198.8" r="5.8"/>
						<circle class="st4" cx="249.3" cy="222.8" r="5.8"/>
					</g>
					<g class="st6">
						<circle class="st4" cx="349.3" cy="192.8" r="5.8"/>
					</g>
				</g>
			</g>
			<g class="st1">
				<g>
					<defs>
						<rect id="SVGID_9_" x="11.3" y="-164.2" width="200" height="180"/>
					</defs>
					<clipPath id="SVGID_10_">
						<use xlink:href="#SVGID_9_"  style="overflow:visible;"/>
					</clipPath>
					<g class="st7">
						<circle class="st3" cx="73.3" cy="18.8" r="5.8"/>
					</g>
					<g class="st7">
						<circle class="st3" cx="23.3" cy="3.8" r="5.8"/>
					</g>
					<g class="st7">
						<circle class="st4" cx="199.3" cy="-32.2" r="5.8"/>
					</g>
					<g class="st7">
						<circle class="st3" cx="173.3" cy="-11.2" r="5.8"/>
						<circle class="st4" cx="149.3" cy="12.8" r="5.8"/>
					</g>
					<g class="st7">
						<circle class="st3" cx="123.3" cy="-26.2" r="5.8"/>
						<circle class="st4" cx="99.3" cy="-2.2" r="5.8"/>
					</g>
					<g class="st7">
						<circle class="st3" cx="73.3" cy="-41.2" r="5.8"/>
						<circle class="st4" cx="49.3" cy="-17.2" r="5.8"/>
					</g>
					<g class="st7">
						<circle class="st3" cx="23.3" cy="-56.2" r="5.8"/>
					</g>
					<g class="st7">
						<circle class="st4" cx="199.3" cy="-92.2" r="5.8"/>
					</g>
					<g class="st7">
						<circle class="st3" cx="173.3" cy="-71.2" r="5.8"/>
						<circle class="st4" cx="149.3" cy="-47.2" r="5.8"/>
					</g>
					<g class="st7">
						<circle class="st3" cx="123.3" cy="-86.2" r="5.8"/>
						<circle class="st4" cx="99.3" cy="-62.2" r="5.8"/>
					</g>
					<g class="st7">
						<circle class="st3" cx="73.3" cy="-101.2" r="5.8"/>
						<circle class="st4" cx="49.3" cy="-77.2" r="5.8"/>
					</g>
					<g class="st7">
						<circle class="st3" cx="23.3" cy="-116.2" r="5.8"/>
					</g>
					<g class="st7">
						<circle class="st4" cx="199.3" cy="-152.2" r="5.8"/>
					</g>
					<g class="st7">
						<circle class="st3" cx="173.3" cy="-131.2" r="5.8"/>
						<circle class="st4" cx="149.3" cy="-107.2" r="5.8"/>
					</g>
					<g class="st7">
						<circle class="st3" cx="123.3" cy="-146.2" r="5.8"/>
						<circle class="st4" cx="99.3" cy="-122.2" r="5.8"/>
					</g>
					<g class="st7">
						<circle class="st3" cx="73.3" cy="-161.2" r="5.8"/>
						<circle class="st4" cx="49.3" cy="-137.2" r="5.8"/>
					</g>
					<g class="st7">
						<circle class="st4" cx="149.3" cy="-167.2" r="5.8"/>
					</g>
				</g>
			</g>
			<g class="st1">
				<g>
					<defs>
						<rect id="SVGID_11_" x="11.3" y="15.8" width="200" height="180"/>
					</defs>
					<clipPath id="SVGID_12_">
						<use xlink:href="#SVGID_11_"  style="overflow:visible;"/>
					</clipPath>
					<g class="st8">
						<circle class="st3" cx="73.3" cy="198.8" r="5.8"/>
					</g>
					<g class="st8">
						<circle class="st3" cx="23.3" cy="183.8" r="5.8"/>
					</g>
					<g class="st8">
						<circle class="st4" cx="199.3" cy="147.8" r="5.8"/>
					</g>
					<g class="st8">
						<circle class="st3" cx="173.3" cy="168.8" r="5.8"/>
						<circle class="st4" cx="149.3" cy="192.8" r="5.8"/>
					</g>
					<g class="st8">
						<circle class="st3" cx="123.3" cy="153.8" r="5.8"/>
						<circle class="st4" cx="99.3" cy="177.8" r="5.8"/>
					</g>
					<g class="st8">
						<circle class="st3" cx="73.3" cy="138.8" r="5.8"/>
						<circle class="st4" cx="49.3" cy="162.8" r="5.8"/>
					</g>
					<g class="st8">
						<circle class="st3" cx="23.3" cy="123.8" r="5.8"/>
					</g>
					<g class="st8">
						<circle class="st4" cx="199.3" cy="87.8" r="5.8"/>
					</g>
					<g class="st8">
						<circle class="st3" cx="173.3" cy="108.8" r="5.8"/>
						<circle class="st4" cx="149.3" cy="132.8" r="5.8"/>
					</g>
					<g class="st8">
						<circle class="st3" cx="123.3" cy="93.8" r="5.8"/>
						<circle class="st4" cx="99.3" cy="117.8" r="5.8"/>
					</g>
					<g class="st8">
						<circle class="st3" cx="73.3" cy="78.8" r="5.8"/>
						<circle class="st4" cx="49.3" cy="102.8" r="5.8"/>
					</g>
					<g class="st8">
						<circle class="st3" cx="23.3" cy="63.8" r="5.8"/>
					</g>
					<g class="st8">
						<circle class="st4" cx="199.3" cy="27.8" r="5.8"/>
					</g>
					<g class="st8">
						<circle class="st3" cx="173.3" cy="48.8" r="5.8"/>
						<circle class="st4" cx="149.3" cy="72.8" r="5.8"/>
					</g>
					<g class="st8">
						<circle class="st3" cx="123.3" cy="33.8" r="5.8"/>
						<circle class="st4" cx="99.3" cy="57.8" r="5.8"/>
					</g>
					<g class="st8">
						<circle class="st3" cx="73.3" cy="18.8" r="5.8"/>
						<circle class="st4" cx="49.3" cy="42.8" r="5.8"/>
					</g>
					<g class="st8">
						<circle class="st4" cx="149.3" cy="12.8" r="5.8"/>
					</g>
				</g>
			</g>
			<g class="st1">
				<g>
					<defs>
						<rect id="SVGID_13_" x="11.3" y="195.8" width="200" height="180"/>
					</defs>
					<clipPath id="SVGID_14_">
						<use xlink:href="#SVGID_13_"  style="overflow:visible;"/>
					</clipPath>
					<g class="st9">
						<circle class="st3" cx="73.3" cy="378.8" r="5.8"/>
					</g>
					<g class="st9">
						<circle class="st3" cx="23.3" cy="363.8" r="5.8"/>
					</g>
					<g class="st9">
						<circle class="st4" cx="199.3" cy="327.8" r="5.8"/>
					</g>
					<g class="st9">
						<circle class="st3" cx="173.3" cy="348.8" r="5.8"/>
						<circle class="st4" cx="149.3" cy="372.8" r="5.8"/>
					</g>
					<g class="st9">
						<circle class="st3" cx="123.3" cy="333.8" r="5.8"/>
						<circle class="st4" cx="99.3" cy="357.8" r="5.8"/>
					</g>
					<g class="st9">
						<circle class="st3" cx="73.3" cy="318.8" r="5.8"/>
						<circle class="st4" cx="49.3" cy="342.8" r="5.8"/>
					</g>
					<g class="st9">
						<circle class="st3" cx="23.3" cy="303.8" r="5.8"/>
					</g>
					<g class="st9">
						<circle class="st4" cx="199.3" cy="267.8" r="5.8"/>
					</g>
					<g class="st9">
						<circle class="st3" cx="173.3" cy="288.8" r="5.8"/>
						<circle class="st4" cx="149.3" cy="312.8" r="5.8"/>
					</g>
					<g class="st9">
						<circle class="st3" cx="123.3" cy="273.8" r="5.8"/>
						<circle class="st4" cx="99.3" cy="297.8" r="5.8"/>
					</g>
					<g class="st9">
						<circle class="st3" cx="73.3" cy="258.8" r="5.8"/>
						<circle class="st4" cx="49.3" cy="282.8" r="5.8"/>
					</g>
					<g class="st9">
						<circle class="st3" cx="23.3" cy="243.8" r="5.8"/>
					</g>
					<g class="st9">
						<circle class="st4" cx="199.3" cy="207.8" r="5.8"/>
					</g>
					<g class="st9">
						<circle class="st3" cx="173.3" cy="228.8" r="5.8"/>
						<circle class="st4" cx="149.3" cy="252.8" r="5.8"/>
					</g>
					<g class="st9">
						<circle class="st3" cx="123.3" cy="213.8" r="5.8"/>
						<circle class="st4" cx="99.3" cy="237.8" r="5.8"/>
					</g>
					<g class="st9">
						<circle class="st3" cx="73.3" cy="198.8" r="5.8"/>
						<circle class="st4" cx="49.3" cy="222.8" r="5.8"/>
					</g>
					<g class="st9">
						<circle class="st4" cx="149.3" cy="192.8" r="5.8"/>
					</g>
				</g>
			</g>
			<g class="st1">
				<g>
					<defs>
						<rect id="SVGID_15_" x="-188.7" y="-164.2" width="200" height="180"/>
					</defs>
					<clipPath id="SVGID_16_">
						<use xlink:href="#SVGID_15_"  style="overflow:visible;"/>
					</clipPath>
					<g class="st10">
						<circle class="st3" cx="-126.7" cy="18.8" r="5.8"/>
					</g>
					<g class="st10">
						<circle class="st3" cx="-176.7" cy="3.8" r="5.8"/>
					</g>
					<g class="st10">
						<circle class="st4" cx="-0.7" cy="-32.2" r="5.8"/>
					</g>
					<g class="st10">
						<circle class="st3" cx="-26.7" cy="-11.2" r="5.8"/>
						<circle class="st4" cx="-50.7" cy="12.8" r="5.8"/>
					</g>
					<g class="st10">
						<circle class="st3" cx="-76.7" cy="-26.2" r="5.8"/>
						<circle class="st4" cx="-100.7" cy="-2.2" r="5.8"/>
					</g>
					<g class="st10">
						<circle class="st3" cx="-126.7" cy="-41.2" r="5.8"/>
						<circle class="st4" cx="-150.7" cy="-17.2" r="5.8"/>
					</g>
					<g class="st10">
						<circle class="st3" cx="-176.7" cy="-56.2" r="5.8"/>
					</g>
					<g class="st10">
						<circle class="st4" cx="-0.7" cy="-92.2" r="5.8"/>
					</g>
					<g class="st10">
						<circle class="st3" cx="-26.7" cy="-71.2" r="5.8"/>
						<circle class="st4" cx="-50.7" cy="-47.2" r="5.8"/>
					</g>
					<g class="st10">
						<circle class="st3" cx="-76.7" cy="-86.2" r="5.8"/>
						<circle class="st4" cx="-100.7" cy="-62.2" r="5.8"/>
					</g>
					<g class="st10">
						<circle class="st3" cx="-126.7" cy="-101.2" r="5.8"/>
						<circle class="st4" cx="-150.7" cy="-77.2" r="5.8"/>
					</g>
					<g class="st10">
						<circle class="st3" cx="-176.7" cy="-116.2" r="5.8"/>
					</g>
					<g class="st10">
						<circle class="st4" cx="-0.7" cy="-152.2" r="5.8"/>
					</g>
					<g class="st10">
						<circle class="st3" cx="-26.7" cy="-131.2" r="5.8"/>
						<circle class="st4" cx="-50.7" cy="-107.2" r="5.8"/>
					</g>
					<g class="st10">
						<circle class="st3" cx="-76.7" cy="-146.2" r="5.8"/>
						<circle class="st4" cx="-100.7" cy="-122.2" r="5.8"/>
					</g>
					<g class="st10">
						<circle class="st3" cx="-126.7" cy="-161.2" r="5.8"/>
						<circle class="st4" cx="-150.7" cy="-137.2" r="5.8"/>
					</g>
					<g class="st10">
						<circle class="st4" cx="-50.7" cy="-167.2" r="5.8"/>
					</g>
				</g>
			</g>
			<g class="st1">
				<g>
					<defs>
						<rect id="SVGID_17_" x="-188.7" y="15.8" width="200" height="180"/>
					</defs>
					<clipPath id="SVGID_18_">
						<use xlink:href="#SVGID_17_"  style="overflow:visible;"/>
					</clipPath>
					<g class="st11">
						<circle class="st3" cx="-126.7" cy="198.8" r="5.8"/>
					</g>
					<g class="st11">
						<circle class="st3" cx="-176.7" cy="183.8" r="5.8"/>
					</g>
					<g class="st11">
						<circle class="st4" cx="-0.7" cy="147.8" r="5.8"/>
					</g>
					<g class="st11">
						<circle class="st3" cx="-26.7" cy="168.8" r="5.8"/>
						<circle class="st4" cx="-50.7" cy="192.8" r="5.8"/>
					</g>
					<g class="st11">
						<circle class="st3" cx="-76.7" cy="153.8" r="5.8"/>
						<circle class="st4" cx="-100.7" cy="177.8" r="5.8"/>
					</g>
					<g class="st11">
						<circle class="st3" cx="-126.7" cy="138.8" r="5.8"/>
						<circle class="st4" cx="-150.7" cy="162.8" r="5.8"/>
					</g>
					<g class="st11">
						<circle class="st3" cx="-176.7" cy="123.8" r="5.8"/>
					</g>
					<g class="st11">
						<circle class="st4" cx="-0.7" cy="87.8" r="5.8"/>
					</g>
					<g class="st11">
						<circle class="st3" cx="-26.7" cy="108.8" r="5.8"/>
						<circle class="st4" cx="-50.7" cy="132.8" r="5.8"/>
					</g>
					<g class="st11">
						<circle class="st3" cx="-76.7" cy="93.8" r="5.8"/>
						<circle class="st4" cx="-100.7" cy="117.8" r="5.8"/>
					</g>
					<g class="st11">
						<circle class="st3" cx="-126.7" cy="78.8" r="5.8"/>
						<circle class="st4" cx="-150.7" cy="102.8" r="5.8"/>
					</g>
					<g class="st11">
						<circle class="st3" cx="-176.7" cy="63.8" r="5.8"/>
					</g>
					<g class="st11">
						<circle class="st4" cx="-0.7" cy="27.8" r="5.8"/>
					</g>
					<g class="st11">
						<circle class="st3" cx="-26.7" cy="48.8" r="5.8"/>
						<circle class="st4" cx="-50.7" cy="72.8" r="5.8"/>
					</g>
					<g class="st11">
						<circle class="st3" cx="-76.7" cy="33.8" r="5.8"/>
						<circle class="st4" cx="-100.7" cy="57.8" r="5.8"/>
					</g>
					<g class="st11">
						<circle class="st3" cx="-126.7" cy="18.8" r="5.8"/>
						<circle class="st4" cx="-150.7" cy="42.8" r="5.8"/>
					</g>
					<g class="st11">
						<circle class="st4" cx="-50.7" cy="12.8" r="5.8"/>
					</g>
				</g>
			</g>
			<g class="st1">
				<g>
					<defs>
						<rect id="SVGID_19_" x="-188.7" y="195.8" width="200" height="180"/>
					</defs>
					<clipPath id="SVGID_20_">
						<use xlink:href="#SVGID_19_"  style="overflow:visible;"/>
					</clipPath>
					<g class="st12">
						<circle class="st3" cx="-126.7" cy="378.8" r="5.8"/>
					</g>
					<g class="st12">
						<circle class="st3" cx="-176.7" cy="363.8" r="5.8"/>
					</g>
					<g class="st12">
						<circle class="st4" cx="-0.7" cy="327.8" r="5.8"/>
					</g>
					<g class="st12">
						<circle class="st3" cx="-26.7" cy="348.8" r="5.8"/>
						<circle class="st4" cx="-50.7" cy="372.8" r="5.8"/>
					</g>
					<g class="st12">
						<circle class="st3" cx="-76.7" cy="333.8" r="5.8"/>
						<circle class="st4" cx="-100.7" cy="357.8" r="5.8"/>
					</g>
					<g class="st12">
						<circle class="st3" cx="-126.7" cy="318.8" r="5.8"/>
						<circle class="st4" cx="-150.7" cy="342.8" r="5.8"/>
					</g>
					<g class="st12">
						<circle class="st3" cx="-176.7" cy="303.8" r="5.8"/>
					</g>
					<g class="st12">
						<circle class="st4" cx="-0.7" cy="267.8" r="5.8"/>
					</g>
					<g class="st12">
						<circle class="st3" cx="-26.7" cy="288.8" r="5.8"/>
						<circle class="st4" cx="-50.7" cy="312.8" r="5.8"/>
					</g>
					<g class="st12">
						<circle class="st3" cx="-76.7" cy="273.8" r="5.8"/>
						<circle class="st4" cx="-100.7" cy="297.8" r="5.8"/>
					</g>
					<g class="st12">
						<circle class="st3" cx="-126.7" cy="258.8" r="5.8"/>
						<circle class="st4" cx="-150.7" cy="282.8" r="5.8"/>
					</g>
					<g class="st12">
						<circle class="st3" cx="-176.7" cy="243.8" r="5.8"/>
					</g>
					<g class="st12">
						<circle class="st4" cx="-0.7" cy="207.8" r="5.8"/>
					</g>
					<g class="st12">
						<circle class="st3" cx="-26.7" cy="228.8" r="5.8"/>
						<circle class="st4" cx="-50.7" cy="252.8" r="5.8"/>
					</g>
					<g class="st12">
						<circle class="st3" cx="-76.7" cy="213.8" r="5.8"/>
						<circle class="st4" cx="-100.7" cy="237.8" r="5.8"/>
					</g>
					<g class="st12">
						<circle class="st3" cx="-126.7" cy="198.8" r="5.8"/>
						<circle class="st4" cx="-150.7" cy="222.8" r="5.8"/>
					</g>
					<g class="st12">
						<circle class="st4" cx="-50.7" cy="192.8" r="5.8"/>
					</g>
				</g>
			</g>
		</g>
	</g>
	<g>
		<rect x="0" y="87" class="st13" width="384.6" height="40"/>
	</g>
	<g>
		<rect x="172.3" y="0" class="st13" width="40" height="268.5"/>
	</g>
	<rect x="0" y="0" class="st14" width="384.6" height="15.7"/>
</g>
</svg>
