<?xml version="1.0" encoding="utf-8"?>
<!-- Generator: Adobe Illustrator 19.1.1, SVG Export Plug-In . SVG Version: 6.00 Build 0)  -->
<svg version="1.1" id="Layer_1" xmlns="http://www.w3.org/2000/svg" xmlns:xlink="http://www.w3.org/1999/xlink" x="0px" y="0px"
	 viewBox="0 0 384.6 268.8" style="enable-background:new 0 0 384.6 268.8;" xml:space="preserve">
<style type="text/css">
	.st0{fill:#C6A14E;}
	.st1{clip-path:url(#SVGID_2_);}
	.st2{clip-path:url(#SVGID_4_);fill:#EDE4CC;}
	.st3{clip-path:url(#SVGID_6_);fill:#EDE4CC;}
	.st4{clip-path:url(#SVGID_8_);fill:#EDE4CC;}
	.st5{clip-path:url(#SVGID_10_);fill:#EDE4CC;}
	.st6{clip-path:url(#SVGID_12_);fill:#EDE4CC;}
	.st7{clip-path:url(#SVGID_14_);fill:#EDE4CC;}
	.st8{clip-path:url(#SVGID_16_);fill:#EDE4CC;}
	.st9{clip-path:url(#SVGID_18_);fill:#EDE4CC;}
	.st10{clip-path:url(#SVGID_20_);fill:#EDE4CC;}
	.st11{clip-path:url(#SVGID_22_);fill:#EDE4CC;}
	.st12{clip-path:url(#SVGID_24_);fill:#EDE4CC;}
	.st13{clip-path:url(#SVGID_26_);fill:#EDE4CC;}
	.st14{clip-path:url(#SVGID_28_);fill:#EDE4CC;}
	.st15{clip-path:url(#SVGID_30_);fill:#EDE4CC;}
	.st16{clip-path:url(#SVGID_32_);fill:#EDE4CC;}
	.st17{clip-path:url(#SVGID_34_);fill:#EDE4CC;}
	.st18{clip-path:url(#SVGID_36_);fill:#EDE4CC;}
	.st19{clip-path:url(#SVGID_38_);fill:#EDE4CC;}
	.st20{clip-path:url(#SVGID_40_);fill:#EDE4CC;}
	.st21{clip-path:url(#SVGID_42_);fill:#EDE4CC;}
	.st22{clip-path:url(#SVGID_44_);fill:#EDE4CC;}
	.st23{clip-path:url(#SVGID_46_);fill:#EDE4CC;}
	.st24{clip-path:url(#SVGID_48_);fill:#EDE4CC;}
	.st25{clip-path:url(#SVGID_50_);fill:#EDE4CC;}
	.st26{fill:#82AED7;}
	.st27{fill:#3095D2;}
	.st28{opacity:0.1;fill:#010101;}
</style>
<g>
	<path class="st0" d="M382.8,268.5H1.7c-1,0-1.7-0.8-1.7-1.7V0h384.6v266.8C384.6,267.8,383.8,268.5,382.8,268.5z"/>
	<g>
		<g>
			<defs>
				<path id="SVGID_1_" d="M382.8,268.5H1.7c-1,0-1.7-0.8-1.7-1.7V0h384.6v266.8C384.6,267.8,383.8,268.5,382.8,268.5z"/>
			</defs>
			<clipPath id="SVGID_2_">
				<use xlink:href="#SVGID_1_"  style="overflow:visible;"/>
			</clipPath>
			<g class="st1">
				<g>
					<defs>
						<rect id="SVGID_3_" x="362.5" y="-50.5" width="80" height="80"/>
					</defs>
					<clipPath id="SVGID_4_">
						<use xlink:href="#SVGID_3_"  style="overflow:visible;"/>
					</clipPath>
					<path class="st2" d="M427.6,31.7c0.5-0.3,0.9-0.7,1.3-1.1l-3.9-5.8c0.5-0.2,0.9-0.6,1.3-0.9l-3.7-5.6l-3.7,5.6
						c0.4,0.4,0.8,0.7,1.3,0.9l-3.9,5.8c0.4,0.4,0.8,0.8,1.3,1.1l-3.6,5.4c2.2,2.2,5.2,3.6,8.6,3.6s6.4-1.4,8.6-3.6L427.6,31.7z"/>
					<path class="st2" d="M387.6,31.7c0.5-0.3,0.9-0.7,1.3-1.1l-3.9-5.8c0.5-0.2,0.9-0.6,1.3-0.9l-3.7-5.6l-3.7,5.6
						c0.4,0.4,0.8,0.7,1.3,0.9l-3.9,5.8c0.4,0.4,0.8,0.8,1.3,1.1l-3.6,5.4c2.2,2.2,5.2,3.6,8.6,3.6s6.4-1.4,8.6-3.6L387.6,31.7z"/>
					<path class="st2" d="M447.6-8.3c0.5-0.3,0.9-0.7,1.3-1.1l-3.9-5.8c0.5-0.2,0.9-0.6,1.3-0.9l-3.7-5.6l-3.7,5.6
						c0.4,0.4,0.8,0.7,1.3,0.9l-3.9,5.8c0.4,0.4,0.8,0.8,1.3,1.1l-3.6,5.4c2.2,2.2,5.2,3.6,8.6,3.6s6.4-1.4,8.6-3.6L447.6-8.3z"/>
					<path class="st2" d="M407.6-8.3c0.5-0.3,0.9-0.7,1.3-1.1l-3.9-5.8c0.5-0.2,0.9-0.6,1.3-0.9l-3.7-5.6l-3.7,5.6
						c0.4,0.4,0.8,0.7,1.3,0.9l-3.9,5.8c0.4,0.4,0.8,0.8,1.3,1.1l-3.6,5.4c2.2,2.2,5.2,3.6,8.6,3.6s6.4-1.4,8.6-3.6L407.6-8.3z"/>
					<path class="st2" d="M367.6-8.3c0.5-0.3,0.9-0.7,1.3-1.1l-3.9-5.8c0.5-0.2,0.9-0.6,1.3-0.9l-3.7-5.6l-3.7,5.6
						c0.4,0.4,0.8,0.7,1.3,0.9l-3.9,5.8c0.4,0.4,0.8,0.8,1.3,1.1l-3.6,5.4c2.2,2.2,5.2,3.6,8.6,3.6s6.4-1.4,8.6-3.6L367.6-8.3z"/>
					<path class="st2" d="M427.6-48.3c0.5-0.3,0.9-0.7,1.3-1.1l-3.9-5.8c0.5-0.2,0.9-0.6,1.3-0.9l-3.7-5.6l-3.7,5.6
						c0.4,0.4,0.8,0.7,1.3,0.9l-3.9,5.8c0.4,0.4,0.8,0.8,1.3,1.1l-3.6,5.4c2.2,2.2,5.2,3.6,8.6,3.6s6.4-1.4,8.6-3.6L427.6-48.3z"/>
					<path class="st2" d="M387.6-48.3c0.5-0.3,0.9-0.7,1.3-1.1l-3.9-5.8c0.5-0.2,0.9-0.6,1.3-0.9l-3.7-5.6l-3.7,5.6
						c0.4,0.4,0.8,0.7,1.3,0.9l-3.9,5.8c0.4,0.4,0.8,0.8,1.3,1.1l-3.6,5.4c2.2,2.2,5.2,3.6,8.6,3.6s6.4-1.4,8.6-3.6L387.6-48.3z"/>
				</g>
			</g>
			<g class="st1">
				<g>
					<defs>
						<rect id="SVGID_5_" x="362.5" y="29.5" width="80" height="80"/>
					</defs>
					<clipPath id="SVGID_6_">
						<use xlink:href="#SVGID_5_"  style="overflow:visible;"/>
					</clipPath>
					<path class="st3" d="M427.6,111.7c0.5-0.3,0.9-0.7,1.3-1.1l-3.9-5.8c0.5-0.2,0.9-0.6,1.3-0.9l-3.7-5.6l-3.7,5.6
						c0.4,0.4,0.8,0.7,1.3,0.9l-3.9,5.8c0.4,0.4,0.8,0.8,1.3,1.1l-3.6,5.4c2.2,2.2,5.2,3.6,8.6,3.6s6.4-1.4,8.6-3.6L427.6,111.7z"/>
					<path class="st3" d="M387.6,111.7c0.5-0.3,0.9-0.7,1.3-1.1l-3.9-5.8c0.5-0.2,0.9-0.6,1.3-0.9l-3.7-5.6l-3.7,5.6
						c0.4,0.4,0.8,0.7,1.3,0.9l-3.9,5.8c0.4,0.4,0.8,0.8,1.3,1.1l-3.6,5.4c2.2,2.2,5.2,3.6,8.6,3.6s6.4-1.4,8.6-3.6L387.6,111.7z"/>
					<path class="st3" d="M447.6,71.7c0.5-0.3,0.9-0.7,1.3-1.1l-3.9-5.8c0.5-0.2,0.9-0.6,1.3-0.9l-3.7-5.6l-3.7,5.6
						c0.4,0.4,0.8,0.7,1.3,0.9l-3.9,5.8c0.4,0.4,0.8,0.8,1.3,1.1l-3.6,5.4c2.2,2.2,5.2,3.6,8.6,3.6s6.4-1.4,8.6-3.6L447.6,71.7z"/>
					<path class="st3" d="M407.6,71.7c0.5-0.3,0.9-0.7,1.3-1.1l-3.9-5.8c0.5-0.2,0.9-0.6,1.3-0.9l-3.7-5.6l-3.7,5.6
						c0.4,0.4,0.8,0.7,1.3,0.9l-3.9,5.8c0.4,0.4,0.8,0.8,1.3,1.1l-3.6,5.4c2.2,2.2,5.2,3.6,8.6,3.6s6.4-1.4,8.6-3.6L407.6,71.7z"/>
					<path class="st3" d="M367.6,71.7c0.5-0.3,0.9-0.7,1.3-1.1l-3.9-5.8c0.5-0.2,0.9-0.6,1.3-0.9l-3.7-5.6l-3.7,5.6
						c0.4,0.4,0.8,0.7,1.3,0.9l-3.9,5.8c0.4,0.4,0.8,0.8,1.3,1.1l-3.6,5.4c2.2,2.2,5.2,3.6,8.6,3.6s6.4-1.4,8.6-3.6L367.6,71.7z"/>
					<path class="st3" d="M427.6,31.7c0.5-0.3,0.9-0.7,1.3-1.1l-3.9-5.8c0.5-0.2,0.9-0.6,1.3-0.9l-3.7-5.6l-3.7,5.6
						c0.4,0.4,0.8,0.7,1.3,0.9l-3.9,5.8c0.4,0.4,0.8,0.8,1.3,1.1l-3.6,5.4c2.2,2.2,5.2,3.6,8.6,3.6s6.4-1.4,8.6-3.6L427.6,31.7z"/>
					<path class="st3" d="M387.6,31.7c0.5-0.3,0.9-0.7,1.3-1.1l-3.9-5.8c0.5-0.2,0.9-0.6,1.3-0.9l-3.7-5.6l-3.7,5.6
						c0.4,0.4,0.8,0.7,1.3,0.9l-3.9,5.8c0.4,0.4,0.8,0.8,1.3,1.1l-3.6,5.4c2.2,2.2,5.2,3.6,8.6,3.6s6.4-1.4,8.6-3.6L387.6,31.7z"/>
				</g>
			</g>
			<g class="st1">
				<g>
					<defs>
						<rect id="SVGID_7_" x="362.5" y="109.5" width="80" height="80"/>
					</defs>
					<clipPath id="SVGID_8_">
						<use xlink:href="#SVGID_7_"  style="overflow:visible;"/>
					</clipPath>
					<path class="st4" d="M427.6,191.7c0.5-0.3,0.9-0.7,1.3-1.1l-3.9-5.8c0.5-0.2,0.9-0.6,1.3-0.9l-3.7-5.6l-3.7,5.6
						c0.4,0.4,0.8,0.7,1.3,0.9l-3.9,5.8c0.4,0.4,0.8,0.8,1.3,1.1l-3.6,5.4c2.2,2.2,5.2,3.6,8.6,3.6s6.4-1.4,8.6-3.6L427.6,191.7z"/>
					<path class="st4" d="M387.6,191.7c0.5-0.3,0.9-0.7,1.3-1.1l-3.9-5.8c0.5-0.2,0.9-0.6,1.3-0.9l-3.7-5.6l-3.7,5.6
						c0.4,0.4,0.8,0.7,1.3,0.9l-3.9,5.8c0.4,0.4,0.8,0.8,1.3,1.1l-3.6,5.4c2.2,2.2,5.2,3.6,8.6,3.6s6.4-1.4,8.6-3.6L387.6,191.7z"/>
					<path class="st4" d="M447.6,151.7c0.5-0.3,0.9-0.7,1.3-1.1l-3.9-5.8c0.5-0.2,0.9-0.6,1.3-0.9l-3.7-5.6l-3.7,5.6
						c0.4,0.4,0.8,0.7,1.3,0.9l-3.9,5.8c0.4,0.4,0.8,0.8,1.3,1.1l-3.6,5.4c2.2,2.2,5.2,3.6,8.6,3.6s6.4-1.4,8.6-3.6L447.6,151.7z"/>
					<path class="st4" d="M407.6,151.7c0.5-0.3,0.9-0.7,1.3-1.1l-3.9-5.8c0.5-0.2,0.9-0.6,1.3-0.9l-3.7-5.6l-3.7,5.6
						c0.4,0.4,0.8,0.7,1.3,0.9l-3.9,5.8c0.4,0.4,0.8,0.8,1.3,1.1l-3.6,5.4c2.2,2.2,5.2,3.6,8.6,3.6s6.4-1.4,8.6-3.6L407.6,151.7z"/>
					<path class="st4" d="M367.6,151.7c0.5-0.3,0.9-0.7,1.3-1.1l-3.9-5.8c0.5-0.2,0.9-0.6,1.3-0.9l-3.7-5.6l-3.7,5.6
						c0.4,0.4,0.8,0.7,1.3,0.9l-3.9,5.8c0.4,0.4,0.8,0.8,1.3,1.1l-3.6,5.4c2.2,2.2,5.2,3.6,8.6,3.6s6.4-1.4,8.6-3.6L367.6,151.7z"/>
					<path class="st4" d="M427.6,111.7c0.5-0.3,0.9-0.7,1.3-1.1l-3.9-5.8c0.5-0.2,0.9-0.6,1.3-0.9l-3.7-5.6l-3.7,5.6
						c0.4,0.4,0.8,0.7,1.3,0.9l-3.9,5.8c0.4,0.4,0.8,0.8,1.3,1.1l-3.6,5.4c2.2,2.2,5.2,3.6,8.6,3.6s6.4-1.4,8.6-3.6L427.6,111.7z"/>
					<path class="st4" d="M387.6,111.7c0.5-0.3,0.9-0.7,1.3-1.1l-3.9-5.8c0.5-0.2,0.9-0.6,1.3-0.9l-3.7-5.6l-3.7,5.6
						c0.4,0.4,0.8,0.7,1.3,0.9l-3.9,5.8c0.4,0.4,0.8,0.8,1.3,1.1l-3.6,5.4c2.2,2.2,5.2,3.6,8.6,3.6s6.4-1.4,8.6-3.6L387.6,111.7z"/>
				</g>
			</g>
			<g class="st1">
				<g>
					<defs>
						<rect id="SVGID_9_" x="362.5" y="189.5" width="80" height="80"/>
					</defs>
					<clipPath id="SVGID_10_">
						<use xlink:href="#SVGID_9_"  style="overflow:visible;"/>
					</clipPath>
					<path class="st5" d="M427.6,271.7c0.5-0.3,0.9-0.7,1.3-1.1l-3.9-5.8c0.5-0.2,0.9-0.6,1.3-0.9l-3.7-5.6l-3.7,5.6
						c0.4,0.4,0.8,0.7,1.3,0.9l-3.9,5.8c0.4,0.4,0.8,0.8,1.3,1.1l-3.6,5.4c2.2,2.2,5.2,3.6,8.6,3.6s6.4-1.4,8.6-3.6L427.6,271.7z"/>
					<path class="st5" d="M387.6,271.7c0.5-0.3,0.9-0.7,1.3-1.1l-3.9-5.8c0.5-0.2,0.9-0.6,1.3-0.9l-3.7-5.6l-3.7,5.6
						c0.4,0.4,0.8,0.7,1.3,0.9l-3.9,5.8c0.4,0.4,0.8,0.8,1.3,1.1l-3.6,5.4c2.2,2.2,5.2,3.6,8.6,3.6s6.4-1.4,8.6-3.6L387.6,271.7z"/>
					<path class="st5" d="M447.6,231.7c0.5-0.3,0.9-0.7,1.3-1.1l-3.9-5.8c0.5-0.2,0.9-0.6,1.3-0.9l-3.7-5.6l-3.7,5.6
						c0.4,0.4,0.8,0.7,1.3,0.9l-3.9,5.8c0.4,0.4,0.8,0.8,1.3,1.1l-3.6,5.4c2.2,2.2,5.2,3.6,8.6,3.6s6.4-1.4,8.6-3.6L447.6,231.7z"/>
					<path class="st5" d="M407.6,231.7c0.5-0.3,0.9-0.7,1.3-1.1l-3.9-5.8c0.5-0.2,0.9-0.6,1.3-0.9l-3.7-5.6l-3.7,5.6
						c0.4,0.4,0.8,0.7,1.3,0.9l-3.9,5.8c0.4,0.4,0.8,0.8,1.3,1.1l-3.6,5.4c2.2,2.2,5.2,3.6,8.6,3.6s6.4-1.4,8.6-3.6L407.6,231.7z"/>
					<path class="st5" d="M367.6,231.7c0.5-0.3,0.9-0.7,1.3-1.1l-3.9-5.8c0.5-0.2,0.9-0.6,1.3-0.9l-3.7-5.6l-3.7,5.6
						c0.4,0.4,0.8,0.7,1.3,0.9l-3.9,5.8c0.4,0.4,0.8,0.8,1.3,1.1l-3.6,5.4c2.2,2.2,5.2,3.6,8.6,3.6s6.4-1.4,8.6-3.6L367.6,231.7z"/>
					<path class="st5" d="M427.6,191.7c0.5-0.3,0.9-0.7,1.3-1.1l-3.9-5.8c0.5-0.2,0.9-0.6,1.3-0.9l-3.7-5.6l-3.7,5.6
						c0.4,0.4,0.8,0.7,1.3,0.9l-3.9,5.8c0.4,0.4,0.8,0.8,1.3,1.1l-3.6,5.4c2.2,2.2,5.2,3.6,8.6,3.6s6.4-1.4,8.6-3.6L427.6,191.7z"/>
					<path class="st5" d="M387.6,191.7c0.5-0.3,0.9-0.7,1.3-1.1l-3.9-5.8c0.5-0.2,0.9-0.6,1.3-0.9l-3.7-5.6l-3.7,5.6
						c0.4,0.4,0.8,0.7,1.3,0.9l-3.9,5.8c0.4,0.4,0.8,0.8,1.3,1.1l-3.6,5.4c2.2,2.2,5.2,3.6,8.6,3.6s6.4-1.4,8.6-3.6L387.6,191.7z"/>
				</g>
			</g>
			<g class="st1">
				<g>
					<defs>
						<rect id="SVGID_11_" x="282.5" y="-50.5" width="80" height="80"/>
					</defs>
					<clipPath id="SVGID_12_">
						<use xlink:href="#SVGID_11_"  style="overflow:visible;"/>
					</clipPath>
					<path class="st6" d="M347.6,31.7c0.5-0.3,0.9-0.7,1.3-1.1l-3.9-5.8c0.5-0.2,0.9-0.6,1.3-0.9l-3.7-5.6l-3.7,5.6
						c0.4,0.4,0.8,0.7,1.3,0.9l-3.9,5.8c0.4,0.4,0.8,0.8,1.3,1.1l-3.6,5.4c2.2,2.2,5.2,3.6,8.6,3.6s6.4-1.4,8.6-3.6L347.6,31.7z"/>
					<path class="st6" d="M307.6,31.7c0.5-0.3,0.9-0.7,1.3-1.1l-3.9-5.8c0.5-0.2,0.9-0.6,1.3-0.9l-3.7-5.6l-3.7,5.6
						c0.4,0.4,0.8,0.7,1.3,0.9l-3.9,5.8c0.4,0.4,0.8,0.8,1.3,1.1l-3.6,5.4c2.2,2.2,5.2,3.6,8.6,3.6s6.4-1.4,8.6-3.6L307.6,31.7z"/>
					<path class="st6" d="M367.6-8.3c0.5-0.3,0.9-0.7,1.3-1.1l-3.9-5.8c0.5-0.2,0.9-0.6,1.3-0.9l-3.7-5.6l-3.7,5.6
						c0.4,0.4,0.8,0.7,1.3,0.9l-3.9,5.8c0.4,0.4,0.8,0.8,1.3,1.1l-3.6,5.4c2.2,2.2,5.2,3.6,8.6,3.6s6.4-1.4,8.6-3.6L367.6-8.3z"/>
					<path class="st6" d="M327.6-8.3c0.5-0.3,0.9-0.7,1.3-1.1l-3.9-5.8c0.5-0.2,0.9-0.6,1.3-0.9l-3.7-5.6l-3.7,5.6
						c0.4,0.4,0.8,0.7,1.3,0.9l-3.9,5.8c0.4,0.4,0.8,0.8,1.3,1.1l-3.6,5.4c2.2,2.2,5.2,3.6,8.6,3.6s6.4-1.4,8.6-3.6L327.6-8.3z"/>
					<path class="st6" d="M287.6-8.3c0.5-0.3,0.9-0.7,1.3-1.1l-3.9-5.8c0.5-0.2,0.9-0.6,1.3-0.9l-3.7-5.6l-3.7,5.6
						c0.4,0.4,0.8,0.7,1.3,0.9l-3.9,5.8c0.4,0.4,0.8,0.8,1.3,1.1l-3.6,5.4c2.2,2.2,5.2,3.6,8.6,3.6s6.4-1.4,8.6-3.6L287.6-8.3z"/>
					<path class="st6" d="M347.6-48.3c0.5-0.3,0.9-0.7,1.3-1.1l-3.9-5.8c0.5-0.2,0.9-0.6,1.3-0.9l-3.7-5.6l-3.7,5.6
						c0.4,0.4,0.8,0.7,1.3,0.9l-3.9,5.8c0.4,0.4,0.8,0.8,1.3,1.1l-3.6,5.4c2.2,2.2,5.2,3.6,8.6,3.6s6.4-1.4,8.6-3.6L347.6-48.3z"/>
					<path class="st6" d="M307.6-48.3c0.5-0.3,0.9-0.7,1.3-1.1l-3.9-5.8c0.5-0.2,0.9-0.6,1.3-0.9l-3.7-5.6l-3.7,5.6
						c0.4,0.4,0.8,0.7,1.3,0.9l-3.9,5.8c0.4,0.4,0.8,0.8,1.3,1.1l-3.6,5.4c2.2,2.2,5.2,3.6,8.6,3.6s6.4-1.4,8.6-3.6L307.6-48.3z"/>
				</g>
			</g>
			<g class="st1">
				<g>
					<defs>
						<rect id="SVGID_13_" x="282.5" y="29.5" width="80" height="80"/>
					</defs>
					<clipPath id="SVGID_14_">
						<use xlink:href="#SVGID_13_"  style="overflow:visible;"/>
					</clipPath>
					<path class="st7" d="M347.6,111.7c0.5-0.3,0.9-0.7,1.3-1.1l-3.9-5.8c0.5-0.2,0.9-0.6,1.3-0.9l-3.7-5.6l-3.7,5.6
						c0.4,0.4,0.8,0.7,1.3,0.9l-3.9,5.8c0.4,0.4,0.8,0.8,1.3,1.1l-3.6,5.4c2.2,2.2,5.2,3.6,8.6,3.6s6.4-1.4,8.6-3.6L347.6,111.7z"/>
					<path class="st7" d="M307.6,111.7c0.5-0.3,0.9-0.7,1.3-1.1l-3.9-5.8c0.5-0.2,0.9-0.6,1.3-0.9l-3.7-5.6l-3.7,5.6
						c0.4,0.4,0.8,0.7,1.3,0.9l-3.9,5.8c0.4,0.4,0.8,0.8,1.3,1.1l-3.6,5.4c2.2,2.2,5.2,3.6,8.6,3.6s6.4-1.4,8.6-3.6L307.6,111.7z"/>
					<path class="st7" d="M367.6,71.7c0.5-0.3,0.9-0.7,1.3-1.1l-3.9-5.8c0.5-0.2,0.9-0.6,1.3-0.9l-3.7-5.6l-3.7,5.6
						c0.4,0.4,0.8,0.7,1.3,0.9l-3.9,5.8c0.4,0.4,0.8,0.8,1.3,1.1l-3.6,5.4c2.2,2.2,5.2,3.6,8.6,3.6s6.4-1.4,8.6-3.6L367.6,71.7z"/>
					<path class="st7" d="M327.6,71.7c0.5-0.3,0.9-0.7,1.3-1.1l-3.9-5.8c0.5-0.2,0.9-0.6,1.3-0.9l-3.7-5.6l-3.7,5.6
						c0.4,0.4,0.8,0.7,1.3,0.9l-3.9,5.8c0.4,0.4,0.8,0.8,1.3,1.1l-3.6,5.4c2.2,2.2,5.2,3.6,8.6,3.6s6.4-1.4,8.6-3.6L327.6,71.7z"/>
					<path class="st7" d="M287.6,71.7c0.5-0.3,0.9-0.7,1.3-1.1l-3.9-5.8c0.5-0.2,0.9-0.6,1.3-0.9l-3.7-5.6l-3.7,5.6
						c0.4,0.4,0.8,0.7,1.3,0.9l-3.9,5.8c0.4,0.4,0.8,0.8,1.3,1.1l-3.6,5.4c2.2,2.2,5.2,3.6,8.6,3.6s6.4-1.4,8.6-3.6L287.6,71.7z"/>
					<path class="st7" d="M347.6,31.7c0.5-0.3,0.9-0.7,1.3-1.1l-3.9-5.8c0.5-0.2,0.9-0.6,1.3-0.9l-3.7-5.6l-3.7,5.6
						c0.4,0.4,0.8,0.7,1.3,0.9l-3.9,5.8c0.4,0.4,0.8,0.8,1.3,1.1l-3.6,5.4c2.2,2.2,5.2,3.6,8.6,3.6s6.4-1.4,8.6-3.6L347.6,31.7z"/>
					<path class="st7" d="M307.6,31.7c0.5-0.3,0.9-0.7,1.3-1.1l-3.9-5.8c0.5-0.2,0.9-0.6,1.3-0.9l-3.7-5.6l-3.7,5.6
						c0.4,0.4,0.8,0.7,1.3,0.9l-3.9,5.8c0.4,0.4,0.8,0.8,1.3,1.1l-3.6,5.4c2.2,2.2,5.2,3.6,8.6,3.6s6.4-1.4,8.6-3.6L307.6,31.7z"/>
				</g>
			</g>
			<g class="st1">
				<g>
					<defs>
						<rect id="SVGID_15_" x="282.5" y="109.5" width="80" height="80"/>
					</defs>
					<clipPath id="SVGID_16_">
						<use xlink:href="#SVGID_15_"  style="overflow:visible;"/>
					</clipPath>
					<path class="st8" d="M347.6,191.7c0.5-0.3,0.9-0.7,1.3-1.1l-3.9-5.8c0.5-0.2,0.9-0.6,1.3-0.9l-3.7-5.6l-3.7,5.6
						c0.4,0.4,0.8,0.7,1.3,0.9l-3.9,5.8c0.4,0.4,0.8,0.8,1.3,1.1l-3.6,5.4c2.2,2.2,5.2,3.6,8.6,3.6s6.4-1.4,8.6-3.6L347.6,191.7z"/>
					<path class="st8" d="M307.6,191.7c0.5-0.3,0.9-0.7,1.3-1.1l-3.9-5.8c0.5-0.2,0.9-0.6,1.3-0.9l-3.7-5.6l-3.7,5.6
						c0.4,0.4,0.8,0.7,1.3,0.9l-3.9,5.8c0.4,0.4,0.8,0.8,1.3,1.1l-3.6,5.4c2.2,2.2,5.2,3.6,8.6,3.6s6.4-1.4,8.6-3.6L307.6,191.7z"/>
					<path class="st8" d="M367.6,151.7c0.5-0.3,0.9-0.7,1.3-1.1l-3.9-5.8c0.5-0.2,0.9-0.6,1.3-0.9l-3.7-5.6l-3.7,5.6
						c0.4,0.4,0.8,0.7,1.3,0.9l-3.9,5.8c0.4,0.4,0.8,0.8,1.3,1.1l-3.6,5.4c2.2,2.2,5.2,3.6,8.6,3.6s6.4-1.4,8.6-3.6L367.6,151.7z"/>
					<path class="st8" d="M327.6,151.7c0.5-0.3,0.9-0.7,1.3-1.1l-3.9-5.8c0.5-0.2,0.9-0.6,1.3-0.9l-3.7-5.6l-3.7,5.6
						c0.4,0.4,0.8,0.7,1.3,0.9l-3.9,5.8c0.4,0.4,0.8,0.8,1.3,1.1l-3.6,5.4c2.2,2.2,5.2,3.6,8.6,3.6s6.4-1.4,8.6-3.6L327.6,151.7z"/>
					<path class="st8" d="M287.6,151.7c0.5-0.3,0.9-0.7,1.3-1.1l-3.9-5.8c0.5-0.2,0.9-0.6,1.3-0.9l-3.7-5.6l-3.7,5.6
						c0.4,0.4,0.8,0.7,1.3,0.9l-3.9,5.8c0.4,0.4,0.8,0.8,1.3,1.1l-3.6,5.4c2.2,2.2,5.2,3.6,8.6,3.6s6.4-1.4,8.6-3.6L287.6,151.7z"/>
					<path class="st8" d="M347.6,111.7c0.5-0.3,0.9-0.7,1.3-1.1l-3.9-5.8c0.5-0.2,0.9-0.6,1.3-0.9l-3.7-5.6l-3.7,5.6
						c0.4,0.4,0.8,0.7,1.3,0.9l-3.9,5.8c0.4,0.4,0.8,0.8,1.3,1.1l-3.6,5.4c2.2,2.2,5.2,3.6,8.6,3.6s6.4-1.4,8.6-3.6L347.6,111.7z"/>
					<path class="st8" d="M307.6,111.7c0.5-0.3,0.9-0.7,1.3-1.1l-3.9-5.8c0.5-0.2,0.9-0.6,1.3-0.9l-3.7-5.6l-3.7,5.6
						c0.4,0.4,0.8,0.7,1.3,0.9l-3.9,5.8c0.4,0.4,0.8,0.8,1.3,1.1l-3.6,5.4c2.2,2.2,5.2,3.6,8.6,3.6s6.4-1.4,8.6-3.6L307.6,111.7z"/>
				</g>
			</g>
			<g class="st1">
				<g>
					<defs>
						<rect id="SVGID_17_" x="282.5" y="189.5" width="80" height="80"/>
					</defs>
					<clipPath id="SVGID_18_">
						<use xlink:href="#SVGID_17_"  style="overflow:visible;"/>
					</clipPath>
					<path class="st9" d="M347.6,271.7c0.5-0.3,0.9-0.7,1.3-1.1l-3.9-5.8c0.5-0.2,0.9-0.6,1.3-0.9l-3.7-5.6l-3.7,5.6
						c0.4,0.4,0.8,0.7,1.3,0.9l-3.9,5.8c0.4,0.4,0.8,0.8,1.3,1.1l-3.6,5.4c2.2,2.2,5.2,3.6,8.6,3.6s6.4-1.4,8.6-3.6L347.6,271.7z"/>
					<path class="st9" d="M307.6,271.7c0.5-0.3,0.9-0.7,1.3-1.1l-3.9-5.8c0.5-0.2,0.9-0.6,1.3-0.9l-3.7-5.6l-3.7,5.6
						c0.4,0.4,0.8,0.7,1.3,0.9l-3.9,5.8c0.4,0.4,0.8,0.8,1.3,1.1l-3.6,5.4c2.2,2.2,5.2,3.6,8.6,3.6s6.4-1.4,8.6-3.6L307.6,271.7z"/>
					<path class="st9" d="M367.6,231.7c0.5-0.3,0.9-0.7,1.3-1.1l-3.9-5.8c0.5-0.2,0.9-0.6,1.3-0.9l-3.7-5.6l-3.7,5.6
						c0.4,0.4,0.8,0.7,1.3,0.9l-3.9,5.8c0.4,0.4,0.8,0.8,1.3,1.1l-3.6,5.4c2.2,2.2,5.2,3.6,8.6,3.6s6.4-1.4,8.6-3.6L367.6,231.7z"/>
					<path class="st9" d="M327.6,231.7c0.5-0.3,0.9-0.7,1.3-1.1l-3.9-5.8c0.5-0.2,0.9-0.6,1.3-0.9l-3.7-5.6l-3.7,5.6
						c0.4,0.4,0.8,0.7,1.3,0.9l-3.9,5.8c0.4,0.4,0.8,0.8,1.3,1.1l-3.6,5.4c2.2,2.2,5.2,3.6,8.6,3.6s6.4-1.4,8.6-3.6L327.6,231.7z"/>
					<path class="st9" d="M287.6,231.7c0.5-0.3,0.9-0.7,1.3-1.1l-3.9-5.8c0.5-0.2,0.9-0.6,1.3-0.9l-3.7-5.6l-3.7,5.6
						c0.4,0.4,0.8,0.7,1.3,0.9l-3.9,5.8c0.4,0.4,0.8,0.8,1.3,1.1l-3.6,5.4c2.2,2.2,5.2,3.6,8.6,3.6s6.4-1.4,8.6-3.6L287.6,231.7z"/>
					<path class="st9" d="M347.6,191.7c0.5-0.3,0.9-0.7,1.3-1.1l-3.9-5.8c0.5-0.2,0.9-0.6,1.3-0.9l-3.7-5.6l-3.7,5.6
						c0.4,0.4,0.8,0.7,1.3,0.9l-3.9,5.8c0.4,0.4,0.8,0.8,1.3,1.1l-3.6,5.4c2.2,2.2,5.2,3.6,8.6,3.6s6.4-1.4,8.6-3.6L347.6,191.7z"/>
					<path class="st9" d="M307.6,191.7c0.5-0.3,0.9-0.7,1.3-1.1l-3.9-5.8c0.5-0.2,0.9-0.6,1.3-0.9l-3.7-5.6l-3.7,5.6
						c0.4,0.4,0.8,0.7,1.3,0.9l-3.9,5.8c0.4,0.4,0.8,0.8,1.3,1.1l-3.6,5.4c2.2,2.2,5.2,3.6,8.6,3.6s6.4-1.4,8.6-3.6L307.6,191.7z"/>
				</g>
			</g>
			<g class="st1">
				<g>
					<defs>
						<rect id="SVGID_19_" x="202.5" y="-50.5" width="80" height="80"/>
					</defs>
					<clipPath id="SVGID_20_">
						<use xlink:href="#SVGID_19_"  style="overflow:visible;"/>
					</clipPath>
					<path class="st10" d="M267.6,31.7c0.5-0.3,0.9-0.7,1.3-1.1l-3.9-5.8c0.5-0.2,0.9-0.6,1.3-0.9l-3.7-5.6l-3.7,5.6
						c0.4,0.4,0.8,0.7,1.3,0.9l-3.9,5.8c0.4,0.4,0.8,0.8,1.3,1.1l-3.6,5.4c2.2,2.2,5.2,3.6,8.6,3.6s6.4-1.4,8.6-3.6L267.6,31.7z"/>
					<path class="st10" d="M227.6,31.7c0.5-0.3,0.9-0.7,1.3-1.1l-3.9-5.8c0.5-0.2,0.9-0.6,1.3-0.9l-3.7-5.6l-3.7,5.6
						c0.4,0.4,0.8,0.7,1.3,0.9l-3.9,5.8c0.4,0.4,0.8,0.8,1.3,1.1l-3.6,5.4c2.2,2.2,5.2,3.6,8.6,3.6s6.4-1.4,8.6-3.6L227.6,31.7z"/>
					<path class="st10" d="M287.6-8.3c0.5-0.3,0.9-0.7,1.3-1.1l-3.9-5.8c0.5-0.2,0.9-0.6,1.3-0.9l-3.7-5.6l-3.7,5.6
						c0.4,0.4,0.8,0.7,1.3,0.9l-3.9,5.8c0.4,0.4,0.8,0.8,1.3,1.1l-3.6,5.4c2.2,2.2,5.2,3.6,8.6,3.6s6.4-1.4,8.6-3.6L287.6-8.3z"/>
					<path class="st10" d="M247.6-8.3c0.5-0.3,0.9-0.7,1.3-1.1l-3.9-5.8c0.5-0.2,0.9-0.6,1.3-0.9l-3.7-5.6l-3.7,5.6
						c0.4,0.4,0.8,0.7,1.3,0.9l-3.9,5.8c0.4,0.4,0.8,0.8,1.3,1.1l-3.6,5.4c2.2,2.2,5.2,3.6,8.6,3.6s6.4-1.4,8.6-3.6L247.6-8.3z"/>
					<path class="st10" d="M207.6-8.3c0.5-0.3,0.9-0.7,1.3-1.1l-3.9-5.8c0.5-0.2,0.9-0.6,1.3-0.9l-3.7-5.6l-3.7,5.6
						c0.4,0.4,0.8,0.7,1.3,0.9l-3.9,5.8c0.4,0.4,0.8,0.8,1.3,1.1l-3.6,5.4c2.2,2.2,5.2,3.6,8.6,3.6s6.4-1.4,8.6-3.6L207.6-8.3z"/>
					<path class="st10" d="M267.6-48.3c0.5-0.3,0.9-0.7,1.3-1.1l-3.9-5.8c0.5-0.2,0.9-0.6,1.3-0.9l-3.7-5.6l-3.7,5.6
						c0.4,0.4,0.8,0.7,1.3,0.9l-3.9,5.8c0.4,0.4,0.8,0.8,1.3,1.1l-3.6,5.4c2.2,2.2,5.2,3.6,8.6,3.6s6.4-1.4,8.6-3.6L267.6-48.3z"/>
					<path class="st10" d="M227.6-48.3c0.5-0.3,0.9-0.7,1.3-1.1l-3.9-5.8c0.5-0.2,0.9-0.6,1.3-0.9l-3.7-5.6l-3.7,5.6
						c0.4,0.4,0.8,0.7,1.3,0.9l-3.9,5.8c0.4,0.4,0.8,0.8,1.3,1.1l-3.6,5.4c2.2,2.2,5.2,3.6,8.6,3.6s6.4-1.4,8.6-3.6L227.6-48.3z"/>
				</g>
			</g>
			<g class="st1">
				<g>
					<defs>
						<rect id="SVGID_21_" x="202.5" y="29.5" width="80" height="80"/>
					</defs>
					<clipPath id="SVGID_22_">
						<use xlink:href="#SVGID_21_"  style="overflow:visible;"/>
					</clipPath>
					<path class="st11" d="M267.6,111.7c0.5-0.3,0.9-0.7,1.3-1.1l-3.9-5.8c0.5-0.2,0.9-0.6,1.3-0.9l-3.7-5.6l-3.7,5.6
						c0.4,0.4,0.8,0.7,1.3,0.9l-3.9,5.8c0.4,0.4,0.8,0.8,1.3,1.1l-3.6,5.4c2.2,2.2,5.2,3.6,8.6,3.6s6.4-1.4,8.6-3.6L267.6,111.7z"/>
					<path class="st11" d="M227.6,111.7c0.5-0.3,0.9-0.7,1.3-1.1l-3.9-5.8c0.5-0.2,0.9-0.6,1.3-0.9l-3.7-5.6l-3.7,5.6
						c0.4,0.4,0.8,0.7,1.3,0.9l-3.9,5.8c0.4,0.4,0.8,0.8,1.3,1.1l-3.6,5.4c2.2,2.2,5.2,3.6,8.6,3.6s6.4-1.4,8.6-3.6L227.6,111.7z"/>
					<path class="st11" d="M287.6,71.7c0.5-0.3,0.9-0.7,1.3-1.1l-3.9-5.8c0.5-0.2,0.9-0.6,1.3-0.9l-3.7-5.6l-3.7,5.6
						c0.4,0.4,0.8,0.7,1.3,0.9l-3.9,5.8c0.4,0.4,0.8,0.8,1.3,1.1l-3.6,5.4c2.2,2.2,5.2,3.6,8.6,3.6s6.4-1.4,8.6-3.6L287.6,71.7z"/>
					<path class="st11" d="M247.6,71.7c0.5-0.3,0.9-0.7,1.3-1.1l-3.9-5.8c0.5-0.2,0.9-0.6,1.3-0.9l-3.7-5.6l-3.7,5.6
						c0.4,0.4,0.8,0.7,1.3,0.9l-3.9,5.8c0.4,0.4,0.8,0.8,1.3,1.1l-3.6,5.4c2.2,2.2,5.2,3.6,8.6,3.6s6.4-1.4,8.6-3.6L247.6,71.7z"/>
					<path class="st11" d="M207.6,71.7c0.5-0.3,0.9-0.7,1.3-1.1l-3.9-5.8c0.5-0.2,0.9-0.6,1.3-0.9l-3.7-5.6l-3.7,5.6
						c0.4,0.4,0.8,0.7,1.3,0.9l-3.9,5.8c0.4,0.4,0.8,0.8,1.3,1.1l-3.6,5.4c2.2,2.2,5.2,3.6,8.6,3.6s6.4-1.4,8.6-3.6L207.6,71.7z"/>
					<path class="st11" d="M267.6,31.7c0.5-0.3,0.9-0.7,1.3-1.1l-3.9-5.8c0.5-0.2,0.9-0.6,1.3-0.9l-3.7-5.6l-3.7,5.6
						c0.4,0.4,0.8,0.7,1.3,0.9l-3.9,5.8c0.4,0.4,0.8,0.8,1.3,1.1l-3.6,5.4c2.2,2.2,5.2,3.6,8.6,3.6s6.4-1.4,8.6-3.6L267.6,31.7z"/>
					<path class="st11" d="M227.6,31.7c0.5-0.3,0.9-0.7,1.3-1.1l-3.9-5.8c0.5-0.2,0.9-0.6,1.3-0.9l-3.7-5.6l-3.7,5.6
						c0.4,0.4,0.8,0.7,1.3,0.9l-3.9,5.8c0.4,0.4,0.8,0.8,1.3,1.1l-3.6,5.4c2.2,2.2,5.2,3.6,8.6,3.6s6.4-1.4,8.6-3.6L227.6,31.7z"/>
				</g>
			</g>
			<g class="st1">
				<g>
					<defs>
						<rect id="SVGID_23_" x="202.5" y="109.5" width="80" height="80"/>
					</defs>
					<clipPath id="SVGID_24_">
						<use xlink:href="#SVGID_23_"  style="overflow:visible;"/>
					</clipPath>
					<path class="st12" d="M267.6,191.7c0.5-0.3,0.9-0.7,1.3-1.1l-3.9-5.8c0.5-0.2,0.9-0.6,1.3-0.9l-3.7-5.6l-3.7,5.6
						c0.4,0.4,0.8,0.7,1.3,0.9l-3.9,5.8c0.4,0.4,0.8,0.8,1.3,1.1l-3.6,5.4c2.2,2.2,5.2,3.6,8.6,3.6s6.4-1.4,8.6-3.6L267.6,191.7z"/>
					<path class="st12" d="M227.6,191.7c0.5-0.3,0.9-0.7,1.3-1.1l-3.9-5.8c0.5-0.2,0.9-0.6,1.3-0.9l-3.7-5.6l-3.7,5.6
						c0.4,0.4,0.8,0.7,1.3,0.9l-3.9,5.8c0.4,0.4,0.8,0.8,1.3,1.1l-3.6,5.4c2.2,2.2,5.2,3.6,8.6,3.6s6.4-1.4,8.6-3.6L227.6,191.7z"/>
					<path class="st12" d="M287.6,151.7c0.5-0.3,0.9-0.7,1.3-1.1l-3.9-5.8c0.5-0.2,0.9-0.6,1.3-0.9l-3.7-5.6l-3.7,5.6
						c0.4,0.4,0.8,0.7,1.3,0.9l-3.9,5.8c0.4,0.4,0.8,0.8,1.3,1.1l-3.6,5.4c2.2,2.2,5.2,3.6,8.6,3.6s6.4-1.4,8.6-3.6L287.6,151.7z"/>
					<path class="st12" d="M247.6,151.7c0.5-0.3,0.9-0.7,1.3-1.1l-3.9-5.8c0.5-0.2,0.9-0.6,1.3-0.9l-3.7-5.6l-3.7,5.6
						c0.4,0.4,0.8,0.7,1.3,0.9l-3.9,5.8c0.4,0.4,0.8,0.8,1.3,1.1l-3.6,5.4c2.2,2.2,5.2,3.6,8.6,3.6s6.4-1.4,8.6-3.6L247.6,151.7z"/>
					<path class="st12" d="M207.6,151.7c0.5-0.3,0.9-0.7,1.3-1.1l-3.9-5.8c0.5-0.2,0.9-0.6,1.3-0.9l-3.7-5.6l-3.7,5.6
						c0.4,0.4,0.8,0.7,1.3,0.9l-3.9,5.8c0.4,0.4,0.8,0.8,1.3,1.1l-3.6,5.4c2.2,2.2,5.2,3.6,8.6,3.6s6.4-1.4,8.6-3.6L207.6,151.7z"/>
					<path class="st12" d="M267.6,111.7c0.5-0.3,0.9-0.7,1.3-1.1l-3.9-5.8c0.5-0.2,0.9-0.6,1.3-0.9l-3.7-5.6l-3.7,5.6
						c0.4,0.4,0.8,0.7,1.3,0.9l-3.9,5.8c0.4,0.4,0.8,0.8,1.3,1.1l-3.6,5.4c2.2,2.2,5.2,3.6,8.6,3.6s6.4-1.4,8.6-3.6L267.6,111.7z"/>
					<path class="st12" d="M227.6,111.7c0.5-0.3,0.9-0.7,1.3-1.1l-3.9-5.8c0.5-0.2,0.9-0.6,1.3-0.9l-3.7-5.6l-3.7,5.6
						c0.4,0.4,0.8,0.7,1.3,0.9l-3.9,5.8c0.4,0.4,0.8,0.8,1.3,1.1l-3.6,5.4c2.2,2.2,5.2,3.6,8.6,3.6s6.4-1.4,8.6-3.6L227.6,111.7z"/>
				</g>
			</g>
			<g class="st1">
				<g>
					<defs>
						<rect id="SVGID_25_" x="202.5" y="189.5" width="80" height="80"/>
					</defs>
					<clipPath id="SVGID_26_">
						<use xlink:href="#SVGID_25_"  style="overflow:visible;"/>
					</clipPath>
					<path class="st13" d="M267.6,271.7c0.5-0.3,0.9-0.7,1.3-1.1l-3.9-5.8c0.5-0.2,0.9-0.6,1.3-0.9l-3.7-5.6l-3.7,5.6
						c0.4,0.4,0.8,0.7,1.3,0.9l-3.9,5.8c0.4,0.4,0.8,0.8,1.3,1.1l-3.6,5.4c2.2,2.2,5.2,3.6,8.6,3.6s6.4-1.4,8.6-3.6L267.6,271.7z"/>
					<path class="st13" d="M227.6,271.7c0.5-0.3,0.9-0.7,1.3-1.1l-3.9-5.8c0.5-0.2,0.9-0.6,1.3-0.9l-3.7-5.6l-3.7,5.6
						c0.4,0.4,0.8,0.7,1.3,0.9l-3.9,5.8c0.4,0.4,0.8,0.8,1.3,1.1l-3.6,5.4c2.2,2.2,5.2,3.6,8.6,3.6s6.4-1.4,8.6-3.6L227.6,271.7z"/>
					<path class="st13" d="M287.6,231.7c0.5-0.3,0.9-0.7,1.3-1.1l-3.9-5.8c0.5-0.2,0.9-0.6,1.3-0.9l-3.7-5.6l-3.7,5.6
						c0.4,0.4,0.8,0.7,1.3,0.9l-3.9,5.8c0.4,0.4,0.8,0.8,1.3,1.1l-3.6,5.4c2.2,2.2,5.2,3.6,8.6,3.6s6.4-1.4,8.6-3.6L287.6,231.7z"/>
					<path class="st13" d="M247.6,231.7c0.5-0.3,0.9-0.7,1.3-1.1l-3.9-5.8c0.5-0.2,0.9-0.6,1.3-0.9l-3.7-5.6l-3.7,5.6
						c0.4,0.4,0.8,0.7,1.3,0.9l-3.9,5.8c0.4,0.4,0.8,0.8,1.3,1.1l-3.6,5.4c2.2,2.2,5.2,3.6,8.6,3.6s6.4-1.4,8.6-3.6L247.6,231.7z"/>
					<path class="st13" d="M207.6,231.7c0.5-0.3,0.9-0.7,1.3-1.1l-3.9-5.8c0.5-0.2,0.9-0.6,1.3-0.9l-3.7-5.6l-3.7,5.6
						c0.4,0.4,0.8,0.7,1.3,0.9l-3.9,5.8c0.4,0.4,0.8,0.8,1.3,1.1l-3.6,5.4c2.2,2.2,5.2,3.6,8.6,3.6s6.4-1.4,8.6-3.6L207.6,231.7z"/>
					<path class="st13" d="M267.6,191.7c0.5-0.3,0.9-0.7,1.3-1.1l-3.9-5.8c0.5-0.2,0.9-0.6,1.3-0.9l-3.7-5.6l-3.7,5.6
						c0.4,0.4,0.8,0.7,1.3,0.9l-3.9,5.8c0.4,0.4,0.8,0.8,1.3,1.1l-3.6,5.4c2.2,2.2,5.2,3.6,8.6,3.6s6.4-1.4,8.6-3.6L267.6,191.7z"/>
					<path class="st13" d="M227.6,191.7c0.5-0.3,0.9-0.7,1.3-1.1l-3.9-5.8c0.5-0.2,0.9-0.6,1.3-0.9l-3.7-5.6l-3.7,5.6
						c0.4,0.4,0.8,0.7,1.3,0.9l-3.9,5.8c0.4,0.4,0.8,0.8,1.3,1.1l-3.6,5.4c2.2,2.2,5.2,3.6,8.6,3.6s6.4-1.4,8.6-3.6L227.6,191.7z"/>
				</g>
			</g>
			<g class="st1">
				<g>
					<defs>
						<rect id="SVGID_27_" x="122.5" y="-50.5" width="80" height="80"/>
					</defs>
					<clipPath id="SVGID_28_">
						<use xlink:href="#SVGID_27_"  style="overflow:visible;"/>
					</clipPath>
					<path class="st14" d="M187.6,31.7c0.5-0.3,0.9-0.7,1.3-1.1l-3.9-5.8c0.5-0.2,0.9-0.6,1.3-0.9l-3.7-5.6l-3.7,5.6
						c0.4,0.4,0.8,0.7,1.3,0.9l-3.9,5.8c0.4,0.4,0.8,0.8,1.3,1.1l-3.6,5.4c2.2,2.2,5.2,3.6,8.6,3.6s6.4-1.4,8.6-3.6L187.6,31.7z"/>
					<path class="st14" d="M147.6,31.7c0.5-0.3,0.9-0.7,1.3-1.1l-3.9-5.8c0.5-0.2,0.9-0.6,1.3-0.9l-3.7-5.6l-3.7,5.6
						c0.4,0.4,0.8,0.7,1.3,0.9l-3.9,5.8c0.4,0.4,0.8,0.8,1.3,1.1l-3.6,5.4c2.2,2.2,5.2,3.6,8.6,3.6s6.4-1.4,8.6-3.6L147.6,31.7z"/>
					<path class="st14" d="M207.6-8.3c0.5-0.3,0.9-0.7,1.3-1.1l-3.9-5.8c0.5-0.2,0.9-0.6,1.3-0.9l-3.7-5.6l-3.7,5.6
						c0.4,0.4,0.8,0.7,1.3,0.9l-3.9,5.8c0.4,0.4,0.8,0.8,1.3,1.1l-3.6,5.4c2.2,2.2,5.2,3.6,8.6,3.6s6.4-1.4,8.6-3.6L207.6-8.3z"/>
					<path class="st14" d="M167.6-8.3c0.5-0.3,0.9-0.7,1.3-1.1l-3.9-5.8c0.5-0.2,0.9-0.6,1.3-0.9l-3.7-5.6l-3.7,5.6
						c0.4,0.4,0.8,0.7,1.3,0.9l-3.9,5.8c0.4,0.4,0.8,0.8,1.3,1.1l-3.6,5.4c2.2,2.2,5.2,3.6,8.6,3.6s6.4-1.4,8.6-3.6L167.6-8.3z"/>
					<path class="st14" d="M127.6-8.3c0.5-0.3,0.9-0.7,1.3-1.1l-3.9-5.8c0.5-0.2,0.9-0.6,1.3-0.9l-3.7-5.6l-3.7,5.6
						c0.4,0.4,0.8,0.7,1.3,0.9l-3.9,5.8c0.4,0.4,0.8,0.8,1.3,1.1l-3.6,5.4c2.2,2.2,5.2,3.6,8.6,3.6s6.4-1.4,8.6-3.6L127.6-8.3z"/>
					<path class="st14" d="M187.6-48.3c0.5-0.3,0.9-0.7,1.3-1.1l-3.9-5.8c0.5-0.2,0.9-0.6,1.3-0.9l-3.7-5.6l-3.7,5.6
						c0.4,0.4,0.8,0.7,1.3,0.9l-3.9,5.8c0.4,0.4,0.8,0.8,1.3,1.1l-3.6,5.4c2.2,2.2,5.2,3.6,8.6,3.6s6.4-1.4,8.6-3.6L187.6-48.3z"/>
					<path class="st14" d="M147.6-48.3c0.5-0.3,0.9-0.7,1.3-1.1l-3.9-5.8c0.5-0.2,0.9-0.6,1.3-0.9l-3.7-5.6l-3.7,5.6
						c0.4,0.4,0.8,0.7,1.3,0.9l-3.9,5.8c0.4,0.4,0.8,0.8,1.3,1.1l-3.6,5.4c2.2,2.2,5.2,3.6,8.6,3.6s6.4-1.4,8.6-3.6L147.6-48.3z"/>
				</g>
			</g>
			<g class="st1">
				<g>
					<defs>
						<rect id="SVGID_29_" x="122.5" y="29.5" width="80" height="80"/>
					</defs>
					<clipPath id="SVGID_30_">
						<use xlink:href="#SVGID_29_"  style="overflow:visible;"/>
					</clipPath>
					<path class="st15" d="M187.6,111.7c0.5-0.3,0.9-0.7,1.3-1.1l-3.9-5.8c0.5-0.2,0.9-0.6,1.3-0.9l-3.7-5.6l-3.7,5.6
						c0.4,0.4,0.8,0.7,1.3,0.9l-3.9,5.8c0.4,0.4,0.8,0.8,1.3,1.1l-3.6,5.4c2.2,2.2,5.2,3.6,8.6,3.6s6.4-1.4,8.6-3.6L187.6,111.7z"/>
					<path class="st15" d="M147.6,111.7c0.5-0.3,0.9-0.7,1.3-1.1l-3.9-5.8c0.5-0.2,0.9-0.6,1.3-0.9l-3.7-5.6l-3.7,5.6
						c0.4,0.4,0.8,0.7,1.3,0.9l-3.9,5.8c0.4,0.4,0.8,0.8,1.3,1.1l-3.6,5.4c2.2,2.2,5.2,3.6,8.6,3.6s6.4-1.4,8.6-3.6L147.6,111.7z"/>
					<path class="st15" d="M207.6,71.7c0.5-0.3,0.9-0.7,1.3-1.1l-3.9-5.8c0.5-0.2,0.9-0.6,1.3-0.9l-3.7-5.6l-3.7,5.6
						c0.4,0.4,0.8,0.7,1.3,0.9l-3.9,5.8c0.4,0.4,0.8,0.8,1.3,1.1l-3.6,5.4c2.2,2.2,5.2,3.6,8.6,3.6s6.4-1.4,8.6-3.6L207.6,71.7z"/>
					<path class="st15" d="M167.6,71.7c0.5-0.3,0.9-0.7,1.3-1.1l-3.9-5.8c0.5-0.2,0.9-0.6,1.3-0.9l-3.7-5.6l-3.7,5.6
						c0.4,0.4,0.8,0.7,1.3,0.9l-3.9,5.8c0.4,0.4,0.8,0.8,1.3,1.1l-3.6,5.4c2.2,2.2,5.2,3.6,8.6,3.6s6.4-1.4,8.6-3.6L167.6,71.7z"/>
					<path class="st15" d="M127.6,71.7c0.5-0.3,0.9-0.7,1.3-1.1l-3.9-5.8c0.5-0.2,0.9-0.6,1.3-0.9l-3.7-5.6l-3.7,5.6
						c0.4,0.4,0.8,0.7,1.3,0.9l-3.9,5.8c0.4,0.4,0.8,0.8,1.3,1.1l-3.6,5.4c2.2,2.2,5.2,3.6,8.6,3.6s6.4-1.4,8.6-3.6L127.6,71.7z"/>
					<path class="st15" d="M187.6,31.7c0.5-0.3,0.9-0.7,1.3-1.1l-3.9-5.8c0.5-0.2,0.9-0.6,1.3-0.9l-3.7-5.6l-3.7,5.6
						c0.4,0.4,0.8,0.7,1.3,0.9l-3.9,5.8c0.4,0.4,0.8,0.8,1.3,1.1l-3.6,5.4c2.2,2.2,5.2,3.6,8.6,3.6s6.4-1.4,8.6-3.6L187.6,31.7z"/>
					<path class="st15" d="M147.6,31.7c0.5-0.3,0.9-0.7,1.3-1.1l-3.9-5.8c0.5-0.2,0.9-0.6,1.3-0.9l-3.7-5.6l-3.7,5.6
						c0.4,0.4,0.8,0.7,1.3,0.9l-3.9,5.8c0.4,0.4,0.8,0.8,1.3,1.1l-3.6,5.4c2.2,2.2,5.2,3.6,8.6,3.6s6.4-1.4,8.6-3.6L147.6,31.7z"/>
				</g>
			</g>
			<g class="st1">
				<g>
					<defs>
						<rect id="SVGID_31_" x="122.5" y="109.5" width="80" height="80"/>
					</defs>
					<clipPath id="SVGID_32_">
						<use xlink:href="#SVGID_31_"  style="overflow:visible;"/>
					</clipPath>
					<path class="st16" d="M187.6,191.7c0.5-0.3,0.9-0.7,1.3-1.1l-3.9-5.8c0.5-0.2,0.9-0.6,1.3-0.9l-3.7-5.6l-3.7,5.6
						c0.4,0.4,0.8,0.7,1.3,0.9l-3.9,5.8c0.4,0.4,0.8,0.8,1.3,1.1l-3.6,5.4c2.2,2.2,5.2,3.6,8.6,3.6s6.4-1.4,8.6-3.6L187.6,191.7z"/>
					<path class="st16" d="M147.6,191.7c0.5-0.3,0.9-0.7,1.3-1.1l-3.9-5.8c0.5-0.2,0.9-0.6,1.3-0.9l-3.7-5.6l-3.7,5.6
						c0.4,0.4,0.8,0.7,1.3,0.9l-3.9,5.8c0.4,0.4,0.8,0.8,1.3,1.1l-3.6,5.4c2.2,2.2,5.2,3.6,8.6,3.6s6.4-1.4,8.6-3.6L147.6,191.7z"/>
					<path class="st16" d="M207.6,151.7c0.5-0.3,0.9-0.7,1.3-1.1l-3.9-5.8c0.5-0.2,0.9-0.6,1.3-0.9l-3.7-5.6l-3.7,5.6
						c0.4,0.4,0.8,0.7,1.3,0.9l-3.9,5.8c0.4,0.4,0.8,0.8,1.3,1.1l-3.6,5.4c2.2,2.2,5.2,3.6,8.6,3.6s6.4-1.4,8.6-3.6L207.6,151.7z"/>
					<path class="st16" d="M167.6,151.7c0.5-0.3,0.9-0.7,1.3-1.1l-3.9-5.8c0.5-0.2,0.9-0.6,1.3-0.9l-3.7-5.6l-3.7,5.6
						c0.4,0.4,0.8,0.7,1.3,0.9l-3.9,5.8c0.4,0.4,0.8,0.8,1.3,1.1l-3.6,5.4c2.2,2.2,5.2,3.6,8.6,3.6s6.4-1.4,8.6-3.6L167.6,151.7z"/>
					<path class="st16" d="M127.6,151.7c0.5-0.3,0.9-0.7,1.3-1.1l-3.9-5.8c0.5-0.2,0.9-0.6,1.3-0.9l-3.7-5.6l-3.7,5.6
						c0.4,0.4,0.8,0.7,1.3,0.9l-3.9,5.8c0.4,0.4,0.8,0.8,1.3,1.1l-3.6,5.4c2.2,2.2,5.2,3.6,8.6,3.6s6.4-1.4,8.6-3.6L127.6,151.7z"/>
					<path class="st16" d="M187.6,111.7c0.5-0.3,0.9-0.7,1.3-1.1l-3.9-5.8c0.5-0.2,0.9-0.6,1.3-0.9l-3.7-5.6l-3.7,5.6
						c0.4,0.4,0.8,0.7,1.3,0.9l-3.9,5.8c0.4,0.4,0.8,0.8,1.3,1.1l-3.6,5.4c2.2,2.2,5.2,3.6,8.6,3.6s6.4-1.4,8.6-3.6L187.6,111.7z"/>
					<path class="st16" d="M147.6,111.7c0.5-0.3,0.9-0.7,1.3-1.1l-3.9-5.8c0.5-0.2,0.9-0.6,1.3-0.9l-3.7-5.6l-3.7,5.6
						c0.4,0.4,0.8,0.7,1.3,0.9l-3.9,5.8c0.4,0.4,0.8,0.8,1.3,1.1l-3.6,5.4c2.2,2.2,5.2,3.6,8.6,3.6s6.4-1.4,8.6-3.6L147.6,111.7z"/>
				</g>
			</g>
			<g class="st1">
				<g>
					<defs>
						<rect id="SVGID_33_" x="122.5" y="189.5" width="80" height="80"/>
					</defs>
					<clipPath id="SVGID_34_">
						<use xlink:href="#SVGID_33_"  style="overflow:visible;"/>
					</clipPath>
					<path class="st17" d="M187.6,271.7c0.5-0.3,0.9-0.7,1.3-1.1l-3.9-5.8c0.5-0.2,0.9-0.6,1.3-0.9l-3.7-5.6l-3.7,5.6
						c0.4,0.4,0.8,0.7,1.3,0.9l-3.9,5.8c0.4,0.4,0.8,0.8,1.3,1.1l-3.6,5.4c2.2,2.2,5.2,3.6,8.6,3.6s6.4-1.4,8.6-3.6L187.6,271.7z"/>
					<path class="st17" d="M147.6,271.7c0.5-0.3,0.9-0.7,1.3-1.1l-3.9-5.8c0.5-0.2,0.9-0.6,1.3-0.9l-3.7-5.6l-3.7,5.6
						c0.4,0.4,0.8,0.7,1.3,0.9l-3.9,5.8c0.4,0.4,0.8,0.8,1.3,1.1l-3.6,5.4c2.2,2.2,5.2,3.6,8.6,3.6s6.4-1.4,8.6-3.6L147.6,271.7z"/>
					<path class="st17" d="M207.6,231.7c0.5-0.3,0.9-0.7,1.3-1.1l-3.9-5.8c0.5-0.2,0.9-0.6,1.3-0.9l-3.7-5.6l-3.7,5.6
						c0.4,0.4,0.8,0.7,1.3,0.9l-3.9,5.8c0.4,0.4,0.8,0.8,1.3,1.1l-3.6,5.4c2.2,2.2,5.2,3.6,8.6,3.6s6.4-1.4,8.6-3.6L207.6,231.7z"/>
					<path class="st17" d="M167.6,231.7c0.5-0.3,0.9-0.7,1.3-1.1l-3.9-5.8c0.5-0.2,0.9-0.6,1.3-0.9l-3.7-5.6l-3.7,5.6
						c0.4,0.4,0.8,0.7,1.3,0.9l-3.9,5.8c0.4,0.4,0.8,0.8,1.3,1.1l-3.6,5.4c2.2,2.2,5.2,3.6,8.6,3.6s6.4-1.4,8.6-3.6L167.6,231.7z"/>
					<path class="st17" d="M127.6,231.7c0.5-0.3,0.9-0.7,1.3-1.1l-3.9-5.8c0.5-0.2,0.9-0.6,1.3-0.9l-3.7-5.6l-3.7,5.6
						c0.4,0.4,0.8,0.7,1.3,0.9l-3.9,5.8c0.4,0.4,0.8,0.8,1.3,1.1l-3.6,5.4c2.2,2.2,5.2,3.6,8.6,3.6s6.4-1.4,8.6-3.6L127.6,231.7z"/>
					<path class="st17" d="M187.6,191.7c0.5-0.3,0.9-0.7,1.3-1.1l-3.9-5.8c0.5-0.2,0.9-0.6,1.3-0.9l-3.7-5.6l-3.7,5.6
						c0.4,0.4,0.8,0.7,1.3,0.9l-3.9,5.8c0.4,0.4,0.8,0.8,1.3,1.1l-3.6,5.4c2.2,2.2,5.2,3.6,8.6,3.6s6.4-1.4,8.6-3.6L187.6,191.7z"/>
					<path class="st17" d="M147.6,191.7c0.5-0.3,0.9-0.7,1.3-1.1l-3.9-5.8c0.5-0.2,0.9-0.6,1.3-0.9l-3.7-5.6l-3.7,5.6
						c0.4,0.4,0.8,0.7,1.3,0.9l-3.9,5.8c0.4,0.4,0.8,0.8,1.3,1.1l-3.6,5.4c2.2,2.2,5.2,3.6,8.6,3.6s6.4-1.4,8.6-3.6L147.6,191.7z"/>
				</g>
			</g>
			<g class="st1">
				<g>
					<defs>
						<rect id="SVGID_35_" x="42.5" y="-50.5" width="80" height="80"/>
					</defs>
					<clipPath id="SVGID_36_">
						<use xlink:href="#SVGID_35_"  style="overflow:visible;"/>
					</clipPath>
					<path class="st18" d="M107.6,31.7c0.5-0.3,0.9-0.7,1.3-1.1l-3.9-5.8c0.5-0.2,0.9-0.6,1.3-0.9l-3.7-5.6l-3.7,5.6
						c0.4,0.4,0.8,0.7,1.3,0.9l-3.9,5.8c0.4,0.4,0.8,0.8,1.3,1.1l-3.6,5.4c2.2,2.2,5.2,3.6,8.6,3.6s6.4-1.4,8.6-3.6L107.6,31.7z"/>
					<path class="st18" d="M67.6,31.7c0.5-0.3,0.9-0.7,1.3-1.1L65,24.8c0.5-0.2,0.9-0.6,1.3-0.9l-3.7-5.6l-3.7,5.6
						c0.4,0.4,0.8,0.7,1.3,0.9l-3.9,5.8c0.4,0.4,0.8,0.8,1.3,1.1l-3.6,5.4c2.2,2.2,5.2,3.6,8.6,3.6c3.4,0,6.4-1.4,8.6-3.6L67.6,31.7
						z"/>
					<path class="st18" d="M127.6-8.3c0.5-0.3,0.9-0.7,1.3-1.1l-3.9-5.8c0.5-0.2,0.9-0.6,1.3-0.9l-3.7-5.6l-3.7,5.6
						c0.4,0.4,0.8,0.7,1.3,0.9l-3.9,5.8c0.4,0.4,0.8,0.8,1.3,1.1l-3.6,5.4c2.2,2.2,5.2,3.6,8.6,3.6s6.4-1.4,8.6-3.6L127.6-8.3z"/>
					<path class="st18" d="M87.6-8.3c0.5-0.3,0.9-0.7,1.3-1.1L85-15.2c0.5-0.2,0.9-0.6,1.3-0.9l-3.7-5.6l-3.7,5.6
						c0.4,0.4,0.8,0.7,1.3,0.9l-3.9,5.8c0.4,0.4,0.8,0.8,1.3,1.1l-3.6,5.4c2.2,2.2,5.2,3.6,8.6,3.6s6.4-1.4,8.6-3.6L87.6-8.3z"/>
					<path class="st18" d="M47.6-8.3c0.5-0.3,0.9-0.7,1.3-1.1L45-15.2c0.5-0.2,0.9-0.6,1.3-0.9l-3.7-5.6l-3.7,5.6
						c0.4,0.4,0.8,0.7,1.3,0.9l-3.9,5.8c0.4,0.4,0.8,0.8,1.3,1.1l-3.6,5.4c2.2,2.2,5.2,3.6,8.6,3.6c3.4,0,6.4-1.4,8.6-3.6L47.6-8.3z
						"/>
					<path class="st18" d="M107.6-48.3c0.5-0.3,0.9-0.7,1.3-1.1l-3.9-5.8c0.5-0.2,0.9-0.6,1.3-0.9l-3.7-5.6l-3.7,5.6
						c0.4,0.4,0.8,0.7,1.3,0.9l-3.9,5.8c0.4,0.4,0.8,0.8,1.3,1.1l-3.6,5.4c2.2,2.2,5.2,3.6,8.6,3.6s6.4-1.4,8.6-3.6L107.6-48.3z"/>
					<path class="st18" d="M67.6-48.3c0.5-0.3,0.9-0.7,1.3-1.1L65-55.2c0.5-0.2,0.9-0.6,1.3-0.9l-3.7-5.6l-3.7,5.6
						c0.4,0.4,0.8,0.7,1.3,0.9l-3.9,5.8c0.4,0.4,0.8,0.8,1.3,1.1l-3.6,5.4c2.2,2.2,5.2,3.6,8.6,3.6c3.4,0,6.4-1.4,8.6-3.6L67.6-48.3
						z"/>
				</g>
			</g>
			<g class="st1">
				<g>
					<defs>
						<rect id="SVGID_37_" x="42.5" y="29.5" width="80" height="80"/>
					</defs>
					<clipPath id="SVGID_38_">
						<use xlink:href="#SVGID_37_"  style="overflow:visible;"/>
					</clipPath>
					<path class="st19" d="M107.6,111.7c0.5-0.3,0.9-0.7,1.3-1.1l-3.9-5.8c0.5-0.2,0.9-0.6,1.3-0.9l-3.7-5.6l-3.7,5.6
						c0.4,0.4,0.8,0.7,1.3,0.9l-3.9,5.8c0.4,0.4,0.8,0.8,1.3,1.1l-3.6,5.4c2.2,2.2,5.2,3.6,8.6,3.6s6.4-1.4,8.6-3.6L107.6,111.7z"/>
					<path class="st19" d="M67.6,111.7c0.5-0.3,0.9-0.7,1.3-1.1l-3.9-5.8c0.5-0.2,0.9-0.6,1.3-0.9l-3.7-5.6l-3.7,5.6
						c0.4,0.4,0.8,0.7,1.3,0.9l-3.9,5.8c0.4,0.4,0.8,0.8,1.3,1.1l-3.6,5.4c2.2,2.2,5.2,3.6,8.6,3.6c3.4,0,6.4-1.4,8.6-3.6
						L67.6,111.7z"/>
					<path class="st19" d="M127.6,71.7c0.5-0.3,0.9-0.7,1.3-1.1l-3.9-5.8c0.5-0.2,0.9-0.6,1.3-0.9l-3.7-5.6l-3.7,5.6
						c0.4,0.4,0.8,0.7,1.3,0.9l-3.9,5.8c0.4,0.4,0.8,0.8,1.3,1.1l-3.6,5.4c2.2,2.2,5.2,3.6,8.6,3.6s6.4-1.4,8.6-3.6L127.6,71.7z"/>
					<path class="st19" d="M87.6,71.7c0.5-0.3,0.9-0.7,1.3-1.1L85,64.8c0.5-0.2,0.9-0.6,1.3-0.9l-3.7-5.6l-3.7,5.6
						c0.4,0.4,0.8,0.7,1.3,0.9l-3.9,5.8c0.4,0.4,0.8,0.8,1.3,1.1l-3.6,5.4c2.2,2.2,5.2,3.6,8.6,3.6s6.4-1.4,8.6-3.6L87.6,71.7z"/>
					<path class="st19" d="M47.6,71.7c0.5-0.3,0.9-0.7,1.3-1.1L45,64.8c0.5-0.2,0.9-0.6,1.3-0.9l-3.7-5.6l-3.7,5.6
						c0.4,0.4,0.8,0.7,1.3,0.9l-3.9,5.8c0.4,0.4,0.8,0.8,1.3,1.1l-3.6,5.4c2.2,2.2,5.2,3.6,8.6,3.6c3.4,0,6.4-1.4,8.6-3.6L47.6,71.7
						z"/>
					<path class="st19" d="M107.6,31.7c0.5-0.3,0.9-0.7,1.3-1.1l-3.9-5.8c0.5-0.2,0.9-0.6,1.3-0.9l-3.7-5.6l-3.7,5.6
						c0.4,0.4,0.8,0.7,1.3,0.9l-3.9,5.8c0.4,0.4,0.8,0.8,1.3,1.1l-3.6,5.4c2.2,2.2,5.2,3.6,8.6,3.6s6.4-1.4,8.6-3.6L107.6,31.7z"/>
					<path class="st19" d="M67.6,31.7c0.5-0.3,0.9-0.7,1.3-1.1L65,24.8c0.5-0.2,0.9-0.6,1.3-0.9l-3.7-5.6l-3.7,5.6
						c0.4,0.4,0.8,0.7,1.3,0.9l-3.9,5.8c0.4,0.4,0.8,0.8,1.3,1.1l-3.6,5.4c2.2,2.2,5.2,3.6,8.6,3.6c3.4,0,6.4-1.4,8.6-3.6L67.6,31.7
						z"/>
				</g>
			</g>
			<g class="st1">
				<g>
					<defs>
						<rect id="SVGID_39_" x="42.5" y="109.5" width="80" height="80"/>
					</defs>
					<clipPath id="SVGID_40_">
						<use xlink:href="#SVGID_39_"  style="overflow:visible;"/>
					</clipPath>
					<path class="st20" d="M107.6,191.7c0.5-0.3,0.9-0.7,1.3-1.1l-3.9-5.8c0.5-0.2,0.9-0.6,1.3-0.9l-3.7-5.6l-3.7,5.6
						c0.4,0.4,0.8,0.7,1.3,0.9l-3.9,5.8c0.4,0.4,0.8,0.8,1.3,1.1l-3.6,5.4c2.2,2.2,5.2,3.6,8.6,3.6s6.4-1.4,8.6-3.6L107.6,191.7z"/>
					<path class="st20" d="M67.6,191.7c0.5-0.3,0.9-0.7,1.3-1.1l-3.9-5.8c0.5-0.2,0.9-0.6,1.3-0.9l-3.7-5.6l-3.7,5.6
						c0.4,0.4,0.8,0.7,1.3,0.9l-3.9,5.8c0.4,0.4,0.8,0.8,1.3,1.1l-3.6,5.4c2.2,2.2,5.2,3.6,8.6,3.6c3.4,0,6.4-1.4,8.6-3.6
						L67.6,191.7z"/>
					<path class="st20" d="M127.6,151.7c0.5-0.3,0.9-0.7,1.3-1.1l-3.9-5.8c0.5-0.2,0.9-0.6,1.3-0.9l-3.7-5.6l-3.7,5.6
						c0.4,0.4,0.8,0.7,1.3,0.9l-3.9,5.8c0.4,0.4,0.8,0.8,1.3,1.1l-3.6,5.4c2.2,2.2,5.2,3.6,8.6,3.6s6.4-1.4,8.6-3.6L127.6,151.7z"/>
					<path class="st20" d="M87.6,151.7c0.5-0.3,0.9-0.7,1.3-1.1l-3.9-5.8c0.5-0.2,0.9-0.6,1.3-0.9l-3.7-5.6l-3.7,5.6
						c0.4,0.4,0.8,0.7,1.3,0.9l-3.9,5.8c0.4,0.4,0.8,0.8,1.3,1.1l-3.6,5.4c2.2,2.2,5.2,3.6,8.6,3.6s6.4-1.4,8.6-3.6L87.6,151.7z"/>
					<path class="st20" d="M47.6,151.7c0.5-0.3,0.9-0.7,1.3-1.1l-3.9-5.8c0.5-0.2,0.9-0.6,1.3-0.9l-3.7-5.6l-3.7,5.6
						c0.4,0.4,0.8,0.7,1.3,0.9l-3.9,5.8c0.4,0.4,0.8,0.8,1.3,1.1l-3.6,5.4c2.2,2.2,5.2,3.6,8.6,3.6c3.4,0,6.4-1.4,8.6-3.6
						L47.6,151.7z"/>
					<path class="st20" d="M107.6,111.7c0.5-0.3,0.9-0.7,1.3-1.1l-3.9-5.8c0.5-0.2,0.9-0.6,1.3-0.9l-3.7-5.6l-3.7,5.6
						c0.4,0.4,0.8,0.7,1.3,0.9l-3.9,5.8c0.4,0.4,0.8,0.8,1.3,1.1l-3.6,5.4c2.2,2.2,5.2,3.6,8.6,3.6s6.4-1.4,8.6-3.6L107.6,111.7z"/>
					<path class="st20" d="M67.6,111.7c0.5-0.3,0.9-0.7,1.3-1.1l-3.9-5.8c0.5-0.2,0.9-0.6,1.3-0.9l-3.7-5.6l-3.7,5.6
						c0.4,0.4,0.8,0.7,1.3,0.9l-3.9,5.8c0.4,0.4,0.8,0.8,1.3,1.1l-3.6,5.4c2.2,2.2,5.2,3.6,8.6,3.6c3.4,0,6.4-1.4,8.6-3.6
						L67.6,111.7z"/>
				</g>
			</g>
			<g class="st1">
				<g>
					<defs>
						<rect id="SVGID_41_" x="42.5" y="189.5" width="80" height="80"/>
					</defs>
					<clipPath id="SVGID_42_">
						<use xlink:href="#SVGID_41_"  style="overflow:visible;"/>
					</clipPath>
					<path class="st21" d="M107.6,271.7c0.5-0.3,0.9-0.7,1.3-1.1l-3.9-5.8c0.5-0.2,0.9-0.6,1.3-0.9l-3.7-5.6l-3.7,5.6
						c0.4,0.4,0.8,0.7,1.3,0.9l-3.9,5.8c0.4,0.4,0.8,0.8,1.3,1.1l-3.6,5.4c2.2,2.2,5.2,3.6,8.6,3.6s6.4-1.4,8.6-3.6L107.6,271.7z"/>
					<path class="st21" d="M67.6,271.7c0.5-0.3,0.9-0.7,1.3-1.1l-3.9-5.8c0.5-0.2,0.9-0.6,1.3-0.9l-3.7-5.6l-3.7,5.6
						c0.4,0.4,0.8,0.7,1.3,0.9l-3.9,5.8c0.4,0.4,0.8,0.8,1.3,1.1l-3.6,5.4c2.2,2.2,5.2,3.6,8.6,3.6c3.4,0,6.4-1.4,8.6-3.6
						L67.6,271.7z"/>
					<path class="st21" d="M127.6,231.7c0.5-0.3,0.9-0.7,1.3-1.1l-3.9-5.8c0.5-0.2,0.9-0.6,1.3-0.9l-3.7-5.6l-3.7,5.6
						c0.4,0.4,0.8,0.7,1.3,0.9l-3.9,5.8c0.4,0.4,0.8,0.8,1.3,1.1l-3.6,5.4c2.2,2.2,5.2,3.6,8.6,3.6s6.4-1.4,8.6-3.6L127.6,231.7z"/>
					<path class="st21" d="M87.6,231.7c0.5-0.3,0.9-0.7,1.3-1.1l-3.9-5.8c0.5-0.2,0.9-0.6,1.3-0.9l-3.7-5.6l-3.7,5.6
						c0.4,0.4,0.8,0.7,1.3,0.9l-3.9,5.8c0.4,0.4,0.8,0.8,1.3,1.1l-3.6,5.4c2.2,2.2,5.2,3.6,8.6,3.6s6.4-1.4,8.6-3.6L87.6,231.7z"/>
					<path class="st21" d="M47.6,231.7c0.5-0.3,0.9-0.7,1.3-1.1l-3.9-5.8c0.5-0.2,0.9-0.6,1.3-0.9l-3.7-5.6l-3.7,5.6
						c0.4,0.4,0.8,0.7,1.3,0.9l-3.9,5.8c0.4,0.4,0.8,0.8,1.3,1.1l-3.6,5.4c2.2,2.2,5.2,3.6,8.6,3.6c3.4,0,6.4-1.4,8.6-3.6
						L47.6,231.7z"/>
					<path class="st21" d="M107.6,191.7c0.5-0.3,0.9-0.7,1.3-1.1l-3.9-5.8c0.5-0.2,0.9-0.6,1.3-0.9l-3.7-5.6l-3.7,5.6
						c0.4,0.4,0.8,0.7,1.3,0.9l-3.9,5.8c0.4,0.4,0.8,0.8,1.3,1.1l-3.6,5.4c2.2,2.2,5.2,3.6,8.6,3.6s6.4-1.4,8.6-3.6L107.6,191.7z"/>
					<path class="st21" d="M67.6,191.7c0.5-0.3,0.9-0.7,1.3-1.1l-3.9-5.8c0.5-0.2,0.9-0.6,1.3-0.9l-3.7-5.6l-3.7,5.6
						c0.4,0.4,0.8,0.7,1.3,0.9l-3.9,5.8c0.4,0.4,0.8,0.8,1.3,1.1l-3.6,5.4c2.2,2.2,5.2,3.6,8.6,3.6c3.4,0,6.4-1.4,8.6-3.6
						L67.6,191.7z"/>
				</g>
			</g>
			<g class="st1">
				<g>
					<defs>
						<rect id="SVGID_43_" x="-37.5" y="-50.5" width="80" height="80"/>
					</defs>
					<clipPath id="SVGID_44_">
						<use xlink:href="#SVGID_43_"  style="overflow:visible;"/>
					</clipPath>
					<path class="st22" d="M27.6,31.7c0.5-0.3,0.9-0.7,1.3-1.1L25,24.8c0.5-0.2,0.9-0.6,1.3-0.9l-3.7-5.6l-3.7,5.6
						c0.4,0.4,0.8,0.7,1.3,0.9l-3.9,5.8c0.4,0.4,0.8,0.8,1.3,1.1l-3.6,5.4c2.2,2.2,5.2,3.6,8.6,3.6s6.4-1.4,8.6-3.6L27.6,31.7z"/>
					<path class="st22" d="M-12.4,31.7c0.5-0.3,0.9-0.7,1.3-1.1l-3.9-5.8c0.5-0.2,0.9-0.6,1.3-0.9l-3.7-5.6l-3.7,5.6
						c0.4,0.4,0.8,0.7,1.3,0.9l-3.9,5.8c0.4,0.4,0.8,0.8,1.3,1.1l-3.6,5.4c2.2,2.2,5.2,3.6,8.6,3.6s6.4-1.4,8.6-3.6L-12.4,31.7z"/>
					<path class="st22" d="M47.6-8.3c0.5-0.3,0.9-0.7,1.3-1.1L45-15.2c0.5-0.2,0.9-0.6,1.3-0.9l-3.7-5.6l-3.7,5.6
						c0.4,0.4,0.8,0.7,1.3,0.9l-3.9,5.8c0.4,0.4,0.8,0.8,1.3,1.1l-3.6,5.4c2.2,2.2,5.2,3.6,8.6,3.6c3.4,0,6.4-1.4,8.6-3.6L47.6-8.3z
						"/>
					<path class="st22" d="M7.6-8.3c0.5-0.3,0.9-0.7,1.3-1.1L5-15.2c0.5-0.2,0.9-0.6,1.3-0.9l-3.7-5.6l-3.7,5.6
						c0.4,0.4,0.8,0.7,1.3,0.9l-3.9,5.8C-3.4-8.9-3-8.6-2.5-8.3l-3.6,5.4c2.2,2.2,5.2,3.6,8.6,3.6s6.4-1.4,8.6-3.6L7.6-8.3z"/>
					<path class="st22" d="M-32.4-8.3c0.5-0.3,0.9-0.7,1.3-1.1l-3.9-5.8c0.5-0.2,0.9-0.6,1.3-0.9l-3.7-5.6l-3.7,5.6
						c0.4,0.4,0.8,0.7,1.3,0.9l-3.9,5.8c0.4,0.4,0.8,0.8,1.3,1.1l-3.6,5.4c2.2,2.2,5.2,3.6,8.6,3.6c3.4,0,6.4-1.4,8.6-3.6L-32.4-8.3
						z"/>
					<path class="st22" d="M27.6-48.3c0.5-0.3,0.9-0.7,1.3-1.1L25-55.2c0.5-0.2,0.9-0.6,1.3-0.9l-3.7-5.6l-3.7,5.6
						c0.4,0.4,0.8,0.7,1.3,0.9l-3.9,5.8c0.4,0.4,0.8,0.8,1.3,1.1l-3.6,5.4c2.2,2.2,5.2,3.6,8.6,3.6s6.4-1.4,8.6-3.6L27.6-48.3z"/>
					<path class="st22" d="M-12.4-48.3c0.5-0.3,0.9-0.7,1.3-1.1l-3.9-5.8c0.5-0.2,0.9-0.6,1.3-0.9l-3.7-5.6l-3.7,5.6
						c0.4,0.4,0.8,0.7,1.3,0.9l-3.9,5.8c0.4,0.4,0.8,0.8,1.3,1.1l-3.6,5.4c2.2,2.2,5.2,3.6,8.6,3.6s6.4-1.4,8.6-3.6L-12.4-48.3z"/>
				</g>
			</g>
			<g class="st1">
				<g>
					<defs>
						<rect id="SVGID_45_" x="-37.5" y="29.5" width="80" height="80"/>
					</defs>
					<clipPath id="SVGID_46_">
						<use xlink:href="#SVGID_45_"  style="overflow:visible;"/>
					</clipPath>
					<path class="st23" d="M27.6,111.7c0.5-0.3,0.9-0.7,1.3-1.1l-3.9-5.8c0.5-0.2,0.9-0.6,1.3-0.9l-3.7-5.6l-3.7,5.6
						c0.4,0.4,0.8,0.7,1.3,0.9l-3.9,5.8c0.4,0.4,0.8,0.8,1.3,1.1l-3.6,5.4c2.2,2.2,5.2,3.6,8.6,3.6s6.4-1.4,8.6-3.6L27.6,111.7z"/>
					<path class="st23" d="M-12.4,111.7c0.5-0.3,0.9-0.7,1.3-1.1l-3.9-5.8c0.5-0.2,0.9-0.6,1.3-0.9l-3.7-5.6l-3.7,5.6
						c0.4,0.4,0.8,0.7,1.3,0.9l-3.9,5.8c0.4,0.4,0.8,0.8,1.3,1.1l-3.6,5.4c2.2,2.2,5.2,3.6,8.6,3.6s6.4-1.4,8.6-3.6L-12.4,111.7z"/>
					<path class="st23" d="M47.6,71.7c0.5-0.3,0.9-0.7,1.3-1.1L45,64.8c0.5-0.2,0.9-0.6,1.3-0.9l-3.7-5.6l-3.7,5.6
						c0.4,0.4,0.8,0.7,1.3,0.9l-3.9,5.8c0.4,0.4,0.8,0.8,1.3,1.1l-3.6,5.4c2.2,2.2,5.2,3.6,8.6,3.6c3.4,0,6.4-1.4,8.6-3.6L47.6,71.7
						z"/>
					<path class="st23" d="M7.6,71.7c0.5-0.3,0.9-0.7,1.3-1.1L5,64.8c0.5-0.2,0.9-0.6,1.3-0.9l-3.7-5.6l-3.7,5.6
						c0.4,0.4,0.8,0.7,1.3,0.9l-3.9,5.8c0.4,0.4,0.8,0.8,1.3,1.1l-3.6,5.4c2.2,2.2,5.2,3.6,8.6,3.6s6.4-1.4,8.6-3.6L7.6,71.7z"/>
					<path class="st23" d="M-32.4,71.7c0.5-0.3,0.9-0.7,1.3-1.1l-3.9-5.8c0.5-0.2,0.9-0.6,1.3-0.9l-3.7-5.6l-3.7,5.6
						c0.4,0.4,0.8,0.7,1.3,0.9l-3.9,5.8c0.4,0.4,0.8,0.8,1.3,1.1l-3.6,5.4c2.2,2.2,5.2,3.6,8.6,3.6c3.4,0,6.4-1.4,8.6-3.6
						L-32.4,71.7z"/>
					<path class="st23" d="M27.6,31.7c0.5-0.3,0.9-0.7,1.3-1.1L25,24.8c0.5-0.2,0.9-0.6,1.3-0.9l-3.7-5.6l-3.7,5.6
						c0.4,0.4,0.8,0.7,1.3,0.9l-3.9,5.8c0.4,0.4,0.8,0.8,1.3,1.1l-3.6,5.4c2.2,2.2,5.2,3.6,8.6,3.6s6.4-1.4,8.6-3.6L27.6,31.7z"/>
					<path class="st23" d="M-12.4,31.7c0.5-0.3,0.9-0.7,1.3-1.1l-3.9-5.8c0.5-0.2,0.9-0.6,1.3-0.9l-3.7-5.6l-3.7,5.6
						c0.4,0.4,0.8,0.7,1.3,0.9l-3.9,5.8c0.4,0.4,0.8,0.8,1.3,1.1l-3.6,5.4c2.2,2.2,5.2,3.6,8.6,3.6s6.4-1.4,8.6-3.6L-12.4,31.7z"/>
				</g>
			</g>
			<g class="st1">
				<g>
					<defs>
						<rect id="SVGID_47_" x="-37.5" y="109.5" width="80" height="80"/>
					</defs>
					<clipPath id="SVGID_48_">
						<use xlink:href="#SVGID_47_"  style="overflow:visible;"/>
					</clipPath>
					<path class="st24" d="M27.6,191.7c0.5-0.3,0.9-0.7,1.3-1.1l-3.9-5.8c0.5-0.2,0.9-0.6,1.3-0.9l-3.7-5.6l-3.7,5.6
						c0.4,0.4,0.8,0.7,1.3,0.9l-3.9,5.8c0.4,0.4,0.8,0.8,1.3,1.1l-3.6,5.4c2.2,2.2,5.2,3.6,8.6,3.6s6.4-1.4,8.6-3.6L27.6,191.7z"/>
					<path class="st24" d="M-12.4,191.7c0.5-0.3,0.9-0.7,1.3-1.1l-3.9-5.8c0.5-0.2,0.9-0.6,1.3-0.9l-3.7-5.6l-3.7,5.6
						c0.4,0.4,0.8,0.7,1.3,0.9l-3.9,5.8c0.4,0.4,0.8,0.8,1.3,1.1l-3.6,5.4c2.2,2.2,5.2,3.6,8.6,3.6s6.4-1.4,8.6-3.6L-12.4,191.7z"/>
					<path class="st24" d="M47.6,151.7c0.5-0.3,0.9-0.7,1.3-1.1l-3.9-5.8c0.5-0.2,0.9-0.6,1.3-0.9l-3.7-5.6l-3.7,5.6
						c0.4,0.4,0.8,0.7,1.3,0.9l-3.9,5.8c0.4,0.4,0.8,0.8,1.3,1.1l-3.6,5.4c2.2,2.2,5.2,3.6,8.6,3.6c3.4,0,6.4-1.4,8.6-3.6
						L47.6,151.7z"/>
					<path class="st24" d="M7.6,151.7c0.5-0.3,0.9-0.7,1.3-1.1L5,144.8c0.5-0.2,0.9-0.6,1.3-0.9l-3.7-5.6l-3.7,5.6
						c0.4,0.4,0.8,0.7,1.3,0.9l-3.9,5.8c0.4,0.4,0.8,0.8,1.3,1.1l-3.6,5.4c2.2,2.2,5.2,3.6,8.6,3.6s6.4-1.4,8.6-3.6L7.6,151.7z"/>
					<path class="st24" d="M-32.4,151.7c0.5-0.3,0.9-0.7,1.3-1.1l-3.9-5.8c0.5-0.2,0.9-0.6,1.3-0.9l-3.7-5.6l-3.7,5.6
						c0.4,0.4,0.8,0.7,1.3,0.9l-3.9,5.8c0.4,0.4,0.8,0.8,1.3,1.1l-3.6,5.4c2.2,2.2,5.2,3.6,8.6,3.6c3.4,0,6.4-1.4,8.6-3.6
						L-32.4,151.7z"/>
					<path class="st24" d="M27.6,111.7c0.5-0.3,0.9-0.7,1.3-1.1l-3.9-5.8c0.5-0.2,0.9-0.6,1.3-0.9l-3.7-5.6l-3.7,5.6
						c0.4,0.4,0.8,0.7,1.3,0.9l-3.9,5.8c0.4,0.4,0.8,0.8,1.3,1.1l-3.6,5.4c2.2,2.2,5.2,3.6,8.6,3.6s6.4-1.4,8.6-3.6L27.6,111.7z"/>
					<path class="st24" d="M-12.4,111.7c0.5-0.3,0.9-0.7,1.3-1.1l-3.9-5.8c0.5-0.2,0.9-0.6,1.3-0.9l-3.7-5.6l-3.7,5.6
						c0.4,0.4,0.8,0.7,1.3,0.9l-3.9,5.8c0.4,0.4,0.8,0.8,1.3,1.1l-3.6,5.4c2.2,2.2,5.2,3.6,8.6,3.6s6.4-1.4,8.6-3.6L-12.4,111.7z"/>
				</g>
			</g>
			<g class="st1">
				<g>
					<defs>
						<rect id="SVGID_49_" x="-37.5" y="189.5" width="80" height="80"/>
					</defs>
					<clipPath id="SVGID_50_">
						<use xlink:href="#SVGID_49_"  style="overflow:visible;"/>
					</clipPath>
					<path class="st25" d="M27.6,271.7c0.5-0.3,0.9-0.7,1.3-1.1l-3.9-5.8c0.5-0.2,0.9-0.6,1.3-0.9l-3.7-5.6l-3.7,5.6
						c0.4,0.4,0.8,0.7,1.3,0.9l-3.9,5.8c0.4,0.4,0.8,0.8,1.3,1.1l-3.6,5.4c2.2,2.2,5.2,3.6,8.6,3.6s6.4-1.4,8.6-3.6L27.6,271.7z"/>
					<path class="st25" d="M-12.4,271.7c0.5-0.3,0.9-0.7,1.3-1.1l-3.9-5.8c0.5-0.2,0.9-0.6,1.3-0.9l-3.7-5.6l-3.7,5.6
						c0.4,0.4,0.8,0.7,1.3,0.9l-3.9,5.8c0.4,0.4,0.8,0.8,1.3,1.1l-3.6,5.4c2.2,2.2,5.2,3.6,8.6,3.6s6.4-1.4,8.6-3.6L-12.4,271.7z"/>
					<path class="st25" d="M47.6,231.7c0.5-0.3,0.9-0.7,1.3-1.1l-3.9-5.8c0.5-0.2,0.9-0.6,1.3-0.9l-3.7-5.6l-3.7,5.6
						c0.4,0.4,0.8,0.7,1.3,0.9l-3.9,5.8c0.4,0.4,0.8,0.8,1.3,1.1l-3.6,5.4c2.2,2.2,5.2,3.6,8.6,3.6c3.4,0,6.4-1.4,8.6-3.6
						L47.6,231.7z"/>
					<path class="st25" d="M7.6,231.7c0.5-0.3,0.9-0.7,1.3-1.1L5,224.8c0.5-0.2,0.9-0.6,1.3-0.9l-3.7-5.6l-3.7,5.6
						c0.4,0.4,0.8,0.7,1.3,0.9l-3.9,5.8c0.4,0.4,0.8,0.8,1.3,1.1l-3.6,5.4c2.2,2.2,5.2,3.6,8.6,3.6s6.4-1.4,8.6-3.6L7.6,231.7z"/>
					<path class="st25" d="M-32.4,231.7c0.5-0.3,0.9-0.7,1.3-1.1l-3.9-5.8c0.5-0.2,0.9-0.6,1.3-0.9l-3.7-5.6l-3.7,5.6
						c0.4,0.4,0.8,0.7,1.3,0.9l-3.9,5.8c0.4,0.4,0.8,0.8,1.3,1.1l-3.6,5.4c2.2,2.2,5.2,3.6,8.6,3.6c3.4,0,6.4-1.4,8.6-3.6
						L-32.4,231.7z"/>
					<path class="st25" d="M27.6,191.7c0.5-0.3,0.9-0.7,1.3-1.1l-3.9-5.8c0.5-0.2,0.9-0.6,1.3-0.9l-3.7-5.6l-3.7,5.6
						c0.4,0.4,0.8,0.7,1.3,0.9l-3.9,5.8c0.4,0.4,0.8,0.8,1.3,1.1l-3.6,5.4c2.2,2.2,5.2,3.6,8.6,3.6s6.4-1.4,8.6-3.6L27.6,191.7z"/>
					<path class="st25" d="M-12.4,191.7c0.5-0.3,0.9-0.7,1.3-1.1l-3.9-5.8c0.5-0.2,0.9-0.6,1.3-0.9l-3.7-5.6l-3.7,5.6
						c0.4,0.4,0.8,0.7,1.3,0.9l-3.9,5.8c0.4,0.4,0.8,0.8,1.3,1.1l-3.6,5.4c2.2,2.2,5.2,3.6,8.6,3.6s6.4-1.4,8.6-3.6L-12.4,191.7z"/>
				</g>
			</g>
		</g>
	</g>
	<g>
		<line class="st26" x1="0" y1="107" x2="384.6" y2="107"/>
		<rect x="0" y="87" class="st27" width="384.6" height="40"/>
	</g>
	<g>
		<line class="st26" x1="192.3" y1="268.8" x2="192.3" y2="0"/>
		<rect x="172.3" y="0" class="st27" width="40" height="268.8"/>
	</g>
	<rect x="0" y="0" class="st28" width="384.6" height="15.7"/>
</g>
</svg>
