<?xml version="1.0" encoding="utf-8"?>
<!-- Generator: Adobe Illustrator 19.1.1, SVG Export Plug-In . SVG Version: 6.00 Build 0)  -->
<svg version="1.1" id="Layer_1" xmlns="http://www.w3.org/2000/svg" xmlns:xlink="http://www.w3.org/1999/xlink" x="0px" y="0px"
	 viewBox="0 0 416.9 218.2" style="enable-background:new 0 0 416.9 218.2;" xml:space="preserve">
<style type="text/css">
	.st0{fill:#D1AD4F;}
	.st1{clip-path:url(#SVGID_2_);}
	.st2{clip-path:url(#SVGID_4_);fill:#EDE4CC;}
	.st3{clip-path:url(#SVGID_6_);fill:#EDE4CC;}
	.st4{clip-path:url(#SVGID_8_);fill:#EDE4CC;}
	.st5{clip-path:url(#SVGID_10_);fill:#EDE4CC;}
	.st6{clip-path:url(#SVGID_12_);fill:#EDE4CC;}
	.st7{clip-path:url(#SVGID_14_);fill:#EDE4CC;}
	.st8{clip-path:url(#SVGID_16_);fill:#EDE4CC;}
	.st9{clip-path:url(#SVGID_18_);fill:#EDE4CC;}
	.st10{clip-path:url(#SVGID_20_);fill:#EDE4CC;}
	.st11{clip-path:url(#SVGID_22_);fill:#EDE4CC;}
	.st12{clip-path:url(#SVGID_24_);fill:#EDE4CC;}
	.st13{clip-path:url(#SVGID_26_);fill:#EDE4CC;}
	.st14{fill:#82AED7;}
	.st15{fill:#3095D2;}
</style>
<g>
	<path class="st0" d="M414.9,218.2H2c-1.1,0-2-0.9-2-2v-90.6c0-1.1,0.9-2,2-2h412.9c1.1,0,2,0.9,2,2v90.6
		C416.9,217.3,416,218.2,414.9,218.2z"/>
	<g>
		<g>
			<defs>
				<path id="SVGID_1_" d="M414.9,218.2H2c-1.1,0-2-0.9-2-2v-90.6c0-1.1,0.9-2,2-2h412.9c1.1,0,2,0.9,2,2v90.6
					C416.9,217.3,416,218.2,414.9,218.2z"/>
			</defs>
			<clipPath id="SVGID_2_">
				<use xlink:href="#SVGID_1_"  style="overflow:visible;"/>
			</clipPath>
			<g class="st1">
				<g>
					<defs>
						<rect id="SVGID_3_" x="378.7" y="87.7" width="80" height="80"/>
					</defs>
					<clipPath id="SVGID_4_">
						<use xlink:href="#SVGID_3_"  style="overflow:visible;"/>
					</clipPath>
					<path class="st2" d="M443.7,170c0.5-0.3,0.9-0.7,1.3-1.1l-3.9-5.8c0.5-0.2,0.9-0.6,1.3-0.9l-3.7-5.6l-3.7,5.6
						c0.4,0.4,0.8,0.7,1.3,0.9l-3.9,5.8c0.4,0.4,0.8,0.8,1.3,1.1l-3.6,5.4c2.2,2.2,5.2,3.6,8.6,3.6s6.4-1.4,8.6-3.6L443.7,170z"/>
					<path class="st2" d="M403.7,170c0.5-0.3,0.9-0.7,1.3-1.1l-3.9-5.8c0.5-0.2,0.9-0.6,1.3-0.9l-3.7-5.6l-3.7,5.6
						c0.4,0.4,0.8,0.7,1.3,0.9l-3.9,5.8c0.4,0.4,0.8,0.8,1.3,1.1l-3.6,5.4c2.2,2.2,5.2,3.6,8.6,3.6s6.4-1.4,8.6-3.6L403.7,170z"/>
					<path class="st2" d="M463.7,130c0.5-0.3,0.9-0.7,1.3-1.1l-3.9-5.8c0.5-0.2,0.9-0.6,1.3-0.9l-3.7-5.6l-3.7,5.6
						c0.4,0.4,0.8,0.7,1.3,0.9l-3.9,5.8c0.4,0.4,0.8,0.8,1.3,1.1l-3.6,5.4c2.2,2.2,5.2,3.6,8.6,3.6s6.4-1.4,8.6-3.6L463.7,130z"/>
					<path class="st2" d="M423.7,130c0.5-0.3,0.9-0.7,1.3-1.1l-3.9-5.8c0.5-0.2,0.9-0.6,1.3-0.9l-3.7-5.6l-3.7,5.6
						c0.4,0.4,0.8,0.7,1.3,0.9l-3.9,5.8c0.4,0.4,0.8,0.8,1.3,1.1l-3.6,5.4c2.2,2.2,5.2,3.6,8.6,3.6s6.4-1.4,8.6-3.6L423.7,130z"/>
					<path class="st2" d="M383.7,130c0.5-0.3,0.9-0.7,1.3-1.1l-3.9-5.8c0.5-0.2,0.9-0.6,1.3-0.9l-3.7-5.6l-3.7,5.6
						c0.4,0.4,0.8,0.7,1.3,0.9l-3.9,5.8c0.4,0.4,0.8,0.8,1.3,1.1l-3.6,5.4c2.2,2.2,5.2,3.6,8.6,3.6s6.4-1.4,8.6-3.6L383.7,130z"/>
					<path class="st2" d="M443.7,90c0.5-0.3,0.9-0.7,1.3-1.1l-3.9-5.8c0.5-0.2,0.9-0.6,1.3-0.9l-3.7-5.6l-3.7,5.6
						c0.4,0.4,0.8,0.7,1.3,0.9l-3.9,5.8c0.4,0.4,0.8,0.8,1.3,1.1l-3.6,5.4c2.2,2.2,5.2,3.6,8.6,3.6s6.4-1.4,8.6-3.6L443.7,90z"/>
					<path class="st2" d="M403.7,90c0.5-0.3,0.9-0.7,1.3-1.1l-3.9-5.8c0.5-0.2,0.9-0.6,1.3-0.9l-3.7-5.6l-3.7,5.6
						c0.4,0.4,0.8,0.7,1.3,0.9l-3.9,5.8c0.4,0.4,0.8,0.8,1.3,1.1l-3.6,5.4c2.2,2.2,5.2,3.6,8.6,3.6s6.4-1.4,8.6-3.6L403.7,90z"/>
				</g>
			</g>
			<g class="st1">
				<g>
					<defs>
						<rect id="SVGID_5_" x="378.7" y="167.7" width="80" height="80"/>
					</defs>
					<clipPath id="SVGID_6_">
						<use xlink:href="#SVGID_5_"  style="overflow:visible;"/>
					</clipPath>
					<path class="st3" d="M443.7,250c0.5-0.3,0.9-0.7,1.3-1.1l-3.9-5.8c0.5-0.2,0.9-0.6,1.3-0.9l-3.7-5.6l-3.7,5.6
						c0.4,0.4,0.8,0.7,1.3,0.9l-3.9,5.8c0.4,0.4,0.8,0.8,1.3,1.1l-3.6,5.4c2.2,2.2,5.2,3.6,8.6,3.6s6.4-1.4,8.6-3.6L443.7,250z"/>
					<path class="st3" d="M403.7,250c0.5-0.3,0.9-0.7,1.3-1.1l-3.9-5.8c0.5-0.2,0.9-0.6,1.3-0.9l-3.7-5.6l-3.7,5.6
						c0.4,0.4,0.8,0.7,1.3,0.9l-3.9,5.8c0.4,0.4,0.8,0.8,1.3,1.1l-3.6,5.4c2.2,2.2,5.2,3.6,8.6,3.6s6.4-1.4,8.6-3.6L403.7,250z"/>
					<path class="st3" d="M463.7,210c0.5-0.3,0.9-0.7,1.3-1.1l-3.9-5.8c0.5-0.2,0.9-0.6,1.3-0.9l-3.7-5.6l-3.7,5.6
						c0.4,0.4,0.8,0.7,1.3,0.9l-3.9,5.8c0.4,0.4,0.8,0.8,1.3,1.1l-3.6,5.4c2.2,2.2,5.2,3.6,8.6,3.6s6.4-1.4,8.6-3.6L463.7,210z"/>
					<path class="st3" d="M423.7,210c0.5-0.3,0.9-0.7,1.3-1.1l-3.9-5.8c0.5-0.2,0.9-0.6,1.3-0.9l-3.7-5.6l-3.7,5.6
						c0.4,0.4,0.8,0.7,1.3,0.9l-3.9,5.8c0.4,0.4,0.8,0.8,1.3,1.1l-3.6,5.4c2.2,2.2,5.2,3.6,8.6,3.6s6.4-1.4,8.6-3.6L423.7,210z"/>
					<path class="st3" d="M383.7,210c0.5-0.3,0.9-0.7,1.3-1.1l-3.9-5.8c0.5-0.2,0.9-0.6,1.3-0.9l-3.7-5.6l-3.7,5.6
						c0.4,0.4,0.8,0.7,1.3,0.9l-3.9,5.8c0.4,0.4,0.8,0.8,1.3,1.1l-3.6,5.4c2.2,2.2,5.2,3.6,8.6,3.6s6.4-1.4,8.6-3.6L383.7,210z"/>
					<path class="st3" d="M443.7,170c0.5-0.3,0.9-0.7,1.3-1.1l-3.9-5.8c0.5-0.2,0.9-0.6,1.3-0.9l-3.7-5.6l-3.7,5.6
						c0.4,0.4,0.8,0.7,1.3,0.9l-3.9,5.8c0.4,0.4,0.8,0.8,1.3,1.1l-3.6,5.4c2.2,2.2,5.2,3.6,8.6,3.6s6.4-1.4,8.6-3.6L443.7,170z"/>
					<path class="st3" d="M403.7,170c0.5-0.3,0.9-0.7,1.3-1.1l-3.9-5.8c0.5-0.2,0.9-0.6,1.3-0.9l-3.7-5.6l-3.7,5.6
						c0.4,0.4,0.8,0.7,1.3,0.9l-3.9,5.8c0.4,0.4,0.8,0.8,1.3,1.1l-3.6,5.4c2.2,2.2,5.2,3.6,8.6,3.6s6.4-1.4,8.6-3.6L403.7,170z"/>
				</g>
			</g>
			<g class="st1">
				<g>
					<defs>
						<rect id="SVGID_7_" x="298.7" y="87.7" width="80" height="80"/>
					</defs>
					<clipPath id="SVGID_8_">
						<use xlink:href="#SVGID_7_"  style="overflow:visible;"/>
					</clipPath>
					<path class="st4" d="M363.7,170c0.5-0.3,0.9-0.7,1.3-1.1l-3.9-5.8c0.5-0.2,0.9-0.6,1.3-0.9l-3.7-5.6l-3.7,5.6
						c0.4,0.4,0.8,0.7,1.3,0.9l-3.9,5.8c0.4,0.4,0.8,0.8,1.3,1.1l-3.6,5.4c2.2,2.2,5.2,3.6,8.6,3.6s6.4-1.4,8.6-3.6L363.7,170z"/>
					<path class="st4" d="M323.7,170c0.5-0.3,0.9-0.7,1.3-1.1l-3.9-5.8c0.5-0.2,0.9-0.6,1.3-0.9l-3.7-5.6l-3.7,5.6
						c0.4,0.4,0.8,0.7,1.3,0.9l-3.9,5.8c0.4,0.4,0.8,0.8,1.3,1.1l-3.6,5.4c2.2,2.2,5.2,3.6,8.6,3.6s6.4-1.4,8.6-3.6L323.7,170z"/>
					<path class="st4" d="M383.7,130c0.5-0.3,0.9-0.7,1.3-1.1l-3.9-5.8c0.5-0.2,0.9-0.6,1.3-0.9l-3.7-5.6l-3.7,5.6
						c0.4,0.4,0.8,0.7,1.3,0.9l-3.9,5.8c0.4,0.4,0.8,0.8,1.3,1.1l-3.6,5.4c2.2,2.2,5.2,3.6,8.6,3.6s6.4-1.4,8.6-3.6L383.7,130z"/>
					<path class="st4" d="M343.7,130c0.5-0.3,0.9-0.7,1.3-1.1l-3.9-5.8c0.5-0.2,0.9-0.6,1.3-0.9l-3.7-5.6l-3.7,5.6
						c0.4,0.4,0.8,0.7,1.3,0.9l-3.9,5.8c0.4,0.4,0.8,0.8,1.3,1.1l-3.6,5.4c2.2,2.2,5.2,3.6,8.6,3.6s6.4-1.4,8.6-3.6L343.7,130z"/>
					<path class="st4" d="M303.7,130c0.5-0.3,0.9-0.7,1.3-1.1l-3.9-5.8c0.5-0.2,0.9-0.6,1.3-0.9l-3.7-5.6l-3.7,5.6
						c0.4,0.4,0.8,0.7,1.3,0.9l-3.9,5.8c0.4,0.4,0.8,0.8,1.3,1.1l-3.6,5.4c2.2,2.2,5.2,3.6,8.6,3.6s6.4-1.4,8.6-3.6L303.7,130z"/>
					<path class="st4" d="M363.7,90c0.5-0.3,0.9-0.7,1.3-1.1l-3.9-5.8c0.5-0.2,0.9-0.6,1.3-0.9l-3.7-5.6l-3.7,5.6
						c0.4,0.4,0.8,0.7,1.3,0.9l-3.9,5.8c0.4,0.4,0.8,0.8,1.3,1.1l-3.6,5.4c2.2,2.2,5.2,3.6,8.6,3.6s6.4-1.4,8.6-3.6L363.7,90z"/>
					<path class="st4" d="M323.7,90c0.5-0.3,0.9-0.7,1.3-1.1l-3.9-5.8c0.5-0.2,0.9-0.6,1.3-0.9l-3.7-5.6l-3.7,5.6
						c0.4,0.4,0.8,0.7,1.3,0.9l-3.9,5.8c0.4,0.4,0.8,0.8,1.3,1.1l-3.6,5.4c2.2,2.2,5.2,3.6,8.6,3.6s6.4-1.4,8.6-3.6L323.7,90z"/>
				</g>
			</g>
			<g class="st1">
				<g>
					<defs>
						<rect id="SVGID_9_" x="298.7" y="167.7" width="80" height="80"/>
					</defs>
					<clipPath id="SVGID_10_">
						<use xlink:href="#SVGID_9_"  style="overflow:visible;"/>
					</clipPath>
					<path class="st5" d="M363.7,250c0.5-0.3,0.9-0.7,1.3-1.1l-3.9-5.8c0.5-0.2,0.9-0.6,1.3-0.9l-3.7-5.6l-3.7,5.6
						c0.4,0.4,0.8,0.7,1.3,0.9l-3.9,5.8c0.4,0.4,0.8,0.8,1.3,1.1l-3.6,5.4c2.2,2.2,5.2,3.6,8.6,3.6s6.4-1.4,8.6-3.6L363.7,250z"/>
					<path class="st5" d="M323.7,250c0.5-0.3,0.9-0.7,1.3-1.1l-3.9-5.8c0.5-0.2,0.9-0.6,1.3-0.9l-3.7-5.6l-3.7,5.6
						c0.4,0.4,0.8,0.7,1.3,0.9l-3.9,5.8c0.4,0.4,0.8,0.8,1.3,1.1l-3.6,5.4c2.2,2.2,5.2,3.6,8.6,3.6s6.4-1.4,8.6-3.6L323.7,250z"/>
					<path class="st5" d="M383.7,210c0.5-0.3,0.9-0.7,1.3-1.1l-3.9-5.8c0.5-0.2,0.9-0.6,1.3-0.9l-3.7-5.6l-3.7,5.6
						c0.4,0.4,0.8,0.7,1.3,0.9l-3.9,5.8c0.4,0.4,0.8,0.8,1.3,1.1l-3.6,5.4c2.2,2.2,5.2,3.6,8.6,3.6s6.4-1.4,8.6-3.6L383.7,210z"/>
					<path class="st5" d="M343.7,210c0.5-0.3,0.9-0.7,1.3-1.1l-3.9-5.8c0.5-0.2,0.9-0.6,1.3-0.9l-3.7-5.6l-3.7,5.6
						c0.4,0.4,0.8,0.7,1.3,0.9l-3.9,5.8c0.4,0.4,0.8,0.8,1.3,1.1l-3.6,5.4c2.2,2.2,5.2,3.6,8.6,3.6s6.4-1.4,8.6-3.6L343.7,210z"/>
					<path class="st5" d="M303.7,210c0.5-0.3,0.9-0.7,1.3-1.1l-3.9-5.8c0.5-0.2,0.9-0.6,1.3-0.9l-3.7-5.6l-3.7,5.6
						c0.4,0.4,0.8,0.7,1.3,0.9l-3.9,5.8c0.4,0.4,0.8,0.8,1.3,1.1l-3.6,5.4c2.2,2.2,5.2,3.6,8.6,3.6s6.4-1.4,8.6-3.6L303.7,210z"/>
					<path class="st5" d="M363.7,170c0.5-0.3,0.9-0.7,1.3-1.1l-3.9-5.8c0.5-0.2,0.9-0.6,1.3-0.9l-3.7-5.6l-3.7,5.6
						c0.4,0.4,0.8,0.7,1.3,0.9l-3.9,5.8c0.4,0.4,0.8,0.8,1.3,1.1l-3.6,5.4c2.2,2.2,5.2,3.6,8.6,3.6s6.4-1.4,8.6-3.6L363.7,170z"/>
					<path class="st5" d="M323.7,170c0.5-0.3,0.9-0.7,1.3-1.1l-3.9-5.8c0.5-0.2,0.9-0.6,1.3-0.9l-3.7-5.6l-3.7,5.6
						c0.4,0.4,0.8,0.7,1.3,0.9l-3.9,5.8c0.4,0.4,0.8,0.8,1.3,1.1l-3.6,5.4c2.2,2.2,5.2,3.6,8.6,3.6s6.4-1.4,8.6-3.6L323.7,170z"/>
				</g>
			</g>
			<g class="st1">
				<g>
					<defs>
						<rect id="SVGID_11_" x="218.7" y="87.7" width="80" height="80"/>
					</defs>
					<clipPath id="SVGID_12_">
						<use xlink:href="#SVGID_11_"  style="overflow:visible;"/>
					</clipPath>
					<path class="st6" d="M283.7,170c0.5-0.3,0.9-0.7,1.3-1.1l-3.9-5.8c0.5-0.2,0.9-0.6,1.3-0.9l-3.7-5.6l-3.7,5.6
						c0.4,0.4,0.8,0.7,1.3,0.9l-3.9,5.8c0.4,0.4,0.8,0.8,1.3,1.1l-3.6,5.4c2.2,2.2,5.2,3.6,8.6,3.6s6.4-1.4,8.6-3.6L283.7,170z"/>
					<path class="st6" d="M243.7,170c0.5-0.3,0.9-0.7,1.3-1.1l-3.9-5.8c0.5-0.2,0.9-0.6,1.3-0.9l-3.7-5.6l-3.7,5.6
						c0.4,0.4,0.8,0.7,1.3,0.9l-3.9,5.8c0.4,0.4,0.8,0.8,1.3,1.1l-3.6,5.4c2.2,2.2,5.2,3.6,8.6,3.6s6.4-1.4,8.6-3.6L243.7,170z"/>
					<path class="st6" d="M303.7,130c0.5-0.3,0.9-0.7,1.3-1.1l-3.9-5.8c0.5-0.2,0.9-0.6,1.3-0.9l-3.7-5.6l-3.7,5.6
						c0.4,0.4,0.8,0.7,1.3,0.9l-3.9,5.8c0.4,0.4,0.8,0.8,1.3,1.1l-3.6,5.4c2.2,2.2,5.2,3.6,8.6,3.6s6.4-1.4,8.6-3.6L303.7,130z"/>
					<path class="st6" d="M263.7,130c0.5-0.3,0.9-0.7,1.3-1.1l-3.9-5.8c0.5-0.2,0.9-0.6,1.3-0.9l-3.7-5.6l-3.7,5.6
						c0.4,0.4,0.8,0.7,1.3,0.9l-3.9,5.8c0.4,0.4,0.8,0.8,1.3,1.1l-3.6,5.4c2.2,2.2,5.2,3.6,8.6,3.6s6.4-1.4,8.6-3.6L263.7,130z"/>
					<path class="st6" d="M223.7,130c0.5-0.3,0.9-0.7,1.3-1.1l-3.9-5.8c0.5-0.2,0.9-0.6,1.3-0.9l-3.7-5.6l-3.7,5.6
						c0.4,0.4,0.8,0.7,1.3,0.9l-3.9,5.8c0.4,0.4,0.8,0.8,1.3,1.1l-3.6,5.4c2.2,2.2,5.2,3.6,8.6,3.6s6.4-1.4,8.6-3.6L223.7,130z"/>
					<path class="st6" d="M283.7,90c0.5-0.3,0.9-0.7,1.3-1.1l-3.9-5.8c0.5-0.2,0.9-0.6,1.3-0.9l-3.7-5.6l-3.7,5.6
						c0.4,0.4,0.8,0.7,1.3,0.9l-3.9,5.8c0.4,0.4,0.8,0.8,1.3,1.1l-3.6,5.4c2.2,2.2,5.2,3.6,8.6,3.6s6.4-1.4,8.6-3.6L283.7,90z"/>
					<path class="st6" d="M243.7,90c0.5-0.3,0.9-0.7,1.3-1.1l-3.9-5.8c0.5-0.2,0.9-0.6,1.3-0.9l-3.7-5.6l-3.7,5.6
						c0.4,0.4,0.8,0.7,1.3,0.9l-3.9,5.8c0.4,0.4,0.8,0.8,1.3,1.1l-3.6,5.4c2.2,2.2,5.2,3.6,8.6,3.6s6.4-1.4,8.6-3.6L243.7,90z"/>
				</g>
			</g>
			<g class="st1">
				<g>
					<defs>
						<rect id="SVGID_13_" x="218.7" y="167.7" width="80" height="80"/>
					</defs>
					<clipPath id="SVGID_14_">
						<use xlink:href="#SVGID_13_"  style="overflow:visible;"/>
					</clipPath>
					<path class="st7" d="M283.7,250c0.5-0.3,0.9-0.7,1.3-1.1l-3.9-5.8c0.5-0.2,0.9-0.6,1.3-0.9l-3.7-5.6l-3.7,5.6
						c0.4,0.4,0.8,0.7,1.3,0.9l-3.9,5.8c0.4,0.4,0.8,0.8,1.3,1.1l-3.6,5.4c2.2,2.2,5.2,3.6,8.6,3.6s6.4-1.4,8.6-3.6L283.7,250z"/>
					<path class="st7" d="M243.7,250c0.5-0.3,0.9-0.7,1.3-1.1l-3.9-5.8c0.5-0.2,0.9-0.6,1.3-0.9l-3.7-5.6l-3.7,5.6
						c0.4,0.4,0.8,0.7,1.3,0.9l-3.9,5.8c0.4,0.4,0.8,0.8,1.3,1.1l-3.6,5.4c2.2,2.2,5.2,3.6,8.6,3.6s6.4-1.4,8.6-3.6L243.7,250z"/>
					<path class="st7" d="M303.7,210c0.5-0.3,0.9-0.7,1.3-1.1l-3.9-5.8c0.5-0.2,0.9-0.6,1.3-0.9l-3.7-5.6l-3.7,5.6
						c0.4,0.4,0.8,0.7,1.3,0.9l-3.9,5.8c0.4,0.4,0.8,0.8,1.3,1.1l-3.6,5.4c2.2,2.2,5.2,3.6,8.6,3.6s6.4-1.4,8.6-3.6L303.7,210z"/>
					<path class="st7" d="M263.7,210c0.5-0.3,0.9-0.7,1.3-1.1l-3.9-5.8c0.5-0.2,0.9-0.6,1.3-0.9l-3.7-5.6l-3.7,5.6
						c0.4,0.4,0.8,0.7,1.3,0.9l-3.9,5.8c0.4,0.4,0.8,0.8,1.3,1.1l-3.6,5.4c2.2,2.2,5.2,3.6,8.6,3.6s6.4-1.4,8.6-3.6L263.7,210z"/>
					<path class="st7" d="M223.7,210c0.5-0.3,0.9-0.7,1.3-1.1l-3.9-5.8c0.5-0.2,0.9-0.6,1.3-0.9l-3.7-5.6l-3.7,5.6
						c0.4,0.4,0.8,0.7,1.3,0.9l-3.9,5.8c0.4,0.4,0.8,0.8,1.3,1.1l-3.6,5.4c2.2,2.2,5.2,3.6,8.6,3.6s6.4-1.4,8.6-3.6L223.7,210z"/>
					<path class="st7" d="M283.7,170c0.5-0.3,0.9-0.7,1.3-1.1l-3.9-5.8c0.5-0.2,0.9-0.6,1.3-0.9l-3.7-5.6l-3.7,5.6
						c0.4,0.4,0.8,0.7,1.3,0.9l-3.9,5.8c0.4,0.4,0.8,0.8,1.3,1.1l-3.6,5.4c2.2,2.2,5.2,3.6,8.6,3.6s6.4-1.4,8.6-3.6L283.7,170z"/>
					<path class="st7" d="M243.7,170c0.5-0.3,0.9-0.7,1.3-1.1l-3.9-5.8c0.5-0.2,0.9-0.6,1.3-0.9l-3.7-5.6l-3.7,5.6
						c0.4,0.4,0.8,0.7,1.3,0.9l-3.9,5.8c0.4,0.4,0.8,0.8,1.3,1.1l-3.6,5.4c2.2,2.2,5.2,3.6,8.6,3.6s6.4-1.4,8.6-3.6L243.7,170z"/>
				</g>
			</g>
			<g class="st1">
				<g>
					<defs>
						<rect id="SVGID_15_" x="138.7" y="87.7" width="80" height="80"/>
					</defs>
					<clipPath id="SVGID_16_">
						<use xlink:href="#SVGID_15_"  style="overflow:visible;"/>
					</clipPath>
					<path class="st8" d="M203.7,170c0.5-0.3,0.9-0.7,1.3-1.1l-3.9-5.8c0.5-0.2,0.9-0.6,1.3-0.9l-3.7-5.6l-3.7,5.6
						c0.4,0.4,0.8,0.7,1.3,0.9l-3.9,5.8c0.4,0.4,0.8,0.8,1.3,1.1l-3.6,5.4c2.2,2.2,5.2,3.6,8.6,3.6s6.4-1.4,8.6-3.6L203.7,170z"/>
					<path class="st8" d="M163.7,170c0.5-0.3,0.9-0.7,1.3-1.1l-3.9-5.8c0.5-0.2,0.9-0.6,1.3-0.9l-3.7-5.6l-3.7,5.6
						c0.4,0.4,0.8,0.7,1.3,0.9l-3.9,5.8c0.4,0.4,0.8,0.8,1.3,1.1l-3.6,5.4c2.2,2.2,5.2,3.6,8.6,3.6s6.4-1.4,8.6-3.6L163.7,170z"/>
					<path class="st8" d="M223.7,130c0.5-0.3,0.9-0.7,1.3-1.1l-3.9-5.8c0.5-0.2,0.9-0.6,1.3-0.9l-3.7-5.6l-3.7,5.6
						c0.4,0.4,0.8,0.7,1.3,0.9l-3.9,5.8c0.4,0.4,0.8,0.8,1.3,1.1l-3.6,5.4c2.2,2.2,5.2,3.6,8.6,3.6s6.4-1.4,8.6-3.6L223.7,130z"/>
					<path class="st8" d="M183.7,130c0.5-0.3,0.9-0.7,1.3-1.1l-3.9-5.8c0.5-0.2,0.9-0.6,1.3-0.9l-3.7-5.6l-3.7,5.6
						c0.4,0.4,0.8,0.7,1.3,0.9l-3.9,5.8c0.4,0.4,0.8,0.8,1.3,1.1l-3.6,5.4c2.2,2.2,5.2,3.6,8.6,3.6s6.4-1.4,8.6-3.6L183.7,130z"/>
					<path class="st8" d="M143.7,130c0.5-0.3,0.9-0.7,1.3-1.1l-3.9-5.8c0.5-0.2,0.9-0.6,1.3-0.9l-3.7-5.6l-3.7,5.6
						c0.4,0.4,0.8,0.7,1.3,0.9l-3.9,5.8c0.4,0.4,0.8,0.8,1.3,1.1l-3.6,5.4c2.2,2.2,5.2,3.6,8.6,3.6s6.4-1.4,8.6-3.6L143.7,130z"/>
					<path class="st8" d="M203.7,90c0.5-0.3,0.9-0.7,1.3-1.1l-3.9-5.8c0.5-0.2,0.9-0.6,1.3-0.9l-3.7-5.6l-3.7,5.6
						c0.4,0.4,0.8,0.7,1.3,0.9l-3.9,5.8c0.4,0.4,0.8,0.8,1.3,1.1l-3.6,5.4c2.2,2.2,5.2,3.6,8.6,3.6s6.4-1.4,8.6-3.6L203.7,90z"/>
					<path class="st8" d="M163.7,90c0.5-0.3,0.9-0.7,1.3-1.1l-3.9-5.8c0.5-0.2,0.9-0.6,1.3-0.9l-3.7-5.6l-3.7,5.6
						c0.4,0.4,0.8,0.7,1.3,0.9l-3.9,5.8c0.4,0.4,0.8,0.8,1.3,1.1l-3.6,5.4c2.2,2.2,5.2,3.6,8.6,3.6s6.4-1.4,8.6-3.6L163.7,90z"/>
				</g>
			</g>
			<g class="st1">
				<g>
					<defs>
						<rect id="SVGID_17_" x="138.7" y="167.7" width="80" height="80"/>
					</defs>
					<clipPath id="SVGID_18_">
						<use xlink:href="#SVGID_17_"  style="overflow:visible;"/>
					</clipPath>
					<path class="st9" d="M203.7,250c0.5-0.3,0.9-0.7,1.3-1.1l-3.9-5.8c0.5-0.2,0.9-0.6,1.3-0.9l-3.7-5.6l-3.7,5.6
						c0.4,0.4,0.8,0.7,1.3,0.9l-3.9,5.8c0.4,0.4,0.8,0.8,1.3,1.1l-3.6,5.4c2.2,2.2,5.2,3.6,8.6,3.6s6.4-1.4,8.6-3.6L203.7,250z"/>
					<path class="st9" d="M163.7,250c0.5-0.3,0.9-0.7,1.3-1.1l-3.9-5.8c0.5-0.2,0.9-0.6,1.3-0.9l-3.7-5.6l-3.7,5.6
						c0.4,0.4,0.8,0.7,1.3,0.9l-3.9,5.8c0.4,0.4,0.8,0.8,1.3,1.1l-3.6,5.4c2.2,2.2,5.2,3.6,8.6,3.6s6.4-1.4,8.6-3.6L163.7,250z"/>
					<path class="st9" d="M223.7,210c0.5-0.3,0.9-0.7,1.3-1.1l-3.9-5.8c0.5-0.2,0.9-0.6,1.3-0.9l-3.7-5.6l-3.7,5.6
						c0.4,0.4,0.8,0.7,1.3,0.9l-3.9,5.8c0.4,0.4,0.8,0.8,1.3,1.1l-3.6,5.4c2.2,2.2,5.2,3.6,8.6,3.6s6.4-1.4,8.6-3.6L223.7,210z"/>
					<path class="st9" d="M183.7,210c0.5-0.3,0.9-0.7,1.3-1.1l-3.9-5.8c0.5-0.2,0.9-0.6,1.3-0.9l-3.7-5.6l-3.7,5.6
						c0.4,0.4,0.8,0.7,1.3,0.9l-3.9,5.8c0.4,0.4,0.8,0.8,1.3,1.1l-3.6,5.4c2.2,2.2,5.2,3.6,8.6,3.6s6.4-1.4,8.6-3.6L183.7,210z"/>
					<path class="st9" d="M143.7,210c0.5-0.3,0.9-0.7,1.3-1.1l-3.9-5.8c0.5-0.2,0.9-0.6,1.3-0.9l-3.7-5.6l-3.7,5.6
						c0.4,0.4,0.8,0.7,1.3,0.9l-3.9,5.8c0.4,0.4,0.8,0.8,1.3,1.1l-3.6,5.4c2.2,2.2,5.2,3.6,8.6,3.6s6.4-1.4,8.6-3.6L143.7,210z"/>
					<path class="st9" d="M203.7,170c0.5-0.3,0.9-0.7,1.3-1.1l-3.9-5.8c0.5-0.2,0.9-0.6,1.3-0.9l-3.7-5.6l-3.7,5.6
						c0.4,0.4,0.8,0.7,1.3,0.9l-3.9,5.8c0.4,0.4,0.8,0.8,1.3,1.1l-3.6,5.4c2.2,2.2,5.2,3.6,8.6,3.6s6.4-1.4,8.6-3.6L203.7,170z"/>
					<path class="st9" d="M163.7,170c0.5-0.3,0.9-0.7,1.3-1.1l-3.9-5.8c0.5-0.2,0.9-0.6,1.3-0.9l-3.7-5.6l-3.7,5.6
						c0.4,0.4,0.8,0.7,1.3,0.9l-3.9,5.8c0.4,0.4,0.8,0.8,1.3,1.1l-3.6,5.4c2.2,2.2,5.2,3.6,8.6,3.6s6.4-1.4,8.6-3.6L163.7,170z"/>
				</g>
			</g>
			<g class="st1">
				<g>
					<defs>
						<rect id="SVGID_19_" x="58.7" y="87.7" width="80" height="80"/>
					</defs>
					<clipPath id="SVGID_20_">
						<use xlink:href="#SVGID_19_"  style="overflow:visible;"/>
					</clipPath>
					<path class="st10" d="M123.7,170c0.5-0.3,0.9-0.7,1.3-1.1l-3.9-5.8c0.5-0.2,0.9-0.6,1.3-0.9l-3.7-5.6l-3.7,5.6
						c0.4,0.4,0.8,0.7,1.3,0.9l-3.9,5.8c0.4,0.4,0.8,0.8,1.3,1.1l-3.6,5.4c2.2,2.2,5.2,3.6,8.6,3.6s6.4-1.4,8.6-3.6L123.7,170z"/>
					<path class="st10" d="M83.7,170c0.5-0.3,0.9-0.7,1.3-1.1l-3.9-5.8c0.5-0.2,0.9-0.6,1.3-0.9l-3.7-5.6l-3.7,5.6
						c0.4,0.4,0.8,0.7,1.3,0.9l-3.9,5.8c0.4,0.4,0.8,0.8,1.3,1.1l-3.6,5.4c2.2,2.2,5.2,3.6,8.6,3.6s6.4-1.4,8.6-3.6L83.7,170z"/>
					<path class="st10" d="M143.7,130c0.5-0.3,0.9-0.7,1.3-1.1l-3.9-5.8c0.5-0.2,0.9-0.6,1.3-0.9l-3.7-5.6l-3.7,5.6
						c0.4,0.4,0.8,0.7,1.3,0.9l-3.9,5.8c0.4,0.4,0.8,0.8,1.3,1.1l-3.6,5.4c2.2,2.2,5.2,3.6,8.6,3.6s6.4-1.4,8.6-3.6L143.7,130z"/>
					<path class="st10" d="M103.7,130c0.5-0.3,0.9-0.7,1.3-1.1l-3.9-5.8c0.5-0.2,0.9-0.6,1.3-0.9l-3.7-5.6l-3.7,5.6
						c0.4,0.4,0.8,0.7,1.3,0.9l-3.9,5.8c0.4,0.4,0.8,0.8,1.3,1.1l-3.6,5.4c2.2,2.2,5.2,3.6,8.6,3.6s6.4-1.4,8.6-3.6L103.7,130z"/>
					<path class="st10" d="M63.7,130c0.5-0.3,0.9-0.7,1.3-1.1l-3.9-5.8c0.5-0.2,0.9-0.6,1.3-0.9l-3.7-5.6l-3.7,5.6
						c0.4,0.4,0.8,0.7,1.3,0.9l-3.9,5.8c0.4,0.4,0.8,0.8,1.3,1.1l-3.6,5.4c2.2,2.2,5.2,3.6,8.6,3.6c3.4,0,6.4-1.4,8.6-3.6L63.7,130z
						"/>
					<path class="st10" d="M123.7,90c0.5-0.3,0.9-0.7,1.3-1.1l-3.9-5.8c0.5-0.2,0.9-0.6,1.3-0.9l-3.7-5.6l-3.7,5.6
						c0.4,0.4,0.8,0.7,1.3,0.9l-3.9,5.8c0.4,0.4,0.8,0.8,1.3,1.1l-3.6,5.4c2.2,2.2,5.2,3.6,8.6,3.6s6.4-1.4,8.6-3.6L123.7,90z"/>
					<path class="st10" d="M83.7,90c0.5-0.3,0.9-0.7,1.3-1.1l-3.9-5.8c0.5-0.2,0.9-0.6,1.3-0.9l-3.7-5.6l-3.7,5.6
						c0.4,0.4,0.8,0.7,1.3,0.9l-3.9,5.8c0.4,0.4,0.8,0.8,1.3,1.1l-3.6,5.4c2.2,2.2,5.2,3.6,8.6,3.6s6.4-1.4,8.6-3.6L83.7,90z"/>
				</g>
			</g>
			<g class="st1">
				<g>
					<defs>
						<rect id="SVGID_21_" x="58.7" y="167.7" width="80" height="80"/>
					</defs>
					<clipPath id="SVGID_22_">
						<use xlink:href="#SVGID_21_"  style="overflow:visible;"/>
					</clipPath>
					<path class="st11" d="M123.7,250c0.5-0.3,0.9-0.7,1.3-1.1l-3.9-5.8c0.5-0.2,0.9-0.6,1.3-0.9l-3.7-5.6l-3.7,5.6
						c0.4,0.4,0.8,0.7,1.3,0.9l-3.9,5.8c0.4,0.4,0.8,0.8,1.3,1.1l-3.6,5.4c2.2,2.2,5.2,3.6,8.6,3.6s6.4-1.4,8.6-3.6L123.7,250z"/>
					<path class="st11" d="M83.7,250c0.5-0.3,0.9-0.7,1.3-1.1l-3.9-5.8c0.5-0.2,0.9-0.6,1.3-0.9l-3.7-5.6l-3.7,5.6
						c0.4,0.4,0.8,0.7,1.3,0.9l-3.9,5.8c0.4,0.4,0.8,0.8,1.3,1.1l-3.6,5.4c2.2,2.2,5.2,3.6,8.6,3.6s6.4-1.4,8.6-3.6L83.7,250z"/>
					<path class="st11" d="M143.7,210c0.5-0.3,0.9-0.7,1.3-1.1l-3.9-5.8c0.5-0.2,0.9-0.6,1.3-0.9l-3.7-5.6l-3.7,5.6
						c0.4,0.4,0.8,0.7,1.3,0.9l-3.9,5.8c0.4,0.4,0.8,0.8,1.3,1.1l-3.6,5.4c2.2,2.2,5.2,3.6,8.6,3.6s6.4-1.4,8.6-3.6L143.7,210z"/>
					<path class="st11" d="M103.7,210c0.5-0.3,0.9-0.7,1.3-1.1l-3.9-5.8c0.5-0.2,0.9-0.6,1.3-0.9l-3.7-5.6l-3.7,5.6
						c0.4,0.4,0.8,0.7,1.3,0.9l-3.9,5.8c0.4,0.4,0.8,0.8,1.3,1.1l-3.6,5.4c2.2,2.2,5.2,3.6,8.6,3.6s6.4-1.4,8.6-3.6L103.7,210z"/>
					<path class="st11" d="M63.7,210c0.5-0.3,0.9-0.7,1.3-1.1l-3.9-5.8c0.5-0.2,0.9-0.6,1.3-0.9l-3.7-5.6l-3.7,5.6
						c0.4,0.4,0.8,0.7,1.3,0.9l-3.9,5.8c0.4,0.4,0.8,0.8,1.3,1.1l-3.6,5.4c2.2,2.2,5.2,3.6,8.6,3.6c3.4,0,6.4-1.4,8.6-3.6L63.7,210z
						"/>
					<path class="st11" d="M123.7,170c0.5-0.3,0.9-0.7,1.3-1.1l-3.9-5.8c0.5-0.2,0.9-0.6,1.3-0.9l-3.7-5.6l-3.7,5.6
						c0.4,0.4,0.8,0.7,1.3,0.9l-3.9,5.8c0.4,0.4,0.8,0.8,1.3,1.1l-3.6,5.4c2.2,2.2,5.2,3.6,8.6,3.6s6.4-1.4,8.6-3.6L123.7,170z"/>
					<path class="st11" d="M83.7,170c0.5-0.3,0.9-0.7,1.3-1.1l-3.9-5.8c0.5-0.2,0.9-0.6,1.3-0.9l-3.7-5.6l-3.7,5.6
						c0.4,0.4,0.8,0.7,1.3,0.9l-3.9,5.8c0.4,0.4,0.8,0.8,1.3,1.1l-3.6,5.4c2.2,2.2,5.2,3.6,8.6,3.6s6.4-1.4,8.6-3.6L83.7,170z"/>
				</g>
			</g>
			<g class="st1">
				<g>
					<defs>
						<rect id="SVGID_23_" x="-21.3" y="87.7" width="80" height="80"/>
					</defs>
					<clipPath id="SVGID_24_">
						<use xlink:href="#SVGID_23_"  style="overflow:visible;"/>
					</clipPath>
					<path class="st12" d="M43.7,170c0.5-0.3,0.9-0.7,1.3-1.1l-3.9-5.8c0.5-0.2,0.9-0.6,1.3-0.9l-3.7-5.6l-3.7,5.6
						c0.4,0.4,0.8,0.7,1.3,0.9l-3.9,5.8c0.4,0.4,0.8,0.8,1.3,1.1l-3.6,5.4c2.2,2.2,5.2,3.6,8.6,3.6c3.4,0,6.4-1.4,8.6-3.6L43.7,170z
						"/>
					<path class="st12" d="M3.7,170c0.5-0.3,0.9-0.7,1.3-1.1l-3.9-5.8c0.5-0.2,0.9-0.6,1.3-0.9l-3.7-5.6l-3.7,5.6
						c0.4,0.4,0.8,0.7,1.3,0.9l-3.9,5.8c0.4,0.4,0.8,0.8,1.3,1.1l-3.6,5.4c2.2,2.2,5.2,3.6,8.6,3.6s6.4-1.4,8.6-3.6L3.7,170z"/>
					<path class="st12" d="M63.7,130c0.5-0.3,0.9-0.7,1.3-1.1l-3.9-5.8c0.5-0.2,0.9-0.6,1.3-0.9l-3.7-5.6l-3.7,5.6
						c0.4,0.4,0.8,0.7,1.3,0.9l-3.9,5.8c0.4,0.4,0.8,0.8,1.3,1.1l-3.6,5.4c2.2,2.2,5.2,3.6,8.6,3.6c3.4,0,6.4-1.4,8.6-3.6L63.7,130z
						"/>
					<path class="st12" d="M23.7,130c0.5-0.3,0.9-0.7,1.3-1.1l-3.9-5.8c0.5-0.2,0.9-0.6,1.3-0.9l-3.7-5.6l-3.7,5.6
						c0.4,0.4,0.8,0.7,1.3,0.9l-3.9,5.8c0.4,0.4,0.8,0.8,1.3,1.1l-3.6,5.4c2.2,2.2,5.2,3.6,8.6,3.6s6.4-1.4,8.6-3.6L23.7,130z"/>
					<path class="st12" d="M-16.3,130c0.5-0.3,0.9-0.7,1.3-1.1l-3.9-5.8c0.5-0.2,0.9-0.6,1.3-0.9l-3.7-5.6l-3.7,5.6
						c0.4,0.4,0.8,0.7,1.3,0.9l-3.9,5.8c0.4,0.4,0.8,0.8,1.3,1.1l-3.6,5.4c2.2,2.2,5.2,3.6,8.6,3.6s6.4-1.4,8.6-3.6L-16.3,130z"/>
					<path class="st12" d="M43.7,90c0.5-0.3,0.9-0.7,1.3-1.1l-3.9-5.8c0.5-0.2,0.9-0.6,1.3-0.9l-3.7-5.6l-3.7,5.6
						c0.4,0.4,0.8,0.7,1.3,0.9l-3.9,5.8c0.4,0.4,0.8,0.8,1.3,1.1l-3.6,5.4c2.2,2.2,5.2,3.6,8.6,3.6c3.4,0,6.4-1.4,8.6-3.6L43.7,90z"
						/>
					<path class="st12" d="M3.7,90c0.5-0.3,0.9-0.7,1.3-1.1l-3.9-5.8c0.5-0.2,0.9-0.6,1.3-0.9l-3.7-5.6l-3.7,5.6
						c0.4,0.4,0.8,0.7,1.3,0.9l-3.9,5.8c0.4,0.4,0.8,0.8,1.3,1.1l-3.6,5.4c2.2,2.2,5.2,3.6,8.6,3.6s6.4-1.4,8.6-3.6L3.7,90z"/>
				</g>
			</g>
			<g class="st1">
				<g>
					<defs>
						<rect id="SVGID_25_" x="-21.3" y="167.7" width="80" height="80"/>
					</defs>
					<clipPath id="SVGID_26_">
						<use xlink:href="#SVGID_25_"  style="overflow:visible;"/>
					</clipPath>
					<path class="st13" d="M43.7,250c0.5-0.3,0.9-0.7,1.3-1.1l-3.9-5.8c0.5-0.2,0.9-0.6,1.3-0.9l-3.7-5.6l-3.7,5.6
						c0.4,0.4,0.8,0.7,1.3,0.9l-3.9,5.8c0.4,0.4,0.8,0.8,1.3,1.1l-3.6,5.4c2.2,2.2,5.2,3.6,8.6,3.6c3.4,0,6.4-1.4,8.6-3.6L43.7,250z
						"/>
					<path class="st13" d="M3.7,250c0.5-0.3,0.9-0.7,1.3-1.1l-3.9-5.8c0.5-0.2,0.9-0.6,1.3-0.9l-3.7-5.6l-3.7,5.6
						c0.4,0.4,0.8,0.7,1.3,0.9l-3.9,5.8c0.4,0.4,0.8,0.8,1.3,1.1l-3.6,5.4c2.2,2.2,5.2,3.6,8.6,3.6s6.4-1.4,8.6-3.6L3.7,250z"/>
					<path class="st13" d="M63.7,210c0.5-0.3,0.9-0.7,1.3-1.1l-3.9-5.8c0.5-0.2,0.9-0.6,1.3-0.9l-3.7-5.6l-3.7,5.6
						c0.4,0.4,0.8,0.7,1.3,0.9l-3.9,5.8c0.4,0.4,0.8,0.8,1.3,1.1l-3.6,5.4c2.2,2.2,5.2,3.6,8.6,3.6c3.4,0,6.4-1.4,8.6-3.6L63.7,210z
						"/>
					<path class="st13" d="M23.7,210c0.5-0.3,0.9-0.7,1.3-1.1l-3.9-5.8c0.5-0.2,0.9-0.6,1.3-0.9l-3.7-5.6l-3.7,5.6
						c0.4,0.4,0.8,0.7,1.3,0.9l-3.9,5.8c0.4,0.4,0.8,0.8,1.3,1.1l-3.6,5.4c2.2,2.2,5.2,3.6,8.6,3.6s6.4-1.4,8.6-3.6L23.7,210z"/>
					<path class="st13" d="M-16.3,210c0.5-0.3,0.9-0.7,1.3-1.1l-3.9-5.8c0.5-0.2,0.9-0.6,1.3-0.9l-3.7-5.6l-3.7,5.6
						c0.4,0.4,0.8,0.7,1.3,0.9l-3.9,5.8c0.4,0.4,0.8,0.8,1.3,1.1l-3.6,5.4c2.2,2.2,5.2,3.6,8.6,3.6s6.4-1.4,8.6-3.6L-16.3,210z"/>
					<path class="st13" d="M43.7,170c0.5-0.3,0.9-0.7,1.3-1.1l-3.9-5.8c0.5-0.2,0.9-0.6,1.3-0.9l-3.7-5.6l-3.7,5.6
						c0.4,0.4,0.8,0.7,1.3,0.9l-3.9,5.8c0.4,0.4,0.8,0.8,1.3,1.1l-3.6,5.4c2.2,2.2,5.2,3.6,8.6,3.6c3.4,0,6.4-1.4,8.6-3.6L43.7,170z
						"/>
					<path class="st13" d="M3.7,170c0.5-0.3,0.9-0.7,1.3-1.1l-3.9-5.8c0.5-0.2,0.9-0.6,1.3-0.9l-3.7-5.6l-3.7,5.6
						c0.4,0.4,0.8,0.7,1.3,0.9l-3.9,5.8c0.4,0.4,0.8,0.8,1.3,1.1l-3.6,5.4c2.2,2.2,5.2,3.6,8.6,3.6s6.4-1.4,8.6-3.6L3.7,170z"/>
				</g>
			</g>
		</g>
	</g>
	<g>
		<line class="st14" x1="208.4" y1="218.2" x2="208.4" y2="124.6"/>
		<rect x="188.4" y="124.6" class="st15" width="40" height="93.6"/>
	</g>
	<g>
		<path class="st15" d="M192.7,125.1c-18.9,0-71.5-1.8-90.6-21.3c-23.6-24-23.2-62.8,0.8-86.4c24-23.6,62.8-23.2,86.4,0.8
			c22.2,22.6,19.7,89.7,19.4,97.2l-0.4,9.3l-9.3,0.3C197.9,125.1,195.7,125.1,192.7,125.1z M145.7,20c-10.4,0-20.8,3.9-28.8,11.7
			c-16.2,15.9-16.4,41.9-0.6,58.1c10.8,11,46.9,15,72.5,15.3c0.2-25.7-3.2-61.9-13.9-72.8C167,24.1,156.3,20,145.7,20z"/>
	</g>
	<g>
		<path class="st15" d="M228.1,125.5c-6.2,0-10.7-0.2-12.3-0.3l-9.3-0.4l-0.3-9.3c-0.2-7.6-1.4-74.7,21.2-96.8l0,0
			c24-23.6,62.8-23.2,86.4,0.8c11.4,11.6,17.6,27,17.5,43.4s-6.7,31.6-18.3,43C295.4,123.2,250.5,125.5,228.1,125.5z M226.2,105.5
			c25.7,0.1,61.9-3.2,72.8-13.9c7.8-7.7,12.2-18,12.3-28.9c0.1-11-4.1-21.3-11.7-29.2c-15.9-16.2-41.9-16.4-58.1-0.6l0,0
			C230.6,43.7,226.5,79.8,226.2,105.5z"/>
	</g>
</g>
</svg>
