<?xml version="1.0" encoding="utf-8"?>
<!-- Generator: Adobe Illustrator 19.1.1, SVG Export Plug-In . SVG Version: 6.00 Build 0)  -->
<svg version="1.1" id="Layer_1" xmlns="http://www.w3.org/2000/svg" xmlns:xlink="http://www.w3.org/1999/xlink" x="0px" y="0px"
	 viewBox="0 0 416.9 217.7" style="enable-background:new 0 0 416.9 217.7;" xml:space="preserve">
<style type="text/css">
	.st0{fill:#1E6FB1;}
	.st1{clip-path:url(#SVGID_2_);}
	.st2{clip-path:url(#SVGID_4_);}
	.st3{fill:#BA9E51;}
	.st4{fill:#002856;}
	.st5{clip-path:url(#SVGID_6_);}
	.st6{clip-path:url(#SVGID_8_);}
	.st7{fill:#F3F3F3;}
</style>
<g>
	<path class="st0" d="M414.9,217.7H2c-1.1,0-2-0.9-2-2V125c0-1.1,0.9-2,2-2h412.9c1.1,0,2,0.9,2,2v90.6
		C416.9,216.8,416,217.7,414.9,217.7z"/>
	<g>
		<g>
			<defs>
				<path id="SVGID_1_" d="M414.9,123H2c-1.1,0-2,0.9-2,2v90.6c0,1.1,0.9,2,2,2h14.1h384.6h14.1c1.1,0,2-0.9,2-2V125
					C416.9,123.9,416,123,414.9,123z"/>
			</defs>
			<clipPath id="SVGID_2_">
				<use xlink:href="#SVGID_1_"  style="overflow:visible;"/>
			</clipPath>
			<g class="st1">
				<g>
					<defs>
						<rect id="SVGID_3_" x="227.4" y="53.4" width="200" height="180"/>
					</defs>
					<clipPath id="SVGID_4_">
						<use xlink:href="#SVGID_3_"  style="overflow:visible;"/>
					</clipPath>
					<g class="st2">
						<circle class="st3" cx="289.4" cy="236.4" r="5.8"/>
					</g>
					<g class="st2">
						<circle class="st3" cx="239.4" cy="221.4" r="5.8"/>
					</g>
					<g class="st2">
						<circle class="st4" cx="415.4" cy="185.4" r="5.8"/>
					</g>
					<g class="st2">
						<circle class="st3" cx="389.4" cy="206.4" r="5.8"/>
						<circle class="st4" cx="365.4" cy="230.4" r="5.8"/>
					</g>
					<g class="st2">
						<circle class="st3" cx="339.4" cy="191.4" r="5.8"/>
						<circle class="st4" cx="315.4" cy="215.4" r="5.8"/>
					</g>
					<g class="st2">
						<circle class="st3" cx="289.4" cy="176.4" r="5.8"/>
						<circle class="st4" cx="265.4" cy="200.4" r="5.8"/>
					</g>
					<g class="st2">
						<circle class="st3" cx="239.4" cy="161.4" r="5.8"/>
					</g>
					<g class="st2">
						<circle class="st4" cx="415.4" cy="125.4" r="5.8"/>
					</g>
					<g class="st2">
						<circle class="st3" cx="389.4" cy="146.4" r="5.8"/>
						<circle class="st4" cx="365.4" cy="170.4" r="5.8"/>
					</g>
					<g class="st2">
						<circle class="st3" cx="339.4" cy="131.4" r="5.8"/>
						<circle class="st4" cx="315.4" cy="155.4" r="5.8"/>
					</g>
					<g class="st2">
						<circle class="st3" cx="289.4" cy="116.4" r="5.8"/>
						<circle class="st4" cx="265.4" cy="140.4" r="5.8"/>
					</g>
					<g class="st2">
						<circle class="st3" cx="239.4" cy="101.4" r="5.8"/>
					</g>
					<g class="st2">
						<circle class="st4" cx="415.4" cy="65.4" r="5.8"/>
					</g>
					<g class="st2">
						<circle class="st3" cx="389.4" cy="86.4" r="5.8"/>
						<circle class="st4" cx="365.4" cy="110.4" r="5.8"/>
					</g>
					<g class="st2">
						<circle class="st3" cx="339.4" cy="71.4" r="5.8"/>
						<circle class="st4" cx="315.4" cy="95.4" r="5.8"/>
					</g>
					<g class="st2">
						<circle class="st3" cx="289.4" cy="56.4" r="5.8"/>
						<circle class="st4" cx="265.4" cy="80.4" r="5.8"/>
					</g>
					<g class="st2">
						<circle class="st4" cx="365.4" cy="50.4" r="5.8"/>
					</g>
				</g>
			</g>
			<g class="st1">
				<g>
					<defs>
						<rect id="SVGID_5_" x="27.4" y="53.4" width="200" height="180"/>
					</defs>
					<clipPath id="SVGID_6_">
						<use xlink:href="#SVGID_5_"  style="overflow:visible;"/>
					</clipPath>
					<g class="st5">
						<circle class="st3" cx="89.4" cy="236.4" r="5.8"/>
					</g>
					<g class="st5">
						<circle class="st3" cx="39.4" cy="221.4" r="5.8"/>
					</g>
					<g class="st5">
						<circle class="st4" cx="215.4" cy="185.4" r="5.8"/>
					</g>
					<g class="st5">
						<circle class="st3" cx="189.4" cy="206.4" r="5.8"/>
						<circle class="st4" cx="165.4" cy="230.4" r="5.8"/>
					</g>
					<g class="st5">
						<circle class="st3" cx="139.4" cy="191.4" r="5.8"/>
						<circle class="st4" cx="115.4" cy="215.4" r="5.8"/>
					</g>
					<g class="st5">
						<circle class="st3" cx="89.4" cy="176.4" r="5.8"/>
						<circle class="st4" cx="65.4" cy="200.4" r="5.8"/>
					</g>
					<g class="st5">
						<circle class="st3" cx="39.4" cy="161.4" r="5.8"/>
					</g>
					<g class="st5">
						<circle class="st4" cx="215.4" cy="125.4" r="5.8"/>
					</g>
					<g class="st5">
						<circle class="st3" cx="189.4" cy="146.4" r="5.8"/>
						<circle class="st4" cx="165.4" cy="170.4" r="5.8"/>
					</g>
					<g class="st5">
						<circle class="st3" cx="139.4" cy="131.4" r="5.8"/>
						<circle class="st4" cx="115.4" cy="155.4" r="5.8"/>
					</g>
					<g class="st5">
						<circle class="st3" cx="89.4" cy="116.4" r="5.8"/>
						<circle class="st4" cx="65.4" cy="140.4" r="5.8"/>
					</g>
					<g class="st5">
						<circle class="st3" cx="39.4" cy="101.4" r="5.8"/>
					</g>
					<g class="st5">
						<circle class="st4" cx="215.4" cy="65.4" r="5.8"/>
					</g>
					<g class="st5">
						<circle class="st3" cx="189.4" cy="86.4" r="5.8"/>
						<circle class="st4" cx="165.4" cy="110.4" r="5.8"/>
					</g>
					<g class="st5">
						<circle class="st3" cx="139.4" cy="71.4" r="5.8"/>
						<circle class="st4" cx="115.4" cy="95.4" r="5.8"/>
					</g>
					<g class="st5">
						<circle class="st3" cx="89.4" cy="56.4" r="5.8"/>
						<circle class="st4" cx="65.4" cy="80.4" r="5.8"/>
					</g>
					<g class="st5">
						<circle class="st4" cx="165.4" cy="50.4" r="5.8"/>
					</g>
				</g>
			</g>
			<g class="st1">
				<g>
					<defs>
						<rect id="SVGID_7_" x="-172.6" y="53.4" width="200" height="180"/>
					</defs>
					<clipPath id="SVGID_8_">
						<use xlink:href="#SVGID_7_"  style="overflow:visible;"/>
					</clipPath>
					<g class="st6">
						<circle class="st3" cx="-110.6" cy="236.4" r="5.8"/>
					</g>
					<g class="st6">
						<circle class="st3" cx="-160.6" cy="221.4" r="5.8"/>
					</g>
					<g class="st6">
						<circle class="st4" cx="15.4" cy="185.4" r="5.8"/>
					</g>
					<g class="st6">
						<circle class="st3" cx="-10.6" cy="206.4" r="5.8"/>
						<circle class="st4" cx="-34.6" cy="230.4" r="5.8"/>
					</g>
					<g class="st6">
						<circle class="st3" cx="-60.6" cy="191.4" r="5.8"/>
						<circle class="st4" cx="-84.6" cy="215.4" r="5.8"/>
					</g>
					<g class="st6">
						<circle class="st3" cx="-110.6" cy="176.4" r="5.8"/>
						<circle class="st4" cx="-134.6" cy="200.4" r="5.8"/>
					</g>
					<g class="st6">
						<circle class="st3" cx="-160.6" cy="161.4" r="5.8"/>
					</g>
					<g class="st6">
						<circle class="st4" cx="15.4" cy="125.4" r="5.8"/>
					</g>
					<g class="st6">
						<circle class="st3" cx="-10.6" cy="146.4" r="5.8"/>
						<circle class="st4" cx="-34.6" cy="170.4" r="5.8"/>
					</g>
					<g class="st6">
						<circle class="st3" cx="-60.6" cy="131.4" r="5.8"/>
						<circle class="st4" cx="-84.6" cy="155.4" r="5.8"/>
					</g>
					<g class="st6">
						<circle class="st3" cx="-110.6" cy="116.4" r="5.8"/>
						<circle class="st4" cx="-134.6" cy="140.4" r="5.8"/>
					</g>
					<g class="st6">
						<circle class="st3" cx="-160.6" cy="101.4" r="5.8"/>
					</g>
					<g class="st6">
						<circle class="st4" cx="15.4" cy="65.4" r="5.8"/>
					</g>
					<g class="st6">
						<circle class="st3" cx="-10.6" cy="86.4" r="5.8"/>
						<circle class="st4" cx="-34.6" cy="110.4" r="5.8"/>
					</g>
					<g class="st6">
						<circle class="st3" cx="-60.6" cy="71.4" r="5.8"/>
						<circle class="st4" cx="-84.6" cy="95.4" r="5.8"/>
					</g>
					<g class="st6">
						<circle class="st3" cx="-110.6" cy="56.4" r="5.8"/>
						<circle class="st4" cx="-134.6" cy="80.4" r="5.8"/>
					</g>
					<g class="st6">
						<circle class="st4" cx="-34.6" cy="50.4" r="5.8"/>
					</g>
				</g>
			</g>
		</g>
	</g>
	<g>
		<rect x="188.4" y="123.1" class="st7" width="40" height="94.6"/>
	</g>
	<g>
		<path class="st7" d="M190.3,124.7c-21,0-69.5-2.1-87.9-20.4c-23.8-23.8-23.8-62.6,0-86.4C114,6.4,129.4,0,145.7,0
			s31.6,6.4,43.2,17.9h0c22.4,22.4,20.6,89.5,20.3,97l-0.3,9.3l-9.3,0.3C198.2,124.6,194.9,124.7,190.3,124.7z M145.7,20
			c-11,0-21.3,4.3-29,12c-16,16-16,42.1,0,58.1c10.8,10.8,47,14.5,72.7,14.6c-0.1-25.7-3.8-61.8-14.6-72.7h0
			C167,24.3,156.6,20,145.7,20z"/>
	</g>
	<g>
		<path class="st7" d="M225.6,124.7c-4.6,0-7.8-0.1-9.2-0.1l-9.3-0.3l-0.3-9.3c-0.3-7.6-2.1-74.7,20.3-97h0h0
			C238.6,6.4,254,0,270.3,0s31.6,6.4,43.2,17.9c23.8,23.8,23.8,62.6,0,86.4C295.1,122.6,246.6,124.7,225.6,124.7z M270.3,20
			c-11,0-21.3,4.3-29,12h0c-10.9,10.9-14.5,47-14.6,72.7c25.7-0.1,61.8-3.8,72.7-14.6c16-16,16-42.1,0-58.1
			C291.6,24.3,281.2,20,270.3,20z"/>
	</g>
</g>
</svg>
