<?xml version="1.0" encoding="utf-8"?>
<!-- Generator: Adobe Illustrator 19.1.1, SVG Export Plug-In . SVG Version: 6.00 Build 0)  -->
<svg version="1.1" id="Layer_1" xmlns="http://www.w3.org/2000/svg" xmlns:xlink="http://www.w3.org/1999/xlink" x="0px" y="0px"
	 viewBox="0 0 11.6 11.6" style="enable-background:new 0 0 11.6 11.6;" xml:space="preserve">
<style type="text/css">
	.st0{fill:#F15A54;}
</style>
<path class="st0" d="M5.8,0C2.6,0,0,2.6,0,5.8c0,3.2,2.6,5.8,5.8,5.8s5.8-2.6,5.8-5.8C11.6,2.6,9,0,5.8,0z M8.6,7.7
	c0.3,0.3,0.3,0.7,0,0.9C8.4,8.9,8,8.9,7.7,8.6L5.8,6.7L3.9,8.6C3.7,8.9,3.2,8.9,3,8.6C2.7,8.4,2.7,8,3,7.7l1.9-1.9L3,3.9
	C2.7,3.7,2.7,3.2,3,3c0.3-0.3,0.7-0.3,0.9,0l1.9,1.9L7.7,3C8,2.7,8.4,2.7,8.6,3c0.3,0.3,0.3,0.7,0,0.9L6.7,5.8L8.6,7.7z"/>
</svg>
