<?xml version="1.0" encoding="utf-8"?>
<!-- Generator: Adobe Illustrator 19.1.1, SVG Export Plug-In . SVG Version: 6.00 Build 0)  -->
<svg version="1.1" id="Layer_1" xmlns="http://www.w3.org/2000/svg" xmlns:xlink="http://www.w3.org/1999/xlink" x="0px" y="0px"
	 viewBox="0 0 41.5 138.4" style="enable-background:new 0 0 41.5 138.4;" xml:space="preserve">
<style type="text/css">
	.st0{fill:#CEAD49;}
	.st1{fill:#E2E2E1;}
	.st2{fill:#002856;}
	.st3{fill:#D1AD4F;}
</style>
<g>
	<g>
		<rect x="19.2" class="st0" width="3" height="94.8"/>
	</g>
	<path class="st1" d="M21.8,102h-2.2c-1.2,0-2.1-0.9-2.1-2.1V92c0-1.2,0.9-2.1,2.1-2.1h2.2c1.2,0,2.1,0.9,2.1,2.1v7.8
		C23.9,101,23,102,21.8,102z"/>
	<circle class="st2" cx="20.7" cy="117.7" r="20.7"/>
	<path class="st3" d="M0,117.7c0,2.4,0.4,4.7,1.2,6.8h39.1c0.7-2.1,1.2-4.4,1.2-6.8c0-2.4-0.4-4.7-1.2-6.8H1.2
		C0.4,113,0,115.3,0,117.7z"/>
</g>
</svg>
