<?xml version="1.0" encoding="utf-8"?>
<!-- Generator: Adobe Illustrator 19.1.1, SVG Export Plug-In . SVG Version: 6.00 Build 0)  -->
<svg version="1.1" id="Layer_1" xmlns="http://www.w3.org/2000/svg" xmlns:xlink="http://www.w3.org/1999/xlink" x="0px" y="0px"
	 viewBox="0 0 221.2 108.8" style="enable-background:new 0 0 221.2 108.8;" xml:space="preserve">
<style type="text/css">
	.st0{fill:#E5E5E5;}
	.st1{clip-path:url(#SVGID_2_);}
	.st2{fill:#A3A3A2;}
	.st3{fill:#EDEDED;}
	.st4{fill:#D1AD4F;}
	.st5{fill:#898989;}
	.st6{fill:#BBBBBB;}
	.st7{fill:#CFCFCE;}
	.st8{fill:#B3B3B3;}
</style>
<g>
	<g>
		<rect x="3.3" y="46.1" class="st0" width="61.2" height="61"/>
		<g>
			<defs>
				<polygon id="SVGID_1_" points="67.8,46.1 64.5,46.1 3.3,46.1 0,46.1 0,56.8 3.3,56.8 3.3,107.1 64.5,107.1 64.5,56.8 67.8,56.8 
									"/>
			</defs>
			<clipPath id="SVGID_2_">
				<use xlink:href="#SVGID_1_"  style="overflow:visible;"/>
			</clipPath>
			<g class="st1">
				
					<rect x="9.8" y="98" transform="matrix(0.7071 -0.7071 0.7071 0.7071 -52.7672 73.8849)" class="st2" width="105.9" height="5.2"/>
				
					<rect x="3.1" y="91.3" transform="matrix(0.7071 -0.7071 0.7071 0.7071 -49.9695 67.1308)" class="st2" width="105.9" height="5.2"/>
				
					<rect x="-3.7" y="84.5" transform="matrix(0.7071 -0.7071 0.7071 0.7071 -47.1719 60.3766)" class="st2" width="105.9" height="5.2"/>
				
					<rect x="-10.4" y="77.8" transform="matrix(0.7071 -0.7071 0.7071 0.7071 -44.3742 53.6225)" class="st2" width="105.9" height="5.2"/>
				
					<rect x="-17.2" y="71" transform="matrix(0.7071 -0.7071 0.7071 0.7071 -41.5766 46.8684)" class="st2" width="105.9" height="5.2"/>
				
					<rect x="-23.9" y="64.3" transform="matrix(0.7071 -0.7071 0.7071 0.7071 -38.7789 40.1142)" class="st2" width="105.9" height="5.2"/>
				
					<rect x="-30.7" y="57.5" transform="matrix(0.7071 -0.7071 0.7071 0.7071 -35.9813 33.3601)" class="st2" width="105.9" height="5.2"/>
				
					<rect x="-37.4" y="50.8" transform="matrix(0.7071 -0.7071 0.7071 0.7071 -33.1836 26.606)" class="st2" width="105.9" height="5.2"/>
				
					<rect x="-44.2" y="44" transform="matrix(0.7071 -0.7071 0.7071 0.7071 -30.386 19.8519)" class="st2" width="105.9" height="5.2"/>
			</g>
		</g>
		<rect x="0" y="46.1" class="st3" width="67.8" height="10.8"/>
		<rect x="29.5" y="46.2" class="st4" width="8.9" height="10.6"/>
		<rect x="29.5" y="56.7" class="st4" width="8.9" height="50.4"/>
		<g>
			<path class="st4" d="M35.1,46.8h-10c-5.5,0-10-4.5-10-10s4.5-10,10-10s10,4.5,10,10V46.8z M25.1,32.8c-2.2,0-4,1.8-4,4s1.8,4,4,4
				h4v-4C29.1,34.6,27.3,32.8,25.1,32.8z"/>
			<path class="st4" d="M42.8,46.8h-10v-10c0-5.5,4.5-10,10-10s10,4.5,10,10S48.3,46.8,42.8,46.8z M38.8,40.8h4c2.2,0,4-1.8,4-4
				s-1.8-4-4-4s-4,1.8-4,4V40.8z"/>
		</g>
	</g>
	<rect x="134.6" y="25.9" class="st5" width="82.2" height="82"/>
	<rect x="130.1" y="25.9" class="st6" width="91.2" height="14.4"/>
	<g>
		<path class="st4" d="M177.2,26.9h-13.4c-7.4,0-13.4-6-13.4-13.4S156.3,0,163.8,0c7.4,0,13.4,6,13.4,13.4V26.9z M163.8,8
			c-3,0-5.4,2.4-5.4,5.4s2.4,5.4,5.4,5.4h5.4v-5.4C169.2,10.4,166.8,8,163.8,8z"/>
		<path class="st4" d="M187.6,26.9h-13.4V13.4c0-7.4,6-13.4,13.4-13.4S201,6,201,13.4S195,26.9,187.6,26.9z M182.1,18.9h5.4
			c3,0,5.4-2.4,5.4-5.4S190.6,8,187.6,8s-5.4,2.4-5.4,5.4V18.9z"/>
	</g>
	<rect x="169.7" y="26.9" class="st4" width="12" height="81"/>
	<rect x="71.4" y="70.1" class="st7" width="91.3" height="38.8"/>
	<rect x="92.3" y="70.1" class="st4" width="8.6" height="38.8"/>
	<rect x="92.3" y="62.4" class="st4" width="8.6" height="7.6"/>
	<rect x="71.4" y="85.1" class="st4" width="91.3" height="8.6"/>
	<polygon class="st8" points="113.9,54 100.9,62.6 100.9,70.1 113.9,70.1 	"/>
	<polygon class="st8" points="79.3,54 92.3,62.6 92.3,70.1 79.3,70.1 	"/>
</g>
</svg>
