<?xml version="1.0" encoding="utf-8"?>
<!-- Generator: Adobe Illustrator 19.1.1, SVG Export Plug-In . SVG Version: 6.00 Build 0)  -->
<svg version="1.1" id="Layer_1" xmlns="http://www.w3.org/2000/svg" xmlns:xlink="http://www.w3.org/1999/xlink" x="0px" y="0px"
	 viewBox="0 0 41.5 196.2" style="enable-background:new 0 0 41.5 196.2;" xml:space="preserve">
<style type="text/css">
	.st0{fill:#CEAD49;}
	.st1{fill:#E2E2E1;}
	.st2{fill:#D1AD4F;}
	.st3{fill:#FFFFFF;}
</style>
<g>
	<g>
		<rect x="19.1" class="st0" width="3" height="147.4"/>
	</g>
	<path class="st1" d="M20.7,158.4L20.7,158.4c-1.8,0-3.2-1.4-3.2-3.2v-5.9c0-1,0.9-1.9,1.9-1.9H22c1,0,1.9,0.9,1.9,1.9v5.9
		C23.9,157,22.5,158.4,20.7,158.4z"/>
	<circle class="st2" cx="20.7" cy="175.5" r="20.7"/>
	<polygon class="st3" points="11.9,176.7 6.9,183 1.9,176.7 6.9,170.3 	"/>
	<polygon class="st3" points="21.6,176.7 16.7,183 11.7,176.7 16.7,170.3 	"/>
	<polygon class="st3" points="31.4,176.7 26.4,183 21.4,176.7 26.4,170.3 	"/>
	<polygon class="st3" points="40.9,176.7 35.9,183 30.9,176.7 35.9,170.3 	"/>
</g>
</svg>
