<?xml version="1.0" encoding="utf-8"?>
<!-- Generator: Adobe Illustrator 19.1.1, SVG Export Plug-In . SVG Version: 6.00 Build 0)  -->
<svg version="1.1" id="Layer_1" xmlns="http://www.w3.org/2000/svg" xmlns:xlink="http://www.w3.org/1999/xlink" x="0px" y="0px"
	 viewBox="0 0 128.1 85.6" style="enable-background:new 0 0 128.1 85.6;" xml:space="preserve">
<style type="text/css">
	.st0{fill:#7DAED3;}
	.st1{fill:#142D52;}
</style>
<g>
	<g>
		<g>
			<g>
				<path class="st0" d="M50.9,19c3.4,1.3,5.7,3.5,5.7,3.5c0-1.1,0.3-2.1,0.7-3.1c0,0-1.1-2-4.3-4.3c-3.5-2.4-7.4-3-7.4-3
					c-0.8,1.8-1.4,3.6-1.7,5.6C43.9,17.7,46.8,17.4,50.9,19z"/>
				<path class="st0" d="M53.4,12.1c3.3,3.2,4.4,6.3,4.4,6.3c0.6-1,1.4-1.8,2.4-2.5c0,0-1.2-3.8-3.2-6.6c-2-2.8-5.1-5.1-5.1-5.1
					c-1.6,1.2-2.9,2.6-4.1,4.2C47.8,8.4,51,9.8,53.4,12.1z"/>
				<path class="st0" d="M59.2,8.1c1.5,3.8,1.9,7.4,1.9,7.4c1-0.5,2.2-0.9,3.4-1c0,0,0.1-3.6-0.7-7.4c-0.9-4.4-2-7.1-2-7.1
					c-1.9,0.3-3.8,0.9-5.5,1.6C56.1,1.6,58.1,5.5,59.2,8.1z"/>
				<path class="st0" d="M78.7,19c-3.4,1.3-5.7,3.5-5.7,3.5c0-1.1-0.3-2.1-0.7-3.1c0,0,1.1-2,4.3-4.3c3.5-2.4,7.4-3,7.4-3
					c0.8,1.8,1.4,3.6,1.7,5.6C85.7,17.7,82.8,17.4,78.7,19z"/>
				<path class="st0" d="M76.2,12.1c-3.3,3.2-4.4,6.3-4.4,6.3c-0.6-1-1.4-1.8-2.4-2.5c0,0,1.2-3.8,3.2-6.6c2-2.8,5.1-5.1,5.1-5.1
					c1.6,1.2,2.9,2.6,4.1,4.2C81.8,8.4,78.6,9.8,76.2,12.1z"/>
				<path class="st0" d="M70.5,8.1c-1.5,3.8-1.9,7.4-1.9,7.4c-1-0.5-2.2-0.9-3.4-1c0,0-0.1-3.6,0.7-7.4C66.9,2.7,68,0,68,0
					c1.9,0.3,3.8,0.9,5.5,1.6C73.5,1.6,71.5,5.5,70.5,8.1z"/>
			</g>
			<g>
				<path class="st1" d="M53.8,31.8c4.1-1.9,8.2-1.5,8.2-1.5c-1.5-0.5-2.7-1.5-3.7-2.7c0,0-3.7-0.4-6.5,0.1
					c-4.2,0.9-6.1,2.3-6.1,2.3c0.9,1.8,2,3.4,3.3,4.9C49,34.9,50.8,33.3,53.8,31.8z"/>
				<path class="st1" d="M50.6,25.7c4.2-0.2,7,0.9,7,0.9c-0.5-0.9-0.9-2-1-3.1c0,0-3.3-1.9-6.3-2.3c-4.2-0.6-6.7,0.2-6.7,0.2
					c0.1,2,0.4,3.9,1,5.7C44.6,27.2,47.3,25.8,50.6,25.7z"/>
				<path class="st1" d="M64.8,35c6,0,8.6,5.2,8.6,5.2c1.9-0.8,3.6-1.9,5.1-3.2c0,0-5-6.3-13.7-6.3c-8.6,0-13.7,6.3-13.7,6.3
					c1.5,1.3,3.2,2.4,5.1,3.2C56.2,40.2,58.8,35,64.8,35z"/>
				<path class="st1" d="M75.8,31.8c-4.1-1.9-8.2-1.5-8.2-1.5c1.5-0.5,2.7-1.5,3.7-2.7c0,0,3.7-0.4,6.5,0.1c4.2,0.9,6.1,2.3,6.1,2.3
					c-0.9,1.8-2,3.4-3.3,4.9C80.6,34.9,78.8,33.3,75.8,31.8z"/>
				<path class="st1" d="M79,25.7c-4.2-0.2-7,0.9-7,0.9c0.5-0.9,0.9-2,1-3.1c0,0,3.3-1.9,6.3-2.3c4.2-0.6,6.7,0.2,6.7,0.2
					c-0.1,2-0.4,3.9-1,5.7C85,27.2,82.3,25.8,79,25.7z"/>
			</g>
		</g>
		<g>
			<path class="st1" d="M0,46h6.1v1.7H3.9l3.8,13.8l3.7-13.8h2.4l3.7,13.8l3.7-13.8h-2.2V46h6.1v1.7h-1.9l-4.5,16.4h-2.5l-3.7-13.2
				L9,64.1H6.4L1.9,47.7H0V46z"/>
			<path class="st1" d="M32.2,51.4h5.6V53h-1.6l-5.3,13.5c-0.9,2.2-2.1,3.2-4.1,3.2c-0.9,0-1.5-0.2-2.1-0.5l0.5-1.7
				c0.5,0.3,1,0.4,1.6,0.4c1,0,1.7-0.4,2.3-1.9l0.8-2L25.1,53h-1.6v-1.6h5.6V53h-2l3.7,8.7l3.3-8.7h-2V51.4z"/>
			<path class="st1" d="M37.7,62.5h2V47.6h-2V46h3.9v7.6c0.9-1.5,2.4-2.4,4.5-2.4c3.6,0,5.7,2.8,5.7,6.6c0,3.8-2.3,6.7-5.9,6.7
				c-2.1,0-3.5-0.9-4.4-2v1.7h-3.8V62.5z M41.6,57.8c0,3.2,1.9,4.9,4.3,4.9c2.3,0,4.1-1.7,4.1-5c0-3.2-1.8-4.9-4.1-4.9
				C43.6,52.8,41.6,54.5,41.6,57.8z"/>
			<path class="st1" d="M60.2,51.1c3.8,0,6.1,2.8,6.1,6.6c0,3.8-2.3,6.6-6.1,6.6S54,61.6,54,57.8C54,53.9,56.3,51.1,60.2,51.1z
				 M60.2,62.7c2.4,0,4.2-1.7,4.2-4.9c0-3.2-1.9-4.9-4.2-4.9c-2.4,0-4.2,1.7-4.2,4.9C55.9,60.9,57.8,62.7,60.2,62.7z"/>
			<path class="st1" d="M72.5,62.5H75v1.6h-6.4v-1.6h2V53h-2v-1.6h3.8v2.2c0.8-1.3,2-2.4,3.7-2.4c0.4,0,0.9,0.1,1.5,0.3l0,1.9
				c-0.5-0.2-1-0.2-1.5-0.2c-2.1,0-3.5,1.5-3.5,3.9V62.5z"/>
			<path class="st1" d="M84.4,51.1c3.8,0,6.1,2.8,6.1,6.6c0,3.8-2.3,6.6-6.1,6.6s-6.1-2.8-6.1-6.6C78.3,53.9,80.6,51.1,84.4,51.1z
				 M84.4,62.7c2.4,0,4.2-1.7,4.2-4.9c0-3.2-1.9-4.9-4.2-4.9c-2.4,0-4.2,1.7-4.2,4.9C80.2,60.9,82,62.7,84.4,62.7z"/>
			<path class="st1" d="M109.6,53h-1.8v-1.6h5.4V53h-1.6l-3.9,11.1H105l-2.8-10.5l-2.8,10.5h-2.6L92.8,53h-1.6v-1.6h5.4V53h-1.9
				l3.3,9.1l2.9-10.8h2.5l2.9,10.8L109.6,53z"/>
			<path class="st1" d="M126,62.5h2.1v1.6h-4v-2.3c-0.8,1.5-2.3,2.5-4.5,2.5c-3.5,0-5.7-2.8-5.7-6.6c0-3.7,2.5-6.7,6.1-6.7
				c1.9,0,3.3,0.9,4.1,1.9v-1.6h3.9V53h-2V62.5z M115.8,57.8c0,3.2,1.8,4.9,4.1,4.9c2.5,0,4.3-2,4.3-5.2c0-3.2-2-4.7-4.2-4.7
				C117.6,52.8,115.8,54.6,115.8,57.8z"/>
		</g>
		<g>
			<path class="st1" d="M6.3,84.1h2.3v1.2H3.3v-1.2h1.6V73.6H3.3v-1.2h5.5c2.7,0,4.4,1.4,4.4,4c0,2.5-1.8,4-4.5,4H6.3V84.1z
				 M6.3,73.7v5.5h2.5c2.2,0,3-1.2,3-2.8c0-1.6-1-2.7-2.9-2.7H6.3z"/>
			<path class="st1" d="M22.3,83.3c-0.5,1.3-1.8,2.3-3.7,2.3c-2.6,0-4.4-1.7-4.4-4.7c0-2.8,1.6-4.7,4.3-4.7c2.8,0,4.6,2.3,4,5.3
				h-6.9c0.1,1.7,1.1,3,2.9,3c1.3,0,2.1-0.6,2.6-1.5L22.3,83.3z M21.1,80.2c0.1-1.6-1-2.9-2.7-2.9c-1.8,0-2.9,1.4-2.9,2.9H21.1z"/>
			<path class="st1" d="M27.1,84.2h1.8v1.2h-4.6v-1.2h1.4v-6.7h-1.4v-1.2H27v1.5c0.5-0.9,1.4-1.7,2.6-1.7c0.3,0,0.7,0.1,1,0.2l0,1.4
				c-0.4-0.1-0.7-0.2-1.1-0.2c-1.5,0-2.5,1.1-2.5,2.8V84.2z"/>
			<path class="st1" d="M34.3,77.8c0.7-1.2,1.8-1.7,3.1-1.7c1.9,0,3.4,1.1,3.4,3.9v4.2h1.4v1.2h-4.2v-1.2h1.4v-4
				c0-1.9-0.9-2.9-2.5-2.9c-1.3,0-2.6,0.8-2.6,3.1v3.8h1.4v1.2h-4.2v-1.2h1.4v-6.7h-1.4v-1.2h2.7V77.8z"/>
			<path class="st1" d="M47.8,76.1c2.7,0,4.4,2,4.4,4.7c0,2.7-1.6,4.7-4.4,4.7c-2.7,0-4.4-2-4.4-4.7C43.4,78.1,45.1,76.1,47.8,76.1z
				 M47.8,84.3c1.7,0,3-1.2,3-3.5c0-2.3-1.3-3.5-3-3.5c-1.7,0-3,1.2-3,3.5C44.8,83.1,46.1,84.3,47.8,84.3z"/>
			<path class="st1" d="M62.4,84.2h1.5v1.2h-2.8v-1.6c-0.6,1.1-1.6,1.8-3.3,1.8c-2.4,0-4.1-1.9-4.1-4.7c0-2.7,1.8-4.8,4.4-4.8
				c1.3,0,2.4,0.7,2.9,1.2v-3.7h-1.5v-1.2h2.9V84.2z M55.1,80.9c0,2.3,1.3,3.5,2.9,3.5c1.8,0,3.1-1.4,3.1-3.7c0-2.3-1.5-3.3-3-3.3
				C56.4,77.3,55.1,78.5,55.1,80.9z"/>
			<path class="st1" d="M81.1,84.1v1.2h-2.4l-3.2-5.3h-2.2v4.1H75v1.2h-4.6v-1.2h1.6V73.6h-1.6v-1.2h5.6c2.5,0,4.3,1.4,4.3,3.8
				c0,2-1.5,3.4-3,3.7l2.5,4.2H81.1z M75.4,78.9c2.5,0,3.4-1.2,3.4-2.7c0-1.4-1-2.5-2.9-2.5h-2.6v5.2H75.4z"/>
			<path class="st1" d="M85.4,84.2h1.4v1.2h-4.2v-1.2H84v-6.7h-1.4v-1.2h2.8V84.2z M83.7,72.4h1.6v1.7h-1.6V72.4z"/>
			<path class="st1" d="M96.4,83.1c-0.7,1.4-2,2.4-4,2.4c-2.8,0-4.4-2-4.4-4.7c0-2.7,1.6-4.7,4.4-4.7c1.1,0,2,0.4,2.5,1v-1h1.2v3.3
				h-1.3c0-1.2-1-2.1-2.4-2.1c-1.8,0-3,1.2-3,3.5c0,2.2,1.3,3.5,3,3.5c1.2,0,2.2-0.7,2.7-1.7L96.4,83.1z"/>
			<path class="st1" d="M106.4,84.2h1.5v1.2h-2.8v-1.6c-0.6,1.1-1.6,1.8-3.2,1.8c-2.5,0-4.1-2-4.1-4.7c0-2.7,1.8-4.8,4.4-4.8
				c1.3,0,2.4,0.7,2.9,1.4v-1.2h2.8v1.2h-1.4V84.2z M99.1,80.9c0,2.3,1.3,3.5,2.9,3.5c1.8,0,3.1-1.4,3.1-3.7c0-2.3-1.5-3.3-3-3.3
				C100.5,77.3,99.1,78.5,99.1,80.9z"/>
			<path class="st1" d="M112.5,84.2h1.8v1.2h-4.6v-1.2h1.4v-6.7h-1.4v-1.2h2.7v1.5c0.5-0.9,1.4-1.7,2.6-1.7c0.3,0,0.7,0.1,1,0.2
				l0,1.4c-0.4-0.1-0.7-0.2-1.1-0.2c-1.5,0-2.5,1.1-2.5,2.8V84.2z"/>
			<path class="st1" d="M125.2,84.2h1.5v1.2H124v-1.6c-0.6,1.1-1.6,1.8-3.3,1.8c-2.4,0-4.1-1.9-4.1-4.7c0-2.7,1.8-4.8,4.4-4.8
				c1.3,0,2.4,0.7,2.9,1.2v-3.7h-1.5v-1.2h2.9V84.2z M117.9,80.9c0,2.3,1.3,3.5,2.9,3.5c1.8,0,3.1-1.4,3.1-3.7c0-2.3-1.5-3.3-3-3.3
				C119.3,77.3,117.9,78.5,117.9,80.9z"/>
		</g>
	</g>
</g>
</svg>
